<?xml version="1.0" encoding="UTF-8" standalone="no"?>
<!-- Created with Inkscape (http://www.inkscape.org/) -->

<svg
   xmlns:dc="http://purl.org/dc/elements/1.1/"
   xmlns:cc="http://creativecommons.org/ns#"
   xmlns:rdf="http://www.w3.org/1999/02/22-rdf-syntax-ns#"
   xmlns:svg="http://www.w3.org/2000/svg"
   xmlns="http://www.w3.org/2000/svg"
   xmlns:sodipodi="http://sodipodi.sourceforge.net/DTD/sodipodi-0.dtd"
   xmlns:inkscape="http://www.inkscape.org/namespaces/inkscape"
   width="88.754425mm"
   height="22.606789mm"
   viewBox="0 0 314.48415 80.102793"
   id="svg2"
   version="1.1"
   inkscape:version="0.91 r13725"
   inkscape:export-filename="C:\Users\Damian\OneDrive\Silky Stuff\Images\logo1.png"
   inkscape:export-xdpi="37.432453"
   inkscape:export-ydpi="37.432453"
   sodipodi:docname="logo1.svg">
  <defs
     id="defs4" />
  <sodipodi:namedview
     id="base"
     pagecolor="#ffffff"
     bordercolor="#666666"
     borderopacity="1.0"
     inkscape:pageopacity="0.0"
     inkscape:pageshadow="2"
     inkscape:zoom="1.4325572"
     inkscape:cx="183.94301"
     inkscape:cy="36.574911"
     inkscape:document-units="px"
     inkscape:current-layer="layer1"
     showgrid="false"
     inkscape:window-width="1536"
     inkscape:window-height="801"
     inkscape:window-x="-8"
     inkscape:window-y="-8"
     inkscape:window-maximized="1"
     fit-margin-top="2"
     fit-margin-left="2"
     fit-margin-right="2"
     fit-margin-bottom="1" />
  <metadata
     id="metadata7">
    <rdf:RDF>
      <cc:Work
         rdf:about="">
        <dc:format>image/svg+xml</dc:format>
        <dc:type
           rdf:resource="http://purl.org/dc/dcmitype/StillImage" />
        <dc:title></dc:title>
      </cc:Work>
    </rdf:RDF>
  </metadata>
  <g
     inkscape:label="Layer 1"
     inkscape:groupmode="layer"
     id="layer1"
     transform="translate(-86.147084,-658.40883)">
    <path
       style="fill:#3e6da9;fill-opacity:1;stroke:none;stroke-width:0;stroke-miterlimit:4;stroke-dasharray:none;stroke-opacity:1"
       d="m 93.233668,730.05402 0,-4.91391 1.101393,-0.003 c 1.736115,-0.005 4.374969,-1.43306 5.945059,-3.21677 2.46154,-2.79638 2.44248,-2.61079 2.44248,-23.78312 l 0,-18.74691 4.93137,0 4.93138,0 -0.11438,19.90981 c -0.12645,22.00887 -0.0483,21.17523 -2.40808,25.67094 -1.50381,2.86488 -5.24154,6.50067 -8.10459,7.88354 -2.420295,1.16902 -5.787208,2.10036 -7.623239,2.10871 l -1.101393,0.005 0,-4.91391 z m 38.294592,-13.92124 c -3.2742,-0.8616 -6.10276,-2.51611 -8.64344,-5.05579 -3.92178,-3.92023 -5.70076,-8.15065 -5.70076,-13.55642 0,-5.40578 1.77898,-9.6362 5.70076,-13.55643 3.69455,-3.69311 8.20497,-5.59995 13.20494,-5.5826 3.01563,0.0105 4.91035,0.44469 7.43851,1.7047 1.10152,0.54898 2.05465,0.99815 2.11807,0.99815 0.0635,0 0.11532,-0.38126 0.11532,-0.84723 l 0,-0.84723 4.9139,0 4.91391,0 0,18.13064 0,18.13061 -4.91391,0 -4.9139,0 0,-0.85293 0,-0.85292 -1.77918,0.90393 c -0.97854,0.49717 -2.54167,1.10793 -3.47362,1.35725 -2.1921,0.58644 -6.60967,0.55017 -8.9806,-0.0738 z m 8.9806,-9.75121 c 1.87242,-0.87378 4.04365,-3.06477 4.77738,-4.82087 0.62716,-1.50097 0.62716,-6.57931 0,-8.08028 -0.66915,-1.6015 -2.78803,-3.84588 -4.41538,-4.67687 -1.71647,-0.87651 -5.40355,-1.18348 -7.42321,-0.618 -0.81291,0.22759 -2.22274,0.97668 -3.13296,1.66463 -4.96302,3.75105 -4.96808,11.5859 -0.01,15.3333 2.07417,1.56765 3.17403,1.91846 6.13736,1.95755 1.82198,0.024 2.76529,-0.15214 4.0667,-0.75946 z m 108.31736,9.77194 c -12.35292,-3.46006 -18.07263,-17.67201 -11.48606,-28.53981 1.80979,-2.98614 4.80972,-5.72561 7.88577,-7.20113 3.14143,-1.50687 5.39386,-2.04132 8.57366,-2.0343 10.59537,0.0234 19.0459,8.50858 19.0459,19.12409 0,8.21267 -4.71847,15.06625 -12.41104,18.02709 -2.94281,1.13269 -8.68942,1.44163 -11.60823,0.62406 z m 8.35648,-9.4986 c 5.79225,-2.409 7.94646,-8.55203 4.93762,-14.08027 -1.63574,-3.00537 -4.66262,-4.69515 -8.42213,-4.70169 -5.56228,-0.01 -9.6379,4.06592 -9.64762,9.64762 -0.007,3.96573 2.15335,7.32973 5.75039,8.95459 1.88529,0.85164 5.55159,0.94091 7.38174,0.17975 z m 20.40725,-8.62601 0,-18.63897 4.91391,0 4.9139,0 0,12.90068 0,12.90065 0.76252,-0.23647 c 3.00696,-0.93257 7.59364,-4.08677 10.4866,-7.21152 4.36735,-4.71726 6.62991,-9.73005 7.5574,-16.74361 l 0.21288,-1.60973 4.86088,0 4.86089,0 -0.14893,1.44028 c -0.8641,8.35532 -2.84932,13.81607 -7.28434,20.03673 -4.32197,6.06215 -10.62508,10.80121 -18.1162,13.62085 -2.85777,1.07567 -8.40731,2.18007 -10.95467,2.18007 l -2.06484,0 0,-18.63896 z m -114.88378,-0.32959 0,-18.30938 4.74446,0 4.74446,0 0,0.99089 0,0.99088 2.05437,-1.37186 c 2.44133,-1.63025 5.47588,-2.64515 7.88836,-2.63824 4.16345,0.0119 9.14949,1.96054 12.23706,4.78241 l 1.88142,1.71951 1.88141,-1.71951 c 3.12702,-2.85792 8.09366,-4.77852 12.35198,-4.77652 8.73678,0.004 16.62028,6.17523 18.80109,14.7173 0.40931,1.60328 0.51564,4.27843 0.51564,12.97186 l 0,10.95203 -4.82917,-0.0941 -4.82919,-0.0941 -0.16945,-11.01394 c -0.16136,-10.48872 -0.20459,-11.07959 -0.90652,-12.39086 -2.49991,-4.67012 -7.97645,-6.49621 -12.58138,-4.19509 -2.29299,1.14582 -3.54346,2.42698 -4.6116,4.7248 -0.66393,1.42823 -0.71588,2.20831 -0.81891,12.29391 l -0.11002,10.76892 -4.8039,-0.0939 -4.8039,-0.0939 -0.16944,-11.01394 c -0.18817,-12.23105 -0.21705,-12.39451 -2.61395,-14.79142 -1.99872,-1.99872 -3.64615,-2.64969 -6.70553,-2.64969 -3.10035,0 -4.72838,0.65795 -6.73146,2.72045 -2.39491,2.46597 -2.39992,2.49446 -2.58801,14.72066 l -0.16946,11.01394 -4.82919,0.0941 -4.82917,0.0941 0,-18.30937 z m 158.26174,-0.17874 0,-18.13064 4.74444,0 4.74446,0 0,18.13064 0,18.13061 -4.74446,0 -4.74444,0 0,-18.13061 z M 102.7226,670.2399 l 0,-4.74446 4.74446,0 4.74446,0 0,4.74446 0,4.74446 -4.74446,0 -4.74446,0 0,-4.74446 z m 218.24531,0 0,-4.74446 4.74444,0 4.74446,0 0,4.74446 0,4.74446 -4.74446,0 -4.74444,0 0,-4.74446 z"
       id="path4694"
       inkscape:connector-curvature="0" />
    <path
       style="fill:#636363;fill-opacity:1"
       d="m 361.50284,715.39266 c -1.06162,-0.38628 -2.5792,-2.08593 -2.81301,-3.15047 -0.30668,-1.39615 0.36195,-3.35735 1.51334,-4.43904 1.4145,-1.32887 3.9868,-1.21371 5.44426,0.24379 1.41596,1.41592 1.75599,3.32097 0.9107,5.10229 -0.88605,1.86721 -3.23027,2.90753 -5.05529,2.24343 z m 3.74415,-1.8873 c 1.06974,-1.35996 0.98568,-3.61403 -0.1782,-4.77791 -2.01782,-2.01782 -5.43382,-0.5933 -5.43382,2.266 0,1.78321 0.5619,2.75238 1.92884,3.32716 1.48342,0.62376 2.77637,0.33757 3.68318,-0.81525 z M 347.307,708.74441 c 0,-5.35661 0.0945,-6.53754 0.52338,-6.53754 0.28784,0 2.01095,2.3953 3.82914,5.32286 l 3.30576,5.32292 0.0916,-4.48237 c 0.0991,-4.84882 0.28029,-6.16341 0.84943,-6.16341 0.2256,0 0.36645,2.51288 0.36645,6.53754 0,5.02037 -0.10962,6.53756 -0.47228,6.53756 -0.25979,0 -1.98293,-2.42808 -3.82918,-5.3958 l -3.35686,-5.3958 -0.10338,5.3958 c -0.0854,4.45694 -0.19915,5.3958 -0.65375,5.3958 -0.46383,0 -0.55039,-1.02815 -0.55039,-6.53756 z m 22.32087,3.09469 c -0.72877,-1.90755 -1.44408,-3.76245 -1.5896,-4.12202 -0.1807,-0.44649 -0.0902,-0.65376 0.28571,-0.65376 0.34813,0 0.93107,1.0635 1.58695,2.89521 0.57018,1.59236 1.1471,3.02095 1.28203,3.1746 0.13493,0.15365 0.74162,-1.09416 1.3482,-2.77293 0.60658,-1.67873 1.2901,-3.11367 1.51898,-3.18877 0.22885,-0.075 0.80342,0.9206 1.27677,2.21258 0.47335,1.29198 1.01798,2.76926 1.21023,3.28294 0.31866,0.85144 0.45652,0.65513 1.56004,-2.22198 1.08293,-2.82326 2.10665,-4.29036 2.05551,-2.94579 -0.0329,0.85925 -2.85701,7.55847 -3.24047,7.6863 -0.20079,0.067 -0.91849,-1.42523 -1.59481,-3.31592 l -1.22964,-3.4376 -1.17161,3.30407 c -0.64438,1.81725 -1.35196,3.36424 -1.57242,3.43772 -0.22048,0.0735 -0.9971,-1.4271 -1.72587,-3.33465 z m 12.07197,2.91135 c -0.57992,-0.69877 -0.21193,-1.33635 0.77127,-1.33635 0.55845,0 0.72052,0.20808 0.63172,0.81129 -0.14921,1.0138 -0.79636,1.25599 -1.40299,0.52506 z m -19.57432,-13.16621 c -0.31134,-0.31127 -0.33159,-11.42927 -0.0224,-12.23515 0.32266,-0.84089 0.89397,-0.73174 0.89397,0.1708 0,0.75317 0.009,0.75363 0.77303,0.0415 1.80475,-1.68137 5.0139,-1.10933 6.15492,1.09713 0.76223,1.47408 0.5611,4.1462 -0.3914,5.19867 -1.03906,1.14817 -2.94817,1.6258 -4.47902,1.12058 -0.71751,-0.23681 -1.46892,-0.71216 -1.66972,-1.0563 -0.25811,-0.44236 -0.36841,0.33221 -0.37645,2.64304 -0.0104,3.0001 -0.21231,3.69046 -0.88302,3.01973 z m 6.38184,-6.20977 c 1.16191,-1.06347 1.17726,-3.78148 0.0283,-5.00453 -0.90547,-0.96384 -3.05826,-1.16756 -4.07659,-0.38576 -2.11527,1.62405 -1.78535,5.06876 0.58371,6.09451 1.3142,0.56904 2.29023,0.37065 3.46461,-0.70422 z m -18.02497,1.29392 c -0.82188,-0.38872 -1.78206,-1.03085 -2.13378,-1.42696 -0.97332,-1.09609 -1.78876,-3.31115 -1.78876,-4.859 0,-1.71266 1.23922,-4.35796 2.50964,-5.35728 2.62118,-2.06179 6.61335,-1.72014 8.85178,0.75752 2.29991,2.54569 2.5483,5.31847 0.75589,8.43712 -1.53095,2.66375 -5.33607,3.80071 -8.19477,2.4486 z m 5.72245,-1.19723 c 1.66936,-1.01777 2.84724,-3.66801 2.52526,-5.68173 -0.53523,-3.34713 -2.44491,-5.1367 -5.48405,-5.13917 -5.64778,-0.005 -7.72619,7.86762 -2.86046,10.83428 1.60843,0.98067 4.19858,0.97471 5.81925,-0.0134 z m 18.1201,1.29188 c -3.01803,-1.52658 -2.74936,-6.95234 0.39568,-7.9903 0.70203,-0.23169 1.71413,-0.3114 2.24911,-0.17713 1.37051,0.34398 2.90473,2.27706 2.7647,3.48352 -0.11135,0.95926 -0.16679,0.97692 -3.40242,1.08339 -3.19784,0.10523 -3.28243,0.1312 -3.043,0.93394 0.66157,2.2179 3.14887,2.97286 4.77167,1.44833 1.01075,-0.94955 1.37377,-1.01764 1.37377,-0.25766 0,1.43596 -3.30252,2.38992 -5.10951,1.47591 z m 4.36235,-5.11993 c 0,-2.15676 -3.40119,-2.96911 -4.82936,-1.15346 -0.42584,0.54136 -0.77427,1.12975 -0.77427,1.30751 0,0.17775 1.26081,0.32319 2.80179,0.32319 2.0246,0 2.80184,-0.13239 2.80184,-0.47724 z m 3.443,1.34817 c 0.0739,-2.77782 0.24749,-4.03247 0.57296,-4.14045 0.25685,-0.0852 0.46702,0.0902 0.46702,0.38972 0,0.44734 0.25926,0.41634 1.45147,-0.17352 1.7437,-0.8627 3.09912,-0.62883 4.15808,0.71745 0.60512,0.76925 0.74126,1.5163 0.74126,4.06734 0,2.52873 -0.10692,3.12501 -0.56036,3.12501 -0.4538,0 -0.56038,-0.5989 -0.56038,-3.1487 0,-3.59963 -0.40613,-4.32281 -2.42779,-4.32281 -2.00877,0 -2.80228,1.33657 -2.80228,4.72007 0,2.22365 -0.10993,2.75144 -0.57303,2.75144 -0.48579,0 -0.55686,-0.60674 -0.46695,-3.98555 z m 9.77416,3.44307 c -0.26768,-0.69766 0.12343,-1.3254 0.82578,-1.3254 0.76338,0 1.12258,1.12426 0.48762,1.52627 -0.74277,0.47034 -1.07536,0.41947 -1.3134,-0.20087 z m -42.98559,-17.9359 c -1.59956,-0.6957 -3.11289,-3.56254 -1.88053,-3.56254 0.26318,0 0.66993,0.50727 0.90398,1.12726 1.14477,3.03293 6.4626,2.56644 6.4626,-0.56689 0,-1.50696 -0.77067,-2.18263 -3.36216,-2.94772 -1.13007,-0.33362 -2.34224,-0.82923 -2.69373,-1.10134 -1.53577,-1.18894 -1.44149,-4.14612 0.16818,-5.27358 0.48602,-0.34041 1.61892,-0.5771 2.76224,-0.5771 1.70585,0 2.05436,0.13786 2.90548,1.14939 0.97899,1.16345 1.29485,2.58636 0.57415,2.58636 -0.21615,0 -0.57004,-0.50788 -0.78645,-1.12861 -0.7173,-2.0577 -3.38398,-2.56051 -5.00146,-0.94303 -1.83578,1.83573 -1.02015,3.28106 2.43157,4.30903 2.88415,0.85894 4.12292,2.00514 4.12292,3.81474 0,1.48978 -0.56194,2.42514 -1.86037,3.09658 -1.34398,0.695 -3.17307,0.70171 -4.74638,0.0175 z m 15.76453,-0.26309 c -3.30173,-2.59711 -1.85324,-7.78234 2.17406,-7.78234 0.86739,0 1.93966,0.25396 2.3828,0.56436 0.51005,0.35723 0.89142,0.42579 1.03914,0.18679 0.65987,-1.06773 0.93639,-0.0209 0.93639,3.54495 0,2.44555 -0.14509,3.92254 -0.3853,3.92254 -0.21189,0 -0.4815,-0.25067 -0.59907,-0.55704 -0.18047,-0.47039 -0.36083,-0.44133 -1.15934,0.18678 -1.23956,0.97508 -3.10075,0.94707 -4.38868,-0.066 z m 3.89066,-0.48382 c 1.24307,-0.64282 1.521,-1.2343 1.521,-3.23674 0,-3.13423 -3.41311,-4.50699 -5.38357,-2.16525 -1.52117,1.80776 -1.0803,4.46263 0.90808,5.46869 1.20026,0.60732 1.67171,0.59667 2.95449,-0.0667 z m 12.47254,0.91751 c -1.33689,-0.53866 -2.17182,-2.61241 -1.05176,-2.61241 0.30819,0 0.56037,0.31582 0.56037,0.70182 0,1.58773 3.82282,1.91016 4.31366,0.36383 0.33052,-1.04143 -0.39051,-1.71547 -2.15361,-2.01336 -1.82178,-0.30778 -3.38484,-1.68559 -3.03344,-2.67391 0.50632,-1.42412 1.33916,-1.982 2.95882,-1.982 1.27937,0 1.74982,0.19534 2.37039,0.98431 0.88624,1.12664 0.97974,1.6307 0.30246,1.6307 -0.25945,0 -0.63769,-0.37824 -0.84055,-0.84053 -0.42886,-0.97761 -2.51076,-1.35637 -3.39981,-0.61855 -1.15494,0.95852 -0.45422,1.94188 1.87528,2.63164 2.39843,0.71017 2.82245,1.1049 2.83116,2.63541 0.0102,1.78219 -2.44831,2.71355 -4.73297,1.79305 z m -21.98969,-0.52451 c -0.58551,-0.42812 -0.74663,-1.09469 -0.85811,-3.54896 -0.12114,-2.66818 -0.22003,-3.02184 -0.84479,-3.02184 -0.38915,0 -0.7076,-0.16811 -0.7076,-0.37357 0,-0.20547 0.33622,-0.37358 0.74715,-0.37358 0.63643,0 0.74711,-0.24905 0.74711,-1.68109 0,-1.24525 0.14533,-1.68108 0.56037,-1.68108 0.41508,0 0.56036,0.43583 0.56036,1.68108 0,1.6722 0.008,1.68109 1.30752,1.68109 0.71913,0 1.3075,0.16811 1.3075,0.37358 0,0.20546 -0.58837,0.37357 -1.3075,0.37357 l -1.30752,0 0,2.72709 c 0,3.01516 0.32992,3.62368 1.96464,3.62368 0.61691,0 0.97054,0.1578 0.83718,0.37358 -0.3391,0.54867 -2.17417,0.45495 -3.00631,-0.15355 z m 16.72834,0.21496 c -0.67853,-0.43068 -1.20729,-2.54265 -1.20729,-4.82203 0,-1.71468 -0.0947,-1.96373 -0.74713,-1.96373 -0.41094,0 -0.74716,-0.16811 -0.74716,-0.37357 0,-0.20547 0.32653,-0.37358 0.72567,-0.37358 0.58419,0 0.74807,-0.30385 0.84054,-1.55866 0.16426,-2.2289 1.04882,-2.35841 1.04882,-0.15355 0,1.70776 0.003,1.71221 1.30755,1.71221 0.71912,0 1.3075,0.16811 1.3075,0.37358 0,0.20546 -0.58838,0.37357 -1.3075,0.37357 l -1.30755,0 0,2.58834 c 0,2.85382 0.50268,3.76243 2.08136,3.76243 0.49899,0 0.90724,0.1681 0.90724,0.37358 0,0.44446 -2.22437,0.49153 -2.90205,0.0613 z m 12.00401,-0.2457 c -0.12939,-0.3372 -0.0561,-0.79221 0.1628,-1.01116 0.56919,-0.56918 1.64761,-0.0489 1.49895,0.72306 -0.16559,0.85992 -1.36265,1.06745 -1.66175,0.2881 z"
       id="path4707"
       inkscape:connector-curvature="0" />
  </g>
</svg>
