<?xml version="1.0" encoding="UTF-8" standalone="no"?>
<svg
   xmlns:dc="http://purl.org/dc/elements/1.1/"
   xmlns:cc="http://creativecommons.org/ns#"
   xmlns:rdf="http://www.w3.org/1999/02/22-rdf-syntax-ns#"
   xmlns:svg="http://www.w3.org/2000/svg"
   xmlns="http://www.w3.org/2000/svg"
   id="svg205"
   version="1.2"
   viewBox="0 0 288 288"
   height="288pt"
   width="288pt">
  <metadata
     id="metadata211">
    <rdf:RDF>
      <cc:Work
         rdf:about="">
        <dc:format>image/svg+xml</dc:format>
        <dc:type
           rdf:resource="http://purl.org/dc/dcmitype/StillImage" />
      </cc:Work>
    </rdf:RDF>
  </metadata>
  <defs
     id="defs209" />
  <g
     id="surface1">
    <rect
       id="rect2"
       style="fill:#ffffff;fill-opacity:1;stroke:none"
       height="288"
       width="288"
       y="0"
       x="0" />
    <path
       id="path4"
       transform="matrix(0.1,0,0,-0.1,0,288)"
       d="m 1147.1875,1656.4063 c 0,14.9218 -12.0703,26.9921 -26.9922,26.9921 -14.9219,0 -26.9922,-12.0703 -26.9922,-26.9921 0,-14.9219 12.0703,-26.9922 26.9922,-26.9922 14.9219,0 26.9922,12.0703 26.9922,26.9922"
       style="fill:#5900ff;fill-opacity:1;fill-rule:nonzero;stroke:#5900ff;stroke-width:7.5;stroke-linecap:round;stroke-linejoin:round;stroke-miterlimit:10;stroke-opacity:1" />
    <path
       id="path6"
       transform="matrix(0.1,0,0,-0.1,0,288)"
       d="m 1546.9141,1480.3125 c 0,14.8828 -12.1094,26.9922 -27.0313,26.9922 -14.8828,0 -26.9922,-12.1094 -26.9922,-26.9922 0,-14.9219 12.1094,-27.0312 26.9922,-27.0312 14.9219,0 27.0313,12.1093 27.0313,27.0312"
       style="fill:#5900ff;fill-opacity:1;fill-rule:nonzero;stroke:#5900ff;stroke-width:7.5;stroke-linecap:round;stroke-linejoin:round;stroke-miterlimit:10;stroke-opacity:1" />
    <path
       id="path8"
       transform="matrix(0.1,0,0,-0.1,0,288)"
       d="m 1340,1123.7891 c 0,14.9218 -12.1094,26.9922 -26.9922,26.9922 -14.9219,0 -26.9922,-12.0704 -26.9922,-26.9922 0,-14.8828 12.0703,-26.9922 26.9922,-26.9922 14.8828,0 26.9922,12.1094 26.9922,26.9922"
       style="fill:#5900ff;fill-opacity:1;fill-rule:nonzero;stroke:#5900ff;stroke-width:7.5;stroke-linecap:round;stroke-linejoin:round;stroke-miterlimit:10;stroke-opacity:1" />
    <path
       id="path10"
       transform="matrix(0.1,0,0,-0.1,0,288)"
       d="m 1600.8984,1706.9141 c 0,14.8828 -12.0703,26.9922 -26.9921,26.9922 -14.9219,0 -26.9922,-12.1094 -26.9922,-26.9922 0,-14.9219 12.0703,-27.0313 26.9922,-27.0313 14.9218,0 26.9921,12.1094 26.9921,27.0313"
       style="fill:#5900ff;fill-opacity:1;fill-rule:nonzero;stroke:#5900ff;stroke-width:7.5;stroke-linecap:round;stroke-linejoin:round;stroke-miterlimit:10;stroke-opacity:1" />
    <path
       id="path12"
       transform="matrix(0.1,0,0,-0.1,0,288)"
       d="m 1260.5078,1740 c 0,14.9219 -12.1094,26.9922 -26.9922,26.9922 -14.9218,0 -27.0312,-12.0703 -27.0312,-26.9922 0,-14.9219 12.1094,-26.9922 27.0312,-26.9922 14.8828,0 26.9922,12.0703 26.9922,26.9922"
       style="fill:#5900ff;fill-opacity:1;fill-rule:nonzero;stroke:#5900ff;stroke-width:7.5;stroke-linecap:round;stroke-linejoin:round;stroke-miterlimit:10;stroke-opacity:1" />
    <path
       id="path14"
       transform="matrix(0.1,0,0,-0.1,0,288)"
       d="m 1533.9063,1710.5078 c 0,14.8828 -12.1094,26.9922 -26.9922,26.9922 -14.9219,0 -27.0313,-12.1094 -27.0313,-26.9922 0,-14.9219 12.1094,-26.9922 27.0313,-26.9922 14.8828,0 26.9922,12.0703 26.9922,26.9922"
       style="fill:#5900ff;fill-opacity:1;fill-rule:nonzero;stroke:#5900ff;stroke-width:7.5;stroke-linecap:round;stroke-linejoin:round;stroke-miterlimit:10;stroke-opacity:1" />
    <path
       id="path16"
       transform="matrix(0.1,0,0,-0.1,0,288)"
       d="m 1307.6172,1707.1094 c 0,14.8828 -12.1094,26.9922 -27.0313,26.9922 -14.8828,0 -26.9921,-12.1094 -26.9921,-26.9922 0,-14.9219 12.1093,-26.9922 26.9921,-26.9922 14.9219,0 27.0313,12.0703 27.0313,26.9922"
       style="fill:#5900ff;fill-opacity:1;fill-rule:nonzero;stroke:#5900ff;stroke-width:7.5;stroke-linecap:round;stroke-linejoin:round;stroke-miterlimit:10;stroke-opacity:1" />
    <path
       id="path18"
       transform="matrix(0.1,0,0,-0.1,0,288)"
       d="m 1919.1016,1431.7969 c 0,14.9219 -12.1094,26.9922 -26.9922,26.9922 -14.9219,0 -26.9922,-12.0703 -26.9922,-26.9922 0,-14.9219 12.0703,-26.9922 26.9922,-26.9922 14.8828,0 26.9922,12.0703 26.9922,26.9922"
       style="fill:#5900ff;fill-opacity:1;fill-rule:nonzero;stroke:#5900ff;stroke-width:7.5;stroke-linecap:round;stroke-linejoin:round;stroke-miterlimit:10;stroke-opacity:1" />
    <path
       id="path20"
       transform="matrix(0.1,0,0,-0.1,0,288)"
       d="m 1070.5078,1576.4844 c 0,14.9219 -12.1094,27.0312 -26.9922,27.0312 -14.9218,0 -27.0312,-12.1093 -27.0312,-27.0312 0,-14.8828 12.1094,-26.9922 27.0312,-26.9922 14.8828,0 26.9922,12.1094 26.9922,26.9922"
       style="fill:#5900ff;fill-opacity:1;fill-rule:nonzero;stroke:#5900ff;stroke-width:7.5;stroke-linecap:round;stroke-linejoin:round;stroke-miterlimit:10;stroke-opacity:1" />
    <path
       id="path22"
       transform="matrix(0.1,0,0,-0.1,0,288)"
       d="m 794.29687,1434.1016 c 0,14.9218 -12.07031,26.9922 -26.99218,26.9922 -14.92188,0 -26.99219,-12.0704 -26.99219,-26.9922 0,-14.9219 12.07031,-26.9922 26.99219,-26.9922 14.92187,0 26.99218,12.0703 26.99218,26.9922"
       style="fill:#5900ff;fill-opacity:1;fill-rule:nonzero;stroke:#5900ff;stroke-width:7.5;stroke-linecap:round;stroke-linejoin:round;stroke-miterlimit:10;stroke-opacity:1" />
    <path
       id="path24"
       transform="matrix(0.1,0,0,-0.1,0,288)"
       d="m 1935.7031,2231.4063 c 0,14.9218 -12.1093,26.9921 -26.9922,26.9921 -14.9218,0 -26.9921,-12.0703 -26.9921,-26.9921 0,-14.9219 12.0703,-26.9922 26.9921,-26.9922 14.8829,0 26.9922,12.0703 26.9922,26.9922"
       style="fill:#5900ff;fill-opacity:1;fill-rule:nonzero;stroke:#5900ff;stroke-width:7.5;stroke-linecap:round;stroke-linejoin:round;stroke-miterlimit:10;stroke-opacity:1" />
    <path
       id="path26"
       transform="matrix(0.1,0,0,-0.1,0,288)"
       d="m 1487.3828,1605.1953 c 0,14.9219 -12.0703,26.9922 -26.9922,26.9922 -14.8828,0 -26.9922,-12.0703 -26.9922,-26.9922 0,-14.9219 12.1094,-26.9922 26.9922,-26.9922 14.9219,0 26.9922,12.0703 26.9922,26.9922"
       style="fill:#5900ff;fill-opacity:1;fill-rule:nonzero;stroke:#5900ff;stroke-width:7.5;stroke-linecap:round;stroke-linejoin:round;stroke-miterlimit:10;stroke-opacity:1" />
    <path
       id="path28"
       transform="matrix(0.1,0,0,-0.1,0,288)"
       d="m 1183.7109,1560.1172 c 0,14.8828 -12.1093,26.9922 -26.9921,26.9922 -14.9219,0 -27.0313,-12.1094 -27.0313,-26.9922 0,-14.9219 12.1094,-27.0313 27.0313,-27.0313 14.8828,0 26.9921,12.1094 26.9921,27.0313"
       style="fill:#5900ff;fill-opacity:1;fill-rule:nonzero;stroke:#5900ff;stroke-width:7.5;stroke-linecap:round;stroke-linejoin:round;stroke-miterlimit:10;stroke-opacity:1" />
    <path
       id="path30"
       transform="matrix(0.1,0,0,-0.1,0,288)"
       d="m 1278.7109,1234.8047 c 0,14.9219 -12.1093,26.9922 -26.9921,26.9922 -14.9219,0 -27.0313,-12.0703 -27.0313,-26.9922 0,-14.9219 12.1094,-26.9922 27.0313,-26.9922 14.8828,0 26.9921,12.0703 26.9921,26.9922"
       style="fill:#5900ff;fill-opacity:1;fill-rule:nonzero;stroke:#5900ff;stroke-width:7.5;stroke-linecap:round;stroke-linejoin:round;stroke-miterlimit:10;stroke-opacity:1" />
    <path
       id="path32"
       transform="matrix(0.1,0,0,-0.1,0,288)"
       d="m 1773.3984,1613.9063 c 0,14.9218 -12.0703,26.9921 -26.9921,26.9921 -14.9219,0 -26.9922,-12.0703 -26.9922,-26.9921 0,-14.9219 12.0703,-26.9922 26.9922,-26.9922 14.9218,0 26.9921,12.0703 26.9921,26.9922"
       style="fill:#5900ff;fill-opacity:1;fill-rule:nonzero;stroke:#5900ff;stroke-width:7.5;stroke-linecap:round;stroke-linejoin:round;stroke-miterlimit:10;stroke-opacity:1" />
    <path
       id="path34"
       transform="matrix(0.1,0,0,-0.1,0,288)"
       d="m 1848.9063,1837.8125 c 0,14.8828 -12.1094,26.9922 -26.9922,26.9922 -14.9219,0 -27.0313,-12.1094 -27.0313,-26.9922 0,-14.9219 12.1094,-27.0312 27.0313,-27.0312 14.8828,0 26.9922,12.1093 26.9922,27.0312"
       style="fill:#5900ff;fill-opacity:1;fill-rule:nonzero;stroke:#5900ff;stroke-width:7.5;stroke-linecap:round;stroke-linejoin:round;stroke-miterlimit:10;stroke-opacity:1" />
    <path
       id="path36"
       transform="matrix(0.1,0,0,-0.1,0,288)"
       d="m 1404.1016,1220.1953 c 0,14.9219 -12.1094,26.9922 -26.9922,26.9922 -14.9219,0 -26.9922,-12.0703 -26.9922,-26.9922 0,-14.9219 12.0703,-26.9922 26.9922,-26.9922 14.8828,0 26.9922,12.0703 26.9922,26.9922"
       style="fill:#5900ff;fill-opacity:1;fill-rule:nonzero;stroke:#5900ff;stroke-width:7.5;stroke-linecap:round;stroke-linejoin:round;stroke-miterlimit:10;stroke-opacity:1" />
    <path
       id="path38"
       transform="matrix(0.1,0,0,-0.1,0,288)"
       d="m 1505.3906,1806.2891 c 0,14.9218 -12.0703,26.9922 -26.9922,26.9922 -14.9218,0 -26.9921,-12.0704 -26.9921,-26.9922 0,-14.8828 12.0703,-26.9922 26.9921,-26.9922 14.9219,0 26.9922,12.1094 26.9922,26.9922"
       style="fill:#5900ff;fill-opacity:1;fill-rule:nonzero;stroke:#5900ff;stroke-width:7.5;stroke-linecap:round;stroke-linejoin:round;stroke-miterlimit:10;stroke-opacity:1" />
    <path
       id="path40"
       transform="matrix(0.1,0,0,-0.1,0,288)"
       d="m 1922.3828,1508.9063 c 0,14.9218 -12.0703,26.9921 -26.9922,26.9921 -14.8828,0 -26.9922,-12.0703 -26.9922,-26.9921 0,-14.9219 12.1094,-26.9922 26.9922,-26.9922 14.9219,0 26.9922,12.0703 26.9922,26.9922"
       style="fill:#5900ff;fill-opacity:1;fill-rule:nonzero;stroke:#5900ff;stroke-width:7.5;stroke-linecap:round;stroke-linejoin:round;stroke-miterlimit:10;stroke-opacity:1" />
    <path
       id="path42"
       transform="matrix(0.1,0,0,-0.1,0,288)"
       d="m 1514.1016,1070.5078 c 0,14.8828 -12.1094,26.9922 -26.9922,26.9922 -14.9219,0 -26.9922,-12.1094 -26.9922,-26.9922 0,-14.9219 12.0703,-26.9922 26.9922,-26.9922 14.8828,0 26.9922,12.0703 26.9922,26.9922"
       style="fill:#5900ff;fill-opacity:1;fill-rule:nonzero;stroke:#5900ff;stroke-width:7.5;stroke-linecap:round;stroke-linejoin:round;stroke-miterlimit:10;stroke-opacity:1" />
    <path
       id="path44"
       transform="matrix(0.1,0,0,-0.1,0,288)"
       d="m 1172.6953,1112.3047 c 0,14.9219 -12.0703,26.9922 -26.9922,26.9922 -14.9218,0 -26.9922,-12.0703 -26.9922,-26.9922 0,-14.9219 12.0704,-26.9922 26.9922,-26.9922 14.9219,0 26.9922,12.0703 26.9922,26.9922"
       style="fill:#5900ff;fill-opacity:1;fill-rule:nonzero;stroke:#5900ff;stroke-width:7.5;stroke-linecap:round;stroke-linejoin:round;stroke-miterlimit:10;stroke-opacity:1" />
    <path
       id="path46"
       transform="matrix(0.1,0,0,-0.1,0,288)"
       d="m 1102.8125,1261.6016 c 0,14.9218 -12.1094,26.9922 -27.0312,26.9922 -14.8829,0 -26.9922,-12.0704 -26.9922,-26.9922 0,-14.9219 12.1093,-26.9922 26.9922,-26.9922 14.9218,0 27.0312,12.0703 27.0312,26.9922"
       style="fill:#5900ff;fill-opacity:1;fill-rule:nonzero;stroke:#5900ff;stroke-width:7.5;stroke-linecap:round;stroke-linejoin:round;stroke-miterlimit:10;stroke-opacity:1" />
    <path
       id="path48"
       transform="matrix(0.1,0,0,-0.1,0,288)"
       d="m 1745.7031,1557.6172 c 0,14.8828 -12.1093,26.9922 -26.9922,26.9922 -14.9218,0 -26.9921,-12.1094 -26.9921,-26.9922 0,-14.9219 12.0703,-27.0313 26.9921,-27.0313 14.8829,0 26.9922,12.1094 26.9922,27.0313"
       style="fill:#5900ff;fill-opacity:1;fill-rule:nonzero;stroke:#5900ff;stroke-width:7.5;stroke-linecap:round;stroke-linejoin:round;stroke-miterlimit:10;stroke-opacity:1" />
    <path
       id="path50"
       transform="matrix(0.1,0,0,-0.1,0,288)"
       d="m 2068.5156,1342.1875 c 0,14.9219 -12.1093,27.0313 -27.0312,27.0313 -14.8828,0 -26.9922,-12.1094 -26.9922,-27.0313 0,-14.8828 12.1094,-26.9922 26.9922,-26.9922 14.9219,0 27.0312,12.1094 27.0312,26.9922"
       style="fill:#5900ff;fill-opacity:1;fill-rule:nonzero;stroke:#5900ff;stroke-width:7.5;stroke-linecap:round;stroke-linejoin:round;stroke-miterlimit:10;stroke-opacity:1" />
    <path
       id="path52"
       transform="matrix(0.1,0,0,-0.1,0,288)"
       d="m 1703.5156,1920.5078 c 0,14.8828 -12.1093,26.9922 -27.0312,26.9922 -14.8828,0 -26.9922,-12.1094 -26.9922,-26.9922 0,-14.9219 12.1094,-26.9922 26.9922,-26.9922 14.9219,0 27.0312,12.0703 27.0312,26.9922"
       style="fill:#5900ff;fill-opacity:1;fill-rule:nonzero;stroke:#5900ff;stroke-width:7.5;stroke-linecap:round;stroke-linejoin:round;stroke-miterlimit:10;stroke-opacity:1" />
    <path
       id="path54"
       transform="matrix(0.1,0,0,-0.1,0,288)"
       d="m 1853.3984,2007.5 c 0,14.9219 -12.0703,26.9922 -26.9921,26.9922 -14.9219,0 -26.9922,-12.0703 -26.9922,-26.9922 0,-14.9219 12.0703,-26.9922 26.9922,-26.9922 14.9218,0 26.9921,12.0703 26.9921,26.9922"
       style="fill:#5900ff;fill-opacity:1;fill-rule:nonzero;stroke:#5900ff;stroke-width:7.5;stroke-linecap:round;stroke-linejoin:round;stroke-miterlimit:10;stroke-opacity:1" />
    <path
       id="path56"
       transform="matrix(0.1,0,0,-0.1,0,288)"
       d="m 1665,1627.1094 c 0,14.8828 -12.1094,26.9922 -26.9922,26.9922 -14.9219,0 -26.9922,-12.1094 -26.9922,-26.9922 0,-14.9219 12.0703,-26.9922 26.9922,-26.9922 14.8828,0 26.9922,12.0703 26.9922,26.9922"
       style="fill:#5900ff;fill-opacity:1;fill-rule:nonzero;stroke:#5900ff;stroke-width:7.5;stroke-linecap:round;stroke-linejoin:round;stroke-miterlimit:10;stroke-opacity:1" />
    <path
       id="path58"
       transform="matrix(0.1,0,0,-0.1,0,288)"
       d="m 1254.6094,1452.1094 c 0,14.8828 -12.1094,26.9922 -26.9922,26.9922 -14.9219,0 -27.0313,-12.1094 -27.0313,-26.9922 0,-14.9219 12.1094,-26.9922 27.0313,-26.9922 14.8828,0 26.9922,12.0703 26.9922,26.9922"
       style="fill:#5900ff;fill-opacity:1;fill-rule:nonzero;stroke:#5900ff;stroke-width:7.5;stroke-linecap:round;stroke-linejoin:round;stroke-miterlimit:10;stroke-opacity:1" />
    <path
       id="path60"
       transform="matrix(0.1,0,0,-0.1,0,288)"
       d="m 1493.0078,1863.7891 c 0,14.9218 -12.1094,26.9922 -26.9922,26.9922 -14.9218,0 -27.0312,-12.0704 -27.0312,-26.9922 0,-14.8828 12.1094,-26.9922 27.0312,-26.9922 14.8828,0 26.9922,12.1094 26.9922,26.9922"
       style="fill:#5900ff;fill-opacity:1;fill-rule:nonzero;stroke:#5900ff;stroke-width:7.5;stroke-linecap:round;stroke-linejoin:round;stroke-miterlimit:10;stroke-opacity:1" />
    <path
       id="path62"
       transform="matrix(0.1,0,0,-0.1,0,288)"
       d="m 1301.2891,1028.5156 c 0,14.8828 -12.0703,26.9922 -26.9922,26.9922 -14.9219,0 -26.9922,-12.1094 -26.9922,-26.9922 0,-14.9219 12.0703,-27.0312 26.9922,-27.0312 14.9219,0 26.9922,12.1093 26.9922,27.0312"
       style="fill:#5900ff;fill-opacity:1;fill-rule:nonzero;stroke:#5900ff;stroke-width:7.5;stroke-linecap:round;stroke-linejoin:round;stroke-miterlimit:10;stroke-opacity:1" />
    <path
       id="path64"
       transform="matrix(0.1,0,0,-0.1,0,288)"
       d="m 1299.4922,1727.1875 c 0,14.9219 -12.0703,27.0313 -26.9922,27.0313 -14.9219,0 -26.9922,-12.1094 -26.9922,-27.0313 0,-14.8828 12.0703,-26.9922 26.9922,-26.9922 14.9219,0 26.9922,12.1094 26.9922,26.9922"
       style="fill:#5900ff;fill-opacity:1;fill-rule:nonzero;stroke:#5900ff;stroke-width:7.5;stroke-linecap:round;stroke-linejoin:round;stroke-miterlimit:10;stroke-opacity:1" />
    <path
       id="path66"
       transform="matrix(0.1,0,0,-0.1,0,288)"
       d="m 1016.9922,1478.0078 c 0,14.8828 -12.0703,26.9922 -26.9922,26.9922 -14.92188,0 -26.99219,-12.1094 -26.99219,-26.9922 0,-14.9219 12.07031,-26.9922 26.99219,-26.9922 14.9219,0 26.9922,12.0703 26.9922,26.9922"
       style="fill:#5900ff;fill-opacity:1;fill-rule:nonzero;stroke:#5900ff;stroke-width:7.5;stroke-linecap:round;stroke-linejoin:round;stroke-miterlimit:10;stroke-opacity:1" />
    <path
       id="path68"
       transform="matrix(0.1,0,0,-0.1,0,288)"
       d="m 1209.4922,1414.2188 c 0,14.8828 -12.0703,26.9921 -26.9922,26.9921 -14.9219,0 -26.9922,-12.1093 -26.9922,-26.9921 0,-14.9219 12.0703,-27.0313 26.9922,-27.0313 14.9219,0 26.9922,12.1094 26.9922,27.0313"
       style="fill:#5900ff;fill-opacity:1;fill-rule:nonzero;stroke:#5900ff;stroke-width:7.5;stroke-linecap:round;stroke-linejoin:round;stroke-miterlimit:10;stroke-opacity:1" />
    <path
       id="path70"
       transform="matrix(0.1,0,0,-0.1,0,288)"
       d="m 1815.5078,1571.0156 c 0,14.8828 -12.1094,26.9922 -26.9922,26.9922 -14.9218,0 -27.0312,-12.1094 -27.0312,-26.9922 0,-14.9218 12.1094,-27.0312 27.0312,-27.0312 14.8828,0 26.9922,12.1094 26.9922,27.0312"
       style="fill:#5900ff;fill-opacity:1;fill-rule:nonzero;stroke:#5900ff;stroke-width:7.5;stroke-linecap:round;stroke-linejoin:round;stroke-miterlimit:10;stroke-opacity:1" />
    <path
       id="path72"
       transform="matrix(0.1,0,0,-0.1,0,288)"
       d="m 1522.8125,1544.6094 c 0,14.8828 -12.1094,26.9922 -27.0312,26.9922 -14.8829,0 -26.9922,-12.1094 -26.9922,-26.9922 0,-14.9219 12.1093,-26.9922 26.9922,-26.9922 14.9218,0 27.0312,12.0703 27.0312,26.9922"
       style="fill:#5900ff;fill-opacity:1;fill-rule:nonzero;stroke:#5900ff;stroke-width:7.5;stroke-linecap:round;stroke-linejoin:round;stroke-miterlimit:10;stroke-opacity:1" />
    <path
       id="path74"
       transform="matrix(0.1,0,0,-0.1,0,288)"
       d="m 1644.2969,1650 c 0,14.9219 -12.0703,26.9922 -26.9922,26.9922 -14.9219,0 -26.9922,-12.0703 -26.9922,-26.9922 0,-14.9219 12.0703,-26.9922 26.9922,-26.9922 14.9219,0 26.9922,12.0703 26.9922,26.9922"
       style="fill:#5900ff;fill-opacity:1;fill-rule:nonzero;stroke:#5900ff;stroke-width:7.5;stroke-linecap:round;stroke-linejoin:round;stroke-miterlimit:10;stroke-opacity:1" />
    <path
       id="path76"
       transform="matrix(0.1,0,0,-0.1,0,288)"
       d="m 1197.8906,1346.6016 c 0,14.9218 -12.0703,26.9922 -26.9922,26.9922 -14.9218,0 -26.9921,-12.0704 -26.9921,-26.9922 0,-14.9219 12.0703,-26.9922 26.9921,-26.9922 14.9219,0 26.9922,12.0703 26.9922,26.9922"
       style="fill:#5900ff;fill-opacity:1;fill-rule:nonzero;stroke:#5900ff;stroke-width:7.5;stroke-linecap:round;stroke-linejoin:round;stroke-miterlimit:10;stroke-opacity:1" />
    <path
       id="path78"
       transform="matrix(0.1,0,0,-0.1,0,288)"
       d="m 1396.0938,1616.4844 c 0,14.9219 -12.0704,27.0312 -26.9922,27.0312 -14.9219,0 -26.9922,-12.1093 -26.9922,-27.0312 0,-14.8828 12.0703,-26.9922 26.9922,-26.9922 14.9218,0 26.9922,12.1094 26.9922,26.9922"
       style="fill:#5900ff;fill-opacity:1;fill-rule:nonzero;stroke:#5900ff;stroke-width:7.5;stroke-linecap:round;stroke-linejoin:round;stroke-miterlimit:10;stroke-opacity:1" />
    <path
       id="path80"
       transform="matrix(0.1,0,0,-0.1,0,288)"
       d="m 1456.9922,1192.8906 c 0,14.9219 -12.0703,26.9922 -26.9922,26.9922 -14.9219,0 -26.9922,-12.0703 -26.9922,-26.9922 0,-14.8828 12.0703,-26.9922 26.9922,-26.9922 14.9219,0 26.9922,12.1094 26.9922,26.9922"
       style="fill:#5900ff;fill-opacity:1;fill-rule:nonzero;stroke:#5900ff;stroke-width:7.5;stroke-linecap:round;stroke-linejoin:round;stroke-miterlimit:10;stroke-opacity:1" />
    <path
       id="path82"
       transform="matrix(0.1,0,0,-0.1,0,288)"
       d="m 1637.1094,1931.4063 c 0,14.9218 -12.1094,26.9921 -26.9922,26.9921 -14.9219,0 -27.0313,-12.0703 -27.0313,-26.9921 0,-14.9219 12.1094,-26.9922 27.0313,-26.9922 14.8828,0 26.9922,12.0703 26.9922,26.9922"
       style="fill:#5900ff;fill-opacity:1;fill-rule:nonzero;stroke:#5900ff;stroke-width:7.5;stroke-linecap:round;stroke-linejoin:round;stroke-miterlimit:10;stroke-opacity:1" />
    <path
       id="path84"
       transform="matrix(0.1,0,0,-0.1,0,288)"
       d="m 1652.3047,1556.2109 c 0,14.8829 -12.1094,26.9922 -26.9922,26.9922 -14.9219,0 -27.0312,-12.1093 -27.0312,-26.9922 0,-14.9218 12.1093,-26.9921 27.0312,-26.9921 14.8828,0 26.9922,12.0703 26.9922,26.9921"
       style="fill:#5900ff;fill-opacity:1;fill-rule:nonzero;stroke:#5900ff;stroke-width:7.5;stroke-linecap:round;stroke-linejoin:round;stroke-miterlimit:10;stroke-opacity:1" />
    <path
       id="path86"
       transform="matrix(0.1,0,0,-0.1,0,288)"
       d="m 1411.4844,1431.4063 c 0,14.9218 -12.0703,26.9921 -26.9922,26.9921 -14.8828,0 -26.9922,-12.0703 -26.9922,-26.9921 0,-14.9219 12.1094,-26.9922 26.9922,-26.9922 14.9219,0 26.9922,12.0703 26.9922,26.9922"
       style="fill:#5900ff;fill-opacity:1;fill-rule:nonzero;stroke:#5900ff;stroke-width:7.5;stroke-linecap:round;stroke-linejoin:round;stroke-miterlimit:10;stroke-opacity:1" />
    <path
       id="path88"
       transform="matrix(0.1,0,0,-0.1,0,288)"
       d="m 1906.0156,1155.1172 c 0,14.8828 -12.1093,26.9922 -27.0312,26.9922 -14.8828,0 -26.9922,-12.1094 -26.9922,-26.9922 0,-14.9219 12.1094,-27.0313 26.9922,-27.0313 14.9219,0 27.0312,12.1094 27.0312,27.0313"
       style="fill:#5900ff;fill-opacity:1;fill-rule:nonzero;stroke:#5900ff;stroke-width:7.5;stroke-linecap:round;stroke-linejoin:round;stroke-miterlimit:10;stroke-opacity:1" />
    <path
       id="path90"
       transform="matrix(0.1,0,0,-0.1,0,288)"
       d="m 1505.5078,1761.9922 c 0,14.9219 -12.1094,26.9922 -26.9922,26.9922 -14.9218,0 -27.0312,-12.0703 -27.0312,-26.9922 0,-14.8828 12.1094,-26.9922 27.0312,-26.9922 14.8828,0 26.9922,12.1094 26.9922,26.9922"
       style="fill:#5900ff;fill-opacity:1;fill-rule:nonzero;stroke:#5900ff;stroke-width:7.5;stroke-linecap:round;stroke-linejoin:round;stroke-miterlimit:10;stroke-opacity:1" />
    <path
       id="path92"
       transform="matrix(0.1,0,0,-0.1,0,288)"
       d="m 1610,1558.0859 c 0,14.9219 -12.1094,27.0313 -26.9922,27.0313 -14.9219,0 -26.9922,-12.1094 -26.9922,-27.0313 0,-14.8828 12.0703,-26.9921 26.9922,-26.9921 14.8828,0 26.9922,12.1093 26.9922,26.9921"
       style="fill:#5900ff;fill-opacity:1;fill-rule:nonzero;stroke:#5900ff;stroke-width:7.5;stroke-linecap:round;stroke-linejoin:round;stroke-miterlimit:10;stroke-opacity:1" />
    <path
       id="path94"
       transform="matrix(0.1,0,0,-0.1,0,288)"
       d="m 1138.9063,1615.7031 c 0,14.9219 -12.1094,26.9922 -26.9922,26.9922 -14.9219,0 -27.0313,-12.0703 -27.0313,-26.9922 0,-14.9218 12.1094,-26.9922 27.0313,-26.9922 14.8828,0 26.9922,12.0704 26.9922,26.9922"
       style="fill:#5900ff;fill-opacity:1;fill-rule:nonzero;stroke:#5900ff;stroke-width:7.5;stroke-linecap:round;stroke-linejoin:round;stroke-miterlimit:10;stroke-opacity:1" />
    <path
       id="path96"
       transform="matrix(0.1,0,0,-0.1,0,288)"
       d="m 1743.7109,1253.2813 c 0,14.9218 -12.1093,27.0312 -26.9921,27.0312 -14.9219,0 -27.0313,-12.1094 -27.0313,-27.0312 0,-14.8829 12.1094,-26.9922 27.0313,-26.9922 14.8828,0 26.9921,12.1093 26.9921,26.9922"
       style="fill:#5900ff;fill-opacity:1;fill-rule:nonzero;stroke:#5900ff;stroke-width:7.5;stroke-linecap:round;stroke-linejoin:round;stroke-miterlimit:10;stroke-opacity:1" />
    <path
       id="path98"
       transform="matrix(0.1,0,0,-0.1,0,288)"
       d="m 1540.3125,1891.9922 c 0,14.9219 -12.1094,26.9922 -27.0312,26.9922 -14.8829,0 -26.9922,-12.0703 -26.9922,-26.9922 0,-14.8828 12.1093,-26.9922 26.9922,-26.9922 14.9218,0 27.0312,12.1094 27.0312,26.9922"
       style="fill:#5900ff;fill-opacity:1;fill-rule:nonzero;stroke:#5900ff;stroke-width:7.5;stroke-linecap:round;stroke-linejoin:round;stroke-miterlimit:10;stroke-opacity:1" />
    <path
       id="path100"
       transform="matrix(0.1,0,0,-0.1,0,288)"
       d="m 1867.5,1359.2969 c 0,14.9219 -12.1094,26.9922 -26.9922,26.9922 -14.9219,0 -26.9922,-12.0703 -26.9922,-26.9922 0,-14.9219 12.0703,-26.9922 26.9922,-26.9922 14.8828,0 26.9922,12.0703 26.9922,26.9922"
       style="fill:#5900ff;fill-opacity:1;fill-rule:nonzero;stroke:#5900ff;stroke-width:7.5;stroke-linecap:round;stroke-linejoin:round;stroke-miterlimit:10;stroke-opacity:1" />
    <path
       id="path102"
       transform="matrix(0.1,0,0,-0.1,0,288)"
       d="m 1975.1172,1299.6875 c 0,14.9219 -12.1094,27.0313 -27.0313,27.0313 -14.8828,0 -26.9921,-12.1094 -26.9921,-27.0313 0,-14.8828 12.1093,-26.9922 26.9921,-26.9922 14.9219,0 27.0313,12.1094 27.0313,26.9922"
       style="fill:#5900ff;fill-opacity:1;fill-rule:nonzero;stroke:#5900ff;stroke-width:7.5;stroke-linecap:round;stroke-linejoin:round;stroke-miterlimit:10;stroke-opacity:1" />
    <path
       id="path104"
       transform="matrix(0.1,0,0,-0.1,0,288)"
       d="m 941.48437,1196.6016 c 0,14.9218 -12.07031,26.9922 -26.99218,26.9922 -14.88282,0 -26.99219,-12.0704 -26.99219,-26.9922 0,-14.9219 12.10937,-26.9922 26.99219,-26.9922 14.92187,0 26.99218,12.0703 26.99218,26.9922"
       style="fill:#5900ff;fill-opacity:1;fill-rule:nonzero;stroke:#5900ff;stroke-width:7.5;stroke-linecap:round;stroke-linejoin:round;stroke-miterlimit:10;stroke-opacity:1" />
    <path
       id="path106"
       transform="matrix(0.1,0,0,-0.1,0,288)"
       d="m 1555.1172,1406.7188 c 0,14.8828 -12.1094,26.9921 -27.0313,26.9921 -14.8828,0 -26.9921,-12.1093 -26.9921,-26.9921 0,-14.9219 12.1093,-27.0313 26.9921,-27.0313 14.9219,0 27.0313,12.1094 27.0313,27.0313"
       style="fill:#5900ff;fill-opacity:1;fill-rule:nonzero;stroke:#5900ff;stroke-width:7.5;stroke-linecap:round;stroke-linejoin:round;stroke-miterlimit:10;stroke-opacity:1" />
    <path
       id="path108"
       transform="matrix(0.1,0,0,-0.1,0,288)"
       d="m 1552.1875,1626.9141 c 0,14.8828 -12.0703,26.9922 -26.9922,26.9922 -14.9219,0 -26.9922,-12.1094 -26.9922,-26.9922 0,-14.9219 12.0703,-27.0313 26.9922,-27.0313 14.9219,0 26.9922,12.1094 26.9922,27.0313"
       style="fill:#5900ff;fill-opacity:1;fill-rule:nonzero;stroke:#5900ff;stroke-width:7.5;stroke-linecap:round;stroke-linejoin:round;stroke-miterlimit:10;stroke-opacity:1" />
    <path
       id="path110"
       transform="matrix(0.1,0,0,-0.1,0,288)"
       d="m 1850.5078,1652.1875 c 0,14.9219 -12.1094,27.0313 -26.9922,27.0313 -14.9218,0 -27.0312,-12.1094 -27.0312,-27.0313 0,-14.8828 12.1094,-26.9922 27.0312,-26.9922 14.8828,0 26.9922,12.1094 26.9922,26.9922"
       style="fill:#5900ff;fill-opacity:1;fill-rule:nonzero;stroke:#5900ff;stroke-width:7.5;stroke-linecap:round;stroke-linejoin:round;stroke-miterlimit:10;stroke-opacity:1" />
    <path
       id="path112"
       transform="matrix(0.1,0,0,-0.1,0,288)"
       d="m 1395.8984,1812.8906 c 0,14.9219 -12.0703,26.9922 -26.9921,26.9922 -14.9219,0 -26.9922,-12.0703 -26.9922,-26.9922 0,-14.8828 12.0703,-26.9922 26.9922,-26.9922 14.9218,0 26.9921,12.1094 26.9921,26.9922"
       style="fill:#5900ff;fill-opacity:1;fill-rule:nonzero;stroke:#5900ff;stroke-width:7.5;stroke-linecap:round;stroke-linejoin:round;stroke-miterlimit:10;stroke-opacity:1" />
    <path
       id="path114"
       transform="matrix(0.1,0,0,-0.1,0,288)"
       d="m 1574.8828,1236.0156 c 0,14.8828 -12.0703,26.9922 -26.9922,26.9922 -14.8828,0 -26.9922,-12.1094 -26.9922,-26.9922 0,-14.9218 12.1094,-27.0312 26.9922,-27.0312 14.9219,0 26.9922,12.1094 26.9922,27.0312"
       style="fill:#5900ff;fill-opacity:1;fill-rule:nonzero;stroke:#5900ff;stroke-width:7.5;stroke-linecap:round;stroke-linejoin:round;stroke-miterlimit:10;stroke-opacity:1" />
    <path
       id="path116"
       transform="matrix(0.1,0,0,-0.1,0,288)"
       d="m 1563.2813,1507.1875 c 0,14.9219 -12.0704,27.0313 -26.9922,27.0313 -14.8828,0 -26.9922,-12.1094 -26.9922,-27.0313 0,-14.8828 12.1094,-26.9922 26.9922,-26.9922 14.9218,0 26.9922,12.1094 26.9922,26.9922"
       style="fill:#5900ff;fill-opacity:1;fill-rule:nonzero;stroke:#5900ff;stroke-width:7.5;stroke-linecap:round;stroke-linejoin:round;stroke-miterlimit:10;stroke-opacity:1" />
    <path
       id="path118"
       transform="matrix(0.1,0,0,-0.1,0,288)"
       d="m 1467.6172,1398.7109 c 0,14.8829 -12.1094,26.9922 -27.0313,26.9922 -14.8828,0 -26.9921,-12.1093 -26.9921,-26.9922 0,-14.9218 12.1093,-26.9921 26.9921,-26.9921 14.9219,0 27.0313,12.0703 27.0313,26.9921"
       style="fill:#5900ff;fill-opacity:1;fill-rule:nonzero;stroke:#5900ff;stroke-width:7.5;stroke-linecap:round;stroke-linejoin:round;stroke-miterlimit:10;stroke-opacity:1" />
    <path
       id="path120"
       transform="matrix(0.1,0,0,-0.1,0,288)"
       d="m 1536.0938,1519.1016 c 0,14.9218 -12.0704,26.9922 -26.9922,26.9922 -14.9219,0 -26.9922,-12.0704 -26.9922,-26.9922 0,-14.9219 12.0703,-26.9922 26.9922,-26.9922 14.9218,0 26.9922,12.0703 26.9922,26.9922"
       style="fill:#5900ff;fill-opacity:1;fill-rule:nonzero;stroke:#5900ff;stroke-width:7.5;stroke-linecap:round;stroke-linejoin:round;stroke-miterlimit:10;stroke-opacity:1" />
    <path
       id="path122"
       transform="matrix(0.1,0,0,-0.1,0,288)"
       d="m 1155.1172,791.40625 c 0,14.92187 -12.1094,26.99219 -27.0313,26.99219 -14.8828,0 -26.9921,-12.07032 -26.9921,-26.99219 0,-14.92188 12.1093,-26.99219 26.9921,-26.99219 14.9219,0 27.0313,12.07031 27.0313,26.99219"
       style="fill:#5900ff;fill-opacity:1;fill-rule:nonzero;stroke:#5900ff;stroke-width:7.5;stroke-linecap:round;stroke-linejoin:round;stroke-miterlimit:10;stroke-opacity:1" />
    <path
       id="path124"
       transform="matrix(0.1,0,0,-0.1,0,288)"
       d="m 1573.9063,1890.3906 c 0,14.9219 -12.1094,26.9922 -26.9922,26.9922 -14.9219,0 -27.0313,-12.0703 -27.0313,-26.9922 0,-14.8828 12.1094,-26.9922 27.0313,-26.9922 14.8828,0 26.9922,12.1094 26.9922,26.9922"
       style="fill:#5900ff;fill-opacity:1;fill-rule:nonzero;stroke:#5900ff;stroke-width:7.5;stroke-linecap:round;stroke-linejoin:round;stroke-miterlimit:10;stroke-opacity:1" />
    <path
       id="path126"
       transform="matrix(0.1,0,0,-0.1,0,288)"
       d="m 1235.5078,1294.2188 c 0,14.8828 -12.1094,26.9921 -26.9922,26.9921 -14.9218,0 -27.0312,-12.1093 -27.0312,-26.9921 0,-14.9219 12.1094,-27.0313 27.0312,-27.0313 14.8828,0 26.9922,12.1094 26.9922,27.0313"
       style="fill:#5900ff;fill-opacity:1;fill-rule:nonzero;stroke:#5900ff;stroke-width:7.5;stroke-linecap:round;stroke-linejoin:round;stroke-miterlimit:10;stroke-opacity:1" />
    <path
       id="path128"
       transform="matrix(0.1,0,0,-0.1,0,288)"
       d="m 1221.2891,1478.0078 c 0,14.8828 -12.0703,26.9922 -26.9922,26.9922 -14.9219,0 -26.9922,-12.1094 -26.9922,-26.9922 0,-14.9219 12.0703,-26.9922 26.9922,-26.9922 14.9219,0 26.9922,12.0703 26.9922,26.9922"
       style="fill:#5900ff;fill-opacity:1;fill-rule:nonzero;stroke:#5900ff;stroke-width:7.5;stroke-linecap:round;stroke-linejoin:round;stroke-miterlimit:10;stroke-opacity:1" />
    <path
       id="path130"
       transform="matrix(0.1,0,0,-0.1,0,288)"
       d="m 1308.3984,1099.6094 c 0,14.8828 -12.0703,26.9922 -26.9921,26.9922 -14.9219,0 -26.9922,-12.1094 -26.9922,-26.9922 0,-14.9219 12.0703,-26.9922 26.9922,-26.9922 14.9218,0 26.9921,12.0703 26.9921,26.9922"
       style="fill:#5900ff;fill-opacity:1;fill-rule:nonzero;stroke:#5900ff;stroke-width:7.5;stroke-linecap:round;stroke-linejoin:round;stroke-miterlimit:10;stroke-opacity:1" />
    <path
       id="path132"
       transform="matrix(0.1,0,0,-0.1,0,288)"
       d="m 1351.4063,1114.4922 c 0,14.9219 -12.1094,26.9922 -26.9922,26.9922 -14.9219,0 -27.0313,-12.0703 -27.0313,-26.9922 0,-14.8828 12.1094,-26.9922 27.0313,-26.9922 14.8828,0 26.9922,12.1094 26.9922,26.9922"
       style="fill:#5900ff;fill-opacity:1;fill-rule:nonzero;stroke:#5900ff;stroke-width:7.5;stroke-linecap:round;stroke-linejoin:round;stroke-miterlimit:10;stroke-opacity:1" />
    <path
       id="path134"
       transform="matrix(0.1,0,0,-0.1,0,288)"
       d="m 1770.1172,1487.3047 c 0,14.9219 -12.1094,26.9922 -27.0313,26.9922 -14.8828,0 -26.9921,-12.0703 -26.9921,-26.9922 0,-14.9219 12.1093,-26.9922 26.9921,-26.9922 14.9219,0 27.0313,12.0703 27.0313,26.9922"
       style="fill:#5900ff;fill-opacity:1;fill-rule:nonzero;stroke:#5900ff;stroke-width:7.5;stroke-linecap:round;stroke-linejoin:round;stroke-miterlimit:10;stroke-opacity:1" />
    <path
       id="path136"
       transform="matrix(0.1,0,0,-0.1,0,288)"
       d="m 1817.8125,1671.6016 c 0,14.9218 -12.1094,26.9922 -27.0312,26.9922 -14.8829,0 -26.9922,-12.0704 -26.9922,-26.9922 0,-14.9219 12.1093,-26.9922 26.9922,-26.9922 14.9218,0 27.0312,12.0703 27.0312,26.9922"
       style="fill:#5900ff;fill-opacity:1;fill-rule:nonzero;stroke:#5900ff;stroke-width:7.5;stroke-linecap:round;stroke-linejoin:round;stroke-miterlimit:10;stroke-opacity:1" />
    <path
       id="path138"
       transform="matrix(0.1,0,0,-0.1,0,288)"
       d="m 1913.3984,1555.7031 c 0,14.9219 -12.0703,26.9922 -26.9921,26.9922 -14.9219,0 -26.9922,-12.0703 -26.9922,-26.9922 0,-14.9218 12.0703,-26.9922 26.9922,-26.9922 14.9218,0 26.9921,12.0704 26.9921,26.9922"
       style="fill:#5900ff;fill-opacity:1;fill-rule:nonzero;stroke:#5900ff;stroke-width:7.5;stroke-linecap:round;stroke-linejoin:round;stroke-miterlimit:10;stroke-opacity:1" />
    <path
       id="path140"
       transform="matrix(0.1,0,0,-0.1,0,288)"
       d="m 1238.7891,1733.7891 c 0,14.9218 -12.0703,26.9922 -26.9922,26.9922 -14.9219,0 -26.9922,-12.0704 -26.9922,-26.9922 0,-14.8828 12.0703,-26.9922 26.9922,-26.9922 14.9219,0 26.9922,12.1094 26.9922,26.9922"
       style="fill:#5900ff;fill-opacity:1;fill-rule:nonzero;stroke:#5900ff;stroke-width:7.5;stroke-linecap:round;stroke-linejoin:round;stroke-miterlimit:10;stroke-opacity:1" />
    <path
       id="path142"
       transform="matrix(0.1,0,0,-0.1,0,288)"
       d="m 1870.3906,1439.8047 c 0,14.9219 -12.0703,26.9922 -26.9922,26.9922 -14.9218,0 -26.9921,-12.0703 -26.9921,-26.9922 0,-14.9219 12.0703,-26.9922 26.9921,-26.9922 14.9219,0 26.9922,12.0703 26.9922,26.9922"
       style="fill:#5900ff;fill-opacity:1;fill-rule:nonzero;stroke:#5900ff;stroke-width:7.5;stroke-linecap:round;stroke-linejoin:round;stroke-miterlimit:10;stroke-opacity:1" />
    <path
       id="path144"
       transform="matrix(0.1,0,0,-0.1,0,288)"
       d="m 1944.6094,1672.6172 c 0,14.8828 -12.1094,26.9922 -26.9922,26.9922 -14.9219,0 -27.0313,-12.1094 -27.0313,-26.9922 0,-14.9219 12.1094,-27.0313 27.0313,-27.0313 14.8828,0 26.9922,12.1094 26.9922,27.0313"
       style="fill:#5900ff;fill-opacity:1;fill-rule:nonzero;stroke:#5900ff;stroke-width:7.5;stroke-linecap:round;stroke-linejoin:round;stroke-miterlimit:10;stroke-opacity:1" />
    <path
       id="path146"
       transform="matrix(0.1,0,0,-0.1,0,288)"
       d="m 804.88281,1449.8047 c 0,14.9219 -12.07031,26.9922 -26.99219,26.9922 -14.92187,0 -26.99218,-12.0703 -26.99218,-26.9922 0,-14.9219 12.07031,-26.9922 26.99218,-26.9922 14.92188,0 26.99219,12.0703 26.99219,26.9922"
       style="fill:#5900ff;fill-opacity:1;fill-rule:nonzero;stroke:#5900ff;stroke-width:7.5;stroke-linecap:round;stroke-linejoin:round;stroke-miterlimit:10;stroke-opacity:1" />
    <path
       id="path148"
       transform="matrix(0.1,0,0,-0.1,0,288)"
       d="m 1838.0078,1779.2188 c 0,14.8828 -12.1094,26.9921 -26.9922,26.9921 -14.9218,0 -27.0312,-12.1093 -27.0312,-26.9921 0,-14.9219 12.1094,-27.0313 27.0312,-27.0313 14.8828,0 26.9922,12.1094 26.9922,27.0313"
       style="fill:#5900ff;fill-opacity:1;fill-rule:nonzero;stroke:#5900ff;stroke-width:7.5;stroke-linecap:round;stroke-linejoin:round;stroke-miterlimit:10;stroke-opacity:1" />
    <path
       id="path150"
       transform="matrix(0.1,0,0,-0.1,0,288)"
       d="m 1719.6875,1842.3828 c 0,14.9219 -12.0703,27.0313 -26.9922,27.0313 -14.9219,0 -26.9922,-12.1094 -26.9922,-27.0313 0,-14.8828 12.0703,-26.9922 26.9922,-26.9922 14.9219,0 26.9922,12.1094 26.9922,26.9922"
       style="fill:#5900ff;fill-opacity:1;fill-rule:nonzero;stroke:#5900ff;stroke-width:7.5;stroke-linecap:round;stroke-linejoin:round;stroke-miterlimit:10;stroke-opacity:1" />
    <path
       id="path152"
       transform="matrix(0.1,0,0,-0.1,0,288)"
       d="m 1652.3828,1151.7188 c 0,14.8828 -12.0703,26.9921 -26.9922,26.9921 -14.8828,0 -26.9922,-12.1093 -26.9922,-26.9921 0,-14.9219 12.1094,-27.0313 26.9922,-27.0313 14.9219,0 26.9922,12.1094 26.9922,27.0313"
       style="fill:#5900ff;fill-opacity:1;fill-rule:nonzero;stroke:#5900ff;stroke-width:7.5;stroke-linecap:round;stroke-linejoin:round;stroke-miterlimit:10;stroke-opacity:1" />
    <path
       id="path154"
       transform="matrix(0.1,0,0,-0.1,0,288)"
       d="m 687.38281,868.32031 c 0,14.88281 -12.07031,26.99219 -26.99219,26.99219 -14.92187,0 -26.99218,-12.10938 -26.99218,-26.99219 0,-14.92187 12.07031,-27.03125 26.99218,-27.03125 14.92188,0 26.99219,12.10938 26.99219,27.03125"
       style="fill:#5900ff;fill-opacity:1;fill-rule:nonzero;stroke:#5900ff;stroke-width:7.5;stroke-linecap:round;stroke-linejoin:round;stroke-miterlimit:10;stroke-opacity:1" />
    <path
       id="path156"
       transform="matrix(0.1,0,0,-0.1,0,288)"
       d="m 1543.5938,1183.7109 c 0,14.8829 -12.0704,26.9922 -26.9922,26.9922 -14.9219,0 -26.9922,-12.1093 -26.9922,-26.9922 0,-14.9218 12.0703,-26.9921 26.9922,-26.9921 14.9218,0 26.9922,12.0703 26.9922,26.9921"
       style="fill:#5900ff;fill-opacity:1;fill-rule:nonzero;stroke:#5900ff;stroke-width:7.5;stroke-linecap:round;stroke-linejoin:round;stroke-miterlimit:10;stroke-opacity:1" />
    <path
       id="path158"
       transform="matrix(0.1,0,0,-0.1,0,288)"
       d="m 851.21094,1279.8828 c 0,14.9219 -12.10938,27.0313 -27.03125,27.0313 -14.88282,0 -26.99219,-12.1094 -26.99219,-27.0313 0,-14.8828 12.10937,-26.9922 26.99219,-26.9922 14.92187,0 27.03125,12.1094 27.03125,26.9922"
       style="fill:#5900ff;fill-opacity:1;fill-rule:nonzero;stroke:#5900ff;stroke-width:7.5;stroke-linecap:round;stroke-linejoin:round;stroke-miterlimit:10;stroke-opacity:1" />
    <path
       id="path160"
       transform="matrix(0.1,0,0,-0.1,0,288)"
       d="m 1630.1172,1490 c 0,14.9219 -12.1094,26.9922 -27.0313,26.9922 -14.8828,0 -26.9921,-12.0703 -26.9921,-26.9922 0,-14.9219 12.1093,-26.9922 26.9921,-26.9922 14.9219,0 27.0313,12.0703 27.0313,26.9922"
       style="fill:#5900ff;fill-opacity:1;fill-rule:nonzero;stroke:#5900ff;stroke-width:7.5;stroke-linecap:round;stroke-linejoin:round;stroke-miterlimit:10;stroke-opacity:1" />
    <path
       id="path162"
       transform="matrix(0.1,0,0,-0.1,0,288)"
       d="m 1108.7109,1889.6875 c 0,14.9219 -12.1093,27.0313 -26.9921,27.0313 -14.9219,0 -27.0313,-12.1094 -27.0313,-27.0313 0,-14.8828 12.1094,-26.9922 27.0313,-26.9922 14.8828,0 26.9921,12.1094 26.9921,26.9922"
       style="fill:#5900ff;fill-opacity:1;fill-rule:nonzero;stroke:#5900ff;stroke-width:7.5;stroke-linecap:round;stroke-linejoin:round;stroke-miterlimit:10;stroke-opacity:1" />
    <path
       id="path164"
       transform="matrix(0.1,0,0,-0.1,0,288)"
       d="m 1258.0078,1114.4141 c 0,14.8828 -12.1094,26.9922 -26.9922,26.9922 -14.9218,0 -27.0312,-12.1094 -27.0312,-26.9922 0,-14.9219 12.1094,-27.0313 27.0312,-27.0313 14.8828,0 26.9922,12.1094 26.9922,27.0313"
       style="fill:#5900ff;fill-opacity:1;fill-rule:nonzero;stroke:#5900ff;stroke-width:7.5;stroke-linecap:round;stroke-linejoin:round;stroke-miterlimit:10;stroke-opacity:1" />
    <path
       id="path166"
       transform="matrix(0.1,0,0,-0.1,0,288)"
       d="m 1796.6016,1672.3828 c 0,14.9219 -12.1094,27.0313 -26.9922,27.0313 -14.9219,0 -26.9922,-12.1094 -26.9922,-27.0313 0,-14.8828 12.0703,-26.9922 26.9922,-26.9922 14.8828,0 26.9922,12.1094 26.9922,26.9922"
       style="fill:#5900ff;fill-opacity:1;fill-rule:nonzero;stroke:#5900ff;stroke-width:7.5;stroke-linecap:round;stroke-linejoin:round;stroke-miterlimit:10;stroke-opacity:1" />
    <path
       id="path168"
       transform="matrix(0.1,0,0,-0.1,0,288)"
       d="m 1235.1953,1718.7109 c 0,14.8829 -12.0703,26.9922 -26.9922,26.9922 -14.9218,0 -26.9922,-12.1093 -26.9922,-26.9922 0,-14.9218 12.0704,-26.9921 26.9922,-26.9921 14.9219,0 26.9922,12.0703 26.9922,26.9921"
       style="fill:#5900ff;fill-opacity:1;fill-rule:nonzero;stroke:#5900ff;stroke-width:7.5;stroke-linecap:round;stroke-linejoin:round;stroke-miterlimit:10;stroke-opacity:1" />
    <path
       id="path170"
       transform="matrix(0.1,0,0,-0.1,0,288)"
       d="m 1528.5938,1398.2813 c 0,14.9218 -12.0704,27.0312 -26.9922,27.0312 -14.9219,0 -26.9922,-12.1094 -26.9922,-27.0312 0,-14.8829 12.0703,-26.9922 26.9922,-26.9922 14.9218,0 26.9922,12.1093 26.9922,26.9922"
       style="fill:#5900ff;fill-opacity:1;fill-rule:nonzero;stroke:#5900ff;stroke-width:7.5;stroke-linecap:round;stroke-linejoin:round;stroke-miterlimit:10;stroke-opacity:1" />
    <path
       id="path172"
       transform="matrix(0.1,0,0,-0.1,0,288)"
       d="m 2527.3828,1563.3984 c 0,14.9219 -12.0703,26.9922 -26.9922,26.9922 -14.8828,0 -26.9922,-12.0703 -26.9922,-26.9922 0,-14.9218 12.1094,-26.9921 26.9922,-26.9921 14.9219,0 26.9922,12.0703 26.9922,26.9921"
       style="fill:#5900ff;fill-opacity:1;fill-rule:nonzero;stroke:#5900ff;stroke-width:7.5;stroke-linecap:round;stroke-linejoin:round;stroke-miterlimit:10;stroke-opacity:1" />
    <path
       id="path174"
       transform="matrix(0.1,0,0,-0.1,0,288)"
       d="m 1312.5,1248.2813 c 0,14.9218 -12.1094,27.0312 -26.9922,27.0312 -14.9219,0 -26.9922,-12.1094 -26.9922,-27.0312 0,-14.8829 12.0703,-26.9922 26.9922,-26.9922 14.8828,0 26.9922,12.1093 26.9922,26.9922"
       style="fill:#5900ff;fill-opacity:1;fill-rule:nonzero;stroke:#5900ff;stroke-width:7.5;stroke-linecap:round;stroke-linejoin:round;stroke-miterlimit:10;stroke-opacity:1" />
    <path
       id="path176"
       transform="matrix(0.1,0,0,-0.1,0,288)"
       d="m 1703.5156,1573.5938 c 0,14.9218 -12.1093,26.9921 -27.0312,26.9921 -14.8828,0 -26.9922,-12.0703 -26.9922,-26.9921 0,-14.9219 12.1094,-26.9922 26.9922,-26.9922 14.9219,0 27.0312,12.0703 27.0312,26.9922"
       style="fill:#5900ff;fill-opacity:1;fill-rule:nonzero;stroke:#5900ff;stroke-width:7.5;stroke-linecap:round;stroke-linejoin:round;stroke-miterlimit:10;stroke-opacity:1" />
    <path
       id="path178"
       transform="matrix(0.1,0,0,-0.1,0,288)"
       d="m 1410.1953,1390.7031 c 0,14.9219 -12.0703,26.9922 -26.9922,26.9922 -14.9218,0 -26.9922,-12.0703 -26.9922,-26.9922 0,-14.9218 12.0704,-26.9922 26.9922,-26.9922 14.9219,0 26.9922,12.0704 26.9922,26.9922"
       style="fill:#5900ff;fill-opacity:1;fill-rule:nonzero;stroke:#5900ff;stroke-width:7.5;stroke-linecap:round;stroke-linejoin:round;stroke-miterlimit:10;stroke-opacity:1" />
    <path
       id="path180"
       transform="matrix(0.1,0,0,-0.1,0,288)"
       d="m 1651.7969,1702.1875 c 0,14.9219 -12.0703,27.0313 -26.9922,27.0313 -14.9219,0 -26.9922,-12.1094 -26.9922,-27.0313 0,-14.8828 12.0703,-26.9922 26.9922,-26.9922 14.9219,0 26.9922,12.1094 26.9922,26.9922"
       style="fill:#5900ff;fill-opacity:1;fill-rule:nonzero;stroke:#5900ff;stroke-width:7.5;stroke-linecap:round;stroke-linejoin:round;stroke-miterlimit:10;stroke-opacity:1" />
    <path
       id="path182"
       transform="matrix(0.1,0,0,-0.1,0,288)"
       d="m 1749.2969,1865.1172 c 0,14.8828 -12.0703,26.9922 -26.9922,26.9922 -14.9219,0 -26.9922,-12.1094 -26.9922,-26.9922 0,-14.9219 12.0703,-27.0313 26.9922,-27.0313 14.9219,0 26.9922,12.1094 26.9922,27.0313"
       style="fill:#5900ff;fill-opacity:1;fill-rule:nonzero;stroke:#5900ff;stroke-width:7.5;stroke-linecap:round;stroke-linejoin:round;stroke-miterlimit:10;stroke-opacity:1" />
    <path
       id="path184"
       transform="matrix(0.1,0,0,-0.1,0,288)"
       d="m 1256.9922,1536.9141 c 0,14.8828 -12.0703,26.9922 -26.9922,26.9922 -14.9219,0 -26.9922,-12.1094 -26.9922,-26.9922 0,-14.9219 12.0703,-27.0313 26.9922,-27.0313 14.9219,0 26.9922,12.1094 26.9922,27.0313"
       style="fill:#5900ff;fill-opacity:1;fill-rule:nonzero;stroke:#5900ff;stroke-width:7.5;stroke-linecap:round;stroke-linejoin:round;stroke-miterlimit:10;stroke-opacity:1" />
    <path
       id="path186"
       transform="matrix(0.1,0,0,-0.1,0,288)"
       d="m 2231.9922,1550.5078 c 0,14.8828 -12.0703,26.9922 -26.9922,26.9922 -14.9219,0 -26.9922,-12.1094 -26.9922,-26.9922 0,-14.9219 12.0703,-26.9922 26.9922,-26.9922 14.9219,0 26.9922,12.0703 26.9922,26.9922"
       style="fill:#5900ff;fill-opacity:1;fill-rule:nonzero;stroke:#5900ff;stroke-width:7.5;stroke-linecap:round;stroke-linejoin:round;stroke-miterlimit:10;stroke-opacity:1" />
    <path
       id="path188"
       transform="matrix(0.1,0,0,-0.1,0,288)"
       d="m 1391.2891,1097.1094 c 0,14.8828 -12.0703,26.9922 -26.9922,26.9922 -14.9219,0 -26.9922,-12.1094 -26.9922,-26.9922 0,-14.9219 12.0703,-26.9922 26.9922,-26.9922 14.9219,0 26.9922,12.0703 26.9922,26.9922"
       style="fill:#5900ff;fill-opacity:1;fill-rule:nonzero;stroke:#5900ff;stroke-width:7.5;stroke-linecap:round;stroke-linejoin:round;stroke-miterlimit:10;stroke-opacity:1" />
    <path
       id="path190"
       transform="matrix(0.1,0,0,-0.1,0,288)"
       d="m 2024.4922,1396.7969 c 0,14.9219 -12.0703,26.9922 -26.9922,26.9922 -14.9219,0 -26.9922,-12.0703 -26.9922,-26.9922 0,-14.9219 12.0703,-26.9922 26.9922,-26.9922 14.9219,0 26.9922,12.0703 26.9922,26.9922"
       style="fill:#5900ff;fill-opacity:1;fill-rule:nonzero;stroke:#5900ff;stroke-width:7.5;stroke-linecap:round;stroke-linejoin:round;stroke-miterlimit:10;stroke-opacity:1" />
    <path
       id="path192"
       transform="matrix(0.1,0,0,-0.1,0,288)"
       d="m 2272.5,1682.3828 c 0,14.9219 -12.1094,27.0313 -26.9922,27.0313 -14.9219,0 -26.9922,-12.1094 -26.9922,-27.0313 0,-14.8828 12.0703,-26.9922 26.9922,-26.9922 14.8828,0 26.9922,12.1094 26.9922,26.9922"
       style="fill:#5900ff;fill-opacity:1;fill-rule:nonzero;stroke:#5900ff;stroke-width:7.5;stroke-linecap:round;stroke-linejoin:round;stroke-miterlimit:10;stroke-opacity:1" />
    <path
       id="path194"
       transform="matrix(0.1,0,0,-0.1,0,288)"
       d="m 1199.6875,1172.6172 c 0,14.8828 -12.0703,26.9922 -26.9922,26.9922 -14.9219,0 -26.9922,-12.1094 -26.9922,-26.9922 0,-14.9219 12.0703,-27.0313 26.9922,-27.0313 14.9219,0 26.9922,12.1094 26.9922,27.0313"
       style="fill:#5900ff;fill-opacity:1;fill-rule:nonzero;stroke:#5900ff;stroke-width:7.5;stroke-linecap:round;stroke-linejoin:round;stroke-miterlimit:10;stroke-opacity:1" />
    <path
       id="path196"
       transform="matrix(0.1,0,0,-0.1,0,288)"
       d="m 1654.2969,1771.0156 c 0,14.8828 -12.0703,26.9922 -26.9922,26.9922 -14.9219,0 -26.9922,-12.1094 -26.9922,-26.9922 0,-14.9218 12.0703,-27.0312 26.9922,-27.0312 14.9219,0 26.9922,12.1094 26.9922,27.0312"
       style="fill:#5900ff;fill-opacity:1;fill-rule:nonzero;stroke:#5900ff;stroke-width:7.5;stroke-linecap:round;stroke-linejoin:round;stroke-miterlimit:10;stroke-opacity:1" />
    <path
       id="path198"
       transform="matrix(0.1,0,0,-0.1,0,288)"
       d="m 1671.4844,1725.3906 c 0,14.9219 -12.0703,26.9922 -26.9922,26.9922 -14.8828,0 -26.9922,-12.0703 -26.9922,-26.9922 0,-14.8828 12.1094,-26.9922 26.9922,-26.9922 14.9219,0 26.9922,12.1094 26.9922,26.9922"
       style="fill:#5900ff;fill-opacity:1;fill-rule:nonzero;stroke:#5900ff;stroke-width:7.5;stroke-linecap:round;stroke-linejoin:round;stroke-miterlimit:10;stroke-opacity:1" />
    <path
       id="path200"
       transform="matrix(0.1,0,0,-0.1,0,288)"
       d="m 1595.3906,1942.6953 c 0,14.9219 -12.0703,26.9922 -26.9922,26.9922 -14.9218,0 -26.9921,-12.0703 -26.9921,-26.9922 0,-14.9219 12.0703,-26.9922 26.9921,-26.9922 14.9219,0 26.9922,12.0703 26.9922,26.9922"
       style="fill:#5900ff;fill-opacity:1;fill-rule:nonzero;stroke:#5900ff;stroke-width:7.5;stroke-linecap:round;stroke-linejoin:round;stroke-miterlimit:10;stroke-opacity:1" />
    <path
       id="path202"
       transform="matrix(0.1,0,0,-0.1,0,288)"
       d="m 1757.3828,1791.9141 c 0,14.8828 -12.0703,26.9922 -26.9922,26.9922 -14.8828,0 -26.9922,-12.1094 -26.9922,-26.9922 0,-14.9219 12.1094,-27.0313 26.9922,-27.0313 14.9219,0 26.9922,12.1094 26.9922,27.0313"
       style="fill:#5900ff;fill-opacity:1;fill-rule:nonzero;stroke:#5900ff;stroke-width:7.5;stroke-linecap:round;stroke-linejoin:round;stroke-miterlimit:10;stroke-opacity:1" />
  </g>
</svg>
