<?xml version="1.0" encoding="UTF-8" standalone="no"?>
<svg
   xmlns:dc="http://purl.org/dc/elements/1.1/"
   xmlns:cc="http://creativecommons.org/ns#"
   xmlns:rdf="http://www.w3.org/1999/02/22-rdf-syntax-ns#"
   xmlns:svg="http://www.w3.org/2000/svg"
   xmlns="http://www.w3.org/2000/svg"
   viewBox="0 0 960 320"
   height="320"
   width="960"
   xml:space="preserve"
   id="svg2"
   version="1.1"><metadata
     id="metadata8"><rdf:RDF><cc:Work
         rdf:about=""><dc:format>image/svg+xml</dc:format><dc:type
           rdf:resource="http://purl.org/dc/dcmitype/StillImage" /><dc:title></dc:title></cc:Work></rdf:RDF></metadata><defs
     id="defs6"><clipPath
       id="clipPath22"
       clipPathUnits="userSpaceOnUse"><path
         id="path20"
         d="M 1406.8,3503.8 H 4834 V 5059 H 1406.8 Z" /></clipPath><clipPath
       id="clipPath82"
       clipPathUnits="userSpaceOnUse"><path
         id="path80"
         d="m 816.398,2769.4 h 4320 v 2880 h -4320 z" /></clipPath><clipPath
       clipPathUnits="userSpaceOnUse"
       id="clipPath957"><path
         d="M 1406.8,3503.8 H 4834 V 5059 H 1406.8 Z"
         id="path955" /></clipPath><clipPath
       clipPathUnits="userSpaceOnUse"
       id="clipPath1025"><path
         d="m 816.398,2769.4 h 4320 v 2880 h -4320 z"
         id="path1023" /></clipPath></defs><g
     transform="matrix(1.3333333,0,0,-1.3333333,0,1056)"
     id="g10"><g
       transform="translate(-130.338,234.20702)"
       id="g1709"><g
         id="g16"
         transform="scale(0.1)"><g
           clip-path="url(#clipPath22)"
           id="g18"><path
             id="path24"
             style="fill:none;stroke:#0000ff;stroke-width:7.5;stroke-linecap:round;stroke-linejoin:round;stroke-miterlimit:10;stroke-dasharray:none;stroke-opacity:1"
             d="m 2923.9,4831.8 239.9,157.3" /><path
             id="path26"
             style="fill:none;stroke:#0000ff;stroke-width:7.5;stroke-linecap:round;stroke-linejoin:round;stroke-miterlimit:10;stroke-dasharray:none;stroke-opacity:1"
             d="m 2860.6,4720.3 357.5,234.4" /><path
             id="path28"
             style="fill:none;stroke:#0000ff;stroke-width:7.5;stroke-linecap:round;stroke-linejoin:round;stroke-miterlimit:10;stroke-dasharray:none;stroke-opacity:1"
             d="m 2808.8,4616.5 450.8,295.4" /><path
             id="path30"
             style="fill:none;stroke:#0000ff;stroke-width:7.5;stroke-linecap:round;stroke-linejoin:round;stroke-miterlimit:10;stroke-dasharray:none;stroke-opacity:1"
             d="m 2761.6,4515.6 533.3,349.5" /><path
             id="path32"
             style="fill:none;stroke:#0000ff;stroke-width:7.5;stroke-linecap:round;stroke-linejoin:round;stroke-miterlimit:10;stroke-dasharray:none;stroke-opacity:1"
             d="m 2723.7,4420.8 603,395.2" /><path
             id="path34"
             style="fill:none;stroke:#0000ff;stroke-width:7.5;stroke-linecap:round;stroke-linejoin:round;stroke-miterlimit:10;stroke-dasharray:none;stroke-opacity:1"
             d="M 2723.7,4350.8 3356,4765.3" /><path
             id="path36"
             style="fill:none;stroke:#0000ff;stroke-width:7.5;stroke-linecap:round;stroke-linejoin:round;stroke-miterlimit:10;stroke-dasharray:none;stroke-opacity:1"
             d="m 2723.7,4280.9 660.1,432.6" /><path
             id="path38"
             style="fill:none;stroke:#0000ff;stroke-width:7.5;stroke-linecap:round;stroke-linejoin:round;stroke-miterlimit:10;stroke-dasharray:none;stroke-opacity:1"
             d="m 2723.7,4210.9 686.6,450" /><path
             id="path40"
             style="fill:none;stroke:#0000ff;stroke-width:7.5;stroke-linecap:round;stroke-linejoin:round;stroke-miterlimit:10;stroke-dasharray:none;stroke-opacity:1"
             d="M 2723.7,4140.9 3436,4607.8" /><path
             id="path42"
             style="fill:none;stroke:#0000ff;stroke-width:7.5;stroke-linecap:round;stroke-linejoin:round;stroke-miterlimit:10;stroke-dasharray:none;stroke-opacity:1"
             d="m 2723.7,4071 737.5,483.4" /><path
             id="path44"
             style="fill:none;stroke:#0000ff;stroke-width:7.5;stroke-linecap:round;stroke-linejoin:round;stroke-miterlimit:10;stroke-dasharray:none;stroke-opacity:1"
             d="M 2723.7,4001 3486,4500.6" /><path
             id="path46"
             style="fill:none;stroke:#0000ff;stroke-width:7.5;stroke-linecap:round;stroke-linejoin:round;stroke-miterlimit:10;stroke-dasharray:none;stroke-opacity:1"
             d="m 2723.7,3931.1 786.8,515.7" /><path
             id="path48"
             style="fill:none;stroke:#0000ff;stroke-width:7.5;stroke-linecap:round;stroke-linejoin:round;stroke-miterlimit:10;stroke-dasharray:none;stroke-opacity:1"
             d="m 2723.7,3861.1 793.3,520" /><path
             id="path50"
             style="fill:none;stroke:#0000ff;stroke-width:7.5;stroke-linecap:round;stroke-linejoin:round;stroke-miterlimit:10;stroke-dasharray:none;stroke-opacity:1"
             d="M 2723.7,3791.2 3517,4311.1" /><path
             id="path52"
             style="fill:none;stroke:#0000ff;stroke-width:7.5;stroke-linecap:round;stroke-linejoin:round;stroke-miterlimit:10;stroke-dasharray:none;stroke-opacity:1"
             d="m 2723.7,3721.2 793.3,520" /><path
             id="path54"
             style="fill:none;stroke:#0000ff;stroke-width:7.5;stroke-linecap:round;stroke-linejoin:round;stroke-miterlimit:10;stroke-dasharray:none;stroke-opacity:1"
             d="m 2723.7,3651.2 793.3,520" /><path
             id="path56"
             style="fill:none;stroke:#0000ff;stroke-width:7.5;stroke-linecap:round;stroke-linejoin:round;stroke-miterlimit:10;stroke-dasharray:none;stroke-opacity:1"
             d="m 2723.7,3581.3 793.3,520" /><path
             id="path58"
             style="fill:none;stroke:#0000ff;stroke-width:7.5;stroke-linecap:round;stroke-linejoin:round;stroke-miterlimit:10;stroke-dasharray:none;stroke-opacity:1"
             d="M 2800.2,3561.4 3517,4031.3" /><path
             id="path60"
             style="fill:none;stroke:#0000ff;stroke-width:7.5;stroke-linecap:round;stroke-linejoin:round;stroke-miterlimit:10;stroke-dasharray:none;stroke-opacity:1"
             d="m 2906.9,3561.4 610.1,400" /><path
             id="path62"
             style="fill:none;stroke:#0000ff;stroke-width:7.5;stroke-linecap:round;stroke-linejoin:round;stroke-miterlimit:10;stroke-dasharray:none;stroke-opacity:1"
             d="m 3013.6,3561.4 503.4,330" /><path
             id="path64"
             style="fill:none;stroke:#0000ff;stroke-width:7.5;stroke-linecap:round;stroke-linejoin:round;stroke-miterlimit:10;stroke-dasharray:none;stroke-opacity:1"
             d="m 3120.4,3561.4 396.6,260" /><path
             id="path66"
             style="fill:none;stroke:#0000ff;stroke-width:7.5;stroke-linecap:round;stroke-linejoin:round;stroke-miterlimit:10;stroke-dasharray:none;stroke-opacity:1"
             d="M 3227.1,3561.4 3517,3751.5" /><path
             id="path68"
             style="fill:none;stroke:#0000ff;stroke-width:7.5;stroke-linecap:round;stroke-linejoin:round;stroke-miterlimit:10;stroke-dasharray:none;stroke-opacity:1"
             d="M 3333.8,3561.4 3517,3681.5" /><path
             id="path70"
             style="fill:none;stroke:#0000ff;stroke-width:7.5;stroke-linecap:round;stroke-linejoin:round;stroke-miterlimit:10;stroke-dasharray:none;stroke-opacity:1"
             d="m 3440.6,3561.4 76.4,50.2" /><path
             id="path72"
             style="fill:none;stroke:#0000ff;stroke-width:7.5;stroke-linecap:round;stroke-linejoin:round;stroke-miterlimit:10;stroke-dasharray:none;stroke-opacity:1"
             d="m 2723.7,3561.4 v 871.1 l 4,8.8 3.9,8.7 4,8.7 4,8.7 3.9,8.7 4,8.6 4,8.7 3.9,8.7 4,8.6 4,8.7 3.9,8.6 4,8.6 4,8.5 3.9,8.6 4,8.5 4,8.5 3.9,8.4 4,8.5 4,8.4 3.9,8.3 4,8.4 4,8.2 3.9,8.3 4,8.2 4,8.1 3.9,8.2 4,8 4,8 3.9,8 4,7.9 4,7.8 3.9,7.8 4,7.7 4,7.7 3.9,7.5 4,7.6 4,7.4 3.9,7.4 4,7.3 4,7.3 3.9,7.1 4,7.1 4,7 3.9,6.9 4,6.8 4,6.8 3.9,6.7 4,6.5 4,6.5 3.9,6.4 4,6.3 4,6.2 3.9,6.1 4,6 4,5.8 3.9,5.8 4,5.7 4,5.6 3.9,5.5 4,5.3 4,5.3 3.9,5.1 4,5 4,4.9 3.9,4.8 4,4.7 4,4.5 3.9,4.5 4,4.3 4,4.1 3.9,4.1 4,3.9 4,3.8 3.9,3.7 4,3.6 4,3.4 3.9,3.3 4,3.1 4,3 3.9,2.9 4,2.8 4,2.6 3.9,2.4 4,2.4 4,2.2 3.9,2 4,2 4,1.7 3.9,1.7 4,1.5 4,1.3 3.9,1.3 4,1 4,1 3.9,0.7 4,0.7 4,0.5 3.9,0.4 4,0.2 h 4 3.9 l 4,-0.2 4,-0.4 3.9,-0.5 4,-0.7 4,-0.7 3.9,-1 4,-1 4,-1.3 3.9,-1.3 4,-1.5 4,-1.7 3.9,-1.7 4,-2 4,-2 3.9,-2.2 4,-2.4 4,-2.4 3.9,-2.6 4,-2.8 4,-2.9 3.9,-3 4,-3.1 4,-3.3 3.9,-3.4 4,-3.6 4,-3.7 3.9,-3.8 4,-3.9 4,-4.1 3.9,-4.1 4,-4.3 4,-4.5 3.9,-4.5 4,-4.7 4,-4.8 3.9,-4.9 4,-5 4,-5.1 3.9,-5.3 4,-5.3 4,-5.5 3.9,-5.6 4,-5.7 4,-5.8 3.9,-5.8 4,-6 4,-6.1 3.9,-6.2 4,-6.3 4,-6.4 3.9,-6.5 4,-6.5 4,-6.7 3.9,-6.8 4,-6.8 4,-6.9 3.9,-7 4,-7.1 4,-7.1 3.9,-7.3 4,-7.3 4,-7.4 3.9,-7.4 4,-7.6 4,-7.5 3.9,-7.7 4,-7.7 4,-7.8 3.9,-7.8 4,-7.9 4,-8 3.9,-8 4,-8 4,-8.2 3.9,-8.1 4,-8.2 4,-8.3 3.9,-8.2 4,-8.4 4,-8.3 3.9,-8.4 4,-8.5 4,-8.4 3.9,-8.5 4,-8.5 4,-8.6 3.9,-8.5 4,-8.6 4,-8.6 3.9,-8.7 4,-8.6 4,-8.7 3.9,-8.7 4,-8.6 4,-8.7 3.9,-8.7 4,-8.7 4,-8.7 3.9,-8.8 v -871.1 h -793.3" /><path
             id="path74"
             style="fill:none;stroke:#000000;stroke-width:15;stroke-linecap:round;stroke-linejoin:round;stroke-miterlimit:10;stroke-dasharray:none;stroke-opacity:1"
             d="m 1533.7,3561.9 4,0.1 h 15.8 l 4,0.1 h 4 3.9 4 l 4,0.1 h 3.9 4 l 4,0.1 h 3.9 4 l 4,0.1 h 3.9 4 l 4,0.1 h 3.9 4 l 4,0.1 h 3.9 l 4,0.1 h 4 l 3.9,0.1 h 4 l 4,0.1 h 3.9 l 4,0.1 h 4 l 3.9,0.1 4,0.1 h 4 l 3.9,0.1 4,0.1 h 4 l 3.9,0.1 4,0.1 4,0.1 h 3.9 l 4,0.1 4,0.1 3.9,0.1 4,0.1 4,0.1 3.9,0.1 4,0.1 4,0.1 3.9,0.1 4,0.1 4,0.1 3.9,0.1 4,0.2 4,0.1 3.9,0.1 4,0.2 4,0.1 3.9,0.1 4,0.2 4,0.1 3.9,0.2 4,0.2 4,0.1 3.9,0.2 4,0.2 4,0.2 3.9,0.2 4,0.1 4,0.3 3.9,0.2 4,0.2 4,0.2 3.9,0.2 4,0.3 4,0.2 3.9,0.2 4,0.3 4,0.3 3.9,0.2 4,0.3 4,0.3 3.9,0.3 4,0.3 4,0.3 3.9,0.3 4,0.4 4,0.3 3.9,0.3 4,0.4 4,0.4 3.9,0.4 4,0.3 4,0.5 3.9,0.4 4,0.4 4,0.4 3.9,0.5 4,0.4 4,0.5 3.9,0.5 4,0.5 4,0.5 3.9,0.5 4,0.6 4,0.5 3.9,0.6 4,0.6 4,0.6 3.9,0.6 4,0.6 4,0.7 3.9,0.6 4,0.7 4,0.7 3.9,0.7 4,0.7 4,0.8 3.9,0.8 4,0.7 4,0.9 3.9,0.8 4,0.8 4,0.9 3.9,0.9 4,0.9 4,0.9 3.9,1 4,1 4,1 3.9,1 4,1 4,1.1 3.9,1.1 4,1.1 4,1.2 3.9,1.2 4,1.2 4,1.2 3.9,1.2 4,1.3 4,1.3 3.9,1.4 4,1.4 4,1.4 3.9,1.4 4,1.5 4,1.5 3.9,1.5 4,1.6 4,1.5 3.9,1.7 4,1.6 4,1.7 3.9,1.8 4,1.7 4,1.8 3.9,1.9 4,1.9 4,1.9 3.9,1.9 4,2 4,2 3.9,2.1 4,2.1 4,2.2 3.9,2.2 4,2.2 4,2.3 3.9,2.3 4,2.4 4,2.4 3.9,2.5 4,2.5 4,2.5 3.9,2.6 4,2.6 4,2.7 3.9,2.8 4,2.8 4,2.8 3.9,2.9 4,2.9 4,3 3.9,3 4,3.1 4,3.2 3.9,3.1 4,3.3 4,3.3 3.9,3.3 4,3.4 4,3.5 3.9,3.5 4,3.6 4,3.6 3.9,3.7 4,3.8 4,3.8 3.9,3.8 4,3.9 4,4 3.9,4 4,4.1 4,4.2 3.9,4.2 4,4.3 4,4.3 3.9,4.4 4,4.5 4,4.5 3.9,4.6 4,4.6 4,4.7 3.9,4.8 4,4.8 4,4.9 3.9,5 4,5 4,5.1 3.9,5.1 4,5.2 4,5.3 3.9,5.3 4,5.4 4,5.5 3.9,5.5 4,5.6 4,5.7 3.9,5.7 4,5.8 4,5.9 3.9,5.9 4,6 4,6 3.9,6.1 4,6.2 4,6.2 3.9,6.3 4,6.4 4,6.4 3.9,6.5 4,6.5 4,6.6 3.9,6.7 4,6.7 4,6.8 3.9,6.8 4,6.9 4,7 3.9,7 4,7.1 4,7.2 3.9,7.1 4,7.3 4,7.3 3.9,7.4 4,7.4 4,7.4 3.9,7.6 4,7.5 4,7.7 3.9,7.6 4,7.8 4,7.7 3.9,7.8 4,7.9 4,7.9 3.9,8 4,8 4,8 3.9,8.1 4,8.1 4,8.2 3.9,8.2 4,8.2 4,8.3 3.9,8.3 4,8.3 4,8.4 3.9,8.4 4,8.5 4,8.4 3.9,8.5 4,8.5 4,8.6 3.9,8.5 4,8.6 4,8.6 3.9,8.6 4,8.7 4,8.6 3.9,8.7 4,8.6 4,8.7 3.9,8.7 4,8.7 4,8.7 3.9,8.7 4,8.7 4,8.8 3.9,8.7 4,8.7 4,8.7 3.9,8.7 4,8.6 4,8.7 3.9,8.7 4,8.6 4,8.7 3.9,8.6 4,8.6 4,8.5 3.9,8.6 4,8.5 4,8.5 3.9,8.4 4,8.5 4,8.4 3.9,8.3 4,8.4 4,8.2 3.9,8.3 4,8.2 4,8.1 3.9,8.2 4,8 4,8 3.9,8 4,7.9 4,7.8 3.9,7.8 4,7.7 4,7.7 3.9,7.5 4,7.6 4,7.4 3.9,7.4 4,7.3 4,7.3 3.9,7.1 4,7.1 4,7 3.9,6.9 4,6.8 4,6.8 3.9,6.7 4,6.5 4,6.5 3.9,6.4 4,6.3 4,6.2 3.9,6.1 4,6 4,5.8 3.9,5.8 4,5.7 4,5.6 3.9,5.5 4,5.3 4,5.3 3.9,5.1 4,5 4,4.9 3.9,4.8 4,4.7 4,4.5 3.9,4.5 4,4.3 4,4.1 3.9,4.1 4,3.9 4,3.8 3.9,3.7 4,3.6 4,3.4 3.9,3.3 4,3.1 4,3 3.9,2.9 4,2.8 4,2.6 3.9,2.4 4,2.4 4,2.2 3.9,2 4,2 4,1.7 3.9,1.7 4,1.5 4,1.3 3.9,1.3 4,1 4,1 3.9,0.7 4,0.7 4,0.5 3.9,0.4 4,0.2 h 4 3.9 l 4,-0.2 4,-0.4 3.9,-0.5 4,-0.7 4,-0.7 3.9,-1 4,-1 4,-1.3 3.9,-1.3 4,-1.5 4,-1.7 3.9,-1.7 4,-2 4,-2 3.9,-2.2 4,-2.4 4,-2.4 3.9,-2.6 4,-2.8 4,-2.9 3.9,-3 4,-3.1 4,-3.3 3.9,-3.4 4,-3.6 4,-3.7 3.9,-3.8 4,-3.9 4,-4.1 3.9,-4.1 4,-4.3 4,-4.5 3.9,-4.5 4,-4.7 4,-4.8 3.9,-4.9 4,-5 4,-5.1 3.9,-5.3 4,-5.3 4,-5.5 3.9,-5.6 4,-5.7 4,-5.8 3.9,-5.8 4,-6 4,-6.1 3.9,-6.2 4,-6.3 4,-6.4 3.9,-6.5 4,-6.5 4,-6.7 3.9,-6.8 4,-6.8 4,-6.9 3.9,-7 4,-7.1 4,-7.1 3.9,-7.3 4,-7.3 4,-7.4 3.9,-7.4 4,-7.6 4,-7.5 3.9,-7.7 4,-7.7 4,-7.8 3.9,-7.8 4,-7.9 4,-8 3.9,-8 4,-8 4,-8.2 3.9,-8.1 4,-8.2 4,-8.3 3.9,-8.2 4,-8.4 4,-8.3 3.9,-8.4 4,-8.5 4,-8.4 3.9,-8.5 4,-8.5 4,-8.6 3.9,-8.5 4,-8.6 4,-8.6 3.9,-8.7 4,-8.6 4,-8.7 3.9,-8.7 4,-8.6 4,-8.7 3.9,-8.7 4,-8.7 4,-8.7 3.9,-8.8 4,-8.7 4,-8.7 3.9,-8.7 4,-8.7 4,-8.7 3.9,-8.7 4,-8.6 4,-8.7 3.9,-8.6 4,-8.7 4,-8.6 3.9,-8.6 4,-8.6 4,-8.5 3.9,-8.6 4,-8.5 4,-8.5 3.9,-8.4 4,-8.5 4,-8.4 3.9,-8.4 4,-8.3 4,-8.3 3.9,-8.3 4,-8.2 4,-8.2 3.9,-8.2 4,-8.1 4,-8.1 3.9,-8 4,-8 4,-8 3.9,-7.9 4,-7.9 4,-7.8 3.9,-7.7 4,-7.8 4,-7.6 3.9,-7.7 4,-7.5 4,-7.6 3.9,-7.4 4,-7.4 4,-7.4 3.9,-7.3 4,-7.3 4,-7.1 3.9,-7.2 4,-7.1 4,-7 3.9,-7 4,-6.9 4,-6.8 3.9,-6.8 4,-6.7 4,-6.7 3.9,-6.6 4,-6.5 4,-6.5 3.9,-6.4 4,-6.4 4,-6.3 3.9,-6.2 4,-6.2 4,-6.1 3.9,-6 4,-6 4,-5.9 3.9,-5.9 4,-5.8 4,-5.7 3.9,-5.7 4,-5.6 4,-5.5 3.9,-5.5 4,-5.4 4,-5.3 3.9,-5.3 4,-5.2 4,-5.1 3.9,-5.1 4,-5 4,-5 3.9,-4.9 4,-4.8 4,-4.8 3.9,-4.7 4,-4.6 4,-4.6 3.9,-4.5 4,-4.5 4,-4.4 3.9,-4.3 4,-4.3 4,-4.2 3.9,-4.2 4,-4.1 4,-4 3.9,-4 4,-3.9 4,-3.8 3.9,-3.8 4,-3.8 4,-3.7 3.9,-3.6 4,-3.6 4,-3.5 3.9,-3.5 4,-3.4 4,-3.3 3.9,-3.3 4,-3.3 4,-3.1 3.9,-3.2 4,-3.1 4,-3 3.9,-3 4,-2.9 4,-2.9 3.9,-2.8 4,-2.8 4,-2.8 3.9,-2.7 4,-2.6 4,-2.6 3.9,-2.5 4,-2.5 4,-2.5 3.9,-2.4 4,-2.4 4,-2.3 3.9,-2.3 4,-2.2 4,-2.2 3.9,-2.2 4,-2.1 4,-2.1 3.9,-2 4,-2 4,-1.9 3.9,-1.9 4,-1.9 4,-1.9 3.9,-1.8 4,-1.7 4,-1.8 3.9,-1.7 4,-1.6 4,-1.7 3.9,-1.5 4,-1.6 4,-1.5 3.9,-1.5 4,-1.5 4,-1.4 3.9,-1.4 4,-1.4 4,-1.4 3.9,-1.3 4,-1.3 4,-1.2 3.9,-1.2 4,-1.2 4,-1.2 3.9,-1.2 4,-1.1 4,-1.1 3.9,-1.1 4,-1 4,-1 3.9,-1 4,-1 4,-1 3.9,-0.9 4,-0.9 4,-0.9 3.9,-0.9 4,-0.8 4,-0.8 3.9,-0.9 4,-0.7 4,-0.8 3.9,-0.8 4,-0.7 4,-0.7 3.9,-0.7 4,-0.7 4,-0.6 3.9,-0.7 4,-0.6 4,-0.6 3.9,-0.6 4,-0.6 4,-0.6 3.9,-0.5 4,-0.6 4,-0.5 3.9,-0.5 4,-0.5 4,-0.5 3.9,-0.5 4,-0.4 4,-0.5 3.9,-0.4 4,-0.4 4,-0.4 3.9,-0.5 4,-0.3 4,-0.4 3.9,-0.4 4,-0.4 4,-0.3 3.9,-0.3 4,-0.4 4,-0.3 3.9,-0.3 4,-0.3 4,-0.3 3.9,-0.3 4,-0.3 4,-0.2 3.9,-0.3 4,-0.3 4,-0.2 3.9,-0.2 4,-0.3 4,-0.2 3.9,-0.2 4,-0.2 4,-0.2 3.9,-0.3 4,-0.1 4,-0.2 3.9,-0.2 4,-0.2 4,-0.2 3.9,-0.1 4,-0.2 4,-0.2 3.9,-0.1 4,-0.2 4,-0.1 3.9,-0.1 4,-0.2 4,-0.1 3.9,-0.1 4,-0.2 4,-0.1 3.9,-0.1 4,-0.1 4,-0.1 3.9,-0.1 4,-0.1 4,-0.1 3.9,-0.1 4,-0.1 4,-0.1 3.9,-0.1 4,-0.1 h 4 l 3.9,-0.1 4,-0.1 4,-0.1 h 3.9 l 4,-0.1 4,-0.1 h 3.9 l 4,-0.1 4,-0.1 h 3.9 l 4,-0.1 h 4 l 3.9,-0.1 h 4 l 4,-0.1 h 3.9 l 4,-0.1 h 4 l 3.9,-0.1 h 4 4 l 3.9,-0.1 h 4 4 l 3.9,-0.1 h 4 4 l 3.9,-0.1 h 4 4 l 3.9,-0.1 h 4 4 3.9 l 4,-0.1 h 4 3.9 4 4 l 3.9,-0.1" /></g></g><g
         id="g76"
         transform="scale(0.1)"><g
           clip-path="url(#clipPath82)"
           id="g78"><path
             id="path84"
             style="fill:none;stroke:#000000;stroke-width:7.5;stroke-linecap:round;stroke-linejoin:round;stroke-miterlimit:10;stroke-dasharray:none;stroke-opacity:1"
             d="M 1533.7,3503.8 H 4707" /><path
             id="path86"
             style="fill:none;stroke:#000000;stroke-width:7.5;stroke-linecap:round;stroke-linejoin:round;stroke-miterlimit:10;stroke-dasharray:none;stroke-opacity:1"
             d="m 1533.7,3503.8 v -72" /><path
             id="path88"
             style="fill:none;stroke:#000000;stroke-width:7.5;stroke-linecap:round;stroke-linejoin:round;stroke-miterlimit:10;stroke-dasharray:none;stroke-opacity:1"
             d="m 1930.4,3503.8 v -72" /><path
             id="path90"
             style="fill:none;stroke:#000000;stroke-width:7.5;stroke-linecap:round;stroke-linejoin:round;stroke-miterlimit:10;stroke-dasharray:none;stroke-opacity:1"
             d="m 2327,3503.8 v -72" /><path
             id="path92"
             style="fill:none;stroke:#000000;stroke-width:7.5;stroke-linecap:round;stroke-linejoin:round;stroke-miterlimit:10;stroke-dasharray:none;stroke-opacity:1"
             d="m 2723.7,3503.8 v -72" /><path
             id="path94"
             style="fill:none;stroke:#000000;stroke-width:7.5;stroke-linecap:round;stroke-linejoin:round;stroke-miterlimit:10;stroke-dasharray:none;stroke-opacity:1"
             d="m 3120.4,3503.8 v -72" /><path
             id="path96"
             style="fill:none;stroke:#000000;stroke-width:7.5;stroke-linecap:round;stroke-linejoin:round;stroke-miterlimit:10;stroke-dasharray:none;stroke-opacity:1"
             d="m 3517,3503.8 v -72" /><path
             id="path98"
             style="fill:none;stroke:#000000;stroke-width:7.5;stroke-linecap:round;stroke-linejoin:round;stroke-miterlimit:10;stroke-dasharray:none;stroke-opacity:1"
             d="m 3913.7,3503.8 v -72" /><path
             id="path100"
             style="fill:none;stroke:#000000;stroke-width:7.5;stroke-linecap:round;stroke-linejoin:round;stroke-miterlimit:10;stroke-dasharray:none;stroke-opacity:1"
             d="m 4310.4,3503.8 v -72" /><path
             id="path102"
             style="fill:none;stroke:#000000;stroke-width:7.5;stroke-linecap:round;stroke-linejoin:round;stroke-miterlimit:10;stroke-dasharray:none;stroke-opacity:1"
             d="m 4707,3503.8 v -72" /><g
             transform="scale(10)"
             id="g104"><text
               id="text108"
               style="font-variant:normal;font-weight:normal;font-size:16px;font-family:Helvetica;-inkscape-font-specification:Helvetica;writing-mode:lr-tb;fill:#000000;fill-opacity:1;fill-rule:nonzero;stroke:none"
               transform="matrix(1,0,0,-1,144.25,324.46)"><tspan
                 id="tspan106"
                 y="0"
                 x="0 9.3439999 39.669922 49.01392 79.330078 88.67408 119 128.34399 163.34177 203.0016 242.67184 282.34177 322.00159">−4−3−2−101234</tspan></text><text
               id="text112"
               style="font-variant:normal;font-weight:normal;font-size:19px;font-family:Helvetica;-inkscape-font-specification:Helvetica;writing-mode:lr-tb;fill:#000000;fill-opacity:1;fill-rule:nonzero;stroke:none"
               transform="matrix(1,0,0,-1,218.8285,528.6)"><tspan
                 id="tspan110"
                 y="0"
                 x="0 12.673 23.237 33.800999 44.365002 54.929001 65.492996 70.775002 83.447998 89.775002 100.339 110.903 116.185 127.281 132.563 143.127 153.69099 158.97301 169.537">Shaded Area = 68.3%</tspan></text></g></g></g></g><g
       transform="translate(229.66201,234.20702)"
       id="g1810"><g
         transform="scale(0.1)"
         id="g951"><g
           id="g953"
           clip-path="url(#clipPath957)"><path
             d="m 2923.9,4831.8 239.9,157.3"
             style="fill:none;stroke:#0000ff;stroke-width:7.5;stroke-linecap:round;stroke-linejoin:round;stroke-miterlimit:10;stroke-dasharray:none;stroke-opacity:1"
             id="path959" /><path
             d="m 2860.6,4720.3 357.5,234.4"
             style="fill:none;stroke:#0000ff;stroke-width:7.5;stroke-linecap:round;stroke-linejoin:round;stroke-miterlimit:10;stroke-dasharray:none;stroke-opacity:1"
             id="path961" /><path
             d="m 2808.8,4616.5 450.8,295.4"
             style="fill:none;stroke:#0000ff;stroke-width:7.5;stroke-linecap:round;stroke-linejoin:round;stroke-miterlimit:10;stroke-dasharray:none;stroke-opacity:1"
             id="path963" /><path
             d="m 2761.6,4515.6 533.3,349.5"
             style="fill:none;stroke:#0000ff;stroke-width:7.5;stroke-linecap:round;stroke-linejoin:round;stroke-miterlimit:10;stroke-dasharray:none;stroke-opacity:1"
             id="path965" /><path
             d="M 2716.1,4415.8 3326.7,4816"
             style="fill:none;stroke:#0000ff;stroke-width:7.5;stroke-linecap:round;stroke-linejoin:round;stroke-miterlimit:10;stroke-dasharray:none;stroke-opacity:1"
             id="path967" /><path
             d="M 2670.2,4315.7 3356,4765.3"
             style="fill:none;stroke:#0000ff;stroke-width:7.5;stroke-linecap:round;stroke-linejoin:round;stroke-miterlimit:10;stroke-dasharray:none;stroke-opacity:1"
             id="path969" /><path
             d="m 2622.3,4214.4 761.5,499.1"
             style="fill:none;stroke:#0000ff;stroke-width:7.5;stroke-linecap:round;stroke-linejoin:round;stroke-miterlimit:10;stroke-dasharray:none;stroke-opacity:1"
             id="path971" /><path
             d="m 2570.2,4110.3 840.1,550.6"
             style="fill:none;stroke:#0000ff;stroke-width:7.5;stroke-linecap:round;stroke-linejoin:round;stroke-miterlimit:10;stroke-dasharray:none;stroke-opacity:1"
             id="path973" /><path
             d="m 2509.8,4000.8 926.2,607"
             style="fill:none;stroke:#0000ff;stroke-width:7.5;stroke-linecap:round;stroke-linejoin:round;stroke-miterlimit:10;stroke-dasharray:none;stroke-opacity:1"
             id="path975" /><path
             d="m 2431.6,3879.5 1029.6,674.9"
             style="fill:none;stroke:#0000ff;stroke-width:7.5;stroke-linecap:round;stroke-linejoin:round;stroke-miterlimit:10;stroke-dasharray:none;stroke-opacity:1"
             id="path977" /><path
             d="m 2327,3741 1159,759.6"
             style="fill:none;stroke:#0000ff;stroke-width:7.5;stroke-linecap:round;stroke-linejoin:round;stroke-miterlimit:10;stroke-dasharray:none;stroke-opacity:1"
             id="path979" /><path
             d="m 2327,3671.1 1183.5,775.7"
             style="fill:none;stroke:#0000ff;stroke-width:7.5;stroke-linecap:round;stroke-linejoin:round;stroke-miterlimit:10;stroke-dasharray:none;stroke-opacity:1"
             id="path981" /><path
             d="m 2327,3601.1 1208.1,791.8"
             style="fill:none;stroke:#0000ff;stroke-width:7.5;stroke-linecap:round;stroke-linejoin:round;stroke-miterlimit:10;stroke-dasharray:none;stroke-opacity:1"
             id="path983" /><path
             d="m 2373.3,3561.4 1186.4,777.7"
             style="fill:none;stroke:#0000ff;stroke-width:7.5;stroke-linecap:round;stroke-linejoin:round;stroke-miterlimit:10;stroke-dasharray:none;stroke-opacity:1"
             id="path985" /><path
             d="m 2480,3561.4 1104.6,724.1"
             style="fill:none;stroke:#0000ff;stroke-width:7.5;stroke-linecap:round;stroke-linejoin:round;stroke-miterlimit:10;stroke-dasharray:none;stroke-opacity:1"
             id="path987" /><path
             d="m 2586.7,3561.4 1023.2,670.7"
             style="fill:none;stroke:#0000ff;stroke-width:7.5;stroke-linecap:round;stroke-linejoin:round;stroke-miterlimit:10;stroke-dasharray:none;stroke-opacity:1"
             id="path989" /><path
             d="m 2693.5,3561.4 942.2,617.7"
             style="fill:none;stroke:#0000ff;stroke-width:7.5;stroke-linecap:round;stroke-linejoin:round;stroke-miterlimit:10;stroke-dasharray:none;stroke-opacity:1"
             id="path991" /><path
             d="m 2800.2,3561.4 862,565.1"
             style="fill:none;stroke:#0000ff;stroke-width:7.5;stroke-linecap:round;stroke-linejoin:round;stroke-miterlimit:10;stroke-dasharray:none;stroke-opacity:1"
             id="path993" /><path
             d="m 2906.9,3561.4 782.7,513"
             style="fill:none;stroke:#0000ff;stroke-width:7.5;stroke-linecap:round;stroke-linejoin:round;stroke-miterlimit:10;stroke-dasharray:none;stroke-opacity:1"
             id="path995" /><path
             d="M 3013.6,3561.4 3718,4023.1"
             style="fill:none;stroke:#0000ff;stroke-width:7.5;stroke-linecap:round;stroke-linejoin:round;stroke-miterlimit:10;stroke-dasharray:none;stroke-opacity:1"
             id="path997" /><path
             d="m 3120.4,3561.4 627.3,411.3"
             style="fill:none;stroke:#0000ff;stroke-width:7.5;stroke-linecap:round;stroke-linejoin:round;stroke-miterlimit:10;stroke-dasharray:none;stroke-opacity:1"
             id="path999" /><path
             d="m 3227.1,3561.4 552,361.8"
             style="fill:none;stroke:#0000ff;stroke-width:7.5;stroke-linecap:round;stroke-linejoin:round;stroke-miterlimit:10;stroke-dasharray:none;stroke-opacity:1"
             id="path1001" /><path
             d="m 3333.8,3561.4 478.5,313.7"
             style="fill:none;stroke:#0000ff;stroke-width:7.5;stroke-linecap:round;stroke-linejoin:round;stroke-miterlimit:10;stroke-dasharray:none;stroke-opacity:1"
             id="path1003" /><path
             d="M 3440.6,3561.4 3848,3828.5"
             style="fill:none;stroke:#0000ff;stroke-width:7.5;stroke-linecap:round;stroke-linejoin:round;stroke-miterlimit:10;stroke-dasharray:none;stroke-opacity:1"
             id="path1005" /><path
             d="m 3547.3,3561.4 339.3,222.4"
             style="fill:none;stroke:#0000ff;stroke-width:7.5;stroke-linecap:round;stroke-linejoin:round;stroke-miterlimit:10;stroke-dasharray:none;stroke-opacity:1"
             id="path1007" /><path
             d="m 3654,3561.4 259.7,170.3"
             style="fill:none;stroke:#0000ff;stroke-width:7.5;stroke-linecap:round;stroke-linejoin:round;stroke-miterlimit:10;stroke-dasharray:none;stroke-opacity:1"
             id="path1009" /><path
             d="m 3760.8,3561.4 152.9,100.3"
             style="fill:none;stroke:#0000ff;stroke-width:7.5;stroke-linecap:round;stroke-linejoin:round;stroke-miterlimit:10;stroke-dasharray:none;stroke-opacity:1"
             id="path1011" /><path
             d="m 3867.5,3561.4 46.2,30.3"
             style="fill:none;stroke:#0000ff;stroke-width:7.5;stroke-linecap:round;stroke-linejoin:round;stroke-miterlimit:10;stroke-dasharray:none;stroke-opacity:1"
             id="path1013" /><path
             d="m 2327,3561.4 v 194.4 l 4,3.9 4,4 3.9,4 4,4.1 4,4.2 3.9,4.2 4,4.3 4,4.3 3.9,4.4 4,4.5 4,4.5 3.9,4.6 4,4.6 4,4.7 3.9,4.8 4,4.8 4,4.9 3.9,5 4,5 4,5.1 3.9,5.1 4,5.2 4,5.3 3.9,5.3 4,5.4 4,5.5 3.9,5.5 4,5.6 4,5.7 3.9,5.7 4,5.8 4,5.9 3.9,5.9 4,6 4,6 3.9,6.1 4,6.2 4,6.2 3.9,6.3 4,6.4 4,6.4 3.9,6.5 4,6.5 4,6.6 3.9,6.7 4,6.7 4,6.8 3.9,6.8 4,6.9 4,7 3.9,7 4,7.1 4,7.2 3.9,7.1 4,7.3 4,7.3 3.9,7.4 4,7.4 4,7.4 3.9,7.6 4,7.5 4,7.7 3.9,7.6 4,7.8 4,7.7 3.9,7.8 4,7.9 4,7.9 3.9,8 4,8 4,8 3.9,8.1 4,8.1 4,8.2 3.9,8.2 4,8.2 4,8.3 3.9,8.3 4,8.3 4,8.4 3.9,8.4 4,8.5 4,8.4 3.9,8.5 4,8.5 4,8.6 3.9,8.5 4,8.6 4,8.6 3.9,8.6 4,8.7 4,8.6 3.9,8.7 4,8.6 4,8.7 3.9,8.7 4,8.7 4,8.7 3.9,8.7 4,8.7 4,8.8 3.9,8.7 4,8.7 4,8.7 3.9,8.7 4,8.6 4,8.7 3.9,8.7 4,8.6 4,8.7 3.9,8.6 4,8.6 4,8.5 3.9,8.6 4,8.5 4,8.5 3.9,8.4 4,8.5 4,8.4 3.9,8.3 4,8.4 4,8.2 3.9,8.3 4,8.2 4,8.1 3.9,8.2 4,8 4,8 3.9,8 4,7.9 4,7.8 3.9,7.8 4,7.7 4,7.7 3.9,7.5 4,7.6 4,7.4 3.9,7.4 4,7.3 4,7.3 3.9,7.1 4,7.1 4,7 3.9,6.9 4,6.8 4,6.8 3.9,6.7 4,6.5 4,6.5 3.9,6.4 4,6.3 4,6.2 3.9,6.1 4,6 4,5.8 3.9,5.8 4,5.7 4,5.6 3.9,5.5 4,5.3 4,5.3 3.9,5.1 4,5 4,4.9 3.9,4.8 4,4.7 4,4.5 3.9,4.5 4,4.3 4,4.1 3.9,4.1 4,3.9 4,3.8 3.9,3.7 4,3.6 4,3.4 3.9,3.3 4,3.1 4,3 3.9,2.9 4,2.8 4,2.6 3.9,2.4 4,2.4 4,2.2 3.9,2 4,2 4,1.7 3.9,1.7 4,1.5 4,1.3 3.9,1.3 4,1 4,1 3.9,0.7 4,0.7 4,0.5 3.9,0.4 4,0.2 h 4 3.9 l 4,-0.2 4,-0.4 3.9,-0.5 4,-0.7 4,-0.7 3.9,-1 4,-1 4,-1.3 3.9,-1.3 4,-1.5 4,-1.7 3.9,-1.7 4,-2 4,-2 3.9,-2.2 4,-2.4 4,-2.4 3.9,-2.6 4,-2.8 4,-2.9 3.9,-3 4,-3.1 4,-3.3 3.9,-3.4 4,-3.6 4,-3.7 3.9,-3.8 4,-3.9 4,-4.1 3.9,-4.1 4,-4.3 4,-4.5 3.9,-4.5 4,-4.7 4,-4.8 3.9,-4.9 4,-5 4,-5.1 3.9,-5.3 4,-5.3 4,-5.5 3.9,-5.6 4,-5.7 4,-5.8 3.9,-5.8 4,-6 4,-6.1 3.9,-6.2 4,-6.3 4,-6.4 3.9,-6.5 4,-6.5 4,-6.7 3.9,-6.8 4,-6.8 4,-6.9 3.9,-7 4,-7.1 4,-7.1 3.9,-7.3 4,-7.3 4,-7.4 3.9,-7.4 4,-7.6 4,-7.5 3.9,-7.7 4,-7.7 4,-7.8 3.9,-7.8 4,-7.9 4,-8 3.9,-8 4,-8 4,-8.2 3.9,-8.1 4,-8.2 4,-8.3 3.9,-8.2 4,-8.4 4,-8.3 3.9,-8.4 4,-8.5 4,-8.4 3.9,-8.5 4,-8.5 4,-8.6 3.9,-8.5 4,-8.6 4,-8.6 3.9,-8.7 4,-8.6 4,-8.7 3.9,-8.7 4,-8.6 4,-8.7 3.9,-8.7 4,-8.7 4,-8.7 3.9,-8.8 4,-8.7 4,-8.7 3.9,-8.7 4,-8.7 4,-8.7 3.9,-8.7 4,-8.6 4,-8.7 3.9,-8.6 4,-8.7 4,-8.6 3.9,-8.6 4,-8.6 4,-8.5 3.9,-8.6 4,-8.5 4,-8.5 3.9,-8.4 4,-8.5 4,-8.4 3.9,-8.4 4,-8.3 4,-8.3 3.9,-8.3 4,-8.2 4,-8.2 3.9,-8.2 4,-8.1 4,-8.1 3.9,-8 4,-8 4,-8 3.9,-7.9 4,-7.9 4,-7.8 3.9,-7.7 4,-7.8 4,-7.6 3.9,-7.7 4,-7.5 4,-7.6 3.9,-7.4 4,-7.4 4,-7.4 3.9,-7.3 4,-7.3 4,-7.1 3.9,-7.2 4,-7.1 4,-7 3.9,-7 4,-6.9 4,-6.8 3.9,-6.8 4,-6.7 4,-6.7 3.9,-6.6 4,-6.5 4,-6.5 3.9,-6.4 4,-6.4 4,-6.3 3.9,-6.2 4,-6.2 4,-6.1 3.9,-6 4,-6 4,-5.9 3.9,-5.9 4,-5.8 4,-5.7 3.9,-5.7 4,-5.6 4,-5.5 3.9,-5.5 4,-5.4 4,-5.3 3.9,-5.3 4,-5.2 4,-5.1 3.9,-5.1 4,-5 4,-5 3.9,-4.9 4,-4.8 4,-4.8 3.9,-4.7 4,-4.6 4,-4.6 3.9,-4.5 4,-4.5 4,-4.4 3.9,-4.3 4,-4.3 4,-4.2 3.9,-4.2 4,-4.1 4,-4 3.9,-4 4,-3.9 V 3561.4 H 2327"
             style="fill:none;stroke:#0000ff;stroke-width:7.5;stroke-linecap:round;stroke-linejoin:round;stroke-miterlimit:10;stroke-dasharray:none;stroke-opacity:1"
             id="path1015" /><path
             d="m 1533.7,3561.9 4,0.1 h 15.8 l 4,0.1 h 4 3.9 4 l 4,0.1 h 3.9 4 l 4,0.1 h 3.9 4 l 4,0.1 h 3.9 4 l 4,0.1 h 3.9 4 l 4,0.1 h 3.9 l 4,0.1 h 4 l 3.9,0.1 h 4 l 4,0.1 h 3.9 l 4,0.1 h 4 l 3.9,0.1 4,0.1 h 4 l 3.9,0.1 4,0.1 h 4 l 3.9,0.1 4,0.1 4,0.1 h 3.9 l 4,0.1 4,0.1 3.9,0.1 4,0.1 4,0.1 3.9,0.1 4,0.1 4,0.1 3.9,0.1 4,0.1 4,0.1 3.9,0.1 4,0.2 4,0.1 3.9,0.1 4,0.2 4,0.1 3.9,0.1 4,0.2 4,0.1 3.9,0.2 4,0.2 4,0.1 3.9,0.2 4,0.2 4,0.2 3.9,0.2 4,0.1 4,0.3 3.9,0.2 4,0.2 4,0.2 3.9,0.2 4,0.3 4,0.2 3.9,0.2 4,0.3 4,0.3 3.9,0.2 4,0.3 4,0.3 3.9,0.3 4,0.3 4,0.3 3.9,0.3 4,0.4 4,0.3 3.9,0.3 4,0.4 4,0.4 3.9,0.4 4,0.3 4,0.5 3.9,0.4 4,0.4 4,0.4 3.9,0.5 4,0.4 4,0.5 3.9,0.5 4,0.5 4,0.5 3.9,0.5 4,0.6 4,0.5 3.9,0.6 4,0.6 4,0.6 3.9,0.6 4,0.6 4,0.7 3.9,0.6 4,0.7 4,0.7 3.9,0.7 4,0.7 4,0.8 3.9,0.8 4,0.7 4,0.9 3.9,0.8 4,0.8 4,0.9 3.9,0.9 4,0.9 4,0.9 3.9,1 4,1 4,1 3.9,1 4,1 4,1.1 3.9,1.1 4,1.1 4,1.2 3.9,1.2 4,1.2 4,1.2 3.9,1.2 4,1.3 4,1.3 3.9,1.4 4,1.4 4,1.4 3.9,1.4 4,1.5 4,1.5 3.9,1.5 4,1.6 4,1.5 3.9,1.7 4,1.6 4,1.7 3.9,1.8 4,1.7 4,1.8 3.9,1.9 4,1.9 4,1.9 3.9,1.9 4,2 4,2 3.9,2.1 4,2.1 4,2.2 3.9,2.2 4,2.2 4,2.3 3.9,2.3 4,2.4 4,2.4 3.9,2.5 4,2.5 4,2.5 3.9,2.6 4,2.6 4,2.7 3.9,2.8 4,2.8 4,2.8 3.9,2.9 4,2.9 4,3 3.9,3 4,3.1 4,3.2 3.9,3.1 4,3.3 4,3.3 3.9,3.3 4,3.4 4,3.5 3.9,3.5 4,3.6 4,3.6 3.9,3.7 4,3.8 4,3.8 3.9,3.8 4,3.9 4,4 3.9,4 4,4.1 4,4.2 3.9,4.2 4,4.3 4,4.3 3.9,4.4 4,4.5 4,4.5 3.9,4.6 4,4.6 4,4.7 3.9,4.8 4,4.8 4,4.9 3.9,5 4,5 4,5.1 3.9,5.1 4,5.2 4,5.3 3.9,5.3 4,5.4 4,5.5 3.9,5.5 4,5.6 4,5.7 3.9,5.7 4,5.8 4,5.9 3.9,5.9 4,6 4,6 3.9,6.1 4,6.2 4,6.2 3.9,6.3 4,6.4 4,6.4 3.9,6.5 4,6.5 4,6.6 3.9,6.7 4,6.7 4,6.8 3.9,6.8 4,6.9 4,7 3.9,7 4,7.1 4,7.2 3.9,7.1 4,7.3 4,7.3 3.9,7.4 4,7.4 4,7.4 3.9,7.6 4,7.5 4,7.7 3.9,7.6 4,7.8 4,7.7 3.9,7.8 4,7.9 4,7.9 3.9,8 4,8 4,8 3.9,8.1 4,8.1 4,8.2 3.9,8.2 4,8.2 4,8.3 3.9,8.3 4,8.3 4,8.4 3.9,8.4 4,8.5 4,8.4 3.9,8.5 4,8.5 4,8.6 3.9,8.5 4,8.6 4,8.6 3.9,8.6 4,8.7 4,8.6 3.9,8.7 4,8.6 4,8.7 3.9,8.7 4,8.7 4,8.7 3.9,8.7 4,8.7 4,8.8 3.9,8.7 4,8.7 4,8.7 3.9,8.7 4,8.6 4,8.7 3.9,8.7 4,8.6 4,8.7 3.9,8.6 4,8.6 4,8.5 3.9,8.6 4,8.5 4,8.5 3.9,8.4 4,8.5 4,8.4 3.9,8.3 4,8.4 4,8.2 3.9,8.3 4,8.2 4,8.1 3.9,8.2 4,8 4,8 3.9,8 4,7.9 4,7.8 3.9,7.8 4,7.7 4,7.7 3.9,7.5 4,7.6 4,7.4 3.9,7.4 4,7.3 4,7.3 3.9,7.1 4,7.1 4,7 3.9,6.9 4,6.8 4,6.8 3.9,6.7 4,6.5 4,6.5 3.9,6.4 4,6.3 4,6.2 3.9,6.1 4,6 4,5.8 3.9,5.8 4,5.7 4,5.6 3.9,5.5 4,5.3 4,5.3 3.9,5.1 4,5 4,4.9 3.9,4.8 4,4.7 4,4.5 3.9,4.5 4,4.3 4,4.1 3.9,4.1 4,3.9 4,3.8 3.9,3.7 4,3.6 4,3.4 3.9,3.3 4,3.1 4,3 3.9,2.9 4,2.8 4,2.6 3.9,2.4 4,2.4 4,2.2 3.9,2 4,2 4,1.7 3.9,1.7 4,1.5 4,1.3 3.9,1.3 4,1 4,1 3.9,0.7 4,0.7 4,0.5 3.9,0.4 4,0.2 h 4 3.9 l 4,-0.2 4,-0.4 3.9,-0.5 4,-0.7 4,-0.7 3.9,-1 4,-1 4,-1.3 3.9,-1.3 4,-1.5 4,-1.7 3.9,-1.7 4,-2 4,-2 3.9,-2.2 4,-2.4 4,-2.4 3.9,-2.6 4,-2.8 4,-2.9 3.9,-3 4,-3.1 4,-3.3 3.9,-3.4 4,-3.6 4,-3.7 3.9,-3.8 4,-3.9 4,-4.1 3.9,-4.1 4,-4.3 4,-4.5 3.9,-4.5 4,-4.7 4,-4.8 3.9,-4.9 4,-5 4,-5.1 3.9,-5.3 4,-5.3 4,-5.5 3.9,-5.6 4,-5.7 4,-5.8 3.9,-5.8 4,-6 4,-6.1 3.9,-6.2 4,-6.3 4,-6.4 3.9,-6.5 4,-6.5 4,-6.7 3.9,-6.8 4,-6.8 4,-6.9 3.9,-7 4,-7.1 4,-7.1 3.9,-7.3 4,-7.3 4,-7.4 3.9,-7.4 4,-7.6 4,-7.5 3.9,-7.7 4,-7.7 4,-7.8 3.9,-7.8 4,-7.9 4,-8 3.9,-8 4,-8 4,-8.2 3.9,-8.1 4,-8.2 4,-8.3 3.9,-8.2 4,-8.4 4,-8.3 3.9,-8.4 4,-8.5 4,-8.4 3.9,-8.5 4,-8.5 4,-8.6 3.9,-8.5 4,-8.6 4,-8.6 3.9,-8.7 4,-8.6 4,-8.7 3.9,-8.7 4,-8.6 4,-8.7 3.9,-8.7 4,-8.7 4,-8.7 3.9,-8.8 4,-8.7 4,-8.7 3.9,-8.7 4,-8.7 4,-8.7 3.9,-8.7 4,-8.6 4,-8.7 3.9,-8.6 4,-8.7 4,-8.6 3.9,-8.6 4,-8.6 4,-8.5 3.9,-8.6 4,-8.5 4,-8.5 3.9,-8.4 4,-8.5 4,-8.4 3.9,-8.4 4,-8.3 4,-8.3 3.9,-8.3 4,-8.2 4,-8.2 3.9,-8.2 4,-8.1 4,-8.1 3.9,-8 4,-8 4,-8 3.9,-7.9 4,-7.9 4,-7.8 3.9,-7.7 4,-7.8 4,-7.6 3.9,-7.7 4,-7.5 4,-7.6 3.9,-7.4 4,-7.4 4,-7.4 3.9,-7.3 4,-7.3 4,-7.1 3.9,-7.2 4,-7.1 4,-7 3.9,-7 4,-6.9 4,-6.8 3.9,-6.8 4,-6.7 4,-6.7 3.9,-6.6 4,-6.5 4,-6.5 3.9,-6.4 4,-6.4 4,-6.3 3.9,-6.2 4,-6.2 4,-6.1 3.9,-6 4,-6 4,-5.9 3.9,-5.9 4,-5.8 4,-5.7 3.9,-5.7 4,-5.6 4,-5.5 3.9,-5.5 4,-5.4 4,-5.3 3.9,-5.3 4,-5.2 4,-5.1 3.9,-5.1 4,-5 4,-5 3.9,-4.9 4,-4.8 4,-4.8 3.9,-4.7 4,-4.6 4,-4.6 3.9,-4.5 4,-4.5 4,-4.4 3.9,-4.3 4,-4.3 4,-4.2 3.9,-4.2 4,-4.1 4,-4 3.9,-4 4,-3.9 4,-3.8 3.9,-3.8 4,-3.8 4,-3.7 3.9,-3.6 4,-3.6 4,-3.5 3.9,-3.5 4,-3.4 4,-3.3 3.9,-3.3 4,-3.3 4,-3.1 3.9,-3.2 4,-3.1 4,-3 3.9,-3 4,-2.9 4,-2.9 3.9,-2.8 4,-2.8 4,-2.8 3.9,-2.7 4,-2.6 4,-2.6 3.9,-2.5 4,-2.5 4,-2.5 3.9,-2.4 4,-2.4 4,-2.3 3.9,-2.3 4,-2.2 4,-2.2 3.9,-2.2 4,-2.1 4,-2.1 3.9,-2 4,-2 4,-1.9 3.9,-1.9 4,-1.9 4,-1.9 3.9,-1.8 4,-1.7 4,-1.8 3.9,-1.7 4,-1.6 4,-1.7 3.9,-1.5 4,-1.6 4,-1.5 3.9,-1.5 4,-1.5 4,-1.4 3.9,-1.4 4,-1.4 4,-1.4 3.9,-1.3 4,-1.3 4,-1.2 3.9,-1.2 4,-1.2 4,-1.2 3.9,-1.2 4,-1.1 4,-1.1 3.9,-1.1 4,-1 4,-1 3.9,-1 4,-1 4,-1 3.9,-0.9 4,-0.9 4,-0.9 3.9,-0.9 4,-0.8 4,-0.8 3.9,-0.9 4,-0.7 4,-0.8 3.9,-0.8 4,-0.7 4,-0.7 3.9,-0.7 4,-0.7 4,-0.6 3.9,-0.7 4,-0.6 4,-0.6 3.9,-0.6 4,-0.6 4,-0.6 3.9,-0.5 4,-0.6 4,-0.5 3.9,-0.5 4,-0.5 4,-0.5 3.9,-0.5 4,-0.4 4,-0.5 3.9,-0.4 4,-0.4 4,-0.4 3.9,-0.5 4,-0.3 4,-0.4 3.9,-0.4 4,-0.4 4,-0.3 3.9,-0.3 4,-0.4 4,-0.3 3.9,-0.3 4,-0.3 4,-0.3 3.9,-0.3 4,-0.3 4,-0.2 3.9,-0.3 4,-0.3 4,-0.2 3.9,-0.2 4,-0.3 4,-0.2 3.9,-0.2 4,-0.2 4,-0.2 3.9,-0.3 4,-0.1 4,-0.2 3.9,-0.2 4,-0.2 4,-0.2 3.9,-0.1 4,-0.2 4,-0.2 3.9,-0.1 4,-0.2 4,-0.1 3.9,-0.1 4,-0.2 4,-0.1 3.9,-0.1 4,-0.2 4,-0.1 3.9,-0.1 4,-0.1 4,-0.1 3.9,-0.1 4,-0.1 4,-0.1 3.9,-0.1 4,-0.1 4,-0.1 3.9,-0.1 4,-0.1 h 4 l 3.9,-0.1 4,-0.1 4,-0.1 h 3.9 l 4,-0.1 4,-0.1 h 3.9 l 4,-0.1 4,-0.1 h 3.9 l 4,-0.1 h 4 l 3.9,-0.1 h 4 l 4,-0.1 h 3.9 l 4,-0.1 h 4 l 3.9,-0.1 h 4 4 l 3.9,-0.1 h 4 4 l 3.9,-0.1 h 4 4 l 3.9,-0.1 h 4 4 l 3.9,-0.1 h 4 4 3.9 l 4,-0.1 h 4 3.9 4 4 l 3.9,-0.1"
             style="fill:none;stroke:#000000;stroke-width:15;stroke-linecap:round;stroke-linejoin:round;stroke-miterlimit:10;stroke-dasharray:none;stroke-opacity:1"
             id="path1017" /></g></g><g
         transform="scale(0.1)"
         id="g1019"><g
           id="g1021"
           clip-path="url(#clipPath1025)"><path
             d="M 1533.7,3503.8 H 4707"
             style="fill:none;stroke:#000000;stroke-width:7.5;stroke-linecap:round;stroke-linejoin:round;stroke-miterlimit:10;stroke-dasharray:none;stroke-opacity:1"
             id="path1027" /><path
             d="m 1533.7,3503.8 v -72"
             style="fill:none;stroke:#000000;stroke-width:7.5;stroke-linecap:round;stroke-linejoin:round;stroke-miterlimit:10;stroke-dasharray:none;stroke-opacity:1"
             id="path1029" /><path
             d="m 1930.4,3503.8 v -72"
             style="fill:none;stroke:#000000;stroke-width:7.5;stroke-linecap:round;stroke-linejoin:round;stroke-miterlimit:10;stroke-dasharray:none;stroke-opacity:1"
             id="path1031" /><path
             d="m 2327,3503.8 v -72"
             style="fill:none;stroke:#000000;stroke-width:7.5;stroke-linecap:round;stroke-linejoin:round;stroke-miterlimit:10;stroke-dasharray:none;stroke-opacity:1"
             id="path1033" /><path
             d="m 2723.7,3503.8 v -72"
             style="fill:none;stroke:#000000;stroke-width:7.5;stroke-linecap:round;stroke-linejoin:round;stroke-miterlimit:10;stroke-dasharray:none;stroke-opacity:1"
             id="path1035" /><path
             d="m 3120.4,3503.8 v -72"
             style="fill:none;stroke:#000000;stroke-width:7.5;stroke-linecap:round;stroke-linejoin:round;stroke-miterlimit:10;stroke-dasharray:none;stroke-opacity:1"
             id="path1037" /><path
             d="m 3517,3503.8 v -72"
             style="fill:none;stroke:#000000;stroke-width:7.5;stroke-linecap:round;stroke-linejoin:round;stroke-miterlimit:10;stroke-dasharray:none;stroke-opacity:1"
             id="path1039" /><path
             d="m 3913.7,3503.8 v -72"
             style="fill:none;stroke:#000000;stroke-width:7.5;stroke-linecap:round;stroke-linejoin:round;stroke-miterlimit:10;stroke-dasharray:none;stroke-opacity:1"
             id="path1041" /><path
             d="m 4310.4,3503.8 v -72"
             style="fill:none;stroke:#000000;stroke-width:7.5;stroke-linecap:round;stroke-linejoin:round;stroke-miterlimit:10;stroke-dasharray:none;stroke-opacity:1"
             id="path1043" /><path
             d="m 4707,3503.8 v -72"
             style="fill:none;stroke:#000000;stroke-width:7.5;stroke-linecap:round;stroke-linejoin:round;stroke-miterlimit:10;stroke-dasharray:none;stroke-opacity:1"
             id="path1045" /><g
             id="g1047"
             transform="scale(10)"><text
               transform="matrix(1,0,0,-1,144.25,324.46)"
               style="font-variant:normal;font-weight:normal;font-size:16px;font-family:Helvetica;-inkscape-font-specification:Helvetica;writing-mode:lr-tb;fill:#000000;fill-opacity:1;fill-rule:nonzero;stroke:none"
               id="text1051"><tspan
                 x="0 9.3439999 39.669922 49.01392 79.330078 88.67408 119 128.34399 163.34177 203.0016 242.67184 282.34177 322.00159"
                 y="0"
                 id="tspan1049">−4−3−2−101234</tspan></text><text
               transform="matrix(1,0,0,-1,218.8285,528.6)"
               style="font-variant:normal;font-weight:normal;font-size:19px;font-family:Helvetica;-inkscape-font-specification:Helvetica;writing-mode:lr-tb;fill:#000000;fill-opacity:1;fill-rule:nonzero;stroke:none"
               id="text1055"><tspan
                 x="0 12.673 23.237 33.800999 44.365002 54.929001 65.492996 70.775002 83.447998 89.775002 100.339 110.903 116.185 127.281 132.563 143.127 153.69099 158.97301 169.537"
                 y="0"
                 id="tspan1053">Shaded Area = 95.4%</tspan></text></g></g></g></g></g></svg>
