<?xml version="1.0" encoding="UTF-8" standalone="no"?>
<svg
   xmlns:dc="http://purl.org/dc/elements/1.1/"
   xmlns:cc="http://creativecommons.org/ns#"
   xmlns:rdf="http://www.w3.org/1999/02/22-rdf-syntax-ns#"
   xmlns:svg="http://www.w3.org/2000/svg"
   xmlns="http://www.w3.org/2000/svg"
   id="svg191"
   version="1.2"
   viewBox="0 0 322.19921 74.105468"
   height="74.105469pt"
   width="322.19922pt">
  <metadata
     id="metadata197">
    <rdf:RDF>
      <cc:Work
         rdf:about="">
        <dc:format>image/svg+xml</dc:format>
        <dc:type
           rdf:resource="http://purl.org/dc/dcmitype/StillImage" />
      </cc:Work>
    </rdf:RDF>
  </metadata>
  <defs
     id="defs195" />
  <g
     transform="translate(-11.957031,-12.59375)"
     id="surface1">
    <path
       id="path2"
       d="M 11.957031,25.113281 H 334.15625 v -0.75 H 11.957031 Z m 0,0"
       style="fill:#303030;fill-opacity:1;fill-rule:nonzero;stroke:none" />
    <path
       id="path4"
       d="M 11.957031,43.140625 H 66.785156 V 42.386719 H 11.957031 Z m 0,0"
       style="fill:#303030;fill-opacity:1;fill-rule:nonzero;stroke:none" />
    <path
       id="path6"
       d="M 66.785156,43.140625 H 150.90234 V 42.386719 H 66.785156 Z m 0,0"
       style="fill:#303030;fill-opacity:1;fill-rule:nonzero;stroke:none" />
    <path
       id="path8"
       d="m 150.90234,43.140625 h 24.03125 v -0.753906 h -24.03125 z m 0,0"
       style="fill:#303030;fill-opacity:1;fill-rule:nonzero;stroke:none" />
    <path
       id="path10"
       d="m 174.93359,43.140625 h 71.35157 v -0.753906 h -71.35157 z m 0,0"
       style="fill:#303030;fill-opacity:1;fill-rule:nonzero;stroke:none" />
    <path
       id="path12"
       d="m 246.28516,43.140625 h 36.80078 v -0.753906 h -36.80078 z m 0,0"
       style="fill:#303030;fill-opacity:1;fill-rule:nonzero;stroke:none" />
    <path
       id="path14"
       d="m 283.08594,43.140625 h 51.07031 v -0.753906 h -51.07031 z m 0,0"
       style="fill:#303030;fill-opacity:1;fill-rule:nonzero;stroke:none" />
    <path
       id="path16"
       d="m 11.957031,86.699219 h 47.316407 v -1.5 H 11.957031 Z m 0,0"
       style="fill:#303030;fill-opacity:1;fill-rule:nonzero;stroke:none" />
    <path
       id="path18"
       d="m 59.273438,86.699219 h 7.511718 v -1.5 h -7.511718 z m 0,0"
       style="fill:#303030;fill-opacity:1;fill-rule:nonzero;stroke:none" />
    <path
       id="path20"
       d="M 66.785156,86.699219 H 132.125 v -1.5 H 66.785156 Z m 0,0"
       style="fill:#303030;fill-opacity:1;fill-rule:nonzero;stroke:none" />
    <path
       id="path22"
       d="m 132.125,86.699219 h 18.77734 v -1.5 H 132.125 Z m 0,0"
       style="fill:#303030;fill-opacity:1;fill-rule:nonzero;stroke:none" />
    <path
       id="path24"
       d="m 150.90234,86.699219 h 16.52344 v -1.5 h -16.52344 z m 0,0"
       style="fill:#303030;fill-opacity:1;fill-rule:nonzero;stroke:none" />
    <path
       id="path26"
       d="m 167.42578,86.699219 h 7.50781 v -1.5 h -7.50781 z m 0,0"
       style="fill:#303030;fill-opacity:1;fill-rule:nonzero;stroke:none" />
    <path
       id="path28"
       d="m 174.93359,86.699219 h 54.82813 v -1.5 h -54.82813 z m 0,0"
       style="fill:#303030;fill-opacity:1;fill-rule:nonzero;stroke:none" />
    <path
       id="path30"
       d="m 229.76172,86.699219 h 16.52344 v -1.5 h -16.52344 z m 0,0"
       style="fill:#303030;fill-opacity:1;fill-rule:nonzero;stroke:none" />
    <path
       id="path32"
       d="m 246.28516,86.699219 h 29.28906 v -1.5 h -29.28906 z m 0,0"
       style="fill:#303030;fill-opacity:1;fill-rule:nonzero;stroke:none" />
    <path
       id="path34"
       d="m 275.57422,86.699219 h 7.51172 v -1.5 h -7.51172 z m 0,0"
       style="fill:#303030;fill-opacity:1;fill-rule:nonzero;stroke:none" />
    <path
       id="path36"
       d="m 283.08594,86.699219 h 43.55859 v -1.5 h -43.55859 z m 0,0"
       style="fill:#303030;fill-opacity:1;fill-rule:nonzero;stroke:none" />
    <path
       id="path38"
       d="m 326.64453,86.699219 h 7.51172 v -1.5 h -7.51172 z m 0,0"
       style="fill:#303030;fill-opacity:1;fill-rule:nonzero;stroke:none" />
    <path
       id="path40"
       d="m 16.804688,19.105469 h 1.4375 l -2.203126,-6.347657 h -1.566406 l -2.203125,6.347657 h 1.335938 l 0.488281,-1.539063 h 2.230469 c 0,0 0.02344,0.07813 0.07422,0.234375 0.04687,0.152344 0.101562,0.332031 0.164062,0.535157 0.06641,0.203124 0.121094,0.382812 0.167969,0.535156 0.05078,0.15625 0.07422,0.234375 0.07422,0.234375 z m -1.628907,-5.054688 h 0.07813 l 0.789063,2.519531 h -1.664063 c 0,0 0.02734,-0.08203 0.08203,-0.253906 0.05469,-0.171875 0.121093,-0.378906 0.199218,-0.632812 0.07813,-0.25 0.160156,-0.5 0.234375,-0.75 0.07813,-0.25 0.144531,-0.457032 0.199219,-0.628906 0.05469,-0.167969 0.08203,-0.253907 0.08203,-0.253907 z m 0,0"
       style="fill:#303030;fill-opacity:1;fill-rule:nonzero;stroke:none" />
    <path
       id="path42"
       d="m 20.597656,19.105469 v -4.0625 h 0.07813 l 2.925781,4.0625 h 1.105469 V 12.757812 H 23.4375 v 4.042969 H 23.35547 L 20.433595,12.757812 H 19.32422 v 6.347657 c 0,0 0.06641,0 0.195312,0 0.128907,0 0.277344,0 0.445313,0 0.164062,0 0.3125,0 0.441406,0 0.128906,0 0.191406,0 0.191406,0 z m 0,0"
       style="fill:#303030;fill-opacity:1;fill-rule:nonzero;stroke:none" />
    <path
       id="path44"
       d="m 29.023438,12.59375 c -0.933594,0 -1.675782,0.296875 -2.226563,0.894531 -0.554687,0.597657 -0.832031,1.410157 -0.832031,2.441407 0,1.027343 0.277344,1.84375 0.824218,2.441406 0.546876,0.597656 1.292969,0.898437 2.234376,0.898437 0.941406,0 1.683593,-0.300781 2.230468,-0.898437 0.546875,-0.597656 0.820313,-1.414063 0.820313,-2.441406 0,-1.027344 -0.273438,-1.839844 -0.820313,-2.4375 -0.546875,-0.601563 -1.289062,-0.898438 -2.230468,-0.898438 z m 0,1.125 c 0.515624,0 0.929687,0.199219 1.234374,0.597656 0.304688,0.402344 0.457032,0.9375 0.457032,1.613282 0,0.671874 -0.152344,1.207031 -0.457032,1.609374 -0.304687,0.402344 -0.71875,0.601563 -1.234374,0.601563 -0.519532,0 -0.933594,-0.199219 -1.238282,-0.601563 -0.308594,-0.402343 -0.460937,-0.9375 -0.460937,-1.609374 0,-0.675782 0.15625,-1.210938 0.464843,-1.613282 0.3125,-0.398437 0.722657,-0.597656 1.234376,-0.597656 z m 0,0"
       style="fill:#303030;fill-opacity:1;fill-rule:nonzero;stroke:none" />
    <path
       id="path46"
       d="M 36.632812,19.105469 38.75,12.757812 h -1.433594 l -1.414062,4.894532 h -0.07813 l -1.445313,-4.894532 h -1.5 l 2.148438,6.347657 c 0,0 0.08203,0 0.242187,0 0.164063,0 0.351563,0 0.5625,0 0.210938,0 0.398438,0 0.558594,0 0.160156,0 0.242187,0 0.242187,0 z m 0,0"
       style="fill:#303030;fill-opacity:1;fill-rule:nonzero;stroke:none" />
    <path
       id="path48"
       d="m 43.910156,19.105469 h 1.441406 l -2.207031,-6.347657 h -1.566406 l -2.199219,6.347657 h 1.332032 l 0.488281,-1.539063 h 2.234375 c 0,0 0.02344,0.07813 0.07031,0.234375 0.05078,0.152344 0.105469,0.332031 0.167969,0.535157 0.0625,0.203124 0.117187,0.382812 0.167969,0.535156 0.04687,0.15625 0.07031,0.234375 0.07031,0.234375 z m -1.625,-5.054688 h 0.07813 l 0.789063,2.519531 h -1.664063 c 0,0 0.02734,-0.08203 0.08203,-0.253906 0.05078,-0.171875 0.121094,-0.378906 0.199219,-0.632812 0.07813,-0.25 0.15625,-0.5 0.234375,-0.75 0.07813,-0.25 0.144532,-0.457032 0.199219,-0.628906 0.05469,-0.167969 0.08203,-0.253907 0.08203,-0.253907 z m 0,0"
       style="fill:#303030;fill-opacity:1;fill-rule:nonzero;stroke:none" />
    <path
       id="path50"
       d="m 73.636719,35.375 c 0.02344,0.585938 0.265625,1.054688 0.722656,1.398438 0.457031,0.347656 1.0625,0.519531 1.820313,0.519531 0.796874,0 1.425781,-0.183594 1.886718,-0.550781 0.457032,-0.363282 0.6875,-0.863282 0.6875,-1.5 0,-0.492188 -0.144531,-0.882813 -0.433594,-1.167969 -0.292968,-0.285157 -0.753906,-0.496094 -1.390624,-0.636719 l -0.765626,-0.160156 c -0.371093,-0.08203 -0.636718,-0.1875 -0.800781,-0.308594 -0.164062,-0.125 -0.246093,-0.285156 -0.246093,-0.484375 0,-0.25 0.09766,-0.449219 0.300781,-0.597656 0.203125,-0.148438 0.46875,-0.222657 0.800781,-0.222657 0.324219,0 0.589844,0.07813 0.804688,0.234376 0.210937,0.15625 0.332031,0.363281 0.363281,0.621093 h 1.253906 c -0.01953,-0.558593 -0.253906,-1.015625 -0.703125,-1.371093 -0.453125,-0.351563 -1.027344,-0.53125 -1.726562,-0.53125 -0.734376,0 -1.320313,0.179687 -1.765626,0.539062 -0.441406,0.359375 -0.664062,0.839844 -0.664062,1.433594 0,0.480468 0.144531,0.871094 0.425781,1.167968 0.285157,0.296876 0.71875,0.511719 1.300781,0.636719 l 0.828126,0.179688 c 0.386718,0.08594 0.664062,0.191406 0.835937,0.324219 0.167969,0.128906 0.253906,0.296874 0.253906,0.503906 0,0.246094 -0.109375,0.449218 -0.328125,0.605468 -0.21875,0.15625 -0.5,0.234376 -0.847656,0.234376 -0.375,0 -0.683594,-0.07813 -0.921875,-0.234376 -0.238281,-0.15625 -0.375,-0.367187 -0.40625,-0.632812 0,0 -0.06641,0 -0.195313,0 -0.128906,0 -0.277343,0 -0.445312,0 -0.171875,0 -0.320312,0 -0.449219,0 -0.128906,0 -0.195312,0 -0.195312,0 z m 0,0"
       style="fill:#303030;fill-opacity:1;fill-rule:nonzero;stroke:none" />
    <path
       id="path52"
       d="m 84.273438,32.285156 h -1.28125 v 2.800782 c 0,0.332031 -0.08203,0.59375 -0.25,0.785156 -0.167969,0.191406 -0.410157,0.289062 -0.730469,0.289062 -0.296875,0 -0.519531,-0.08984 -0.667969,-0.261718 C 81.191406,35.726562 81.117188,35.46875 81.117188,35.125 v -2.839844 h -1.28125 v 3.15625 c 0,0.5625 0.152343,1.003906 0.460937,1.320313 0.304687,0.316406 0.71875,0.476562 1.238281,0.476562 0.371094,0 0.671875,-0.07813 0.902344,-0.234375 0.230469,-0.152344 0.402344,-0.371094 0.515625,-0.652344 h 0.07813 v 0.78125 h 1.242188 c 0,0 0,-0.164062 0,-0.492187 0,-0.328125 0,-0.730469 0,-1.210937 0,-0.484376 0,-0.964844 0,-1.445313 0,-0.480469 0,-0.882813 0,-1.210937 0,-0.324219 0,-0.488282 0,-0.488282 z m 0,0"
       style="fill:#303030;fill-opacity:1;fill-rule:nonzero;stroke:none" />
    <path
       id="path54"
       d="m 85.558594,37.132812 h 1.28125 v -2.921874 c 0,-0.277344 0.07813,-0.507813 0.242187,-0.6875 C 87.242188,33.339844 87.449219,33.25 87.695312,33.25 c 0.25,0 0.445313,0.07031 0.589844,0.214844 0.140625,0.144531 0.210938,0.34375 0.210938,0.605468 v 3.0625 h 1.234375 V 34.15625 c 0,-0.265625 0.07813,-0.480469 0.234375,-0.652344 C 90.117188,33.335938 90.324219,33.25 90.582031,33.25 c 0.273438,0 0.472657,0.07422 0.609375,0.21875 0.132813,0.148438 0.203125,0.367188 0.203125,0.660156 v 3.003906 h 1.28125 v -3.328124 c 0,-0.503907 -0.144531,-0.898438 -0.425781,-1.1875 -0.28125,-0.292969 -0.664062,-0.4375 -1.148438,-0.4375 -0.335937,0 -0.636718,0.08203 -0.898437,0.246093 -0.261719,0.160157 -0.449219,0.378907 -0.5625,0.648438 H 89.5625 C 89.46484,32.796875 89.304688,32.578125 89.074219,32.417969 88.84375,32.257812 88.5625,32.179688 88.21875,32.179688 c -0.316406,0 -0.597656,0.08203 -0.835938,0.242187 -0.234374,0.160156 -0.40625,0.375 -0.503906,0.652344 h -0.07813 v -0.789063 h -1.242187 c 0,0 0,0.164063 0,0.488282 0,0.328124 0,0.730468 0,1.210937 0,0.480469 0,0.960937 0,1.445313 0,0.480468 0,0.882812 0,1.210937 0,0.328125 0,0.492187 0,0.492187 z m 0,0"
       style="fill:#303030;fill-opacity:1;fill-rule:nonzero;stroke:none" />
    <path
       id="path56"
       d="m 98.390625,37.238281 c 0.746094,0 1.328125,-0.226562 1.753905,-0.675781 0.42188,-0.449219 0.63672,-1.066406 0.63672,-1.855469 0,-0.785156 -0.21484,-1.40625 -0.64062,-1.851562 -0.429692,-0.449219 -1.011724,-0.675781 -1.750005,-0.675781 -0.738281,0 -1.324219,0.226562 -1.75,0.675781 -0.429687,0.449219 -0.644531,1.066406 -0.644531,1.851562 0,0.789063 0.214844,1.40625 0.636718,1.855469 0.425782,0.449219 1.011719,0.675781 1.757813,0.675781 z m 0,-1.019531 c -0.34375,0 -0.609375,-0.128906 -0.792969,-0.394531 -0.1875,-0.265625 -0.28125,-0.636719 -0.28125,-1.117188 0,-0.472656 0.09375,-0.84375 0.28125,-1.109375 0.1875,-0.265625 0.453125,-0.402344 0.792969,-0.402344 0.335937,0 0.601563,0.136719 0.789063,0.402344 0.1875,0.265625 0.28125,0.636719 0.28125,1.109375 0,0.476563 -0.09375,0.847657 -0.28125,1.113281 -0.1875,0.265626 -0.449219,0.398438 -0.789063,0.398438 z m 0,0"
       style="fill:#303030;fill-opacity:1;fill-rule:nonzero;stroke:none" />
    <path
       id="path58"
       d="m 102.19141,37.132812 h 1.28515 v -3.824218 h 1.00391 v -0.976563 h -1.03125 v -0.40625 c 0,-0.214843 0.0547,-0.375 0.15625,-0.476562 0.10547,-0.101563 0.28125,-0.152344 0.53125,-0.152344 0.082,0 0.15625,0 0.22266,0.0039 0.0664,0.0078 0.12109,0.01172 0.16015,0.01563 v -0.882812 c -0.0937,-0.01563 -0.19531,-0.02734 -0.30078,-0.03516 -0.10547,-0.0078 -0.22656,-0.01172 -0.35937,-0.01172 -0.58594,0 -1.01172,0.121093 -1.27344,0.363281 -0.26172,0.238281 -0.39453,0.601562 -0.39453,1.082031 v 0.5 h -0.78125 v 0.976563 h 0.78125 c 0,0 0,0.128906 0,0.386718 0,0.257813 0,0.574219 0,0.953126 0,0.378906 0,0.757812 0,1.136718 0,0.382813 0,0.699219 0,0.957032 0,0.261718 0,0.390624 0,0.390624 z m 0,0"
       style="fill:#303030;fill-opacity:1;fill-rule:nonzero;stroke:none" />
    <path
       id="path60"
       d="m 107.66797,35.375 c 0.0234,0.585938 0.26172,1.054688 0.72266,1.398438 0.45703,0.347656 1.0625,0.519531 1.82031,0.519531 0.79687,0 1.42578,-0.183594 1.88672,-0.550781 0.45703,-0.363282 0.6875,-0.863282 0.6875,-1.5 0,-0.492188 -0.14453,-0.882813 -0.4375,-1.167969 -0.28907,-0.285157 -0.75391,-0.496094 -1.39063,-0.636719 l -0.76562,-0.160156 c -0.36719,-0.08203 -0.63672,-0.1875 -0.80078,-0.308594 -0.16407,-0.125 -0.2461,-0.285156 -0.2461,-0.484375 0,-0.25 0.10156,-0.449219 0.30469,-0.597656 0.20312,-0.148438 0.46875,-0.222657 0.80078,-0.222657 0.32422,0 0.58984,0.07813 0.80469,0.234376 0.21094,0.15625 0.33203,0.363281 0.36328,0.621093 h 1.25391 c -0.0195,-0.558593 -0.25391,-1.015625 -0.70704,-1.371093 -0.44921,-0.351563 -1.02343,-0.53125 -1.72265,-0.53125 -0.73438,0 -1.32422,0.179687 -1.76563,0.539062 -0.4414,0.359375 -0.66406,0.839844 -0.66406,1.433594 0,0.480468 0.14063,0.871094 0.42578,1.167968 0.28516,0.296876 0.71875,0.511719 1.30078,0.636719 l 0.82422,0.179688 c 0.38672,0.08594 0.66797,0.191406 0.83594,0.324219 0.17187,0.128906 0.25781,0.296874 0.25781,0.503906 0,0.246094 -0.10937,0.449218 -0.32812,0.605468 -0.21875,0.15625 -0.5,0.234376 -0.84766,0.234376 -0.375,0 -0.68359,-0.07813 -0.92187,-0.234376 -0.23829,-0.15625 -0.375,-0.367187 -0.40625,-0.632812 0,0 -0.0664,0 -0.19532,0 -0.1289,0 -0.27734,0 -0.44922,0 -0.16796,0 -0.32031,0 -0.44921,0 -0.12891,0 -0.19141,0 -0.19141,0 z m 0,0"
       style="fill:#303030;fill-opacity:1;fill-rule:nonzero;stroke:none" />
    <path
       id="path62"
       d="m 115.65234,32.207031 c -0.60937,0 -1.08984,0.222657 -1.44921,0.671875 -0.35547,0.445313 -0.53516,1.054688 -0.53516,1.824219 0,0.773437 0.17578,1.382813 0.52344,1.832031 0.35156,0.445313 0.83203,0.671875 1.4414,0.671875 0.34375,0 0.63672,-0.07031 0.88672,-0.214843 0.2461,-0.140626 0.4375,-0.34375 0.57031,-0.601563 h 0.0781 v 2.347656 h 1.28516 v -6.453125 h -1.2461 v 0.796875 h -0.0781 C 117,32.8125 116.80469,32.597656 116.53906,32.441406 c -0.26172,-0.15625 -0.55468,-0.234375 -0.88672,-0.234375 z m 0.42579,3.964844 c -0.34375,0 -0.60938,-0.128906 -0.80079,-0.386719 -0.1914,-0.257812 -0.28906,-0.617187 -0.28906,-1.078125 0,-0.457031 0.0977,-0.8125 0.29297,-1.070312 0.19141,-0.261719 0.46094,-0.390625 0.80078,-0.390625 0.33985,0 0.60938,0.128906 0.80469,0.394531 0.19531,0.261719 0.29297,0.617187 0.29297,1.070313 0,0.453124 -0.0977,0.8125 -0.29297,1.070312 -0.19531,0.261719 -0.46875,0.390625 -0.80859,0.390625 z m 0,0"
       style="fill:#303030;fill-opacity:1;fill-rule:nonzero;stroke:none" />
    <path
       id="path64"
       d="m 124.12891,32.285156 h -1.28125 v 2.800782 c 0,0.332031 -0.082,0.59375 -0.25,0.785156 -0.16797,0.191406 -0.41016,0.289062 -0.73047,0.289062 -0.29688,0 -0.51953,-0.08984 -0.66797,-0.261718 -0.14844,-0.171876 -0.22656,-0.429688 -0.22656,-0.773438 v -2.839844 h -1.27735 v 3.15625 c 0,0.5625 0.15235,1.003906 0.45703,1.320313 0.30469,0.316406 0.71875,0.476562 1.24219,0.476562 0.36719,0 0.66797,-0.07813 0.89844,-0.234375 0.23047,-0.152344 0.40234,-0.371094 0.51562,-0.652344 h 0.082 v 0.78125 h 1.23828 c 0,0 0,-0.164062 0,-0.492187 0,-0.328125 0,-0.730469 0,-1.210937 0,-0.484376 0,-0.964844 0,-1.445313 0,-0.480469 0,-0.882813 0,-1.210937 0,-0.324219 0,-0.488282 0,-0.488282 z m 0,0"
       style="fill:#303030;fill-opacity:1;fill-rule:nonzero;stroke:none" />
    <path
       id="path66"
       d="m 127.16797,36.269531 c -0.22656,0 -0.40625,-0.05469 -0.54688,-0.160156 -0.14062,-0.109375 -0.21093,-0.253906 -0.21093,-0.4375 0,-0.363281 0.27343,-0.5625 0.8164,-0.601563 l 0.97656,-0.06641 v 0.367188 c 0,0.253906 -0.0977,0.464844 -0.29687,0.636718 -0.19531,0.175782 -0.44531,0.261719 -0.73828,0.261719 z m -0.42578,0.9375 c 0.3164,0 0.59765,-0.0625 0.84765,-0.191406 0.25,-0.125 0.4336,-0.300781 0.5586,-0.523437 h 0.0781 v 0.640624 h 1.2461 v -3.3125 c 0,-0.515624 -0.17579,-0.917968 -0.52344,-1.207031 -0.35156,-0.289062 -0.84375,-0.433593 -1.48828,-0.433593 -0.60547,0 -1.10156,0.128906 -1.48828,0.390624 -0.38282,0.257813 -0.59766,0.613282 -0.63672,1.058594 h 1.17969 c 0.0508,-0.148437 0.15234,-0.265625 0.30468,-0.34375 0.14844,-0.07813 0.33985,-0.117187 0.57032,-0.117187 0.54296,0 0.81249,0.21875 0.81249,0.652343 v 0.402344 l -1.16796,0.07031 c -1.25391,0.07031 -1.87891,0.554687 -1.87891,1.457031 0,0.441406 0.14844,0.796875 0.44531,1.058594 0.29297,0.265625 0.67578,0.398437 1.14063,0.398437 z m 0,0"
       style="fill:#303030;fill-opacity:1;fill-rule:nonzero;stroke:none" />
    <path
       id="path68"
       d="m 130.73047,37.132812 h 1.28125 v -2.710937 c 0,-0.339844 0.10937,-0.609375 0.32812,-0.808594 0.21875,-0.195312 0.5,-0.292969 0.85157,-0.292969 0.10546,0 0.21875,0.0078 0.34375,0.02344 0.125,0.01172 0.21484,0.03125 0.26171,0.05078 v -1.128906 c -0.0547,-0.01953 -0.1289,-0.03125 -0.22656,-0.04297 -0.0937,-0.01172 -0.1875,-0.01563 -0.27344,-0.01563 -0.30859,0 -0.57812,0.08203 -0.80468,0.242188 -0.23047,0.160156 -0.375,0.363281 -0.44141,0.605469 h -0.0781 v -0.769532 h -1.24219 c 0,0 0,0.164063 0,0.488282 0,0.328124 0,0.730468 0,1.210937 0,0.480469 0,0.960937 0,1.445313 0,0.480468 0,0.882812 0,1.210937 0,0.328125 0,0.492187 0,0.492187 z m 0,0"
       style="fill:#303030;fill-opacity:1;fill-rule:nonzero;stroke:none" />
    <path
       id="path70"
       d="m 136.75,33.140625 c 0.30078,0 0.53906,0.09375 0.71875,0.289063 0.18359,0.191406 0.27734,0.453124 0.28906,0.785156 h -2.0625 c 0.0234,-0.328125 0.12891,-0.585938 0.32422,-0.78125 0.19141,-0.195313 0.43359,-0.292969 0.73047,-0.292969 z m 1.03906,2.621094 c -0.0703,0.164062 -0.1914,0.292969 -0.35937,0.382812 -0.16797,0.08984 -0.37891,0.132813 -0.62891,0.132813 -0.33594,0 -0.60156,-0.109375 -0.80078,-0.324219 -0.19922,-0.214844 -0.30078,-0.507813 -0.30859,-0.875 v -0.06641 h 3.33203 v -0.382813 c 0,-0.765625 -0.20313,-1.367187 -0.60157,-1.800781 -0.40234,-0.429687 -0.96093,-0.648437 -1.67578,-0.648437 -0.72265,0 -1.29297,0.230468 -1.71093,0.6875 -0.41797,0.457031 -0.625,1.078124 -0.625,1.867187 0,0.785156 0.20703,1.398437 0.62109,1.839844 0.41797,0.441406 0.99219,0.664062 1.73437,0.664062 0.58985,0 1.08594,-0.132812 1.48047,-0.398437 0.39453,-0.265625 0.64063,-0.625 0.73438,-1.078125 0,0 -0.0586,0 -0.17969,0 -0.12109,0 -0.25781,0 -0.41406,0 -0.15625,0 -0.29688,0 -0.41797,0 -0.12109,0 -0.17969,0 -0.17969,0 z m 0,0"
       style="fill:#303030;fill-opacity:1;fill-rule:nonzero;stroke:none" />
    <path
       id="path72"
       d="m 139.95703,33.703125 c 0,0.371094 0.11719,0.667969 0.34766,0.894531 0.23047,0.226563 0.58203,0.394532 1.05468,0.5 l 0.87891,0.195313 c 0.21484,0.04687 0.36719,0.113281 0.46484,0.191406 0.0937,0.07813 0.14454,0.175781 0.14454,0.300781 0,0.160156 -0.0781,0.292969 -0.23438,0.390625 -0.15234,0.101563 -0.35547,0.148438 -0.60547,0.148438 -0.2539,0 -0.45703,-0.04687 -0.61328,-0.140625 -0.15234,-0.09375 -0.25391,-0.222656 -0.30469,-0.390625 h -1.2539 c 0.043,0.457031 0.2539,0.8125 0.625,1.066406 0.375,0.25 0.88281,0.378906 1.52343,0.378906 0.63672,0 1.15235,-0.148437 1.54688,-0.4375 0.39453,-0.289062 0.58984,-0.675781 0.58984,-1.152343 0,-0.359376 -0.10937,-0.644532 -0.32812,-0.855469 -0.22266,-0.210938 -0.56641,-0.367188 -1.03516,-0.46875 L 141.84766,34.125 c -0.22266,-0.05078 -0.39063,-0.113281 -0.4961,-0.195312 -0.10547,-0.08203 -0.16015,-0.183594 -0.16015,-0.304688 0,-0.160156 0.0742,-0.285156 0.22656,-0.382812 0.15234,-0.09766 0.33984,-0.144532 0.57031,-0.144532 0.23828,0 0.42578,0.04297 0.57031,0.136719 0.14453,0.09375 0.23438,0.21875 0.26563,0.375 h 1.18359 c -0.0352,-0.457031 -0.22656,-0.808594 -0.57812,-1.058594 -0.34766,-0.246093 -0.83203,-0.371093 -1.44922,-0.371093 -0.60547,0 -1.09375,0.140624 -1.46485,0.417968 -0.37109,0.28125 -0.55859,0.648438 -0.55859,1.105469 z m 0,0"
       style="fill:#303030;fill-opacity:1;fill-rule:nonzero;stroke:none" />
    <path
       id="path74"
       d="m 160.51562,37.207031 c 0.33594,0 0.63672,-0.07422 0.89454,-0.222656 0.26171,-0.148437 0.46093,-0.351563 0.58984,-0.613281 h 0.082 v 0.761718 h 1.23828 v -6.699218 h -1.27734 V 33.0625 h -0.082 c -0.125,-0.273438 -0.31641,-0.480469 -0.57032,-0.632812 -0.2539,-0.148438 -0.54296,-0.222657 -0.87109,-0.222657 -0.60937,0 -1.09375,0.222657 -1.44922,0.667969 -0.35547,0.445312 -0.53125,1.054688 -0.53125,1.828125 0,0.769531 0.17578,1.378906 0.53125,1.828125 0.35156,0.449219 0.83203,0.675781 1.44531,0.675781 z m 0.4375,-3.960937 c 0.33985,0 0.60938,0.128906 0.80469,0.394531 0.19922,0.261719 0.29688,0.617187 0.29688,1.070313 0,0.453124 -0.0977,0.8125 -0.29297,1.070312 -0.19531,0.261719 -0.46485,0.390625 -0.8086,0.390625 -0.34375,0 -0.60937,-0.128906 -0.80468,-0.390625 -0.19141,-0.257812 -0.28907,-0.617188 -0.28907,-1.074219 0,-0.453125 0.0977,-0.808593 0.29297,-1.070312 0.19532,-0.261719 0.46094,-0.390625 0.80078,-0.390625 z m 0,0"
       style="fill:#303030;fill-opacity:1;fill-rule:nonzero;stroke:none" />
    <path
       id="path76"
       d="m 165.01953,37.132812 h 1.28516 v -3.824218 h 1.0039 v -0.976563 h -1.03125 v -0.40625 c 0,-0.214843 0.0547,-0.375 0.15625,-0.476562 0.10547,-0.101563 0.28125,-0.152344 0.53125,-0.152344 0.082,0 0.15625,0 0.22266,0.0039 0.0664,0.0078 0.12109,0.01172 0.16016,0.01563 v -0.882812 c -0.0937,-0.01563 -0.19532,-0.02734 -0.30079,-0.03516 -0.10546,-0.0078 -0.22656,-0.01172 -0.35937,-0.01172 -0.58594,0 -1.01172,0.121093 -1.27344,0.363281 -0.26172,0.238281 -0.39453,0.601562 -0.39453,1.082031 v 0.5 h -0.78125 v 0.976563 h 0.78125 c 0,0 0,0.128906 0,0.386718 0,0.257813 0,0.574219 0,0.953126 0,0.378906 0,0.757812 0,1.136718 0,0.382813 0,0.699219 0,0.957032 0,0.261718 0,0.390624 0,0.390624 z m 0,0"
       style="fill:#303030;fill-opacity:1;fill-rule:nonzero;stroke:none" />
    <path
       id="path78"
       d="M 188.49219,37.132812 V 30.78125 h -1.56641 l -1.75781,4.355469 h -0.0781 l -1.7539,-4.355469 h -1.56641 v 6.351562 H 183 v -4.300781 h 0.0703 l 1.6211,3.964844 h 0.88281 l 1.61719,-3.964844 h 0.0703 v 4.300781 c 0,0 0.0625,0 0.18359,0 0.125,0 0.26953,0 0.4336,0 0.16406,0 0.30468,0 0.42968,0 0.1211,0 0.1836,0 0.1836,0 z m 0,0"
       style="fill:#303030;fill-opacity:1;fill-rule:nonzero;stroke:none" />
    <path
       id="path80"
       d="m 192.00391,33.140625 c 0.30078,0 0.53906,0.09375 0.71875,0.289063 0.17968,0.191406 0.27734,0.453124 0.28906,0.785156 h -2.0625 c 0.0234,-0.328125 0.1289,-0.585938 0.32031,-0.78125 0.19531,-0.195313 0.4375,-0.292969 0.73438,-0.292969 z m 1.03906,2.621094 c -0.0703,0.164062 -0.19141,0.292969 -0.35938,0.382812 -0.16797,0.08984 -0.3789,0.132813 -0.63281,0.132813 -0.33203,0 -0.59766,-0.109375 -0.79687,-0.324219 -0.19922,-0.214844 -0.30079,-0.507813 -0.3125,-0.875 v -0.06641 h 3.33203 v -0.382813 c 0,-0.765625 -0.19922,-1.367187 -0.59766,-1.800781 -0.40234,-0.429687 -0.96094,-0.648437 -1.67578,-0.648437 -0.72266,0 -1.29297,0.230468 -1.71094,0.6875 -0.41797,0.457031 -0.625,1.078124 -0.625,1.867187 0,0.785156 0.20703,1.398437 0.6211,1.839844 0.41406,0.441406 0.99218,0.664062 1.73046,0.664062 0.59375,0 1.08594,-0.132812 1.48047,-0.398437 0.39453,-0.265625 0.64063,-0.625 0.73828,-1.078125 0,0 -0.0586,0 -0.17968,0 -0.1211,0 -0.25782,0 -0.41407,0 -0.16015,0 -0.29687,0 -0.41796,0 -0.1211,0 -0.17969,0 -0.17969,0 z m 0,0"
       style="fill:#303030;fill-opacity:1;fill-rule:nonzero;stroke:none" />
    <path
       id="path82"
       d="m 197.07422,36.269531 c -0.22266,0 -0.40625,-0.05469 -0.54688,-0.160156 -0.14062,-0.109375 -0.21093,-0.253906 -0.21093,-0.4375 0,-0.363281 0.27343,-0.5625 0.82031,-0.601563 l 0.97656,-0.06641 v 0.367188 c 0,0.253906 -0.10156,0.464844 -0.29687,0.636718 -0.19922,0.175782 -0.44532,0.261719 -0.74219,0.261719 z m -0.42188,0.9375 c 0.3125,0 0.59375,-0.0625 0.84375,-0.191406 0.25,-0.125 0.4336,-0.300781 0.5586,-0.523437 h 0.0781 v 0.640624 h 1.2461 v -3.3125 c 0,-0.515624 -0.17579,-0.917968 -0.52344,-1.207031 -0.34766,-0.289062 -0.84375,-0.433593 -1.48828,-0.433593 -0.60547,0 -1.10157,0.128906 -1.48828,0.390624 -0.38282,0.257813 -0.59375,0.613282 -0.63672,1.058594 h 1.17968 c 0.0547,-0.148437 0.15235,-0.265625 0.30469,-0.34375 0.14844,-0.07813 0.33985,-0.117187 0.57031,-0.117187 0.54297,0 0.81641,0.21875 0.81641,0.652343 v 0.402344 l -1.17187,0.07031 c -1.25391,0.07031 -1.87891,0.554687 -1.87891,1.457031 0,0.441406 0.14844,0.796875 0.44531,1.058594 0.29688,0.265625 0.67578,0.398437 1.14453,0.398437 z m 0,0"
       style="fill:#303030;fill-opacity:1;fill-rule:nonzero;stroke:none" />
    <path
       id="path84"
       d="m 200.63672,37.132812 h 1.28125 v -2.800781 c 0,-0.328125 0.0859,-0.589843 0.25781,-0.789062 0.17188,-0.195313 0.40625,-0.292969 0.70313,-0.292969 0.30468,0 0.52734,0.08984 0.67187,0.265625 0.14453,0.175781 0.21484,0.433594 0.21484,0.777344 v 2.839843 h 1.28516 v -3.136718 c 0,-0.578125 -0.14062,-1.027344 -0.42187,-1.34375 -0.28516,-0.3125 -0.69532,-0.472656 -1.23438,-0.472656 -0.35937,0 -0.66016,0.07812 -0.90234,0.238281 -0.2461,0.160156 -0.42188,0.375 -0.53516,0.648437 h -0.0781 v -0.78125 h -1.24219 c 0,0 0,0.164063 0,0.488282 0,0.328124 0,0.730468 0,1.210937 0,0.480469 0,0.960937 0,1.445313 0,0.480468 0,0.882812 0,1.210937 0,0.328125 0,0.492187 0,0.492187 z m 0,0"
       style="fill:#303030;fill-opacity:1;fill-rule:nonzero;stroke:none" />
    <path
       id="path86"
       d="m 208.45703,35.375 c 0.0234,0.585938 0.26563,1.054688 0.72266,1.398438 0.45703,0.347656 1.0664,0.519531 1.82031,0.519531 0.80078,0 1.42969,-0.183594 1.88672,-0.550781 0.46094,-0.363282 0.6875,-0.863282 0.6875,-1.5 0,-0.492188 -0.14453,-0.882813 -0.4336,-1.167969 -0.28906,-0.285157 -0.7539,-0.496094 -1.39062,-0.636719 l -0.76563,-0.160156 c -0.37109,-0.08203 -0.63671,-0.1875 -0.80078,-0.308594 -0.16406,-0.125 -0.24609,-0.285156 -0.24609,-0.484375 0,-0.25 0.10156,-0.449219 0.30078,-0.597656 0.20313,-0.148438 0.47266,-0.222657 0.80469,-0.222657 0.32031,0 0.58984,0.07813 0.80078,0.234376 0.21484,0.15625 0.33594,0.363281 0.36328,0.621093 h 1.25391 c -0.0156,-0.558593 -0.25,-1.015625 -0.70313,-1.371093 -0.45312,-0.351563 -1.02734,-0.53125 -1.72656,-0.53125 -0.73438,0 -1.32031,0.179687 -1.76172,0.539062 -0.44531,0.359375 -0.66797,0.839844 -0.66797,1.433594 0,0.480468 0.14453,0.871094 0.42969,1.167968 0.28516,0.296876 0.71484,0.511719 1.29687,0.636719 l 0.82813,0.179688 c 0.38672,0.08594 0.66406,0.191406 0.83594,0.324219 0.16797,0.128906 0.2539,0.296874 0.2539,0.503906 0,0.246094 -0.10937,0.449218 -0.32812,0.605468 -0.21875,0.15625 -0.5,0.234376 -0.84766,0.234376 -0.375,0 -0.67969,-0.07813 -0.92187,-0.234376 -0.23828,-0.15625 -0.375,-0.367187 -0.40625,-0.632812 0,0 -0.0625,0 -0.19141,0 -0.12891,0 -0.28125,0 -0.44922,0 -0.17187,0 -0.32031,0 -0.44922,0 -0.1289,0 -0.19531,0 -0.19531,0 z m 0,0"
       style="fill:#303030;fill-opacity:1;fill-rule:nonzero;stroke:none" />
    <path
       id="path88"
       d="m 216.44531,32.207031 c -0.60937,0 -1.09375,0.222657 -1.44922,0.671875 -0.35937,0.445313 -0.53515,1.054688 -0.53515,1.824219 0,0.773437 0.17578,1.382813 0.52343,1.832031 0.34766,0.445313 0.82813,0.671875 1.4375,0.671875 0.34375,0 0.64063,-0.07031 0.88672,-0.214843 0.25,-0.140626 0.4375,-0.34375 0.57032,-0.601563 h 0.0781 v 2.347656 h 1.28516 V 32.285156 H 218 v 0.796875 h -0.082 c -0.12891,-0.269531 -0.32422,-0.484375 -0.58594,-0.640625 -0.26172,-0.15625 -0.55859,-0.234375 -0.88672,-0.234375 z m 0.42188,3.964844 c -0.33985,0 -0.60547,-0.128906 -0.79688,-0.386719 -0.19531,-0.257812 -0.28906,-0.617187 -0.28906,-1.078125 0,-0.457031 0.0977,-0.8125 0.28906,-1.070312 0.19531,-0.261719 0.46094,-0.390625 0.80078,-0.390625 0.33985,0 0.60938,0.128906 0.80469,0.394531 0.19922,0.261719 0.29688,0.617187 0.29688,1.070313 0,0.453124 -0.0977,0.8125 -0.29688,1.070312 -0.19531,0.261719 -0.46484,0.390625 -0.80859,0.390625 z m 0,0"
       style="fill:#303030;fill-opacity:1;fill-rule:nonzero;stroke:none" />
    <path
       id="path90"
       d="m 224.92187,32.285156 h -1.28125 v 2.800782 c 0,0.332031 -0.0859,0.59375 -0.25,0.785156 -0.16796,0.191406 -0.41015,0.289062 -0.73046,0.289062 -0.29688,0 -0.51954,-0.08984 -0.67188,-0.261718 -0.14844,-0.171876 -0.22266,-0.429688 -0.22266,-0.773438 v -2.839844 h -1.28125 v 3.15625 c 0,0.5625 0.15235,1.003906 0.45704,1.320313 0.30468,0.316406 0.71875,0.476562 1.24218,0.476562 0.3711,0 0.66797,-0.07813 0.89844,-0.234375 0.23047,-0.152344 0.40234,-0.371094 0.51953,-0.652344 h 0.0781 v 0.78125 h 1.24218 c 0,0 0,-0.164062 0,-0.492187 0,-0.328125 0,-0.730469 0,-1.210937 0,-0.484376 0,-0.964844 0,-1.445313 0,-0.480469 0,-0.882813 0,-1.210937 0,-0.324219 0,-0.488282 0,-0.488282 z m 0,0"
       style="fill:#303030;fill-opacity:1;fill-rule:nonzero;stroke:none" />
    <path
       id="path92"
       d="m 227.95703,36.269531 c -0.22266,0 -0.40625,-0.05469 -0.54687,-0.160156 -0.14063,-0.109375 -0.21094,-0.253906 -0.21094,-0.4375 0,-0.363281 0.27344,-0.5625 0.82031,-0.601563 l 0.97656,-0.06641 v 0.367188 c 0,0.253906 -0.0977,0.464844 -0.29687,0.636718 -0.19922,0.175782 -0.44531,0.261719 -0.74219,0.261719 z m -0.42187,0.9375 c 0.3125,0 0.59375,-0.0625 0.84375,-0.191406 0.25,-0.125 0.4375,-0.300781 0.55859,-0.523437 h 0.082 v 0.640624 h 1.24219 v -3.3125 c 0,-0.515624 -0.17188,-0.917968 -0.52344,-1.207031 -0.34766,-0.289062 -0.84375,-0.433593 -1.48828,-0.433593 -0.60547,0 -1.10156,0.128906 -1.48438,0.390624 -0.38671,0.257813 -0.59765,0.613282 -0.64062,1.058594 h 1.17969 c 0.0547,-0.148437 0.15625,-0.265625 0.30468,-0.34375 0.14844,-0.07813 0.33985,-0.117187 0.57032,-0.117187 0.54297,0 0.8164,0.21875 0.8164,0.652343 v 0.402344 l -1.17187,0.07031 c -1.25,0.07031 -1.87891,0.554687 -1.87891,1.457031 0,0.441406 0.14844,0.796875 0.44531,1.058594 0.29688,0.265625 0.67579,0.398437 1.14454,0.398437 z m 0,0"
       style="fill:#303030;fill-opacity:1;fill-rule:nonzero;stroke:none" />
    <path
       id="path94"
       d="m 231.52344,37.132812 h 1.27734 v -2.710937 c 0,-0.339844 0.10938,-0.609375 0.32813,-0.808594 0.21875,-0.195312 0.5039,-0.292969 0.85156,-0.292969 0.10547,0 0.22265,0.0078 0.34765,0.02344 0.125,0.01172 0.21094,0.03125 0.26172,0.05078 v -1.128906 c -0.0586,-0.01953 -0.13281,-0.03125 -0.22656,-0.04297 -0.0977,-0.01172 -0.1875,-0.01563 -0.27734,-0.01563 -0.3086,0 -0.57422,0.08203 -0.80469,0.242188 -0.22656,0.160156 -0.375,0.363281 -0.4375,0.605469 h -0.082 v -0.769532 h -1.23828 c 0,0 0,0.164063 0,0.488282 0,0.328124 0,0.730468 0,1.210937 0,0.480469 0,0.960937 0,1.445313 0,0.480468 0,0.882812 0,1.210937 0,0.328125 0,0.492187 0,0.492187 z m 0,0"
       style="fill:#303030;fill-opacity:1;fill-rule:nonzero;stroke:none" />
    <path
       id="path96"
       d="m 237.54297,33.140625 c 0.29687,0 0.53906,0.09375 0.71875,0.289063 0.17969,0.191406 0.27734,0.453124 0.28906,0.785156 h -2.06641 c 0.0234,-0.328125 0.13282,-0.585938 0.32422,-0.78125 0.19141,-0.195313 0.4375,-0.292969 0.73438,-0.292969 z m 1.03906,2.621094 c -0.0703,0.164062 -0.19141,0.292969 -0.35937,0.382812 -0.16797,0.08984 -0.37891,0.132813 -0.63282,0.132813 -0.33593,0 -0.60156,-0.109375 -0.79687,-0.324219 -0.19922,-0.214844 -0.30469,-0.507813 -0.3125,-0.875 v -0.06641 h 3.33203 v -0.382813 c 0,-0.765625 -0.19922,-1.367187 -0.60156,-1.800781 -0.39844,-0.429687 -0.95703,-0.648437 -1.67188,-0.648437 -0.72265,0 -1.29297,0.230468 -1.71094,0.6875 -0.41796,0.457031 -0.6289,1.078124 -0.6289,1.867187 0,0.785156 0.20703,1.398437 0.625,1.839844 0.41406,0.441406 0.99219,0.664062 1.73047,0.664062 0.59375,0 1.08593,-0.132812 1.48047,-0.398437 0.39453,-0.265625 0.64062,-0.625 0.73828,-1.078125 0,0 -0.0625,0 -0.17969,0 -0.12109,0 -0.26172,0 -0.41797,0 -0.15625,0 -0.29297,0 -0.41406,0 -0.1211,0 -0.17969,0 -0.17969,0 z m 0,0"
       style="fill:#303030;fill-opacity:1;fill-rule:nonzero;stroke:none" />
    <path
       id="path98"
       d="m 264.08203,37.132812 v -2.5 h 2.58203 v -1.054687 h -2.58203 V 31.875 h 2.82813 V 30.78125 H 262.75 v 6.351562 c 0,0 0.0664,0 0.20312,0 0.13282,0 0.28516,0 0.46485,0 0.17578,0 0.32812,0 0.46094,0 0.13671,0 0.20312,0 0.20312,0 z m 0,0"
       style="fill:#303030;fill-opacity:1;fill-rule:nonzero;stroke:none" />
    <path
       id="path100"
       d="m 309.15234,32.207031 c -0.33593,0 -0.63281,0.07813 -0.89453,0.234375 -0.26172,0.152344 -0.45703,0.367188 -0.58984,0.640625 h -0.0781 v -0.796875 h -1.24218 v 6.453125 h 1.28125 v -2.347656 h 0.0781 c 0.12109,0.257813 0.30859,0.457031 0.56641,0.601563 0.2539,0.140624 0.55468,0.214843 0.90234,0.214843 0.60547,0 1.08203,-0.222656 1.43359,-0.664062 0.34766,-0.445313 0.52344,-1.054688 0.52344,-1.835938 0,-0.78125 -0.17578,-1.394531 -0.53125,-1.835937 -0.35156,-0.441406 -0.83594,-0.664063 -1.44922,-0.664063 z m -0.4375,3.964844 c -0.33593,0 -0.60547,-0.128906 -0.80078,-0.390625 -0.19922,-0.261719 -0.29687,-0.617188 -0.29687,-1.070312 0,-0.453126 0.0976,-0.808594 0.29687,-1.070313 0.19531,-0.265625 0.46485,-0.394531 0.80469,-0.394531 0.34375,0 0.61328,0.128906 0.80469,0.390625 0.1914,0.257812 0.28906,0.613281 0.28906,1.070312 0,0.457031 -0.0977,0.816407 -0.28906,1.074219 -0.19141,0.261719 -0.46094,0.390625 -0.8086,0.390625 z m 0,0"
       style="fill:#303030;fill-opacity:1;fill-rule:nonzero;stroke:none" />
    <path
       id="path102"
       d="m 20.429688,58.242188 c 0.332031,0 0.628906,-0.07031 0.894531,-0.21875 0.269531,-0.148438 0.476562,-0.355469 0.625,-0.621094 h 0.07031 v 0.757812 h 0.722657 V 51.53125 h -0.757813 v 2.632812 h -0.06641 c -0.132813,-0.261718 -0.332031,-0.464843 -0.59375,-0.609374 -0.265625,-0.148438 -0.5625,-0.222657 -0.894531,-0.222657 -0.597657,0 -1.082032,0.222657 -1.445313,0.667969 -0.363281,0.449219 -0.546875,1.042969 -0.546875,1.789062 0,0.746094 0.179688,1.339844 0.542969,1.785157 0.359375,0.445312 0.84375,0.667969 1.449219,0.667969 z m 0.179687,-4.226563 c 0.425781,0 0.765625,0.160156 1.015625,0.480469 0.253906,0.320312 0.378906,0.75 0.378906,1.292968 0,0.546876 -0.125,0.980469 -0.375,1.296876 -0.25,0.316406 -0.589844,0.476562 -1.019531,0.476562 -0.4375,0 -0.777344,-0.15625 -1.019531,-0.472656 -0.246094,-0.3125 -0.367188,-0.746094 -0.367188,-1.300782 0,-0.550781 0.121094,-0.984374 0.367188,-1.300781 0.246094,-0.316406 0.585937,-0.472656 1.019531,-0.472656 z m 0,0"
       style="fill:#303030;fill-opacity:1;fill-rule:nonzero;stroke:none" />
    <path
       id="path104"
       d="m 24.210938,58.160156 h 0.757812 v -2.9375 c 0,-0.335937 0.117188,-0.613281 0.351562,-0.828125 0.234376,-0.21875 0.53125,-0.328125 0.894532,-0.328125 0.07422,0 0.167968,0.0078 0.277344,0.01563 0.109374,0.01172 0.175781,0.01953 0.207031,0.03125 v -0.757812 c -0.04687,-0.0078 -0.109375,-0.01172 -0.179688,-0.01563 -0.07031,-0.0039 -0.136719,-0.0078 -0.199219,-0.0078 -0.316406,0 -0.59375,0.07422 -0.839843,0.222657 -0.246094,0.144531 -0.40625,0.335937 -0.476563,0.566406 h -0.07031 V 53.417982 H 24.21094 c 0,0 0,0.160156 0,0.476562 0,0.320313 0,0.714844 0,1.1875 0,0.472657 0,0.941407 0,1.414063 0,0.46875 0,0.863281 0,1.183594 0,0.320312 0,0.480468 0,0.480468 z m 0,0"
       style="fill:#303030;fill-opacity:1;fill-rule:nonzero;stroke:none" />
    <path
       id="path106"
       d="m 31.480469,53.417969 h -0.753907 v 2.804687 c 0,0.417969 -0.113281,0.742188 -0.335937,0.976563 -0.21875,0.238281 -0.539063,0.355469 -0.960937,0.355469 -0.378907,0 -0.652344,-0.101563 -0.820313,-0.308594 -0.167969,-0.203125 -0.253906,-0.515625 -0.253906,-0.941406 v -2.886719 h -0.753907 v 3.070312 c 0,0.558594 0.136719,0.992188 0.410157,1.296875 0.273437,0.304688 0.675781,0.457032 1.207031,0.457032 0.363281,0 0.671875,-0.07031 0.921875,-0.214844 0.25,-0.144532 0.429687,-0.347656 0.550781,-0.609375 h 0.07031 v 0.742187 h 0.71875 c 0,0 0,-0.160156 0,-0.480468 0,-0.320313 0,-0.714844 0,-1.183594 0,-0.472656 0,-0.941406 0,-1.414063 0,-0.472656 0,-0.867187 0,-1.1875 0,-0.316406 0,-0.476562 0,-0.476562 z m 0,0"
       style="fill:#303030;fill-opacity:1;fill-rule:nonzero;stroke:none" />
    <path
       id="path108"
       d="m 34.824219,57.421875 c -0.4375,0 -0.777344,-0.15625 -1.015625,-0.464844 -0.238282,-0.308593 -0.355469,-0.722656 -0.355469,-1.238281 0,-0.515625 0.117187,-0.929688 0.355469,-1.238281 0.238281,-0.3125 0.578125,-0.464844 1.015625,-0.464844 0.4375,0 0.78125,0.152344 1.035156,0.464844 0.25,0.308593 0.375,0.722656 0.375,1.238281 0,0.515625 -0.125,0.929688 -0.375,1.238281 -0.25,0.308594 -0.59375,0.464844 -1.035156,0.464844 z m 0.03516,2.558594 c 0.648437,0 1.164063,-0.15625 1.542969,-0.46875 0.382812,-0.3125 0.570312,-0.738281 0.570312,-1.269531 V 53.417969 H 36.25 v 0.75 h -0.07031 c -0.132813,-0.253907 -0.335938,-0.457031 -0.613282,-0.609375 -0.273437,-0.148438 -0.574218,-0.226563 -0.90625,-0.226563 -0.613281,0 -1.09375,0.222657 -1.453125,0.660157 -0.359375,0.441406 -0.539062,1.015624 -0.539062,1.726562 0,0.710938 0.179687,1.28125 0.535156,1.71875 0.359375,0.433594 0.84375,0.652344 1.457031,0.652344 0.324219,0 0.617188,-0.07031 0.875,-0.214844 0.257813,-0.140625 0.460938,-0.34375 0.609375,-0.601562 h 0.07031 v 0.929687 c 0,0.351563 -0.117188,0.625 -0.355469,0.820313 -0.242187,0.199218 -0.574219,0.296874 -1,0.296874 -0.339844,0 -0.609375,-0.05469 -0.816406,-0.171874 -0.207031,-0.117188 -0.328125,-0.269532 -0.371094,-0.464844 h -0.800781 c 0.05859,0.394531 0.261718,0.707031 0.609375,0.945312 0.347656,0.234375 0.808593,0.351563 1.378906,0.351563 z m 0,0"
       style="fill:#303030;fill-opacity:1;fill-rule:nonzero;stroke:none" />
    <path
       id="path110"
       d="m 114.47266,55.234375 h 0.78515 c 0.44922,0 0.80078,0.105469 1.0586,0.320313 0.25781,0.214843 0.38672,0.503906 0.38672,0.871093 0,0.355469 -0.13282,0.644531 -0.40235,0.863281 -0.26562,0.21875 -0.60937,0.332032 -1.02734,0.332032 -0.41016,0 -0.7461,-0.101563 -1.01172,-0.300782 -0.26563,-0.195312 -0.41406,-0.460937 -0.44922,-0.796874 h -0.76562 c 0.0273,0.539062 0.24609,0.972656 0.65625,1.296874 0.40625,0.328126 0.93359,0.488282 1.57812,0.488282 0.63281,0 1.16016,-0.175782 1.58984,-0.53125 0.42969,-0.355469 0.64454,-0.796875 0.64454,-1.328125 0,-0.445313 -0.125,-0.800781 -0.375,-1.070313 -0.25,-0.273437 -0.58204,-0.441406 -0.99219,-0.503906 v -0.07031 c 0.32422,-0.09766 0.59375,-0.265626 0.80859,-0.515626 0.21094,-0.25 0.32031,-0.566406 0.32422,-0.945312 0,-0.449219 -0.16797,-0.839844 -0.51562,-1.175781 -0.34375,-0.339844 -0.82813,-0.507813 -1.45704,-0.507813 -0.64453,0 -1.15234,0.171875 -1.52734,0.511719 -0.375,0.339844 -0.58594,0.769531 -0.625,1.285156 h 0.76953 c 0.0312,-0.359375 0.16797,-0.632812 0.40235,-0.820312 0.23828,-0.191407 0.54687,-0.285157 0.92578,-0.285157 0.38672,0 0.68359,0.105469 0.89843,0.316407 0.21485,0.210937 0.32032,0.464843 0.32032,0.761719 0,0.328124 -0.11328,0.597656 -0.34766,0.808593 -0.23437,0.210938 -0.53516,0.316407 -0.90234,0.316407 h -0.75 c 0,0 0,0.05859 0,0.171874 0,0.113282 0,0.226563 0,0.339844 0,0.109375 0,0.167969 0,0.167969 z m 0,0"
       style="fill:#303030;fill-opacity:1;fill-rule:nonzero;stroke:none" />
    <path
       id="path112"
       d="m 119.41797,58.203125 c 0.16016,0 0.29297,-0.05469 0.40625,-0.167969 0.10937,-0.113281 0.16406,-0.246094 0.16406,-0.402344 0,-0.160156 -0.0547,-0.292968 -0.16406,-0.40625 -0.11328,-0.109374 -0.24609,-0.167968 -0.40625,-0.167968 -0.15625,0 -0.28906,0.05859 -0.40234,0.167968 -0.11329,0.113282 -0.16797,0.246094 -0.16797,0.40625 0,0.15625 0.0547,0.289063 0.16797,0.402344 0.11328,0.113282 0.24609,0.167969 0.40234,0.167969 z m 0,0"
       style="fill:#303030;fill-opacity:1;fill-rule:nonzero;stroke:none" />
    <path
       id="path114"
       d="m 124.36328,58.160156 h 0.77735 V 56.84375 h 0.90234 v -0.707031 h -0.90234 v -4.328125 h -1.14844 c -0.22656,0.332031 -0.45313,0.675781 -0.6836,1.03125 -0.22656,0.355468 -0.46093,0.71875 -0.6914,1.085937 -0.23047,0.367188 -0.46094,0.734375 -0.6875,1.105469 -0.22656,0.367188 -0.44531,0.730469 -0.66016,1.089844 v 0.722656 h 3.09375 c 0,0 0,0.06641 0,0.199219 0,0.132812 0,0.285156 0,0.460937 0,0.171875 0,0.328125 0,0.457032 0,0.132812 0,0.199218 0,0.199218 z m -2.28125,-2.074218 c 0.17188,-0.289063 0.35156,-0.585938 0.53906,-0.890626 0.1836,-0.304687 0.375,-0.609374 0.57032,-0.917968 0.1914,-0.304688 0.38281,-0.601563 0.57422,-0.894532 0.1875,-0.292968 0.37109,-0.570312 0.55078,-0.835937 h 0.0508 v 3.59375 h -2.28516 c 0,0 0,-0.0078 0,-0.02734 0,-0.01563 0,-0.02734 0,-0.02734 z m 0,0"
       style="fill:#303030;fill-opacity:1;fill-rule:nonzero;stroke:none" />
    <path
       id="path116"
       d="m 129.375,58.308594 c 0.64844,0 1.17578,-0.203125 1.57812,-0.609375 0.40625,-0.410157 0.60547,-0.941407 0.60547,-1.59375 0,-0.632813 -0.1914,-1.136719 -0.57031,-1.519531 -0.38281,-0.382813 -0.83984,-0.574219 -1.375,-0.574219 -0.31641,0 -0.58984,0.04687 -0.82422,0.144531 -0.23828,0.09766 -0.43359,0.242188 -0.58594,0.429688 h -0.0703 l 0.19531,-2.066407 h 2.90625 v -0.710937 h -3.52343 l -0.36719,3.632812 h 0.74219 c 0.1289,-0.234375 0.30468,-0.417968 0.53515,-0.550781 0.22657,-0.132813 0.49219,-0.199219 0.79688,-0.199219 0.39844,0 0.72656,0.132813 0.97656,0.398438 0.25,0.261718 0.37109,0.609375 0.37109,1.039062 0,0.441406 -0.125,0.800782 -0.375,1.074219 -0.2539,0.273437 -0.58984,0.410156 -1.0039,0.410156 -0.375,0 -0.6836,-0.101562 -0.9375,-0.3125 -0.25,-0.207031 -0.39453,-0.480469 -0.42969,-0.816406 h -0.77734 c 0.0352,0.542969 0.25,0.980469 0.64453,1.320313 0.39062,0.335937 0.89062,0.503906 1.48828,0.503906 z m 0,0"
       style="fill:#303030;fill-opacity:1;fill-rule:nonzero;stroke:none" />
    <path
       id="path118"
       d="m 162.65625,53.601562 h 0.76562 c 0,-0.375 0.11719,-0.679687 0.34766,-0.90625 0.23047,-0.230468 0.53906,-0.34375 0.91797,-0.34375 0.37891,0 0.67187,0.113282 0.88281,0.335938 0.21485,0.222656 0.32031,0.5 0.32031,0.839844 0,0.277344 -0.0742,0.53125 -0.21875,0.761718 -0.14843,0.230469 -0.42578,0.566407 -0.82812,1.003907 l -2.14844,2.320312 v 0.546875 h 4.10938 v -0.710937 h -3.00782 v -0.07031 l 1.44141,-1.492187 c 0.57422,-0.59375 0.96094,-1.058594 1.16016,-1.394531 0.20312,-0.335938 0.30078,-0.683594 0.30078,-1.050782 0,-0.515625 -0.1875,-0.941406 -0.5625,-1.277344 -0.375,-0.335937 -0.83985,-0.503906 -1.39453,-0.503906 -0.60938,0 -1.10547,0.183594 -1.5,0.546875 -0.39063,0.363281 -0.58594,0.828125 -0.58594,1.394531 z m 0,0"
       style="fill:#303030;fill-opacity:1;fill-rule:nonzero;stroke:none" />
    <path
       id="path120"
       d="m 214.32422,58.160156 h 0.78906 v -6.351562 h -0.78516 c 0,0 -0.0859,0.0625 -0.25781,0.183594 -0.16797,0.121093 -0.36719,0.265624 -0.58984,0.425781 -0.22266,0.160156 -0.41797,0.300781 -0.58985,0.425781 -0.16796,0.121094 -0.2539,0.179688 -0.2539,0.179688 v 0.835937 c 0,0 0.082,-0.05859 0.24609,-0.175781 0.16016,-0.117188 0.34766,-0.253906 0.5625,-0.40625 0.21094,-0.15625 0.39844,-0.292969 0.5625,-0.410156 0.16406,-0.117188 0.2461,-0.175782 0.2461,-0.175782 h 0.0703 c 0,0 0,0.132813 0,0.394532 0,0.265624 0,0.605468 0,1.019531 0,0.414062 0,0.855469 0,1.320312 0,0.464844 0,0.90625 0,1.320313 0,0.414062 0,0.753906 0,1.019531 0,0.261719 0,0.394531 0,0.394531 z m 0,0"
       style="fill:#303030;fill-opacity:1;fill-rule:nonzero;stroke:none" />
    <path
       id="path122"
       d="m 217.63672,58.203125 c 0.15625,0 0.29297,-0.05469 0.40625,-0.167969 0.10937,-0.113281 0.16406,-0.246094 0.16406,-0.402344 0,-0.160156 -0.0547,-0.292968 -0.16406,-0.40625 -0.11328,-0.109374 -0.25,-0.167968 -0.40625,-0.167968 -0.15625,0 -0.28906,0.05859 -0.40235,0.167968 -0.11328,0.113282 -0.17187,0.246094 -0.17187,0.40625 0,0.15625 0.0586,0.289063 0.17187,0.402344 0.11329,0.113282 0.2461,0.167969 0.40235,0.167969 z m 0,0"
       style="fill:#303030;fill-opacity:1;fill-rule:nonzero;stroke:none" />
    <path
       id="path124"
       d="m 219.94531,58.160156 h 0.83203 l 2.82422,-5.613281 v -0.738281 h -4.19922 v 0.710937 h 3.39453 v 0.0625 c 0,0 -0.0664,0.132813 -0.20703,0.402344 -0.13672,0.265625 -0.3125,0.613281 -0.52734,1.039063 -0.21875,0.421874 -0.44531,0.871093 -0.69141,1.347656 -0.24218,0.472656 -0.47265,0.925781 -0.6875,1.347656 -0.21484,0.425781 -0.39062,0.769531 -0.53125,1.039062 -0.13672,0.269532 -0.20703,0.402344 -0.20703,0.402344 z m 0,0"
       style="fill:#303030;fill-opacity:1;fill-rule:nonzero;stroke:none" />
    <path
       id="path126"
       d="m 226.15234,55.234375 h 0.78516 c 0.44922,0 0.80078,0.105469 1.05859,0.320313 0.25782,0.214843 0.38672,0.503906 0.38672,0.871093 0,0.355469 -0.13281,0.644531 -0.40234,0.863281 -0.26563,0.21875 -0.60938,0.332032 -1.02735,0.332032 -0.41015,0 -0.74609,-0.101563 -1.01171,-0.300782 -0.26563,-0.195312 -0.41407,-0.460937 -0.44922,-0.796874 h -0.76563 c 0.0273,0.539062 0.2461,0.972656 0.65625,1.296874 0.40625,0.328126 0.9336,0.488282 1.57813,0.488282 0.63281,0 1.16015,-0.175782 1.58984,-0.53125 0.42969,-0.355469 0.64453,-0.796875 0.64453,-1.328125 0,-0.445313 -0.125,-0.800781 -0.375,-1.070313 -0.25,-0.273437 -0.58203,-0.441406 -0.99219,-0.503906 v -0.07031 c 0.32422,-0.09766 0.59375,-0.265626 0.8086,-0.515626 0.21094,-0.25 0.32031,-0.566406 0.32422,-0.945312 0,-0.449219 -0.16797,-0.839844 -0.51563,-1.175781 -0.34375,-0.339844 -0.82812,-0.507813 -1.45703,-0.507813 -0.64453,0 -1.15234,0.171875 -1.52734,0.511719 -0.375,0.339844 -0.58594,0.769531 -0.625,1.285156 h 0.76953 c 0.0312,-0.359375 0.16797,-0.632812 0.40234,-0.820312 0.23828,-0.191407 0.54688,-0.285157 0.92578,-0.285157 0.38672,0 0.6836,0.105469 0.89844,0.316407 0.21484,0.210937 0.32031,0.464843 0.32031,0.761719 0,0.328124 -0.11718,0.597656 -0.34765,0.808593 -0.23438,0.210938 -0.53516,0.316407 -0.90235,0.316407 h -0.75 c 0,0 0,0.05859 0,0.171874 0,0.113282 0,0.226563 0,0.339844 0,0.109375 0,0.167969 0,0.167969 z m 0,0"
       style="fill:#303030;fill-opacity:1;fill-rule:nonzero;stroke:none" />
    <path
       id="path128"
       d="m 255.21875,58.160156 h 0.79297 v -6.351562 h -0.78906 c 0,0 -0.0859,0.0625 -0.25391,0.183594 -0.17188,0.121093 -0.36719,0.265624 -0.58984,0.425781 -0.22266,0.160156 -0.41797,0.300781 -0.58985,0.425781 -0.17187,0.121094 -0.2539,0.179688 -0.2539,0.179688 v 0.835937 c 0,0 0.0781,-0.05859 0.24218,-0.175781 0.16407,-0.117188 0.35157,-0.253906 0.5625,-0.40625 0.21485,-0.15625 0.40235,-0.292969 0.56641,-0.410156 0.16016,-0.117188 0.24219,-0.175782 0.24219,-0.175782 h 0.0703 c 0,0 0,0.132813 0,0.394532 0,0.265624 0,0.605468 0,1.019531 0,0.414062 0,0.855469 0,1.320312 0,0.464844 0,0.90625 0,1.320313 0,0.414062 0,0.753906 0,1.019531 0,0.261719 0,0.394531 0,0.394531 z m 0,0"
       style="fill:#303030;fill-opacity:1;fill-rule:nonzero;stroke:none" />
    <path
       id="path130"
       d="m 260.07422,58.308594 c 0.67187,0 1.22265,-0.171875 1.64844,-0.515625 0.42578,-0.34375 0.63671,-0.789063 0.63671,-1.332031 0,-0.414063 -0.11718,-0.769532 -0.35937,-1.0625 -0.23828,-0.296876 -0.55859,-0.484376 -0.95703,-0.554688 v -0.07031 c 0.32812,-0.09375 0.58594,-0.265626 0.77344,-0.519532 0.1914,-0.253906 0.28515,-0.550781 0.28515,-0.898437 0,-0.496094 -0.1875,-0.902344 -0.5664,-1.21875 -0.37891,-0.316407 -0.86719,-0.476563 -1.46094,-0.476563 -0.59375,0 -1.08203,0.160156 -1.46094,0.476563 -0.37891,0.316406 -0.57031,0.722656 -0.57031,1.21875 0,0.347656 0.0976,0.644531 0.28906,0.902343 0.19141,0.253907 0.44922,0.425782 0.77344,0.515626 v 0.07031 c -0.39844,0.07031 -0.71875,0.257812 -0.96094,0.554688 -0.23828,0.292968 -0.35937,0.648437 -0.35937,1.0625 0,0.542968 0.21484,0.988281 0.64062,1.332031 0.42578,0.34375 0.97656,0.515625 1.64844,0.515625 z m 0,-0.675782 c -0.44141,0 -0.80078,-0.113281 -1.07422,-0.339843 -0.27734,-0.230469 -0.41406,-0.523438 -0.41406,-0.886719 0,-0.367188 0.13672,-0.660156 0.41406,-0.886719 0.27344,-0.230469 0.63281,-0.34375 1.07422,-0.34375 0.4375,0 0.79687,0.113281 1.07422,0.34375 0.27343,0.226563 0.41015,0.519531 0.41015,0.886719 0,0.363281 -0.13672,0.65625 -0.41015,0.886719 -0.27735,0.226562 -0.63672,0.339843 -1.07422,0.339843 z m 0,-3.125 c -0.375,0 -0.67578,-0.09766 -0.90625,-0.296874 -0.23047,-0.199219 -0.34375,-0.457032 -0.34375,-0.78125 0,-0.328126 0.11328,-0.59375 0.34375,-0.792969 0.22656,-0.199219 0.53125,-0.296875 0.90625,-0.296875 0.375,0 0.67578,0.09766 0.90625,0.296875 0.22656,0.199219 0.34375,0.464843 0.34375,0.792969 0,0.324218 -0.11719,0.582031 -0.34375,0.78125 -0.23047,0.199218 -0.53125,0.296874 -0.90625,0.296874 z m 0,0"
       style="fill:#303030;fill-opacity:1;fill-rule:nonzero;stroke:none" />
    <path
       id="path132"
       d="m 264.28906,58.203125 c 0.15625,0 0.29297,-0.05469 0.40625,-0.167969 0.10938,-0.113281 0.16406,-0.246094 0.16406,-0.402344 0,-0.160156 -0.0547,-0.292968 -0.16406,-0.40625 -0.11328,-0.109374 -0.25,-0.167968 -0.40625,-0.167968 -0.15625,0 -0.28906,0.05859 -0.40234,0.167968 -0.11328,0.113282 -0.17188,0.246094 -0.17188,0.40625 0,0.15625 0.0586,0.289063 0.17188,0.402344 0.11328,0.113282 0.24609,0.167969 0.40234,0.167969 z m 0,0"
       style="fill:#303030;fill-opacity:1;fill-rule:nonzero;stroke:none" />
    <path
       id="path134"
       d="m 268.57812,58.304688 c 0.65235,0 1.1875,-0.203126 1.60157,-0.613282 0.41797,-0.414062 0.625,-0.9375 0.625,-1.574218 0,-0.613282 -0.19532,-1.121094 -0.58985,-1.523438 -0.39062,-0.402344 -0.89062,-0.601562 -1.49609,-0.601562 -0.375,0 -0.71484,0.08594 -1.01172,0.257812 -0.29687,0.171875 -0.51953,0.410156 -0.67578,0.71875 h -0.0703 c 0.0156,-0.859375 0.16797,-1.511719 0.46484,-1.949219 0.29297,-0.4375 0.70313,-0.65625 1.23438,-0.65625 0.32031,0 0.59375,0.08203 0.8125,0.238281 0.21875,0.160157 0.36328,0.386719 0.42578,0.683594 h 0.8164 c -0.082,-0.492187 -0.30468,-0.886718 -0.67187,-1.183594 -0.36328,-0.292968 -0.83203,-0.441406 -1.41016,-0.441406 -0.75,0 -1.34765,0.300782 -1.78515,0.898438 -0.4375,0.597656 -0.65625,1.441406 -0.65625,2.535156 0,1.066406 0.22265,1.871094 0.67578,2.40625 0.45312,0.539062 1.02343,0.804688 1.71093,0.804688 z m -0.008,-0.695313 c -0.40625,0 -0.75,-0.140625 -1.02344,-0.425781 -0.27343,-0.285156 -0.41015,-0.640625 -0.41015,-1.066406 0,-0.417969 0.13672,-0.761719 0.40625,-1.03125 0.26953,-0.269532 0.61719,-0.40625 1.03515,-0.40625 0.42188,0 0.76172,0.136718 1.02735,0.40625 0.26562,0.273437 0.39844,0.625 0.39844,1.058593 0,0.417969 -0.13672,0.765625 -0.41016,1.046875 -0.27344,0.277344 -0.61719,0.417969 -1.02344,0.417969 z m 0,0"
       style="fill:#303030;fill-opacity:1;fill-rule:nonzero;stroke:none" />
    <path
       id="path136"
       d="m 273.59766,58.160156 h 0.78906 v -6.351562 h -0.78516 c 0,0 -0.0859,0.0625 -0.25781,0.183594 -0.16797,0.121093 -0.36328,0.265624 -0.58984,0.425781 -0.22266,0.160156 -0.41797,0.300781 -0.58985,0.425781 -0.16797,0.121094 -0.2539,0.179688 -0.2539,0.179688 v 0.835937 c 0,0 0.082,-0.05859 0.24609,-0.175781 0.16016,-0.117188 0.34766,-0.253906 0.5625,-0.40625 0.21094,-0.15625 0.39844,-0.292969 0.5625,-0.410156 0.16406,-0.117188 0.24609,-0.175782 0.24609,-0.175782 h 0.0703 c 0,0 0,0.132813 0,0.394532 0,0.265624 0,0.605468 0,1.019531 0,0.414062 0,0.855469 0,1.320312 0,0.464844 0,0.90625 0,1.320313 0,0.414062 0,0.753906 0,1.019531 0,0.261719 0,0.394531 0,0.394531 z m 0,0"
       style="fill:#303030;fill-opacity:1;fill-rule:nonzero;stroke:none" />
    <path
       id="path138"
       d="m 292.68359,58.308594 c 0.71094,0 1.26563,-0.289063 1.65625,-0.867188 0.39063,-0.578125 0.58594,-1.390625 0.58594,-2.445312 0,-1.054688 -0.19531,-1.871094 -0.58984,-2.457032 -0.39453,-0.585937 -0.94532,-0.878906 -1.65235,-0.878906 -0.71093,0 -1.26172,0.292969 -1.66015,0.875 -0.39453,0.585938 -0.59375,1.402344 -0.59375,2.449219 0,1.054687 0.19531,1.875 0.58984,2.453125 0.39453,0.582031 0.94922,0.871094 1.66406,0.871094 z m 0,-0.6875 c -0.46875,0 -0.82812,-0.230469 -1.08203,-0.683594 -0.25,-0.457031 -0.375,-1.105469 -0.375,-1.953125 0,-0.839844 0.12891,-1.488281 0.37891,-1.945313 0.2539,-0.453124 0.61328,-0.683593 1.07812,-0.683593 0.46485,0 0.82032,0.226562 1.07032,0.683593 0.25,0.453126 0.3789,1.101563 0.3789,1.945313 0,0.851563 -0.125,1.5 -0.375,1.953125 -0.24609,0.457031 -0.60547,0.683594 -1.07422,0.683594 z m 0,0"
       style="fill:#303030;fill-opacity:1;fill-rule:nonzero;stroke:none" />
    <path
       id="path140"
       d="m 296.85547,58.203125 c 0.15625,0 0.29297,-0.05469 0.40625,-0.167969 0.10937,-0.113281 0.16406,-0.246094 0.16406,-0.402344 0,-0.160156 -0.0547,-0.292968 -0.16406,-0.40625 -0.11328,-0.109374 -0.25,-0.167968 -0.40625,-0.167968 -0.15625,0 -0.28906,0.05859 -0.40235,0.167968 -0.11328,0.113282 -0.17187,0.246094 -0.17187,0.40625 0,0.15625 0.0586,0.289063 0.17187,0.402344 0.11329,0.113282 0.2461,0.167969 0.40235,0.167969 z m 0,0"
       style="fill:#303030;fill-opacity:1;fill-rule:nonzero;stroke:none" />
    <path
       id="path142"
       d="m 301.03516,58.308594 c 0.71484,0 1.26562,-0.289063 1.65625,-0.867188 0.39453,-0.578125 0.58984,-1.390625 0.58984,-2.445312 0,-1.054688 -0.19922,-1.871094 -0.59375,-2.457032 -0.39453,-0.585937 -0.94531,-0.878906 -1.65234,-0.878906 -0.71094,0 -1.26172,0.292969 -1.66016,0.875 -0.39453,0.585938 -0.59375,1.402344 -0.59375,2.449219 0,1.054687 0.19922,1.875 0.58984,2.453125 0.39453,0.582031 0.94922,0.871094 1.66407,0.871094 z m 0,-0.6875 c -0.46875,0 -0.82813,-0.230469 -1.07813,-0.683594 -0.25391,-0.457031 -0.37891,-1.105469 -0.37891,-1.953125 0,-0.839844 0.12891,-1.488281 0.38282,-1.945313 0.2539,-0.453124 0.60937,-0.683593 1.07422,-0.683593 0.46484,0 0.82031,0.226562 1.07031,0.683593 0.2539,0.453126 0.3789,1.101563 0.3789,1.945313 0,0.851563 -0.125,1.5 -0.37109,1.953125 -0.25,0.457031 -0.60937,0.683594 -1.07812,0.683594 z m 0,0"
       style="fill:#303030;fill-opacity:1;fill-rule:nonzero;stroke:none" />
    <path
       id="path144"
       d="m 306.71094,58.308594 c 0.71484,0 1.26562,-0.289063 1.66015,-0.867188 0.39063,-0.578125 0.58594,-1.390625 0.58594,-2.445312 0,-1.054688 -0.19922,-1.871094 -0.59375,-2.457032 -0.39453,-0.585937 -0.94531,-0.878906 -1.65234,-0.878906 -0.70703,0 -1.26172,0.292969 -1.65625,0.875 -0.39844,0.585938 -0.59375,1.402344 -0.59375,2.449219 0,1.054687 0.19531,1.875 0.58984,2.453125 0.39063,0.582031 0.94531,0.871094 1.66016,0.871094 z m 0,-0.6875 c -0.46875,0 -0.82813,-0.230469 -1.07813,-0.683594 -0.25,-0.457031 -0.375,-1.105469 -0.375,-1.953125 0,-0.839844 0.125,-1.488281 0.37891,-1.945313 0.2539,-0.453124 0.61328,-0.683593 1.07422,-0.683593 0.46484,0 0.82422,0.226562 1.07422,0.683593 0.25,0.453126 0.375,1.101563 0.375,1.945313 0,0.851563 -0.125,1.5 -0.3711,1.953125 -0.25,0.457031 -0.60547,0.683594 -1.07812,0.683594 z m 0,0"
       style="fill:#303030;fill-opacity:1;fill-rule:nonzero;stroke:none" />
    <path
       id="path146"
       d="m 312.39062,58.308594 c 0.71094,0 1.26563,-0.289063 1.65625,-0.867188 0.39063,-0.578125 0.58594,-1.390625 0.58594,-2.445312 0,-1.054688 -0.19531,-1.871094 -0.58984,-2.457032 -0.39453,-0.585937 -0.94531,-0.878906 -1.65235,-0.878906 -0.71093,0 -1.26562,0.292969 -1.66015,0.875 -0.39453,0.585938 -0.59375,1.402344 -0.59375,2.449219 0,1.054687 0.19531,1.875 0.58984,2.453125 0.39063,0.582031 0.94531,0.871094 1.66406,0.871094 z m 0,-0.6875 c -0.47265,0 -0.83203,-0.230469 -1.08203,-0.683594 -0.25,-0.457031 -0.375,-1.105469 -0.375,-1.953125 0,-0.839844 0.125,-1.488281 0.37891,-1.945313 0.25391,-0.453124 0.61328,-0.683593 1.07812,-0.683593 0.46094,0 0.82032,0.226562 1.07032,0.683593 0.25,0.453126 0.375,1.101563 0.375,1.945313 0,0.851563 -0.1211,1.5 -0.3711,1.953125 -0.24609,0.457031 -0.60547,0.683594 -1.07422,0.683594 z m 0,0"
       style="fill:#303030;fill-opacity:1;fill-rule:nonzero;stroke:none" />
    <path
       id="path148"
       d="m 318.06641,58.308594 c 0.71093,0 1.26562,-0.289063 1.65625,-0.867188 0.39062,-0.578125 0.58593,-1.390625 0.58593,-2.445312 0,-1.054688 -0.19531,-1.871094 -0.58984,-2.457032 -0.39453,-0.585937 -0.94531,-0.878906 -1.65234,-0.878906 -0.71094,0 -1.26172,0.292969 -1.66016,0.875 -0.39453,0.585938 -0.59375,1.402344 -0.59375,2.449219 0,1.054687 0.19531,1.875 0.58984,2.453125 0.39453,0.582031 0.94922,0.871094 1.66407,0.871094 z m 0,-0.6875 c -0.46875,0 -0.82813,-0.230469 -1.08204,-0.683594 -0.25,-0.457031 -0.375,-1.105469 -0.375,-1.953125 0,-0.839844 0.12891,-1.488281 0.37891,-1.945313 0.25391,-0.453124 0.61328,-0.683593 1.07813,-0.683593 0.46484,0 0.82031,0.226562 1.07031,0.683593 0.25,0.453126 0.3789,1.101563 0.3789,1.945313 0,0.851563 -0.125,1.5 -0.375,1.953125 -0.24609,0.457031 -0.60546,0.683594 -1.07421,0.683594 z m 0,0"
       style="fill:#303030;fill-opacity:1;fill-rule:nonzero;stroke:none" />
    <path
       id="path150"
       d="m 323.63672,58.304688 c 0.77734,0 1.3789,-0.296876 1.80469,-0.898438 0.42578,-0.597656 0.63671,-1.441406 0.63671,-2.53125 0,-1.082031 -0.22656,-1.886719 -0.67968,-2.417969 -0.45703,-0.53125 -1.02344,-0.796875 -1.70703,-0.796875 -0.65235,0 -1.1875,0.207032 -1.60157,0.613282 -0.41797,0.410156 -0.625,0.933593 -0.625,1.574218 0,0.617188 0.19532,1.125 0.58985,1.523438 0.39062,0.402344 0.89062,0.601562 1.49609,0.601562 0.37891,0 0.71484,-0.08594 1.01172,-0.257812 0.29687,-0.171875 0.51953,-0.410156 0.67578,-0.71875 h 0.0703 c -0.0195,0.84375 -0.17187,1.492187 -0.45703,1.9375 -0.28906,0.445312 -0.6875,0.667968 -1.20703,0.667968 -0.30859,0 -0.57812,-0.08203 -0.80469,-0.246093 -0.23047,-0.164063 -0.38672,-0.390625 -0.46875,-0.671875 h -0.8164 c 0.10156,0.496094 0.33593,0.890625 0.71093,1.183594 0.375,0.292968 0.83204,0.4375 1.3711,0.4375 z m 0.0547,-3.019532 c -0.42188,0 -0.76172,-0.132812 -1.02735,-0.40625 -0.26562,-0.269531 -0.39844,-0.625 -0.39844,-1.058594 0,-0.414062 0.13672,-0.765624 0.41016,-1.042968 0.27344,-0.28125 0.61719,-0.421875 1.02344,-0.421875 0.40625,0 0.75,0.144531 1.02344,0.425781 0.27343,0.285156 0.41015,0.640625 0.41015,1.066406 0,0.417969 -0.13672,0.765625 -0.40625,1.035156 -0.26953,0.269532 -0.61719,0.402344 -1.03515,0.402344 z m 0,0"
       style="fill:#303030;fill-opacity:1;fill-rule:nonzero;stroke:none" />
    <path
       id="path152"
       d="m 19.566406,71.289062 h 1.523438 c 0.414062,0 0.734375,0.109376 0.964844,0.324219 0.234374,0.210938 0.347656,0.511719 0.347656,0.890625 0,0.390625 -0.109375,0.691406 -0.332032,0.902344 -0.222656,0.207031 -0.535156,0.3125 -0.945312,0.3125 h -1.558594 c 0,0 0,-0.08203 0,-0.246094 0,-0.164062 0,-0.367187 0,-0.605468 0,-0.242188 0,-0.480469 0,-0.722657 0,-0.242187 0,-0.441406 0,-0.609375 0,-0.164062 0,-0.246094 0,-0.246094 z m 0,3.132813 H 21.125 l 1.363281,2.515625 h 0.925781 l -1.46875,-2.636719 c 0.398438,-0.125 0.710938,-0.351562 0.9375,-0.671875 0.226563,-0.324218 0.339844,-0.707031 0.339844,-1.148437 0,-0.574219 -0.183594,-1.03125 -0.554687,-1.378907 -0.367188,-0.34375 -0.859375,-0.515624 -1.46875,-0.515624 H 18.773438 V 76.9375 h 0.792968 c 0,0 0,-0.128906 0,-0.378906 0,-0.253906 0,-0.546875 0,-0.878906 0,-0.332032 0,-0.625 0,-0.878907 0,-0.25 0,-0.378906 0,-0.378906 z m 0,0"
       style="fill:#303030;fill-opacity:1;fill-rule:nonzero;stroke:none" />
    <path
       id="path154"
       d="m 26.457031,72.777344 c 0.375,0 0.679688,0.128906 0.910157,0.382812 0.230468,0.253906 0.351562,0.59375 0.359374,1.011719 h -2.613281 c 0.03125,-0.417969 0.167969,-0.757813 0.410157,-1.011719 0.242187,-0.253906 0.554687,-0.382812 0.933593,-0.382812 z m 1.25,2.929687 C 27.605469,75.917969 27.453125,76.078125 27.25,76.1875 c -0.207031,0.109375 -0.460938,0.164062 -0.765625,0.164062 -0.402344,0 -0.726563,-0.136718 -0.972656,-0.414062 -0.246094,-0.277344 -0.378907,-0.648438 -0.398438,-1.117188 v -0.03516 h 3.410157 V 74.49609 c 0,-0.738282 -0.183594,-1.320313 -0.550782,-1.746094 -0.363281,-0.425781 -0.867187,-0.640625 -1.507812,-0.640625 -0.652344,0 -1.171875,0.222656 -1.558594,0.671875 -0.386719,0.445312 -0.582031,1.042969 -0.582031,1.789062 0,0.75 0.195312,1.347657 0.578125,1.789063 0.382812,0.441406 0.90625,0.660156 1.5625,0.660156 0.519531,0 0.953125,-0.117187 1.300781,-0.347656 0.351563,-0.234375 0.582031,-0.554687 0.695313,-0.964844 0,0 -0.03516,0 -0.113282,0 -0.07422,0 -0.164062,0 -0.261718,0 -0.101563,0 -0.1875,0 -0.265626,0 -0.07812,0 -0.113281,0 -0.113281,0 z m 0,0"
       style="fill:#303030;fill-opacity:1;fill-rule:nonzero;stroke:none" />
    <path
       id="path156"
       d="m 29.601562,73.492188 c 0,0.34375 0.105469,0.613281 0.316407,0.816406 0.207031,0.203125 0.535156,0.359375 0.976562,0.46875 l 0.816407,0.195312 c 0.25,0.0625 0.441406,0.148438 0.566406,0.257813 0.125,0.109375 0.1875,0.246093 0.1875,0.414062 0,0.214844 -0.105469,0.394531 -0.308594,0.53125 -0.207031,0.136719 -0.46875,0.207031 -0.789062,0.207031 -0.300782,0 -0.546876,-0.05859 -0.734376,-0.179687 -0.1875,-0.117187 -0.316406,-0.277344 -0.378906,-0.476563 h -0.777344 c 0.03906,0.394532 0.230469,0.707032 0.566407,0.941407 0.335937,0.234375 0.769531,0.351562 1.296875,0.351562 0.539062,0 0.992187,-0.132812 1.355468,-0.398437 0.363282,-0.265625 0.546876,-0.609375 0.546876,-1.035156 0,-0.339844 -0.109376,-0.613282 -0.328126,-0.816407 -0.21875,-0.203125 -0.550781,-0.359375 -0.996093,-0.46875 L 31.1875,74.125 c -0.28125,-0.06641 -0.484375,-0.15625 -0.621094,-0.261719 -0.136718,-0.109375 -0.203125,-0.242187 -0.203125,-0.402343 0,-0.210938 0.09766,-0.382813 0.289063,-0.511719 C 30.847656,72.816406 31.085938,72.75 31.367188,72.75 c 0.289062,0 0.519531,0.05859 0.699218,0.171875 0.179688,0.117187 0.292969,0.269531 0.34375,0.457031 h 0.75 c -0.05078,-0.386718 -0.238281,-0.699218 -0.558594,-0.925781 -0.320312,-0.230469 -0.730468,-0.34375 -1.230468,-0.34375 -0.503906,0 -0.925782,0.132813 -1.261719,0.394531 -0.339844,0.265625 -0.507813,0.59375 -0.507813,0.988282 z m 0,0"
       style="fill:#303030;fill-opacity:1;fill-rule:nonzero;stroke:none" />
    <path
       id="path158"
       d="m 34.449219,76.9375 h 0.753906 v -4.746094 h -0.753906 c 0,0 0,0.160156 0,0.480469 0,0.320313 0,0.714844 0,1.1875 0,0.46875 0,0.941406 0,1.410156 0,0.472657 0,0.867188 0,1.1875 0,0.320313 0,0.480469 0,0.480469 z m 0.375,-5.707031 c 0.148437,0 0.273437,-0.05469 0.375,-0.15625 0.105469,-0.105469 0.15625,-0.230469 0.15625,-0.375 0,-0.144531 -0.05078,-0.269531 -0.15625,-0.371094 -0.101563,-0.105469 -0.226563,-0.15625 -0.375,-0.15625 -0.140625,0 -0.265625,0.05078 -0.371094,0.15625 -0.101563,0.101563 -0.15625,0.226563 -0.15625,0.371094 0,0.144531 0.05469,0.269531 0.15625,0.375 0.105469,0.101562 0.230469,0.15625 0.371094,0.15625 z m 0,0"
       style="fill:#303030;fill-opacity:1;fill-rule:nonzero;stroke:none" />
    <path
       id="path160"
       d="m 38.402344,77.019531 c 0.328125,0 0.628906,-0.07422 0.894531,-0.222656 0.265625,-0.148437 0.476563,-0.351563 0.625,-0.617187 h 0.07031 V 76.9375 h 0.722656 v -6.628906 h -0.757813 v 2.632812 h -0.06641 c -0.132813,-0.261718 -0.332031,-0.464844 -0.597656,-0.613281 -0.261719,-0.144531 -0.558594,-0.21875 -0.890625,-0.21875 -0.601563,0 -1.082032,0.222656 -1.445313,0.667969 -0.363281,0.445312 -0.546875,1.042968 -0.546875,1.789062 0,0.742188 0.179688,1.339844 0.542969,1.785156 0.359375,0.445313 0.84375,0.667969 1.449219,0.667969 z m 0.175781,-4.226562 c 0.429687,0 0.769531,0.15625 1.019531,0.476562 0.25,0.320313 0.378906,0.753907 0.378906,1.296875 0,0.546875 -0.125,0.980469 -0.375,1.296875 -0.25,0.316407 -0.589843,0.476563 -1.023437,0.476563 -0.433594,0 -0.773437,-0.160156 -1.015625,-0.472656 -0.246094,-0.3125 -0.367188,-0.75 -0.367188,-1.300782 0,-0.554687 0.121094,-0.988281 0.367188,-1.300781 0.246094,-0.316406 0.585938,-0.472656 1.015625,-0.472656 z m 0,0"
       style="fill:#303030;fill-opacity:1;fill-rule:nonzero;stroke:none" />
    <path
       id="path162"
       d="M 46.019531,72.191406 H 45.265625 V 75 c 0,0.417969 -0.113281,0.742188 -0.332031,0.976562 -0.222656,0.234376 -0.542969,0.351563 -0.964844,0.351563 -0.375,0 -0.648438,-0.101563 -0.820312,-0.304687 -0.167969,-0.203126 -0.25,-0.519532 -0.25,-0.945313 v -2.886719 h -0.757813 v 3.074219 c 0,0.558594 0.136719,0.992187 0.410156,1.296875 0.273438,0.304688 0.675781,0.457031 1.207031,0.457031 0.367188,0 0.671876,-0.07031 0.921876,-0.214843 0.25,-0.144532 0.433593,-0.347657 0.550781,-0.613282 h 0.07031 V 76.9375 h 0.71875 c 0,0 0,-0.160156 0,-0.480469 0,-0.320312 0,-0.714843 0,-1.1875 0,-0.46875 0,-0.941406 0,-1.410156 0,-0.472656 0,-0.867187 0,-1.1875 0,-0.320313 0,-0.480469 0,-0.480469 z m 0,0"
       style="fill:#303030;fill-opacity:1;fill-rule:nonzero;stroke:none" />
    <path
       id="path164"
       d="m 48.90625,76.355469 c -0.273438,0 -0.503906,-0.06641 -0.683594,-0.203125 -0.183594,-0.132813 -0.273437,-0.320313 -0.273437,-0.5625 0,-0.46875 0.347656,-0.726563 1.039062,-0.773438 l 1.273438,-0.08594 v 0.4375 c 0,0.335937 -0.125,0.621093 -0.382813,0.847656 -0.257812,0.226563 -0.582031,0.339844 -0.972656,0.339844 z m -0.140625,0.664062 c 0.320313,0 0.601563,-0.06641 0.855469,-0.203125 0.253906,-0.132812 0.453125,-0.328125 0.605468,-0.578125 h 0.07031 V 76.9375 h 0.722656 v -3.25 c 0,-0.492188 -0.15625,-0.878906 -0.46875,-1.15625 -0.3125,-0.28125 -0.757812,-0.421875 -1.335937,-0.421875 -0.503906,0 -0.925782,0.113281 -1.269532,0.34375 -0.34375,0.230469 -0.539062,0.539063 -0.589843,0.917969 h 0.765625 c 0.05078,-0.1875 0.171875,-0.332032 0.359375,-0.433594 0.1875,-0.105469 0.425781,-0.15625 0.710937,-0.15625 0.714844,0 1.070313,0.304688 1.070313,0.90625 v 0.433594 l -1.367188,0.08203 c -1.152343,0.06641 -1.730469,0.535156 -1.730469,1.40625 0,0.433594 0.152344,0.777344 0.457032,1.03125 0.304687,0.253906 0.6875,0.378906 1.144531,0.378906 z m 0,0"
       style="fill:#303030;fill-opacity:1;fill-rule:nonzero;stroke:none" />
    <path
       id="path166"
       d="m 52.464844,76.9375 h 0.757812 v -6.628906 h -0.757812 c 0,0 0,0.160156 0,0.480468 0,0.320313 0,0.730469 0,1.234376 0,0.503906 0,1.035156 0,1.597656 0,0.566406 0,1.097656 0,1.601562 0,0.503906 0,0.914063 0,1.234375 0,0.320313 0,0.480469 0,0.480469 z m 0,0"
       style="fill:#303030;fill-opacity:1;fill-rule:nonzero;stroke:none" />
    <path
       id="path168"
       d="m 54.582031,73.492188 c 0,0.34375 0.101563,0.613281 0.3125,0.816406 0.210938,0.203125 0.535157,0.359375 0.980469,0.46875 l 0.8125,0.195312 c 0.253906,0.0625 0.441406,0.148438 0.566406,0.257813 0.125,0.109375 0.1875,0.246093 0.1875,0.414062 0,0.214844 -0.101562,0.394531 -0.308594,0.53125 -0.207031,0.136719 -0.46875,0.207031 -0.789062,0.207031 -0.300781,0 -0.546875,-0.05859 -0.734375,-0.179687 -0.1875,-0.117187 -0.3125,-0.277344 -0.378906,-0.476563 h -0.777344 c 0.03906,0.394532 0.230469,0.707032 0.566406,0.941407 0.339844,0.234375 0.769531,0.351562 1.300781,0.351562 0.539063,0 0.988282,-0.132812 1.355469,-0.398437 0.363281,-0.265625 0.542969,-0.609375 0.542969,-1.035156 0,-0.339844 -0.109375,-0.613282 -0.328125,-0.816407 -0.21875,-0.203125 -0.550781,-0.359375 -0.996094,-0.46875 L 56.164062,74.125 C 55.886719,74.05859 55.679688,73.96875 55.542969,73.863281 55.410156,73.753906 55.34375,73.621094 55.34375,73.460938 55.34375,73.25 55.4375,73.078125 55.632812,72.949219 55.824219,72.816406 56.0625,72.75 56.34375,72.75 c 0.289062,0 0.523438,0.05859 0.699219,0.171875 0.179687,0.117187 0.296875,0.269531 0.34375,0.457031 h 0.75 c -0.05078,-0.386718 -0.234375,-0.699218 -0.558594,-0.925781 -0.320313,-0.230469 -0.730469,-0.34375 -1.226563,-0.34375 -0.507812,0 -0.925781,0.132813 -1.265624,0.394531 -0.335938,0.265625 -0.503907,0.59375 -0.503907,0.988282 z m 0,0"
       style="fill:#303030;fill-opacity:1;fill-rule:nonzero;stroke:none" />
    <path
       id="path170"
       d="m 116.07813,76.9375 h 0.78906 v -6.351562 h -0.78516 c 0,0 -0.0859,0.0625 -0.25781,0.183593 -0.16797,0.121094 -0.36328,0.261719 -0.58984,0.425781 -0.22266,0.160157 -0.41797,0.300782 -0.58985,0.421876 -0.16797,0.121093 -0.2539,0.183593 -0.2539,0.183593 v 0.835938 c 0,0 0.082,-0.05859 0.24609,-0.175781 0.16016,-0.117188 0.34766,-0.253907 0.5625,-0.410157 0.21094,-0.15625 0.39844,-0.289062 0.5625,-0.40625 0.16406,-0.121093 0.24609,-0.179687 0.24609,-0.179687 h 0.0703 c 0,0 0,0.132812 0,0.398437 0,0.261719 0,0.601563 0,1.019531 0,0.414063 0,0.855469 0,1.320313 0,0.464844 0,0.902344 0,1.320313 0,0.414062 0,0.753906 0,1.015624 0,0.265626 0,0.398438 0,0.398438 z m 0,0"
       style="fill:#303030;fill-opacity:1;fill-rule:nonzero;stroke:none" />
    <path
       id="path172"
       d="m 119.39063,76.980469 c 0.15625,0 0.29296,-0.05469 0.40625,-0.167969 0.10937,-0.113281 0.16406,-0.25 0.16406,-0.402344 0,-0.160156 -0.0547,-0.296875 -0.16406,-0.40625 -0.11329,-0.113281 -0.25,-0.167968 -0.40625,-0.167968 -0.15625,0 -0.28907,0.05469 -0.40235,0.167968 -0.11328,0.109375 -0.17187,0.246094 -0.17187,0.40625 0,0.152344 0.0586,0.289063 0.17187,0.402344 0.11328,0.113281 0.2461,0.167969 0.40235,0.167969 z m 0,0"
       style="fill:#303030;fill-opacity:1;fill-rule:nonzero;stroke:none" />
    <path
       id="path174"
       d="m 122.76953,74.011719 h 0.78906 c 0.44532,0 0.79688,0.105469 1.05469,0.320312 0.25781,0.214844 0.38672,0.503907 0.38672,0.871094 0,0.355469 -0.13281,0.640625 -0.39844,0.863281 -0.26953,0.21875 -0.60937,0.328125 -1.03125,0.328125 -0.40625,0 -0.74218,-0.09766 -1.00781,-0.296875 -0.26562,-0.199218 -0.41797,-0.464844 -0.45312,-0.796875 h -0.76563 c 0.0312,0.539063 0.25,0.972657 0.65625,1.296875 0.40625,0.324219 0.93359,0.488282 1.57813,0.488282 0.63281,0 1.16406,-0.175782 1.59375,-0.53125 0.42968,-0.355469 0.64453,-0.800782 0.64453,-1.328126 0,-0.445312 -0.125,-0.800781 -0.37891,-1.074218 -0.25,-0.269532 -0.58203,-0.4375 -0.99219,-0.503906 v -0.07031 c 0.32813,-0.09375 0.59766,-0.265625 0.8086,-0.515625 0.21484,-0.246094 0.32031,-0.5625 0.32422,-0.945312 0.004,-0.445313 -0.16797,-0.835938 -0.51172,-1.175782 -0.34766,-0.335937 -0.83203,-0.503906 -1.46094,-0.503906 -0.64063,0 -1.15234,0.167969 -1.52734,0.511719 -0.375,0.339843 -0.58204,0.765625 -0.625,1.28125 h 0.76953 c 0.0352,-0.355469 0.16797,-0.628907 0.40234,-0.820313 0.23828,-0.1875 0.54688,-0.28125 0.92969,-0.28125 0.38281,0 0.68359,0.105469 0.89453,0.316406 0.21484,0.210938 0.32422,0.464844 0.32422,0.761719 0,0.328125 -0.11719,0.597657 -0.35156,0.808594 -0.23438,0.210937 -0.53125,0.316406 -0.89844,0.316406 h -0.75391 c 0,0 0,0.05859 0,0.167969 0,0.113281 0,0.226562 0,0.339844 0,0.113281 0,0.171875 0,0.171875 z m 0,0"
       style="fill:#303030;fill-opacity:1;fill-rule:nonzero;stroke:none" />
    <path
       id="path176"
       d="m 129.11719,77.082031 c 0.77734,0 1.3789,-0.300781 1.80468,-0.898437 0.42188,-0.597656 0.63672,-1.441406 0.63672,-2.535156 0,-1.078126 -0.22656,-1.882813 -0.68359,-2.414063 -0.45313,-0.53125 -1.02344,-0.796875 -1.70703,-0.796875 -0.65235,0 -1.18359,0.203125 -1.60156,0.613281 -0.41797,0.410157 -0.625,0.933594 -0.625,1.574219 0,0.613281 0.19531,1.125 0.58984,1.523438 0.39453,0.402343 0.89062,0.601562 1.49609,0.601562 0.37891,0 0.71485,-0.08594 1.01172,-0.257812 0.29688,-0.171876 0.52344,-0.410157 0.67969,-0.71875 h 0.0703 c -0.0234,0.84375 -0.17578,1.488281 -0.46094,1.933593 -0.28515,0.449219 -0.6875,0.671875 -1.20312,0.671875 -0.3125,0 -0.58203,-0.08203 -0.80859,-0.246094 -0.22657,-0.164062 -0.38282,-0.390624 -0.46875,-0.675781 h -0.8125 c 0.0977,0.5 0.33593,0.894531 0.71093,1.1875 0.3711,0.292969 0.82813,0.4375 1.3711,0.4375 z m 0.0508,-3.019531 c -0.41797,0 -0.76172,-0.136719 -1.02735,-0.40625 -0.26562,-0.273438 -0.39843,-0.625 -0.39843,-1.058594 0,-0.417968 0.13672,-0.765625 0.41015,-1.046875 0.27735,-0.277343 0.61719,-0.417969 1.02344,-0.417969 0.41016,0 0.75,0.140626 1.02344,0.425782 0.27734,0.285156 0.41406,0.640625 0.41406,1.066406 0,0.417969 -0.13672,0.761719 -0.41016,1.03125 -0.26953,0.273438 -0.61328,0.40625 -1.03515,0.40625 z m 0,0"
       style="fill:#303030;fill-opacity:1;fill-rule:nonzero;stroke:none" />
    <path
       id="path178"
       d="m 159.87109,76.9375 h 0.79297 V 70.585938 H 159.875 c 0,0 -0.082,0.0625 -0.25391,0.183593 -0.17187,0.121094 -0.36718,0.261719 -0.58984,0.425781 -0.22266,0.160157 -0.41797,0.300782 -0.58984,0.421876 -0.17188,0.121093 -0.25391,0.183593 -0.25391,0.183593 v 0.835938 c 0,0 0.082,-0.05859 0.24219,-0.175781 0.16406,-0.117188 0.35156,-0.253907 0.5625,-0.410157 0.21484,-0.15625 0.40234,-0.289062 0.5664,-0.40625 0.16016,-0.121093 0.24219,-0.179687 0.24219,-0.179687 h 0.0703 c 0,0 0,0.132812 0,0.398437 0,0.261719 0,0.601563 0,1.019531 0,0.414063 0,0.855469 0,1.320313 0,0.464844 0,0.902344 0,1.320313 0,0.414062 0,0.753906 0,1.015624 0,0.265626 0,0.398438 0,0.398438 z m 0,0"
       style="fill:#303030;fill-opacity:1;fill-rule:nonzero;stroke:none" />
    <path
       id="path180"
       d="m 164.66797,77.085938 c 0.64844,0 1.17578,-0.203126 1.57812,-0.613282 0.40235,-0.40625 0.60547,-0.9375 0.60547,-1.589844 0,-0.632812 -0.1914,-1.140624 -0.57422,-1.523437 -0.3789,-0.382813 -0.83593,-0.574219 -1.37109,-0.574219 -0.31641,0 -0.59375,0.05078 -0.82813,0.148438 -0.23437,0.09375 -0.42968,0.238281 -0.58593,0.429687 h -0.0703 l 0.19922,-2.070312 h 2.90625 V 70.585938 H 163 l -0.36328,3.632812 h 0.74219 c 0.125,-0.238281 0.30468,-0.417969 0.53125,-0.550781 0.23046,-0.132813 0.49609,-0.199219 0.79687,-0.199219 0.40234,0 0.73047,0.132812 0.97656,0.394531 0.25,0.265625 0.375,0.613281 0.375,1.039063 0,0.445312 -0.125,0.804687 -0.3789,1.078125 -0.25,0.273437 -0.58594,0.410156 -1.00391,0.410156 -0.37109,0 -0.68359,-0.105469 -0.93359,-0.3125 -0.25,-0.207031 -0.39453,-0.480469 -0.42969,-0.816406 h -0.77734 c 0.0352,0.539062 0.25,0.980469 0.64062,1.320312 0.39453,0.335938 0.89063,0.503907 1.49219,0.503907 z m 0,0"
       style="fill:#303030;fill-opacity:1;fill-rule:nonzero;stroke:none" />
    <path
       id="path182"
       d="m 212.83984,77.085938 c 0.71094,0 1.26172,-0.289063 1.65625,-0.867188 0.39063,-0.578125 0.58594,-1.394531 0.58594,-2.445312 0,-1.054688 -0.19531,-1.875 -0.58984,-2.457032 -0.39453,-0.585937 -0.94532,-0.878906 -1.65235,-0.878906 -0.71093,0 -1.26562,0.292969 -1.66015,0.875 -0.39844,0.582031 -0.59375,1.398438 -0.59375,2.445312 0,1.058594 0.19531,1.875 0.58984,2.457032 0.39063,0.582031 0.94531,0.871094 1.66406,0.871094 z m 0,-0.691407 c -0.47265,0 -0.83203,-0.226562 -1.08203,-0.679687 -0.25,-0.457032 -0.375,-1.109375 -0.375,-1.957032 0,-0.835937 0.125,-1.484374 0.37891,-1.941406 0.2539,-0.457031 0.61328,-0.683594 1.07812,-0.683594 0.46094,0 0.82032,0.226563 1.07032,0.679688 0.25,0.457031 0.375,1.105469 0.375,1.945312 0,0.851563 -0.125,1.503907 -0.3711,1.957032 -0.24609,0.453125 -0.60547,0.679687 -1.07422,0.679687 z m 0,0"
       style="fill:#303030;fill-opacity:1;fill-rule:nonzero;stroke:none" />
    <path
       id="path184"
       d="m 217.00781,76.980469 c 0.16016,0 0.29688,-0.05469 0.40625,-0.167969 0.11328,-0.113281 0.16797,-0.25 0.16797,-0.402344 0,-0.160156 -0.0547,-0.296875 -0.16797,-0.40625 -0.10937,-0.113281 -0.24609,-0.167968 -0.40625,-0.167968 -0.15234,0 -0.28906,0.05469 -0.40234,0.167968 -0.11328,0.109375 -0.16797,0.246094 -0.16797,0.40625 0,0.152344 0.0547,0.289063 0.16797,0.402344 0.11328,0.113281 0.25,0.167969 0.40234,0.167969 z m 0,0"
       style="fill:#303030;fill-opacity:1;fill-rule:nonzero;stroke:none" />
    <path
       id="path186"
       d="m 221.19141,77.085938 c 0.71093,0 1.26562,-0.289063 1.65625,-0.867188 0.39062,-0.578125 0.58593,-1.394531 0.58593,-2.445312 0,-1.054688 -0.19531,-1.875 -0.58984,-2.457032 -0.39453,-0.585937 -0.94531,-0.878906 -1.65234,-0.878906 -0.71094,0 -1.26563,0.292969 -1.66016,0.875 -0.39453,0.582031 -0.59375,1.398438 -0.59375,2.445312 0,1.058594 0.19531,1.875 0.58984,2.457032 0.39453,0.582031 0.94532,0.871094 1.66407,0.871094 z m 0,-0.691407 c -0.46875,0 -0.83204,-0.226562 -1.08204,-0.679687 -0.25,-0.457032 -0.375,-1.109375 -0.375,-1.957032 0,-0.835937 0.125,-1.484374 0.37891,-1.941406 0.25391,-0.457031 0.61328,-0.683594 1.07813,-0.683594 0.46093,0 0.82031,0.226563 1.07031,0.679688 0.25,0.457031 0.375,1.105469 0.375,1.945312 0,0.851563 -0.1211,1.503907 -0.3711,1.957032 -0.24609,0.453125 -0.60546,0.679687 -1.07421,0.679687 z m 0,0"
       style="fill:#303030;fill-opacity:1;fill-rule:nonzero;stroke:none" />
    <path
       id="path188"
       d="m 226.76172,77.082031 c 0.77734,0 1.3789,-0.300781 1.80469,-0.898437 0.42578,-0.597656 0.63671,-1.441406 0.63671,-2.535156 0,-1.078126 -0.22656,-1.882813 -0.67968,-2.414063 -0.45703,-0.53125 -1.02735,-0.796875 -1.71094,-0.796875 -0.64844,0 -1.18359,0.203125 -1.60156,0.613281 -0.41407,0.410157 -0.625,0.933594 -0.625,1.574219 0,0.613281 0.19922,1.125 0.58984,1.523438 0.39453,0.402343 0.89453,0.601562 1.49609,0.601562 0.37891,0 0.71875,-0.08594 1.01563,-0.257812 0.29297,-0.171876 0.51953,-0.410157 0.67578,-0.71875 h 0.0703 c -0.0195,0.84375 -0.17187,1.488281 -0.46093,1.933593 -0.28516,0.449219 -0.6875,0.671875 -1.20313,0.671875 -0.30859,0 -0.57812,-0.08203 -0.80469,-0.246094 -0.23047,-0.164062 -0.38672,-0.390624 -0.46875,-0.675781 h -0.8164 c 0.10156,0.5 0.33593,0.894531 0.71093,1.1875 0.375,0.292969 0.83204,0.4375 1.3711,0.4375 z m 0.0508,-3.019531 c -0.41797,0 -0.76172,-0.136719 -1.02734,-0.40625 -0.26563,-0.273438 -0.39844,-0.625 -0.39844,-1.058594 0,-0.417968 0.14062,-0.765625 0.41406,-1.046875 0.27344,-0.277343 0.61328,-0.417969 1.02344,-0.417969 0.40625,0 0.74609,0.140626 1.02344,0.425782 0.27343,0.285156 0.41015,0.640625 0.41015,1.066406 0,0.417969 -0.13672,0.761719 -0.40625,1.03125 -0.27344,0.273438 -0.61719,0.40625 -1.03906,0.40625 z m 0,0"
       style="fill:#303030;fill-opacity:1;fill-rule:nonzero;stroke:none" />
  </g>
</svg>
