<?xml version="1.0" encoding="UTF-8" standalone="no"?>
<svg
   xmlns:dc="http://purl.org/dc/elements/1.1/"
   xmlns:cc="http://creativecommons.org/ns#"
   xmlns:rdf="http://www.w3.org/1999/02/22-rdf-syntax-ns#"
   xmlns:svg="http://www.w3.org/2000/svg"
   xmlns="http://www.w3.org/2000/svg"
   viewBox="0 0 960 360"
   height="360"
   width="960"
   xml:space="preserve"
   id="svg2"
   version="1.1"><metadata
     id="metadata8"><rdf:RDF><cc:Work
         rdf:about=""><dc:format>image/svg+xml</dc:format><dc:type
           rdf:resource="http://purl.org/dc/dcmitype/StillImage" /><dc:title></dc:title></cc:Work></rdf:RDF></metadata><defs
     id="defs6"><clipPath
       id="clipPath22"
       clipPathUnits="userSpaceOnUse"><path
         id="path20"
         d="M 1406.8,3503.8 H 4834 V 5059 H 1406.8 Z" /></clipPath><clipPath
       id="clipPath82"
       clipPathUnits="userSpaceOnUse"><path
         id="path80"
         d="m 816.398,2769.4 h 4320 v 2880 h -4320 z" /></clipPath><clipPath
       clipPathUnits="userSpaceOnUse"
       id="clipPath951"><path
         d="M 1406.8,3503.8 H 4834 V 5059 H 1406.8 Z"
         id="path949" /></clipPath><clipPath
       clipPathUnits="userSpaceOnUse"
       id="clipPath1017"><path
         d="m 816.398,2769.4 h 4320 v 2880 h -4320 z"
         id="path1015" /></clipPath></defs><g
     transform="matrix(1.3333333,0,0,-1.3333333,0,1056)"
     id="g10"><g
       transform="translate(-137.245,237.95702)"
       id="g1691"><g
         id="g16"
         transform="scale(0.1)"><g
           clip-path="url(#clipPath22)"
           id="g18"><path
             id="path24"
             style="fill:none;stroke:#7e7fff;stroke-width:7.5;stroke-linecap:round;stroke-linejoin:round;stroke-miterlimit:10;stroke-dasharray:none;stroke-opacity:1"
             d="m 3990.3,3905.6 16.3,8.7" /><path
             id="path26"
             style="fill:none;stroke:#7e7fff;stroke-width:7.5;stroke-linecap:round;stroke-linejoin:round;stroke-miterlimit:10;stroke-dasharray:none;stroke-opacity:1"
             d="m 3990.3,3874.7 35.1,18.9" /><path
             id="path28"
             style="fill:none;stroke:#7e7fff;stroke-width:7.5;stroke-linecap:round;stroke-linejoin:round;stroke-miterlimit:10;stroke-dasharray:none;stroke-opacity:1"
             d="m 3990.3,3843.9 54.5,29.3" /><path
             id="path30"
             style="fill:none;stroke:#7e7fff;stroke-width:7.5;stroke-linecap:round;stroke-linejoin:round;stroke-miterlimit:10;stroke-dasharray:none;stroke-opacity:1"
             d="m 3990.3,3813 74.5,40.1" /><path
             id="path32"
             style="fill:none;stroke:#7e7fff;stroke-width:7.5;stroke-linecap:round;stroke-linejoin:round;stroke-miterlimit:10;stroke-dasharray:none;stroke-opacity:1"
             d="m 3990.3,3782.2 95.1,51.1" /><path
             id="path34"
             style="fill:none;stroke:#7e7fff;stroke-width:7.5;stroke-linecap:round;stroke-linejoin:round;stroke-miterlimit:10;stroke-dasharray:none;stroke-opacity:1"
             d="m 3990.3,3751.3 116.3,62.6" /><path
             id="path36"
             style="fill:none;stroke:#7e7fff;stroke-width:7.5;stroke-linecap:round;stroke-linejoin:round;stroke-miterlimit:10;stroke-dasharray:none;stroke-opacity:1"
             d="m 3990.3,3720.5 138.3,74.3" /><path
             id="path38"
             style="fill:none;stroke:#7e7fff;stroke-width:7.5;stroke-linecap:round;stroke-linejoin:round;stroke-miterlimit:10;stroke-dasharray:none;stroke-opacity:1"
             d="m 3990.3,3689.6 161.1,86.6" /><path
             id="path40"
             style="fill:none;stroke:#7e7fff;stroke-width:7.5;stroke-linecap:round;stroke-linejoin:round;stroke-miterlimit:10;stroke-dasharray:none;stroke-opacity:1"
             d="m 3990.3,3658.8 184.8,99.3" /><path
             id="path42"
             style="fill:none;stroke:#7e7fff;stroke-width:7.5;stroke-linecap:round;stroke-linejoin:round;stroke-miterlimit:10;stroke-dasharray:none;stroke-opacity:1"
             d="m 3990.3,3627.9 209.4,112.6" /><path
             id="path44"
             style="fill:none;stroke:#7e7fff;stroke-width:7.5;stroke-linecap:round;stroke-linejoin:round;stroke-miterlimit:10;stroke-dasharray:none;stroke-opacity:1"
             d="m 3990.3,3597.1 235.1,126.3" /><path
             id="path46"
             style="fill:none;stroke:#7e7fff;stroke-width:7.5;stroke-linecap:round;stroke-linejoin:round;stroke-miterlimit:10;stroke-dasharray:none;stroke-opacity:1"
             d="M 3990.3,3566.3 4252.1,3707" /><path
             id="path48"
             style="fill:none;stroke:#7e7fff;stroke-width:7.5;stroke-linecap:round;stroke-linejoin:round;stroke-miterlimit:10;stroke-dasharray:none;stroke-opacity:1"
             d="m 4038.8,3561.4 241.4,129.8" /><path
             id="path50"
             style="fill:none;stroke:#7e7fff;stroke-width:7.5;stroke-linecap:round;stroke-linejoin:round;stroke-miterlimit:10;stroke-dasharray:none;stroke-opacity:1"
             d="m 4096.2,3561.4 213.4,114.7" /><path
             id="path52"
             style="fill:none;stroke:#7e7fff;stroke-width:7.5;stroke-linecap:round;stroke-linejoin:round;stroke-miterlimit:10;stroke-dasharray:none;stroke-opacity:1"
             d="m 4153.6,3561.4 186.8,100.5" /><path
             id="path54"
             style="fill:none;stroke:#7e7fff;stroke-width:7.5;stroke-linecap:round;stroke-linejoin:round;stroke-miterlimit:10;stroke-dasharray:none;stroke-opacity:1"
             d="m 4211,3561.4 161.9,87" /><path
             id="path56"
             style="fill:none;stroke:#7e7fff;stroke-width:7.5;stroke-linecap:round;stroke-linejoin:round;stroke-miterlimit:10;stroke-dasharray:none;stroke-opacity:1"
             d="m 4268.4,3561.4 138.6,74.5" /><path
             id="path58"
             style="fill:none;stroke:#7e7fff;stroke-width:7.5;stroke-linecap:round;stroke-linejoin:round;stroke-miterlimit:10;stroke-dasharray:none;stroke-opacity:1"
             d="m 4325.8,3561.4 117.2,63" /><path
             id="path60"
             style="fill:none;stroke:#7e7fff;stroke-width:7.5;stroke-linecap:round;stroke-linejoin:round;stroke-miterlimit:10;stroke-dasharray:none;stroke-opacity:1"
             d="m 4383.2,3561.4 97.7,52.6" /><path
             id="path62"
             style="fill:none;stroke:#7e7fff;stroke-width:7.5;stroke-linecap:round;stroke-linejoin:round;stroke-miterlimit:10;stroke-dasharray:none;stroke-opacity:1"
             d="m 4440.6,3561.4 80.2,43.2" /><path
             id="path64"
             style="fill:none;stroke:#7e7fff;stroke-width:7.5;stroke-linecap:round;stroke-linejoin:round;stroke-miterlimit:10;stroke-dasharray:none;stroke-opacity:1"
             d="m 4498,3561.4 64.8,34.9" /><path
             id="path66"
             style="fill:none;stroke:#7e7fff;stroke-width:7.5;stroke-linecap:round;stroke-linejoin:round;stroke-miterlimit:10;stroke-dasharray:none;stroke-opacity:1"
             d="m 4555.4,3561.4 51.5,27.7" /><path
             id="path68"
             style="fill:none;stroke:#7e7fff;stroke-width:7.5;stroke-linecap:round;stroke-linejoin:round;stroke-miterlimit:10;stroke-dasharray:none;stroke-opacity:1"
             d="m 4612.8,3561.4 40.1,21.6" /><path
             id="path70"
             style="fill:none;stroke:#7e7fff;stroke-width:7.5;stroke-linecap:round;stroke-linejoin:round;stroke-miterlimit:10;stroke-dasharray:none;stroke-opacity:1"
             d="m 4670.2,3561.4 30.7,16.6" /><path
             id="path72"
             style="fill:none;stroke:#7e7fff;stroke-width:7.5;stroke-linecap:round;stroke-linejoin:round;stroke-miterlimit:10;stroke-dasharray:none;stroke-opacity:1"
             d="m 3990.3,3561.4 v 371.3 l 5.3,-6 5.3,-6.1 5.3,-5.9 5.3,-5.9 5.3,-5.8 5.3,-5.8 5.2,-5.7 5.3,-5.6 5.3,-5.5 5.3,-5.5 5.3,-5.5 5.3,-5.4 5.3,-5.3 5.3,-5.2 5.3,-5.2 5.2,-5.1 5.3,-5.1 5.3,-4.9 5.3,-5 5.3,-4.8 5.3,-4.8 5.3,-4.8 5.3,-4.7 5.3,-4.6 5.2,-4.5 5.3,-4.5 5.3,-4.4 5.3,-4.4 5.3,-4.3 5.3,-4.2 5.3,-4.2 5.3,-4.2 5.3,-4 5.2,-4 5.3,-4 5.3,-3.9 5.3,-3.8 5.3,-3.8 5.3,-3.7 5.3,-3.6 5.3,-3.6 5.3,-3.6 5.2,-3.5 5.3,-3.4 5.3,-3.4 5.3,-3.3 5.3,-3.3 5.3,-3.2 5.3,-3.2 5.3,-3.1 5.3,-3.1 5.2,-3 5.3,-2.9 5.3,-2.9 5.3,-2.9 5.3,-2.8 5.3,-2.8 5.3,-2.7 5.3,-2.6 5.3,-2.7 5.2,-2.5 5.3,-2.6 5.3,-2.4 5.3,-2.5 5.3,-2.4 5.3,-2.3 5.3,-2.3 5.3,-2.3 5.3,-2.2 5.2,-2.2 5.3,-2.1 5.3,-2.1 5.3,-2 5.3,-2.1 5.3,-1.9 5.3,-2 5.3,-1.9 5.3,-1.8 5.2,-1.8 5.3,-1.8 5.3,-1.8 5.3,-1.7 5.3,-1.7 5.3,-1.6 5.3,-1.6 5.3,-1.6 5.3,-1.6 5.2,-1.5 5.3,-1.5 5.3,-1.4 5.3,-1.4 5.3,-1.4 5.3,-1.4 5.3,-1.3 5.3,-1.3 5.3,-1.3 5.2,-1.2 5.3,-1.2 5.3,-1.2 5.3,-1.2 5.3,-1.1 5.3,-1.1 5.3,-1.1 5.3,-1.1 5.3,-1 5.2,-1 5.3,-1 5.3,-1 5.3,-0.9 5.3,-0.9 5.3,-0.9 5.3,-0.9 5.3,-0.9 5.3,-0.8 5.2,-0.8 5.3,-0.8 5.3,-0.8 5.3,-0.8 5.3,-0.7 5.3,-0.7 5.3,-0.7 5.3,-0.7 5.3,-0.7 5.2,-0.7 5.3,-0.6 5.3,-0.6 5.3,-0.6 5.3,-0.6 5.3,-0.6 5.3,-0.6 5.3,-0.5 5.3,-0.5 5.2,-0.6 5.3,-0.5 5.3,-0.4 2.7,-0.3 v -16 h -716.7" /><path
             id="path74"
             style="fill:none;stroke:#000000;stroke-width:22.5;stroke-linecap:round;stroke-linejoin:round;stroke-miterlimit:10;stroke-dasharray:none;stroke-opacity:1"
             d="m 1533.7,3577.4 5.3,0.5 5.3,0.5 5.3,0.5 5.3,0.5 5.3,0.6 5.2,0.5 5.3,0.6 5.3,0.6 5.3,0.6 5.3,0.6 5.3,0.6 5.3,0.7 5.3,0.6 5.3,0.7 5.2,0.7 5.3,0.7 5.3,0.7 5.3,0.8 5.3,0.8 5.3,0.7 5.3,0.9 5.3,0.8 5.3,0.8 5.2,0.9 5.3,0.9 5.3,0.9 5.3,0.9 5.3,1 5.3,1 5.3,1 5.3,1 5.3,1 5.2,1.1 5.3,1.1 5.3,1.1 5.3,1.2 5.3,1.2 5.3,1.2 5.3,1.2 5.3,1.2 5.3,1.3 5.2,1.3 5.3,1.4 5.3,1.4 5.3,1.4 5.3,1.4 5.3,1.5 5.3,1.5 5.3,1.5 5.3,1.6 5.2,1.5 5.3,1.7 5.3,1.6 5.3,1.7 5.3,1.8 5.3,1.7 5.3,1.8 5.3,1.9 5.3,1.9 5.2,1.9 5.3,1.9 5.3,2 5.3,2 5.3,2.1 5.3,2.1 5.3,2.2 5.3,2.2 5.3,2.2 5.2,2.3 5.3,2.3 5.3,2.4 5.3,2.4 5.3,2.5 5.3,2.5 5.3,2.5 5.3,2.6 5.3,2.6 5.2,2.7 5.3,2.8 5.3,2.8 5.3,2.8 5.3,2.9 5.3,2.9 5.3,3 5.3,3 5.3,3.1 5.2,3.2 5.3,3.1 5.3,3.3 5.3,3.3 5.3,3.3 5.3,3.4 5.3,3.5 5.3,3.5 5.3,3.6 5.2,3.6 5.3,3.7 5.3,3.8 5.3,3.8 5.3,3.8 5.3,3.9 5.3,4 5.3,4 5.3,4.1 5.2,4.2 5.3,4.2 5.3,4.3 5.3,4.3 5.3,4.4 5.3,4.5 5.3,4.5 5.3,4.6 5.3,4.6 5.2,4.7 5.3,4.8 5.3,4.8 5.3,4.9 5.3,5 5.3,5 5.3,5.1 5.3,5.1 5.3,5.2 5.2,5.3 5.3,5.3 5.3,5.4 5.3,5.5 5.3,5.5 5.3,5.6 5.3,5.7 5.3,5.7 5.3,5.8 5.2,5.9 5.3,5.9 5.3,6 5.3,6 5.3,6.1 5.3,6.2 5.3,6.2 5.3,6.3 5.3,6.4 5.2,6.4 5.3,6.5 5.3,6.5 5.3,6.6 5.3,6.7 5.3,6.7 5.3,6.8 5.3,6.8 5.3,6.9 5.2,7 5.3,7 5.3,7.1 5.3,7.2 5.3,7.1 5.3,7.3 5.3,7.3 5.3,7.4 5.3,7.4 5.2,7.4 5.3,7.6 5.3,7.5 5.3,7.7 5.3,7.6 5.3,7.8 5.3,7.7 5.3,7.8 5.3,7.9 5.2,7.9 5.3,8 5.3,8 5.3,8 5.3,8.1 5.3,8.1 5.3,8.2 5.3,8.2 5.3,8.2 5.2,8.3 5.3,8.3 5.3,8.3 5.3,8.4 5.3,8.4 5.3,8.5 5.3,8.4 5.3,8.5 5.3,8.5 5.2,8.6 5.3,8.5 5.3,8.6 5.3,8.6 5.3,8.6 5.3,8.7 5.3,8.6 5.3,8.7 5.3,8.6 5.2,8.7 5.3,8.7 5.3,8.7 5.3,8.7 5.3,8.7 5.3,8.7 5.3,8.8 5.3,8.7 5.3,8.7 5.2,8.7 5.3,8.7 5.3,8.6 5.3,8.7 5.3,8.7 5.3,8.6 5.3,8.7 5.3,8.6 5.3,8.6 5.2,8.5 5.3,8.6 5.3,8.5 5.3,8.5 5.3,8.4 5.3,8.5 5.3,8.4 5.3,8.3 5.3,8.4 5.2,8.2 5.3,8.3 5.3,8.2 5.3,8.1 5.3,8.2 5.3,8 5.3,8 5.3,8 5.3,7.9 5.2,7.8 5.3,7.8 5.3,7.7 5.3,7.7 5.3,7.5 5.3,7.6 5.3,7.4 5.3,7.4 5.3,7.3 5.2,7.3 5.3,7.1 5.3,7.1 5.3,7 5.3,6.9 5.3,6.8 5.3,6.8 5.3,6.7 5.3,6.5 5.2,6.5 5.3,6.4 5.3,6.3 5.3,6.2 5.3,6.1 5.3,6 5.3,5.8 5.3,5.8 5.3,5.7 5.2,5.6 5.3,5.5 5.3,5.3 5.3,5.3 5.3,5.1 5.3,5 5.3,4.9 5.3,4.8 5.3,4.7 5.2,4.5 5.3,4.5 5.3,4.3 5.3,4.1 5.3,4.1 5.3,3.9 5.3,3.8 5.3,3.7 5.3,3.6 5.2,3.4 5.3,3.3 5.3,3.1 5.3,3 5.3,2.9 5.3,2.8 5.3,2.6 5.3,2.4 5.3,2.4 5.2,2.2 5.3,2 5.3,2 5.3,1.7 5.3,1.7 5.3,1.5 5.3,1.3 5.3,1.3 5.3,1 5.2,1 5.3,0.7 5.3,0.7 5.3,0.5 5.3,0.4 5.3,0.2 h 5.3 5.3 l 5.3,-0.2 5.2,-0.4 5.3,-0.5 5.3,-0.7 5.3,-0.7 5.3,-1 5.3,-1 5.3,-1.3 5.3,-1.3 5.3,-1.5 5.2,-1.7 5.3,-1.7 5.3,-2 5.3,-2 5.3,-2.2 5.3,-2.4 5.3,-2.4 5.3,-2.6 5.3,-2.8 5.2,-2.9 5.3,-3 5.3,-3.1 5.3,-3.3 5.3,-3.4 5.3,-3.6 5.3,-3.7 5.3,-3.8 5.3,-3.9 5.2,-4.1 5.3,-4.1 5.3,-4.3 5.3,-4.5 5.3,-4.5 5.3,-4.7 5.3,-4.8 5.3,-4.9 5.3,-5 5.2,-5.1 5.3,-5.3 5.3,-5.3 5.3,-5.5 5.3,-5.6 5.3,-5.7 5.3,-5.8 5.3,-5.8 5.3,-6 5.2,-6.1 5.3,-6.2 5.3,-6.3 5.3,-6.4 5.3,-6.5 5.3,-6.5 5.3,-6.7 5.3,-6.8 5.3,-6.8 5.2,-6.9 5.3,-7 5.3,-7.1 5.3,-7.1 5.3,-7.3 5.3,-7.3 5.3,-7.4 5.3,-7.4 5.3,-7.6 5.2,-7.5 5.3,-7.7 5.3,-7.7 5.3,-7.8 5.3,-7.8 5.3,-7.9 5.3,-8 5.3,-8 5.3,-8 5.2,-8.2 5.3,-8.1 5.3,-8.2 5.3,-8.3 5.3,-8.2 5.3,-8.4 5.3,-8.3 5.3,-8.4 5.3,-8.5 5.2,-8.4 5.3,-8.5 5.3,-8.5 5.3,-8.6 5.3,-8.5 5.3,-8.6 5.3,-8.6 5.3,-8.7 5.3,-8.6 5.2,-8.7 5.3,-8.7 5.3,-8.6 5.3,-8.7 5.3,-8.7 5.3,-8.7 5.3,-8.7 5.3,-8.8 5.3,-8.7 5.2,-8.7 5.3,-8.7 5.3,-8.7 5.3,-8.7 5.3,-8.7 5.3,-8.6 5.3,-8.7 5.3,-8.6 5.3,-8.7 5.2,-8.6 5.3,-8.6 5.3,-8.6 5.3,-8.5 5.3,-8.6 5.3,-8.5 5.3,-8.5 5.3,-8.4 5.3,-8.5 5.2,-8.4 5.3,-8.4 5.3,-8.3 5.3,-8.3 5.3,-8.3 5.3,-8.2 5.3,-8.2 5.3,-8.2 5.3,-8.1 5.2,-8.1 5.3,-8 5.3,-8 5.3,-8 5.3,-7.9 5.3,-7.9 5.3,-7.8 5.3,-7.7 5.3,-7.8 5.2,-7.6 5.3,-7.7 5.3,-7.5 5.3,-7.6 5.3,-7.4 5.3,-7.4 5.3,-7.4 5.3,-7.3 5.3,-7.3 5.2,-7.1 5.3,-7.2 5.3,-7.1 5.3,-7 5.3,-7 5.3,-6.9 5.3,-6.8 5.3,-6.8 5.3,-6.7 5.2,-6.7 5.3,-6.6 5.3,-6.5 5.3,-6.5 5.3,-6.4 5.3,-6.4 5.3,-6.3 5.3,-6.2 5.3,-6.2 5.2,-6.1 5.3,-6 5.3,-6 5.3,-5.9 5.3,-5.9 5.3,-5.8 5.3,-5.7 5.3,-5.7 5.3,-5.6 5.2,-5.5 5.3,-5.5 5.3,-5.4 5.3,-5.3 5.3,-5.3 5.3,-5.2 5.3,-5.1 5.3,-5.1 5.3,-5 5.2,-5 5.3,-4.9 5.3,-4.8 5.3,-4.8 5.3,-4.7 5.3,-4.6 5.3,-4.6 5.3,-4.5 5.3,-4.5 5.2,-4.4 5.3,-4.3 5.3,-4.3 5.3,-4.2 5.3,-4.2 5.3,-4.1 5.3,-4 5.3,-4 5.3,-3.9 5.2,-3.8 5.3,-3.8 5.3,-3.8 5.3,-3.7 5.3,-3.6 5.3,-3.6 5.3,-3.5 5.3,-3.5 5.3,-3.4 5.2,-3.3 5.3,-3.3 5.3,-3.3 5.3,-3.1 5.3,-3.2 5.3,-3.1 5.3,-3 5.3,-3 5.3,-2.9 5.2,-2.9 5.3,-2.8 5.3,-2.8 5.3,-2.8 5.3,-2.7 5.3,-2.6 5.3,-2.6 5.3,-2.5 5.3,-2.5 5.2,-2.5 5.3,-2.4 5.3,-2.4 5.3,-2.3 5.3,-2.3 5.3,-2.2 5.3,-2.2 5.3,-2.2 5.3,-2.1 5.2,-2.1 5.3,-2 5.3,-2 5.3,-1.9 5.3,-1.9 5.3,-1.9 5.3,-1.9 5.3,-1.8 5.3,-1.7 5.2,-1.8 5.3,-1.7 5.3,-1.6 5.3,-1.7 5.3,-1.5 5.3,-1.6 5.3,-1.5 5.3,-1.5 5.3,-1.5 5.2,-1.4 5.3,-1.4 5.3,-1.4 5.3,-1.4 5.3,-1.3 5.3,-1.3 5.3,-1.2 5.3,-1.2 5.3,-1.2 5.2,-1.2 5.3,-1.2 5.3,-1.1 5.3,-1.1 5.3,-1.1 5.3,-1 5.3,-1 5.3,-1 5.3,-1 5.2,-1 5.3,-0.9 5.3,-0.9 5.3,-0.9 5.3,-0.9 5.3,-0.8 5.3,-0.8 5.3,-0.9 5.3,-0.7 5.2,-0.8 5.3,-0.8 5.3,-0.7 5.3,-0.7 5.3,-0.7 5.3,-0.7 5.3,-0.6 5.3,-0.7 5.3,-0.6 5.2,-0.6 5.3,-0.6 5.3,-0.6 5.3,-0.6 5.3,-0.5 5.3,-0.6 5.3,-0.5 5.3,-0.5 5.3,-0.5 5.2,-0.5" /></g></g><g
         id="g76"
         transform="scale(0.1)"><g
           clip-path="url(#clipPath82)"
           id="g78"><path
             id="path84"
             style="fill:none;stroke:#000000;stroke-width:7.5;stroke-linecap:round;stroke-linejoin:round;stroke-miterlimit:10;stroke-dasharray:none;stroke-opacity:1"
             d="M 1533.7,3503.8 H 4707" /><path
             id="path86"
             style="fill:none;stroke:#000000;stroke-width:7.5;stroke-linecap:round;stroke-linejoin:round;stroke-miterlimit:10;stroke-dasharray:none;stroke-opacity:1"
             d="m 1533.7,3503.8 v -72" /><path
             id="path88"
             style="fill:none;stroke:#000000;stroke-width:7.5;stroke-linecap:round;stroke-linejoin:round;stroke-miterlimit:10;stroke-dasharray:none;stroke-opacity:1"
             d="m 3120.4,3503.8 v -72" /><path
             id="path90"
             style="fill:none;stroke:#000000;stroke-width:7.5;stroke-linecap:round;stroke-linejoin:round;stroke-miterlimit:10;stroke-dasharray:none;stroke-opacity:1"
             d="m 3987.8,3503.8 v -72" /><path
             id="path92"
             style="fill:none;stroke:#000000;stroke-width:7.5;stroke-linecap:round;stroke-linejoin:round;stroke-miterlimit:10;stroke-dasharray:none;stroke-opacity:1"
             d="m 4707,3503.8 v -72" /><g
             transform="scale(10)"
             id="g94"><text
               id="text98"
               style="font-variant:normal;font-weight:normal;font-size:16px;font-family:Helvetica;-inkscape-font-specification:Helvetica;writing-mode:lr-tb;fill:#000000;fill-opacity:1;fill-rule:nonzero;stroke:none"
               transform="matrix(1,0,0,-1,307.592,324.46)"><tspan
                 id="tspan96"
                 y="0"
                 x="0 75.620323 84.516319 88.964317 97.860321">01.64</tspan></text><text
               id="text102"
               style="font-variant:normal;font-weight:normal;font-size:19px;font-family:Helvetica;-inkscape-font-specification:Helvetica;writing-mode:lr-tb;fill:#000000;fill-opacity:1;fill-rule:nonzero;stroke:none"
               transform="matrix(1,0,0,-1,246.0299,528.6)"><tspan
                 id="tspan100"
                 y="0"
                 x="0 14.782 25.346001 35.91 41.192001 53.865002 58.083 68.647003 79.210999 89.775002 95.056999 104.38594 114.94994 124.44994">One Sided Test</tspan></text><text
               id="text106"
               style="font-variant:normal;font-weight:normal;font-size:16px;font-family:Helvetica;-inkscape-font-specification:Helvetica;writing-mode:lr-tb;fill:#000000;fill-opacity:1;fill-rule:nonzero;stroke:none"
               transform="matrix(1,0,0,-1,246.2299,295.66)"><tspan
                 id="tspan104"
                 y="0"
                 x="0 9.5519571 18.447956 21.999956 30.895956 39.791958 44.239956 53.135956 57.583958 62.031956 70.03196 74.479958 85.151955 89.59996 98.495956 102.94395 106.49596 114.49596 118.94395 122.49596">Value of z Statistic</tspan></text></g></g></g></g><g
       transform="translate(237.00501,237.95702)"
       id="g1786"><g
         transform="scale(0.1)"
         id="g945"><g
           id="g947"
           clip-path="url(#clipPath951)"><path
             d="m 4157,3748.4 18.1,9.7"
             style="fill:none;stroke:#7e7fff;stroke-width:7.5;stroke-linecap:round;stroke-linejoin:round;stroke-miterlimit:10;stroke-dasharray:none;stroke-opacity:1"
             id="path953" /><path
             d="m 4157,3717.5 42.7,23"
             style="fill:none;stroke:#7e7fff;stroke-width:7.5;stroke-linecap:round;stroke-linejoin:round;stroke-miterlimit:10;stroke-dasharray:none;stroke-opacity:1"
             id="path955" /><path
             d="m 4157,3686.7 68.3,36.7"
             style="fill:none;stroke:#7e7fff;stroke-width:7.5;stroke-linecap:round;stroke-linejoin:round;stroke-miterlimit:10;stroke-dasharray:none;stroke-opacity:1"
             id="path957" /><path
             d="m 4157,3655.8 95.1,51.2"
             style="fill:none;stroke:#7e7fff;stroke-width:7.5;stroke-linecap:round;stroke-linejoin:round;stroke-miterlimit:10;stroke-dasharray:none;stroke-opacity:1"
             id="path959" /><path
             d="m 4157,3625 123.2,66.2"
             style="fill:none;stroke:#7e7fff;stroke-width:7.5;stroke-linecap:round;stroke-linejoin:round;stroke-miterlimit:10;stroke-dasharray:none;stroke-opacity:1"
             id="path961" /><path
             d="m 4157,3594.1 152.6,82"
             style="fill:none;stroke:#7e7fff;stroke-width:7.5;stroke-linecap:round;stroke-linejoin:round;stroke-miterlimit:10;stroke-dasharray:none;stroke-opacity:1"
             id="path963" /><path
             d="m 4157,3563.3 183.4,98.6"
             style="fill:none;stroke:#7e7fff;stroke-width:7.5;stroke-linecap:round;stroke-linejoin:round;stroke-miterlimit:10;stroke-dasharray:none;stroke-opacity:1"
             id="path965" /><path
             d="m 4211,3561.4 161.8,87"
             style="fill:none;stroke:#7e7fff;stroke-width:7.5;stroke-linecap:round;stroke-linejoin:round;stroke-miterlimit:10;stroke-dasharray:none;stroke-opacity:1"
             id="path967" /><path
             d="m 4268.4,3561.4 138.6,74.5"
             style="fill:none;stroke:#7e7fff;stroke-width:7.5;stroke-linecap:round;stroke-linejoin:round;stroke-miterlimit:10;stroke-dasharray:none;stroke-opacity:1"
             id="path969" /><path
             d="m 4325.8,3561.4 117.2,63"
             style="fill:none;stroke:#7e7fff;stroke-width:7.5;stroke-linecap:round;stroke-linejoin:round;stroke-miterlimit:10;stroke-dasharray:none;stroke-opacity:1"
             id="path971" /><path
             d="m 4383.2,3561.4 97.7,52.6"
             style="fill:none;stroke:#7e7fff;stroke-width:7.5;stroke-linecap:round;stroke-linejoin:round;stroke-miterlimit:10;stroke-dasharray:none;stroke-opacity:1"
             id="path973" /><path
             d="m 4440.6,3561.4 80.2,43.2"
             style="fill:none;stroke:#7e7fff;stroke-width:7.5;stroke-linecap:round;stroke-linejoin:round;stroke-miterlimit:10;stroke-dasharray:none;stroke-opacity:1"
             id="path975" /><path
             d="m 4498,3561.4 64.8,34.9"
             style="fill:none;stroke:#7e7fff;stroke-width:7.5;stroke-linecap:round;stroke-linejoin:round;stroke-miterlimit:10;stroke-dasharray:none;stroke-opacity:1"
             id="path977" /><path
             d="m 4555.4,3561.4 51.5,27.7"
             style="fill:none;stroke:#7e7fff;stroke-width:7.5;stroke-linecap:round;stroke-linejoin:round;stroke-miterlimit:10;stroke-dasharray:none;stroke-opacity:1"
             id="path979" /><path
             d="m 4612.8,3561.4 40.1,21.6"
             style="fill:none;stroke:#7e7fff;stroke-width:7.5;stroke-linecap:round;stroke-linejoin:round;stroke-miterlimit:10;stroke-dasharray:none;stroke-opacity:1"
             id="path981" /><path
             d="m 4670.2,3561.4 30.7,16.6"
             style="fill:none;stroke:#7e7fff;stroke-width:7.5;stroke-linecap:round;stroke-linejoin:round;stroke-miterlimit:10;stroke-dasharray:none;stroke-opacity:1"
             id="path983" /><path
             d="m 4157,3561.4 v 210.5 l 5.3,-4.1 5.3,-4.1 5.2,-4 5.3,-3.9 5.3,-3.8 5.3,-3.8 5.3,-3.8 5.3,-3.7 5.3,-3.6 5.3,-3.6 5.3,-3.5 5.2,-3.4 5.3,-3.4 5.3,-3.4 5.3,-3.3 5.3,-3.2 5.3,-3.2 5.3,-3.2 5.3,-3.1 5.3,-3 5.2,-3 5.3,-2.9 5.3,-2.9 5.3,-2.8 5.3,-2.8 5.3,-2.8 5.3,-2.6 5.3,-2.7 5.3,-2.6 5.2,-2.5 5.3,-2.5 5.3,-2.5 5.3,-2.4 5.3,-2.4 5.3,-2.3 5.3,-2.3 5.3,-2.2 5.3,-2.2 5.2,-2.2 5.3,-2.1 5.3,-2 5.3,-2.1 5.3,-2 5.3,-1.9 5.3,-1.9 5.3,-1.9 5.3,-1.9 5.2,-1.8 5.3,-1.7 5.3,-1.8 5.3,-1.7 5.3,-1.6 5.3,-1.6 5.3,-1.6 5.3,-1.6 5.3,-1.5 5.2,-1.5 5.3,-1.5 5.3,-1.4 5.3,-1.4 5.3,-1.4 5.3,-1.3 5.3,-1.4 5.3,-1.2 5.3,-1.3 5.2,-1.2 5.3,-1.2 5.3,-1.2 5.3,-1.2 5.3,-1.1 5.3,-1.1 5.3,-1.1 5.3,-1 5.3,-1 5.2,-1 5.3,-1 5.3,-1 5.3,-0.9 5.3,-0.9 5.3,-0.9 5.3,-0.9 5.3,-0.8 5.3,-0.8 5.2,-0.9 5.3,-0.7 5.3,-0.8 5.3,-0.8 5.3,-0.7 5.3,-0.7 5.3,-0.7 5.3,-0.7 5.3,-0.6 5.2,-0.7 5.3,-0.6 5.3,-0.6 5.3,-0.6 5.3,-0.6 5.3,-0.6 5.3,-0.5 5.3,-0.6 5.3,-0.5 5.2,-0.5 5.3,-0.5 5.3,-0.5 v 0 -16 h -550"
             style="fill:none;stroke:#7e7fff;stroke-width:7.5;stroke-linecap:round;stroke-linejoin:round;stroke-miterlimit:10;stroke-dasharray:none;stroke-opacity:1"
             id="path985" /><path
             d="m 1533.7,3572.5 11.1,5.9"
             style="fill:none;stroke:#7e7fff;stroke-width:7.5;stroke-linecap:round;stroke-linejoin:round;stroke-miterlimit:10;stroke-dasharray:none;stroke-opacity:1"
             id="path987" /><path
             d="m 1570.6,3561.4 47.2,25.4"
             style="fill:none;stroke:#7e7fff;stroke-width:7.5;stroke-linecap:round;stroke-linejoin:round;stroke-miterlimit:10;stroke-dasharray:none;stroke-opacity:1"
             id="path989" /><path
             d="m 1628,3561.4 72.9,39.2"
             style="fill:none;stroke:#7e7fff;stroke-width:7.5;stroke-linecap:round;stroke-linejoin:round;stroke-miterlimit:10;stroke-dasharray:none;stroke-opacity:1"
             id="path991" /><path
             d="m 1685.4,3561.4 123.5,66.4"
             style="fill:none;stroke:#7e7fff;stroke-width:7.5;stroke-linecap:round;stroke-linejoin:round;stroke-miterlimit:10;stroke-dasharray:none;stroke-opacity:1"
             id="path993" /><path
             d="m 1742.8,3561.4 341,183.3"
             style="fill:none;stroke:#7e7fff;stroke-width:7.5;stroke-linecap:round;stroke-linejoin:round;stroke-miterlimit:10;stroke-dasharray:none;stroke-opacity:1"
             id="path995" /><path
             d="m 1800.2,3561.4 283.6,152.5"
             style="fill:none;stroke:#7e7fff;stroke-width:7.5;stroke-linecap:round;stroke-linejoin:round;stroke-miterlimit:10;stroke-dasharray:none;stroke-opacity:1"
             id="path997" /><path
             d="M 1857.6,3561.4 2083.8,3683"
             style="fill:none;stroke:#7e7fff;stroke-width:7.5;stroke-linecap:round;stroke-linejoin:round;stroke-miterlimit:10;stroke-dasharray:none;stroke-opacity:1"
             id="path999" /><path
             d="m 1915,3561.4 168.8,90.8"
             style="fill:none;stroke:#7e7fff;stroke-width:7.5;stroke-linecap:round;stroke-linejoin:round;stroke-miterlimit:10;stroke-dasharray:none;stroke-opacity:1"
             id="path1001" /><path
             d="m 1972.4,3561.4 111.4,59.9"
             style="fill:none;stroke:#7e7fff;stroke-width:7.5;stroke-linecap:round;stroke-linejoin:round;stroke-miterlimit:10;stroke-dasharray:none;stroke-opacity:1"
             id="path1003" /><path
             d="m 2029.8,3561.4 54,29.1"
             style="fill:none;stroke:#7e7fff;stroke-width:7.5;stroke-linecap:round;stroke-linejoin:round;stroke-miterlimit:10;stroke-dasharray:none;stroke-opacity:1"
             id="path1005" /><path
             d="m 1533.7,3561.4 v 16 l 5.3,0.5 5.3,0.5 5.3,0.5 5.3,0.5 5.3,0.6 5.2,0.5 5.3,0.6 5.3,0.6 5.3,0.6 5.3,0.6 5.3,0.6 5.3,0.7 5.3,0.6 5.3,0.7 5.2,0.7 5.3,0.7 5.3,0.7 5.3,0.8 5.3,0.8 5.3,0.7 5.3,0.9 5.3,0.8 5.3,0.8 5.2,0.9 5.3,0.9 5.3,0.9 5.3,0.9 5.3,1 5.3,1 5.3,1 5.3,1 5.3,1 5.2,1.1 5.3,1.1 5.3,1.1 5.3,1.2 5.3,1.2 5.3,1.2 5.3,1.2 5.3,1.2 5.3,1.3 5.2,1.3 5.3,1.4 5.3,1.4 5.3,1.4 5.3,1.4 5.3,1.5 5.3,1.5 5.3,1.5 5.3,1.6 5.2,1.5 5.3,1.7 5.3,1.6 5.3,1.7 5.3,1.8 5.3,1.7 5.3,1.8 5.3,1.9 5.3,1.9 5.2,1.9 5.3,1.9 5.3,2 5.3,2 5.3,2.1 5.3,2.1 5.3,2.2 5.3,2.2 5.3,2.2 5.2,2.3 5.3,2.3 5.3,2.4 5.3,2.4 5.3,2.5 5.3,2.5 5.3,2.5 5.3,2.6 5.3,2.6 5.2,2.7 5.3,2.8 5.3,2.8 5.3,2.8 5.3,2.9 5.3,2.9 5.3,3 5.3,3 5.3,3.1 5.2,3.2 5.3,3.1 5.3,3.3 5.3,3.3 5.3,3.3 5.3,3.4 5.3,3.5 5.3,3.5 5.3,3.6 5.2,3.6 5.3,3.7 5.3,3.8 5.3,3.8 5.3,3.8 5.3,3.9 5.3,4 5.3,4 5.3,4.1 v 0.1 -210.5 h -550.1"
             style="fill:none;stroke:#7e7fff;stroke-width:7.5;stroke-linecap:round;stroke-linejoin:round;stroke-miterlimit:10;stroke-dasharray:none;stroke-opacity:1"
             id="path1007" /><path
             d="m 1533.7,3577.4 5.3,0.5 5.3,0.5 5.3,0.5 5.3,0.5 5.3,0.6 5.2,0.5 5.3,0.6 5.3,0.6 5.3,0.6 5.3,0.6 5.3,0.6 5.3,0.7 5.3,0.6 5.3,0.7 5.2,0.7 5.3,0.7 5.3,0.7 5.3,0.8 5.3,0.8 5.3,0.7 5.3,0.9 5.3,0.8 5.3,0.8 5.2,0.9 5.3,0.9 5.3,0.9 5.3,0.9 5.3,1 5.3,1 5.3,1 5.3,1 5.3,1 5.2,1.1 5.3,1.1 5.3,1.1 5.3,1.2 5.3,1.2 5.3,1.2 5.3,1.2 5.3,1.2 5.3,1.3 5.2,1.3 5.3,1.4 5.3,1.4 5.3,1.4 5.3,1.4 5.3,1.5 5.3,1.5 5.3,1.5 5.3,1.6 5.2,1.5 5.3,1.7 5.3,1.6 5.3,1.7 5.3,1.8 5.3,1.7 5.3,1.8 5.3,1.9 5.3,1.9 5.2,1.9 5.3,1.9 5.3,2 5.3,2 5.3,2.1 5.3,2.1 5.3,2.2 5.3,2.2 5.3,2.2 5.2,2.3 5.3,2.3 5.3,2.4 5.3,2.4 5.3,2.5 5.3,2.5 5.3,2.5 5.3,2.6 5.3,2.6 5.2,2.7 5.3,2.8 5.3,2.8 5.3,2.8 5.3,2.9 5.3,2.9 5.3,3 5.3,3 5.3,3.1 5.2,3.2 5.3,3.1 5.3,3.3 5.3,3.3 5.3,3.3 5.3,3.4 5.3,3.5 5.3,3.5 5.3,3.6 5.2,3.6 5.3,3.7 5.3,3.8 5.3,3.8 5.3,3.8 5.3,3.9 5.3,4 5.3,4 5.3,4.1 5.2,4.2 5.3,4.2 5.3,4.3 5.3,4.3 5.3,4.4 5.3,4.5 5.3,4.5 5.3,4.6 5.3,4.6 5.2,4.7 5.3,4.8 5.3,4.8 5.3,4.9 5.3,5 5.3,5 5.3,5.1 5.3,5.1 5.3,5.2 5.2,5.3 5.3,5.3 5.3,5.4 5.3,5.5 5.3,5.5 5.3,5.6 5.3,5.7 5.3,5.7 5.3,5.8 5.2,5.9 5.3,5.9 5.3,6 5.3,6 5.3,6.1 5.3,6.2 5.3,6.2 5.3,6.3 5.3,6.4 5.2,6.4 5.3,6.5 5.3,6.5 5.3,6.6 5.3,6.7 5.3,6.7 5.3,6.8 5.3,6.8 5.3,6.9 5.2,7 5.3,7 5.3,7.1 5.3,7.2 5.3,7.1 5.3,7.3 5.3,7.3 5.3,7.4 5.3,7.4 5.2,7.4 5.3,7.6 5.3,7.5 5.3,7.7 5.3,7.6 5.3,7.8 5.3,7.7 5.3,7.8 5.3,7.9 5.2,7.9 5.3,8 5.3,8 5.3,8 5.3,8.1 5.3,8.1 5.3,8.2 5.3,8.2 5.3,8.2 5.2,8.3 5.3,8.3 5.3,8.3 5.3,8.4 5.3,8.4 5.3,8.5 5.3,8.4 5.3,8.5 5.3,8.5 5.2,8.6 5.3,8.5 5.3,8.6 5.3,8.6 5.3,8.6 5.3,8.7 5.3,8.6 5.3,8.7 5.3,8.6 5.2,8.7 5.3,8.7 5.3,8.7 5.3,8.7 5.3,8.7 5.3,8.7 5.3,8.8 5.3,8.7 5.3,8.7 5.2,8.7 5.3,8.7 5.3,8.6 5.3,8.7 5.3,8.7 5.3,8.6 5.3,8.7 5.3,8.6 5.3,8.6 5.2,8.5 5.3,8.6 5.3,8.5 5.3,8.5 5.3,8.4 5.3,8.5 5.3,8.4 5.3,8.3 5.3,8.4 5.2,8.2 5.3,8.3 5.3,8.2 5.3,8.1 5.3,8.2 5.3,8 5.3,8 5.3,8 5.3,7.9 5.2,7.8 5.3,7.8 5.3,7.7 5.3,7.7 5.3,7.5 5.3,7.6 5.3,7.4 5.3,7.4 5.3,7.3 5.2,7.3 5.3,7.1 5.3,7.1 5.3,7 5.3,6.9 5.3,6.8 5.3,6.8 5.3,6.7 5.3,6.5 5.2,6.5 5.3,6.4 5.3,6.3 5.3,6.2 5.3,6.1 5.3,6 5.3,5.8 5.3,5.8 5.3,5.7 5.2,5.6 5.3,5.5 5.3,5.3 5.3,5.3 5.3,5.1 5.3,5 5.3,4.9 5.3,4.8 5.3,4.7 5.2,4.5 5.3,4.5 5.3,4.3 5.3,4.1 5.3,4.1 5.3,3.9 5.3,3.8 5.3,3.7 5.3,3.6 5.2,3.4 5.3,3.3 5.3,3.1 5.3,3 5.3,2.9 5.3,2.8 5.3,2.6 5.3,2.4 5.3,2.4 5.2,2.2 5.3,2 5.3,2 5.3,1.7 5.3,1.7 5.3,1.5 5.3,1.3 5.3,1.3 5.3,1 5.2,1 5.3,0.7 5.3,0.7 5.3,0.5 5.3,0.4 5.3,0.2 h 5.3 5.3 l 5.3,-0.2 5.2,-0.4 5.3,-0.5 5.3,-0.7 5.3,-0.7 5.3,-1 5.3,-1 5.3,-1.3 5.3,-1.3 5.3,-1.5 5.2,-1.7 5.3,-1.7 5.3,-2 5.3,-2 5.3,-2.2 5.3,-2.4 5.3,-2.4 5.3,-2.6 5.3,-2.8 5.2,-2.9 5.3,-3 5.3,-3.1 5.3,-3.3 5.3,-3.4 5.3,-3.6 5.3,-3.7 5.3,-3.8 5.3,-3.9 5.2,-4.1 5.3,-4.1 5.3,-4.3 5.3,-4.5 5.3,-4.5 5.3,-4.7 5.3,-4.8 5.3,-4.9 5.3,-5 5.2,-5.1 5.3,-5.3 5.3,-5.3 5.3,-5.5 5.3,-5.6 5.3,-5.7 5.3,-5.8 5.3,-5.8 5.3,-6 5.2,-6.1 5.3,-6.2 5.3,-6.3 5.3,-6.4 5.3,-6.5 5.3,-6.5 5.3,-6.7 5.3,-6.8 5.3,-6.8 5.2,-6.9 5.3,-7 5.3,-7.1 5.3,-7.1 5.3,-7.3 5.3,-7.3 5.3,-7.4 5.3,-7.4 5.3,-7.6 5.2,-7.5 5.3,-7.7 5.3,-7.7 5.3,-7.8 5.3,-7.8 5.3,-7.9 5.3,-8 5.3,-8 5.3,-8 5.2,-8.2 5.3,-8.1 5.3,-8.2 5.3,-8.3 5.3,-8.2 5.3,-8.4 5.3,-8.3 5.3,-8.4 5.3,-8.5 5.2,-8.4 5.3,-8.5 5.3,-8.5 5.3,-8.6 5.3,-8.5 5.3,-8.6 5.3,-8.6 5.3,-8.7 5.3,-8.6 5.2,-8.7 5.3,-8.7 5.3,-8.6 5.3,-8.7 5.3,-8.7 5.3,-8.7 5.3,-8.7 5.3,-8.8 5.3,-8.7 5.2,-8.7 5.3,-8.7 5.3,-8.7 5.3,-8.7 5.3,-8.7 5.3,-8.6 5.3,-8.7 5.3,-8.6 5.3,-8.7 5.2,-8.6 5.3,-8.6 5.3,-8.6 5.3,-8.5 5.3,-8.6 5.3,-8.5 5.3,-8.5 5.3,-8.4 5.3,-8.5 5.2,-8.4 5.3,-8.4 5.3,-8.3 5.3,-8.3 5.3,-8.3 5.3,-8.2 5.3,-8.2 5.3,-8.2 5.3,-8.1 5.2,-8.1 5.3,-8 5.3,-8 5.3,-8 5.3,-7.9 5.3,-7.9 5.3,-7.8 5.3,-7.7 5.3,-7.8 5.2,-7.6 5.3,-7.7 5.3,-7.5 5.3,-7.6 5.3,-7.4 5.3,-7.4 5.3,-7.4 5.3,-7.3 5.3,-7.3 5.2,-7.1 5.3,-7.2 5.3,-7.1 5.3,-7 5.3,-7 5.3,-6.9 5.3,-6.8 5.3,-6.8 5.3,-6.7 5.2,-6.7 5.3,-6.6 5.3,-6.5 5.3,-6.5 5.3,-6.4 5.3,-6.4 5.3,-6.3 5.3,-6.2 5.3,-6.2 5.2,-6.1 5.3,-6 5.3,-6 5.3,-5.9 5.3,-5.9 5.3,-5.8 5.3,-5.7 5.3,-5.7 5.3,-5.6 5.2,-5.5 5.3,-5.5 5.3,-5.4 5.3,-5.3 5.3,-5.3 5.3,-5.2 5.3,-5.1 5.3,-5.1 5.3,-5 5.2,-5 5.3,-4.9 5.3,-4.8 5.3,-4.8 5.3,-4.7 5.3,-4.6 5.3,-4.6 5.3,-4.5 5.3,-4.5 5.2,-4.4 5.3,-4.3 5.3,-4.3 5.3,-4.2 5.3,-4.2 5.3,-4.1 5.3,-4 5.3,-4 5.3,-3.9 5.2,-3.8 5.3,-3.8 5.3,-3.8 5.3,-3.7 5.3,-3.6 5.3,-3.6 5.3,-3.5 5.3,-3.5 5.3,-3.4 5.2,-3.3 5.3,-3.3 5.3,-3.3 5.3,-3.1 5.3,-3.2 5.3,-3.1 5.3,-3 5.3,-3 5.3,-2.9 5.2,-2.9 5.3,-2.8 5.3,-2.8 5.3,-2.8 5.3,-2.7 5.3,-2.6 5.3,-2.6 5.3,-2.5 5.3,-2.5 5.2,-2.5 5.3,-2.4 5.3,-2.4 5.3,-2.3 5.3,-2.3 5.3,-2.2 5.3,-2.2 5.3,-2.2 5.3,-2.1 5.2,-2.1 5.3,-2 5.3,-2 5.3,-1.9 5.3,-1.9 5.3,-1.9 5.3,-1.9 5.3,-1.8 5.3,-1.7 5.2,-1.8 5.3,-1.7 5.3,-1.6 5.3,-1.7 5.3,-1.5 5.3,-1.6 5.3,-1.5 5.3,-1.5 5.3,-1.5 5.2,-1.4 5.3,-1.4 5.3,-1.4 5.3,-1.4 5.3,-1.3 5.3,-1.3 5.3,-1.2 5.3,-1.2 5.3,-1.2 5.2,-1.2 5.3,-1.2 5.3,-1.1 5.3,-1.1 5.3,-1.1 5.3,-1 5.3,-1 5.3,-1 5.3,-1 5.2,-1 5.3,-0.9 5.3,-0.9 5.3,-0.9 5.3,-0.9 5.3,-0.8 5.3,-0.8 5.3,-0.9 5.3,-0.7 5.2,-0.8 5.3,-0.8 5.3,-0.7 5.3,-0.7 5.3,-0.7 5.3,-0.7 5.3,-0.6 5.3,-0.7 5.3,-0.6 5.2,-0.6 5.3,-0.6 5.3,-0.6 5.3,-0.6 5.3,-0.5 5.3,-0.6 5.3,-0.5 5.3,-0.5 5.3,-0.5 5.2,-0.5"
             style="fill:none;stroke:#000000;stroke-width:22.5;stroke-linecap:round;stroke-linejoin:round;stroke-miterlimit:10;stroke-dasharray:none;stroke-opacity:1"
             id="path1009" /></g></g><g
         transform="scale(0.1)"
         id="g1011"><g
           id="g1013"
           clip-path="url(#clipPath1017)"><path
             d="M 1533.7,3503.8 H 4707"
             style="fill:none;stroke:#000000;stroke-width:7.5;stroke-linecap:round;stroke-linejoin:round;stroke-miterlimit:10;stroke-dasharray:none;stroke-opacity:1"
             id="path1019" /><path
             d="m 1533.7,3503.8 v -72"
             style="fill:none;stroke:#000000;stroke-width:7.5;stroke-linecap:round;stroke-linejoin:round;stroke-miterlimit:10;stroke-dasharray:none;stroke-opacity:1"
             id="path1021" /><path
             d="m 2083.8,3503.8 v -72"
             style="fill:none;stroke:#000000;stroke-width:7.5;stroke-linecap:round;stroke-linejoin:round;stroke-miterlimit:10;stroke-dasharray:none;stroke-opacity:1"
             id="path1023" /><path
             d="m 3120.4,3503.8 v -72"
             style="fill:none;stroke:#000000;stroke-width:7.5;stroke-linecap:round;stroke-linejoin:round;stroke-miterlimit:10;stroke-dasharray:none;stroke-opacity:1"
             id="path1025" /><path
             d="m 4157,3503.8 v -72"
             style="fill:none;stroke:#000000;stroke-width:7.5;stroke-linecap:round;stroke-linejoin:round;stroke-miterlimit:10;stroke-dasharray:none;stroke-opacity:1"
             id="path1027" /><path
             d="m 4707,3503.8 v -72"
             style="fill:none;stroke:#000000;stroke-width:7.5;stroke-linecap:round;stroke-linejoin:round;stroke-miterlimit:10;stroke-dasharray:none;stroke-opacity:1"
             id="path1029" /><g
             id="g1031"
             transform="scale(10)"><text
               transform="matrix(1,0,0,-1,188.141,324.46)"
               style="font-variant:normal;font-weight:normal;font-size:16px;font-family:Helvetica;-inkscape-font-specification:Helvetica;writing-mode:lr-tb;fill:#000000;fill-opacity:1;fill-rule:nonzero;stroke:none"
               id="text1035"><tspan
                 x="0 9.3439999 18.24 22.688 31.584 119.45152 211.99216 220.88815 225.33617 234.23216"
                 y="0"
                 id="tspan1033">−1.9601.96</tspan></text><text
               transform="matrix(1,0,0,-1,246.0402,528.6)"
               style="font-variant:normal;font-weight:normal;font-size:19px;font-family:Helvetica;-inkscape-font-specification:Helvetica;writing-mode:lr-tb;fill:#000000;fill-opacity:1;fill-rule:nonzero;stroke:none"
               id="text1039"><tspan
                 x="0 9.3289051 22.857037 33.421036 38.703037 51.376038 55.594036 66.158035 76.722038 87.286034 92.568039 101.89688 112.46088 121.96088"
                 y="0"
                 id="tspan1037">Two Sided Test</tspan></text><text
               transform="matrix(1,0,0,-1,246.23043,295.66)"
               style="font-variant:normal;font-weight:normal;font-size:16px;font-family:Helvetica;-inkscape-font-specification:Helvetica;writing-mode:lr-tb;fill:#000000;fill-opacity:1;fill-rule:nonzero;stroke:none"
               id="text1043"><tspan
                 x="0 9.5519571 18.447956 21.999956 30.895956 39.791958 44.239956 53.135956 57.583958 62.031956 70.03196 74.479958 85.151955 89.59996 98.495956 102.94395 106.49596 114.49596 118.94395 122.49596"
                 y="0"
                 id="tspan1041">Value of z Statistic</tspan></text></g></g></g></g></g></svg>
