<?xml version="1.0" encoding="UTF-8" standalone="no"?>
<svg
   xmlns:dc="http://purl.org/dc/elements/1.1/"
   xmlns:cc="http://creativecommons.org/ns#"
   xmlns:rdf="http://www.w3.org/1999/02/22-rdf-syntax-ns#"
   xmlns:svg="http://www.w3.org/2000/svg"
   xmlns="http://www.w3.org/2000/svg"
   viewBox="0 0 1260 360"
   height="360"
   width="1260"
   xml:space="preserve"
   id="svg971"
   version="1.1"><metadata
     id="metadata977"><rdf:RDF><cc:Work
         rdf:about=""><dc:format>image/svg+xml</dc:format><dc:type
           rdf:resource="http://purl.org/dc/dcmitype/StillImage" /><dc:title></dc:title></cc:Work></rdf:RDF></metadata><defs
     id="defs975"><clipPath
       id="clipPath991"
       clipPathUnits="userSpaceOnUse"><path
         id="path989"
         d="M 1946.8,3323.8 H 4294 V 5239 H 1946.8 Z" /></clipPath><clipPath
       id="clipPath1001"
       clipPathUnits="userSpaceOnUse"><path
         id="path999"
         d="m 1356.4,2589.4 h 3240 v 3240 h -3240 z" /></clipPath><clipPath
       clipPathUnits="userSpaceOnUse"
       id="clipPath22"><path
         d="m 1356.4,2589.4 h 3240 v 3240 h -3240 z"
         id="path20" /></clipPath><clipPath
       clipPathUnits="userSpaceOnUse"
       id="clipPath74"><path
         d="M 1946.8,3323.8 H 4294 V 5239 H 1946.8 Z"
         id="path72" /></clipPath><clipPath
       clipPathUnits="userSpaceOnUse"
       id="clipPath1630"><path
         d="m 1356.4,2589.4 h 3240 v 3240 h -3240 z"
         id="path1628" /></clipPath><clipPath
       clipPathUnits="userSpaceOnUse"
       id="clipPath1688"><path
         d="M 1946.8,3323.8 H 4294 V 5239 H 1946.8 Z"
         id="path1686" /></clipPath></defs><g
     transform="matrix(1.3333333,0,0,-1.3333333,0,1056)"
     id="g979"><g
       transform="translate(-121.936,259.07699)"
       id="g2380"><g
         id="g985"
         transform="scale(0.1)"><g
           clip-path="url(#clipPath991)"
           id="g987"><path
             id="path993"
             style="fill:none;stroke:#0000ff;stroke-width:22.5;stroke-linecap:round;stroke-linejoin:round;stroke-miterlimit:10;stroke-dasharray:none;stroke-opacity:1"
             d="m 2033.7,3394.8 27.2,10 27.1,11.6 27.2,13.4 27.2,15.3 27.1,17.5 27.2,19.9 27.2,22.5 27.1,25.2 27.2,28.2 27.2,31.3 27.1,34.6 27.2,38 27.2,41.6 27.1,45.2 27.2,48.7 27.2,52.4 27.1,55.9 27.2,59.2 27.2,62.5 27.1,65.3 27.2,68 27.2,70.1 27.1,71.9 27.2,73 27.2,73.7 27.1,73.7 27.2,73.1 27.2,71.6 27.1,69.5 27.2,66.7 27.2,63 27.1,58.7 27.2,53.7 27.2,48 27.1,41.7 27.2,34.8 27.2,27.7 27.1,20 27.2,12.1 27.2,4 27.1,-4 27.2,-12.1 27.2,-20 27.1,-27.7 27.2,-34.8 27.2,-41.7 27.1,-48 27.2,-53.7 27.2,-58.7 27.1,-63 27.2,-66.7 27.2,-69.5 27.1,-71.6 27.2,-73.1 27.2,-73.7 27.1,-73.7 27.2,-73 27.2,-71.9 27.1,-70.1 27.2,-68 27.2,-65.3 27.1,-62.5 27.2,-59.2 27.2,-55.9 27.1,-52.4 27.2,-48.7 27.2,-45.2 27.1,-41.6 27.2,-38 27.2,-34.6 27.1,-31.3 27.2,-28.2 27.2,-25.2 27.1,-22.5 27.2,-19.9 27.2,-17.5 27.1,-15.3 27.2,-13.4 27.2,-11.6 27.1,-10" /></g></g><g
         id="g995"
         transform="scale(0.1)"><g
           clip-path="url(#clipPath1001)"
           id="g997"><path
             id="path1003"
             style="fill:none;stroke:#000000;stroke-width:7.5;stroke-linecap:round;stroke-linejoin:round;stroke-miterlimit:10;stroke-dasharray:none;stroke-opacity:1"
             d="M 2033.7,3323.8 H 4207" /><path
             id="path1005"
             style="fill:none;stroke:#000000;stroke-width:7.5;stroke-linecap:round;stroke-linejoin:round;stroke-miterlimit:10;stroke-dasharray:none;stroke-opacity:1"
             d="m 2033.7,3323.8 v -72" /><path
             id="path1007"
             style="fill:none;stroke:#000000;stroke-width:7.5;stroke-linecap:round;stroke-linejoin:round;stroke-miterlimit:10;stroke-dasharray:none;stroke-opacity:1"
             d="m 2577,3323.8 v -72" /><path
             id="path1009"
             style="fill:none;stroke:#000000;stroke-width:7.5;stroke-linecap:round;stroke-linejoin:round;stroke-miterlimit:10;stroke-dasharray:none;stroke-opacity:1"
             d="m 3120.4,3323.8 v -72" /><path
             id="path1011"
             style="fill:none;stroke:#000000;stroke-width:7.5;stroke-linecap:round;stroke-linejoin:round;stroke-miterlimit:10;stroke-dasharray:none;stroke-opacity:1"
             d="m 3663.7,3323.8 v -72" /><path
             id="path1013"
             style="fill:none;stroke:#000000;stroke-width:7.5;stroke-linecap:round;stroke-linejoin:round;stroke-miterlimit:10;stroke-dasharray:none;stroke-opacity:1"
             d="m 4207,3323.8 v -72" /><g
             transform="scale(10)"
             id="g1015"><text
               id="text1019"
               style="font-variant:normal;font-weight:normal;font-size:16px;font-family:Helvetica;-inkscape-font-specification:Helvetica;writing-mode:lr-tb;fill:#000000;fill-opacity:1;fill-rule:nonzero;stroke:none"
               transform="matrix(1,0,0,-1,194.474,306.46)"><tspan
                 id="tspan1017"
                 y="0"
                 x="0 8.8959999 54.330078 63.226082 104.22224 113.11824 122.01424 158.55232 167.44832 176.34431 212.8824 221.7784 230.67439">6080100120140</tspan></text></g><path
             id="path1021"
             style="fill:none;stroke:#000000;stroke-width:7.5;stroke-linecap:round;stroke-linejoin:round;stroke-miterlimit:10;stroke-dasharray:none;stroke-opacity:1"
             d="m 1946.8,3342.6 v 1716" /><path
             id="path1023"
             style="fill:none;stroke:#000000;stroke-width:7.5;stroke-linecap:round;stroke-linejoin:round;stroke-miterlimit:10;stroke-dasharray:none;stroke-opacity:1"
             d="m 1946.8,3342.6 h -72" /><path
             id="path1025"
             style="fill:none;stroke:#000000;stroke-width:7.5;stroke-linecap:round;stroke-linejoin:round;stroke-miterlimit:10;stroke-dasharray:none;stroke-opacity:1"
             d="m 1946.8,3685.8 h -72" /><path
             id="path1027"
             style="fill:none;stroke:#000000;stroke-width:7.5;stroke-linecap:round;stroke-linejoin:round;stroke-miterlimit:10;stroke-dasharray:none;stroke-opacity:1"
             d="m 1946.8,4029 h -72" /><path
             id="path1029"
             style="fill:none;stroke:#000000;stroke-width:7.5;stroke-linecap:round;stroke-linejoin:round;stroke-miterlimit:10;stroke-dasharray:none;stroke-opacity:1"
             d="m 1946.8,4372.2 h -72" /><path
             id="path1031"
             style="fill:none;stroke:#000000;stroke-width:7.5;stroke-linecap:round;stroke-linejoin:round;stroke-miterlimit:10;stroke-dasharray:none;stroke-opacity:1"
             d="m 1946.8,4715.4 h -72" /><path
             id="path1033"
             style="fill:none;stroke:#000000;stroke-width:7.5;stroke-linecap:round;stroke-linejoin:round;stroke-miterlimit:10;stroke-dasharray:none;stroke-opacity:1"
             d="m 1946.8,5058.6 h -72" /><g
             transform="scale(10)"
             id="g1035"><text
               id="text1039"
               style="font-variant:normal;font-weight:normal;font-size:16px;font-family:Helvetica;-inkscape-font-specification:Helvetica;writing-mode:lr-tb;fill:#000000;fill-opacity:1;fill-rule:nonzero;stroke:none"
               transform="matrix(0,1,1,0,177.4,314.245)"><tspan
                 id="tspan1037"
                 y="0"
                 x="0 8.8959999 13.344 22.24 31.136 68.639839 77.535843 81.983841 90.879837 99.775841 137.27968 146.17567 150.62367 159.51968 168.41568">0.0000.0100.020</tspan></text><text
               id="text1043"
               style="font-variant:normal;font-weight:normal;font-size:16px;font-family:Helvetica;-inkscape-font-specification:Helvetica;writing-mode:lr-tb;fill:#000000;fill-opacity:1;fill-rule:nonzero;stroke:none"
               transform="matrix(1,0,0,-1,280.473,277.66)"><tspan
                 id="tspan1041"
                 y="0"
                 x="0 4.448 16.896 21.344 32.015999 40.015999 48.911999 54.240002">IQ Score</tspan></text><text
               id="text1047"
               style="font-variant:normal;font-weight:normal;font-size:16px;font-family:Helvetica;-inkscape-font-specification:Helvetica;writing-mode:lr-tb;fill:#000000;fill-opacity:1;fill-rule:nonzero;stroke:none"
               transform="matrix(0,1,1,0,148.6,361.902)"><tspan
                 id="tspan1045"
                 y="0"
                 x="0 10.672 16 24.896 33.792 42.688 51.584 55.136002 58.688 62.240002 66.688004 74.688004 79.136002 90.688004 99.584 108.48 116.48 120.032 124.48">Probability Density</tspan></text></g></g></g></g><g
       transform="translate(184.06401,259.06502)"
       id="g2507"><g
         transform="scale(0.1)"
         id="g16"><g
           id="g18"
           clip-path="url(#clipPath22)"><g
             id="g24"
             transform="scale(10)"><text
               transform="matrix(1,0,0,-1,280.473,277.66)"
               style="font-variant:normal;font-weight:normal;font-size:16px;font-family:Helvetica;-inkscape-font-specification:Helvetica;writing-mode:lr-tb;fill:#000000;fill-opacity:1;fill-rule:nonzero;stroke:none"
               id="text28"><tspan
                 x="0 4.448 16.896 21.344 32.015999 40.015999 48.911999 54.240002"
                 y="0"
                 id="tspan26">IQ Score</tspan></text><text
               transform="matrix(0,1,1,0,148.6,390.349)"
               style="font-variant:normal;font-weight:normal;font-size:16px;font-family:Helvetica;-inkscape-font-specification:Helvetica;writing-mode:lr-tb;fill:#000000;fill-opacity:1;fill-rule:nonzero;stroke:none"
               id="text32"><tspan
                 x="0 9.776 15.104 24 32.896 41.792 50.688 59.584 67.584"
                 y="0"
                 id="tspan30">Frequency</tspan></text></g><path
             d="M 2033.7,3323.8 H 4207"
             style="fill:none;stroke:#000000;stroke-width:7.5;stroke-linecap:round;stroke-linejoin:round;stroke-miterlimit:10;stroke-dasharray:none;stroke-opacity:1"
             id="path34" /><path
             d="m 2033.7,3323.8 v -72"
             style="fill:none;stroke:#000000;stroke-width:7.5;stroke-linecap:round;stroke-linejoin:round;stroke-miterlimit:10;stroke-dasharray:none;stroke-opacity:1"
             id="path36" /><path
             d="m 2577,3323.8 v -72"
             style="fill:none;stroke:#000000;stroke-width:7.5;stroke-linecap:round;stroke-linejoin:round;stroke-miterlimit:10;stroke-dasharray:none;stroke-opacity:1"
             id="path38" /><path
             d="m 3120.4,3323.8 v -72"
             style="fill:none;stroke:#000000;stroke-width:7.5;stroke-linecap:round;stroke-linejoin:round;stroke-miterlimit:10;stroke-dasharray:none;stroke-opacity:1"
             id="path40" /><path
             d="m 3663.7,3323.8 v -72"
             style="fill:none;stroke:#000000;stroke-width:7.5;stroke-linecap:round;stroke-linejoin:round;stroke-miterlimit:10;stroke-dasharray:none;stroke-opacity:1"
             id="path42" /><path
             d="m 4207,3323.8 v -72"
             style="fill:none;stroke:#000000;stroke-width:7.5;stroke-linecap:round;stroke-linejoin:round;stroke-miterlimit:10;stroke-dasharray:none;stroke-opacity:1"
             id="path44" /><g
             id="g46"
             transform="scale(10)"><text
               transform="matrix(1,0,0,-1,194.474,306.46)"
               style="font-variant:normal;font-weight:normal;font-size:16px;font-family:Helvetica;-inkscape-font-specification:Helvetica;writing-mode:lr-tb;fill:#000000;fill-opacity:1;fill-rule:nonzero;stroke:none"
               id="text50"><tspan
                 x="0 8.8959999 54.330078 63.226082 104.22224 113.11824 122.01424 158.55232 167.44832 176.34431 212.8824 221.7784 230.67439"
                 y="0"
                 id="tspan48">6080100120140</tspan></text></g><path
             d="M 1946.8,3394.8 V 5057.3"
             style="fill:none;stroke:#000000;stroke-width:7.5;stroke-linecap:round;stroke-linejoin:round;stroke-miterlimit:10;stroke-dasharray:none;stroke-opacity:1"
             id="path52" /><path
             d="m 1946.8,3394.8 h -72"
             style="fill:none;stroke:#000000;stroke-width:7.5;stroke-linecap:round;stroke-linejoin:round;stroke-miterlimit:10;stroke-dasharray:none;stroke-opacity:1"
             id="path54" /><path
             d="m 1946.8,3948.9 h -72"
             style="fill:none;stroke:#000000;stroke-width:7.5;stroke-linecap:round;stroke-linejoin:round;stroke-miterlimit:10;stroke-dasharray:none;stroke-opacity:1"
             id="path56" /><path
             d="m 1946.8,4503.1 h -72"
             style="fill:none;stroke:#000000;stroke-width:7.5;stroke-linecap:round;stroke-linejoin:round;stroke-miterlimit:10;stroke-dasharray:none;stroke-opacity:1"
             id="path58" /><path
             d="m 1946.8,5057.3 h -72"
             style="fill:none;stroke:#000000;stroke-width:7.5;stroke-linecap:round;stroke-linejoin:round;stroke-miterlimit:10;stroke-dasharray:none;stroke-opacity:1"
             id="path60" /><g
             id="g62"
             transform="scale(10)"><text
               transform="matrix(0,1,1,0,177.4,335.032)"
               style="font-variant:normal;font-weight:normal;font-size:16px;font-family:Helvetica;-inkscape-font-specification:Helvetica;writing-mode:lr-tb;fill:#000000;fill-opacity:1;fill-rule:nonzero;stroke:none"
               id="text66"><tspan
                 x="0 55.41024 106.38256 115.27856 161.80257 170.69856"
                 y="0"
                 id="tspan64">051015</tspan></text></g></g></g><g
         transform="scale(0.1)"
         id="g68"><g
           id="g70"
           clip-path="url(#clipPath74)"><path
             d="m 1897.9,3394.8 h 135.801 v 110.801 H 1897.9 Z"
             style="fill:#7e7fff;fill-opacity:1;fill-rule:nonzero;stroke:none"
             id="path76" /><path
             d="m 1897.9,3394.8 h 135.801 v 110.801 H 1897.9 Z"
             style="fill:none;stroke:#ffffff;stroke-width:7.5;stroke-linecap:round;stroke-linejoin:round;stroke-miterlimit:10;stroke-dasharray:none;stroke-opacity:1"
             id="path78" /><path
             d="m 2033.7,3394.8 h 135.801 v 110.801 H 2033.7 Z"
             style="fill:#7e7fff;fill-opacity:1;fill-rule:nonzero;stroke:none"
             id="path80" /><path
             d="m 2033.7,3394.8 h 135.801 v 110.801 H 2033.7 Z"
             style="fill:none;stroke:#ffffff;stroke-width:7.5;stroke-linecap:round;stroke-linejoin:round;stroke-miterlimit:10;stroke-dasharray:none;stroke-opacity:1"
             id="path82" /><path
             d="m 2169.5,3394.8 v 0 h 135.8 v 0 z"
             style="fill:#7e7fff;fill-opacity:1;fill-rule:nonzero;stroke:none"
             id="path84" /><path
             d="m 2169.5,3394.8 v 0 h 135.8 v 0 z"
             style="fill:none;stroke:#ffffff;stroke-width:7.5;stroke-linecap:round;stroke-linejoin:round;stroke-miterlimit:10;stroke-dasharray:none;stroke-opacity:1"
             id="path86" /><path
             d="m 2305.4,3394.8 h 135.801 v 554.199 H 2305.4 Z"
             style="fill:#7e7fff;fill-opacity:1;fill-rule:nonzero;stroke:none"
             id="path88" /><path
             d="m 2305.4,3394.8 h 135.801 v 554.199 H 2305.4 Z"
             style="fill:none;stroke:#ffffff;stroke-width:7.5;stroke-linecap:round;stroke-linejoin:round;stroke-miterlimit:10;stroke-dasharray:none;stroke-opacity:1"
             id="path90" /><path
             d="m 2441.2,3394.8 h 135.801 v 554.199 H 2441.2 Z"
             style="fill:#7e7fff;fill-opacity:1;fill-rule:nonzero;stroke:none"
             id="path92" /><path
             d="m 2441.2,3394.8 h 135.801 v 554.199 H 2441.2 Z"
             style="fill:none;stroke:#ffffff;stroke-width:7.5;stroke-linecap:round;stroke-linejoin:round;stroke-miterlimit:10;stroke-dasharray:none;stroke-opacity:1"
             id="path94" /><path
             d="m 2577,3394.8 h 135.801 v 554.199 H 2577 Z"
             style="fill:#7e7fff;fill-opacity:1;fill-rule:nonzero;stroke:none"
             id="path96" /><path
             d="m 2577,3394.8 h 135.801 v 554.199 H 2577 Z"
             style="fill:none;stroke:#ffffff;stroke-width:7.5;stroke-linecap:round;stroke-linejoin:round;stroke-miterlimit:10;stroke-dasharray:none;stroke-opacity:1"
             id="path98" /><path
             d="m 2712.9,3394.8 h 135.801 V 4614 H 2712.9 Z"
             style="fill:#7e7fff;fill-opacity:1;fill-rule:nonzero;stroke:none"
             id="path100" /><path
             d="m 2712.9,3394.8 h 135.801 V 4614 H 2712.9 Z"
             style="fill:none;stroke:#ffffff;stroke-width:7.5;stroke-linecap:round;stroke-linejoin:round;stroke-miterlimit:10;stroke-dasharray:none;stroke-opacity:1"
             id="path102" /><path
             d="m 2848.7,3394.8 h 135.801 V 5168.1 H 2848.7 Z"
             style="fill:#7e7fff;fill-opacity:1;fill-rule:nonzero;stroke:none"
             id="path104" /><path
             d="m 2848.7,3394.8 h 135.801 V 5168.1 H 2848.7 Z"
             style="fill:none;stroke:#ffffff;stroke-width:7.5;stroke-linecap:round;stroke-linejoin:round;stroke-miterlimit:10;stroke-dasharray:none;stroke-opacity:1"
             id="path106" /><path
             d="m 2984.5,3394.8 h 135.801 V 4614 H 2984.5 Z"
             style="fill:#7e7fff;fill-opacity:1;fill-rule:nonzero;stroke:none"
             id="path108" /><path
             d="m 2984.5,3394.8 h 135.801 V 4614 H 2984.5 Z"
             style="fill:none;stroke:#ffffff;stroke-width:7.5;stroke-linecap:round;stroke-linejoin:round;stroke-miterlimit:10;stroke-dasharray:none;stroke-opacity:1"
             id="path110" /><path
             d="m 3120.4,3394.8 h 135.801 V 4946.5 H 3120.4 Z"
             style="fill:#7e7fff;fill-opacity:1;fill-rule:nonzero;stroke:none"
             id="path112" /><path
             d="m 3120.4,3394.8 h 135.801 V 4946.5 H 3120.4 Z"
             style="fill:none;stroke:#ffffff;stroke-width:7.5;stroke-linecap:round;stroke-linejoin:round;stroke-miterlimit:10;stroke-dasharray:none;stroke-opacity:1"
             id="path114" /><path
             d="m 3256.2,3394.8 h 135.801 V 4503.1 H 3256.2 Z"
             style="fill:#7e7fff;fill-opacity:1;fill-rule:nonzero;stroke:none"
             id="path116" /><path
             d="m 3256.2,3394.8 h 135.801 V 4503.1 H 3256.2 Z"
             style="fill:none;stroke:#ffffff;stroke-width:7.5;stroke-linecap:round;stroke-linejoin:round;stroke-miterlimit:10;stroke-dasharray:none;stroke-opacity:1"
             id="path118" /><path
             d="m 3392,3394.8 h 135.801 v 886.699 H 3392 Z"
             style="fill:#7e7fff;fill-opacity:1;fill-rule:nonzero;stroke:none"
             id="path120" /><path
             d="m 3392,3394.8 h 135.801 v 886.699 H 3392 Z"
             style="fill:none;stroke:#ffffff;stroke-width:7.5;stroke-linecap:round;stroke-linejoin:round;stroke-miterlimit:10;stroke-dasharray:none;stroke-opacity:1"
             id="path122" /><path
             d="m 3527.9,3394.8 h 135.801 v 221.699 H 3527.9 Z"
             style="fill:#7e7fff;fill-opacity:1;fill-rule:nonzero;stroke:none"
             id="path124" /><path
             d="m 3527.9,3394.8 h 135.801 v 221.699 H 3527.9 Z"
             style="fill:none;stroke:#ffffff;stroke-width:7.5;stroke-linecap:round;stroke-linejoin:round;stroke-miterlimit:10;stroke-dasharray:none;stroke-opacity:1"
             id="path126" /><path
             d="m 3663.7,3394.8 h 135.801 v 665 H 3663.7 Z"
             style="fill:#7e7fff;fill-opacity:1;fill-rule:nonzero;stroke:none"
             id="path128" /><path
             d="m 3663.7,3394.8 h 135.801 v 665 H 3663.7 Z"
             style="fill:none;stroke:#ffffff;stroke-width:7.5;stroke-linecap:round;stroke-linejoin:round;stroke-miterlimit:10;stroke-dasharray:none;stroke-opacity:1"
             id="path130" /><path
             d="m 3799.5,3394.8 h 135.801 v 332.5 H 3799.5 Z"
             style="fill:#7e7fff;fill-opacity:1;fill-rule:nonzero;stroke:none"
             id="path132" /><path
             d="m 3799.5,3394.8 h 135.801 v 332.5 H 3799.5 Z"
             style="fill:none;stroke:#ffffff;stroke-width:7.5;stroke-linecap:round;stroke-linejoin:round;stroke-miterlimit:10;stroke-dasharray:none;stroke-opacity:1"
             id="path134" /><path
             d="m 3935.4,3394.8 h 135.801 v 110.801 H 3935.4 Z"
             style="fill:#7e7fff;fill-opacity:1;fill-rule:nonzero;stroke:none"
             id="path136" /><path
             d="m 3935.4,3394.8 h 135.801 v 110.801 H 3935.4 Z"
             style="fill:none;stroke:#ffffff;stroke-width:7.5;stroke-linecap:round;stroke-linejoin:round;stroke-miterlimit:10;stroke-dasharray:none;stroke-opacity:1"
             id="path138" /><path
             d="m 4071.2,3394.8 v 0 H 4207 v 0 z"
             style="fill:#7e7fff;fill-opacity:1;fill-rule:nonzero;stroke:none"
             id="path140" /><path
             d="m 4071.2,3394.8 v 0 H 4207 v 0 z"
             style="fill:none;stroke:#ffffff;stroke-width:7.5;stroke-linecap:round;stroke-linejoin:round;stroke-miterlimit:10;stroke-dasharray:none;stroke-opacity:1"
             id="path142" /><path
             d="m 4207,3394.8 v 0 h 135.8 v 0 z"
             style="fill:#7e7fff;fill-opacity:1;fill-rule:nonzero;stroke:none"
             id="path144" /><path
             d="m 4207,3394.8 v 0 h 135.8 v 0 z"
             style="fill:none;stroke:#ffffff;stroke-width:7.5;stroke-linecap:round;stroke-linejoin:round;stroke-miterlimit:10;stroke-dasharray:none;stroke-opacity:1"
             id="path146" /></g></g></g><g
       transform="translate(490.06402,259.56137)"
       id="g2853"><g
         transform="scale(0.1)"
         id="g1624"><g
           id="g1626"
           clip-path="url(#clipPath1630)"><g
             id="g1632"
             transform="scale(10)"><text
               transform="matrix(1,0,0,-1,280.473,277.66)"
               style="font-variant:normal;font-weight:normal;font-size:16px;font-family:Helvetica;-inkscape-font-specification:Helvetica;writing-mode:lr-tb;fill:#000000;fill-opacity:1;fill-rule:nonzero;stroke:none"
               id="text1636"><tspan
                 x="0 4.448 16.896 21.344 32.015999 40.015999 48.911999 54.240002"
                 y="0"
                 id="tspan1634">IQ Score</tspan></text><text
               transform="matrix(0,1,1,0,148.6,390.349)"
               style="font-variant:normal;font-weight:normal;font-size:16px;font-family:Helvetica;-inkscape-font-specification:Helvetica;writing-mode:lr-tb;fill:#000000;fill-opacity:1;fill-rule:nonzero;stroke:none"
               id="text1640"><tspan
                 x="0 9.776 15.104 24 32.896 41.792 50.688 59.584 67.584"
                 y="0"
                 id="tspan1638">Frequency</tspan></text></g><path
             d="M 2033.7,3323.8 H 4207"
             style="fill:none;stroke:#000000;stroke-width:7.5;stroke-linecap:round;stroke-linejoin:round;stroke-miterlimit:10;stroke-dasharray:none;stroke-opacity:1"
             id="path1642" /><path
             d="m 2033.7,3323.8 v -72"
             style="fill:none;stroke:#000000;stroke-width:7.5;stroke-linecap:round;stroke-linejoin:round;stroke-miterlimit:10;stroke-dasharray:none;stroke-opacity:1"
             id="path1644" /><path
             d="m 2577,3323.8 v -72"
             style="fill:none;stroke:#000000;stroke-width:7.5;stroke-linecap:round;stroke-linejoin:round;stroke-miterlimit:10;stroke-dasharray:none;stroke-opacity:1"
             id="path1646" /><path
             d="m 3120.4,3323.8 v -72"
             style="fill:none;stroke:#000000;stroke-width:7.5;stroke-linecap:round;stroke-linejoin:round;stroke-miterlimit:10;stroke-dasharray:none;stroke-opacity:1"
             id="path1648" /><path
             d="m 3663.7,3323.8 v -72"
             style="fill:none;stroke:#000000;stroke-width:7.5;stroke-linecap:round;stroke-linejoin:round;stroke-miterlimit:10;stroke-dasharray:none;stroke-opacity:1"
             id="path1650" /><path
             d="m 4207,3323.8 v -72"
             style="fill:none;stroke:#000000;stroke-width:7.5;stroke-linecap:round;stroke-linejoin:round;stroke-miterlimit:10;stroke-dasharray:none;stroke-opacity:1"
             id="path1652" /><g
             id="g1654"
             transform="scale(10)"><text
               transform="matrix(1,0,0,-1,194.474,306.46)"
               style="font-variant:normal;font-weight:normal;font-size:16px;font-family:Helvetica;-inkscape-font-specification:Helvetica;writing-mode:lr-tb;fill:#000000;fill-opacity:1;fill-rule:nonzero;stroke:none"
               id="text1658"><tspan
                 x="0 8.8959999 54.330078 63.226082 104.22224 113.11824 122.01424 158.55232 167.44832 176.34431 212.8824 221.7784 230.67439"
                 y="0"
                 id="tspan1656">6080100120140</tspan></text></g><path
             d="m 1946.8,3394.8 v 1647"
             style="fill:none;stroke:#000000;stroke-width:7.5;stroke-linecap:round;stroke-linejoin:round;stroke-miterlimit:10;stroke-dasharray:none;stroke-opacity:1"
             id="path1660" /><path
             d="m 1946.8,3394.8 h -72"
             style="fill:none;stroke:#000000;stroke-width:7.5;stroke-linecap:round;stroke-linejoin:round;stroke-miterlimit:10;stroke-dasharray:none;stroke-opacity:1"
             id="path1662" /><path
             d="m 1946.8,3669.3 h -72"
             style="fill:none;stroke:#000000;stroke-width:7.5;stroke-linecap:round;stroke-linejoin:round;stroke-miterlimit:10;stroke-dasharray:none;stroke-opacity:1"
             id="path1664" /><path
             d="m 1946.8,3943.8 h -72"
             style="fill:none;stroke:#000000;stroke-width:7.5;stroke-linecap:round;stroke-linejoin:round;stroke-miterlimit:10;stroke-dasharray:none;stroke-opacity:1"
             id="path1666" /><path
             d="m 1946.8,4218.3 h -72"
             style="fill:none;stroke:#000000;stroke-width:7.5;stroke-linecap:round;stroke-linejoin:round;stroke-miterlimit:10;stroke-dasharray:none;stroke-opacity:1"
             id="path1668" /><path
             d="m 1946.8,4492.8 h -72"
             style="fill:none;stroke:#000000;stroke-width:7.5;stroke-linecap:round;stroke-linejoin:round;stroke-miterlimit:10;stroke-dasharray:none;stroke-opacity:1"
             id="path1670" /><path
             d="m 1946.8,4767.3 h -72"
             style="fill:none;stroke:#000000;stroke-width:7.5;stroke-linecap:round;stroke-linejoin:round;stroke-miterlimit:10;stroke-dasharray:none;stroke-opacity:1"
             id="path1672" /><path
             d="m 1946.8,5041.8 h -72"
             style="fill:none;stroke:#000000;stroke-width:7.5;stroke-linecap:round;stroke-linejoin:round;stroke-miterlimit:10;stroke-dasharray:none;stroke-opacity:1"
             id="path1674" /><g
             id="g1676"
             transform="scale(10)"><text
               transform="matrix(0,1,1,0,177.4,335.032)"
               style="font-variant:normal;font-weight:normal;font-size:16px;font-family:Helvetica;-inkscape-font-specification:Helvetica;writing-mode:lr-tb;fill:#000000;fill-opacity:1;fill-rule:nonzero;stroke:none"
               id="text1680"><tspan
                 x="0 46.004318 54.900318 63.796322 100.90432 109.80032 118.69632 151.35664 160.25264 169.14864 178.04465"
                 y="0"
                 id="tspan1678">04008001200</tspan></text></g></g></g><g
         transform="scale(0.1)"
         id="g1682"><g
           id="g1684"
           clip-path="url(#clipPath1688)"><path
             d="m 1897.9,3394.8 h 135.801 v 38.3984 H 1897.9 Z"
             style="fill:#7e7fff;fill-opacity:1;fill-rule:nonzero;stroke:none"
             id="path1690" /><path
             d="m 1897.9,3394.8 h 135.801 v 38.3984 H 1897.9 Z"
             style="fill:none;stroke:#ffffff;stroke-width:7.5;stroke-linecap:round;stroke-linejoin:round;stroke-miterlimit:10;stroke-dasharray:none;stroke-opacity:1"
             id="path1692" /><path
             d="m 2033.7,3394.8 h 135.801 v 94.6992 H 2033.7 Z"
             style="fill:#7e7fff;fill-opacity:1;fill-rule:nonzero;stroke:none"
             id="path1694" /><path
             d="m 2033.7,3394.8 h 135.801 v 94.6992 H 2033.7 Z"
             style="fill:none;stroke:#ffffff;stroke-width:7.5;stroke-linecap:round;stroke-linejoin:round;stroke-miterlimit:10;stroke-dasharray:none;stroke-opacity:1"
             id="path1696" /><path
             d="m 2169.5,3394.8 h 135.801 v 177.098 H 2169.5 Z"
             style="fill:#7e7fff;fill-opacity:1;fill-rule:nonzero;stroke:none"
             id="path1698" /><path
             d="m 2169.5,3394.8 h 135.801 v 177.098 H 2169.5 Z"
             style="fill:none;stroke:#ffffff;stroke-width:7.5;stroke-linecap:round;stroke-linejoin:round;stroke-miterlimit:10;stroke-dasharray:none;stroke-opacity:1"
             id="path1700" /><path
             d="m 2305.4,3394.8 h 135.801 v 352.699 H 2305.4 Z"
             style="fill:#7e7fff;fill-opacity:1;fill-rule:nonzero;stroke:none"
             id="path1702" /><path
             d="m 2305.4,3394.8 h 135.801 v 352.699 H 2305.4 Z"
             style="fill:none;stroke:#ffffff;stroke-width:7.5;stroke-linecap:round;stroke-linejoin:round;stroke-miterlimit:10;stroke-dasharray:none;stroke-opacity:1"
             id="path1704" /><path
             d="m 2441.2,3394.8 h 135.801 v 609.398 H 2441.2 Z"
             style="fill:#7e7fff;fill-opacity:1;fill-rule:nonzero;stroke:none"
             id="path1706" /><path
             d="m 2441.2,3394.8 h 135.801 v 609.398 H 2441.2 Z"
             style="fill:none;stroke:#ffffff;stroke-width:7.5;stroke-linecap:round;stroke-linejoin:round;stroke-miterlimit:10;stroke-dasharray:none;stroke-opacity:1"
             id="path1708" /><path
             d="m 2577,3394.8 h 135.801 v 941.598 H 2577 Z"
             style="fill:#7e7fff;fill-opacity:1;fill-rule:nonzero;stroke:none"
             id="path1710" /><path
             d="m 2577,3394.8 h 135.801 v 941.598 H 2577 Z"
             style="fill:none;stroke:#ffffff;stroke-width:7.5;stroke-linecap:round;stroke-linejoin:round;stroke-miterlimit:10;stroke-dasharray:none;stroke-opacity:1"
             id="path1712" /><path
             d="m 2712.9,3394.8 h 135.801 V 4679.5 H 2712.9 Z"
             style="fill:#7e7fff;fill-opacity:1;fill-rule:nonzero;stroke:none"
             id="path1714" /><path
             d="m 2712.9,3394.8 h 135.801 V 4679.5 H 2712.9 Z"
             style="fill:none;stroke:#ffffff;stroke-width:7.5;stroke-linecap:round;stroke-linejoin:round;stroke-miterlimit:10;stroke-dasharray:none;stroke-opacity:1"
             id="path1716" /><path
             d="m 2848.7,3394.8 h 135.801 V 5006.2 H 2848.7 Z"
             style="fill:#7e7fff;fill-opacity:1;fill-rule:nonzero;stroke:none"
             id="path1718" /><path
             d="m 2848.7,3394.8 h 135.801 V 5006.2 H 2848.7 Z"
             style="fill:none;stroke:#ffffff;stroke-width:7.5;stroke-linecap:round;stroke-linejoin:round;stroke-miterlimit:10;stroke-dasharray:none;stroke-opacity:1"
             id="path1720" /><path
             d="m 2984.5,3394.8 h 135.801 V 5137.9 H 2984.5 Z"
             style="fill:#7e7fff;fill-opacity:1;fill-rule:nonzero;stroke:none"
             id="path1722" /><path
             d="m 2984.5,3394.8 h 135.801 V 5137.9 H 2984.5 Z"
             style="fill:none;stroke:#ffffff;stroke-width:7.5;stroke-linecap:round;stroke-linejoin:round;stroke-miterlimit:10;stroke-dasharray:none;stroke-opacity:1"
             id="path1724" /><path
             d="m 3120.4,3394.8 h 135.801 V 5168.1 H 3120.4 Z"
             style="fill:#7e7fff;fill-opacity:1;fill-rule:nonzero;stroke:none"
             id="path1726" /><path
             d="m 3120.4,3394.8 h 135.801 V 5168.1 H 3120.4 Z"
             style="fill:none;stroke:#ffffff;stroke-width:7.5;stroke-linecap:round;stroke-linejoin:round;stroke-miterlimit:10;stroke-dasharray:none;stroke-opacity:1"
             id="path1728" /><path
             d="m 3256.2,3394.8 h 135.801 V 4996.6 H 3256.2 Z"
             style="fill:#7e7fff;fill-opacity:1;fill-rule:nonzero;stroke:none"
             id="path1730" /><path
             d="m 3256.2,3394.8 h 135.801 V 4996.6 H 3256.2 Z"
             style="fill:none;stroke:#ffffff;stroke-width:7.5;stroke-linecap:round;stroke-linejoin:round;stroke-miterlimit:10;stroke-dasharray:none;stroke-opacity:1"
             id="path1732" /><path
             d="m 3392,3394.8 h 135.801 V 4697.3 H 3392 Z"
             style="fill:#7e7fff;fill-opacity:1;fill-rule:nonzero;stroke:none"
             id="path1734" /><path
             d="m 3392,3394.8 h 135.801 V 4697.3 H 3392 Z"
             style="fill:none;stroke:#ffffff;stroke-width:7.5;stroke-linecap:round;stroke-linejoin:round;stroke-miterlimit:10;stroke-dasharray:none;stroke-opacity:1"
             id="path1736" /><path
             d="m 3527.9,3394.8 h 135.801 v 971.801 H 3527.9 Z"
             style="fill:#7e7fff;fill-opacity:1;fill-rule:nonzero;stroke:none"
             id="path1738" /><path
             d="m 3527.9,3394.8 h 135.801 v 971.801 H 3527.9 Z"
             style="fill:none;stroke:#ffffff;stroke-width:7.5;stroke-linecap:round;stroke-linejoin:round;stroke-miterlimit:10;stroke-dasharray:none;stroke-opacity:1"
             id="path1740" /><path
             d="m 3663.7,3394.8 h 135.801 v 590.199 H 3663.7 Z"
             style="fill:#7e7fff;fill-opacity:1;fill-rule:nonzero;stroke:none"
             id="path1742" /><path
             d="m 3663.7,3394.8 h 135.801 v 590.199 H 3663.7 Z"
             style="fill:none;stroke:#ffffff;stroke-width:7.5;stroke-linecap:round;stroke-linejoin:round;stroke-miterlimit:10;stroke-dasharray:none;stroke-opacity:1"
             id="path1744" /><path
             d="m 3799.5,3394.8 h 135.801 v 317.098 H 3799.5 Z"
             style="fill:#7e7fff;fill-opacity:1;fill-rule:nonzero;stroke:none"
             id="path1746" /><path
             d="m 3799.5,3394.8 h 135.801 v 317.098 H 3799.5 Z"
             style="fill:none;stroke:#ffffff;stroke-width:7.5;stroke-linecap:round;stroke-linejoin:round;stroke-miterlimit:10;stroke-dasharray:none;stroke-opacity:1"
             id="path1748" /><path
             d="m 3935.4,3394.8 h 135.801 v 166.098 H 3935.4 Z"
             style="fill:#7e7fff;fill-opacity:1;fill-rule:nonzero;stroke:none"
             id="path1750" /><path
             d="m 3935.4,3394.8 h 135.801 v 166.098 H 3935.4 Z"
             style="fill:none;stroke:#ffffff;stroke-width:7.5;stroke-linecap:round;stroke-linejoin:round;stroke-miterlimit:10;stroke-dasharray:none;stroke-opacity:1"
             id="path1752" /><path
             d="m 4071.2,3394.8 h 135.801 v 67.3008 H 4071.2 Z"
             style="fill:#7e7fff;fill-opacity:1;fill-rule:nonzero;stroke:none"
             id="path1754" /><path
             d="m 4071.2,3394.8 h 135.801 v 67.3008 H 4071.2 Z"
             style="fill:none;stroke:#ffffff;stroke-width:7.5;stroke-linecap:round;stroke-linejoin:round;stroke-miterlimit:10;stroke-dasharray:none;stroke-opacity:1"
             id="path1756" /><path
             d="m 4207,3394.8 h 135.801 v 41.1992 H 4207 Z"
             style="fill:#7e7fff;fill-opacity:1;fill-rule:nonzero;stroke:none"
             id="path1758" /><path
             d="m 4207,3394.8 h 135.801 v 41.1992 H 4207 Z"
             style="fill:none;stroke:#ffffff;stroke-width:7.5;stroke-linecap:round;stroke-linejoin:round;stroke-miterlimit:10;stroke-dasharray:none;stroke-opacity:1"
             id="path1760" /></g></g></g></g></svg>
