<?xml version="1.0" encoding="UTF-8" standalone="no"?>
<svg
   xmlns:dc="http://purl.org/dc/elements/1.1/"
   xmlns:cc="http://creativecommons.org/ns#"
   xmlns:rdf="http://www.w3.org/1999/02/22-rdf-syntax-ns#"
   xmlns:svg="http://www.w3.org/2000/svg"
   xmlns="http://www.w3.org/2000/svg"
   viewBox="0 0 960 320"
   height="320"
   width="960"
   xml:space="preserve"
   id="svg2"
   version="1.1"><metadata
     id="metadata8"><rdf:RDF><cc:Work
         rdf:about=""><dc:format>image/svg+xml</dc:format><dc:type
           rdf:resource="http://purl.org/dc/dcmitype/StillImage" /><dc:title></dc:title></cc:Work></rdf:RDF></metadata><defs
     id="defs6"><clipPath
       id="clipPath22"
       clipPathUnits="userSpaceOnUse"><path
         id="path20"
         d="M 1406.8,3503.8 H 4834 V 5059 H 1406.8 Z" /></clipPath><clipPath
       id="clipPath70"
       clipPathUnits="userSpaceOnUse"><path
         id="path68"
         d="m 816.398,2769.4 h 4320 v 2880 h -4320 z" /></clipPath><clipPath
       clipPathUnits="userSpaceOnUse"
       id="clipPath945"><path
         d="M 1406.8,3503.8 H 4834 V 5059 H 1406.8 Z"
         id="path943" /></clipPath><clipPath
       clipPathUnits="userSpaceOnUse"
       id="clipPath999"><path
         d="m 816.398,2769.4 h 4320 v 2880 h -4320 z"
         id="path997" /></clipPath></defs><g
     transform="matrix(1.3333333,0,0,-1.3333333,0,1056)"
     id="g10"><g
       transform="translate(-130.338,234.20702)"
       id="g1671"><g
         id="g16"
         transform="scale(0.1)"><g
           clip-path="url(#clipPath22)"
           id="g18"><path
             id="path24"
             style="fill:none;stroke:#0000ff;stroke-width:7.5;stroke-linecap:round;stroke-linejoin:round;stroke-miterlimit:10;stroke-dasharray:none;stroke-opacity:1"
             d="m 2716.1,4415.8 7.6,5" /><path
             id="path26"
             style="fill:none;stroke:#0000ff;stroke-width:7.5;stroke-linecap:round;stroke-linejoin:round;stroke-miterlimit:10;stroke-dasharray:none;stroke-opacity:1"
             d="m 2670.2,4315.7 53.5,35.1" /><path
             id="path28"
             style="fill:none;stroke:#0000ff;stroke-width:7.5;stroke-linecap:round;stroke-linejoin:round;stroke-miterlimit:10;stroke-dasharray:none;stroke-opacity:1"
             d="m 1626.1,3561.4 1.9,1.3" /><path
             id="path30"
             style="fill:none;stroke:#0000ff;stroke-width:7.5;stroke-linecap:round;stroke-linejoin:round;stroke-miterlimit:10;stroke-dasharray:none;stroke-opacity:1"
             d="m 2622.3,4214.4 101.4,66.5" /><path
             id="path32"
             style="fill:none;stroke:#0000ff;stroke-width:7.5;stroke-linecap:round;stroke-linejoin:round;stroke-miterlimit:10;stroke-dasharray:none;stroke-opacity:1"
             d="m 1732.9,3561.4 5,3.4" /><path
             id="path34"
             style="fill:none;stroke:#0000ff;stroke-width:7.5;stroke-linecap:round;stroke-linejoin:round;stroke-miterlimit:10;stroke-dasharray:none;stroke-opacity:1"
             d="m 2570.2,4110.3 153.5,100.6" /><path
             id="path36"
             style="fill:none;stroke:#0000ff;stroke-width:7.5;stroke-linecap:round;stroke-linejoin:round;stroke-miterlimit:10;stroke-dasharray:none;stroke-opacity:1"
             d="m 1839.6,3561.4 13.3,8.8" /><path
             id="path38"
             style="fill:none;stroke:#0000ff;stroke-width:7.5;stroke-linecap:round;stroke-linejoin:round;stroke-miterlimit:10;stroke-dasharray:none;stroke-opacity:1"
             d="m 2509.8,4000.8 213.9,140.1" /><path
             id="path40"
             style="fill:none;stroke:#0000ff;stroke-width:7.5;stroke-linecap:round;stroke-linejoin:round;stroke-miterlimit:10;stroke-dasharray:none;stroke-opacity:1"
             d="m 1946.3,3561.4 35.7,23.4" /><path
             id="path42"
             style="fill:none;stroke:#0000ff;stroke-width:7.5;stroke-linecap:round;stroke-linejoin:round;stroke-miterlimit:10;stroke-dasharray:none;stroke-opacity:1"
             d="M 2431.6,3879.5 2723.7,4071" /><path
             id="path44"
             style="fill:none;stroke:#0000ff;stroke-width:7.5;stroke-linecap:round;stroke-linejoin:round;stroke-miterlimit:10;stroke-dasharray:none;stroke-opacity:1"
             d="m 2053.1,3561.4 162.3,106.5" /><path
             id="path46"
             style="fill:none;stroke:#0000ff;stroke-width:7.5;stroke-linecap:round;stroke-linejoin:round;stroke-miterlimit:10;stroke-dasharray:none;stroke-opacity:1"
             d="M 2245,3687.3 2723.7,4001" /><path
             id="path48"
             style="fill:none;stroke:#0000ff;stroke-width:7.5;stroke-linecap:round;stroke-linejoin:round;stroke-miterlimit:10;stroke-dasharray:none;stroke-opacity:1"
             d="m 2159.8,3561.4 563.9,369.7" /><path
             id="path50"
             style="fill:none;stroke:#0000ff;stroke-width:7.5;stroke-linecap:round;stroke-linejoin:round;stroke-miterlimit:10;stroke-dasharray:none;stroke-opacity:1"
             d="m 2266.5,3561.4 457.2,299.7" /><path
             id="path52"
             style="fill:none;stroke:#0000ff;stroke-width:7.5;stroke-linecap:round;stroke-linejoin:round;stroke-miterlimit:10;stroke-dasharray:none;stroke-opacity:1"
             d="m 2373.3,3561.4 350.4,229.8" /><path
             id="path54"
             style="fill:none;stroke:#0000ff;stroke-width:7.5;stroke-linecap:round;stroke-linejoin:round;stroke-miterlimit:10;stroke-dasharray:none;stroke-opacity:1"
             d="m 2480,3561.4 243.7,159.8" /><path
             id="path56"
             style="fill:none;stroke:#0000ff;stroke-width:7.5;stroke-linecap:round;stroke-linejoin:round;stroke-miterlimit:10;stroke-dasharray:none;stroke-opacity:1"
             d="m 2586.7,3561.4 137,89.8" /><path
             id="path58"
             style="fill:none;stroke:#0000ff;stroke-width:7.5;stroke-linecap:round;stroke-linejoin:round;stroke-miterlimit:10;stroke-dasharray:none;stroke-opacity:1"
             d="m 2693.5,3561.4 30.2,19.9" /><path
             id="path60"
             style="fill:none;stroke:#0000ff;stroke-width:7.5;stroke-linecap:round;stroke-linejoin:round;stroke-miterlimit:10;stroke-dasharray:none;stroke-opacity:1"
             d="m 1533.7,3561.4 v 0.5 l 4,0.1 h 15.8 l 4,0.1 h 4 3.9 4 l 4,0.1 h 3.9 4 l 4,0.1 h 3.9 4 l 4,0.1 h 3.9 4 l 4,0.1 h 3.9 4 l 4,0.1 h 3.9 l 4,0.1 h 4 l 3.9,0.1 h 4 l 4,0.1 h 3.9 l 4,0.1 h 4 l 3.9,0.1 4,0.1 h 4 l 3.9,0.1 4,0.1 h 4 l 3.9,0.1 4,0.1 4,0.1 h 3.9 l 4,0.1 4,0.1 3.9,0.1 4,0.1 4,0.1 3.9,0.1 4,0.1 4,0.1 3.9,0.1 4,0.1 4,0.1 3.9,0.1 4,0.2 4,0.1 3.9,0.1 4,0.2 4,0.1 3.9,0.1 4,0.2 4,0.1 3.9,0.2 4,0.2 4,0.1 3.9,0.2 4,0.2 4,0.2 3.9,0.2 4,0.1 4,0.3 3.9,0.2 4,0.2 4,0.2 3.9,0.2 4,0.3 4,0.2 3.9,0.2 4,0.3 4,0.3 3.9,0.2 4,0.3 4,0.3 3.9,0.3 4,0.3 4,0.3 3.9,0.3 4,0.4 4,0.3 3.9,0.3 4,0.4 4,0.4 3.9,0.4 4,0.3 4,0.5 3.9,0.4 4,0.4 4,0.4 3.9,0.5 4,0.4 4,0.5 3.9,0.5 4,0.5 4,0.5 3.9,0.5 4,0.6 4,0.5 3.9,0.6 4,0.6 4,0.6 3.9,0.6 4,0.6 4,0.7 3.9,0.6 4,0.7 4,0.7 3.9,0.7 4,0.7 4,0.8 3.9,0.8 4,0.7 4,0.9 3.9,0.8 4,0.8 4,0.9 3.9,0.9 4,0.9 4,0.9 3.9,1 4,1 4,1 3.9,1 4,1 4,1.1 3.9,1.1 4,1.1 4,1.2 3.9,1.2 4,1.2 4,1.2 3.9,1.2 4,1.3 4,1.3 3.9,1.4 4,1.4 4,1.4 3.9,1.4 4,1.5 4,1.5 3.9,1.5 4,1.6 4,1.5 3.9,1.7 4,1.6 4,1.7 3.9,1.8 4,1.7 4,1.8 3.9,1.9 4,1.9 4,1.9 3.9,1.9 4,2 4,2 3.9,2.1 4,2.1 4,2.2 3.9,2.2 4,2.2 4,2.3 3.9,2.3 4,2.4 4,2.4 3.9,2.5 4,2.5 4,2.5 3.9,2.6 4,2.6 4,2.7 3.9,2.8 4,2.8 4,2.8 3.9,2.9 4,2.9 4,3 3.9,3 4,3.1 4,3.2 3.9,3.1 4,3.3 4,3.3 3.9,3.3 4,3.4 4,3.5 3.9,3.5 4,3.6 4,3.6 3.9,3.7 4,3.8 4,3.8 3.9,3.8 4,3.9 4,4 3.9,4 4,4.1 4,4.2 3.9,4.2 4,4.3 4,4.3 3.9,4.4 4,4.5 4,4.5 3.9,4.6 4,4.6 4,4.7 3.9,4.8 4,4.8 4,4.9 3.9,5 4,5 4,5.1 3.9,5.1 4,5.2 4,5.3 3.9,5.3 4,5.4 4,5.5 3.9,5.5 4,5.6 4,5.7 3.9,5.7 4,5.8 4,5.9 3.9,5.9 4,6 4,6 3.9,6.1 4,6.2 4,6.2 3.9,6.3 4,6.4 4,6.4 3.9,6.5 4,6.5 4,6.6 3.9,6.7 4,6.7 4,6.8 3.9,6.8 4,6.9 4,7 3.9,7 4,7.1 4,7.2 3.9,7.1 4,7.3 4,7.3 3.9,7.4 4,7.4 4,7.4 3.9,7.6 4,7.5 4,7.7 3.9,7.6 4,7.8 4,7.7 3.9,7.8 4,7.9 4,7.9 3.9,8 4,8 4,8 3.9,8.1 4,8.1 4,8.2 3.9,8.2 4,8.2 4,8.3 3.9,8.3 4,8.3 4,8.4 3.9,8.4 4,8.5 4,8.4 3.9,8.5 4,8.5 4,8.6 3.9,8.5 4,8.6 4,8.6 3.9,8.6 4,8.7 4,8.6 3.9,8.7 4,8.6 4,8.7 3.9,8.7 4,8.7 4,8.7 3.9,8.7 4,8.7 v -871.1 h -1190" /><path
             id="path62"
             style="fill:none;stroke:#000000;stroke-width:15;stroke-linecap:round;stroke-linejoin:round;stroke-miterlimit:10;stroke-dasharray:none;stroke-opacity:1"
             d="m 1533.7,3561.9 4,0.1 h 15.8 l 4,0.1 h 4 3.9 4 l 4,0.1 h 3.9 4 l 4,0.1 h 3.9 4 l 4,0.1 h 3.9 4 l 4,0.1 h 3.9 4 l 4,0.1 h 3.9 l 4,0.1 h 4 l 3.9,0.1 h 4 l 4,0.1 h 3.9 l 4,0.1 h 4 l 3.9,0.1 4,0.1 h 4 l 3.9,0.1 4,0.1 h 4 l 3.9,0.1 4,0.1 4,0.1 h 3.9 l 4,0.1 4,0.1 3.9,0.1 4,0.1 4,0.1 3.9,0.1 4,0.1 4,0.1 3.9,0.1 4,0.1 4,0.1 3.9,0.1 4,0.2 4,0.1 3.9,0.1 4,0.2 4,0.1 3.9,0.1 4,0.2 4,0.1 3.9,0.2 4,0.2 4,0.1 3.9,0.2 4,0.2 4,0.2 3.9,0.2 4,0.1 4,0.3 3.9,0.2 4,0.2 4,0.2 3.9,0.2 4,0.3 4,0.2 3.9,0.2 4,0.3 4,0.3 3.9,0.2 4,0.3 4,0.3 3.9,0.3 4,0.3 4,0.3 3.9,0.3 4,0.4 4,0.3 3.9,0.3 4,0.4 4,0.4 3.9,0.4 4,0.3 4,0.5 3.9,0.4 4,0.4 4,0.4 3.9,0.5 4,0.4 4,0.5 3.9,0.5 4,0.5 4,0.5 3.9,0.5 4,0.6 4,0.5 3.9,0.6 4,0.6 4,0.6 3.9,0.6 4,0.6 4,0.7 3.9,0.6 4,0.7 4,0.7 3.9,0.7 4,0.7 4,0.8 3.9,0.8 4,0.7 4,0.9 3.9,0.8 4,0.8 4,0.9 3.9,0.9 4,0.9 4,0.9 3.9,1 4,1 4,1 3.9,1 4,1 4,1.1 3.9,1.1 4,1.1 4,1.2 3.9,1.2 4,1.2 4,1.2 3.9,1.2 4,1.3 4,1.3 3.9,1.4 4,1.4 4,1.4 3.9,1.4 4,1.5 4,1.5 3.9,1.5 4,1.6 4,1.5 3.9,1.7 4,1.6 4,1.7 3.9,1.8 4,1.7 4,1.8 3.9,1.9 4,1.9 4,1.9 3.9,1.9 4,2 4,2 3.9,2.1 4,2.1 4,2.2 3.9,2.2 4,2.2 4,2.3 3.9,2.3 4,2.4 4,2.4 3.9,2.5 4,2.5 4,2.5 3.9,2.6 4,2.6 4,2.7 3.9,2.8 4,2.8 4,2.8 3.9,2.9 4,2.9 4,3 3.9,3 4,3.1 4,3.2 3.9,3.1 4,3.3 4,3.3 3.9,3.3 4,3.4 4,3.5 3.9,3.5 4,3.6 4,3.6 3.9,3.7 4,3.8 4,3.8 3.9,3.8 4,3.9 4,4 3.9,4 4,4.1 4,4.2 3.9,4.2 4,4.3 4,4.3 3.9,4.4 4,4.5 4,4.5 3.9,4.6 4,4.6 4,4.7 3.9,4.8 4,4.8 4,4.9 3.9,5 4,5 4,5.1 3.9,5.1 4,5.2 4,5.3 3.9,5.3 4,5.4 4,5.5 3.9,5.5 4,5.6 4,5.7 3.9,5.7 4,5.8 4,5.9 3.9,5.9 4,6 4,6 3.9,6.1 4,6.2 4,6.2 3.9,6.3 4,6.4 4,6.4 3.9,6.5 4,6.5 4,6.6 3.9,6.7 4,6.7 4,6.8 3.9,6.8 4,6.9 4,7 3.9,7 4,7.1 4,7.2 3.9,7.1 4,7.3 4,7.3 3.9,7.4 4,7.4 4,7.4 3.9,7.6 4,7.5 4,7.7 3.9,7.6 4,7.8 4,7.7 3.9,7.8 4,7.9 4,7.9 3.9,8 4,8 4,8 3.9,8.1 4,8.1 4,8.2 3.9,8.2 4,8.2 4,8.3 3.9,8.3 4,8.3 4,8.4 3.9,8.4 4,8.5 4,8.4 3.9,8.5 4,8.5 4,8.6 3.9,8.5 4,8.6 4,8.6 3.9,8.6 4,8.7 4,8.6 3.9,8.7 4,8.6 4,8.7 3.9,8.7 4,8.7 4,8.7 3.9,8.7 4,8.7 4,8.8 3.9,8.7 4,8.7 4,8.7 3.9,8.7 4,8.6 4,8.7 3.9,8.7 4,8.6 4,8.7 3.9,8.6 4,8.6 4,8.5 3.9,8.6 4,8.5 4,8.5 3.9,8.4 4,8.5 4,8.4 3.9,8.3 4,8.4 4,8.2 3.9,8.3 4,8.2 4,8.1 3.9,8.2 4,8 4,8 3.9,8 4,7.9 4,7.8 3.9,7.8 4,7.7 4,7.7 3.9,7.5 4,7.6 4,7.4 3.9,7.4 4,7.3 4,7.3 3.9,7.1 4,7.1 4,7 3.9,6.9 4,6.8 4,6.8 3.9,6.7 4,6.5 4,6.5 3.9,6.4 4,6.3 4,6.2 3.9,6.1 4,6 4,5.8 3.9,5.8 4,5.7 4,5.6 3.9,5.5 4,5.3 4,5.3 3.9,5.1 4,5 4,4.9 3.9,4.8 4,4.7 4,4.5 3.9,4.5 4,4.3 4,4.1 3.9,4.1 4,3.9 4,3.8 3.9,3.7 4,3.6 4,3.4 3.9,3.3 4,3.1 4,3 3.9,2.9 4,2.8 4,2.6 3.9,2.4 4,2.4 4,2.2 3.9,2 4,2 4,1.7 3.9,1.7 4,1.5 4,1.3 3.9,1.3 4,1 4,1 3.9,0.7 4,0.7 4,0.5 3.9,0.4 4,0.2 h 4 3.9 l 4,-0.2 4,-0.4 3.9,-0.5 4,-0.7 4,-0.7 3.9,-1 4,-1 4,-1.3 3.9,-1.3 4,-1.5 4,-1.7 3.9,-1.7 4,-2 4,-2 3.9,-2.2 4,-2.4 4,-2.4 3.9,-2.6 4,-2.8 4,-2.9 3.9,-3 4,-3.1 4,-3.3 3.9,-3.4 4,-3.6 4,-3.7 3.9,-3.8 4,-3.9 4,-4.1 3.9,-4.1 4,-4.3 4,-4.5 3.9,-4.5 4,-4.7 4,-4.8 3.9,-4.9 4,-5 4,-5.1 3.9,-5.3 4,-5.3 4,-5.5 3.9,-5.6 4,-5.7 4,-5.8 3.9,-5.8 4,-6 4,-6.1 3.9,-6.2 4,-6.3 4,-6.4 3.9,-6.5 4,-6.5 4,-6.7 3.9,-6.8 4,-6.8 4,-6.9 3.9,-7 4,-7.1 4,-7.1 3.9,-7.3 4,-7.3 4,-7.4 3.9,-7.4 4,-7.6 4,-7.5 3.9,-7.7 4,-7.7 4,-7.8 3.9,-7.8 4,-7.9 4,-8 3.9,-8 4,-8 4,-8.2 3.9,-8.1 4,-8.2 4,-8.3 3.9,-8.2 4,-8.4 4,-8.3 3.9,-8.4 4,-8.5 4,-8.4 3.9,-8.5 4,-8.5 4,-8.6 3.9,-8.5 4,-8.6 4,-8.6 3.9,-8.7 4,-8.6 4,-8.7 3.9,-8.7 4,-8.6 4,-8.7 3.9,-8.7 4,-8.7 4,-8.7 3.9,-8.8 4,-8.7 4,-8.7 3.9,-8.7 4,-8.7 4,-8.7 3.9,-8.7 4,-8.6 4,-8.7 3.9,-8.6 4,-8.7 4,-8.6 3.9,-8.6 4,-8.6 4,-8.5 3.9,-8.6 4,-8.5 4,-8.5 3.9,-8.4 4,-8.5 4,-8.4 3.9,-8.4 4,-8.3 4,-8.3 3.9,-8.3 4,-8.2 4,-8.2 3.9,-8.2 4,-8.1 4,-8.1 3.9,-8 4,-8 4,-8 3.9,-7.9 4,-7.9 4,-7.8 3.9,-7.7 4,-7.8 4,-7.6 3.9,-7.7 4,-7.5 4,-7.6 3.9,-7.4 4,-7.4 4,-7.4 3.9,-7.3 4,-7.3 4,-7.1 3.9,-7.2 4,-7.1 4,-7 3.9,-7 4,-6.9 4,-6.8 3.9,-6.8 4,-6.7 4,-6.7 3.9,-6.6 4,-6.5 4,-6.5 3.9,-6.4 4,-6.4 4,-6.3 3.9,-6.2 4,-6.2 4,-6.1 3.9,-6 4,-6 4,-5.9 3.9,-5.9 4,-5.8 4,-5.7 3.9,-5.7 4,-5.6 4,-5.5 3.9,-5.5 4,-5.4 4,-5.3 3.9,-5.3 4,-5.2 4,-5.1 3.9,-5.1 4,-5 4,-5 3.9,-4.9 4,-4.8 4,-4.8 3.9,-4.7 4,-4.6 4,-4.6 3.9,-4.5 4,-4.5 4,-4.4 3.9,-4.3 4,-4.3 4,-4.2 3.9,-4.2 4,-4.1 4,-4 3.9,-4 4,-3.9 4,-3.8 3.9,-3.8 4,-3.8 4,-3.7 3.9,-3.6 4,-3.6 4,-3.5 3.9,-3.5 4,-3.4 4,-3.3 3.9,-3.3 4,-3.3 4,-3.1 3.9,-3.2 4,-3.1 4,-3 3.9,-3 4,-2.9 4,-2.9 3.9,-2.8 4,-2.8 4,-2.8 3.9,-2.7 4,-2.6 4,-2.6 3.9,-2.5 4,-2.5 4,-2.5 3.9,-2.4 4,-2.4 4,-2.3 3.9,-2.3 4,-2.2 4,-2.2 3.9,-2.2 4,-2.1 4,-2.1 3.9,-2 4,-2 4,-1.9 3.9,-1.9 4,-1.9 4,-1.9 3.9,-1.8 4,-1.7 4,-1.8 3.9,-1.7 4,-1.6 4,-1.7 3.9,-1.5 4,-1.6 4,-1.5 3.9,-1.5 4,-1.5 4,-1.4 3.9,-1.4 4,-1.4 4,-1.4 3.9,-1.3 4,-1.3 4,-1.2 3.9,-1.2 4,-1.2 4,-1.2 3.9,-1.2 4,-1.1 4,-1.1 3.9,-1.1 4,-1 4,-1 3.9,-1 4,-1 4,-1 3.9,-0.9 4,-0.9 4,-0.9 3.9,-0.9 4,-0.8 4,-0.8 3.9,-0.9 4,-0.7 4,-0.8 3.9,-0.8 4,-0.7 4,-0.7 3.9,-0.7 4,-0.7 4,-0.6 3.9,-0.7 4,-0.6 4,-0.6 3.9,-0.6 4,-0.6 4,-0.6 3.9,-0.5 4,-0.6 4,-0.5 3.9,-0.5 4,-0.5 4,-0.5 3.9,-0.5 4,-0.4 4,-0.5 3.9,-0.4 4,-0.4 4,-0.4 3.9,-0.5 4,-0.3 4,-0.4 3.9,-0.4 4,-0.4 4,-0.3 3.9,-0.3 4,-0.4 4,-0.3 3.9,-0.3 4,-0.3 4,-0.3 3.9,-0.3 4,-0.3 4,-0.2 3.9,-0.3 4,-0.3 4,-0.2 3.9,-0.2 4,-0.3 4,-0.2 3.9,-0.2 4,-0.2 4,-0.2 3.9,-0.3 4,-0.1 4,-0.2 3.9,-0.2 4,-0.2 4,-0.2 3.9,-0.1 4,-0.2 4,-0.2 3.9,-0.1 4,-0.2 4,-0.1 3.9,-0.1 4,-0.2 4,-0.1 3.9,-0.1 4,-0.2 4,-0.1 3.9,-0.1 4,-0.1 4,-0.1 3.9,-0.1 4,-0.1 4,-0.1 3.9,-0.1 4,-0.1 4,-0.1 3.9,-0.1 4,-0.1 h 4 l 3.9,-0.1 4,-0.1 4,-0.1 h 3.9 l 4,-0.1 4,-0.1 h 3.9 l 4,-0.1 4,-0.1 h 3.9 l 4,-0.1 h 4 l 3.9,-0.1 h 4 l 4,-0.1 h 3.9 l 4,-0.1 h 4 l 3.9,-0.1 h 4 4 l 3.9,-0.1 h 4 4 l 3.9,-0.1 h 4 4 l 3.9,-0.1 h 4 4 l 3.9,-0.1 h 4 4 3.9 l 4,-0.1 h 4 3.9 4 4 l 3.9,-0.1" /></g></g><g
         id="g64"
         transform="scale(0.1)"><g
           clip-path="url(#clipPath70)"
           id="g66"><path
             id="path72"
             style="fill:none;stroke:#000000;stroke-width:7.5;stroke-linecap:round;stroke-linejoin:round;stroke-miterlimit:10;stroke-dasharray:none;stroke-opacity:1"
             d="M 1533.7,3503.8 H 4707" /><path
             id="path74"
             style="fill:none;stroke:#000000;stroke-width:7.5;stroke-linecap:round;stroke-linejoin:round;stroke-miterlimit:10;stroke-dasharray:none;stroke-opacity:1"
             d="m 1533.7,3503.8 v -72" /><path
             id="path76"
             style="fill:none;stroke:#000000;stroke-width:7.5;stroke-linecap:round;stroke-linejoin:round;stroke-miterlimit:10;stroke-dasharray:none;stroke-opacity:1"
             d="m 1930.4,3503.8 v -72" /><path
             id="path78"
             style="fill:none;stroke:#000000;stroke-width:7.5;stroke-linecap:round;stroke-linejoin:round;stroke-miterlimit:10;stroke-dasharray:none;stroke-opacity:1"
             d="m 2327,3503.8 v -72" /><path
             id="path80"
             style="fill:none;stroke:#000000;stroke-width:7.5;stroke-linecap:round;stroke-linejoin:round;stroke-miterlimit:10;stroke-dasharray:none;stroke-opacity:1"
             d="m 2723.7,3503.8 v -72" /><path
             id="path82"
             style="fill:none;stroke:#000000;stroke-width:7.5;stroke-linecap:round;stroke-linejoin:round;stroke-miterlimit:10;stroke-dasharray:none;stroke-opacity:1"
             d="m 3120.4,3503.8 v -72" /><path
             id="path84"
             style="fill:none;stroke:#000000;stroke-width:7.5;stroke-linecap:round;stroke-linejoin:round;stroke-miterlimit:10;stroke-dasharray:none;stroke-opacity:1"
             d="m 3517,3503.8 v -72" /><path
             id="path86"
             style="fill:none;stroke:#000000;stroke-width:7.5;stroke-linecap:round;stroke-linejoin:round;stroke-miterlimit:10;stroke-dasharray:none;stroke-opacity:1"
             d="m 3913.7,3503.8 v -72" /><path
             id="path88"
             style="fill:none;stroke:#000000;stroke-width:7.5;stroke-linecap:round;stroke-linejoin:round;stroke-miterlimit:10;stroke-dasharray:none;stroke-opacity:1"
             d="m 4310.4,3503.8 v -72" /><path
             id="path90"
             style="fill:none;stroke:#000000;stroke-width:7.5;stroke-linecap:round;stroke-linejoin:round;stroke-miterlimit:10;stroke-dasharray:none;stroke-opacity:1"
             d="m 4707,3503.8 v -72" /><g
             transform="scale(10)"
             id="g92"><text
               id="text96"
               style="font-variant:normal;font-weight:normal;font-size:16px;font-family:Helvetica;-inkscape-font-specification:Helvetica;writing-mode:lr-tb;fill:#000000;fill-opacity:1;fill-rule:nonzero;stroke:none"
               transform="matrix(1,0,0,-1,144.25,324.46)"><tspan
                 id="tspan94"
                 y="0"
                 x="0 9.3439999 39.669922 49.01392 79.330078 88.67408 119 128.34399 163.34177 203.0016 242.67184 282.34177 322.00159">−4−3−2−101234</tspan></text><text
               id="text100"
               style="font-variant:normal;font-weight:normal;font-size:19px;font-family:Helvetica;-inkscape-font-specification:Helvetica;writing-mode:lr-tb;fill:#000000;fill-opacity:1;fill-rule:nonzero;stroke:none"
               transform="matrix(1,0,0,-1,218.8285,528.6)"><tspan
                 id="tspan98"
                 y="0"
                 x="0 12.673 23.237 33.800999 44.365002 54.929001 65.492996 70.775002 83.447998 89.775002 100.339 110.903 116.185 127.281 132.563 143.127 153.69099 158.97301 169.537">Shaded Area = 15.9%</tspan></text></g></g></g></g><g
       transform="translate(229.66201,234.20702)"
       id="g1758"><g
         transform="scale(0.1)"
         id="g939"><g
           id="g941"
           clip-path="url(#clipPath945)"><path
             d="m 2923.9,4831.8 196.5,128.8"
             style="fill:none;stroke:#0000ff;stroke-width:7.5;stroke-linecap:round;stroke-linejoin:round;stroke-miterlimit:10;stroke-dasharray:none;stroke-opacity:1"
             id="path947" /><path
             d="m 2860.6,4720.3 259.8,170.3"
             style="fill:none;stroke:#0000ff;stroke-width:7.5;stroke-linecap:round;stroke-linejoin:round;stroke-miterlimit:10;stroke-dasharray:none;stroke-opacity:1"
             id="path949" /><path
             d="m 2808.8,4616.5 311.6,204.2"
             style="fill:none;stroke:#0000ff;stroke-width:7.5;stroke-linecap:round;stroke-linejoin:round;stroke-miterlimit:10;stroke-dasharray:none;stroke-opacity:1"
             id="path951" /><path
             d="m 2761.6,4515.6 358.8,235.1"
             style="fill:none;stroke:#0000ff;stroke-width:7.5;stroke-linecap:round;stroke-linejoin:round;stroke-miterlimit:10;stroke-dasharray:none;stroke-opacity:1"
             id="path953" /><path
             d="m 2723.7,4420.8 396.7,260"
             style="fill:none;stroke:#0000ff;stroke-width:7.5;stroke-linecap:round;stroke-linejoin:round;stroke-miterlimit:10;stroke-dasharray:none;stroke-opacity:1"
             id="path955" /><path
             d="m 2723.7,4350.8 396.7,260"
             style="fill:none;stroke:#0000ff;stroke-width:7.5;stroke-linecap:round;stroke-linejoin:round;stroke-miterlimit:10;stroke-dasharray:none;stroke-opacity:1"
             id="path957" /><path
             d="m 2723.7,4280.9 396.7,260"
             style="fill:none;stroke:#0000ff;stroke-width:7.5;stroke-linecap:round;stroke-linejoin:round;stroke-miterlimit:10;stroke-dasharray:none;stroke-opacity:1"
             id="path959" /><path
             d="m 2723.7,4210.9 396.7,260"
             style="fill:none;stroke:#0000ff;stroke-width:7.5;stroke-linecap:round;stroke-linejoin:round;stroke-miterlimit:10;stroke-dasharray:none;stroke-opacity:1"
             id="path961" /><path
             d="m 2723.7,4140.9 396.7,260"
             style="fill:none;stroke:#0000ff;stroke-width:7.5;stroke-linecap:round;stroke-linejoin:round;stroke-miterlimit:10;stroke-dasharray:none;stroke-opacity:1"
             id="path963" /><path
             d="m 2723.7,4071 396.7,260"
             style="fill:none;stroke:#0000ff;stroke-width:7.5;stroke-linecap:round;stroke-linejoin:round;stroke-miterlimit:10;stroke-dasharray:none;stroke-opacity:1"
             id="path965" /><path
             d="m 2723.7,4001 396.7,260"
             style="fill:none;stroke:#0000ff;stroke-width:7.5;stroke-linecap:round;stroke-linejoin:round;stroke-miterlimit:10;stroke-dasharray:none;stroke-opacity:1"
             id="path967" /><path
             d="m 2723.7,3931.1 396.7,260"
             style="fill:none;stroke:#0000ff;stroke-width:7.5;stroke-linecap:round;stroke-linejoin:round;stroke-miterlimit:10;stroke-dasharray:none;stroke-opacity:1"
             id="path969" /><path
             d="m 2723.7,3861.1 396.7,260"
             style="fill:none;stroke:#0000ff;stroke-width:7.5;stroke-linecap:round;stroke-linejoin:round;stroke-miterlimit:10;stroke-dasharray:none;stroke-opacity:1"
             id="path971" /><path
             d="m 2723.7,3791.2 396.7,260"
             style="fill:none;stroke:#0000ff;stroke-width:7.5;stroke-linecap:round;stroke-linejoin:round;stroke-miterlimit:10;stroke-dasharray:none;stroke-opacity:1"
             id="path973" /><path
             d="m 2723.7,3721.2 396.7,260"
             style="fill:none;stroke:#0000ff;stroke-width:7.5;stroke-linecap:round;stroke-linejoin:round;stroke-miterlimit:10;stroke-dasharray:none;stroke-opacity:1"
             id="path975" /><path
             d="m 2723.7,3651.2 396.7,260"
             style="fill:none;stroke:#0000ff;stroke-width:7.5;stroke-linecap:round;stroke-linejoin:round;stroke-miterlimit:10;stroke-dasharray:none;stroke-opacity:1"
             id="path977" /><path
             d="m 2723.7,3581.3 396.7,260"
             style="fill:none;stroke:#0000ff;stroke-width:7.5;stroke-linecap:round;stroke-linejoin:round;stroke-miterlimit:10;stroke-dasharray:none;stroke-opacity:1"
             id="path979" /><path
             d="m 2800.2,3561.4 320.2,209.9"
             style="fill:none;stroke:#0000ff;stroke-width:7.5;stroke-linecap:round;stroke-linejoin:round;stroke-miterlimit:10;stroke-dasharray:none;stroke-opacity:1"
             id="path981" /><path
             d="m 2906.9,3561.4 213.5,140"
             style="fill:none;stroke:#0000ff;stroke-width:7.5;stroke-linecap:round;stroke-linejoin:round;stroke-miterlimit:10;stroke-dasharray:none;stroke-opacity:1"
             id="path983" /><path
             d="m 3013.6,3561.4 106.8,70"
             style="fill:none;stroke:#0000ff;stroke-width:7.5;stroke-linecap:round;stroke-linejoin:round;stroke-miterlimit:10;stroke-dasharray:none;stroke-opacity:1"
             id="path985" /><path
             d="m 3120.4,3561.4 v 0"
             style="fill:none;stroke:#0000ff;stroke-width:7.5;stroke-linecap:round;stroke-linejoin:round;stroke-miterlimit:10;stroke-dasharray:none;stroke-opacity:1"
             id="path987" /><path
             d="m 2723.7,3561.4 v 871.1 l 4,8.8 3.9,8.7 4,8.7 4,8.7 3.9,8.7 4,8.6 4,8.7 3.9,8.7 4,8.6 4,8.7 3.9,8.6 4,8.6 4,8.5 3.9,8.6 4,8.5 4,8.5 3.9,8.4 4,8.5 4,8.4 3.9,8.3 4,8.4 4,8.2 3.9,8.3 4,8.2 4,8.1 3.9,8.2 4,8 4,8 3.9,8 4,7.9 4,7.8 3.9,7.8 4,7.7 4,7.7 3.9,7.5 4,7.6 4,7.4 3.9,7.4 4,7.3 4,7.3 3.9,7.1 4,7.1 4,7 3.9,6.9 4,6.8 4,6.8 3.9,6.7 4,6.5 4,6.5 3.9,6.4 4,6.3 4,6.2 3.9,6.1 4,6 4,5.8 3.9,5.8 4,5.7 4,5.6 3.9,5.5 4,5.3 4,5.3 3.9,5.1 4,5 4,4.9 3.9,4.8 4,4.7 4,4.5 3.9,4.5 4,4.3 4,4.1 3.9,4.1 4,3.9 4,3.8 3.9,3.7 4,3.6 4,3.4 3.9,3.3 4,3.1 4,3 3.9,2.9 4,2.8 4,2.6 3.9,2.4 4,2.4 4,2.2 3.9,2 4,2 4,1.7 3.9,1.7 4,1.5 4,1.3 3.9,1.3 4,1 4,1 3.9,0.7 4,0.7 4,0.5 3.9,0.4 4,0.2 h 4 V 3561.4 h -396.7"
             style="fill:none;stroke:#0000ff;stroke-width:7.5;stroke-linecap:round;stroke-linejoin:round;stroke-miterlimit:10;stroke-dasharray:none;stroke-opacity:1"
             id="path989" /><path
             d="m 1533.7,3561.9 4,0.1 h 15.8 l 4,0.1 h 4 3.9 4 l 4,0.1 h 3.9 4 l 4,0.1 h 3.9 4 l 4,0.1 h 3.9 4 l 4,0.1 h 3.9 4 l 4,0.1 h 3.9 l 4,0.1 h 4 l 3.9,0.1 h 4 l 4,0.1 h 3.9 l 4,0.1 h 4 l 3.9,0.1 4,0.1 h 4 l 3.9,0.1 4,0.1 h 4 l 3.9,0.1 4,0.1 4,0.1 h 3.9 l 4,0.1 4,0.1 3.9,0.1 4,0.1 4,0.1 3.9,0.1 4,0.1 4,0.1 3.9,0.1 4,0.1 4,0.1 3.9,0.1 4,0.2 4,0.1 3.9,0.1 4,0.2 4,0.1 3.9,0.1 4,0.2 4,0.1 3.9,0.2 4,0.2 4,0.1 3.9,0.2 4,0.2 4,0.2 3.9,0.2 4,0.1 4,0.3 3.9,0.2 4,0.2 4,0.2 3.9,0.2 4,0.3 4,0.2 3.9,0.2 4,0.3 4,0.3 3.9,0.2 4,0.3 4,0.3 3.9,0.3 4,0.3 4,0.3 3.9,0.3 4,0.4 4,0.3 3.9,0.3 4,0.4 4,0.4 3.9,0.4 4,0.3 4,0.5 3.9,0.4 4,0.4 4,0.4 3.9,0.5 4,0.4 4,0.5 3.9,0.5 4,0.5 4,0.5 3.9,0.5 4,0.6 4,0.5 3.9,0.6 4,0.6 4,0.6 3.9,0.6 4,0.6 4,0.7 3.9,0.6 4,0.7 4,0.7 3.9,0.7 4,0.7 4,0.8 3.9,0.8 4,0.7 4,0.9 3.9,0.8 4,0.8 4,0.9 3.9,0.9 4,0.9 4,0.9 3.9,1 4,1 4,1 3.9,1 4,1 4,1.1 3.9,1.1 4,1.1 4,1.2 3.9,1.2 4,1.2 4,1.2 3.9,1.2 4,1.3 4,1.3 3.9,1.4 4,1.4 4,1.4 3.9,1.4 4,1.5 4,1.5 3.9,1.5 4,1.6 4,1.5 3.9,1.7 4,1.6 4,1.7 3.9,1.8 4,1.7 4,1.8 3.9,1.9 4,1.9 4,1.9 3.9,1.9 4,2 4,2 3.9,2.1 4,2.1 4,2.2 3.9,2.2 4,2.2 4,2.3 3.9,2.3 4,2.4 4,2.4 3.9,2.5 4,2.5 4,2.5 3.9,2.6 4,2.6 4,2.7 3.9,2.8 4,2.8 4,2.8 3.9,2.9 4,2.9 4,3 3.9,3 4,3.1 4,3.2 3.9,3.1 4,3.3 4,3.3 3.9,3.3 4,3.4 4,3.5 3.9,3.5 4,3.6 4,3.6 3.9,3.7 4,3.8 4,3.8 3.9,3.8 4,3.9 4,4 3.9,4 4,4.1 4,4.2 3.9,4.2 4,4.3 4,4.3 3.9,4.4 4,4.5 4,4.5 3.9,4.6 4,4.6 4,4.7 3.9,4.8 4,4.8 4,4.9 3.9,5 4,5 4,5.1 3.9,5.1 4,5.2 4,5.3 3.9,5.3 4,5.4 4,5.5 3.9,5.5 4,5.6 4,5.7 3.9,5.7 4,5.8 4,5.9 3.9,5.9 4,6 4,6 3.9,6.1 4,6.2 4,6.2 3.9,6.3 4,6.4 4,6.4 3.9,6.5 4,6.5 4,6.6 3.9,6.7 4,6.7 4,6.8 3.9,6.8 4,6.9 4,7 3.9,7 4,7.1 4,7.2 3.9,7.1 4,7.3 4,7.3 3.9,7.4 4,7.4 4,7.4 3.9,7.6 4,7.5 4,7.7 3.9,7.6 4,7.8 4,7.7 3.9,7.8 4,7.9 4,7.9 3.9,8 4,8 4,8 3.9,8.1 4,8.1 4,8.2 3.9,8.2 4,8.2 4,8.3 3.9,8.3 4,8.3 4,8.4 3.9,8.4 4,8.5 4,8.4 3.9,8.5 4,8.5 4,8.6 3.9,8.5 4,8.6 4,8.6 3.9,8.6 4,8.7 4,8.6 3.9,8.7 4,8.6 4,8.7 3.9,8.7 4,8.7 4,8.7 3.9,8.7 4,8.7 4,8.8 3.9,8.7 4,8.7 4,8.7 3.9,8.7 4,8.6 4,8.7 3.9,8.7 4,8.6 4,8.7 3.9,8.6 4,8.6 4,8.5 3.9,8.6 4,8.5 4,8.5 3.9,8.4 4,8.5 4,8.4 3.9,8.3 4,8.4 4,8.2 3.9,8.3 4,8.2 4,8.1 3.9,8.2 4,8 4,8 3.9,8 4,7.9 4,7.8 3.9,7.8 4,7.7 4,7.7 3.9,7.5 4,7.6 4,7.4 3.9,7.4 4,7.3 4,7.3 3.9,7.1 4,7.1 4,7 3.9,6.9 4,6.8 4,6.8 3.9,6.7 4,6.5 4,6.5 3.9,6.4 4,6.3 4,6.2 3.9,6.1 4,6 4,5.8 3.9,5.8 4,5.7 4,5.6 3.9,5.5 4,5.3 4,5.3 3.9,5.1 4,5 4,4.9 3.9,4.8 4,4.7 4,4.5 3.9,4.5 4,4.3 4,4.1 3.9,4.1 4,3.9 4,3.8 3.9,3.7 4,3.6 4,3.4 3.9,3.3 4,3.1 4,3 3.9,2.9 4,2.8 4,2.6 3.9,2.4 4,2.4 4,2.2 3.9,2 4,2 4,1.7 3.9,1.7 4,1.5 4,1.3 3.9,1.3 4,1 4,1 3.9,0.7 4,0.7 4,0.5 3.9,0.4 4,0.2 h 4 3.9 l 4,-0.2 4,-0.4 3.9,-0.5 4,-0.7 4,-0.7 3.9,-1 4,-1 4,-1.3 3.9,-1.3 4,-1.5 4,-1.7 3.9,-1.7 4,-2 4,-2 3.9,-2.2 4,-2.4 4,-2.4 3.9,-2.6 4,-2.8 4,-2.9 3.9,-3 4,-3.1 4,-3.3 3.9,-3.4 4,-3.6 4,-3.7 3.9,-3.8 4,-3.9 4,-4.1 3.9,-4.1 4,-4.3 4,-4.5 3.9,-4.5 4,-4.7 4,-4.8 3.9,-4.9 4,-5 4,-5.1 3.9,-5.3 4,-5.3 4,-5.5 3.9,-5.6 4,-5.7 4,-5.8 3.9,-5.8 4,-6 4,-6.1 3.9,-6.2 4,-6.3 4,-6.4 3.9,-6.5 4,-6.5 4,-6.7 3.9,-6.8 4,-6.8 4,-6.9 3.9,-7 4,-7.1 4,-7.1 3.9,-7.3 4,-7.3 4,-7.4 3.9,-7.4 4,-7.6 4,-7.5 3.9,-7.7 4,-7.7 4,-7.8 3.9,-7.8 4,-7.9 4,-8 3.9,-8 4,-8 4,-8.2 3.9,-8.1 4,-8.2 4,-8.3 3.9,-8.2 4,-8.4 4,-8.3 3.9,-8.4 4,-8.5 4,-8.4 3.9,-8.5 4,-8.5 4,-8.6 3.9,-8.5 4,-8.6 4,-8.6 3.9,-8.7 4,-8.6 4,-8.7 3.9,-8.7 4,-8.6 4,-8.7 3.9,-8.7 4,-8.7 4,-8.7 3.9,-8.8 4,-8.7 4,-8.7 3.9,-8.7 4,-8.7 4,-8.7 3.9,-8.7 4,-8.6 4,-8.7 3.9,-8.6 4,-8.7 4,-8.6 3.9,-8.6 4,-8.6 4,-8.5 3.9,-8.6 4,-8.5 4,-8.5 3.9,-8.4 4,-8.5 4,-8.4 3.9,-8.4 4,-8.3 4,-8.3 3.9,-8.3 4,-8.2 4,-8.2 3.9,-8.2 4,-8.1 4,-8.1 3.9,-8 4,-8 4,-8 3.9,-7.9 4,-7.9 4,-7.8 3.9,-7.7 4,-7.8 4,-7.6 3.9,-7.7 4,-7.5 4,-7.6 3.9,-7.4 4,-7.4 4,-7.4 3.9,-7.3 4,-7.3 4,-7.1 3.9,-7.2 4,-7.1 4,-7 3.9,-7 4,-6.9 4,-6.8 3.9,-6.8 4,-6.7 4,-6.7 3.9,-6.6 4,-6.5 4,-6.5 3.9,-6.4 4,-6.4 4,-6.3 3.9,-6.2 4,-6.2 4,-6.1 3.9,-6 4,-6 4,-5.9 3.9,-5.9 4,-5.8 4,-5.7 3.9,-5.7 4,-5.6 4,-5.5 3.9,-5.5 4,-5.4 4,-5.3 3.9,-5.3 4,-5.2 4,-5.1 3.9,-5.1 4,-5 4,-5 3.9,-4.9 4,-4.8 4,-4.8 3.9,-4.7 4,-4.6 4,-4.6 3.9,-4.5 4,-4.5 4,-4.4 3.9,-4.3 4,-4.3 4,-4.2 3.9,-4.2 4,-4.1 4,-4 3.9,-4 4,-3.9 4,-3.8 3.9,-3.8 4,-3.8 4,-3.7 3.9,-3.6 4,-3.6 4,-3.5 3.9,-3.5 4,-3.4 4,-3.3 3.9,-3.3 4,-3.3 4,-3.1 3.9,-3.2 4,-3.1 4,-3 3.9,-3 4,-2.9 4,-2.9 3.9,-2.8 4,-2.8 4,-2.8 3.9,-2.7 4,-2.6 4,-2.6 3.9,-2.5 4,-2.5 4,-2.5 3.9,-2.4 4,-2.4 4,-2.3 3.9,-2.3 4,-2.2 4,-2.2 3.9,-2.2 4,-2.1 4,-2.1 3.9,-2 4,-2 4,-1.9 3.9,-1.9 4,-1.9 4,-1.9 3.9,-1.8 4,-1.7 4,-1.8 3.9,-1.7 4,-1.6 4,-1.7 3.9,-1.5 4,-1.6 4,-1.5 3.9,-1.5 4,-1.5 4,-1.4 3.9,-1.4 4,-1.4 4,-1.4 3.9,-1.3 4,-1.3 4,-1.2 3.9,-1.2 4,-1.2 4,-1.2 3.9,-1.2 4,-1.1 4,-1.1 3.9,-1.1 4,-1 4,-1 3.9,-1 4,-1 4,-1 3.9,-0.9 4,-0.9 4,-0.9 3.9,-0.9 4,-0.8 4,-0.8 3.9,-0.9 4,-0.7 4,-0.8 3.9,-0.8 4,-0.7 4,-0.7 3.9,-0.7 4,-0.7 4,-0.6 3.9,-0.7 4,-0.6 4,-0.6 3.9,-0.6 4,-0.6 4,-0.6 3.9,-0.5 4,-0.6 4,-0.5 3.9,-0.5 4,-0.5 4,-0.5 3.9,-0.5 4,-0.4 4,-0.5 3.9,-0.4 4,-0.4 4,-0.4 3.9,-0.5 4,-0.3 4,-0.4 3.9,-0.4 4,-0.4 4,-0.3 3.9,-0.3 4,-0.4 4,-0.3 3.9,-0.3 4,-0.3 4,-0.3 3.9,-0.3 4,-0.3 4,-0.2 3.9,-0.3 4,-0.3 4,-0.2 3.9,-0.2 4,-0.3 4,-0.2 3.9,-0.2 4,-0.2 4,-0.2 3.9,-0.3 4,-0.1 4,-0.2 3.9,-0.2 4,-0.2 4,-0.2 3.9,-0.1 4,-0.2 4,-0.2 3.9,-0.1 4,-0.2 4,-0.1 3.9,-0.1 4,-0.2 4,-0.1 3.9,-0.1 4,-0.2 4,-0.1 3.9,-0.1 4,-0.1 4,-0.1 3.9,-0.1 4,-0.1 4,-0.1 3.9,-0.1 4,-0.1 4,-0.1 3.9,-0.1 4,-0.1 h 4 l 3.9,-0.1 4,-0.1 4,-0.1 h 3.9 l 4,-0.1 4,-0.1 h 3.9 l 4,-0.1 4,-0.1 h 3.9 l 4,-0.1 h 4 l 3.9,-0.1 h 4 l 4,-0.1 h 3.9 l 4,-0.1 h 4 l 3.9,-0.1 h 4 4 l 3.9,-0.1 h 4 4 l 3.9,-0.1 h 4 4 l 3.9,-0.1 h 4 4 l 3.9,-0.1 h 4 4 3.9 l 4,-0.1 h 4 3.9 4 4 l 3.9,-0.1"
             style="fill:none;stroke:#000000;stroke-width:15;stroke-linecap:round;stroke-linejoin:round;stroke-miterlimit:10;stroke-dasharray:none;stroke-opacity:1"
             id="path991" /></g></g><g
         transform="scale(0.1)"
         id="g993"><g
           id="g995"
           clip-path="url(#clipPath999)"><path
             d="M 1533.7,3503.8 H 4707"
             style="fill:none;stroke:#000000;stroke-width:7.5;stroke-linecap:round;stroke-linejoin:round;stroke-miterlimit:10;stroke-dasharray:none;stroke-opacity:1"
             id="path1001" /><path
             d="m 1533.7,3503.8 v -72"
             style="fill:none;stroke:#000000;stroke-width:7.5;stroke-linecap:round;stroke-linejoin:round;stroke-miterlimit:10;stroke-dasharray:none;stroke-opacity:1"
             id="path1003" /><path
             d="m 1930.4,3503.8 v -72"
             style="fill:none;stroke:#000000;stroke-width:7.5;stroke-linecap:round;stroke-linejoin:round;stroke-miterlimit:10;stroke-dasharray:none;stroke-opacity:1"
             id="path1005" /><path
             d="m 2327,3503.8 v -72"
             style="fill:none;stroke:#000000;stroke-width:7.5;stroke-linecap:round;stroke-linejoin:round;stroke-miterlimit:10;stroke-dasharray:none;stroke-opacity:1"
             id="path1007" /><path
             d="m 2723.7,3503.8 v -72"
             style="fill:none;stroke:#000000;stroke-width:7.5;stroke-linecap:round;stroke-linejoin:round;stroke-miterlimit:10;stroke-dasharray:none;stroke-opacity:1"
             id="path1009" /><path
             d="m 3120.4,3503.8 v -72"
             style="fill:none;stroke:#000000;stroke-width:7.5;stroke-linecap:round;stroke-linejoin:round;stroke-miterlimit:10;stroke-dasharray:none;stroke-opacity:1"
             id="path1011" /><path
             d="m 3517,3503.8 v -72"
             style="fill:none;stroke:#000000;stroke-width:7.5;stroke-linecap:round;stroke-linejoin:round;stroke-miterlimit:10;stroke-dasharray:none;stroke-opacity:1"
             id="path1013" /><path
             d="m 3913.7,3503.8 v -72"
             style="fill:none;stroke:#000000;stroke-width:7.5;stroke-linecap:round;stroke-linejoin:round;stroke-miterlimit:10;stroke-dasharray:none;stroke-opacity:1"
             id="path1015" /><path
             d="m 4310.4,3503.8 v -72"
             style="fill:none;stroke:#000000;stroke-width:7.5;stroke-linecap:round;stroke-linejoin:round;stroke-miterlimit:10;stroke-dasharray:none;stroke-opacity:1"
             id="path1017" /><path
             d="m 4707,3503.8 v -72"
             style="fill:none;stroke:#000000;stroke-width:7.5;stroke-linecap:round;stroke-linejoin:round;stroke-miterlimit:10;stroke-dasharray:none;stroke-opacity:1"
             id="path1019" /><g
             id="g1021"
             transform="scale(10)"><text
               transform="matrix(1,0,0,-1,144.25,324.46)"
               style="font-variant:normal;font-weight:normal;font-size:16px;font-family:Helvetica;-inkscape-font-specification:Helvetica;writing-mode:lr-tb;fill:#000000;fill-opacity:1;fill-rule:nonzero;stroke:none"
               id="text1025"><tspan
                 x="0 9.3439999 39.669922 49.01392 79.330078 88.67408 119 128.34399 163.34177 203.0016 242.67184 282.34177 322.00159"
                 y="0"
                 id="tspan1023">−4−3−2−101234</tspan></text><text
               transform="matrix(1,0,0,-1,218.8285,528.6)"
               style="font-variant:normal;font-weight:normal;font-size:19px;font-family:Helvetica;-inkscape-font-specification:Helvetica;writing-mode:lr-tb;fill:#000000;fill-opacity:1;fill-rule:nonzero;stroke:none"
               id="text1029"><tspan
                 x="0 12.673 23.237 33.800999 44.365002 54.929001 65.492996 70.775002 83.447998 89.775002 100.339 110.903 116.185 127.281 132.563 143.127 153.69099 158.97301 169.537"
                 y="0"
                 id="tspan1027">Shaded Area = 34.1%</tspan></text></g></g></g></g></g></svg>
