<?xml version="1.0" encoding="UTF-8" standalone="no"?>
<!-- Created with Inkscape (http://www.inkscape.org/) -->

<svg
   xmlns:dc="http://purl.org/dc/elements/1.1/"
   xmlns:cc="http://creativecommons.org/ns#"
   xmlns:rdf="http://www.w3.org/1999/02/22-rdf-syntax-ns#"
   xmlns:svg="http://www.w3.org/2000/svg"
   xmlns="http://www.w3.org/2000/svg"
   xmlns:sodipodi="http://sodipodi.sourceforge.net/DTD/sodipodi-0.dtd"
   xmlns:inkscape="http://www.inkscape.org/namespaces/inkscape"
   version="1.1"
   id="svg2295"
   xml:space="preserve"
   width="816"
   height="1056"
   viewBox="0 0 816 1056"
   sodipodi:docname="lsj_interaction4.eps"><metadata
     id="metadata2301"><rdf:RDF><cc:Work
         rdf:about=""><dc:format>image/svg+xml</dc:format><dc:type
           rdf:resource="http://purl.org/dc/dcmitype/StillImage" /></cc:Work></rdf:RDF></metadata><defs
     id="defs2299"><clipPath
       clipPathUnits="userSpaceOnUse"
       id="clipPath2315"><path
         d="M 1406.8,2783.8 H 4834 V 5779 H 1406.8 Z"
         id="path2313" /></clipPath><clipPath
       clipPathUnits="userSpaceOnUse"
       id="clipPath2339"><path
         d="m 816.398,2049.4 h 4320 v 4320 h -4320 z"
         id="path2337" /></clipPath><clipPath
       clipPathUnits="userSpaceOnUse"
       id="clipPath2395"><path
         d="M 1406.8,2783.8 H 4834 V 5779 H 1406.8 Z"
         id="path2393" /></clipPath></defs><sodipodi:namedview
     pagecolor="#ffffff"
     bordercolor="#666666"
     borderopacity="1"
     objecttolerance="10"
     gridtolerance="10"
     guidetolerance="10"
     inkscape:pageopacity="0"
     inkscape:pageshadow="2"
     inkscape:window-width="1920"
     inkscape:window-height="1020"
     id="namedview2297"
     showgrid="false"
     inkscape:zoom="0.81076594"
     inkscape:cx="408"
     inkscape:cy="528"
     inkscape:window-x="0"
     inkscape:window-y="32"
     inkscape:window-maximized="1"
     inkscape:current-layer="g2303" /><g
     id="g2303"
     inkscape:groupmode="layer"
     inkscape:label="ink_ext_XXXXXX"
     transform="matrix(1.3333333,0,0,-1.3333333,0,1056)"><g
       id="g3756"><g
         transform="scale(0.1)"
         id="g2309"><g
           id="g2311"
           clip-path="url(#clipPath2315)"><path
             d="M 1870.2,3588.1 H 4370.6"
             style="fill:none;stroke:#000000;stroke-width:15;stroke-linecap:round;stroke-linejoin:round;stroke-miterlimit:10;stroke-dasharray:none;stroke-opacity:1"
             id="path2317" /><path
             d="m 1852.2,3588.1 c 0,29.82 -24.18,54 -54,54 -29.82,0 -54,-24.18 -54,-54 0,-29.82 24.18,-54 54,-54 29.82,0 54,24.18 54,54"
             style="fill:#000000;fill-opacity:1;fill-rule:nonzero;stroke:none"
             id="path2319" /><path
             d="m 1852.2,3588.1 c 0,29.82 -24.18,54 -54,54 -29.82,0 -54,-24.18 -54,-54 0,-29.82 24.18,-54 54,-54 29.82,0 54,24.18 54,54"
             style="fill:none;stroke:#000000;stroke-width:15;stroke-linecap:round;stroke-linejoin:round;stroke-miterlimit:10;stroke-dasharray:none;stroke-opacity:1"
             id="path2321" /><path
             d="m 4496.6,3588.1 c 0,29.82 -24.18,54 -54,54 -29.82,0 -54,-24.18 -54,-54 0,-29.82 24.18,-54 54,-54 29.82,0 54,24.18 54,54"
             style="fill:#000000;fill-opacity:1;fill-rule:nonzero;stroke:none"
             id="path2323" /><path
             d="m 4496.6,3588.1 c 0,29.82 -24.18,54 -54,54 -29.82,0 -54,-24.18 -54,-54 0,-29.82 24.18,-54 54,-54 29.82,0 54,24.18 54,54"
             style="fill:none;stroke:#000000;stroke-width:15;stroke-linecap:round;stroke-linejoin:round;stroke-miterlimit:10;stroke-dasharray:none;stroke-opacity:1"
             id="path2325" /><path
             d="M 1864.6,4101.3 4376.2,5154.9"
             style="fill:none;stroke:#000000;stroke-width:15;stroke-linecap:round;stroke-linejoin:round;stroke-miterlimit:10;stroke-dasharray:none;stroke-opacity:1"
             id="path2327" /><path
             d="m 1852.2,4073.4 c 0,29.82 -24.18,54 -54,54 -29.82,0 -54,-24.18 -54,-54 0,-29.82 24.18,-54 54,-54 29.82,0 54,24.18 54,54"
             style="fill:none;stroke:#000000;stroke-width:15;stroke-linecap:round;stroke-linejoin:round;stroke-miterlimit:10;stroke-dasharray:none;stroke-opacity:1"
             id="path2329" /><path
             d="m 4496.6,5182.8 c 0,29.82 -24.18,54 -54,54 -29.82,0 -54,-24.18 -54,-54 0,-29.82 24.18,-54 54,-54 29.82,0 54,24.18 54,54"
             style="fill:none;stroke:#000000;stroke-width:15;stroke-linecap:round;stroke-linejoin:round;stroke-miterlimit:10;stroke-dasharray:none;stroke-opacity:1"
             id="path2331" /></g></g><g
         transform="scale(0.1)"
         id="g2333"><g
           id="g2335"
           clip-path="url(#clipPath2339)"><path
             d="M 1798.2,2783.8 H 4442.6"
             style="fill:none;stroke:#7f7f7f;stroke-width:7.5;stroke-linecap:round;stroke-linejoin:round;stroke-miterlimit:10;stroke-dasharray:none;stroke-opacity:1"
             id="path2341" /><path
             d="m 1798.2,2783.8 v -72"
             style="fill:none;stroke:#7f7f7f;stroke-width:7.5;stroke-linecap:round;stroke-linejoin:round;stroke-miterlimit:10;stroke-dasharray:none;stroke-opacity:1"
             id="path2343" /><path
             d="m 4442.6,2783.8 v -72"
             style="fill:none;stroke:#7f7f7f;stroke-width:7.5;stroke-linecap:round;stroke-linejoin:round;stroke-miterlimit:10;stroke-dasharray:none;stroke-opacity:1"
             id="path2345" /><g
             id="g2347"
             transform="scale(10)"><text
               transform="matrix(1,0,0,-1,154.02,252.46)"
               style="font-variant:normal;font-weight:normal;font-size:16px;font-family:Helvetica;-inkscape-font-specification:Helvetica;writing-mode:lr-tb;fill:#7f7f7f;fill-opacity:1;fill-rule:nonzero;stroke:none"
               id="text2351"><tspan
                 x="0 8.8959999 17.312105 24.912106 33.808105 37.360107 41.808105 264.44971 273.3457 281.76181 289.36182 298.25781 301.80981 306.25781"
                 y="0"
                 sodipodi:role="line"
                 id="tspan2349">Level 1Level 2</tspan></text></g><path
             d="M 1406.8,2894.8 V 5668.1"
             style="fill:none;stroke:#7f7f7f;stroke-width:7.5;stroke-linecap:round;stroke-linejoin:round;stroke-miterlimit:10;stroke-dasharray:none;stroke-opacity:1"
             id="path2353" /><path
             d="m 1406.8,2894.8 h -72"
             style="fill:none;stroke:#7f7f7f;stroke-width:7.5;stroke-linecap:round;stroke-linejoin:round;stroke-miterlimit:10;stroke-dasharray:none;stroke-opacity:1"
             id="path2355" /><path
             d="m 1406.8,3588.1 h -72"
             style="fill:none;stroke:#7f7f7f;stroke-width:7.5;stroke-linecap:round;stroke-linejoin:round;stroke-miterlimit:10;stroke-dasharray:none;stroke-opacity:1"
             id="path2357" /><path
             d="m 1406.8,4281.4 h -72"
             style="fill:none;stroke:#7f7f7f;stroke-width:7.5;stroke-linecap:round;stroke-linejoin:round;stroke-miterlimit:10;stroke-dasharray:none;stroke-opacity:1"
             id="path2359" /><path
             d="m 1406.8,4974.8 h -72"
             style="fill:none;stroke:#7f7f7f;stroke-width:7.5;stroke-linecap:round;stroke-linejoin:round;stroke-miterlimit:10;stroke-dasharray:none;stroke-opacity:1"
             id="path2361" /><path
             d="m 1406.8,5668.1 h -72"
             style="fill:none;stroke:#7f7f7f;stroke-width:7.5;stroke-linecap:round;stroke-linejoin:round;stroke-miterlimit:10;stroke-dasharray:none;stroke-opacity:1"
             id="path2363" /><g
             id="g2365"
             transform="scale(10)"><text
               transform="matrix(0,1,1,0,123.4,278.361)"
               style="font-variant:normal;font-weight:normal;font-size:16px;font-family:Helvetica;-inkscape-font-specification:Helvetica;writing-mode:lr-tb;fill:#7f7f7f;fill-opacity:1;fill-rule:nonzero;stroke:none"
               id="text2369"><tspan
                 x="0 8.8959999 13.344 69.330078 78.226082 82.67408 138.65984 147.55585 152.00385 208.00015 216.89616 221.34416 277.33023 286.22623 290.67422"
                 y="0"
                 sodipodi:role="line"
                 id="tspan2367">0.51.01.52.02.5</tspan></text></g><path
             d="M 1406.8,2783.8 H 4834 V 5779 H 1406.8 V 2783.8"
             style="fill:none;stroke:#7f7f7f;stroke-width:7.5;stroke-linecap:round;stroke-linejoin:round;stroke-miterlimit:10;stroke-dasharray:none;stroke-opacity:1"
             id="path2371" /><g
             id="g2373"
             transform="scale(10)"><text
               transform="matrix(1,0,0,-1,184.25,600.6)"
               style="font-variant:normal;font-weight:normal;font-size:19px;font-family:Helvetica;-inkscape-font-specification:Helvetica;writing-mode:lr-tb;fill:#000000;fill-opacity:1;fill-rule:nonzero;stroke:none"
               id="text2377"><tspan
                 x="0 12.673 17.955 22.667177 33.231178 42.731178 48.013176 53.295177 58.007011 68.571014 74.89801 80.180008 90.744011 101.30801 111.87201 117.15401 121.37201 131.366 140.39099 150.95499 155.17299 160.45499 171.019 176.30099 181.58299 192.24216 202.80617 212.30617 217.58817 228.15216 234.47916 239.76117"
                 y="0"
                 sodipodi:role="line"
                 id="tspan2375">Effect for one level of Factor B</tspan></text></g><g
             id="g2379"
             transform="scale(10)"><text
               transform="matrix(1,0,0,-1,281.81,223.66)"
               style="font-variant:normal;font-weight:normal;font-size:16px;font-family:Helvetica;-inkscape-font-specification:Helvetica;writing-mode:lr-tb;fill:#7f7f7f;fill-opacity:1;fill-rule:nonzero;stroke:none"
               id="text2383"><tspan
                 x="0 8.9761715 17.872171 25.872171 30.320171 39.216171 44.54417 48.992172"
                 y="0"
                 sodipodi:role="line"
                 id="tspan2381">Factor A</tspan></text><text
               transform="matrix(0,1,1,0,94.6,383.677)"
               style="font-variant:normal;font-weight:normal;font-size:16px;font-family:Helvetica;-inkscape-font-specification:Helvetica;writing-mode:lr-tb;fill:#7f7f7f;fill-opacity:1;fill-rule:nonzero;stroke:none"
               id="text2387"><tspan
                 x="0 12.448 17.775999 26.672001 35.568001 44.464001 48.911999 62.240002 71.136002 80.031998"
                 y="0"
                 sodipodi:role="line"
                 id="tspan2385">Group Mean</tspan></text></g></g></g><g
         transform="scale(0.1)"
         id="g2389"><g
           id="g2391"
           clip-path="url(#clipPath2395)"><path
             d="m 1928.6,5391.1 c 0,22.37 -18.13,40.5 -40.5,40.5 -22.37,0 -40.5,-18.13 -40.5,-40.5 0,-22.37 18.13,-40.5 40.5,-40.5 22.37,0 40.5,18.13 40.5,40.5"
             style="fill:#000000;fill-opacity:1;fill-rule:nonzero;stroke:none"
             id="path2397" /><path
             d="m 1928.6,5391.1 c 0,22.37 -18.13,40.5 -40.5,40.5 -22.37,0 -40.5,-18.13 -40.5,-40.5 0,-22.37 18.13,-40.5 40.5,-40.5 22.37,0 40.5,18.13 40.5,40.5"
             style="fill:none;stroke:#000000;stroke-width:7.5;stroke-linecap:round;stroke-linejoin:round;stroke-miterlimit:10;stroke-dasharray:none;stroke-opacity:1"
             id="path2399" /><path
             d="m 1928.6,5021.7 c 0,22.37 -18.13,40.5 -40.5,40.5 -22.37,0 -40.5,-18.13 -40.5,-40.5 0,-22.37 18.13,-40.5 40.5,-40.5 22.37,0 40.5,18.13 40.5,40.5"
             style="fill:none;stroke:#000000;stroke-width:7.5;stroke-linecap:round;stroke-linejoin:round;stroke-miterlimit:10;stroke-dasharray:none;stroke-opacity:1"
             id="path2401" /><g
             id="g2403"
             transform="scale(10)"><text
               transform="matrix(1,0,0,-1,206.696,533.36)"
               style="font-variant:normal;font-weight:normal;font-size:16px;font-family:Helvetica;-inkscape-font-specification:Helvetica;writing-mode:lr-tb;fill:#7f7f7f;fill-opacity:1;fill-rule:nonzero;stroke:none"
               id="text2409"><tspan
                 x="0 8.9758787 17.871878 25.871878 30.319878 39.215878 44.543877 48.991879 59.343861 63.791859 68.239861 77.135857 85.551682 93.15168 102.04768 105.59969 110.04768"
                 y="0"
                 sodipodi:role="line"
                 id="tspan2405">Factor B, Level 1</tspan><tspan
                 x="-8.8959999 0 8.9758787 17.871878 25.871878 30.319878 39.215878 44.543877 48.991879 59.343861 63.791859 68.239861 77.135857 85.551682 93.15168 102.04768 105.59969 110.04768"
                 y="36.940201"
                 sodipodi:role="line"
                 id="tspan2407"> Factor B, Level 2</tspan></text></g></g></g></g></g></svg>
