<?xml version="1.0" encoding="UTF-8" standalone="no"?>
<svg
   xmlns:dc="http://purl.org/dc/elements/1.1/"
   xmlns:cc="http://creativecommons.org/ns#"
   xmlns:rdf="http://www.w3.org/1999/02/22-rdf-syntax-ns#"
   xmlns:svg="http://www.w3.org/2000/svg"
   xmlns="http://www.w3.org/2000/svg"
   id="svg205"
   version="1.2"
   viewBox="0 0 288 288"
   height="288pt"
   width="288pt">
  <metadata
     id="metadata211">
    <rdf:RDF>
      <cc:Work
         rdf:about="">
        <dc:format>image/svg+xml</dc:format>
        <dc:type
           rdf:resource="http://purl.org/dc/dcmitype/StillImage" />
      </cc:Work>
    </rdf:RDF>
  </metadata>
  <defs
     id="defs209" />
  <g
     id="surface1">
    <rect
       id="rect2"
       style="fill:#ffffff;fill-opacity:1;stroke:none"
       height="288"
       width="288"
       y="0"
       x="0" />
    <path
       id="path4"
       transform="matrix(0.1,0,0,-0.1,0,288)"
       d="m 1496.4063,1246.9141 c 0,14.8828 -12.1094,26.9922 -26.9922,26.9922 -14.9219,0 -27.0313,-12.1094 -27.0313,-26.9922 0,-14.9219 12.1094,-27.0313 27.0313,-27.0313 14.8828,0 26.9922,12.1094 26.9922,27.0313"
       style="fill:#5900ff;fill-opacity:1;fill-rule:nonzero;stroke:#5900ff;stroke-width:7.5;stroke-linecap:round;stroke-linejoin:round;stroke-miterlimit:10;stroke-opacity:1" />
    <path
       id="path6"
       transform="matrix(0.1,0,0,-0.1,0,288)"
       d="m 1842.6172,1486.0156 c 0,14.8828 -12.1094,26.9922 -27.0313,26.9922 -14.8828,0 -26.9921,-12.1094 -26.9921,-26.9922 0,-14.9218 12.1093,-27.0312 26.9921,-27.0312 14.9219,0 27.0313,12.1094 27.0313,27.0312"
       style="fill:#5900ff;fill-opacity:1;fill-rule:nonzero;stroke:#5900ff;stroke-width:7.5;stroke-linecap:round;stroke-linejoin:round;stroke-miterlimit:10;stroke-opacity:1" />
    <path
       id="path8"
       transform="matrix(0.1,0,0,-0.1,0,288)"
       d="m 2139.8047,1559.1016 c 0,14.9218 -12.1094,26.9922 -26.9922,26.9922 -14.9219,0 -27.0312,-12.0704 -27.0312,-26.9922 0,-14.9219 12.1093,-26.9922 27.0312,-26.9922 14.8828,0 26.9922,12.0703 26.9922,26.9922"
       style="fill:#5900ff;fill-opacity:1;fill-rule:nonzero;stroke:#5900ff;stroke-width:7.5;stroke-linecap:round;stroke-linejoin:round;stroke-miterlimit:10;stroke-opacity:1" />
    <path
       id="path10"
       transform="matrix(0.1,0,0,-0.1,0,288)"
       d="m 1330.8984,1643.0078 c 0,14.8828 -12.0703,26.9922 -26.9921,26.9922 -14.9219,0 -26.9922,-12.1094 -26.9922,-26.9922 0,-14.9219 12.0703,-26.9922 26.9922,-26.9922 14.9218,0 26.9921,12.0703 26.9921,26.9922"
       style="fill:#5900ff;fill-opacity:1;fill-rule:nonzero;stroke:#5900ff;stroke-width:7.5;stroke-linecap:round;stroke-linejoin:round;stroke-miterlimit:10;stroke-opacity:1" />
    <path
       id="path12"
       transform="matrix(0.1,0,0,-0.1,0,288)"
       d="m 2198.0859,1797.5 c 0,14.9219 -12.0703,26.9922 -26.9921,26.9922 -14.9219,0 -26.9922,-12.0703 -26.9922,-26.9922 0,-14.9219 12.0703,-26.9922 26.9922,-26.9922 14.9218,0 26.9921,12.0703 26.9921,26.9922"
       style="fill:#5900ff;fill-opacity:1;fill-rule:nonzero;stroke:#5900ff;stroke-width:7.5;stroke-linecap:round;stroke-linejoin:round;stroke-miterlimit:10;stroke-opacity:1" />
    <path
       id="path14"
       transform="matrix(0.1,0,0,-0.1,0,288)"
       d="m 1607.5,1656.2891 c 0,14.9218 -12.1094,26.9922 -26.9922,26.9922 -14.9219,0 -26.9922,-12.0704 -26.9922,-26.9922 0,-14.8828 12.0703,-26.9922 26.9922,-26.9922 14.8828,0 26.9922,12.1094 26.9922,26.9922"
       style="fill:#5900ff;fill-opacity:1;fill-rule:nonzero;stroke:#5900ff;stroke-width:7.5;stroke-linecap:round;stroke-linejoin:round;stroke-miterlimit:10;stroke-opacity:1" />
    <path
       id="path16"
       transform="matrix(0.1,0,0,-0.1,0,288)"
       d="m 1592.6172,1516.2109 c 0,14.8829 -12.1094,26.9922 -27.0313,26.9922 -14.8828,0 -26.9921,-12.1093 -26.9921,-26.9922 0,-14.9218 12.1093,-26.9921 26.9921,-26.9921 14.9219,0 27.0313,12.0703 27.0313,26.9921"
       style="fill:#5900ff;fill-opacity:1;fill-rule:nonzero;stroke:#5900ff;stroke-width:7.5;stroke-linecap:round;stroke-linejoin:round;stroke-miterlimit:10;stroke-opacity:1" />
    <path
       id="path18"
       transform="matrix(0.1,0,0,-0.1,0,288)"
       d="m 1106.6016,1848.7891 c 0,14.9218 -12.1094,26.9922 -26.9922,26.9922 -14.9219,0 -26.9922,-12.0704 -26.9922,-26.9922 0,-14.8828 12.0703,-26.9922 26.9922,-26.9922 14.8828,0 26.9922,12.1094 26.9922,26.9922"
       style="fill:#5900ff;fill-opacity:1;fill-rule:nonzero;stroke:#5900ff;stroke-width:7.5;stroke-linecap:round;stroke-linejoin:round;stroke-miterlimit:10;stroke-opacity:1" />
    <path
       id="path20"
       transform="matrix(0.1,0,0,-0.1,0,288)"
       d="m 2133.0859,1359.8047 c 0,14.9219 -12.0703,26.9922 -26.9921,26.9922 -14.9219,0 -26.9922,-12.0703 -26.9922,-26.9922 0,-14.9219 12.0703,-26.9922 26.9922,-26.9922 14.9218,0 26.9921,12.0703 26.9921,26.9922"
       style="fill:#5900ff;fill-opacity:1;fill-rule:nonzero;stroke:#5900ff;stroke-width:7.5;stroke-linecap:round;stroke-linejoin:round;stroke-miterlimit:10;stroke-opacity:1" />
    <path
       id="path22"
       transform="matrix(0.1,0,0,-0.1,0,288)"
       d="m 1704.6875,1913.9844 c 0,14.9219 -12.0703,27.0312 -26.9922,27.0312 -14.9219,0 -26.9922,-12.1093 -26.9922,-27.0312 0,-14.8828 12.0703,-26.9922 26.9922,-26.9922 14.9219,0 26.9922,12.1094 26.9922,26.9922"
       style="fill:#5900ff;fill-opacity:1;fill-rule:nonzero;stroke:#5900ff;stroke-width:7.5;stroke-linecap:round;stroke-linejoin:round;stroke-miterlimit:10;stroke-opacity:1" />
    <path
       id="path24"
       transform="matrix(0.1,0,0,-0.1,0,288)"
       d="m 1406.4844,1761.2109 c 0,14.8829 -12.0703,26.9922 -26.9922,26.9922 -14.8828,0 -26.9922,-12.1093 -26.9922,-26.9922 0,-14.9218 12.1094,-26.9921 26.9922,-26.9921 14.9219,0 26.9922,12.0703 26.9922,26.9921"
       style="fill:#5900ff;fill-opacity:1;fill-rule:nonzero;stroke:#5900ff;stroke-width:7.5;stroke-linecap:round;stroke-linejoin:round;stroke-miterlimit:10;stroke-opacity:1" />
    <path
       id="path26"
       transform="matrix(0.1,0,0,-0.1,0,288)"
       d="m 1534.6094,1571.2891 c 0,14.9218 -12.1094,26.9922 -26.9922,26.9922 -14.9219,0 -27.0313,-12.0704 -27.0313,-26.9922 0,-14.8828 12.1094,-26.9922 27.0313,-26.9922 14.8828,0 26.9922,12.1094 26.9922,26.9922"
       style="fill:#5900ff;fill-opacity:1;fill-rule:nonzero;stroke:#5900ff;stroke-width:7.5;stroke-linecap:round;stroke-linejoin:round;stroke-miterlimit:10;stroke-opacity:1" />
    <path
       id="path28"
       transform="matrix(0.1,0,0,-0.1,0,288)"
       d="m 1642.8906,1504.1016 c 0,14.9218 -12.0703,26.9922 -26.9922,26.9922 -14.9218,0 -26.9921,-12.0704 -26.9921,-26.9922 0,-14.9219 12.0703,-26.9922 26.9921,-26.9922 14.9219,0 26.9922,12.0703 26.9922,26.9922"
       style="fill:#5900ff;fill-opacity:1;fill-rule:nonzero;stroke:#5900ff;stroke-width:7.5;stroke-linecap:round;stroke-linejoin:round;stroke-miterlimit:10;stroke-opacity:1" />
    <path
       id="path30"
       transform="matrix(0.1,0,0,-0.1,0,288)"
       d="m 1819.4141,1705.5078 c 0,14.8828 -12.1094,26.9922 -27.0313,26.9922 -14.8828,0 -26.9922,-12.1094 -26.9922,-26.9922 0,-14.9219 12.1094,-26.9922 26.9922,-26.9922 14.9219,0 27.0313,12.0703 27.0313,26.9922"
       style="fill:#5900ff;fill-opacity:1;fill-rule:nonzero;stroke:#5900ff;stroke-width:7.5;stroke-linecap:round;stroke-linejoin:round;stroke-miterlimit:10;stroke-opacity:1" />
    <path
       id="path32"
       transform="matrix(0.1,0,0,-0.1,0,288)"
       d="m 1649.4141,1528.2031 c 0,14.9219 -12.1094,26.9922 -27.0313,26.9922 -14.8828,0 -26.9922,-12.0703 -26.9922,-26.9922 0,-14.9218 12.1094,-26.9922 26.9922,-26.9922 14.9219,0 27.0313,12.0704 27.0313,26.9922"
       style="fill:#5900ff;fill-opacity:1;fill-rule:nonzero;stroke:#5900ff;stroke-width:7.5;stroke-linecap:round;stroke-linejoin:round;stroke-miterlimit:10;stroke-opacity:1" />
    <path
       id="path34"
       transform="matrix(0.1,0,0,-0.1,0,288)"
       d="m 1892.6953,2078.2813 c 0,14.9218 -12.0703,27.0312 -26.9922,27.0312 -14.9218,0 -26.9922,-12.1094 -26.9922,-27.0312 0,-14.8829 12.0704,-26.9922 26.9922,-26.9922 14.9219,0 26.9922,12.1093 26.9922,26.9922"
       style="fill:#5900ff;fill-opacity:1;fill-rule:nonzero;stroke:#5900ff;stroke-width:7.5;stroke-linecap:round;stroke-linejoin:round;stroke-miterlimit:10;stroke-opacity:1" />
    <path
       id="path36"
       transform="matrix(0.1,0,0,-0.1,0,288)"
       d="m 2009.6875,1346.0938 c 0,14.9218 -12.0703,26.9921 -26.9922,26.9921 -14.9219,0 -26.9922,-12.0703 -26.9922,-26.9921 0,-14.9219 12.0703,-26.9922 26.9922,-26.9922 14.9219,0 26.9922,12.0703 26.9922,26.9922"
       style="fill:#5900ff;fill-opacity:1;fill-rule:nonzero;stroke:#5900ff;stroke-width:7.5;stroke-linecap:round;stroke-linejoin:round;stroke-miterlimit:10;stroke-opacity:1" />
    <path
       id="path38"
       transform="matrix(0.1,0,0,-0.1,0,288)"
       d="m 1614.8828,2003.5938 c 0,14.9218 -12.0703,26.9921 -26.9922,26.9921 -14.8828,0 -26.9922,-12.0703 -26.9922,-26.9921 0,-14.9219 12.1094,-26.9922 26.9922,-26.9922 14.9219,0 26.9922,12.0703 26.9922,26.9922"
       style="fill:#5900ff;fill-opacity:1;fill-rule:nonzero;stroke:#5900ff;stroke-width:7.5;stroke-linecap:round;stroke-linejoin:round;stroke-miterlimit:10;stroke-opacity:1" />
    <path
       id="path40"
       transform="matrix(0.1,0,0,-0.1,0,288)"
       d="m 1988.7109,1482.5 c 0,14.9219 -12.1093,26.9922 -26.9921,26.9922 -14.9219,0 -27.0313,-12.0703 -27.0313,-26.9922 0,-14.9219 12.1094,-26.9922 27.0313,-26.9922 14.8828,0 26.9921,12.0703 26.9921,26.9922"
       style="fill:#5900ff;fill-opacity:1;fill-rule:nonzero;stroke:#5900ff;stroke-width:7.5;stroke-linecap:round;stroke-linejoin:round;stroke-miterlimit:10;stroke-opacity:1" />
    <path
       id="path42"
       transform="matrix(0.1,0,0,-0.1,0,288)"
       d="m 1350.1953,1728.9844 c 0,14.9219 -12.0703,27.0312 -26.9922,27.0312 -14.9218,0 -26.9922,-12.1093 -26.9922,-27.0312 0,-14.8828 12.0704,-26.9922 26.9922,-26.9922 14.9219,0 26.9922,12.1094 26.9922,26.9922"
       style="fill:#5900ff;fill-opacity:1;fill-rule:nonzero;stroke:#5900ff;stroke-width:7.5;stroke-linecap:round;stroke-linejoin:round;stroke-miterlimit:10;stroke-opacity:1" />
    <path
       id="path44"
       transform="matrix(0.1,0,0,-0.1,0,288)"
       d="m 1453.3984,1733.7891 c 0,14.9218 -12.0703,26.9922 -26.9921,26.9922 -14.9219,0 -26.9922,-12.0704 -26.9922,-26.9922 0,-14.8828 12.0703,-26.9922 26.9922,-26.9922 14.9218,0 26.9921,12.1094 26.9921,26.9922"
       style="fill:#5900ff;fill-opacity:1;fill-rule:nonzero;stroke:#5900ff;stroke-width:7.5;stroke-linecap:round;stroke-linejoin:round;stroke-miterlimit:10;stroke-opacity:1" />
    <path
       id="path46"
       transform="matrix(0.1,0,0,-0.1,0,288)"
       d="m 1666.0156,1927.5 c 0,14.9219 -12.1093,26.9922 -27.0312,26.9922 -14.8828,0 -26.9922,-12.0703 -26.9922,-26.9922 0,-14.9219 12.1094,-26.9922 26.9922,-26.9922 14.9219,0 27.0312,12.0703 27.0312,26.9922"
       style="fill:#5900ff;fill-opacity:1;fill-rule:nonzero;stroke:#5900ff;stroke-width:7.5;stroke-linecap:round;stroke-linejoin:round;stroke-miterlimit:10;stroke-opacity:1" />
    <path
       id="path48"
       transform="matrix(0.1,0,0,-0.1,0,288)"
       d="m 1619.6094,1356.9141 c 0,14.8828 -12.1094,26.9922 -26.9922,26.9922 -14.9219,0 -27.0313,-12.1094 -27.0313,-26.9922 0,-14.9219 12.1094,-27.0313 27.0313,-27.0313 14.8828,0 26.9922,12.1094 26.9922,27.0313"
       style="fill:#5900ff;fill-opacity:1;fill-rule:nonzero;stroke:#5900ff;stroke-width:7.5;stroke-linecap:round;stroke-linejoin:round;stroke-miterlimit:10;stroke-opacity:1" />
    <path
       id="path50"
       transform="matrix(0.1,0,0,-0.1,0,288)"
       d="m 1443.0859,1851.4063 c 0,14.9218 -12.0703,26.9921 -26.9921,26.9921 -14.9219,0 -26.9922,-12.0703 -26.9922,-26.9921 0,-14.9219 12.0703,-26.9922 26.9922,-26.9922 14.9218,0 26.9921,12.0703 26.9921,26.9922"
       style="fill:#5900ff;fill-opacity:1;fill-rule:nonzero;stroke:#5900ff;stroke-width:7.5;stroke-linecap:round;stroke-linejoin:round;stroke-miterlimit:10;stroke-opacity:1" />
    <path
       id="path52"
       transform="matrix(0.1,0,0,-0.1,0,288)"
       d="m 1908.7891,1678.9063 c 0,14.9218 -12.0703,26.9921 -26.9922,26.9921 -14.9219,0 -26.9922,-12.0703 -26.9922,-26.9921 0,-14.9219 12.0703,-26.9922 26.9922,-26.9922 14.9219,0 26.9922,12.0703 26.9922,26.9922"
       style="fill:#5900ff;fill-opacity:1;fill-rule:nonzero;stroke:#5900ff;stroke-width:7.5;stroke-linecap:round;stroke-linejoin:round;stroke-miterlimit:10;stroke-opacity:1" />
    <path
       id="path54"
       transform="matrix(0.1,0,0,-0.1,0,288)"
       d="m 1368.5938,1649.1016 c 0,14.9218 -12.0704,26.9922 -26.9922,26.9922 -14.9219,0 -26.9922,-12.0704 -26.9922,-26.9922 0,-14.9219 12.0703,-26.9922 26.9922,-26.9922 14.9218,0 26.9922,12.0703 26.9922,26.9922"
       style="fill:#5900ff;fill-opacity:1;fill-rule:nonzero;stroke:#5900ff;stroke-width:7.5;stroke-linecap:round;stroke-linejoin:round;stroke-miterlimit:10;stroke-opacity:1" />
    <path
       id="path56"
       transform="matrix(0.1,0,0,-0.1,0,288)"
       d="m 1699.8047,1788.2031 c 0,14.9219 -12.1094,26.9922 -26.9922,26.9922 -14.9219,0 -27.0312,-12.0703 -27.0312,-26.9922 0,-14.9218 12.1093,-26.9922 27.0312,-26.9922 14.8828,0 26.9922,12.0704 26.9922,26.9922"
       style="fill:#5900ff;fill-opacity:1;fill-rule:nonzero;stroke:#5900ff;stroke-width:7.5;stroke-linecap:round;stroke-linejoin:round;stroke-miterlimit:10;stroke-opacity:1" />
    <path
       id="path58"
       transform="matrix(0.1,0,0,-0.1,0,288)"
       d="m 1827.8906,1492.3828 c 0,14.9219 -12.0703,27.0313 -26.9922,27.0313 -14.9218,0 -26.9921,-12.1094 -26.9921,-27.0313 0,-14.8828 12.0703,-26.9922 26.9921,-26.9922 14.9219,0 26.9922,12.1094 26.9922,26.9922"
       style="fill:#5900ff;fill-opacity:1;fill-rule:nonzero;stroke:#5900ff;stroke-width:7.5;stroke-linecap:round;stroke-linejoin:round;stroke-miterlimit:10;stroke-opacity:1" />
    <path
       id="path60"
       transform="matrix(0.1,0,0,-0.1,0,288)"
       d="m 1085,1711.4063 c 0,14.9218 -12.1094,26.9921 -26.9922,26.9921 -14.9219,0 -26.9922,-12.0703 -26.9922,-26.9921 0,-14.9219 12.0703,-26.9922 26.9922,-26.9922 14.8828,0 26.9922,12.0703 26.9922,26.9922"
       style="fill:#5900ff;fill-opacity:1;fill-rule:nonzero;stroke:#5900ff;stroke-width:7.5;stroke-linecap:round;stroke-linejoin:round;stroke-miterlimit:10;stroke-opacity:1" />
    <path
       id="path62"
       transform="matrix(0.1,0,0,-0.1,0,288)"
       d="m 1889.8828,1499.6094 c 0,14.8828 -12.0703,26.9922 -26.9922,26.9922 -14.8828,0 -26.9922,-12.1094 -26.9922,-26.9922 0,-14.9219 12.1094,-26.9922 26.9922,-26.9922 14.9219,0 26.9922,12.0703 26.9922,26.9922"
       style="fill:#5900ff;fill-opacity:1;fill-rule:nonzero;stroke:#5900ff;stroke-width:7.5;stroke-linecap:round;stroke-linejoin:round;stroke-miterlimit:10;stroke-opacity:1" />
    <path
       id="path64"
       transform="matrix(0.1,0,0,-0.1,0,288)"
       d="m 1665.1953,1647.6953 c 0,14.9219 -12.0703,26.9922 -26.9922,26.9922 -14.9218,0 -26.9922,-12.0703 -26.9922,-26.9922 0,-14.9219 12.0704,-26.9922 26.9922,-26.9922 14.9219,0 26.9922,12.0703 26.9922,26.9922"
       style="fill:#5900ff;fill-opacity:1;fill-rule:nonzero;stroke:#5900ff;stroke-width:7.5;stroke-linecap:round;stroke-linejoin:round;stroke-miterlimit:10;stroke-opacity:1" />
    <path
       id="path66"
       transform="matrix(0.1,0,0,-0.1,0,288)"
       d="m 1522.5,1806.9141 c 0,14.8828 -12.1094,26.9922 -26.9922,26.9922 -14.9219,0 -26.9922,-12.1094 -26.9922,-26.9922 0,-14.9219 12.0703,-27.0313 26.9922,-27.0313 14.8828,0 26.9922,12.1094 26.9922,27.0313"
       style="fill:#5900ff;fill-opacity:1;fill-rule:nonzero;stroke:#5900ff;stroke-width:7.5;stroke-linecap:round;stroke-linejoin:round;stroke-miterlimit:10;stroke-opacity:1" />
    <path
       id="path68"
       transform="matrix(0.1,0,0,-0.1,0,288)"
       d="m 1729.8828,791.40625 c 0,14.92187 -12.0703,26.99219 -26.9922,26.99219 -14.8828,0 -26.9922,-12.07032 -26.9922,-26.99219 0,-14.92188 12.1094,-26.99219 26.9922,-26.99219 14.9219,0 26.9922,12.07031 26.9922,26.99219"
       style="fill:#5900ff;fill-opacity:1;fill-rule:nonzero;stroke:#5900ff;stroke-width:7.5;stroke-linecap:round;stroke-linejoin:round;stroke-miterlimit:10;stroke-opacity:1" />
    <path
       id="path70"
       transform="matrix(0.1,0,0,-0.1,0,288)"
       d="m 1321.4844,1714.8828 c 0,14.9219 -12.0703,27.0313 -26.9922,27.0313 -14.8828,0 -26.9922,-12.1094 -26.9922,-27.0313 0,-14.8828 12.1094,-26.9922 26.9922,-26.9922 14.9219,0 26.9922,12.1094 26.9922,26.9922"
       style="fill:#5900ff;fill-opacity:1;fill-rule:nonzero;stroke:#5900ff;stroke-width:7.5;stroke-linecap:round;stroke-linejoin:round;stroke-miterlimit:10;stroke-opacity:1" />
    <path
       id="path72"
       transform="matrix(0.1,0,0,-0.1,0,288)"
       d="m 1944.2969,1046.0156 c 0,14.8828 -12.0703,26.9922 -26.9922,26.9922 -14.9219,0 -26.9922,-12.1094 -26.9922,-26.9922 0,-14.9218 12.0703,-27.0312 26.9922,-27.0312 14.9219,0 26.9922,12.1094 26.9922,27.0312"
       style="fill:#5900ff;fill-opacity:1;fill-rule:nonzero;stroke:#5900ff;stroke-width:7.5;stroke-linecap:round;stroke-linejoin:round;stroke-miterlimit:10;stroke-opacity:1" />
    <path
       id="path74"
       transform="matrix(0.1,0,0,-0.1,0,288)"
       d="m 1931.9922,1320 c 0,14.9219 -12.0703,26.9922 -26.9922,26.9922 -14.9219,0 -26.9922,-12.0703 -26.9922,-26.9922 0,-14.9219 12.0703,-26.9922 26.9922,-26.9922 14.9219,0 26.9922,12.0703 26.9922,26.9922"
       style="fill:#5900ff;fill-opacity:1;fill-rule:nonzero;stroke:#5900ff;stroke-width:7.5;stroke-linecap:round;stroke-linejoin:round;stroke-miterlimit:10;stroke-opacity:1" />
    <path
       id="path76"
       transform="matrix(0.1,0,0,-0.1,0,288)"
       d="m 687.38281,1941.0156 c 0,14.8828 -12.07031,26.9922 -26.99219,26.9922 -14.92187,0 -26.99218,-12.1094 -26.99218,-26.9922 0,-14.9218 12.07031,-27.0312 26.99218,-27.0312 14.92188,0 26.99219,12.1094 26.99219,27.0312"
       style="fill:#5900ff;fill-opacity:1;fill-rule:nonzero;stroke:#5900ff;stroke-width:7.5;stroke-linecap:round;stroke-linejoin:round;stroke-miterlimit:10;stroke-opacity:1" />
    <path
       id="path78"
       transform="matrix(0.1,0,0,-0.1,0,288)"
       d="m 1679.8047,1736.7969 c 0,14.9219 -12.1094,26.9922 -26.9922,26.9922 -14.9219,0 -27.0312,-12.0703 -27.0312,-26.9922 0,-14.9219 12.1093,-26.9922 27.0312,-26.9922 14.8828,0 26.9922,12.0703 26.9922,26.9922"
       style="fill:#5900ff;fill-opacity:1;fill-rule:nonzero;stroke:#5900ff;stroke-width:7.5;stroke-linecap:round;stroke-linejoin:round;stroke-miterlimit:10;stroke-opacity:1" />
    <path
       id="path80"
       transform="matrix(0.1,0,0,-0.1,0,288)"
       d="m 1720.1953,1310.7813 c 0,14.9218 -12.0703,27.0312 -26.9922,27.0312 -14.9218,0 -26.9922,-12.1094 -26.9922,-27.0312 0,-14.8829 12.0704,-26.9922 26.9922,-26.9922 14.9219,0 26.9922,12.1093 26.9922,26.9922"
       style="fill:#5900ff;fill-opacity:1;fill-rule:nonzero;stroke:#5900ff;stroke-width:7.5;stroke-linecap:round;stroke-linejoin:round;stroke-miterlimit:10;stroke-opacity:1" />
    <path
       id="path82"
       transform="matrix(0.1,0,0,-0.1,0,288)"
       d="m 2121.9141,1392.1875 c 0,14.9219 -12.1094,27.0313 -27.0313,27.0313 -14.8828,0 -26.9922,-12.1094 -26.9922,-27.0313 0,-14.8828 12.1094,-26.9922 26.9922,-26.9922 14.9219,0 27.0313,12.1094 27.0313,26.9922"
       style="fill:#5900ff;fill-opacity:1;fill-rule:nonzero;stroke:#5900ff;stroke-width:7.5;stroke-linecap:round;stroke-linejoin:round;stroke-miterlimit:10;stroke-opacity:1" />
    <path
       id="path84"
       transform="matrix(0.1,0,0,-0.1,0,288)"
       d="m 1322.1875,1739.8828 c 0,14.9219 -12.0703,27.0313 -26.9922,27.0313 -14.9219,0 -26.9922,-12.1094 -26.9922,-27.0313 0,-14.8828 12.0703,-26.9922 26.9922,-26.9922 14.9219,0 26.9922,12.1094 26.9922,26.9922"
       style="fill:#5900ff;fill-opacity:1;fill-rule:nonzero;stroke:#5900ff;stroke-width:7.5;stroke-linecap:round;stroke-linejoin:round;stroke-miterlimit:10;stroke-opacity:1" />
    <path
       id="path86"
       transform="matrix(0.1,0,0,-0.1,0,288)"
       d="m 1416.0938,1664.6094 c 0,14.8828 -12.0704,26.9922 -26.9922,26.9922 -14.9219,0 -26.9922,-12.1094 -26.9922,-26.9922 0,-14.9219 12.0703,-26.9922 26.9922,-26.9922 14.9218,0 26.9922,12.0703 26.9922,26.9922"
       style="fill:#5900ff;fill-opacity:1;fill-rule:nonzero;stroke:#5900ff;stroke-width:7.5;stroke-linecap:round;stroke-linejoin:round;stroke-miterlimit:10;stroke-opacity:1" />
    <path
       id="path88"
       transform="matrix(0.1,0,0,-0.1,0,288)"
       d="m 2527.3828,1598.7109 c 0,14.8829 -12.0703,26.9922 -26.9922,26.9922 -14.8828,0 -26.9922,-12.1093 -26.9922,-26.9922 0,-14.9218 12.1094,-26.9921 26.9922,-26.9921 14.9219,0 26.9922,12.0703 26.9922,26.9921"
       style="fill:#5900ff;fill-opacity:1;fill-rule:nonzero;stroke:#5900ff;stroke-width:7.5;stroke-linecap:round;stroke-linejoin:round;stroke-miterlimit:10;stroke-opacity:1" />
    <path
       id="path90"
       transform="matrix(0.1,0,0,-0.1,0,288)"
       d="m 1655.1172,1397.3828 c 0,14.9219 -12.1094,27.0313 -27.0313,27.0313 -14.8828,0 -26.9921,-12.1094 -26.9921,-27.0313 0,-14.8828 12.1093,-26.9922 26.9921,-26.9922 14.9219,0 27.0313,12.1094 27.0313,26.9922"
       style="fill:#5900ff;fill-opacity:1;fill-rule:nonzero;stroke:#5900ff;stroke-width:7.5;stroke-linecap:round;stroke-linejoin:round;stroke-miterlimit:10;stroke-opacity:1" />
    <path
       id="path92"
       transform="matrix(0.1,0,0,-0.1,0,288)"
       d="m 1113.9063,1579.8047 c 0,14.9219 -12.1094,26.9922 -26.9922,26.9922 -14.9219,0 -27.0313,-12.0703 -27.0313,-26.9922 0,-14.9219 12.1094,-26.9922 27.0313,-26.9922 14.8828,0 26.9922,12.0703 26.9922,26.9922"
       style="fill:#5900ff;fill-opacity:1;fill-rule:nonzero;stroke:#5900ff;stroke-width:7.5;stroke-linecap:round;stroke-linejoin:round;stroke-miterlimit:10;stroke-opacity:1" />
    <path
       id="path94"
       transform="matrix(0.1,0,0,-0.1,0,288)"
       d="m 2018.2813,1376.2109 c 0,14.8829 -12.0704,26.9922 -26.9922,26.9922 -14.8828,0 -26.9922,-12.1093 -26.9922,-26.9922 0,-14.9218 12.1094,-26.9921 26.9922,-26.9921 14.9218,0 26.9922,12.0703 26.9922,26.9921"
       style="fill:#5900ff;fill-opacity:1;fill-rule:nonzero;stroke:#5900ff;stroke-width:7.5;stroke-linecap:round;stroke-linejoin:round;stroke-miterlimit:10;stroke-opacity:1" />
    <path
       id="path96"
       transform="matrix(0.1,0,0,-0.1,0,288)"
       d="m 1220.7813,1718.3984 c 0,14.9219 -12.0704,26.9922 -26.9922,26.9922 -14.8828,0 -26.9922,-12.0703 -26.9922,-26.9922 0,-14.9218 12.1094,-26.9921 26.9922,-26.9921 14.9218,0 26.9922,12.0703 26.9922,26.9921"
       style="fill:#5900ff;fill-opacity:1;fill-rule:nonzero;stroke:#5900ff;stroke-width:7.5;stroke-linecap:round;stroke-linejoin:round;stroke-miterlimit:10;stroke-opacity:1" />
    <path
       id="path98"
       transform="matrix(0.1,0,0,-0.1,0,288)"
       d="m 1448.9063,1810.3906 c 0,14.9219 -12.1094,26.9922 -26.9922,26.9922 -14.9219,0 -27.0313,-12.0703 -27.0313,-26.9922 0,-14.8828 12.1094,-26.9922 27.0313,-26.9922 14.8828,0 26.9922,12.1094 26.9922,26.9922"
       style="fill:#5900ff;fill-opacity:1;fill-rule:nonzero;stroke:#5900ff;stroke-width:7.5;stroke-linecap:round;stroke-linejoin:round;stroke-miterlimit:10;stroke-opacity:1" />
    <path
       id="path100"
       transform="matrix(0.1,0,0,-0.1,0,288)"
       d="m 1967.1094,1460.5078 c 0,14.8828 -12.1094,26.9922 -26.9922,26.9922 -14.9219,0 -27.0313,-12.1094 -27.0313,-26.9922 0,-14.9219 12.1094,-26.9922 27.0313,-26.9922 14.8828,0 26.9922,12.0703 26.9922,26.9922"
       style="fill:#5900ff;fill-opacity:1;fill-rule:nonzero;stroke:#5900ff;stroke-width:7.5;stroke-linecap:round;stroke-linejoin:round;stroke-miterlimit:10;stroke-opacity:1" />
    <path
       id="path102"
       transform="matrix(0.1,0,0,-0.1,0,288)"
       d="m 1890.5078,1391.6016 c 0,14.9218 -12.1094,26.9922 -26.9922,26.9922 -14.9218,0 -27.0312,-12.0704 -27.0312,-26.9922 0,-14.9219 12.1094,-26.9922 27.0312,-26.9922 14.8828,0 26.9922,12.0703 26.9922,26.9922"
       style="fill:#5900ff;fill-opacity:1;fill-rule:nonzero;stroke:#5900ff;stroke-width:7.5;stroke-linecap:round;stroke-linejoin:round;stroke-miterlimit:10;stroke-opacity:1" />
    <path
       id="path104"
       transform="matrix(0.1,0,0,-0.1,0,288)"
       d="m 1635.3906,1742.5 c 0,14.9219 -12.0703,26.9922 -26.9922,26.9922 -14.9218,0 -26.9921,-12.0703 -26.9921,-26.9922 0,-14.9219 12.0703,-26.9922 26.9921,-26.9922 14.9219,0 26.9922,12.0703 26.9922,26.9922"
       style="fill:#5900ff;fill-opacity:1;fill-rule:nonzero;stroke:#5900ff;stroke-width:7.5;stroke-linecap:round;stroke-linejoin:round;stroke-miterlimit:10;stroke-opacity:1" />
    <path
       id="path106"
       transform="matrix(0.1,0,0,-0.1,0,288)"
       d="m 1793.7109,2231.4063 c 0,14.9218 -12.1093,26.9921 -26.9921,26.9921 -14.9219,0 -27.0313,-12.0703 -27.0313,-26.9921 0,-14.9219 12.1094,-26.9922 27.0313,-26.9922 14.8828,0 26.9921,12.0703 26.9921,26.9922"
       style="fill:#5900ff;fill-opacity:1;fill-rule:nonzero;stroke:#5900ff;stroke-width:7.5;stroke-linecap:round;stroke-linejoin:round;stroke-miterlimit:10;stroke-opacity:1" />
    <path
       id="path108"
       transform="matrix(0.1,0,0,-0.1,0,288)"
       d="m 1646.4063,1503.7109 c 0,14.8829 -12.1094,26.9922 -26.9922,26.9922 -14.9219,0 -27.0313,-12.1093 -27.0313,-26.9922 0,-14.9218 12.1094,-26.9921 27.0313,-26.9921 14.8828,0 26.9922,12.0703 26.9922,26.9921"
       style="fill:#5900ff;fill-opacity:1;fill-rule:nonzero;stroke:#5900ff;stroke-width:7.5;stroke-linecap:round;stroke-linejoin:round;stroke-miterlimit:10;stroke-opacity:1" />
    <path
       id="path110"
       transform="matrix(0.1,0,0,-0.1,0,288)"
       d="m 1630.1953,1595.8984 c 0,14.9219 -12.0703,26.9922 -26.9922,26.9922 -14.9218,0 -26.9922,-12.0703 -26.9922,-26.9922 0,-14.9218 12.0704,-26.9921 26.9922,-26.9921 14.9219,0 26.9922,12.0703 26.9922,26.9921"
       style="fill:#5900ff;fill-opacity:1;fill-rule:nonzero;stroke:#5900ff;stroke-width:7.5;stroke-linecap:round;stroke-linejoin:round;stroke-miterlimit:10;stroke-opacity:1" />
    <path
       id="path112"
       transform="matrix(0.1,0,0,-0.1,0,288)"
       d="m 1252.8125,1677.1875 c 0,14.9219 -12.1094,27.0313 -27.0312,27.0313 -14.8829,0 -26.9922,-12.1094 -26.9922,-27.0313 0,-14.8828 12.1093,-26.9922 26.9922,-26.9922 14.9218,0 27.0312,12.1094 27.0312,26.9922"
       style="fill:#5900ff;fill-opacity:1;fill-rule:nonzero;stroke:#5900ff;stroke-width:7.5;stroke-linecap:round;stroke-linejoin:round;stroke-miterlimit:10;stroke-opacity:1" />
    <path
       id="path114"
       transform="matrix(0.1,0,0,-0.1,0,288)"
       d="m 986.21094,1713.3984 c 0,14.9219 -12.10938,26.9922 -27.03125,26.9922 -14.88282,0 -26.99219,-12.0703 -26.99219,-26.9922 0,-14.9218 12.10937,-26.9921 26.99219,-26.9921 14.92187,0 27.03125,12.0703 27.03125,26.9921"
       style="fill:#5900ff;fill-opacity:1;fill-rule:nonzero;stroke:#5900ff;stroke-width:7.5;stroke-linecap:round;stroke-linejoin:round;stroke-miterlimit:10;stroke-opacity:1" />
    <path
       id="path116"
       transform="matrix(0.1,0,0,-0.1,0,288)"
       d="m 1865,1268.3984 c 0,14.9219 -12.1094,26.9922 -26.9922,26.9922 -14.9219,0 -26.9922,-12.0703 -26.9922,-26.9922 0,-14.9218 12.0703,-26.9921 26.9922,-26.9921 14.8828,0 26.9922,12.0703 26.9922,26.9921"
       style="fill:#5900ff;fill-opacity:1;fill-rule:nonzero;stroke:#5900ff;stroke-width:7.5;stroke-linecap:round;stroke-linejoin:round;stroke-miterlimit:10;stroke-opacity:1" />
    <path
       id="path118"
       transform="matrix(0.1,0,0,-0.1,0,288)"
       d="m 1319.2188,1739.6875 c 0,14.9219 -12.1094,27.0313 -27.0313,27.0313 -14.8828,0 -26.9922,-12.1094 -26.9922,-27.0313 0,-14.8828 12.1094,-26.9922 26.9922,-26.9922 14.9219,0 27.0313,12.1094 27.0313,26.9922"
       style="fill:#5900ff;fill-opacity:1;fill-rule:nonzero;stroke:#5900ff;stroke-width:7.5;stroke-linecap:round;stroke-linejoin:round;stroke-miterlimit:10;stroke-opacity:1" />
    <path
       id="path120"
       transform="matrix(0.1,0,0,-0.1,0,288)"
       d="m 1576.2109,1666.0938 c 0,14.9218 -12.1093,26.9921 -26.9921,26.9921 -14.9219,0 -27.0313,-12.0703 -27.0313,-26.9921 0,-14.9219 12.1094,-26.9922 27.0313,-26.9922 14.8828,0 26.9921,12.0703 26.9921,26.9922"
       style="fill:#5900ff;fill-opacity:1;fill-rule:nonzero;stroke:#5900ff;stroke-width:7.5;stroke-linecap:round;stroke-linejoin:round;stroke-miterlimit:10;stroke-opacity:1" />
    <path
       id="path122"
       transform="matrix(0.1,0,0,-0.1,0,288)"
       d="m 1245.3906,1974.4141 c 0,14.8828 -12.0703,26.9922 -26.9922,26.9922 -14.9218,0 -26.9921,-12.1094 -26.9921,-26.9922 0,-14.9219 12.0703,-27.0313 26.9921,-27.0313 14.9219,0 26.9922,12.1094 26.9922,27.0313"
       style="fill:#5900ff;fill-opacity:1;fill-rule:nonzero;stroke:#5900ff;stroke-width:7.5;stroke-linecap:round;stroke-linejoin:round;stroke-miterlimit:10;stroke-opacity:1" />
    <path
       id="path124"
       transform="matrix(0.1,0,0,-0.1,0,288)"
       d="m 1929.8828,1308.9844 c 0,14.9219 -12.0703,27.0312 -26.9922,27.0312 -14.8828,0 -26.9922,-12.1093 -26.9922,-27.0312 0,-14.8828 12.1094,-26.9922 26.9922,-26.9922 14.9219,0 26.9922,12.1094 26.9922,26.9922"
       style="fill:#5900ff;fill-opacity:1;fill-rule:nonzero;stroke:#5900ff;stroke-width:7.5;stroke-linecap:round;stroke-linejoin:round;stroke-miterlimit:10;stroke-opacity:1" />
    <path
       id="path126"
       transform="matrix(0.1,0,0,-0.1,0,288)"
       d="m 2058.5156,1625.1953 c 0,14.9219 -12.1093,26.9922 -27.0312,26.9922 -14.8828,0 -26.9922,-12.0703 -26.9922,-26.9922 0,-14.9219 12.1094,-26.9922 26.9922,-26.9922 14.9219,0 27.0312,12.0703 27.0312,26.9922"
       style="fill:#5900ff;fill-opacity:1;fill-rule:nonzero;stroke:#5900ff;stroke-width:7.5;stroke-linecap:round;stroke-linejoin:round;stroke-miterlimit:10;stroke-opacity:1" />
    <path
       id="path128"
       transform="matrix(0.1,0,0,-0.1,0,288)"
       d="m 1109.2188,1627.6172 c 0,14.8828 -12.1094,26.9922 -27.0313,26.9922 -14.8828,0 -26.9922,-12.1094 -26.9922,-26.9922 0,-14.9219 12.1094,-27.0313 26.9922,-27.0313 14.9219,0 27.0313,12.1094 27.0313,27.0313"
       style="fill:#5900ff;fill-opacity:1;fill-rule:nonzero;stroke:#5900ff;stroke-width:7.5;stroke-linecap:round;stroke-linejoin:round;stroke-miterlimit:10;stroke-opacity:1" />
    <path
       id="path130"
       transform="matrix(0.1,0,0,-0.1,0,288)"
       d="m 1033.0859,1935.7031 c 0,14.9219 -12.0703,26.9922 -26.9922,26.9922 -14.92183,0 -26.99214,-12.0703 -26.99214,-26.9922 0,-14.9218 12.07031,-26.9922 26.99214,-26.9922 14.9219,0 26.9922,12.0704 26.9922,26.9922"
       style="fill:#5900ff;fill-opacity:1;fill-rule:nonzero;stroke:#5900ff;stroke-width:7.5;stroke-linecap:round;stroke-linejoin:round;stroke-miterlimit:10;stroke-opacity:1" />
    <path
       id="path132"
       transform="matrix(0.1,0,0,-0.1,0,288)"
       d="m 1196.9141,1931.2109 c 0,14.8829 -12.1094,26.9922 -27.0313,26.9922 -14.8828,0 -26.9922,-12.1093 -26.9922,-26.9922 0,-14.9218 12.1094,-26.9921 26.9922,-26.9921 14.9219,0 27.0313,12.0703 27.0313,26.9921"
       style="fill:#5900ff;fill-opacity:1;fill-rule:nonzero;stroke:#5900ff;stroke-width:7.5;stroke-linecap:round;stroke-linejoin:round;stroke-miterlimit:10;stroke-opacity:1" />
    <path
       id="path134"
       transform="matrix(0.1,0,0,-0.1,0,288)"
       d="m 1550.1953,1831.4844 c 0,14.9219 -12.0703,27.0312 -26.9922,27.0312 -14.9218,0 -26.9922,-12.1093 -26.9922,-27.0312 0,-14.8828 12.0704,-26.9922 26.9922,-26.9922 14.9219,0 26.9922,12.1094 26.9922,26.9922"
       style="fill:#5900ff;fill-opacity:1;fill-rule:nonzero;stroke:#5900ff;stroke-width:7.5;stroke-linecap:round;stroke-linejoin:round;stroke-miterlimit:10;stroke-opacity:1" />
    <path
       id="path136"
       transform="matrix(0.1,0,0,-0.1,0,288)"
       d="m 1655.8984,1305 c 0,14.9219 -12.0703,26.9922 -26.9921,26.9922 -14.9219,0 -26.9922,-12.0703 -26.9922,-26.9922 0,-14.9219 12.0703,-26.9922 26.9922,-26.9922 14.9218,0 26.9921,12.0703 26.9921,26.9922"
       style="fill:#5900ff;fill-opacity:1;fill-rule:nonzero;stroke:#5900ff;stroke-width:7.5;stroke-linecap:round;stroke-linejoin:round;stroke-miterlimit:10;stroke-opacity:1" />
    <path
       id="path138"
       transform="matrix(0.1,0,0,-0.1,0,288)"
       d="m 1498.2031,2221.2109 c 0,14.8829 -12.1093,26.9922 -26.9922,26.9922 -14.9218,0 -26.9921,-12.1093 -26.9921,-26.9922 0,-14.9218 12.0703,-26.9921 26.9921,-26.9921 14.8829,0 26.9922,12.0703 26.9922,26.9921"
       style="fill:#5900ff;fill-opacity:1;fill-rule:nonzero;stroke:#5900ff;stroke-width:7.5;stroke-linecap:round;stroke-linejoin:round;stroke-miterlimit:10;stroke-opacity:1" />
    <path
       id="path140"
       transform="matrix(0.1,0,0,-0.1,0,288)"
       d="m 1466.9922,1455 c 0,14.9219 -12.0703,26.9922 -26.9922,26.9922 -14.9219,0 -26.9922,-12.0703 -26.9922,-26.9922 0,-14.9219 12.0703,-26.9922 26.9922,-26.9922 14.9219,0 26.9922,12.0703 26.9922,26.9922"
       style="fill:#5900ff;fill-opacity:1;fill-rule:nonzero;stroke:#5900ff;stroke-width:7.5;stroke-linecap:round;stroke-linejoin:round;stroke-miterlimit:10;stroke-opacity:1" />
    <path
       id="path142"
       transform="matrix(0.1,0,0,-0.1,0,288)"
       d="m 1974.1016,1831.6016 c 0,14.9218 -12.1094,26.9922 -26.9922,26.9922 -14.9219,0 -26.9922,-12.0704 -26.9922,-26.9922 0,-14.9219 12.0703,-26.9922 26.9922,-26.9922 14.8828,0 26.9922,12.0703 26.9922,26.9922"
       style="fill:#5900ff;fill-opacity:1;fill-rule:nonzero;stroke:#5900ff;stroke-width:7.5;stroke-linecap:round;stroke-linejoin:round;stroke-miterlimit:10;stroke-opacity:1" />
    <path
       id="path144"
       transform="matrix(0.1,0,0,-0.1,0,288)"
       d="m 1481.6016,1901.7969 c 0,14.9219 -12.1094,26.9922 -26.9922,26.9922 -14.9219,0 -26.9922,-12.0703 -26.9922,-26.9922 0,-14.9219 12.0703,-26.9922 26.9922,-26.9922 14.8828,0 26.9922,12.0703 26.9922,26.9922"
       style="fill:#5900ff;fill-opacity:1;fill-rule:nonzero;stroke:#5900ff;stroke-width:7.5;stroke-linecap:round;stroke-linejoin:round;stroke-miterlimit:10;stroke-opacity:1" />
    <path
       id="path146"
       transform="matrix(0.1,0,0,-0.1,0,288)"
       d="m 2025.5859,2204.4922 c 0,14.9219 -12.0703,26.9922 -26.9921,26.9922 -14.9219,0 -26.9922,-12.0703 -26.9922,-26.9922 0,-14.8828 12.0703,-26.9922 26.9922,-26.9922 14.9218,0 26.9921,12.1094 26.9921,26.9922"
       style="fill:#5900ff;fill-opacity:1;fill-rule:nonzero;stroke:#5900ff;stroke-width:7.5;stroke-linecap:round;stroke-linejoin:round;stroke-miterlimit:10;stroke-opacity:1" />
    <path
       id="path148"
       transform="matrix(0.1,0,0,-0.1,0,288)"
       d="m 1747.8125,1461.0156 c 0,14.8828 -12.1094,26.9922 -27.0312,26.9922 -14.8829,0 -26.9922,-12.1094 -26.9922,-26.9922 0,-14.9218 12.1093,-27.0312 26.9922,-27.0312 14.9218,0 27.0312,12.1094 27.0312,27.0312"
       style="fill:#5900ff;fill-opacity:1;fill-rule:nonzero;stroke:#5900ff;stroke-width:7.5;stroke-linecap:round;stroke-linejoin:round;stroke-miterlimit:10;stroke-opacity:1" />
    <path
       id="path150"
       transform="matrix(0.1,0,0,-0.1,0,288)"
       d="m 1104.2969,1532.8125 c 0,14.8828 -12.0703,26.9922 -26.9922,26.9922 -14.9219,0 -26.9922,-12.1094 -26.9922,-26.9922 0,-14.9219 12.0703,-27.0312 26.9922,-27.0312 14.9219,0 26.9922,12.1093 26.9922,27.0312"
       style="fill:#5900ff;fill-opacity:1;fill-rule:nonzero;stroke:#5900ff;stroke-width:7.5;stroke-linecap:round;stroke-linejoin:round;stroke-miterlimit:10;stroke-opacity:1" />
    <path
       id="path152"
       transform="matrix(0.1,0,0,-0.1,0,288)"
       d="m 1010.1172,2026.9141 c 0,14.8828 -12.10939,26.9922 -27.03126,26.9922 -14.88282,0 -26.99219,-12.1094 -26.99219,-26.9922 0,-14.9219 12.10937,-27.0313 26.99219,-27.0313 14.92187,0 27.03126,12.1094 27.03126,27.0313"
       style="fill:#5900ff;fill-opacity:1;fill-rule:nonzero;stroke:#5900ff;stroke-width:7.5;stroke-linecap:round;stroke-linejoin:round;stroke-miterlimit:10;stroke-opacity:1" />
    <path
       id="path154"
       transform="matrix(0.1,0,0,-0.1,0,288)"
       d="m 1896.7969,1552.3828 c 0,14.9219 -12.0703,27.0313 -26.9922,27.0313 -14.9219,0 -26.9922,-12.1094 -26.9922,-27.0313 0,-14.8828 12.0703,-26.9922 26.9922,-26.9922 14.9219,0 26.9922,12.1094 26.9922,26.9922"
       style="fill:#5900ff;fill-opacity:1;fill-rule:nonzero;stroke:#5900ff;stroke-width:7.5;stroke-linecap:round;stroke-linejoin:round;stroke-miterlimit:10;stroke-opacity:1" />
    <path
       id="path156"
       transform="matrix(0.1,0,0,-0.1,0,288)"
       d="m 1130.8984,1668.2813 c 0,14.9218 -12.0703,27.0312 -26.9921,27.0312 -14.9219,0 -26.9922,-12.1094 -26.9922,-27.0312 0,-14.8829 12.0703,-26.9922 26.9922,-26.9922 14.9218,0 26.9921,12.1093 26.9921,26.9922"
       style="fill:#5900ff;fill-opacity:1;fill-rule:nonzero;stroke:#5900ff;stroke-width:7.5;stroke-linecap:round;stroke-linejoin:round;stroke-miterlimit:10;stroke-opacity:1" />
    <path
       id="path158"
       transform="matrix(0.1,0,0,-0.1,0,288)"
       d="m 1627.6172,1583.7109 c 0,14.8829 -12.1094,26.9922 -27.0313,26.9922 -14.8828,0 -26.9921,-12.1093 -26.9921,-26.9922 0,-14.9218 12.1093,-26.9921 26.9921,-26.9921 14.9219,0 27.0313,12.0703 27.0313,26.9921"
       style="fill:#5900ff;fill-opacity:1;fill-rule:nonzero;stroke:#5900ff;stroke-width:7.5;stroke-linecap:round;stroke-linejoin:round;stroke-miterlimit:10;stroke-opacity:1" />
    <path
       id="path160"
       transform="matrix(0.1,0,0,-0.1,0,288)"
       d="m 1439.6094,1786.2891 c 0,14.9218 -12.1094,26.9922 -26.9922,26.9922 -14.9219,0 -27.0313,-12.0704 -27.0313,-26.9922 0,-14.8828 12.1094,-26.9922 27.0313,-26.9922 14.8828,0 26.9922,12.1094 26.9922,26.9922"
       style="fill:#5900ff;fill-opacity:1;fill-rule:nonzero;stroke:#5900ff;stroke-width:7.5;stroke-linecap:round;stroke-linejoin:round;stroke-miterlimit:10;stroke-opacity:1" />
    <path
       id="path162"
       transform="matrix(0.1,0,0,-0.1,0,288)"
       d="m 1553.9063,2096.9141 c 0,14.8828 -12.1094,26.9922 -26.9922,26.9922 -14.9219,0 -27.0313,-12.1094 -27.0313,-26.9922 0,-14.9219 12.1094,-27.0313 27.0313,-27.0313 14.8828,0 26.9922,12.1094 26.9922,27.0313"
       style="fill:#5900ff;fill-opacity:1;fill-rule:nonzero;stroke:#5900ff;stroke-width:7.5;stroke-linecap:round;stroke-linejoin:round;stroke-miterlimit:10;stroke-opacity:1" />
    <path
       id="path164"
       transform="matrix(0.1,0,0,-0.1,0,288)"
       d="m 1327.1875,1623.5938 c 0,14.9218 -12.0703,26.9921 -26.9922,26.9921 -14.9219,0 -26.9922,-12.0703 -26.9922,-26.9921 0,-14.9219 12.0703,-26.9922 26.9922,-26.9922 14.9219,0 26.9922,12.0703 26.9922,26.9922"
       style="fill:#5900ff;fill-opacity:1;fill-rule:nonzero;stroke:#5900ff;stroke-width:7.5;stroke-linecap:round;stroke-linejoin:round;stroke-miterlimit:10;stroke-opacity:1" />
    <path
       id="path166"
       transform="matrix(0.1,0,0,-0.1,0,288)"
       d="m 1532.8125,1731.7188 c 0,14.8828 -12.1094,26.9921 -27.0312,26.9921 -14.8829,0 -26.9922,-12.1093 -26.9922,-26.9921 0,-14.9219 12.1093,-27.0313 26.9922,-27.0313 14.9218,0 27.0312,12.1094 27.0312,27.0313"
       style="fill:#5900ff;fill-opacity:1;fill-rule:nonzero;stroke:#5900ff;stroke-width:7.5;stroke-linecap:round;stroke-linejoin:round;stroke-miterlimit:10;stroke-opacity:1" />
    <path
       id="path168"
       transform="matrix(0.1,0,0,-0.1,0,288)"
       d="m 1376.6016,1530 c 0,14.9219 -12.1094,26.9922 -26.9922,26.9922 -14.9219,0 -26.9922,-12.0703 -26.9922,-26.9922 0,-14.9219 12.0703,-26.9922 26.9922,-26.9922 14.8828,0 26.9922,12.0703 26.9922,26.9922"
       style="fill:#5900ff;fill-opacity:1;fill-rule:nonzero;stroke:#5900ff;stroke-width:7.5;stroke-linecap:round;stroke-linejoin:round;stroke-miterlimit:10;stroke-opacity:1" />
    <path
       id="path170"
       transform="matrix(0.1,0,0,-0.1,0,288)"
       d="m 1642.3047,1450.5859 c 0,14.9219 -12.1094,27.0313 -26.9922,27.0313 -14.9219,0 -27.0312,-12.1094 -27.0312,-27.0313 0,-14.8828 12.1093,-26.9921 27.0312,-26.9921 14.8828,0 26.9922,12.1093 26.9922,26.9921"
       style="fill:#5900ff;fill-opacity:1;fill-rule:nonzero;stroke:#5900ff;stroke-width:7.5;stroke-linecap:round;stroke-linejoin:round;stroke-miterlimit:10;stroke-opacity:1" />
    <path
       id="path172"
       transform="matrix(0.1,0,0,-0.1,0,288)"
       d="m 1483.0078,1577.8906 c 0,14.9219 -12.1094,26.9922 -26.9922,26.9922 -14.9218,0 -27.0312,-12.0703 -27.0312,-26.9922 0,-14.8828 12.1094,-26.9922 27.0312,-26.9922 14.8828,0 26.9922,12.1094 26.9922,26.9922"
       style="fill:#5900ff;fill-opacity:1;fill-rule:nonzero;stroke:#5900ff;stroke-width:7.5;stroke-linecap:round;stroke-linejoin:round;stroke-miterlimit:10;stroke-opacity:1" />
    <path
       id="path174"
       transform="matrix(0.1,0,0,-0.1,0,288)"
       d="m 2050.3125,1545.5859 c 0,14.9219 -12.1094,27.0313 -27.0312,27.0313 -14.8829,0 -26.9922,-12.1094 -26.9922,-27.0313 0,-14.8828 12.1093,-26.9921 26.9922,-26.9921 14.9218,0 27.0312,12.1093 27.0312,26.9921"
       style="fill:#5900ff;fill-opacity:1;fill-rule:nonzero;stroke:#5900ff;stroke-width:7.5;stroke-linecap:round;stroke-linejoin:round;stroke-miterlimit:10;stroke-opacity:1" />
    <path
       id="path176"
       transform="matrix(0.1,0,0,-0.1,0,288)"
       d="m 1979.6094,1493.2813 c 0,14.9218 -12.1094,27.0312 -26.9922,27.0312 -14.9219,0 -27.0313,-12.1094 -27.0313,-27.0312 0,-14.8829 12.1094,-26.9922 27.0313,-26.9922 14.8828,0 26.9922,12.1093 26.9922,26.9922"
       style="fill:#5900ff;fill-opacity:1;fill-rule:nonzero;stroke:#5900ff;stroke-width:7.5;stroke-linecap:round;stroke-linejoin:round;stroke-miterlimit:10;stroke-opacity:1" />
    <path
       id="path178"
       transform="matrix(0.1,0,0,-0.1,0,288)"
       d="m 1311.7188,1798.7891 c 0,14.9218 -12.1094,26.9922 -27.0313,26.9922 -14.8828,0 -26.9922,-12.0704 -26.9922,-26.9922 0,-14.8828 12.1094,-26.9922 26.9922,-26.9922 14.9219,0 27.0313,12.1094 27.0313,26.9922"
       style="fill:#5900ff;fill-opacity:1;fill-rule:nonzero;stroke:#5900ff;stroke-width:7.5;stroke-linecap:round;stroke-linejoin:round;stroke-miterlimit:10;stroke-opacity:1" />
    <path
       id="path180"
       transform="matrix(0.1,0,0,-0.1,0,288)"
       d="m 1030.7813,2023.5938 c 0,14.9218 -12.0704,26.9921 -26.9922,26.9921 -14.88285,0 -26.99223,-12.0703 -26.99223,-26.9921 0,-14.9219 12.10938,-26.9922 26.99223,-26.9922 14.9218,0 26.9922,12.0703 26.9922,26.9922"
       style="fill:#5900ff;fill-opacity:1;fill-rule:nonzero;stroke:#5900ff;stroke-width:7.5;stroke-linecap:round;stroke-linejoin:round;stroke-miterlimit:10;stroke-opacity:1" />
    <path
       id="path182"
       transform="matrix(0.1,0,0,-0.1,0,288)"
       d="m 1391.6016,2002.3828 c 0,14.9219 -12.1094,27.0313 -26.9922,27.0313 -14.9219,0 -26.9922,-12.1094 -26.9922,-27.0313 0,-14.8828 12.0703,-26.9922 26.9922,-26.9922 14.8828,0 26.9922,12.1094 26.9922,26.9922"
       style="fill:#5900ff;fill-opacity:1;fill-rule:nonzero;stroke:#5900ff;stroke-width:7.5;stroke-linecap:round;stroke-linejoin:round;stroke-miterlimit:10;stroke-opacity:1" />
    <path
       id="path184"
       transform="matrix(0.1,0,0,-0.1,0,288)"
       d="m 1874.2188,1533.7109 c 0,14.8829 -12.1094,26.9922 -27.0313,26.9922 -14.8828,0 -26.9922,-12.1093 -26.9922,-26.9922 0,-14.9218 12.1094,-26.9921 26.9922,-26.9921 14.9219,0 27.0313,12.0703 27.0313,26.9921"
       style="fill:#5900ff;fill-opacity:1;fill-rule:nonzero;stroke:#5900ff;stroke-width:7.5;stroke-linecap:round;stroke-linejoin:round;stroke-miterlimit:10;stroke-opacity:1" />
    <path
       id="path186"
       transform="matrix(0.1,0,0,-0.1,0,288)"
       d="m 1473.7891,1391.2891 c 0,14.9218 -12.0703,26.9922 -26.9922,26.9922 -14.9219,0 -26.9922,-12.0704 -26.9922,-26.9922 0,-14.8828 12.0703,-26.9922 26.9922,-26.9922 14.9219,0 26.9922,12.1094 26.9922,26.9922"
       style="fill:#5900ff;fill-opacity:1;fill-rule:nonzero;stroke:#5900ff;stroke-width:7.5;stroke-linecap:round;stroke-linejoin:round;stroke-miterlimit:10;stroke-opacity:1" />
    <path
       id="path188"
       transform="matrix(0.1,0,0,-0.1,0,288)"
       d="m 1651.9141,1603.0078 c 0,14.8828 -12.1094,26.9922 -27.0313,26.9922 -14.8828,0 -26.9922,-12.1094 -26.9922,-26.9922 0,-14.9219 12.1094,-26.9922 26.9922,-26.9922 14.9219,0 27.0313,12.0703 27.0313,26.9922"
       style="fill:#5900ff;fill-opacity:1;fill-rule:nonzero;stroke:#5900ff;stroke-width:7.5;stroke-linecap:round;stroke-linejoin:round;stroke-miterlimit:10;stroke-opacity:1" />
    <path
       id="path190"
       transform="matrix(0.1,0,0,-0.1,0,288)"
       d="m 1329.2188,2098.9844 c 0,14.9219 -12.1094,27.0312 -27.0313,27.0312 -14.8828,0 -26.9922,-12.1093 -26.9922,-27.0312 0,-14.8828 12.1094,-26.9922 26.9922,-26.9922 14.9219,0 27.0313,12.1094 27.0313,26.9922"
       style="fill:#5900ff;fill-opacity:1;fill-rule:nonzero;stroke:#5900ff;stroke-width:7.5;stroke-linecap:round;stroke-linejoin:round;stroke-miterlimit:10;stroke-opacity:1" />
    <path
       id="path192"
       transform="matrix(0.1,0,0,-0.1,0,288)"
       d="m 1575.3125,1470.3125 c 0,14.8828 -12.1094,26.9922 -27.0312,26.9922 -14.8829,0 -26.9922,-12.1094 -26.9922,-26.9922 0,-14.9219 12.1093,-27.0312 26.9922,-27.0312 14.9218,0 27.0312,12.1093 27.0312,27.0312"
       style="fill:#5900ff;fill-opacity:1;fill-rule:nonzero;stroke:#5900ff;stroke-width:7.5;stroke-linecap:round;stroke-linejoin:round;stroke-miterlimit:10;stroke-opacity:1" />
    <path
       id="path194"
       transform="matrix(0.1,0,0,-0.1,0,288)"
       d="m 1660.5859,1468.0078 c 0,14.8828 -12.0703,26.9922 -26.9921,26.9922 -14.9219,0 -26.9922,-12.1094 -26.9922,-26.9922 0,-14.9219 12.0703,-26.9922 26.9922,-26.9922 14.9218,0 26.9921,12.0703 26.9921,26.9922"
       style="fill:#5900ff;fill-opacity:1;fill-rule:nonzero;stroke:#5900ff;stroke-width:7.5;stroke-linecap:round;stroke-linejoin:round;stroke-miterlimit:10;stroke-opacity:1" />
    <path
       id="path196"
       transform="matrix(0.1,0,0,-0.1,0,288)"
       d="m 1476.7188,1439.8047 c 0,14.9219 -12.1094,26.9922 -27.0313,26.9922 -14.8828,0 -26.9922,-12.0703 -26.9922,-26.9922 0,-14.9219 12.1094,-26.9922 26.9922,-26.9922 14.9219,0 27.0313,12.0703 27.0313,26.9922"
       style="fill:#5900ff;fill-opacity:1;fill-rule:nonzero;stroke:#5900ff;stroke-width:7.5;stroke-linecap:round;stroke-linejoin:round;stroke-miterlimit:10;stroke-opacity:1" />
    <path
       id="path198"
       transform="matrix(0.1,0,0,-0.1,0,288)"
       d="m 1489.4922,1913.7109 c 0,14.8829 -12.0703,26.9922 -26.9922,26.9922 -14.9219,0 -26.9922,-12.1093 -26.9922,-26.9922 0,-14.9218 12.0703,-26.9921 26.9922,-26.9921 14.9219,0 26.9922,12.0703 26.9922,26.9921"
       style="fill:#5900ff;fill-opacity:1;fill-rule:nonzero;stroke:#5900ff;stroke-width:7.5;stroke-linecap:round;stroke-linejoin:round;stroke-miterlimit:10;stroke-opacity:1" />
    <path
       id="path200"
       transform="matrix(0.1,0,0,-0.1,0,288)"
       d="m 1447.8125,1550.7813 c 0,14.9218 -12.1094,27.0312 -27.0312,27.0312 -14.8829,0 -26.9922,-12.1094 -26.9922,-27.0312 0,-14.8829 12.1093,-26.9922 26.9922,-26.9922 14.9218,0 27.0312,12.1093 27.0312,26.9922"
       style="fill:#5900ff;fill-opacity:1;fill-rule:nonzero;stroke:#5900ff;stroke-width:7.5;stroke-linecap:round;stroke-linejoin:round;stroke-miterlimit:10;stroke-opacity:1" />
    <path
       id="path202"
       transform="matrix(0.1,0,0,-0.1,0,288)"
       d="m 2394.2188,1784.6094 c 0,14.8828 -12.1094,26.9922 -27.0313,26.9922 -14.8828,0 -26.9922,-12.1094 -26.9922,-26.9922 0,-14.9219 12.1094,-26.9922 26.9922,-26.9922 14.9219,0 27.0313,12.0703 27.0313,26.9922"
       style="fill:#5900ff;fill-opacity:1;fill-rule:nonzero;stroke:#5900ff;stroke-width:7.5;stroke-linecap:round;stroke-linejoin:round;stroke-miterlimit:10;stroke-opacity:1" />
  </g>
</svg>
