<?xml version="1.0" encoding="UTF-8" standalone="no"?>
<svg
   xmlns:dc="http://purl.org/dc/elements/1.1/"
   xmlns:cc="http://creativecommons.org/ns#"
   xmlns:rdf="http://www.w3.org/1999/02/22-rdf-syntax-ns#"
   xmlns:svg="http://www.w3.org/2000/svg"
   xmlns="http://www.w3.org/2000/svg"
   xmlns:sodipodi="http://sodipodi.sourceforge.net/DTD/sodipodi-0.dtd"
   xmlns:inkscape="http://www.inkscape.org/namespaces/inkscape"
   inkscape:version="1.0 (4035a4fb49, 2020-05-01)"
   sodipodi:docname="lsj_pairedMnSnH.svg"
   viewBox="0 0 1120 320"
   height="320"
   width="1120"
   xml:space="preserve"
   id="svg923"
   version="1.1"><metadata
     id="metadata929"><rdf:RDF><cc:Work
         rdf:about=""><dc:format>image/svg+xml</dc:format><dc:type
           rdf:resource="http://purl.org/dc/dcmitype/StillImage" /><dc:title></dc:title></cc:Work></rdf:RDF></metadata><defs
     id="defs927"><clipPath
       id="clipPath943"
       clipPathUnits="userSpaceOnUse"><path
         id="path941"
         d="M 2126.8,3503.8 H 4114 V 5059 H 2126.8 Z" /></clipPath><clipPath
       id="clipPath955"
       clipPathUnits="userSpaceOnUse"><path
         id="path953"
         d="m 1536.4,2769.4 h 2880 v 2880 h -2880 z" /></clipPath><clipPath
       id="clipPath991"
       clipPathUnits="userSpaceOnUse"><path
         id="path989"
         d="M 2126.8,3503.8 H 4114 V 5059 H 2126.8 Z" /></clipPath><clipPath
       id="clipPath1019"
       clipPathUnits="userSpaceOnUse"><path
         id="path1017"
         d="m 1536.4,2769.4 h 2880 v 2880 h -2880 z" /></clipPath><clipPath
       id="clipPath1039"
       clipPathUnits="userSpaceOnUse"><path
         id="path1037"
         d="M 2126.8,3503.8 H 4114 V 5059 H 2126.8 Z" /></clipPath><clipPath
       clipPathUnits="userSpaceOnUse"
       id="clipPath1624"><path
         d="M 2126.8,3503.8 H 4114 V 5059 H 2126.8 Z"
         id="path1622" /></clipPath><clipPath
       clipPathUnits="userSpaceOnUse"
       id="clipPath1712"><path
         d="m 1536.4,2769.4 h 2880 v 2880 h -2880 z"
         id="path1710" /></clipPath><clipPath
       clipPathUnits="userSpaceOnUse"
       id="clipPath1772"><path
         d="M 2126.8,3503.8 H 4114 V 5059 H 2126.8 Z"
         id="path1770" /></clipPath><clipPath
       clipPathUnits="userSpaceOnUse"
       id="clipPath22"><path
         d="m 1536.4,2769.4 h 2880 v 2880 h -2880 z"
         id="path20" /></clipPath><clipPath
       clipPathUnits="userSpaceOnUse"
       id="clipPath78"><path
         d="M 2126.8,3503.8 H 4114 V 5059 H 2126.8 Z"
         id="path76" /></clipPath></defs><sodipodi:namedview
     inkscape:current-layer="g931"
     inkscape:window-maximized="1"
     inkscape:window-y="32"
     inkscape:window-x="0"
     inkscape:cy="484.08403"
     inkscape:cx="504.23256"
     inkscape:zoom="0.62704434"
     showgrid="false"
     id="namedview925"
     inkscape:window-height="1020"
     inkscape:window-width="1920"
     inkscape:pageshadow="2"
     inkscape:pageopacity="0"
     guidetolerance="10"
     gridtolerance="10"
     objecttolerance="10"
     borderopacity="1"
     bordercolor="#666666"
     pagecolor="#ffffff" /><g
     transform="matrix(1.3333333,0,0,-1.3333333,0,1056)"
     inkscape:label="ink_ext_XXXXXX"
     inkscape:groupmode="layer"
     id="g931"><g
       transform="translate(-139.648,272.97502)"
       id="g2424"><g
         id="g937"
         transform="scale(0.1)"><g
           clip-path="url(#clipPath943)"
           id="g939"><path
             id="path945"
             style="fill:none;stroke:#000000;stroke-width:7.5;stroke-linecap:round;stroke-linejoin:round;stroke-miterlimit:10;stroke-dasharray:none;stroke-opacity:1"
             d="m 2687.4,4156 c 0,14.91 -12.09,27 -27,27 -14.91,0 -27,-12.09 -27,-27 0,-14.91 12.09,-27 27,-27 14.91,0 27,12.09 27,27" /><path
             id="path947"
             style="fill:none;stroke:#000000;stroke-width:7.5;stroke-linecap:round;stroke-linejoin:round;stroke-miterlimit:10;stroke-dasharray:none;stroke-opacity:1"
             d="m 3607.4,4425.8 c 0,14.91 -12.09,27 -27,27 -14.91,0 -27,-12.09 -27,-27 0,-14.91 12.09,-27 27,-27 14.91,0 27,12.09 27,27" /></g></g><g
         id="g949"
         transform="scale(0.1)"><g
           clip-path="url(#clipPath955)"
           id="g951"><path
             id="path957"
             style="fill:none;stroke:#000000;stroke-width:7.5;stroke-linecap:round;stroke-linejoin:round;stroke-miterlimit:10;stroke-dasharray:none;stroke-opacity:1"
             d="M 2126.8,3583.8 V 4735.9" /><path
             id="path959"
             style="fill:none;stroke:#000000;stroke-width:7.5;stroke-linecap:round;stroke-linejoin:round;stroke-miterlimit:10;stroke-dasharray:none;stroke-opacity:1"
             d="m 2126.8,3583.8 h -72" /><path
             id="path961"
             style="fill:none;stroke:#000000;stroke-width:7.5;stroke-linecap:round;stroke-linejoin:round;stroke-miterlimit:10;stroke-dasharray:none;stroke-opacity:1"
             d="m 2126.8,3967.8 h -72" /><path
             id="path963"
             style="fill:none;stroke:#000000;stroke-width:7.5;stroke-linecap:round;stroke-linejoin:round;stroke-miterlimit:10;stroke-dasharray:none;stroke-opacity:1"
             d="m 2126.8,4351.9 h -72" /><path
             id="path965"
             style="fill:none;stroke:#000000;stroke-width:7.5;stroke-linecap:round;stroke-linejoin:round;stroke-miterlimit:10;stroke-dasharray:none;stroke-opacity:1"
             d="m 2126.8,4735.9 h -72" /><g
             transform="scale(10)"
             id="g967"><text
               id="text971"
               style="font-variant:normal;font-weight:normal;font-size:16px;font-family:Helvetica;-inkscape-font-specification:Helvetica;writing-mode:lr-tb;fill:#000000;fill-opacity:1;fill-rule:nonzero;stroke:none"
               transform="matrix(0,1,1,0,195.4,349.484)"><tspan
                 id="tspan969"
                 sodipodi:role="line"
                 y="0"
                 x="0 8.8959999 38.400002 47.296001 76.809761 85.705757 115.20976 124.10576">54565860</tspan></text></g><path
             id="path973"
             style="fill:none;stroke:#000000;stroke-width:7.5;stroke-linecap:round;stroke-linejoin:round;stroke-miterlimit:10;stroke-dasharray:none;stroke-opacity:1"
             d="M 2126.8,3503.8 H 4114 V 5059 H 2126.8 V 3503.8" /><g
             transform="scale(10)"
             id="g975"><text
               id="text979"
               style="font-variant:normal;font-weight:normal;font-size:16px;font-family:Helvetica;-inkscape-font-specification:Helvetica;writing-mode:lr-tb;fill:#000000;fill-opacity:1;fill-rule:nonzero;stroke:none"
               transform="matrix(1,0,0,-1,253.34,295.66)"><tspan
                 id="tspan977"
                 sodipodi:role="line"
                 y="0"
                 x="0 7.8558559 16.751856 24.751856 29.199856 32.751858 41.647858 50.543858 54.991856 59.439857 68.335854 76.335854 80.783859 89.679855 98.575859 106.57586">Testing Instance</tspan></text><text
               id="text983"
               style="font-variant:normal;font-weight:normal;font-size:16px;font-family:Helvetica;-inkscape-font-specification:Helvetica;writing-mode:lr-tb;fill:#000000;fill-opacity:1;fill-rule:nonzero;stroke:none"
               transform="matrix(0,1,1,0,166.6,405.91)"><tspan
                 id="tspan981"
                 sodipodi:role="line"
                 y="0"
                 x="0 12.448 17.616039 26.512039 35.408039">Grade</tspan></text></g></g></g><g
         id="g985"
         transform="scale(0.1)"><g
           clip-path="url(#clipPath991)"
           id="g987"><path
             id="path993"
             style="fill:none;stroke:#0000ff;stroke-width:7.5;stroke-linecap:round;stroke-linejoin:round;stroke-miterlimit:10;stroke-dasharray:none;stroke-opacity:1"
             d="m 2660.4,3561.4 v 559.9" /><path
             id="path995"
             style="fill:none;stroke:#0000ff;stroke-width:7.5;stroke-linecap:round;stroke-linejoin:round;stroke-miterlimit:10;stroke-dasharray:none;stroke-opacity:1"
             d="m 2587.7,3561.4 h 145.4" /><path
             id="path997"
             style="fill:none;stroke:#0000ff;stroke-width:7.5;stroke-linecap:round;stroke-linejoin:round;stroke-miterlimit:10;stroke-dasharray:none;stroke-opacity:1"
             d="m 3580.4,3850.2 v 540.9" /><path
             id="path999"
             style="fill:none;stroke:#0000ff;stroke-width:7.5;stroke-linecap:round;stroke-linejoin:round;stroke-miterlimit:10;stroke-dasharray:none;stroke-opacity:1"
             d="m 3507.7,3850.2 h 145.4" /><path
             id="path1001"
             style="fill:none;stroke:#0000ff;stroke-width:7.5;stroke-linecap:round;stroke-linejoin:round;stroke-miterlimit:10;stroke-dasharray:none;stroke-opacity:1"
             d="M 2660.4,4750.6 V 4190.7" /><path
             id="path1003"
             style="fill:none;stroke:#0000ff;stroke-width:7.5;stroke-linecap:round;stroke-linejoin:round;stroke-miterlimit:10;stroke-dasharray:none;stroke-opacity:1"
             d="M 2733.1,4750.6 H 2587.7" /><path
             id="path1005"
             style="fill:none;stroke:#0000ff;stroke-width:7.5;stroke-linecap:round;stroke-linejoin:round;stroke-miterlimit:10;stroke-dasharray:none;stroke-opacity:1"
             d="M 3580.4,5001.4 V 4460.5" /><path
             id="path1007"
             style="fill:none;stroke:#0000ff;stroke-width:7.5;stroke-linecap:round;stroke-linejoin:round;stroke-miterlimit:10;stroke-dasharray:none;stroke-opacity:1"
             d="M 3653.1,5001.4 H 3507.7" /><path
             id="path1009"
             style="fill:none;stroke:#000000;stroke-width:7.5;stroke-linecap:round;stroke-linejoin:round;stroke-miterlimit:10;stroke-dasharray:none;stroke-opacity:1"
             d="m 2687.4,4156 c 0,14.91 -12.09,27 -27,27 -14.91,0 -27,-12.09 -27,-27 0,-14.91 12.09,-27 27,-27 14.91,0 27,12.09 27,27" /><path
             id="path1011"
             style="fill:none;stroke:#000000;stroke-width:7.5;stroke-linecap:round;stroke-linejoin:round;stroke-miterlimit:10;stroke-dasharray:none;stroke-opacity:1"
             d="m 3607.4,4425.8 c 0,14.91 -12.09,27 -27,27 -14.91,0 -27,-12.09 -27,-27 0,-14.91 12.09,-27 27,-27 14.91,0 27,12.09 27,27" /></g></g><g
         id="g1013"
         transform="scale(0.1)"><g
           clip-path="url(#clipPath1019)"
           id="g1015"><path
             id="path1021"
             style="fill:none;stroke:#000000;stroke-width:7.5;stroke-linecap:round;stroke-linejoin:round;stroke-miterlimit:10;stroke-dasharray:none;stroke-opacity:1"
             d="m 2660.4,3503.8 h 920" /><path
             id="path1023"
             style="fill:none;stroke:#000000;stroke-width:7.5;stroke-linecap:round;stroke-linejoin:round;stroke-miterlimit:10;stroke-dasharray:none;stroke-opacity:1"
             d="m 2660.4,3503.8 v -72" /><path
             id="path1025"
             style="fill:none;stroke:#000000;stroke-width:7.5;stroke-linecap:round;stroke-linejoin:round;stroke-miterlimit:10;stroke-dasharray:none;stroke-opacity:1"
             d="m 3580.4,3503.8 v -72" /><g
             transform="scale(10)"
             id="g1027"><text
               id="text1031"
               style="font-variant:normal;font-weight:normal;font-size:16px;font-family:Helvetica;-inkscape-font-specification:Helvetica;writing-mode:lr-tb;fill:#000000;fill-opacity:1;fill-rule:nonzero;stroke:none"
               transform="matrix(1,0,0,-1,248.696,324.46)"><tspan
                 id="tspan1029"
                 sodipodi:role="line"
                 y="0"
                 x="0 4.448 13.344 21.344 25.792 92 96.447998 105.344 113.344 117.792">test1test2</tspan></text></g></g></g><g
         id="g1033"
         transform="scale(0.1)"><g
           clip-path="url(#clipPath1039)"
           id="g1035"><path
             id="path1041"
             style="fill:none;stroke:#000000;stroke-width:7.5;stroke-linecap:round;stroke-linejoin:round;stroke-miterlimit:10;stroke-dasharray:none;stroke-opacity:1"
             d="m 2660.4,4156 920,269.8" /></g></g></g><g
       transform="translate(137.85201,272.97502)"
       id="g2678"><g
         transform="scale(0.1)"
         id="g1618"><g
           id="g1620"
           clip-path="url(#clipPath1624)"><path
             d="m 2227.4,3561.4 c 0,14.91 -12.09,27 -27,27 -14.91,0 -27,-12.09 -27,-27 0,-14.91 12.09,-27 27,-27 14.91,0 27,12.09 27,27"
             style="fill:#000000;fill-opacity:1;fill-rule:nonzero;stroke:none"
             id="path1626" /><path
             d="m 2227.4,3561.4 c 0,14.91 -12.09,27 -27,27 -14.91,0 -27,-12.09 -27,-27 0,-14.91 12.09,-27 27,-27 14.91,0 27,12.09 27,27"
             style="fill:none;stroke:#000000;stroke-width:7.5;stroke-linecap:round;stroke-linejoin:round;stroke-miterlimit:10;stroke-dasharray:none;stroke-opacity:1"
             id="path1628" /><path
             d="m 2796,4050.1 c 0,14.91 -12.09,27 -27,27 -14.91,0 -27,-12.09 -27,-27 0,-14.91 12.09,-27 27,-27 14.91,0 27,12.09 27,27"
             style="fill:#000000;fill-opacity:1;fill-rule:nonzero;stroke:none"
             id="path1630" /><path
             d="m 2796,4050.1 c 0,14.91 -12.09,27 -27,27 -14.91,0 -27,-12.09 -27,-27 0,-14.91 12.09,-27 27,-27 14.91,0 27,12.09 27,27"
             style="fill:none;stroke:#000000;stroke-width:7.5;stroke-linecap:round;stroke-linejoin:round;stroke-miterlimit:10;stroke-dasharray:none;stroke-opacity:1"
             id="path1632" /><path
             d="m 4067.4,5001.4 c 0,14.91 -12.09,27 -27,27 -14.91,0 -27,-12.09 -27,-27 0,-14.91 12.09,-27 27,-27 14.91,0 27,12.09 27,27"
             style="fill:#000000;fill-opacity:1;fill-rule:nonzero;stroke:none"
             id="path1634" /><path
             d="m 4067.4,5001.4 c 0,14.91 -12.09,27 -27,27 -14.91,0 -27,-12.09 -27,-27 0,-14.91 12.09,-27 27,-27 14.91,0 27,12.09 27,27"
             style="fill:none;stroke:#000000;stroke-width:7.5;stroke-linecap:round;stroke-linejoin:round;stroke-miterlimit:10;stroke-dasharray:none;stroke-opacity:1"
             id="path1636" /><path
             d="m 2783.2,4018.9 c 0,14.91 -12.09,27 -27,27 -14.91,0 -27,-12.09 -27,-27 0,-14.91 12.09,-27 27,-27 14.91,0 27,12.09 27,27"
             style="fill:#000000;fill-opacity:1;fill-rule:nonzero;stroke:none"
             id="path1638" /><path
             d="m 2783.2,4018.9 c 0,14.91 -12.09,27 -27,27 -14.91,0 -27,-12.09 -27,-27 0,-14.91 12.09,-27 27,-27 14.91,0 27,12.09 27,27"
             style="fill:none;stroke:#000000;stroke-width:7.5;stroke-linecap:round;stroke-linejoin:round;stroke-miterlimit:10;stroke-dasharray:none;stroke-opacity:1"
             id="path1640" /><path
             d="m 3543.5,4559.6 c 0,14.91 -12.09,27 -27,27 -14.91,0 -27,-12.09 -27,-27 0,-14.91 12.09,-27 27,-27 14.91,0 27,12.09 27,27"
             style="fill:#000000;fill-opacity:1;fill-rule:nonzero;stroke:none"
             id="path1642" /><path
             d="m 3543.5,4559.6 c 0,14.91 -12.09,27 -27,27 -14.91,0 -27,-12.09 -27,-27 0,-14.91 12.09,-27 27,-27 14.91,0 27,12.09 27,27"
             style="fill:none;stroke:#000000;stroke-width:7.5;stroke-linecap:round;stroke-linejoin:round;stroke-miterlimit:10;stroke-dasharray:none;stroke-opacity:1"
             id="path1644" /><path
             d="m 3192.1,4325.6 c 0,14.91 -12.09,27 -27,27 -14.91,0 -27,-12.09 -27,-27 0,-14.91 12.09,-27 27,-27 14.91,0 27,12.09 27,27"
             style="fill:#000000;fill-opacity:1;fill-rule:nonzero;stroke:none"
             id="path1646" /><path
             d="m 3192.1,4325.6 c 0,14.91 -12.09,27 -27,27 -14.91,0 -27,-12.09 -27,-27 0,-14.91 12.09,-27 27,-27 14.91,0 27,12.09 27,27"
             style="fill:none;stroke:#000000;stroke-width:7.5;stroke-linecap:round;stroke-linejoin:round;stroke-miterlimit:10;stroke-dasharray:none;stroke-opacity:1"
             id="path1648" /><path
             d="m 3307.1,4403.6 c 0,14.91 -12.09,27 -27,27 -14.91,0 -27,-12.09 -27,-27 0,-14.91 12.09,-27 27,-27 14.91,0 27,12.09 27,27"
             style="fill:#000000;fill-opacity:1;fill-rule:nonzero;stroke:none"
             id="path1650" /><path
             d="m 3307.1,4403.6 c 0,14.91 -12.09,27 -27,27 -14.91,0 -27,-12.09 -27,-27 0,-14.91 12.09,-27 27,-27 14.91,0 27,12.09 27,27"
             style="fill:none;stroke:#000000;stroke-width:7.5;stroke-linecap:round;stroke-linejoin:round;stroke-miterlimit:10;stroke-dasharray:none;stroke-opacity:1"
             id="path1652" /><path
             d="m 2732.1,3925.3 c 0,14.91 -12.09,27 -27,27 -14.91,0 -27,-12.09 -27,-27 0,-14.91 12.09,-27 27,-27 14.91,0 27,12.09 27,27"
             style="fill:#000000;fill-opacity:1;fill-rule:nonzero;stroke:none"
             id="path1654" /><path
             d="m 2732.1,3925.3 c 0,14.91 -12.09,27 -27,27 -14.91,0 -27,-12.09 -27,-27 0,-14.91 12.09,-27 27,-27 14.91,0 27,12.09 27,27"
             style="fill:none;stroke:#000000;stroke-width:7.5;stroke-linecap:round;stroke-linejoin:round;stroke-miterlimit:10;stroke-dasharray:none;stroke-opacity:1"
             id="path1656" /><path
             d="m 3479.6,4585.6 c 0,14.91 -12.09,27 -27,27 -14.91,0 -27,-12.09 -27,-27 0,-14.91 12.09,-27 27,-27 14.91,0 27,12.09 27,27"
             style="fill:#000000;fill-opacity:1;fill-rule:nonzero;stroke:none"
             id="path1658" /><path
             d="m 3479.6,4585.6 c 0,14.91 -12.09,27 -27,27 -14.91,0 -27,-12.09 -27,-27 0,-14.91 12.09,-27 27,-27 14.91,0 27,12.09 27,27"
             style="fill:none;stroke:#000000;stroke-width:7.5;stroke-linecap:round;stroke-linejoin:round;stroke-miterlimit:10;stroke-dasharray:none;stroke-opacity:1"
             id="path1660" /><path
             d="m 3441.3,4528.4 c 0,14.91 -12.09,27 -27,27 -14.91,0 -27,-12.09 -27,-27 0,-14.91 12.09,-27 27,-27 14.91,0 27,12.09 27,27"
             style="fill:#000000;fill-opacity:1;fill-rule:nonzero;stroke:none"
             id="path1662" /><path
             d="m 3441.3,4528.4 c 0,14.91 -12.09,27 -27,27 -14.91,0 -27,-12.09 -27,-27 0,-14.91 12.09,-27 27,-27 14.91,0 27,12.09 27,27"
             style="fill:none;stroke:#000000;stroke-width:7.5;stroke-linecap:round;stroke-linejoin:round;stroke-miterlimit:10;stroke-dasharray:none;stroke-opacity:1"
             id="path1664" /><path
             d="m 2706.5,3935.7 c 0,14.91 -12.09,27 -27,27 -14.91,0 -27,-12.09 -27,-27 0,-14.91 12.09,-27 27,-27 14.91,0 27,12.09 27,27"
             style="fill:#000000;fill-opacity:1;fill-rule:nonzero;stroke:none"
             id="path1666" /><path
             d="m 2706.5,3935.7 c 0,14.91 -12.09,27 -27,27 -14.91,0 -27,-12.09 -27,-27 0,-14.91 12.09,-27 27,-27 14.91,0 27,12.09 27,27"
             style="fill:none;stroke:#000000;stroke-width:7.5;stroke-linecap:round;stroke-linejoin:round;stroke-miterlimit:10;stroke-dasharray:none;stroke-opacity:1"
             id="path1668" /><path
             d="m 2847.1,3956.5 c 0,14.91 -12.09,27 -27,27 -14.91,0 -27,-12.09 -27,-27 0,-14.91 12.09,-27 27,-27 14.91,0 27,12.09 27,27"
             style="fill:#000000;fill-opacity:1;fill-rule:nonzero;stroke:none"
             id="path1670" /><path
             d="m 2847.1,3956.5 c 0,14.91 -12.09,27 -27,27 -14.91,0 -27,-12.09 -27,-27 0,-14.91 12.09,-27 27,-27 14.91,0 27,12.09 27,27"
             style="fill:none;stroke:#000000;stroke-width:7.5;stroke-linecap:round;stroke-linejoin:round;stroke-miterlimit:10;stroke-dasharray:none;stroke-opacity:1"
             id="path1672" /><path
             d="m 3511.5,4518 c 0,14.91 -12.09,27 -27,27 -14.91,0 -27,-12.09 -27,-27 0,-14.91 12.09,-27 27,-27 14.91,0 27,12.09 27,27"
             style="fill:#000000;fill-opacity:1;fill-rule:nonzero;stroke:none"
             id="path1674" /><path
             d="m 3511.5,4518 c 0,14.91 -12.09,27 -27,27 -14.91,0 -27,-12.09 -27,-27 0,-14.91 12.09,-27 27,-27 14.91,0 27,12.09 27,27"
             style="fill:none;stroke:#000000;stroke-width:7.5;stroke-linecap:round;stroke-linejoin:round;stroke-miterlimit:10;stroke-dasharray:none;stroke-opacity:1"
             id="path1676" /><path
             d="m 3211.3,4388 c 0,14.91 -12.09,27 -27,27 -14.91,0 -27,-12.09 -27,-27 0,-14.91 12.09,-27 27,-27 14.91,0 27,12.09 27,27"
             style="fill:#000000;fill-opacity:1;fill-rule:nonzero;stroke:none"
             id="path1678" /><path
             d="m 3211.3,4388 c 0,14.91 -12.09,27 -27,27 -14.91,0 -27,-12.09 -27,-27 0,-14.91 12.09,-27 27,-27 14.91,0 27,12.09 27,27"
             style="fill:none;stroke:#000000;stroke-width:7.5;stroke-linecap:round;stroke-linejoin:round;stroke-miterlimit:10;stroke-dasharray:none;stroke-opacity:1"
             id="path1680" /><path
             d="m 2891.8,4211.3 c 0,14.91 -12.09,27 -27,27 -14.91,0 -27,-12.09 -27,-27 0,-14.91 12.09,-27 27,-27 14.91,0 27,12.09 27,27"
             style="fill:#000000;fill-opacity:1;fill-rule:nonzero;stroke:none"
             id="path1682" /><path
             d="m 2891.8,4211.3 c 0,14.91 -12.09,27 -27,27 -14.91,0 -27,-12.09 -27,-27 0,-14.91 12.09,-27 27,-27 14.91,0 27,12.09 27,27"
             style="fill:none;stroke:#000000;stroke-width:7.5;stroke-linecap:round;stroke-linejoin:round;stroke-miterlimit:10;stroke-dasharray:none;stroke-opacity:1"
             id="path1684" /><path
             d="m 3236.8,4367.2 c 0,14.91 -12.09,27 -27,27 -14.91,0 -27,-12.09 -27,-27 0,-14.91 12.09,-27 27,-27 14.91,0 27,12.09 27,27"
             style="fill:#000000;fill-opacity:1;fill-rule:nonzero;stroke:none"
             id="path1686" /><path
             d="m 3236.8,4367.2 c 0,14.91 -12.09,27 -27,27 -14.91,0 -27,-12.09 -27,-27 0,-14.91 12.09,-27 27,-27 14.91,0 27,12.09 27,27"
             style="fill:none;stroke:#000000;stroke-width:7.5;stroke-linecap:round;stroke-linejoin:round;stroke-miterlimit:10;stroke-dasharray:none;stroke-opacity:1"
             id="path1688" /><path
             d="m 2687.4,3930.5 c 0,14.91 -12.09,27 -27,27 -14.91,0 -27,-12.09 -27,-27 0,-14.91 12.09,-27 27,-27 14.91,0 27,12.09 27,27"
             style="fill:#000000;fill-opacity:1;fill-rule:nonzero;stroke:none"
             id="path1690" /><path
             d="m 2687.4,3930.5 c 0,14.91 -12.09,27 -27,27 -14.91,0 -27,-12.09 -27,-27 0,-14.91 12.09,-27 27,-27 14.91,0 27,12.09 27,27"
             style="fill:none;stroke:#000000;stroke-width:7.5;stroke-linecap:round;stroke-linejoin:round;stroke-miterlimit:10;stroke-dasharray:none;stroke-opacity:1"
             id="path1692" /><path
             d="m 3588.2,4653.1 c 0,14.91 -12.09,27 -27,27 -14.91,0 -27,-12.09 -27,-27 0,-14.91 12.09,-27 27,-27 14.91,0 27,12.09 27,27"
             style="fill:#000000;fill-opacity:1;fill-rule:nonzero;stroke:none"
             id="path1694" /><path
             d="m 3588.2,4653.1 c 0,14.91 -12.09,27 -27,27 -14.91,0 -27,-12.09 -27,-27 0,-14.91 12.09,-27 27,-27 14.91,0 27,12.09 27,27"
             style="fill:none;stroke:#000000;stroke-width:7.5;stroke-linecap:round;stroke-linejoin:round;stroke-miterlimit:10;stroke-dasharray:none;stroke-opacity:1"
             id="path1696" /><path
             d="m 3153.8,4273.7 c 0,14.91 -12.09,27 -27,27 -14.91,0 -27,-12.09 -27,-27 0,-14.91 12.09,-27 27,-27 14.91,0 27,12.09 27,27"
             style="fill:#000000;fill-opacity:1;fill-rule:nonzero;stroke:none"
             id="path1698" /><path
             d="m 3153.8,4273.7 c 0,14.91 -12.09,27 -27,27 -14.91,0 -27,-12.09 -27,-27 0,-14.91 12.09,-27 27,-27 14.91,0 27,12.09 27,27"
             style="fill:none;stroke:#000000;stroke-width:7.5;stroke-linecap:round;stroke-linejoin:round;stroke-miterlimit:10;stroke-dasharray:none;stroke-opacity:1"
             id="path1700" /><path
             d="m 3134.6,4367.2 c 0,14.91 -12.09,27 -27,27 -14.91,0 -27,-12.09 -27,-27 0,-14.91 12.09,-27 27,-27 14.91,0 27,12.09 27,27"
             style="fill:#000000;fill-opacity:1;fill-rule:nonzero;stroke:none"
             id="path1702" /><path
             d="m 3134.6,4367.2 c 0,14.91 -12.09,27 -27,27 -14.91,0 -27,-12.09 -27,-27 0,-14.91 12.09,-27 27,-27 14.91,0 27,12.09 27,27"
             style="fill:none;stroke:#000000;stroke-width:7.5;stroke-linecap:round;stroke-linejoin:round;stroke-miterlimit:10;stroke-dasharray:none;stroke-opacity:1"
             id="path1704" /></g></g><g
         transform="scale(0.1)"
         id="g1706"><g
           id="g1708"
           clip-path="url(#clipPath1712)"><path
             d="M 2334.5,3503.8 H 3931.8"
             style="fill:none;stroke:#000000;stroke-width:7.5;stroke-linecap:round;stroke-linejoin:round;stroke-miterlimit:10;stroke-dasharray:none;stroke-opacity:1"
             id="path1714" /><path
             d="m 2334.5,3503.8 v -72"
             style="fill:none;stroke:#000000;stroke-width:7.5;stroke-linecap:round;stroke-linejoin:round;stroke-miterlimit:10;stroke-dasharray:none;stroke-opacity:1"
             id="path1716" /><path
             d="m 2654,3503.8 v -72"
             style="fill:none;stroke:#000000;stroke-width:7.5;stroke-linecap:round;stroke-linejoin:round;stroke-miterlimit:10;stroke-dasharray:none;stroke-opacity:1"
             id="path1718" /><path
             d="m 2973.4,3503.8 v -72"
             style="fill:none;stroke:#000000;stroke-width:7.5;stroke-linecap:round;stroke-linejoin:round;stroke-miterlimit:10;stroke-dasharray:none;stroke-opacity:1"
             id="path1720" /><path
             d="m 3292.9,3503.8 v -72"
             style="fill:none;stroke:#000000;stroke-width:7.5;stroke-linecap:round;stroke-linejoin:round;stroke-miterlimit:10;stroke-dasharray:none;stroke-opacity:1"
             id="path1722" /><path
             d="m 3612.3,3503.8 v -72"
             style="fill:none;stroke:#000000;stroke-width:7.5;stroke-linecap:round;stroke-linejoin:round;stroke-miterlimit:10;stroke-dasharray:none;stroke-opacity:1"
             id="path1724" /><path
             d="m 3931.8,3503.8 v -72"
             style="fill:none;stroke:#000000;stroke-width:7.5;stroke-linecap:round;stroke-linejoin:round;stroke-miterlimit:10;stroke-dasharray:none;stroke-opacity:1"
             id="path1726" /><g
             id="g1728"
             transform="scale(10)"><text
               transform="matrix(1,0,0,-1,224.554,324.46)"
               style="font-variant:normal;font-weight:normal;font-size:16px;font-family:Helvetica;-inkscape-font-specification:Helvetica;writing-mode:lr-tb;fill:#000000;fill-opacity:1;fill-rule:nonzero;stroke:none"
               id="text1732"><tspan
                 x="0 8.8959999 31.950001 40.846001 63.889854 72.785858 95.839859 104.73586 127.7801 136.6761 159.7301 168.6261"
                 y="0"
                 sodipodi:role="line"
                 id="tspan1730">455055606570</tspan></text></g><path
             d="M 2126.8,3582.2 V 4881.9"
             style="fill:none;stroke:#000000;stroke-width:7.5;stroke-linecap:round;stroke-linejoin:round;stroke-miterlimit:10;stroke-dasharray:none;stroke-opacity:1"
             id="path1734" /><path
             d="m 2126.8,3582.2 h -72"
             style="fill:none;stroke:#000000;stroke-width:7.5;stroke-linecap:round;stroke-linejoin:round;stroke-miterlimit:10;stroke-dasharray:none;stroke-opacity:1"
             id="path1736" /><path
             d="m 2126.8,3842.2 h -72"
             style="fill:none;stroke:#000000;stroke-width:7.5;stroke-linecap:round;stroke-linejoin:round;stroke-miterlimit:10;stroke-dasharray:none;stroke-opacity:1"
             id="path1738" /><path
             d="m 2126.8,4102.1 h -72"
             style="fill:none;stroke:#000000;stroke-width:7.5;stroke-linecap:round;stroke-linejoin:round;stroke-miterlimit:10;stroke-dasharray:none;stroke-opacity:1"
             id="path1740" /><path
             d="m 2126.8,4362 h -72"
             style="fill:none;stroke:#000000;stroke-width:7.5;stroke-linecap:round;stroke-linejoin:round;stroke-miterlimit:10;stroke-dasharray:none;stroke-opacity:1"
             id="path1742" /><path
             d="m 2126.8,4622 h -72"
             style="fill:none;stroke:#000000;stroke-width:7.5;stroke-linecap:round;stroke-linejoin:round;stroke-miterlimit:10;stroke-dasharray:none;stroke-opacity:1"
             id="path1744" /><path
             d="m 2126.8,4881.9 h -72"
             style="fill:none;stroke:#000000;stroke-width:7.5;stroke-linecap:round;stroke-linejoin:round;stroke-miterlimit:10;stroke-dasharray:none;stroke-opacity:1"
             id="path1746" /><g
             id="g1748"
             transform="scale(10)"><text
               transform="matrix(0,1,1,0,195.4,349.324)"
               style="font-variant:normal;font-weight:normal;font-size:16px;font-family:Helvetica;-inkscape-font-specification:Helvetica;writing-mode:lr-tb;fill:#000000;fill-opacity:1;fill-rule:nonzero;stroke:none"
               id="text1752"><tspan
                 x="0 8.8959999 51.990238 60.886238 103.98016 112.87616"
                 y="0"
                 sodipodi:role="line"
                 id="tspan1750">455565</tspan></text></g><path
             d="M 2126.8,3503.8 H 4114 V 5059 H 2126.8 V 3503.8"
             style="fill:none;stroke:#000000;stroke-width:7.5;stroke-linecap:round;stroke-linejoin:round;stroke-miterlimit:10;stroke-dasharray:none;stroke-opacity:1"
             id="path1754" /><g
             id="g1756"
             transform="scale(10)"><text
               transform="matrix(1,0,0,-1,253.79,295.66)"
               style="font-variant:normal;font-weight:normal;font-size:16px;font-family:Helvetica;-inkscape-font-specification:Helvetica;writing-mode:lr-tb;fill:#000000;fill-opacity:1;fill-rule:nonzero;stroke:none"
               id="text1760"><tspan
                 x="0 12.448 17.615999 26.511999 35.408001 44.304001 48.751999 52.719898 61.615898 66.943901 71.391899 79.248024 88.144028 96.144028 100.59203 105.04002"
                 y="0"
                 sodipodi:role="line"
                 id="tspan1758">Grade for Test 1</tspan></text><text
               transform="matrix(0,1,1,0,166.6,369.9)"
               style="font-variant:normal;font-weight:normal;font-size:16px;font-family:Helvetica;-inkscape-font-specification:Helvetica;writing-mode:lr-tb;fill:#000000;fill-opacity:1;fill-rule:nonzero;stroke:none"
               id="text1764"><tspan
                 x="0 12.448 17.615999 26.511999 35.408001 44.304001 48.751999 52.719921 61.615921 66.943924 71.391922 79.248047 88.144051 96.144051 100.59205 105.04005"
                 y="0"
                 sodipodi:role="line"
                 id="tspan1762">Grade for Test 2</tspan></text></g></g></g><g
         transform="scale(0.1)"
         id="g1766"><g
           id="g1768"
           clip-path="url(#clipPath1772)"><path
             d="M 2126.8,3413.2 4114,5030.1"
             style="fill:none;stroke:#000000;stroke-width:7.5;stroke-linecap:round;stroke-linejoin:round;stroke-miterlimit:10;stroke-dasharray:none;stroke-opacity:1"
             id="path1774" /></g></g></g><g
       transform="translate(415.06401,278.73502)"
       id="g3009"><g
         transform="scale(0.1)"
         id="g16"><g
           id="g18"
           clip-path="url(#clipPath22)"><g
             id="g24"
             transform="scale(10)"><text
               transform="matrix(1,0,0,-1,232.45,295.66)"
               style="font-variant:normal;font-weight:normal;font-size:16px;font-family:Helvetica;-inkscape-font-specification:Helvetica;writing-mode:lr-tb;fill:#000000;fill-opacity:1;fill-rule:nonzero;stroke:none"
               id="text28"><tspan
                 x="0 4.448 17.775999 26.672001 32 40.655865 48.255863 57.151863 70.479866 79.375862 88.271866 92.719864 97.167862 100.71986 109.61587 114.06387 126.51186 131.67969 140.57568 149.47168"
                 y="0"
                 sodipodi:role="line"
                 id="tspan26">Improvement in Grade</tspan></text><text
               transform="matrix(0,1,1,0,166.6,390.349)"
               style="font-variant:normal;font-weight:normal;font-size:16px;font-family:Helvetica;-inkscape-font-specification:Helvetica;writing-mode:lr-tb;fill:#000000;fill-opacity:1;fill-rule:nonzero;stroke:none"
               id="text32"><tspan
                 x="0 9.776 15.104 24 32.896 41.792 50.688 59.584 67.584"
                 y="0"
                 sodipodi:role="line"
                 id="tspan30">Frequency</tspan></text></g><path
             d="m 2200.4,3503.8 h 1840"
             style="fill:none;stroke:#000000;stroke-width:7.5;stroke-linecap:round;stroke-linejoin:round;stroke-miterlimit:10;stroke-dasharray:none;stroke-opacity:1"
             id="path34" /><path
             d="m 2200.4,3503.8 v -72"
             style="fill:none;stroke:#000000;stroke-width:7.5;stroke-linecap:round;stroke-linejoin:round;stroke-miterlimit:10;stroke-dasharray:none;stroke-opacity:1"
             id="path36" /><path
             d="m 2568.4,3503.8 v -72"
             style="fill:none;stroke:#000000;stroke-width:7.5;stroke-linecap:round;stroke-linejoin:round;stroke-miterlimit:10;stroke-dasharray:none;stroke-opacity:1"
             id="path38" /><path
             d="m 2936.4,3503.8 v -72"
             style="fill:none;stroke:#000000;stroke-width:7.5;stroke-linecap:round;stroke-linejoin:round;stroke-miterlimit:10;stroke-dasharray:none;stroke-opacity:1"
             id="path40" /><path
             d="m 3304.4,3503.8 v -72"
             style="fill:none;stroke:#000000;stroke-width:7.5;stroke-linecap:round;stroke-linejoin:round;stroke-miterlimit:10;stroke-dasharray:none;stroke-opacity:1"
             id="path42" /><path
             d="m 3672.4,3503.8 v -72"
             style="fill:none;stroke:#000000;stroke-width:7.5;stroke-linecap:round;stroke-linejoin:round;stroke-miterlimit:10;stroke-dasharray:none;stroke-opacity:1"
             id="path44" /><path
             d="m 4040.4,3503.8 v -72"
             style="fill:none;stroke:#000000;stroke-width:7.5;stroke-linecap:round;stroke-linejoin:round;stroke-miterlimit:10;stroke-dasharray:none;stroke-opacity:1"
             id="path46" /><g
             id="g48"
             transform="scale(10)"><text
               transform="matrix(1,0,0,-1,210.92,324.46)"
               style="font-variant:normal;font-weight:normal;font-size:16px;font-family:Helvetica;-inkscape-font-specification:Helvetica;writing-mode:lr-tb;fill:#000000;fill-opacity:1;fill-rule:nonzero;stroke:none"
               id="text52"><tspan
                 x="0 9.3439999 41.47184 78.271843 115.07184 151.87184 188.67184"
                 y="0"
                 sodipodi:role="line"
                 id="tspan50">−101234</tspan></text></g><path
             d="m 2126.8,3561.4 v 1280"
             style="fill:none;stroke:#000000;stroke-width:7.5;stroke-linecap:round;stroke-linejoin:round;stroke-miterlimit:10;stroke-dasharray:none;stroke-opacity:1"
             id="path54" /><path
             d="m 2126.8,3561.4 h -72"
             style="fill:none;stroke:#000000;stroke-width:7.5;stroke-linecap:round;stroke-linejoin:round;stroke-miterlimit:10;stroke-dasharray:none;stroke-opacity:1"
             id="path56" /><path
             d="m 2126.8,3881.4 h -72"
             style="fill:none;stroke:#000000;stroke-width:7.5;stroke-linecap:round;stroke-linejoin:round;stroke-miterlimit:10;stroke-dasharray:none;stroke-opacity:1"
             id="path58" /><path
             d="m 2126.8,4201.4 h -72"
             style="fill:none;stroke:#000000;stroke-width:7.5;stroke-linecap:round;stroke-linejoin:round;stroke-miterlimit:10;stroke-dasharray:none;stroke-opacity:1"
             id="path60" /><path
             d="m 2126.8,4521.4 h -72"
             style="fill:none;stroke:#000000;stroke-width:7.5;stroke-linecap:round;stroke-linejoin:round;stroke-miterlimit:10;stroke-dasharray:none;stroke-opacity:1"
             id="path62" /><path
             d="m 2126.8,4841.4 h -72"
             style="fill:none;stroke:#000000;stroke-width:7.5;stroke-linecap:round;stroke-linejoin:round;stroke-miterlimit:10;stroke-dasharray:none;stroke-opacity:1"
             id="path64" /><g
             id="g66"
             transform="scale(10)"><text
               transform="matrix(0,1,1,0,195.4,351.692)"
               style="font-variant:normal;font-weight:normal;font-size:16px;font-family:Helvetica;-inkscape-font-specification:Helvetica;writing-mode:lr-tb;fill:#000000;fill-opacity:1;fill-rule:nonzero;stroke:none"
               id="text70"><tspan
                 x="0 32 64 96 128"
                 y="0"
                 sodipodi:role="line"
                 id="tspan68">02468</tspan></text></g></g></g><g
         transform="scale(0.1)"
         id="g72"><g
           id="g74"
           clip-path="url(#clipPath78)"><path
             d="m 2200.4,3561.4 h 368 v 320 h -368 z"
             style="fill:#7e7fff;fill-opacity:1;fill-rule:nonzero;stroke:none"
             id="path80" /><path
             d="m 2200.4,3561.4 h 368 v 320 h -368 z"
             style="fill:none;stroke:#ffffff;stroke-width:7.5;stroke-linecap:round;stroke-linejoin:round;stroke-miterlimit:10;stroke-dasharray:none;stroke-opacity:1"
             id="path82" /><path
             d="m 2568.4,3561.4 h 368 v 800 h -368 z"
             style="fill:#7e7fff;fill-opacity:1;fill-rule:nonzero;stroke:none"
             id="path84" /><path
             d="m 2568.4,3561.4 h 368 v 800 h -368 z"
             style="fill:none;stroke:#ffffff;stroke-width:7.5;stroke-linecap:round;stroke-linejoin:round;stroke-miterlimit:10;stroke-dasharray:none;stroke-opacity:1"
             id="path86" /><path
             d="m 2936.4,3561.4 h 368 v 1440 h -368 z"
             style="fill:#7e7fff;fill-opacity:1;fill-rule:nonzero;stroke:none"
             id="path88" /><path
             d="m 2936.4,3561.4 h 368 v 1440 h -368 z"
             style="fill:none;stroke:#ffffff;stroke-width:7.5;stroke-linecap:round;stroke-linejoin:round;stroke-miterlimit:10;stroke-dasharray:none;stroke-opacity:1"
             id="path90" /><path
             d="m 3304.4,3561.4 h 368 v 480 h -368 z"
             style="fill:#7e7fff;fill-opacity:1;fill-rule:nonzero;stroke:none"
             id="path92" /><path
             d="m 3304.4,3561.4 h 368 v 480 h -368 z"
             style="fill:none;stroke:#ffffff;stroke-width:7.5;stroke-linecap:round;stroke-linejoin:round;stroke-miterlimit:10;stroke-dasharray:none;stroke-opacity:1"
             id="path94" /><path
             d="m 3672.4,3561.4 h 368 v 160 h -368 z"
             style="fill:#7e7fff;fill-opacity:1;fill-rule:nonzero;stroke:none"
             id="path96" /><path
             d="m 3672.4,3561.4 h 368 v 160 h -368 z"
             style="fill:none;stroke:#ffffff;stroke-width:7.5;stroke-linecap:round;stroke-linejoin:round;stroke-miterlimit:10;stroke-dasharray:none;stroke-opacity:1"
             id="path98" /></g></g></g></g></svg>
