<?xml version="1.0" encoding="UTF-8" standalone="no"?>
<svg
   xmlns:dc="http://purl.org/dc/elements/1.1/"
   xmlns:cc="http://creativecommons.org/ns#"
   xmlns:rdf="http://www.w3.org/1999/02/22-rdf-syntax-ns#"
   xmlns:svg="http://www.w3.org/2000/svg"
   xmlns="http://www.w3.org/2000/svg"
   viewBox="0 0 1000 400"
   height="400"
   width="1000"
   xml:space="preserve"
   id="svg2"
   version="1.1"><metadata
     id="metadata8"><rdf:RDF><cc:Work
         rdf:about=""><dc:format>image/svg+xml</dc:format><dc:type
           rdf:resource="http://purl.org/dc/dcmitype/StillImage" /><dc:title></dc:title></cc:Work></rdf:RDF></metadata><defs
     id="defs6"><clipPath
       id="clipPath22"
       clipPathUnits="userSpaceOnUse"><path
         id="path20"
         d="m 1356.4,2589.4 h 3240 v 3240 h -3240 z" /></clipPath><clipPath
       id="clipPath40"
       clipPathUnits="userSpaceOnUse"><path
         id="path38"
         d="M 1946.8,3323.8 H 4294 V 5239 H 1946.8 Z" /></clipPath><clipPath
       id="clipPath120"
       clipPathUnits="userSpaceOnUse"><path
         id="path118"
         d="m 1356.4,2589.4 h 3240 v 3240 h -3240 z" /></clipPath><clipPath
       id="clipPath146"
       clipPathUnits="userSpaceOnUse"><path
         id="path144"
         d="M 1946.8,3323.8 H 4294 V 5239 H 1946.8 Z" /></clipPath><clipPath
       clipPathUnits="userSpaceOnUse"
       id="clipPath993"><path
         d="m 1356.4,2589.4 h 3240 v 3240 h -3240 z"
         id="path991" /></clipPath><clipPath
       clipPathUnits="userSpaceOnUse"
       id="clipPath1011"><path
         d="M 1946.8,3323.8 H 4294 V 5239 H 1946.8 Z"
         id="path1009" /></clipPath><clipPath
       clipPathUnits="userSpaceOnUse"
       id="clipPath1091"><path
         d="m 1356.4,2589.4 h 3240 v 3240 h -3240 z"
         id="path1089" /></clipPath><clipPath
       clipPathUnits="userSpaceOnUse"
       id="clipPath1117"><path
         d="M 1946.8,3323.8 H 4294 V 5239 H 1946.8 Z"
         id="path1115" /></clipPath><clipPath
       clipPathUnits="userSpaceOnUse"
       id="clipPath1702"><path
         d="m 1356.4,2589.4 h 3240 v 3240 h -3240 z"
         id="path1700" /></clipPath><clipPath
       clipPathUnits="userSpaceOnUse"
       id="clipPath1720"><path
         d="M 1946.8,3323.8 H 4294 V 5239 H 1946.8 Z"
         id="path1718" /></clipPath><clipPath
       clipPathUnits="userSpaceOnUse"
       id="clipPath1800"><path
         d="m 1356.4,2589.4 h 3240 v 3240 h -3240 z"
         id="path1798" /></clipPath><clipPath
       clipPathUnits="userSpaceOnUse"
       id="clipPath1826"><path
         d="M 1946.8,3323.8 H 4294 V 5239 H 1946.8 Z"
         id="path1824" /></clipPath></defs><g
     transform="matrix(1.3333333,0,0,-1.3333333,0,1056)"
     id="g10"><g
       transform="translate(-7.4999998,7.4999996)"
       id="g3384"><g
         id="g2528"
         transform="translate(-179.68,216.20702)"><g
           transform="scale(0.1)"
           id="g16"><g
             id="g18"
             clip-path="url(#clipPath22)"><g
               id="g24"
               transform="scale(10)"><text
                 transform="matrix(1,0,0,-1,242.6,546.6)"
                 style="font-variant:normal;font-weight:normal;font-size:19px;font-family:Helvetica;-inkscape-font-specification:Helvetica;writing-mode:lr-tb;fill:#000000;fill-opacity:1;fill-rule:nonzero;stroke:none"
                 id="text28"><tspan
                   x="0 12.673 23.237 39.063999 49.627998 53.846001 64.410004 69.692001 82.364998 86.583 95.798042 106.36204 111.64404 122.74004 128.02203"
                   y="0"
                   id="tspan26">Sample Size = 1</tspan></text><text
                 transform="matrix(1,0,0,-1,280.473,277.66)"
                 style="font-variant:normal;font-weight:normal;font-size:16px;font-family:Helvetica;-inkscape-font-specification:Helvetica;writing-mode:lr-tb;fill:#000000;fill-opacity:1;fill-rule:nonzero;stroke:none"
                 id="text32"><tspan
                   x="0 4.448 16.896 21.344 32.015999 40.015999 48.911999 54.240002"
                   y="0"
                   id="tspan30">IQ Score</tspan></text></g></g></g><g
           transform="scale(0.1)"
           id="g34"><g
             id="g36"
             clip-path="url(#clipPath40)"><path
               d="m 1897.9,3394.8 h 135.801 v 13.1992 H 1897.9 Z"
               style="fill:#7e7fff;fill-opacity:1;fill-rule:nonzero;stroke:none"
               id="path42" /><path
               d="m 1897.9,3394.8 h 135.801 v 13.1992 H 1897.9 Z"
               style="fill:none;stroke:#ffffff;stroke-width:7.5;stroke-linecap:round;stroke-linejoin:round;stroke-miterlimit:10;stroke-dasharray:none;stroke-opacity:1"
               id="path44" /><path
               d="m 2033.7,3394.8 h 135.801 v 29.8984 H 2033.7 Z"
               style="fill:#7e7fff;fill-opacity:1;fill-rule:nonzero;stroke:none"
               id="path46" /><path
               d="m 2033.7,3394.8 h 135.801 v 29.8984 H 2033.7 Z"
               style="fill:none;stroke:#ffffff;stroke-width:7.5;stroke-linecap:round;stroke-linejoin:round;stroke-miterlimit:10;stroke-dasharray:none;stroke-opacity:1"
               id="path48" /><path
               d="m 2169.5,3394.8 h 135.801 v 61.3008 H 2169.5 Z"
               style="fill:#7e7fff;fill-opacity:1;fill-rule:nonzero;stroke:none"
               id="path50" /><path
               d="m 2169.5,3394.8 h 135.801 v 61.3008 H 2169.5 Z"
               style="fill:none;stroke:#ffffff;stroke-width:7.5;stroke-linecap:round;stroke-linejoin:round;stroke-miterlimit:10;stroke-dasharray:none;stroke-opacity:1"
               id="path52" /><path
               d="m 2305.4,3394.8 h 135.801 v 113 H 2305.4 Z"
               style="fill:#7e7fff;fill-opacity:1;fill-rule:nonzero;stroke:none"
               id="path54" /><path
               d="m 2305.4,3394.8 h 135.801 v 113 H 2305.4 Z"
               style="fill:none;stroke:#ffffff;stroke-width:7.5;stroke-linecap:round;stroke-linejoin:round;stroke-miterlimit:10;stroke-dasharray:none;stroke-opacity:1"
               id="path56" /><path
               d="m 2441.2,3394.8 h 135.801 v 226 H 2441.2 Z"
               style="fill:#7e7fff;fill-opacity:1;fill-rule:nonzero;stroke:none"
               id="path58" /><path
               d="m 2441.2,3394.8 h 135.801 v 226 H 2441.2 Z"
               style="fill:none;stroke:#ffffff;stroke-width:7.5;stroke-linecap:round;stroke-linejoin:round;stroke-miterlimit:10;stroke-dasharray:none;stroke-opacity:1"
               id="path60" /><path
               d="m 2577,3394.8 h 135.801 v 347.098 H 2577 Z"
               style="fill:#7e7fff;fill-opacity:1;fill-rule:nonzero;stroke:none"
               id="path62" /><path
               d="m 2577,3394.8 h 135.801 v 347.098 H 2577 Z"
               style="fill:none;stroke:#ffffff;stroke-width:7.5;stroke-linecap:round;stroke-linejoin:round;stroke-miterlimit:10;stroke-dasharray:none;stroke-opacity:1"
               id="path64" /><path
               d="m 2712.9,3394.8 h 135.801 v 494.5 H 2712.9 Z"
               style="fill:#7e7fff;fill-opacity:1;fill-rule:nonzero;stroke:none"
               id="path66" /><path
               d="m 2712.9,3394.8 h 135.801 v 494.5 H 2712.9 Z"
               style="fill:none;stroke:#ffffff;stroke-width:7.5;stroke-linecap:round;stroke-linejoin:round;stroke-miterlimit:10;stroke-dasharray:none;stroke-opacity:1"
               id="path68" /><path
               d="m 2848.7,3394.8 h 135.801 v 610 H 2848.7 Z"
               style="fill:#7e7fff;fill-opacity:1;fill-rule:nonzero;stroke:none"
               id="path70" /><path
               d="m 2848.7,3394.8 h 135.801 v 610 H 2848.7 Z"
               style="fill:none;stroke:#ffffff;stroke-width:7.5;stroke-linecap:round;stroke-linejoin:round;stroke-miterlimit:10;stroke-dasharray:none;stroke-opacity:1"
               id="path72" /><path
               d="m 2984.5,3394.8 h 135.801 v 669.801 H 2984.5 Z"
               style="fill:#7e7fff;fill-opacity:1;fill-rule:nonzero;stroke:none"
               id="path74" /><path
               d="m 2984.5,3394.8 h 135.801 v 669.801 H 2984.5 Z"
               style="fill:none;stroke:#ffffff;stroke-width:7.5;stroke-linecap:round;stroke-linejoin:round;stroke-miterlimit:10;stroke-dasharray:none;stroke-opacity:1"
               id="path76" /><path
               d="m 3120.4,3394.8 h 135.801 v 672.301 H 3120.4 Z"
               style="fill:#7e7fff;fill-opacity:1;fill-rule:nonzero;stroke:none"
               id="path78" /><path
               d="m 3120.4,3394.8 h 135.801 v 672.301 H 3120.4 Z"
               style="fill:none;stroke:#ffffff;stroke-width:7.5;stroke-linecap:round;stroke-linejoin:round;stroke-miterlimit:10;stroke-dasharray:none;stroke-opacity:1"
               id="path80" /><path
               d="m 3256.2,3394.8 h 135.801 v 562.898 H 3256.2 Z"
               style="fill:#7e7fff;fill-opacity:1;fill-rule:nonzero;stroke:none"
               id="path82" /><path
               d="m 3256.2,3394.8 h 135.801 v 562.898 H 3256.2 Z"
               style="fill:none;stroke:#ffffff;stroke-width:7.5;stroke-linecap:round;stroke-linejoin:round;stroke-miterlimit:10;stroke-dasharray:none;stroke-opacity:1"
               id="path84" /><path
               d="m 3392,3394.8 h 135.801 v 460.598 H 3392 Z"
               style="fill:#7e7fff;fill-opacity:1;fill-rule:nonzero;stroke:none"
               id="path86" /><path
               d="m 3392,3394.8 h 135.801 v 460.598 H 3392 Z"
               style="fill:none;stroke:#ffffff;stroke-width:7.5;stroke-linecap:round;stroke-linejoin:round;stroke-miterlimit:10;stroke-dasharray:none;stroke-opacity:1"
               id="path88" /><path
               d="m 3527.9,3394.8 h 135.801 v 352.598 H 3527.9 Z"
               style="fill:#7e7fff;fill-opacity:1;fill-rule:nonzero;stroke:none"
               id="path90" /><path
               d="m 3527.9,3394.8 h 135.801 v 352.598 H 3527.9 Z"
               style="fill:none;stroke:#ffffff;stroke-width:7.5;stroke-linecap:round;stroke-linejoin:round;stroke-miterlimit:10;stroke-dasharray:none;stroke-opacity:1"
               id="path92" /><path
               d="m 3663.7,3394.8 h 135.801 v 216.898 H 3663.7 Z"
               style="fill:#7e7fff;fill-opacity:1;fill-rule:nonzero;stroke:none"
               id="path94" /><path
               d="m 3663.7,3394.8 h 135.801 v 216.898 H 3663.7 Z"
               style="fill:none;stroke:#ffffff;stroke-width:7.5;stroke-linecap:round;stroke-linejoin:round;stroke-miterlimit:10;stroke-dasharray:none;stroke-opacity:1"
               id="path96" /><path
               d="m 3799.5,3394.8 h 135.801 v 125.098 H 3799.5 Z"
               style="fill:#7e7fff;fill-opacity:1;fill-rule:nonzero;stroke:none"
               id="path98" /><path
               d="m 3799.5,3394.8 h 135.801 v 125.098 H 3799.5 Z"
               style="fill:none;stroke:#ffffff;stroke-width:7.5;stroke-linecap:round;stroke-linejoin:round;stroke-miterlimit:10;stroke-dasharray:none;stroke-opacity:1"
               id="path100" /><path
               d="m 3935.4,3394.8 h 135.801 v 60.3008 H 3935.4 Z"
               style="fill:#7e7fff;fill-opacity:1;fill-rule:nonzero;stroke:none"
               id="path102" /><path
               d="m 3935.4,3394.8 h 135.801 v 60.3008 H 3935.4 Z"
               style="fill:none;stroke:#ffffff;stroke-width:7.5;stroke-linecap:round;stroke-linejoin:round;stroke-miterlimit:10;stroke-dasharray:none;stroke-opacity:1"
               id="path104" /><path
               d="m 4071.2,3394.8 h 135.801 v 28.8984 H 4071.2 Z"
               style="fill:#7e7fff;fill-opacity:1;fill-rule:nonzero;stroke:none"
               id="path106" /><path
               d="m 4071.2,3394.8 h 135.801 v 28.8984 H 4071.2 Z"
               style="fill:none;stroke:#ffffff;stroke-width:7.5;stroke-linecap:round;stroke-linejoin:round;stroke-miterlimit:10;stroke-dasharray:none;stroke-opacity:1"
               id="path108" /><path
               d="m 4207,3394.8 h 135.801 v 10.5977 H 4207 Z"
               style="fill:#7e7fff;fill-opacity:1;fill-rule:nonzero;stroke:none"
               id="path110" /><path
               d="m 4207,3394.8 h 135.801 v 10.5977 H 4207 Z"
               style="fill:none;stroke:#ffffff;stroke-width:7.5;stroke-linecap:round;stroke-linejoin:round;stroke-miterlimit:10;stroke-dasharray:none;stroke-opacity:1"
               id="path112" /></g></g><g
           transform="scale(0.1)"
           id="g114"><g
             id="g116"
             clip-path="url(#clipPath120)"><path
               d="M 2033.7,3323.8 H 4207"
               style="fill:none;stroke:#000000;stroke-width:7.5;stroke-linecap:round;stroke-linejoin:round;stroke-miterlimit:10;stroke-dasharray:none;stroke-opacity:1"
               id="path122" /><path
               d="m 2033.7,3323.8 v -72"
               style="fill:none;stroke:#000000;stroke-width:7.5;stroke-linecap:round;stroke-linejoin:round;stroke-miterlimit:10;stroke-dasharray:none;stroke-opacity:1"
               id="path124" /><path
               d="m 2577,3323.8 v -72"
               style="fill:none;stroke:#000000;stroke-width:7.5;stroke-linecap:round;stroke-linejoin:round;stroke-miterlimit:10;stroke-dasharray:none;stroke-opacity:1"
               id="path126" /><path
               d="m 3120.4,3323.8 v -72"
               style="fill:none;stroke:#000000;stroke-width:7.5;stroke-linecap:round;stroke-linejoin:round;stroke-miterlimit:10;stroke-dasharray:none;stroke-opacity:1"
               id="path128" /><path
               d="m 3663.7,3323.8 v -72"
               style="fill:none;stroke:#000000;stroke-width:7.5;stroke-linecap:round;stroke-linejoin:round;stroke-miterlimit:10;stroke-dasharray:none;stroke-opacity:1"
               id="path130" /><path
               d="m 4207,3323.8 v -72"
               style="fill:none;stroke:#000000;stroke-width:7.5;stroke-linecap:round;stroke-linejoin:round;stroke-miterlimit:10;stroke-dasharray:none;stroke-opacity:1"
               id="path132" /><g
               id="g134"
               transform="scale(10)"><text
                 transform="matrix(1,0,0,-1,194.474,306.46)"
                 style="font-variant:normal;font-weight:normal;font-size:16px;font-family:Helvetica;-inkscape-font-specification:Helvetica;writing-mode:lr-tb;fill:#000000;fill-opacity:1;fill-rule:nonzero;stroke:none"
                 id="text138"><tspan
                   x="0 8.8959999 54.330078 63.226082 104.22224 113.11824 122.01424 158.55232 167.44832 176.34431 212.8824 221.7784 230.67439"
                   y="0"
                   id="tspan136">6080100120140</tspan></text></g></g></g><g
           transform="scale(0.1)"
           id="g140"><g
             id="g142"
             clip-path="url(#clipPath146)"><path
               d="m 2033.7,3414 27.2,3.7 27.1,4.3 27.2,4.9 27.2,5.7 27.1,6.5 27.2,7.3 27.2,8.3 27.1,9.3 27.2,10.4 27.2,11.6 27.1,12.7 27.2,14.1 27.2,15.3 27.1,16.7 27.2,18 27.2,19.3 27.1,20.6 27.2,21.9 27.2,23.1 27.1,24.1 27.2,25.1 27.2,25.8 27.1,26.6 27.2,26.9 27.2,27.2 27.1,27.2 27.2,27 27.2,26.4 27.1,25.7 27.2,24.6 27.2,23.3 27.1,21.6 27.2,19.8 27.2,17.7 27.1,15.4 27.2,12.9 27.2,10.2 27.1,7.4 27.2,4.5 27.2,1.5 27.1,-1.5 27.2,-4.5 27.2,-7.4 27.1,-10.2 27.2,-12.9 27.2,-15.4 27.1,-17.7 27.2,-19.8 27.2,-21.6 27.1,-23.3 27.2,-24.6 27.2,-25.7 27.1,-26.4 27.2,-27 27.2,-27.2 27.1,-27.2 27.2,-26.9 27.2,-26.6 27.1,-25.8 27.2,-25.1 27.2,-24.1 27.1,-23.1 27.2,-21.9 27.2,-20.6 27.1,-19.3 27.2,-18 27.2,-16.7 27.1,-15.3 27.2,-14.1 27.2,-12.7 27.1,-11.6 27.2,-10.4 27.2,-9.3 27.1,-8.3 27.2,-7.3 27.2,-6.5 27.1,-5.7 27.2,-4.9 27.2,-4.3 27.1,-3.7"
               style="fill:none;stroke:#000000;stroke-width:15;stroke-linecap:round;stroke-linejoin:round;stroke-miterlimit:10;stroke-dasharray:none;stroke-opacity:1"
               id="path148" /></g></g></g><g
         id="g2649"
         transform="translate(67.820007,216.20702)"><g
           id="g987"
           transform="scale(0.1)"><g
             clip-path="url(#clipPath993)"
             id="g989"><g
               transform="scale(10)"
               id="g995"><text
                 id="text999"
                 style="font-variant:normal;font-weight:normal;font-size:19px;font-family:Helvetica;-inkscape-font-specification:Helvetica;writing-mode:lr-tb;fill:#000000;fill-opacity:1;fill-rule:nonzero;stroke:none"
                 transform="matrix(1,0,0,-1,242.6,546.6)"><tspan
                   id="tspan997"
                   y="0"
                   x="0 12.673 23.237 39.063999 49.627998 53.846001 64.410004 69.692001 82.364998 86.583 95.798042 106.36204 111.64404 122.74004 128.02203">Sample Size = 2</tspan></text><text
                 id="text1003"
                 style="font-variant:normal;font-weight:normal;font-size:16px;font-family:Helvetica;-inkscape-font-specification:Helvetica;writing-mode:lr-tb;fill:#000000;fill-opacity:1;fill-rule:nonzero;stroke:none"
                 transform="matrix(1,0,0,-1,280.473,277.66)"><tspan
                   id="tspan1001"
                   y="0"
                   x="0 4.448 16.896 21.344 32.015999 40.015999 48.911999 54.240002">IQ Score</tspan></text></g></g></g><g
           id="g1005"
           transform="scale(0.1)"><g
             clip-path="url(#clipPath1011)"
             id="g1007"><path
               id="path1013"
               style="fill:#7e7fff;fill-opacity:1;fill-rule:nonzero;stroke:none"
               d="m 1897.9,3394.8 v 0 h 135.8 v 0 z" /><path
               id="path1015"
               style="fill:none;stroke:#ffffff;stroke-width:7.5;stroke-linecap:round;stroke-linejoin:round;stroke-miterlimit:10;stroke-dasharray:none;stroke-opacity:1"
               d="m 1897.9,3394.8 v 0 h 135.8 v 0 z" /><path
               id="path1017"
               style="fill:#7e7fff;fill-opacity:1;fill-rule:nonzero;stroke:none"
               d="m 2033.7,3394.8 v 0 h 135.8 v 0 z" /><path
               id="path1019"
               style="fill:none;stroke:#ffffff;stroke-width:7.5;stroke-linecap:round;stroke-linejoin:round;stroke-miterlimit:10;stroke-dasharray:none;stroke-opacity:1"
               d="m 2033.7,3394.8 v 0 h 135.8 v 0 z" /><path
               id="path1021"
               style="fill:#7e7fff;fill-opacity:1;fill-rule:nonzero;stroke:none"
               d="m 2169.5,3394.8 h 135.801 v 10.0977 H 2169.5 Z" /><path
               id="path1023"
               style="fill:none;stroke:#ffffff;stroke-width:7.5;stroke-linecap:round;stroke-linejoin:round;stroke-miterlimit:10;stroke-dasharray:none;stroke-opacity:1"
               d="m 2169.5,3394.8 h 135.801 v 10.0977 H 2169.5 Z" /><path
               id="path1025"
               style="fill:#7e7fff;fill-opacity:1;fill-rule:nonzero;stroke:none"
               d="m 2305.4,3394.8 h 135.801 v 25.3008 H 2305.4 Z" /><path
               id="path1027"
               style="fill:none;stroke:#ffffff;stroke-width:7.5;stroke-linecap:round;stroke-linejoin:round;stroke-miterlimit:10;stroke-dasharray:none;stroke-opacity:1"
               d="m 2305.4,3394.8 h 135.801 v 25.3008 H 2305.4 Z" /><path
               id="path1029"
               style="fill:#7e7fff;fill-opacity:1;fill-rule:nonzero;stroke:none"
               d="m 2441.2,3394.8 h 135.801 v 81.0977 H 2441.2 Z" /><path
               id="path1031"
               style="fill:none;stroke:#ffffff;stroke-width:7.5;stroke-linecap:round;stroke-linejoin:round;stroke-miterlimit:10;stroke-dasharray:none;stroke-opacity:1"
               d="m 2441.2,3394.8 h 135.801 v 81.0977 H 2441.2 Z" /><path
               id="path1033"
               style="fill:#7e7fff;fill-opacity:1;fill-rule:nonzero;stroke:none"
               d="m 2577,3394.8 h 135.801 v 222.898 H 2577 Z" /><path
               id="path1035"
               style="fill:none;stroke:#ffffff;stroke-width:7.5;stroke-linecap:round;stroke-linejoin:round;stroke-miterlimit:10;stroke-dasharray:none;stroke-opacity:1"
               d="m 2577,3394.8 h 135.801 v 222.898 H 2577 Z" /><path
               id="path1037"
               style="fill:#7e7fff;fill-opacity:1;fill-rule:nonzero;stroke:none"
               d="m 2712.9,3394.8 h 135.801 v 506.699 H 2712.9 Z" /><path
               id="path1039"
               style="fill:none;stroke:#ffffff;stroke-width:7.5;stroke-linecap:round;stroke-linejoin:round;stroke-miterlimit:10;stroke-dasharray:none;stroke-opacity:1"
               d="m 2712.9,3394.8 h 135.801 v 506.699 H 2712.9 Z" /><path
               id="path1041"
               style="fill:#7e7fff;fill-opacity:1;fill-rule:nonzero;stroke:none"
               d="m 2848.7,3394.8 h 135.801 v 800.5 H 2848.7 Z" /><path
               id="path1043"
               style="fill:none;stroke:#ffffff;stroke-width:7.5;stroke-linecap:round;stroke-linejoin:round;stroke-miterlimit:10;stroke-dasharray:none;stroke-opacity:1"
               d="m 2848.7,3394.8 h 135.801 v 800.5 H 2848.7 Z" /><path
               id="path1045"
               style="fill:#7e7fff;fill-opacity:1;fill-rule:nonzero;stroke:none"
               d="m 2984.5,3394.8 h 135.801 v 906.898 H 2984.5 Z" /><path
               id="path1047"
               style="fill:none;stroke:#ffffff;stroke-width:7.5;stroke-linecap:round;stroke-linejoin:round;stroke-miterlimit:10;stroke-dasharray:none;stroke-opacity:1"
               d="m 2984.5,3394.8 h 135.801 v 906.898 H 2984.5 Z" /><path
               id="path1049"
               style="fill:#7e7fff;fill-opacity:1;fill-rule:nonzero;stroke:none"
               d="m 3120.4,3394.8 h 135.801 v 932.301 H 3120.4 Z" /><path
               id="path1051"
               style="fill:none;stroke:#ffffff;stroke-width:7.5;stroke-linecap:round;stroke-linejoin:round;stroke-miterlimit:10;stroke-dasharray:none;stroke-opacity:1"
               d="m 3120.4,3394.8 h 135.801 v 932.301 H 3120.4 Z" /><path
               id="path1053"
               style="fill:#7e7fff;fill-opacity:1;fill-rule:nonzero;stroke:none"
               d="m 3256.2,3394.8 h 135.801 v 714.398 H 3256.2 Z" /><path
               id="path1055"
               style="fill:none;stroke:#ffffff;stroke-width:7.5;stroke-linecap:round;stroke-linejoin:round;stroke-miterlimit:10;stroke-dasharray:none;stroke-opacity:1"
               d="m 3256.2,3394.8 h 135.801 v 714.398 H 3256.2 Z" /><path
               id="path1057"
               style="fill:#7e7fff;fill-opacity:1;fill-rule:nonzero;stroke:none"
               d="m 3392,3394.8 h 135.801 v 435.699 H 3392 Z" /><path
               id="path1059"
               style="fill:none;stroke:#ffffff;stroke-width:7.5;stroke-linecap:round;stroke-linejoin:round;stroke-miterlimit:10;stroke-dasharray:none;stroke-opacity:1"
               d="m 3392,3394.8 h 135.801 v 435.699 H 3392 Z" /><path
               id="path1061"
               style="fill:#7e7fff;fill-opacity:1;fill-rule:nonzero;stroke:none"
               d="m 3527.9,3394.8 h 135.801 v 288.801 H 3527.9 Z" /><path
               id="path1063"
               style="fill:none;stroke:#ffffff;stroke-width:7.5;stroke-linecap:round;stroke-linejoin:round;stroke-miterlimit:10;stroke-dasharray:none;stroke-opacity:1"
               d="m 3527.9,3394.8 h 135.801 v 288.801 H 3527.9 Z" /><path
               id="path1065"
               style="fill:#7e7fff;fill-opacity:1;fill-rule:nonzero;stroke:none"
               d="m 3663.7,3394.8 h 135.801 v 81.0977 H 3663.7 Z" /><path
               id="path1067"
               style="fill:none;stroke:#ffffff;stroke-width:7.5;stroke-linecap:round;stroke-linejoin:round;stroke-miterlimit:10;stroke-dasharray:none;stroke-opacity:1"
               d="m 3663.7,3394.8 h 135.801 v 81.0977 H 3663.7 Z" /><path
               id="path1069"
               style="fill:#7e7fff;fill-opacity:1;fill-rule:nonzero;stroke:none"
               d="m 3799.5,3394.8 h 135.801 v 45.5977 H 3799.5 Z" /><path
               id="path1071"
               style="fill:none;stroke:#ffffff;stroke-width:7.5;stroke-linecap:round;stroke-linejoin:round;stroke-miterlimit:10;stroke-dasharray:none;stroke-opacity:1"
               d="m 3799.5,3394.8 h 135.801 v 45.5977 H 3799.5 Z" /><path
               id="path1073"
               style="fill:#7e7fff;fill-opacity:1;fill-rule:nonzero;stroke:none"
               d="m 3935.4,3394.8 h 135.801 v 10.0977 H 3935.4 Z" /><path
               id="path1075"
               style="fill:none;stroke:#ffffff;stroke-width:7.5;stroke-linecap:round;stroke-linejoin:round;stroke-miterlimit:10;stroke-dasharray:none;stroke-opacity:1"
               d="m 3935.4,3394.8 h 135.801 v 10.0977 H 3935.4 Z" /><path
               id="path1077"
               style="fill:#7e7fff;fill-opacity:1;fill-rule:nonzero;stroke:none"
               d="m 4071.2,3394.8 h 135.801 v 5.0977 H 4071.2 Z" /><path
               id="path1079"
               style="fill:none;stroke:#ffffff;stroke-width:7.5;stroke-linecap:round;stroke-linejoin:round;stroke-miterlimit:10;stroke-dasharray:none;stroke-opacity:1"
               d="m 4071.2,3394.8 h 135.801 v 5.0977 H 4071.2 Z" /><path
               id="path1081"
               style="fill:#7e7fff;fill-opacity:1;fill-rule:nonzero;stroke:none"
               d="m 4207,3394.8 v 0 h 135.8 v 0 z" /><path
               id="path1083"
               style="fill:none;stroke:#ffffff;stroke-width:7.5;stroke-linecap:round;stroke-linejoin:round;stroke-miterlimit:10;stroke-dasharray:none;stroke-opacity:1"
               d="m 4207,3394.8 v 0 h 135.8 v 0 z" /></g></g><g
           id="g1085"
           transform="scale(0.1)"><g
             clip-path="url(#clipPath1091)"
             id="g1087"><path
               id="path1093"
               style="fill:none;stroke:#000000;stroke-width:7.5;stroke-linecap:round;stroke-linejoin:round;stroke-miterlimit:10;stroke-dasharray:none;stroke-opacity:1"
               d="M 2033.7,3323.8 H 4207" /><path
               id="path1095"
               style="fill:none;stroke:#000000;stroke-width:7.5;stroke-linecap:round;stroke-linejoin:round;stroke-miterlimit:10;stroke-dasharray:none;stroke-opacity:1"
               d="m 2033.7,3323.8 v -72" /><path
               id="path1097"
               style="fill:none;stroke:#000000;stroke-width:7.5;stroke-linecap:round;stroke-linejoin:round;stroke-miterlimit:10;stroke-dasharray:none;stroke-opacity:1"
               d="m 2577,3323.8 v -72" /><path
               id="path1099"
               style="fill:none;stroke:#000000;stroke-width:7.5;stroke-linecap:round;stroke-linejoin:round;stroke-miterlimit:10;stroke-dasharray:none;stroke-opacity:1"
               d="m 3120.4,3323.8 v -72" /><path
               id="path1101"
               style="fill:none;stroke:#000000;stroke-width:7.5;stroke-linecap:round;stroke-linejoin:round;stroke-miterlimit:10;stroke-dasharray:none;stroke-opacity:1"
               d="m 3663.7,3323.8 v -72" /><path
               id="path1103"
               style="fill:none;stroke:#000000;stroke-width:7.5;stroke-linecap:round;stroke-linejoin:round;stroke-miterlimit:10;stroke-dasharray:none;stroke-opacity:1"
               d="m 4207,3323.8 v -72" /><g
               transform="scale(10)"
               id="g1105"><text
                 id="text1109"
                 style="font-variant:normal;font-weight:normal;font-size:16px;font-family:Helvetica;-inkscape-font-specification:Helvetica;writing-mode:lr-tb;fill:#000000;fill-opacity:1;fill-rule:nonzero;stroke:none"
                 transform="matrix(1,0,0,-1,194.474,306.46)"><tspan
                   id="tspan1107"
                   y="0"
                   x="0 8.8959999 54.330078 63.226082 104.22224 113.11824 122.01424 158.55232 167.44832 176.34431 212.8824 221.7784 230.67439">6080100120140</tspan></text></g></g></g><g
           id="g1111"
           transform="scale(0.1)"><g
             clip-path="url(#clipPath1117)"
             id="g1113"><path
               id="path1119"
               style="fill:none;stroke:#000000;stroke-width:15;stroke-linecap:round;stroke-linejoin:round;stroke-miterlimit:10;stroke-dasharray:none;stroke-opacity:1"
               d="m 2033.7,3414 27.2,3.7 27.1,4.3 27.2,4.9 27.2,5.7 27.1,6.5 27.2,7.3 27.2,8.3 27.1,9.3 27.2,10.4 27.2,11.6 27.1,12.7 27.2,14.1 27.2,15.3 27.1,16.7 27.2,18 27.2,19.3 27.1,20.6 27.2,21.9 27.2,23.1 27.1,24.1 27.2,25.1 27.2,25.8 27.1,26.6 27.2,26.9 27.2,27.2 27.1,27.2 27.2,27 27.2,26.4 27.1,25.7 27.2,24.6 27.2,23.3 27.1,21.6 27.2,19.8 27.2,17.7 27.1,15.4 27.2,12.9 27.2,10.2 27.1,7.4 27.2,4.5 27.2,1.5 27.1,-1.5 27.2,-4.5 27.2,-7.4 27.1,-10.2 27.2,-12.9 27.2,-15.4 27.1,-17.7 27.2,-19.8 27.2,-21.6 27.1,-23.3 27.2,-24.6 27.2,-25.7 27.1,-26.4 27.2,-27 27.2,-27.2 27.1,-27.2 27.2,-26.9 27.2,-26.6 27.1,-25.8 27.2,-25.1 27.2,-24.1 27.1,-23.1 27.2,-21.9 27.2,-20.6 27.1,-19.3 27.2,-18 27.2,-16.7 27.1,-15.3 27.2,-14.1 27.2,-12.7 27.1,-11.6 27.2,-10.4 27.2,-9.3 27.1,-8.3 27.2,-7.3 27.2,-6.5 27.1,-5.7 27.2,-4.9 27.2,-4.3 27.1,-3.7" /></g></g></g><g
         id="g2986"
         transform="translate(315.32001,216.20702)"><g
           id="g1696"
           transform="scale(0.1)"><g
             clip-path="url(#clipPath1702)"
             id="g1698"><g
               transform="scale(10)"
               id="g1704"><text
                 id="text1708"
                 style="font-variant:normal;font-weight:normal;font-size:19px;font-family:Helvetica;-inkscape-font-specification:Helvetica;writing-mode:lr-tb;fill:#000000;fill-opacity:1;fill-rule:nonzero;stroke:none"
                 transform="matrix(1,0,0,-1,237.32,546.6)"><tspan
                   id="tspan1706"
                   y="0"
                   x="0 12.673 23.237 39.063999 49.627998 53.846001 64.410004 69.692001 82.364998 86.583 95.798042 106.36204 111.64404 122.74004 128.02203 138.58604">Sample Size = 10</tspan></text><text
                 id="text1712"
                 style="font-variant:normal;font-weight:normal;font-size:16px;font-family:Helvetica;-inkscape-font-specification:Helvetica;writing-mode:lr-tb;fill:#000000;fill-opacity:1;fill-rule:nonzero;stroke:none"
                 transform="matrix(1,0,0,-1,280.4731,277.66)"><tspan
                   id="tspan1710"
                   y="0"
                   x="0 4.448 16.896 21.344 32.015999 40.015999 48.911999 54.240002">IQ Score</tspan></text></g></g></g><g
           id="g1714"
           transform="scale(0.1)"><g
             clip-path="url(#clipPath1720)"
             id="g1716"><path
               id="path1722"
               style="fill:#7e7fff;fill-opacity:1;fill-rule:nonzero;stroke:none"
               d="m 1897.9,3394.8 v 0 h 135.8 v 0 z" /><path
               id="path1724"
               style="fill:none;stroke:#ffffff;stroke-width:7.5;stroke-linecap:round;stroke-linejoin:round;stroke-miterlimit:10;stroke-dasharray:none;stroke-opacity:1"
               d="m 1897.9,3394.8 v 0 h 135.8 v 0 z" /><path
               id="path1726"
               style="fill:#7e7fff;fill-opacity:1;fill-rule:nonzero;stroke:none"
               d="m 2033.7,3394.8 v 0 h 135.8 v 0 z" /><path
               id="path1728"
               style="fill:none;stroke:#ffffff;stroke-width:7.5;stroke-linecap:round;stroke-linejoin:round;stroke-miterlimit:10;stroke-dasharray:none;stroke-opacity:1"
               d="m 2033.7,3394.8 v 0 h 135.8 v 0 z" /><path
               id="path1730"
               style="fill:#7e7fff;fill-opacity:1;fill-rule:nonzero;stroke:none"
               d="m 2169.5,3394.8 v 0 h 135.8 v 0 z" /><path
               id="path1732"
               style="fill:none;stroke:#ffffff;stroke-width:7.5;stroke-linecap:round;stroke-linejoin:round;stroke-miterlimit:10;stroke-dasharray:none;stroke-opacity:1"
               d="m 2169.5,3394.8 v 0 h 135.8 v 0 z" /><path
               id="path1734"
               style="fill:#7e7fff;fill-opacity:1;fill-rule:nonzero;stroke:none"
               d="m 2305.4,3394.8 v 0 h 135.8 v 0 z" /><path
               id="path1736"
               style="fill:none;stroke:#ffffff;stroke-width:7.5;stroke-linecap:round;stroke-linejoin:round;stroke-miterlimit:10;stroke-dasharray:none;stroke-opacity:1"
               d="m 2305.4,3394.8 v 0 h 135.8 v 0 z" /><path
               id="path1738"
               style="fill:#7e7fff;fill-opacity:1;fill-rule:nonzero;stroke:none"
               d="m 2441.2,3394.8 v 0 H 2577 v 0 z" /><path
               id="path1740"
               style="fill:none;stroke:#ffffff;stroke-width:7.5;stroke-linecap:round;stroke-linejoin:round;stroke-miterlimit:10;stroke-dasharray:none;stroke-opacity:1"
               d="m 2441.2,3394.8 v 0 H 2577 v 0 z" /><path
               id="path1742"
               style="fill:#7e7fff;fill-opacity:1;fill-rule:nonzero;stroke:none"
               d="m 2577,3394.8 v 0 h 135.8 v 0 z" /><path
               id="path1744"
               style="fill:none;stroke:#ffffff;stroke-width:7.5;stroke-linecap:round;stroke-linejoin:round;stroke-miterlimit:10;stroke-dasharray:none;stroke-opacity:1"
               d="m 2577,3394.8 v 0 h 135.8 v 0 z" /><path
               id="path1746"
               style="fill:#7e7fff;fill-opacity:1;fill-rule:nonzero;stroke:none"
               d="m 2712.9,3394.8 h 135.801 v 70.8984 H 2712.9 Z" /><path
               id="path1748"
               style="fill:none;stroke:#ffffff;stroke-width:7.5;stroke-linecap:round;stroke-linejoin:round;stroke-miterlimit:10;stroke-dasharray:none;stroke-opacity:1"
               d="m 2712.9,3394.8 h 135.801 v 70.8984 H 2712.9 Z" /><path
               id="path1750"
               style="fill:#7e7fff;fill-opacity:1;fill-rule:nonzero;stroke:none"
               d="m 2848.7,3394.8 h 135.801 v 638.398 H 2848.7 Z" /><path
               id="path1752"
               style="fill:none;stroke:#ffffff;stroke-width:7.5;stroke-linecap:round;stroke-linejoin:round;stroke-miterlimit:10;stroke-dasharray:none;stroke-opacity:1"
               d="m 2848.7,3394.8 h 135.801 v 638.398 H 2848.7 Z" /><path
               id="path1754"
               style="fill:#7e7fff;fill-opacity:1;fill-rule:nonzero;stroke:none"
               d="m 2984.5,3394.8 h 135.801 V 5289.7 H 2984.5 Z" /><path
               id="path1756"
               style="fill:none;stroke:#ffffff;stroke-width:7.5;stroke-linecap:round;stroke-linejoin:round;stroke-miterlimit:10;stroke-dasharray:none;stroke-opacity:1"
               d="m 2984.5,3394.8 h 135.801 V 5289.7 H 2984.5 Z" /><path
               id="path1758"
               style="fill:#7e7fff;fill-opacity:1;fill-rule:nonzero;stroke:none"
               d="m 3120.4,3394.8 h 135.801 V 5208.7 H 3120.4 Z" /><path
               id="path1760"
               style="fill:none;stroke:#ffffff;stroke-width:7.5;stroke-linecap:round;stroke-linejoin:round;stroke-miterlimit:10;stroke-dasharray:none;stroke-opacity:1"
               d="m 3120.4,3394.8 h 135.801 V 5208.7 H 3120.4 Z" /><path
               id="path1762"
               style="fill:#7e7fff;fill-opacity:1;fill-rule:nonzero;stroke:none"
               d="m 3256.2,3394.8 h 135.801 v 592.801 H 3256.2 Z" /><path
               id="path1764"
               style="fill:none;stroke:#ffffff;stroke-width:7.5;stroke-linecap:round;stroke-linejoin:round;stroke-miterlimit:10;stroke-dasharray:none;stroke-opacity:1"
               d="m 3256.2,3394.8 h 135.801 v 592.801 H 3256.2 Z" /><path
               id="path1766"
               style="fill:#7e7fff;fill-opacity:1;fill-rule:nonzero;stroke:none"
               d="m 3392,3394.8 h 135.801 v 55.6992 H 3392 Z" /><path
               id="path1768"
               style="fill:none;stroke:#ffffff;stroke-width:7.5;stroke-linecap:round;stroke-linejoin:round;stroke-miterlimit:10;stroke-dasharray:none;stroke-opacity:1"
               d="m 3392,3394.8 h 135.801 v 55.6992 H 3392 Z" /><path
               id="path1770"
               style="fill:#7e7fff;fill-opacity:1;fill-rule:nonzero;stroke:none"
               d="m 3527.9,3394.8 v 0 h 135.8 v 0 z" /><path
               id="path1772"
               style="fill:none;stroke:#ffffff;stroke-width:7.5;stroke-linecap:round;stroke-linejoin:round;stroke-miterlimit:10;stroke-dasharray:none;stroke-opacity:1"
               d="m 3527.9,3394.8 v 0 h 135.8 v 0 z" /><path
               id="path1774"
               style="fill:#7e7fff;fill-opacity:1;fill-rule:nonzero;stroke:none"
               d="m 3663.7,3394.8 v 0 h 135.8 v 0 z" /><path
               id="path1776"
               style="fill:none;stroke:#ffffff;stroke-width:7.5;stroke-linecap:round;stroke-linejoin:round;stroke-miterlimit:10;stroke-dasharray:none;stroke-opacity:1"
               d="m 3663.7,3394.8 v 0 h 135.8 v 0 z" /><path
               id="path1778"
               style="fill:#7e7fff;fill-opacity:1;fill-rule:nonzero;stroke:none"
               d="m 3799.5,3394.8 v 0 h 135.8 v 0 z" /><path
               id="path1780"
               style="fill:none;stroke:#ffffff;stroke-width:7.5;stroke-linecap:round;stroke-linejoin:round;stroke-miterlimit:10;stroke-dasharray:none;stroke-opacity:1"
               d="m 3799.5,3394.8 v 0 h 135.8 v 0 z" /><path
               id="path1782"
               style="fill:#7e7fff;fill-opacity:1;fill-rule:nonzero;stroke:none"
               d="m 3935.4,3394.8 v 0 h 135.8 v 0 z" /><path
               id="path1784"
               style="fill:none;stroke:#ffffff;stroke-width:7.5;stroke-linecap:round;stroke-linejoin:round;stroke-miterlimit:10;stroke-dasharray:none;stroke-opacity:1"
               d="m 3935.4,3394.8 v 0 h 135.8 v 0 z" /><path
               id="path1786"
               style="fill:#7e7fff;fill-opacity:1;fill-rule:nonzero;stroke:none"
               d="m 4071.2,3394.8 v 0 H 4207 v 0 z" /><path
               id="path1788"
               style="fill:none;stroke:#ffffff;stroke-width:7.5;stroke-linecap:round;stroke-linejoin:round;stroke-miterlimit:10;stroke-dasharray:none;stroke-opacity:1"
               d="m 4071.2,3394.8 v 0 H 4207 v 0 z" /><path
               id="path1790"
               style="fill:#7e7fff;fill-opacity:1;fill-rule:nonzero;stroke:none"
               d="m 4207,3394.8 v 0 h 135.8 v 0 z" /><path
               id="path1792"
               style="fill:none;stroke:#ffffff;stroke-width:7.5;stroke-linecap:round;stroke-linejoin:round;stroke-miterlimit:10;stroke-dasharray:none;stroke-opacity:1"
               d="m 4207,3394.8 v 0 h 135.8 v 0 z" /></g></g><g
           id="g1794"
           transform="scale(0.1)"><g
             clip-path="url(#clipPath1800)"
             id="g1796"><path
               id="path1802"
               style="fill:none;stroke:#000000;stroke-width:7.5;stroke-linecap:round;stroke-linejoin:round;stroke-miterlimit:10;stroke-dasharray:none;stroke-opacity:1"
               d="M 2033.7,3323.8 H 4207" /><path
               id="path1804"
               style="fill:none;stroke:#000000;stroke-width:7.5;stroke-linecap:round;stroke-linejoin:round;stroke-miterlimit:10;stroke-dasharray:none;stroke-opacity:1"
               d="m 2033.7,3323.8 v -72" /><path
               id="path1806"
               style="fill:none;stroke:#000000;stroke-width:7.5;stroke-linecap:round;stroke-linejoin:round;stroke-miterlimit:10;stroke-dasharray:none;stroke-opacity:1"
               d="m 2577,3323.8 v -72" /><path
               id="path1808"
               style="fill:none;stroke:#000000;stroke-width:7.5;stroke-linecap:round;stroke-linejoin:round;stroke-miterlimit:10;stroke-dasharray:none;stroke-opacity:1"
               d="m 3120.4,3323.8 v -72" /><path
               id="path1810"
               style="fill:none;stroke:#000000;stroke-width:7.5;stroke-linecap:round;stroke-linejoin:round;stroke-miterlimit:10;stroke-dasharray:none;stroke-opacity:1"
               d="m 3663.7,3323.8 v -72" /><path
               id="path1812"
               style="fill:none;stroke:#000000;stroke-width:7.5;stroke-linecap:round;stroke-linejoin:round;stroke-miterlimit:10;stroke-dasharray:none;stroke-opacity:1"
               d="m 4207,3323.8 v -72" /><g
               transform="scale(10)"
               id="g1814"><text
                 id="text1818"
                 style="font-variant:normal;font-weight:normal;font-size:16px;font-family:Helvetica;-inkscape-font-specification:Helvetica;writing-mode:lr-tb;fill:#000000;fill-opacity:1;fill-rule:nonzero;stroke:none"
                 transform="matrix(1,0,0,-1,194.474,306.46)"><tspan
                   id="tspan1816"
                   y="0"
                   x="0 8.8959999 54.330078 63.226082 104.22224 113.11824 122.01424 158.55232 167.44832 176.34431 212.8824 221.7784 230.67439">6080100120140</tspan></text></g></g></g><g
           id="g1820"
           transform="scale(0.1)"><g
             clip-path="url(#clipPath1826)"
             id="g1822"><path
               id="path1828"
               style="fill:none;stroke:#000000;stroke-width:15;stroke-linecap:round;stroke-linejoin:round;stroke-miterlimit:10;stroke-dasharray:none;stroke-opacity:1"
               d="m 2033.7,3414 27.2,3.7 27.1,4.3 27.2,4.9 27.2,5.7 27.1,6.5 27.2,7.3 27.2,8.3 27.1,9.3 27.2,10.4 27.2,11.6 27.1,12.7 27.2,14.1 27.2,15.3 27.1,16.7 27.2,18 27.2,19.3 27.1,20.6 27.2,21.9 27.2,23.1 27.1,24.1 27.2,25.1 27.2,25.8 27.1,26.6 27.2,26.9 27.2,27.2 27.1,27.2 27.2,27 27.2,26.4 27.1,25.7 27.2,24.6 27.2,23.3 27.1,21.6 27.2,19.8 27.2,17.7 27.1,15.4 27.2,12.9 27.2,10.2 27.1,7.4 27.2,4.5 27.2,1.5 27.1,-1.5 27.2,-4.5 27.2,-7.4 27.1,-10.2 27.2,-12.9 27.2,-15.4 27.1,-17.7 27.2,-19.8 27.2,-21.6 27.1,-23.3 27.2,-24.6 27.2,-25.7 27.1,-26.4 27.2,-27 27.2,-27.2 27.1,-27.2 27.2,-26.9 27.2,-26.6 27.1,-25.8 27.2,-25.1 27.2,-24.1 27.1,-23.1 27.2,-21.9 27.2,-20.6 27.1,-19.3 27.2,-18 27.2,-16.7 27.1,-15.3 27.2,-14.1 27.2,-12.7 27.1,-11.6 27.2,-10.4 27.2,-9.3 27.1,-8.3 27.2,-7.3 27.2,-6.5 27.1,-5.7 27.2,-4.9 27.2,-4.3 27.1,-3.7" /></g></g></g></g></g></svg>
