<?xml version="1.0" encoding="UTF-8" standalone="no"?>
<svg
   xmlns:dc="http://purl.org/dc/elements/1.1/"
   xmlns:cc="http://creativecommons.org/ns#"
   xmlns:rdf="http://www.w3.org/1999/02/22-rdf-syntax-ns#"
   xmlns:svg="http://www.w3.org/2000/svg"
   xmlns="http://www.w3.org/2000/svg"
   id="svg205"
   version="1.2"
   viewBox="0 0 288 288"
   height="288pt"
   width="288pt">
  <metadata
     id="metadata211">
    <rdf:RDF>
      <cc:Work
         rdf:about="">
        <dc:format>image/svg+xml</dc:format>
        <dc:type
           rdf:resource="http://purl.org/dc/dcmitype/StillImage" />
      </cc:Work>
    </rdf:RDF>
  </metadata>
  <defs
     id="defs209" />
  <g
     id="surface1">
    <rect
       id="rect2"
       style="fill:#ffffff;fill-opacity:1;stroke:none"
       height="288"
       width="288"
       y="0"
       x="0" />
    <path
       id="path4"
       transform="matrix(0.1,0,0,-0.1,0,288)"
       d="m 1828.7891,1329.2969 c 0,14.9219 -12.0703,26.9922 -26.9922,26.9922 -14.9219,0 -26.9922,-12.0703 -26.9922,-26.9922 0,-14.9219 12.0703,-26.9922 26.9922,-26.9922 14.9219,0 26.9922,12.0703 26.9922,26.9922"
       style="fill:#5900ff;fill-opacity:1;fill-rule:nonzero;stroke:#5900ff;stroke-width:7.5;stroke-linecap:round;stroke-linejoin:round;stroke-miterlimit:10;stroke-opacity:1" />
    <path
       id="path6"
       transform="matrix(0.1,0,0,-0.1,0,288)"
       d="m 1920.5078,1512.6953 c 0,14.9219 -12.1094,26.9922 -26.9922,26.9922 -14.9218,0 -27.0312,-12.0703 -27.0312,-26.9922 0,-14.9219 12.1094,-26.9922 27.0312,-26.9922 14.8828,0 26.9922,12.0703 26.9922,26.9922"
       style="fill:#5900ff;fill-opacity:1;fill-rule:nonzero;stroke:#5900ff;stroke-width:7.5;stroke-linecap:round;stroke-linejoin:round;stroke-miterlimit:10;stroke-opacity:1" />
    <path
       id="path8"
       transform="matrix(0.1,0,0,-0.1,0,288)"
       d="m 1069.2969,1443.7109 c 0,14.8829 -12.0703,26.9922 -26.9922,26.9922 -14.9219,0 -26.9922,-12.1093 -26.9922,-26.9922 0,-14.9218 12.0703,-26.9921 26.9922,-26.9921 14.9219,0 26.9922,12.0703 26.9922,26.9921"
       style="fill:#5900ff;fill-opacity:1;fill-rule:nonzero;stroke:#5900ff;stroke-width:7.5;stroke-linecap:round;stroke-linejoin:round;stroke-miterlimit:10;stroke-opacity:1" />
    <path
       id="path10"
       transform="matrix(0.1,0,0,-0.1,0,288)"
       d="m 1354.6094,1295.1172 c 0,14.8828 -12.1094,26.9922 -26.9922,26.9922 -14.9219,0 -27.0313,-12.1094 -27.0313,-26.9922 0,-14.9219 12.1094,-27.0313 27.0313,-27.0313 14.8828,0 26.9922,12.1094 26.9922,27.0313"
       style="fill:#5900ff;fill-opacity:1;fill-rule:nonzero;stroke:#5900ff;stroke-width:7.5;stroke-linecap:round;stroke-linejoin:round;stroke-miterlimit:10;stroke-opacity:1" />
    <path
       id="path12"
       transform="matrix(0.1,0,0,-0.1,0,288)"
       d="m 1610,1358.5938 c 0,14.9218 -12.1094,26.9921 -26.9922,26.9921 -14.9219,0 -26.9922,-12.0703 -26.9922,-26.9921 0,-14.9219 12.0703,-26.9922 26.9922,-26.9922 14.8828,0 26.9922,12.0703 26.9922,26.9922"
       style="fill:#5900ff;fill-opacity:1;fill-rule:nonzero;stroke:#5900ff;stroke-width:7.5;stroke-linecap:round;stroke-linejoin:round;stroke-miterlimit:10;stroke-opacity:1" />
    <path
       id="path14"
       transform="matrix(0.1,0,0,-0.1,0,288)"
       d="m 1476.6016,1652.5 c 0,14.9219 -12.1094,26.9922 -26.9922,26.9922 -14.9219,0 -26.9922,-12.0703 -26.9922,-26.9922 0,-14.9219 12.0703,-26.9922 26.9922,-26.9922 14.8828,0 26.9922,12.0703 26.9922,26.9922"
       style="fill:#5900ff;fill-opacity:1;fill-rule:nonzero;stroke:#5900ff;stroke-width:7.5;stroke-linecap:round;stroke-linejoin:round;stroke-miterlimit:10;stroke-opacity:1" />
    <path
       id="path16"
       transform="matrix(0.1,0,0,-0.1,0,288)"
       d="m 2018.2031,791.40625 c 0,14.92187 -12.1093,26.99219 -26.9922,26.99219 -14.9218,0 -26.9921,-12.07032 -26.9921,-26.99219 0,-14.92188 12.0703,-26.99219 26.9921,-26.99219 14.8829,0 26.9922,12.07031 26.9922,26.99219"
       style="fill:#5900ff;fill-opacity:1;fill-rule:nonzero;stroke:#5900ff;stroke-width:7.5;stroke-linecap:round;stroke-linejoin:round;stroke-miterlimit:10;stroke-opacity:1" />
    <path
       id="path18"
       transform="matrix(0.1,0,0,-0.1,0,288)"
       d="m 1183.9844,1570.7813 c 0,14.9218 -12.0703,27.0312 -26.9922,27.0312 -14.8828,0 -26.9922,-12.1094 -26.9922,-27.0312 0,-14.8829 12.1094,-26.9922 26.9922,-26.9922 14.9219,0 26.9922,12.1093 26.9922,26.9922"
       style="fill:#5900ff;fill-opacity:1;fill-rule:nonzero;stroke:#5900ff;stroke-width:7.5;stroke-linecap:round;stroke-linejoin:round;stroke-miterlimit:10;stroke-opacity:1" />
    <path
       id="path20"
       transform="matrix(0.1,0,0,-0.1,0,288)"
       d="m 881.09375,1628.2813 c 0,14.9218 -12.07031,27.0312 -26.99219,27.0312 -14.92187,0 -26.99219,-12.1094 -26.99219,-27.0312 0,-14.8829 12.07032,-26.9922 26.99219,-26.9922 14.92188,0 26.99219,12.1093 26.99219,26.9922"
       style="fill:#5900ff;fill-opacity:1;fill-rule:nonzero;stroke:#5900ff;stroke-width:7.5;stroke-linecap:round;stroke-linejoin:round;stroke-miterlimit:10;stroke-opacity:1" />
    <path
       id="path22"
       transform="matrix(0.1,0,0,-0.1,0,288)"
       d="m 1498.0078,1645.7031 c 0,14.9219 -12.1094,26.9922 -26.9922,26.9922 -14.9218,0 -27.0312,-12.0703 -27.0312,-26.9922 0,-14.9218 12.1094,-26.9922 27.0312,-26.9922 14.8828,0 26.9922,12.0704 26.9922,26.9922"
       style="fill:#5900ff;fill-opacity:1;fill-rule:nonzero;stroke:#5900ff;stroke-width:7.5;stroke-linecap:round;stroke-linejoin:round;stroke-miterlimit:10;stroke-opacity:1" />
    <path
       id="path24"
       transform="matrix(0.1,0,0,-0.1,0,288)"
       d="m 1758.2813,1709.8828 c 0,14.9219 -12.0704,27.0313 -26.9922,27.0313 -14.8828,0 -26.9922,-12.1094 -26.9922,-27.0313 0,-14.8828 12.1094,-26.9922 26.9922,-26.9922 14.9218,0 26.9922,12.1094 26.9922,26.9922"
       style="fill:#5900ff;fill-opacity:1;fill-rule:nonzero;stroke:#5900ff;stroke-width:7.5;stroke-linecap:round;stroke-linejoin:round;stroke-miterlimit:10;stroke-opacity:1" />
    <path
       id="path26"
       transform="matrix(0.1,0,0,-0.1,0,288)"
       d="m 2102.6172,1331.0156 c 0,14.8828 -12.1094,26.9922 -27.0313,26.9922 -14.8828,0 -26.9921,-12.1094 -26.9921,-26.9922 0,-14.9218 12.1093,-27.0312 26.9921,-27.0312 14.9219,0 27.0313,12.1094 27.0313,27.0312"
       style="fill:#5900ff;fill-opacity:1;fill-rule:nonzero;stroke:#5900ff;stroke-width:7.5;stroke-linecap:round;stroke-linejoin:round;stroke-miterlimit:10;stroke-opacity:1" />
    <path
       id="path28"
       transform="matrix(0.1,0,0,-0.1,0,288)"
       d="m 1286.2891,1885.1172 c 0,14.8828 -12.0703,26.9922 -26.9922,26.9922 -14.9219,0 -26.9922,-12.1094 -26.9922,-26.9922 0,-14.9219 12.0703,-27.0313 26.9922,-27.0313 14.9219,0 26.9922,12.1094 26.9922,27.0313"
       style="fill:#5900ff;fill-opacity:1;fill-rule:nonzero;stroke:#5900ff;stroke-width:7.5;stroke-linecap:round;stroke-linejoin:round;stroke-miterlimit:10;stroke-opacity:1" />
    <path
       id="path30"
       transform="matrix(0.1,0,0,-0.1,0,288)"
       d="m 1228.7109,1867.1094 c 0,14.8828 -12.1093,26.9922 -26.9921,26.9922 -14.9219,0 -27.0313,-12.1094 -27.0313,-26.9922 0,-14.9219 12.1094,-26.9922 27.0313,-26.9922 14.8828,0 26.9921,12.0703 26.9921,26.9922"
       style="fill:#5900ff;fill-opacity:1;fill-rule:nonzero;stroke:#5900ff;stroke-width:7.5;stroke-linecap:round;stroke-linejoin:round;stroke-miterlimit:10;stroke-opacity:1" />
    <path
       id="path32"
       transform="matrix(0.1,0,0,-0.1,0,288)"
       d="m 1300.7031,1850.8984 c 0,14.9219 -12.1093,26.9922 -26.9922,26.9922 -14.9218,0 -26.9921,-12.0703 -26.9921,-26.9922 0,-14.9218 12.0703,-26.9921 26.9921,-26.9921 14.8829,0 26.9922,12.0703 26.9922,26.9921"
       style="fill:#5900ff;fill-opacity:1;fill-rule:nonzero;stroke:#5900ff;stroke-width:7.5;stroke-linecap:round;stroke-linejoin:round;stroke-miterlimit:10;stroke-opacity:1" />
    <path
       id="path34"
       transform="matrix(0.1,0,0,-0.1,0,288)"
       d="m 1896.0938,1466.0156 c 0,14.8828 -12.0704,26.9922 -26.9922,26.9922 -14.9219,0 -26.9922,-12.1094 -26.9922,-26.9922 0,-14.9218 12.0703,-27.0312 26.9922,-27.0312 14.9218,0 26.9922,12.1094 26.9922,27.0312"
       style="fill:#5900ff;fill-opacity:1;fill-rule:nonzero;stroke:#5900ff;stroke-width:7.5;stroke-linecap:round;stroke-linejoin:round;stroke-miterlimit:10;stroke-opacity:1" />
    <path
       id="path36"
       transform="matrix(0.1,0,0,-0.1,0,288)"
       d="m 1954.4141,1288.0078 c 0,14.8828 -12.1094,26.9922 -27.0313,26.9922 -14.8828,0 -26.9922,-12.1094 -26.9922,-26.9922 0,-14.9219 12.1094,-26.9922 26.9922,-26.9922 14.9219,0 27.0313,12.0703 27.0313,26.9922"
       style="fill:#5900ff;fill-opacity:1;fill-rule:nonzero;stroke:#5900ff;stroke-width:7.5;stroke-linecap:round;stroke-linejoin:round;stroke-miterlimit:10;stroke-opacity:1" />
    <path
       id="path38"
       transform="matrix(0.1,0,0,-0.1,0,288)"
       d="m 2126.4063,1171.2891 c 0,14.9218 -12.1094,26.9922 -26.9922,26.9922 -14.9219,0 -27.0313,-12.0704 -27.0313,-26.9922 0,-14.8828 12.1094,-26.9922 27.0313,-26.9922 14.8828,0 26.9922,12.1094 26.9922,26.9922"
       style="fill:#5900ff;fill-opacity:1;fill-rule:nonzero;stroke:#5900ff;stroke-width:7.5;stroke-linecap:round;stroke-linejoin:round;stroke-miterlimit:10;stroke-opacity:1" />
    <path
       id="path40"
       transform="matrix(0.1,0,0,-0.1,0,288)"
       d="m 1024.6094,1669.6875 c 0,14.9219 -12.1094,27.0313 -26.99221,27.0313 -14.92188,0 -27.03125,-12.1094 -27.03125,-27.0313 0,-14.8828 12.10937,-26.9922 27.03125,-26.9922 14.88281,0 26.99221,12.1094 26.99221,26.9922"
       style="fill:#5900ff;fill-opacity:1;fill-rule:nonzero;stroke:#5900ff;stroke-width:7.5;stroke-linecap:round;stroke-linejoin:round;stroke-miterlimit:10;stroke-opacity:1" />
    <path
       id="path42"
       transform="matrix(0.1,0,0,-0.1,0,288)"
       d="m 1440.7031,1168.5938 c 0,14.9218 -12.1093,26.9921 -26.9922,26.9921 -14.9218,0 -26.9921,-12.0703 -26.9921,-26.9921 0,-14.9219 12.0703,-26.9922 26.9921,-26.9922 14.8829,0 26.9922,12.0703 26.9922,26.9922"
       style="fill:#5900ff;fill-opacity:1;fill-rule:nonzero;stroke:#5900ff;stroke-width:7.5;stroke-linecap:round;stroke-linejoin:round;stroke-miterlimit:10;stroke-opacity:1" />
    <path
       id="path44"
       transform="matrix(0.1,0,0,-0.1,0,288)"
       d="m 2105.7813,1655.7031 c 0,14.9219 -12.0704,26.9922 -26.9922,26.9922 -14.8828,0 -26.9922,-12.0703 -26.9922,-26.9922 0,-14.9218 12.1094,-26.9922 26.9922,-26.9922 14.9218,0 26.9922,12.0704 26.9922,26.9922"
       style="fill:#5900ff;fill-opacity:1;fill-rule:nonzero;stroke:#5900ff;stroke-width:7.5;stroke-linecap:round;stroke-linejoin:round;stroke-miterlimit:10;stroke-opacity:1" />
    <path
       id="path46"
       transform="matrix(0.1,0,0,-0.1,0,288)"
       d="m 1612.8906,1072.5 c 0,14.9219 -12.0703,26.9922 -26.9922,26.9922 -14.9218,0 -26.9921,-12.0703 -26.9921,-26.9922 0,-14.9219 12.0703,-26.9922 26.9921,-26.9922 14.9219,0 26.9922,12.0703 26.9922,26.9922"
       style="fill:#5900ff;fill-opacity:1;fill-rule:nonzero;stroke:#5900ff;stroke-width:7.5;stroke-linecap:round;stroke-linejoin:round;stroke-miterlimit:10;stroke-opacity:1" />
    <path
       id="path48"
       transform="matrix(0.1,0,0,-0.1,0,288)"
       d="m 1845.3906,988.59375 c 0,14.92185 -12.0703,26.99215 -26.9922,26.99215 -14.9218,0 -26.9921,-12.0703 -26.9921,-26.99215 0,-14.92188 12.0703,-26.99219 26.9921,-26.99219 14.9219,0 26.9922,12.07031 26.9922,26.99219"
       style="fill:#5900ff;fill-opacity:1;fill-rule:nonzero;stroke:#5900ff;stroke-width:7.5;stroke-linecap:round;stroke-linejoin:round;stroke-miterlimit:10;stroke-opacity:1" />
    <path
       id="path50"
       transform="matrix(0.1,0,0,-0.1,0,288)"
       d="m 1075.3125,1981.2891 c 0,14.9218 -12.1094,26.9922 -27.0312,26.9922 -14.8829,0 -26.9922,-12.0704 -26.9922,-26.9922 0,-14.8828 12.1093,-26.9922 26.9922,-26.9922 14.9218,0 27.0312,12.1094 27.0312,26.9922"
       style="fill:#5900ff;fill-opacity:1;fill-rule:nonzero;stroke:#5900ff;stroke-width:7.5;stroke-linecap:round;stroke-linejoin:round;stroke-miterlimit:10;stroke-opacity:1" />
    <path
       id="path52"
       transform="matrix(0.1,0,0,-0.1,0,288)"
       d="m 1311.9922,2082.3047 c 0,14.9219 -12.0703,26.9922 -26.9922,26.9922 -14.9219,0 -26.9922,-12.0703 -26.9922,-26.9922 0,-14.9219 12.0703,-26.9922 26.9922,-26.9922 14.9219,0 26.9922,12.0703 26.9922,26.9922"
       style="fill:#5900ff;fill-opacity:1;fill-rule:nonzero;stroke:#5900ff;stroke-width:7.5;stroke-linecap:round;stroke-linejoin:round;stroke-miterlimit:10;stroke-opacity:1" />
    <path
       id="path54"
       transform="matrix(0.1,0,0,-0.1,0,288)"
       d="m 1631.9141,1331.0156 c 0,14.8828 -12.1094,26.9922 -27.0313,26.9922 -14.8828,0 -26.9922,-12.1094 -26.9922,-26.9922 0,-14.9218 12.1094,-27.0312 26.9922,-27.0312 14.9219,0 27.0313,12.1094 27.0313,27.0312"
       style="fill:#5900ff;fill-opacity:1;fill-rule:nonzero;stroke:#5900ff;stroke-width:7.5;stroke-linecap:round;stroke-linejoin:round;stroke-miterlimit:10;stroke-opacity:1" />
    <path
       id="path56"
       transform="matrix(0.1,0,0,-0.1,0,288)"
       d="m 1290.1953,1452.8125 c 0,14.8828 -12.0703,26.9922 -26.9922,26.9922 -14.9218,0 -26.9922,-12.1094 -26.9922,-26.9922 0,-14.9219 12.0704,-27.0312 26.9922,-27.0312 14.9219,0 26.9922,12.1093 26.9922,27.0312"
       style="fill:#5900ff;fill-opacity:1;fill-rule:nonzero;stroke:#5900ff;stroke-width:7.5;stroke-linecap:round;stroke-linejoin:round;stroke-miterlimit:10;stroke-opacity:1" />
    <path
       id="path58"
       transform="matrix(0.1,0,0,-0.1,0,288)"
       d="m 1930.8984,1051.0156 c 0,14.8828 -12.0703,26.9922 -26.9921,26.9922 -14.9219,0 -26.9922,-12.1094 -26.9922,-26.9922 0,-14.9218 12.0703,-27.0312 26.9922,-27.0312 14.9218,0 26.9921,12.1094 26.9921,27.0312"
       style="fill:#5900ff;fill-opacity:1;fill-rule:nonzero;stroke:#5900ff;stroke-width:7.5;stroke-linecap:round;stroke-linejoin:round;stroke-miterlimit:10;stroke-opacity:1" />
    <path
       id="path60"
       transform="matrix(0.1,0,0,-0.1,0,288)"
       d="m 2163.2031,1228.2031 c 0,14.9219 -12.1093,26.9922 -26.9922,26.9922 -14.9218,0 -26.9921,-12.0703 -26.9921,-26.9922 0,-14.9218 12.0703,-26.9922 26.9921,-26.9922 14.8829,0 26.9922,12.0704 26.9922,26.9922"
       style="fill:#5900ff;fill-opacity:1;fill-rule:nonzero;stroke:#5900ff;stroke-width:7.5;stroke-linecap:round;stroke-linejoin:round;stroke-miterlimit:10;stroke-opacity:1" />
    <path
       id="path62"
       transform="matrix(0.1,0,0,-0.1,0,288)"
       d="m 1336.4063,1643.9063 c 0,14.9218 -12.1094,26.9921 -26.9922,26.9921 -14.9219,0 -27.0313,-12.0703 -27.0313,-26.9921 0,-14.9219 12.1094,-26.9922 27.0313,-26.9922 14.8828,0 26.9922,12.0703 26.9922,26.9922"
       style="fill:#5900ff;fill-opacity:1;fill-rule:nonzero;stroke:#5900ff;stroke-width:7.5;stroke-linecap:round;stroke-linejoin:round;stroke-miterlimit:10;stroke-opacity:1" />
    <path
       id="path64"
       transform="matrix(0.1,0,0,-0.1,0,288)"
       d="m 906.09375,1684.4922 c 0,14.9219 -12.07031,26.9922 -26.99219,26.9922 -14.92187,0 -26.99219,-12.0703 -26.99219,-26.9922 0,-14.8828 12.07032,-26.9922 26.99219,-26.9922 14.92188,0 26.99219,12.1094 26.99219,26.9922"
       style="fill:#5900ff;fill-opacity:1;fill-rule:nonzero;stroke:#5900ff;stroke-width:7.5;stroke-linecap:round;stroke-linejoin:round;stroke-miterlimit:10;stroke-opacity:1" />
    <path
       id="path66"
       transform="matrix(0.1,0,0,-0.1,0,288)"
       d="m 1238.5156,1779.1016 c 0,14.9218 -12.1093,26.9922 -27.0312,26.9922 -14.8828,0 -26.9922,-12.0704 -26.9922,-26.9922 0,-14.9219 12.1094,-26.9922 26.9922,-26.9922 14.9219,0 27.0312,12.0703 27.0312,26.9922"
       style="fill:#5900ff;fill-opacity:1;fill-rule:nonzero;stroke:#5900ff;stroke-width:7.5;stroke-linecap:round;stroke-linejoin:round;stroke-miterlimit:10;stroke-opacity:1" />
    <path
       id="path68"
       transform="matrix(0.1,0,0,-0.1,0,288)"
       d="m 1993.7891,1019.6875 c 0,14.9219 -12.0703,27.0313 -26.9922,27.0313 -14.9219,0 -26.9922,-12.1094 -26.9922,-27.0313 0,-14.8828 12.0703,-26.99219 26.9922,-26.99219 14.9219,0 26.9922,12.10939 26.9922,26.99219"
       style="fill:#5900ff;fill-opacity:1;fill-rule:nonzero;stroke:#5900ff;stroke-width:7.5;stroke-linecap:round;stroke-linejoin:round;stroke-miterlimit:10;stroke-opacity:1" />
    <path
       id="path70"
       transform="matrix(0.1,0,0,-0.1,0,288)"
       d="m 1106.4063,1706.7188 c 0,14.8828 -12.1094,26.9921 -26.9922,26.9921 -14.9219,0 -27.0313,-12.1093 -27.0313,-26.9921 0,-14.9219 12.1094,-27.0313 27.0313,-27.0313 14.8828,0 26.9922,12.1094 26.9922,27.0313"
       style="fill:#5900ff;fill-opacity:1;fill-rule:nonzero;stroke:#5900ff;stroke-width:7.5;stroke-linecap:round;stroke-linejoin:round;stroke-miterlimit:10;stroke-opacity:1" />
    <path
       id="path72"
       transform="matrix(0.1,0,0,-0.1,0,288)"
       d="m 1693.5938,1640.7813 c 0,14.9218 -12.0704,27.0312 -26.9922,27.0312 -14.9219,0 -26.9922,-12.1094 -26.9922,-27.0312 0,-14.8829 12.0703,-26.9922 26.9922,-26.9922 14.9218,0 26.9922,12.1093 26.9922,26.9922"
       style="fill:#5900ff;fill-opacity:1;fill-rule:nonzero;stroke:#5900ff;stroke-width:7.5;stroke-linecap:round;stroke-linejoin:round;stroke-miterlimit:10;stroke-opacity:1" />
    <path
       id="path74"
       transform="matrix(0.1,0,0,-0.1,0,288)"
       d="m 687.38281,2113.3984 c 0,14.9219 -12.07031,26.9922 -26.99219,26.9922 -14.92187,0 -26.99218,-12.0703 -26.99218,-26.9922 0,-14.9218 12.07031,-26.9921 26.99218,-26.9921 14.92188,0 26.99219,12.0703 26.99219,26.9921"
       style="fill:#5900ff;fill-opacity:1;fill-rule:nonzero;stroke:#5900ff;stroke-width:7.5;stroke-linecap:round;stroke-linejoin:round;stroke-miterlimit:10;stroke-opacity:1" />
    <path
       id="path76"
       transform="matrix(0.1,0,0,-0.1,0,288)"
       d="m 943.59375,1851.6016 c 0,14.9218 -12.07031,26.9922 -26.99219,26.9922 -14.92187,0 -26.99219,-12.0704 -26.99219,-26.9922 0,-14.9219 12.07032,-26.9922 26.99219,-26.9922 14.92188,0 26.99219,12.0703 26.99219,26.9922"
       style="fill:#5900ff;fill-opacity:1;fill-rule:nonzero;stroke:#5900ff;stroke-width:7.5;stroke-linecap:round;stroke-linejoin:round;stroke-miterlimit:10;stroke-opacity:1" />
    <path
       id="path78"
       transform="matrix(0.1,0,0,-0.1,0,288)"
       d="m 1792.6172,1480.7031 c 0,14.9219 -12.1094,26.9922 -27.0313,26.9922 -14.8828,0 -26.9921,-12.0703 -26.9921,-26.9922 0,-14.9218 12.1093,-26.9922 26.9921,-26.9922 14.9219,0 27.0313,12.0704 27.0313,26.9922"
       style="fill:#5900ff;fill-opacity:1;fill-rule:nonzero;stroke:#5900ff;stroke-width:7.5;stroke-linecap:round;stroke-linejoin:round;stroke-miterlimit:10;stroke-opacity:1" />
    <path
       id="path80"
       transform="matrix(0.1,0,0,-0.1,0,288)"
       d="m 1585.5859,1187.6172 c 0,14.8828 -12.0703,26.9922 -26.9921,26.9922 -14.9219,0 -26.9922,-12.1094 -26.9922,-26.9922 0,-14.9219 12.0703,-27.0313 26.9922,-27.0313 14.9218,0 26.9921,12.1094 26.9921,27.0313"
       style="fill:#5900ff;fill-opacity:1;fill-rule:nonzero;stroke:#5900ff;stroke-width:7.5;stroke-linecap:round;stroke-linejoin:round;stroke-miterlimit:10;stroke-opacity:1" />
    <path
       id="path82"
       transform="matrix(0.1,0,0,-0.1,0,288)"
       d="m 1391.7188,2043.3984 c 0,14.9219 -12.1094,26.9922 -27.0313,26.9922 -14.8828,0 -26.9922,-12.0703 -26.9922,-26.9922 0,-14.9218 12.1094,-26.9921 26.9922,-26.9921 14.9219,0 27.0313,12.0703 27.0313,26.9921"
       style="fill:#5900ff;fill-opacity:1;fill-rule:nonzero;stroke:#5900ff;stroke-width:7.5;stroke-linecap:round;stroke-linejoin:round;stroke-miterlimit:10;stroke-opacity:1" />
    <path
       id="path84"
       transform="matrix(0.1,0,0,-0.1,0,288)"
       d="m 2219.8047,1202.3047 c 0,14.9219 -12.1094,26.9922 -26.9922,26.9922 -14.9219,0 -27.0312,-12.0703 -27.0312,-26.9922 0,-14.9219 12.1093,-26.9922 27.0312,-26.9922 14.8828,0 26.9922,12.0703 26.9922,26.9922"
       style="fill:#5900ff;fill-opacity:1;fill-rule:nonzero;stroke:#5900ff;stroke-width:7.5;stroke-linecap:round;stroke-linejoin:round;stroke-miterlimit:10;stroke-opacity:1" />
    <path
       id="path86"
       transform="matrix(0.1,0,0,-0.1,0,288)"
       d="m 1490.5078,1522.3828 c 0,14.9219 -12.1094,27.0313 -26.9922,27.0313 -14.9218,0 -27.0312,-12.1094 -27.0312,-27.0313 0,-14.8828 12.1094,-26.9922 27.0312,-26.9922 14.8828,0 26.9922,12.1094 26.9922,26.9922"
       style="fill:#5900ff;fill-opacity:1;fill-rule:nonzero;stroke:#5900ff;stroke-width:7.5;stroke-linecap:round;stroke-linejoin:round;stroke-miterlimit:10;stroke-opacity:1" />
    <path
       id="path88"
       transform="matrix(0.1,0,0,-0.1,0,288)"
       d="m 1178.9844,1386.7969 c 0,14.9219 -12.0703,26.9922 -26.9922,26.9922 -14.8828,0 -26.9922,-12.0703 -26.9922,-26.9922 0,-14.9219 12.1094,-26.9922 26.9922,-26.9922 14.9219,0 26.9922,12.0703 26.9922,26.9922"
       style="fill:#5900ff;fill-opacity:1;fill-rule:nonzero;stroke:#5900ff;stroke-width:7.5;stroke-linecap:round;stroke-linejoin:round;stroke-miterlimit:10;stroke-opacity:1" />
    <path
       id="path90"
       transform="matrix(0.1,0,0,-0.1,0,288)"
       d="m 1082.6953,1799.2969 c 0,14.9219 -12.0703,26.9922 -26.9922,26.9922 -14.9218,0 -26.9922,-12.0703 -26.9922,-26.9922 0,-14.9219 12.0704,-26.9922 26.9922,-26.9922 14.9219,0 26.9922,12.0703 26.9922,26.9922"
       style="fill:#5900ff;fill-opacity:1;fill-rule:nonzero;stroke:#5900ff;stroke-width:7.5;stroke-linecap:round;stroke-linejoin:round;stroke-miterlimit:10;stroke-opacity:1" />
    <path
       id="path92"
       transform="matrix(0.1,0,0,-0.1,0,288)"
       d="m 2159.2188,1249.4922 c 0,14.9219 -12.1094,26.9922 -27.0313,26.9922 -14.8828,0 -26.9922,-12.0703 -26.9922,-26.9922 0,-14.8828 12.1094,-26.9922 26.9922,-26.9922 14.9219,0 27.0313,12.1094 27.0313,26.9922"
       style="fill:#5900ff;fill-opacity:1;fill-rule:nonzero;stroke:#5900ff;stroke-width:7.5;stroke-linecap:round;stroke-linejoin:round;stroke-miterlimit:10;stroke-opacity:1" />
    <path
       id="path94"
       transform="matrix(0.1,0,0,-0.1,0,288)"
       d="m 1479.4922,1559.1016 c 0,14.9218 -12.0703,26.9922 -26.9922,26.9922 -14.9219,0 -26.9922,-12.0704 -26.9922,-26.9922 0,-14.9219 12.0703,-26.9922 26.9922,-26.9922 14.9219,0 26.9922,12.0703 26.9922,26.9922"
       style="fill:#5900ff;fill-opacity:1;fill-rule:nonzero;stroke:#5900ff;stroke-width:7.5;stroke-linecap:round;stroke-linejoin:round;stroke-miterlimit:10;stroke-opacity:1" />
    <path
       id="path96"
       transform="matrix(0.1,0,0,-0.1,0,288)"
       d="m 1845.1953,1668.9063 c 0,14.9218 -12.0703,26.9921 -26.9922,26.9921 -14.9218,0 -26.9922,-12.0703 -26.9922,-26.9921 0,-14.9219 12.0704,-26.9922 26.9922,-26.9922 14.9219,0 26.9922,12.0703 26.9922,26.9922"
       style="fill:#5900ff;fill-opacity:1;fill-rule:nonzero;stroke:#5900ff;stroke-width:7.5;stroke-linecap:round;stroke-linejoin:round;stroke-miterlimit:10;stroke-opacity:1" />
    <path
       id="path98"
       transform="matrix(0.1,0,0,-0.1,0,288)"
       d="m 1311.4844,1900.5078 c 0,14.8828 -12.0703,26.9922 -26.9922,26.9922 -14.8828,0 -26.9922,-12.1094 -26.9922,-26.9922 0,-14.9219 12.1094,-26.9922 26.9922,-26.9922 14.9219,0 26.9922,12.0703 26.9922,26.9922"
       style="fill:#5900ff;fill-opacity:1;fill-rule:nonzero;stroke:#5900ff;stroke-width:7.5;stroke-linecap:round;stroke-linejoin:round;stroke-miterlimit:10;stroke-opacity:1" />
    <path
       id="path100"
       transform="matrix(0.1,0,0,-0.1,0,288)"
       d="m 1461.2109,1643.5156 c 0,14.8828 -12.1093,26.9922 -26.9921,26.9922 -14.9219,0 -27.0313,-12.1094 -27.0313,-26.9922 0,-14.9218 12.1094,-27.0312 27.0313,-27.0312 14.8828,0 26.9921,12.1094 26.9921,27.0312"
       style="fill:#5900ff;fill-opacity:1;fill-rule:nonzero;stroke:#5900ff;stroke-width:7.5;stroke-linecap:round;stroke-linejoin:round;stroke-miterlimit:10;stroke-opacity:1" />
    <path
       id="path102"
       transform="matrix(0.1,0,0,-0.1,0,288)"
       d="m 1448.2031,1937.1875 c 0,14.9219 -12.1093,27.0313 -26.9922,27.0313 -14.9218,0 -26.9921,-12.1094 -26.9921,-27.0313 0,-14.8828 12.0703,-26.9922 26.9921,-26.9922 14.8829,0 26.9922,12.1094 26.9922,26.9922"
       style="fill:#5900ff;fill-opacity:1;fill-rule:nonzero;stroke:#5900ff;stroke-width:7.5;stroke-linecap:round;stroke-linejoin:round;stroke-miterlimit:10;stroke-opacity:1" />
    <path
       id="path104"
       transform="matrix(0.1,0,0,-0.1,0,288)"
       d="m 840.3125,2149.1016 c 0,14.9218 -12.10938,26.9922 -26.99219,26.9922 -14.92187,0 -27.03125,-12.0704 -27.03125,-26.9922 0,-14.9219 12.10938,-26.9922 27.03125,-26.9922 14.88281,0 26.99219,12.0703 26.99219,26.9922"
       style="fill:#5900ff;fill-opacity:1;fill-rule:nonzero;stroke:#5900ff;stroke-width:7.5;stroke-linecap:round;stroke-linejoin:round;stroke-miterlimit:10;stroke-opacity:1" />
    <path
       id="path106"
       transform="matrix(0.1,0,0,-0.1,0,288)"
       d="m 1378.3984,1771.2109 c 0,14.8829 -12.0703,26.9922 -26.9921,26.9922 -14.9219,0 -26.9922,-12.1093 -26.9922,-26.9922 0,-14.9218 12.0703,-26.9921 26.9922,-26.9921 14.9218,0 26.9921,12.0703 26.9921,26.9921"
       style="fill:#5900ff;fill-opacity:1;fill-rule:nonzero;stroke:#5900ff;stroke-width:7.5;stroke-linecap:round;stroke-linejoin:round;stroke-miterlimit:10;stroke-opacity:1" />
    <path
       id="path108"
       transform="matrix(0.1,0,0,-0.1,0,288)"
       d="m 1164.6875,1655 c 0,14.9219 -12.0703,26.9922 -26.9922,26.9922 -14.9219,0 -26.9922,-12.0703 -26.9922,-26.9922 0,-14.9219 12.0703,-26.9922 26.9922,-26.9922 14.9219,0 26.9922,12.0703 26.9922,26.9922"
       style="fill:#5900ff;fill-opacity:1;fill-rule:nonzero;stroke:#5900ff;stroke-width:7.5;stroke-linecap:round;stroke-linejoin:round;stroke-miterlimit:10;stroke-opacity:1" />
    <path
       id="path110"
       transform="matrix(0.1,0,0,-0.1,0,288)"
       d="m 1593.0859,1706.9141 c 0,14.8828 -12.0703,26.9922 -26.9921,26.9922 -14.9219,0 -26.9922,-12.1094 -26.9922,-26.9922 0,-14.9219 12.0703,-27.0313 26.9922,-27.0313 14.9218,0 26.9921,12.1094 26.9921,27.0313"
       style="fill:#5900ff;fill-opacity:1;fill-rule:nonzero;stroke:#5900ff;stroke-width:7.5;stroke-linecap:round;stroke-linejoin:round;stroke-miterlimit:10;stroke-opacity:1" />
    <path
       id="path112"
       transform="matrix(0.1,0,0,-0.1,0,288)"
       d="m 1111.6016,1370.1953 c 0,14.9219 -12.1094,26.9922 -26.9922,26.9922 -14.9219,0 -26.9922,-12.0703 -26.9922,-26.9922 0,-14.9219 12.0703,-26.9922 26.9922,-26.9922 14.8828,0 26.9922,12.0703 26.9922,26.9922"
       style="fill:#5900ff;fill-opacity:1;fill-rule:nonzero;stroke:#5900ff;stroke-width:7.5;stroke-linecap:round;stroke-linejoin:round;stroke-miterlimit:10;stroke-opacity:1" />
    <path
       id="path114"
       transform="matrix(0.1,0,0,-0.1,0,288)"
       d="m 1178.2031,1691.9922 c 0,14.9219 -12.1093,26.9922 -26.9922,26.9922 -14.9218,0 -26.9921,-12.0703 -26.9921,-26.9922 0,-14.8828 12.0703,-26.9922 26.9921,-26.9922 14.8829,0 26.9922,12.1094 26.9922,26.9922"
       style="fill:#5900ff;fill-opacity:1;fill-rule:nonzero;stroke:#5900ff;stroke-width:7.5;stroke-linecap:round;stroke-linejoin:round;stroke-miterlimit:10;stroke-opacity:1" />
    <path
       id="path116"
       transform="matrix(0.1,0,0,-0.1,0,288)"
       d="m 1804.2188,1281.6016 c 0,14.9218 -12.1094,26.9922 -27.0313,26.9922 -14.8828,0 -26.9922,-12.0704 -26.9922,-26.9922 0,-14.9219 12.1094,-26.9922 26.9922,-26.9922 14.9219,0 27.0313,12.0703 27.0313,26.9922"
       style="fill:#5900ff;fill-opacity:1;fill-rule:nonzero;stroke:#5900ff;stroke-width:7.5;stroke-linecap:round;stroke-linejoin:round;stroke-miterlimit:10;stroke-opacity:1" />
    <path
       id="path118"
       transform="matrix(0.1,0,0,-0.1,0,288)"
       d="m 1517.6953,1458.2813 c 0,14.9218 -12.0703,27.0312 -26.9922,27.0312 -14.9218,0 -26.9922,-12.1094 -26.9922,-27.0312 0,-14.8829 12.0704,-26.9922 26.9922,-26.9922 14.9219,0 26.9922,12.1093 26.9922,26.9922"
       style="fill:#5900ff;fill-opacity:1;fill-rule:nonzero;stroke:#5900ff;stroke-width:7.5;stroke-linecap:round;stroke-linejoin:round;stroke-miterlimit:10;stroke-opacity:1" />
    <path
       id="path120"
       transform="matrix(0.1,0,0,-0.1,0,288)"
       d="m 1790.8984,1488.2813 c 0,14.9218 -12.0703,27.0312 -26.9921,27.0312 -14.9219,0 -26.9922,-12.1094 -26.9922,-27.0312 0,-14.8829 12.0703,-26.9922 26.9922,-26.9922 14.9218,0 26.9921,12.1093 26.9921,26.9922"
       style="fill:#5900ff;fill-opacity:1;fill-rule:nonzero;stroke:#5900ff;stroke-width:7.5;stroke-linecap:round;stroke-linejoin:round;stroke-miterlimit:10;stroke-opacity:1" />
    <path
       id="path122"
       transform="matrix(0.1,0,0,-0.1,0,288)"
       d="m 1837.1875,1406.6016 c 0,14.9218 -12.0703,26.9922 -26.9922,26.9922 -14.9219,0 -26.9922,-12.0704 -26.9922,-26.9922 0,-14.9219 12.0703,-26.9922 26.9922,-26.9922 14.9219,0 26.9922,12.0703 26.9922,26.9922"
       style="fill:#5900ff;fill-opacity:1;fill-rule:nonzero;stroke:#5900ff;stroke-width:7.5;stroke-linecap:round;stroke-linejoin:round;stroke-miterlimit:10;stroke-opacity:1" />
    <path
       id="path124"
       transform="matrix(0.1,0,0,-0.1,0,288)"
       d="m 1629.8047,1743.7109 c 0,14.8829 -12.1094,26.9922 -26.9922,26.9922 -14.9219,0 -27.0312,-12.1093 -27.0312,-26.9922 0,-14.9218 12.1093,-26.9921 27.0312,-26.9921 14.8828,0 26.9922,12.0703 26.9922,26.9921"
       style="fill:#5900ff;fill-opacity:1;fill-rule:nonzero;stroke:#5900ff;stroke-width:7.5;stroke-linecap:round;stroke-linejoin:round;stroke-miterlimit:10;stroke-opacity:1" />
    <path
       id="path126"
       transform="matrix(0.1,0,0,-0.1,0,288)"
       d="m 1515,1355.1953 c 0,14.9219 -12.1094,26.9922 -26.9922,26.9922 -14.9219,0 -26.9922,-12.0703 -26.9922,-26.9922 0,-14.9219 12.0703,-26.9922 26.9922,-26.9922 14.8828,0 26.9922,12.0703 26.9922,26.9922"
       style="fill:#5900ff;fill-opacity:1;fill-rule:nonzero;stroke:#5900ff;stroke-width:7.5;stroke-linecap:round;stroke-linejoin:round;stroke-miterlimit:10;stroke-opacity:1" />
    <path
       id="path128"
       transform="matrix(0.1,0,0,-0.1,0,288)"
       d="m 2519.4922,1092.8125 c 0,14.8828 -12.0703,26.9922 -26.9922,26.9922 -14.9219,0 -26.9922,-12.1094 -26.9922,-26.9922 0,-14.9219 12.0703,-27.0312 26.9922,-27.0312 14.9219,0 26.9922,12.1093 26.9922,27.0312"
       style="fill:#5900ff;fill-opacity:1;fill-rule:nonzero;stroke:#5900ff;stroke-width:7.5;stroke-linecap:round;stroke-linejoin:round;stroke-miterlimit:10;stroke-opacity:1" />
    <path
       id="path130"
       transform="matrix(0.1,0,0,-0.1,0,288)"
       d="m 928.78906,1895.3125 c 0,14.8828 -12.07031,26.9922 -26.99219,26.9922 -14.92187,0 -26.99218,-12.1094 -26.99218,-26.9922 0,-14.9219 12.07031,-27.0312 26.99218,-27.0312 14.92188,0 26.99219,12.1093 26.99219,27.0312"
       style="fill:#5900ff;fill-opacity:1;fill-rule:nonzero;stroke:#5900ff;stroke-width:7.5;stroke-linecap:round;stroke-linejoin:round;stroke-miterlimit:10;stroke-opacity:1" />
    <path
       id="path132"
       transform="matrix(0.1,0,0,-0.1,0,288)"
       d="m 1209.4922,2085.7031 c 0,14.9219 -12.0703,26.9922 -26.9922,26.9922 -14.9219,0 -26.9922,-12.0703 -26.9922,-26.9922 0,-14.9218 12.0703,-26.9922 26.9922,-26.9922 14.9219,0 26.9922,12.0704 26.9922,26.9922"
       style="fill:#5900ff;fill-opacity:1;fill-rule:nonzero;stroke:#5900ff;stroke-width:7.5;stroke-linecap:round;stroke-linejoin:round;stroke-miterlimit:10;stroke-opacity:1" />
    <path
       id="path134"
       transform="matrix(0.1,0,0,-0.1,0,288)"
       d="m 1608.9063,1672.1094 c 0,14.8828 -12.1094,26.9922 -26.9922,26.9922 -14.9219,0 -27.0313,-12.1094 -27.0313,-26.9922 0,-14.9219 12.1094,-26.9922 27.0313,-26.9922 14.8828,0 26.9922,12.0703 26.9922,26.9922"
       style="fill:#5900ff;fill-opacity:1;fill-rule:nonzero;stroke:#5900ff;stroke-width:7.5;stroke-linecap:round;stroke-linejoin:round;stroke-miterlimit:10;stroke-opacity:1" />
    <path
       id="path136"
       transform="matrix(0.1,0,0,-0.1,0,288)"
       d="m 1516.6016,1540.7813 c 0,14.9218 -12.1094,27.0312 -26.9922,27.0312 -14.9219,0 -26.9922,-12.1094 -26.9922,-27.0312 0,-14.8829 12.0703,-26.9922 26.9922,-26.9922 14.8828,0 26.9922,12.1093 26.9922,26.9922"
       style="fill:#5900ff;fill-opacity:1;fill-rule:nonzero;stroke:#5900ff;stroke-width:7.5;stroke-linecap:round;stroke-linejoin:round;stroke-miterlimit:10;stroke-opacity:1" />
    <path
       id="path138"
       transform="matrix(0.1,0,0,-0.1,0,288)"
       d="m 1344.1016,1617.6172 c 0,14.8828 -12.1094,26.9922 -26.9922,26.9922 -14.9219,0 -26.9922,-12.1094 -26.9922,-26.9922 0,-14.9219 12.0703,-27.0313 26.9922,-27.0313 14.8828,0 26.9922,12.1094 26.9922,27.0313"
       style="fill:#5900ff;fill-opacity:1;fill-rule:nonzero;stroke:#5900ff;stroke-width:7.5;stroke-linecap:round;stroke-linejoin:round;stroke-miterlimit:10;stroke-opacity:1" />
    <path
       id="path140"
       transform="matrix(0.1,0,0,-0.1,0,288)"
       d="m 2527.3828,1099.2969 c 0,14.9219 -12.0703,26.9922 -26.9922,26.9922 -14.8828,0 -26.9922,-12.0703 -26.9922,-26.9922 0,-14.9219 12.1094,-26.9922 26.9922,-26.9922 14.9219,0 26.9922,12.0703 26.9922,26.9922"
       style="fill:#5900ff;fill-opacity:1;fill-rule:nonzero;stroke:#5900ff;stroke-width:7.5;stroke-linecap:round;stroke-linejoin:round;stroke-miterlimit:10;stroke-opacity:1" />
    <path
       id="path142"
       transform="matrix(0.1,0,0,-0.1,0,288)"
       d="m 1768.0078,1576.2109 c 0,14.8829 -12.1094,26.9922 -26.9922,26.9922 -14.9218,0 -27.0312,-12.1093 -27.0312,-26.9922 0,-14.9218 12.1094,-26.9921 27.0312,-26.9921 14.8828,0 26.9922,12.0703 26.9922,26.9921"
       style="fill:#5900ff;fill-opacity:1;fill-rule:nonzero;stroke:#5900ff;stroke-width:7.5;stroke-linecap:round;stroke-linejoin:round;stroke-miterlimit:10;stroke-opacity:1" />
    <path
       id="path144"
       transform="matrix(0.1,0,0,-0.1,0,288)"
       d="m 1035,1612.8125 c 0,14.8828 -12.1094,26.9922 -26.9922,26.9922 -14.92186,0 -26.99218,-12.1094 -26.99218,-26.9922 0,-14.9219 12.07032,-27.0312 26.99218,-27.0312 14.8828,0 26.9922,12.1093 26.9922,27.0312"
       style="fill:#5900ff;fill-opacity:1;fill-rule:nonzero;stroke:#5900ff;stroke-width:7.5;stroke-linecap:round;stroke-linejoin:round;stroke-miterlimit:10;stroke-opacity:1" />
    <path
       id="path146"
       transform="matrix(0.1,0,0,-0.1,0,288)"
       d="m 1002.3047,1821.9141 c 0,14.8828 -12.10939,26.9922 -26.9922,26.9922 -14.92188,0 -26.99219,-12.1094 -26.99219,-26.9922 0,-14.9219 12.07031,-27.0313 26.99219,-27.0313 14.88281,0 26.9922,12.1094 26.9922,27.0313"
       style="fill:#5900ff;fill-opacity:1;fill-rule:nonzero;stroke:#5900ff;stroke-width:7.5;stroke-linecap:round;stroke-linejoin:round;stroke-miterlimit:10;stroke-opacity:1" />
    <path
       id="path148"
       transform="matrix(0.1,0,0,-0.1,0,288)"
       d="m 1393.5938,1556.7188 c 0,14.8828 -12.0704,26.9921 -26.9922,26.9921 -14.9219,0 -26.9922,-12.1093 -26.9922,-26.9921 0,-14.9219 12.0703,-27.0313 26.9922,-27.0313 14.9218,0 26.9922,12.1094 26.9922,27.0313"
       style="fill:#5900ff;fill-opacity:1;fill-rule:nonzero;stroke:#5900ff;stroke-width:7.5;stroke-linecap:round;stroke-linejoin:round;stroke-miterlimit:10;stroke-opacity:1" />
    <path
       id="path150"
       transform="matrix(0.1,0,0,-0.1,0,288)"
       d="m 1816.9922,1474.1016 c 0,14.9218 -12.0703,26.9922 -26.9922,26.9922 -14.9219,0 -26.9922,-12.0704 -26.9922,-26.9922 0,-14.9219 12.0703,-26.9922 26.9922,-26.9922 14.9219,0 26.9922,12.0703 26.9922,26.9922"
       style="fill:#5900ff;fill-opacity:1;fill-rule:nonzero;stroke:#5900ff;stroke-width:7.5;stroke-linecap:round;stroke-linejoin:round;stroke-miterlimit:10;stroke-opacity:1" />
    <path
       id="path152"
       transform="matrix(0.1,0,0,-0.1,0,288)"
       d="m 1206.6016,1563.9844 c 0,14.9219 -12.1094,27.0312 -26.9922,27.0312 -14.9219,0 -26.9922,-12.1093 -26.9922,-27.0312 0,-14.8828 12.0703,-26.9922 26.9922,-26.9922 14.8828,0 26.9922,12.1094 26.9922,26.9922"
       style="fill:#5900ff;fill-opacity:1;fill-rule:nonzero;stroke:#5900ff;stroke-width:7.5;stroke-linecap:round;stroke-linejoin:round;stroke-miterlimit:10;stroke-opacity:1" />
    <path
       id="path154"
       transform="matrix(0.1,0,0,-0.1,0,288)"
       d="m 1689.4141,1094.8828 c 0,14.9219 -12.1094,27.0313 -27.0313,27.0313 -14.8828,0 -26.9922,-12.1094 -26.9922,-27.0313 0,-14.8828 12.1094,-26.9922 26.9922,-26.9922 14.9219,0 27.0313,12.1094 27.0313,26.9922"
       style="fill:#5900ff;fill-opacity:1;fill-rule:nonzero;stroke:#5900ff;stroke-width:7.5;stroke-linecap:round;stroke-linejoin:round;stroke-miterlimit:10;stroke-opacity:1" />
    <path
       id="path156"
       transform="matrix(0.1,0,0,-0.1,0,288)"
       d="m 1636.4844,1435.7031 c 0,14.9219 -12.0703,26.9922 -26.9922,26.9922 -14.8828,0 -26.9922,-12.0703 -26.9922,-26.9922 0,-14.9218 12.1094,-26.9922 26.9922,-26.9922 14.9219,0 26.9922,12.0704 26.9922,26.9922"
       style="fill:#5900ff;fill-opacity:1;fill-rule:nonzero;stroke:#5900ff;stroke-width:7.5;stroke-linecap:round;stroke-linejoin:round;stroke-miterlimit:10;stroke-opacity:1" />
    <path
       id="path158"
       transform="matrix(0.1,0,0,-0.1,0,288)"
       d="m 1198.9844,1423.0859 c 0,14.9219 -12.0703,27.0313 -26.9922,27.0313 -14.8828,0 -26.9922,-12.1094 -26.9922,-27.0313 0,-14.8828 12.1094,-26.9921 26.9922,-26.9921 14.9219,0 26.9922,12.1093 26.9922,26.9921"
       style="fill:#5900ff;fill-opacity:1;fill-rule:nonzero;stroke:#5900ff;stroke-width:7.5;stroke-linecap:round;stroke-linejoin:round;stroke-miterlimit:10;stroke-opacity:1" />
    <path
       id="path160"
       transform="matrix(0.1,0,0,-0.1,0,288)"
       d="m 2440.7813,1003.5937 c 0,14.9219 -12.0704,26.9922 -26.9922,26.9922 -14.8828,0 -26.9922,-12.0703 -26.9922,-26.9922 0,-14.92183 12.1094,-26.99214 26.9922,-26.99214 14.9218,0 26.9922,12.07031 26.9922,26.99214"
       style="fill:#5900ff;fill-opacity:1;fill-rule:nonzero;stroke:#5900ff;stroke-width:7.5;stroke-linecap:round;stroke-linejoin:round;stroke-miterlimit:10;stroke-opacity:1" />
    <path
       id="path162"
       transform="matrix(0.1,0,0,-0.1,0,288)"
       d="m 1807.5,1409.4922 c 0,14.9219 -12.1094,26.9922 -26.9922,26.9922 -14.9219,0 -26.9922,-12.0703 -26.9922,-26.9922 0,-14.8828 12.0703,-26.9922 26.9922,-26.9922 14.8828,0 26.9922,12.1094 26.9922,26.9922"
       style="fill:#5900ff;fill-opacity:1;fill-rule:nonzero;stroke:#5900ff;stroke-width:7.5;stroke-linecap:round;stroke-linejoin:round;stroke-miterlimit:10;stroke-opacity:1" />
    <path
       id="path164"
       transform="matrix(0.1,0,0,-0.1,0,288)"
       d="m 1453.9063,1898.9063 c 0,14.9218 -12.1094,26.9921 -26.9922,26.9921 -14.9219,0 -27.0313,-12.0703 -27.0313,-26.9921 0,-14.9219 12.1094,-26.9922 27.0313,-26.9922 14.8828,0 26.9922,12.0703 26.9922,26.9922"
       style="fill:#5900ff;fill-opacity:1;fill-rule:nonzero;stroke:#5900ff;stroke-width:7.5;stroke-linecap:round;stroke-linejoin:round;stroke-miterlimit:10;stroke-opacity:1" />
    <path
       id="path166"
       transform="matrix(0.1,0,0,-0.1,0,288)"
       d="m 1803.7109,1547.1094 c 0,14.8828 -12.1093,26.9922 -26.9921,26.9922 -14.9219,0 -27.0313,-12.1094 -27.0313,-26.9922 0,-14.9219 12.1094,-26.9922 27.0313,-26.9922 14.8828,0 26.9921,12.0703 26.9921,26.9922"
       style="fill:#5900ff;fill-opacity:1;fill-rule:nonzero;stroke:#5900ff;stroke-width:7.5;stroke-linecap:round;stroke-linejoin:round;stroke-miterlimit:10;stroke-opacity:1" />
    <path
       id="path168"
       transform="matrix(0.1,0,0,-0.1,0,288)"
       d="m 1089.1016,1133.2031 c 0,14.9219 -12.1094,26.9922 -26.9922,26.9922 -14.9219,0 -26.9922,-12.0703 -26.9922,-26.9922 0,-14.9218 12.0703,-26.9922 26.9922,-26.9922 14.8828,0 26.9922,12.0704 26.9922,26.9922"
       style="fill:#5900ff;fill-opacity:1;fill-rule:nonzero;stroke:#5900ff;stroke-width:7.5;stroke-linecap:round;stroke-linejoin:round;stroke-miterlimit:10;stroke-opacity:1" />
    <path
       id="path170"
       transform="matrix(0.1,0,0,-0.1,0,288)"
       d="m 1576.2109,1714.8047 c 0,14.9219 -12.1093,26.9922 -26.9921,26.9922 -14.9219,0 -27.0313,-12.0703 -27.0313,-26.9922 0,-14.9219 12.1094,-26.9922 27.0313,-26.9922 14.8828,0 26.9921,12.0703 26.9921,26.9922"
       style="fill:#5900ff;fill-opacity:1;fill-rule:nonzero;stroke:#5900ff;stroke-width:7.5;stroke-linecap:round;stroke-linejoin:round;stroke-miterlimit:10;stroke-opacity:1" />
    <path
       id="path172"
       transform="matrix(0.1,0,0,-0.1,0,288)"
       d="m 1719.8047,1543.3984 c 0,14.9219 -12.1094,26.9922 -26.9922,26.9922 -14.9219,0 -27.0312,-12.0703 -27.0312,-26.9922 0,-14.9218 12.1093,-26.9921 27.0312,-26.9921 14.8828,0 26.9922,12.0703 26.9922,26.9921"
       style="fill:#5900ff;fill-opacity:1;fill-rule:nonzero;stroke:#5900ff;stroke-width:7.5;stroke-linecap:round;stroke-linejoin:round;stroke-miterlimit:10;stroke-opacity:1" />
    <path
       id="path174"
       transform="matrix(0.1,0,0,-0.1,0,288)"
       d="m 2406.7969,1129.6875 c 0,14.9219 -12.0703,27.0313 -26.9922,27.0313 -14.9219,0 -26.9922,-12.1094 -26.9922,-27.0313 0,-14.8828 12.0703,-26.9922 26.9922,-26.9922 14.9219,0 26.9922,12.1094 26.9922,26.9922"
       style="fill:#5900ff;fill-opacity:1;fill-rule:nonzero;stroke:#5900ff;stroke-width:7.5;stroke-linecap:round;stroke-linejoin:round;stroke-miterlimit:10;stroke-opacity:1" />
    <path
       id="path176"
       transform="matrix(0.1,0,0,-0.1,0,288)"
       d="m 1327.8125,1606.7969 c 0,14.9219 -12.1094,26.9922 -27.0312,26.9922 -14.8829,0 -26.9922,-12.0703 -26.9922,-26.9922 0,-14.9219 12.1093,-26.9922 26.9922,-26.9922 14.9218,0 27.0312,12.0703 27.0312,26.9922"
       style="fill:#5900ff;fill-opacity:1;fill-rule:nonzero;stroke:#5900ff;stroke-width:7.5;stroke-linecap:round;stroke-linejoin:round;stroke-miterlimit:10;stroke-opacity:1" />
    <path
       id="path178"
       transform="matrix(0.1,0,0,-0.1,0,288)"
       d="m 1821.2109,1506.4063 c 0,14.9218 -12.1093,26.9921 -26.9921,26.9921 -14.9219,0 -27.0313,-12.0703 -27.0313,-26.9921 0,-14.9219 12.1094,-26.9922 27.0313,-26.9922 14.8828,0 26.9921,12.0703 26.9921,26.9922"
       style="fill:#5900ff;fill-opacity:1;fill-rule:nonzero;stroke:#5900ff;stroke-width:7.5;stroke-linecap:round;stroke-linejoin:round;stroke-miterlimit:10;stroke-opacity:1" />
    <path
       id="path180"
       transform="matrix(0.1,0,0,-0.1,0,288)"
       d="m 872.5,2031.6016 c 0,14.9218 -12.10938,26.9922 -26.99219,26.9922 -14.92187,0 -26.99219,-12.0704 -26.99219,-26.9922 0,-14.9219 12.07032,-26.9922 26.99219,-26.9922 14.88281,0 26.99219,12.0703 26.99219,26.9922"
       style="fill:#5900ff;fill-opacity:1;fill-rule:nonzero;stroke:#5900ff;stroke-width:7.5;stroke-linecap:round;stroke-linejoin:round;stroke-miterlimit:10;stroke-opacity:1" />
    <path
       id="path182"
       transform="matrix(0.1,0,0,-0.1,0,288)"
       d="m 1503.3984,2231.4063 c 0,14.9218 -12.0703,26.9921 -26.9921,26.9921 -14.9219,0 -26.9922,-12.0703 -26.9922,-26.9921 0,-14.9219 12.0703,-26.9922 26.9922,-26.9922 14.9218,0 26.9921,12.0703 26.9921,26.9922"
       style="fill:#5900ff;fill-opacity:1;fill-rule:nonzero;stroke:#5900ff;stroke-width:7.5;stroke-linecap:round;stroke-linejoin:round;stroke-miterlimit:10;stroke-opacity:1" />
    <path
       id="path184"
       transform="matrix(0.1,0,0,-0.1,0,288)"
       d="m 1811.0156,1070.5078 c 0,14.8828 -12.1093,26.9922 -27.0312,26.9922 -14.8828,0 -26.9922,-12.1094 -26.9922,-26.9922 0,-14.9219 12.1094,-26.9922 26.9922,-26.9922 14.9219,0 27.0312,12.0703 27.0312,26.9922"
       style="fill:#5900ff;fill-opacity:1;fill-rule:nonzero;stroke:#5900ff;stroke-width:7.5;stroke-linecap:round;stroke-linejoin:round;stroke-miterlimit:10;stroke-opacity:1" />
    <path
       id="path186"
       transform="matrix(0.1,0,0,-0.1,0,288)"
       d="m 2104.6875,1227.3047 c 0,14.9219 -12.0703,26.9922 -26.9922,26.9922 -14.9219,0 -26.9922,-12.0703 -26.9922,-26.9922 0,-14.9219 12.0703,-26.9922 26.9922,-26.9922 14.9219,0 26.9922,12.0703 26.9922,26.9922"
       style="fill:#5900ff;fill-opacity:1;fill-rule:nonzero;stroke:#5900ff;stroke-width:7.5;stroke-linecap:round;stroke-linejoin:round;stroke-miterlimit:10;stroke-opacity:1" />
    <path
       id="path188"
       transform="matrix(0.1,0,0,-0.1,0,288)"
       d="m 2026.9141,1034.8047 c 0,14.9219 -12.1094,26.9922 -27.0313,26.9922 -14.8828,0 -26.9922,-12.0703 -26.9922,-26.9922 0,-14.9219 12.1094,-26.9922 26.9922,-26.9922 14.9219,0 27.0313,12.0703 27.0313,26.9922"
       style="fill:#5900ff;fill-opacity:1;fill-rule:nonzero;stroke:#5900ff;stroke-width:7.5;stroke-linecap:round;stroke-linejoin:round;stroke-miterlimit:10;stroke-opacity:1" />
    <path
       id="path190"
       transform="matrix(0.1,0,0,-0.1,0,288)"
       d="m 1272.3828,2045.8984 c 0,14.9219 -12.0703,26.9922 -26.9922,26.9922 -14.8828,0 -26.9922,-12.0703 -26.9922,-26.9922 0,-14.9218 12.1094,-26.9921 26.9922,-26.9921 14.9219,0 26.9922,12.0703 26.9922,26.9921"
       style="fill:#5900ff;fill-opacity:1;fill-rule:nonzero;stroke:#5900ff;stroke-width:7.5;stroke-linecap:round;stroke-linejoin:round;stroke-miterlimit:10;stroke-opacity:1" />
    <path
       id="path192"
       transform="matrix(0.1,0,0,-0.1,0,288)"
       d="m 1669.8828,1317.3828 c 0,14.9219 -12.0703,27.0313 -26.9922,27.0313 -14.8828,0 -26.9922,-12.1094 -26.9922,-27.0313 0,-14.8828 12.1094,-26.9922 26.9922,-26.9922 14.9219,0 26.9922,12.1094 26.9922,26.9922"
       style="fill:#5900ff;fill-opacity:1;fill-rule:nonzero;stroke:#5900ff;stroke-width:7.5;stroke-linecap:round;stroke-linejoin:round;stroke-miterlimit:10;stroke-opacity:1" />
    <path
       id="path194"
       transform="matrix(0.1,0,0,-0.1,0,288)"
       d="m 891.09375,2126.7969 c 0,14.9219 -12.07031,26.9922 -26.99219,26.9922 -14.92187,0 -26.99219,-12.0703 -26.99219,-26.9922 0,-14.9219 12.07032,-26.9922 26.99219,-26.9922 14.92188,0 26.99219,12.0703 26.99219,26.9922"
       style="fill:#5900ff;fill-opacity:1;fill-rule:nonzero;stroke:#5900ff;stroke-width:7.5;stroke-linecap:round;stroke-linejoin:round;stroke-miterlimit:10;stroke-opacity:1" />
    <path
       id="path196"
       transform="matrix(0.1,0,0,-0.1,0,288)"
       d="m 1462.8906,1896.2109 c 0,14.8829 -12.0703,26.9922 -26.9922,26.9922 -14.9218,0 -26.9921,-12.1093 -26.9921,-26.9922 0,-14.9218 12.0703,-26.9921 26.9921,-26.9921 14.9219,0 26.9922,12.0703 26.9922,26.9921"
       style="fill:#5900ff;fill-opacity:1;fill-rule:nonzero;stroke:#5900ff;stroke-width:7.5;stroke-linecap:round;stroke-linejoin:round;stroke-miterlimit:10;stroke-opacity:1" />
    <path
       id="path198"
       transform="matrix(0.1,0,0,-0.1,0,288)"
       d="m 1998.7109,1335.1172 c 0,14.8828 -12.1093,26.9922 -26.9921,26.9922 -14.9219,0 -27.0313,-12.1094 -27.0313,-26.9922 0,-14.9219 12.1094,-27.0313 27.0313,-27.0313 14.8828,0 26.9921,12.1094 26.9921,27.0313"
       style="fill:#5900ff;fill-opacity:1;fill-rule:nonzero;stroke:#5900ff;stroke-width:7.5;stroke-linecap:round;stroke-linejoin:round;stroke-miterlimit:10;stroke-opacity:1" />
    <path
       id="path200"
       transform="matrix(0.1,0,0,-0.1,0,288)"
       d="m 1638.7109,1499.1016 c 0,14.9218 -12.1093,26.9922 -26.9921,26.9922 -14.9219,0 -27.0313,-12.0704 -27.0313,-26.9922 0,-14.9219 12.1094,-26.9922 27.0313,-26.9922 14.8828,0 26.9921,12.0703 26.9921,26.9922"
       style="fill:#5900ff;fill-opacity:1;fill-rule:nonzero;stroke:#5900ff;stroke-width:7.5;stroke-linecap:round;stroke-linejoin:round;stroke-miterlimit:10;stroke-opacity:1" />
    <path
       id="path202"
       transform="matrix(0.1,0,0,-0.1,0,288)"
       d="m 1635,1294.6094 c 0,14.8828 -12.1094,26.9922 -26.9922,26.9922 -14.9219,0 -26.9922,-12.1094 -26.9922,-26.9922 0,-14.9219 12.0703,-26.9922 26.9922,-26.9922 14.8828,0 26.9922,12.0703 26.9922,26.9922"
       style="fill:#5900ff;fill-opacity:1;fill-rule:nonzero;stroke:#5900ff;stroke-width:7.5;stroke-linecap:round;stroke-linejoin:round;stroke-miterlimit:10;stroke-opacity:1" />
  </g>
</svg>
