<?xml version="1.0" encoding="UTF-8" standalone="no"?>
<svg
   xmlns:dc="http://purl.org/dc/elements/1.1/"
   xmlns:cc="http://creativecommons.org/ns#"
   xmlns:rdf="http://www.w3.org/1999/02/22-rdf-syntax-ns#"
   xmlns:svg="http://www.w3.org/2000/svg"
   xmlns="http://www.w3.org/2000/svg"
   id="svg205"
   version="1.2"
   viewBox="0 0 288 288"
   height="288pt"
   width="288pt">
  <metadata
     id="metadata211">
    <rdf:RDF>
      <cc:Work
         rdf:about="">
        <dc:format>image/svg+xml</dc:format>
        <dc:type
           rdf:resource="http://purl.org/dc/dcmitype/StillImage" />
      </cc:Work>
    </rdf:RDF>
  </metadata>
  <defs
     id="defs209" />
  <g
     id="surface1">
    <rect
       id="rect2"
       style="fill:#ffffff;fill-opacity:1;stroke:none"
       height="288"
       width="288"
       y="0"
       x="0" />
    <path
       id="path4"
       transform="matrix(0.1,0,0,-0.1,0,288)"
       d="m 1707.8125,1590 c 0,14.9219 -12.1094,26.9922 -27.0312,26.9922 -14.8829,0 -26.9922,-12.0703 -26.9922,-26.9922 0,-14.9219 12.1093,-26.9922 26.9922,-26.9922 14.9218,0 27.0312,12.0703 27.0312,26.9922"
       style="fill:#5900ff;fill-opacity:1;fill-rule:nonzero;stroke:#5900ff;stroke-width:7.5;stroke-linecap:round;stroke-linejoin:round;stroke-miterlimit:10;stroke-opacity:1" />
    <path
       id="path6"
       transform="matrix(0.1,0,0,-0.1,0,288)"
       d="m 1797.1094,1659.8828 c 0,14.9219 -12.1094,27.0313 -26.9922,27.0313 -14.9219,0 -27.0313,-12.1094 -27.0313,-27.0313 0,-14.8828 12.1094,-26.9922 27.0313,-26.9922 14.8828,0 26.9922,12.1094 26.9922,26.9922"
       style="fill:#5900ff;fill-opacity:1;fill-rule:nonzero;stroke:#5900ff;stroke-width:7.5;stroke-linecap:round;stroke-linejoin:round;stroke-miterlimit:10;stroke-opacity:1" />
    <path
       id="path8"
       transform="matrix(0.1,0,0,-0.1,0,288)"
       d="m 1710.7031,1592.3047 c 0,14.9219 -12.1093,26.9922 -26.9922,26.9922 -14.9218,0 -26.9921,-12.0703 -26.9921,-26.9922 0,-14.9219 12.0703,-26.9922 26.9921,-26.9922 14.8829,0 26.9922,12.0703 26.9922,26.9922"
       style="fill:#5900ff;fill-opacity:1;fill-rule:nonzero;stroke:#5900ff;stroke-width:7.5;stroke-linecap:round;stroke-linejoin:round;stroke-miterlimit:10;stroke-opacity:1" />
    <path
       id="path10"
       transform="matrix(0.1,0,0,-0.1,0,288)"
       d="m 1777.8906,1644.8828 c 0,14.9219 -12.0703,27.0313 -26.9922,27.0313 -14.9218,0 -26.9921,-12.1094 -26.9921,-27.0313 0,-14.8828 12.0703,-26.9922 26.9921,-26.9922 14.9219,0 26.9922,12.1094 26.9922,26.9922"
       style="fill:#5900ff;fill-opacity:1;fill-rule:nonzero;stroke:#5900ff;stroke-width:7.5;stroke-linecap:round;stroke-linejoin:round;stroke-miterlimit:10;stroke-opacity:1" />
    <path
       id="path12"
       transform="matrix(0.1,0,0,-0.1,0,288)"
       d="m 1801.4063,1663.2813 c 0,14.9218 -12.1094,27.0312 -26.9922,27.0312 -14.9219,0 -27.0313,-12.1094 -27.0313,-27.0312 0,-14.8829 12.1094,-26.9922 27.0313,-26.9922 14.8828,0 26.9922,12.1093 26.9922,26.9922"
       style="fill:#5900ff;fill-opacity:1;fill-rule:nonzero;stroke:#5900ff;stroke-width:7.5;stroke-linecap:round;stroke-linejoin:round;stroke-miterlimit:10;stroke-opacity:1" />
    <path
       id="path14"
       transform="matrix(0.1,0,0,-0.1,0,288)"
       d="m 1841.7188,1694.8828 c 0,14.9219 -12.1094,27.0313 -27.0313,27.0313 -14.8828,0 -26.9922,-12.1094 -26.9922,-27.0313 0,-14.8828 12.1094,-26.9922 26.9922,-26.9922 14.9219,0 27.0313,12.1094 27.0313,26.9922"
       style="fill:#5900ff;fill-opacity:1;fill-rule:nonzero;stroke:#5900ff;stroke-width:7.5;stroke-linecap:round;stroke-linejoin:round;stroke-miterlimit:10;stroke-opacity:1" />
    <path
       id="path16"
       transform="matrix(0.1,0,0,-0.1,0,288)"
       d="m 1980.5859,1803.5156 c 0,14.8828 -12.0703,26.9922 -26.9921,26.9922 -14.9219,0 -26.9922,-12.1094 -26.9922,-26.9922 0,-14.9218 12.0703,-27.0312 26.9922,-27.0312 14.9218,0 26.9921,12.1094 26.9921,27.0312"
       style="fill:#5900ff;fill-opacity:1;fill-rule:nonzero;stroke:#5900ff;stroke-width:7.5;stroke-linecap:round;stroke-linejoin:round;stroke-miterlimit:10;stroke-opacity:1" />
    <path
       id="path18"
       transform="matrix(0.1,0,0,-0.1,0,288)"
       d="m 914.88281,969.49219 c 0,14.92187 -12.07031,26.99218 -26.99219,26.99218 -14.92187,0 -26.99218,-12.07031 -26.99218,-26.99218 0,-14.88282 12.07031,-26.99219 26.99218,-26.99219 14.92188,0 26.99219,12.10937 26.99219,26.99219"
       style="fill:#5900ff;fill-opacity:1;fill-rule:nonzero;stroke:#5900ff;stroke-width:7.5;stroke-linecap:round;stroke-linejoin:round;stroke-miterlimit:10;stroke-opacity:1" />
    <path
       id="path20"
       transform="matrix(0.1,0,0,-0.1,0,288)"
       d="m 1548.7109,1465.5078 c 0,14.8828 -12.1093,26.9922 -26.9921,26.9922 -14.9219,0 -27.0313,-12.1094 -27.0313,-26.9922 0,-14.9219 12.1094,-26.9922 27.0313,-26.9922 14.8828,0 26.9921,12.0703 26.9921,26.9922"
       style="fill:#5900ff;fill-opacity:1;fill-rule:nonzero;stroke:#5900ff;stroke-width:7.5;stroke-linecap:round;stroke-linejoin:round;stroke-miterlimit:10;stroke-opacity:1" />
    <path
       id="path22"
       transform="matrix(0.1,0,0,-0.1,0,288)"
       d="m 1482.6172,1413.7891 c 0,14.9218 -12.1094,26.9922 -27.0313,26.9922 -14.8828,0 -26.9921,-12.0704 -26.9921,-26.9922 0,-14.8828 12.1093,-26.9922 26.9921,-26.9922 14.9219,0 27.0313,12.1094 27.0313,26.9922"
       style="fill:#5900ff;fill-opacity:1;fill-rule:nonzero;stroke:#5900ff;stroke-width:7.5;stroke-linecap:round;stroke-linejoin:round;stroke-miterlimit:10;stroke-opacity:1" />
    <path
       id="path24"
       transform="matrix(0.1,0,0,-0.1,0,288)"
       d="m 1880.5078,1725.1953 c 0,14.9219 -12.1094,26.9922 -26.9922,26.9922 -14.9218,0 -27.0312,-12.0703 -27.0312,-26.9922 0,-14.9219 12.1094,-26.9922 27.0312,-26.9922 14.8828,0 26.9922,12.0703 26.9922,26.9922"
       style="fill:#5900ff;fill-opacity:1;fill-rule:nonzero;stroke:#5900ff;stroke-width:7.5;stroke-linecap:round;stroke-linejoin:round;stroke-miterlimit:10;stroke-opacity:1" />
    <path
       id="path26"
       transform="matrix(0.1,0,0,-0.1,0,288)"
       d="m 2037.5,1848.0859 c 0,14.9219 -12.1094,27.0313 -26.9922,27.0313 -14.9219,0 -26.9922,-12.1094 -26.9922,-27.0313 0,-14.8828 12.0703,-26.9921 26.9922,-26.9921 14.8828,0 26.9922,12.1093 26.9922,26.9921"
       style="fill:#5900ff;fill-opacity:1;fill-rule:nonzero;stroke:#5900ff;stroke-width:7.5;stroke-linecap:round;stroke-linejoin:round;stroke-miterlimit:10;stroke-opacity:1" />
    <path
       id="path28"
       transform="matrix(0.1,0,0,-0.1,0,288)"
       d="m 687.38281,791.40625 c 0,14.92187 -12.07031,26.99219 -26.99219,26.99219 -14.92187,0 -26.99218,-12.07032 -26.99218,-26.99219 0,-14.92188 12.07031,-26.99219 26.99218,-26.99219 14.92188,0 26.99219,12.07031 26.99219,26.99219"
       style="fill:#5900ff;fill-opacity:1;fill-rule:nonzero;stroke:#5900ff;stroke-width:7.5;stroke-linecap:round;stroke-linejoin:round;stroke-miterlimit:10;stroke-opacity:1" />
    <path
       id="path30"
       transform="matrix(0.1,0,0,-0.1,0,288)"
       d="m 1730.1172,1607.5 c 0,14.9219 -12.1094,26.9922 -27.0313,26.9922 -14.8828,0 -26.9921,-12.0703 -26.9921,-26.9922 0,-14.9219 12.1093,-26.9922 26.9921,-26.9922 14.9219,0 27.0313,12.0703 27.0313,26.9922"
       style="fill:#5900ff;fill-opacity:1;fill-rule:nonzero;stroke:#5900ff;stroke-width:7.5;stroke-linecap:round;stroke-linejoin:round;stroke-miterlimit:10;stroke-opacity:1" />
    <path
       id="path32"
       transform="matrix(0.1,0,0,-0.1,0,288)"
       d="m 1774.1016,1641.9141 c 0,14.8828 -12.1094,26.9922 -26.9922,26.9922 -14.9219,0 -26.9922,-12.1094 -26.9922,-26.9922 0,-14.9219 12.0703,-27.0313 26.9922,-27.0313 14.8828,0 26.9922,12.1094 26.9922,27.0313"
       style="fill:#5900ff;fill-opacity:1;fill-rule:nonzero;stroke:#5900ff;stroke-width:7.5;stroke-linecap:round;stroke-linejoin:round;stroke-miterlimit:10;stroke-opacity:1" />
    <path
       id="path34"
       transform="matrix(0.1,0,0,-0.1,0,288)"
       d="m 1675.5859,1564.8047 c 0,14.9219 -12.0703,26.9922 -26.9921,26.9922 -14.9219,0 -26.9922,-12.0703 -26.9922,-26.9922 0,-14.9219 12.0703,-26.9922 26.9922,-26.9922 14.9218,0 26.9921,12.0703 26.9921,26.9922"
       style="fill:#5900ff;fill-opacity:1;fill-rule:nonzero;stroke:#5900ff;stroke-width:7.5;stroke-linecap:round;stroke-linejoin:round;stroke-miterlimit:10;stroke-opacity:1" />
    <path
       id="path36"
       transform="matrix(0.1,0,0,-0.1,0,288)"
       d="m 1811.9922,1671.6016 c 0,14.9218 -12.0703,26.9922 -26.9922,26.9922 -14.9219,0 -26.9922,-12.0704 -26.9922,-26.9922 0,-14.9219 12.0703,-26.9922 26.9922,-26.9922 14.9219,0 26.9922,12.0703 26.9922,26.9922"
       style="fill:#5900ff;fill-opacity:1;fill-rule:nonzero;stroke:#5900ff;stroke-width:7.5;stroke-linecap:round;stroke-linejoin:round;stroke-miterlimit:10;stroke-opacity:1" />
    <path
       id="path38"
       transform="matrix(0.1,0,0,-0.1,0,288)"
       d="m 2052.6953,1860 c 0,14.9219 -12.0703,26.9922 -26.9922,26.9922 -14.9218,0 -26.9922,-12.0703 -26.9922,-26.9922 0,-14.9219 12.0704,-26.9922 26.9922,-26.9922 14.9219,0 26.9922,12.0703 26.9922,26.9922"
       style="fill:#5900ff;fill-opacity:1;fill-rule:nonzero;stroke:#5900ff;stroke-width:7.5;stroke-linecap:round;stroke-linejoin:round;stroke-miterlimit:10;stroke-opacity:1" />
    <path
       id="path40"
       transform="matrix(0.1,0,0,-0.1,0,288)"
       d="m 1680,1568.2813 c 0,14.9218 -12.1094,27.0312 -26.9922,27.0312 -14.9219,0 -26.9922,-12.1094 -26.9922,-27.0312 0,-14.8829 12.0703,-26.9922 26.9922,-26.9922 14.8828,0 26.9922,12.1093 26.9922,26.9922"
       style="fill:#5900ff;fill-opacity:1;fill-rule:nonzero;stroke:#5900ff;stroke-width:7.5;stroke-linecap:round;stroke-linejoin:round;stroke-miterlimit:10;stroke-opacity:1" />
    <path
       id="path42"
       transform="matrix(0.1,0,0,-0.1,0,288)"
       d="m 1739.8047,1615 c 0,14.9219 -12.1094,26.9922 -26.9922,26.9922 -14.9219,0 -27.0312,-12.0703 -27.0312,-26.9922 0,-14.9219 12.1093,-26.9922 27.0312,-26.9922 14.8828,0 26.9922,12.0703 26.9922,26.9922"
       style="fill:#5900ff;fill-opacity:1;fill-rule:nonzero;stroke:#5900ff;stroke-width:7.5;stroke-linecap:round;stroke-linejoin:round;stroke-miterlimit:10;stroke-opacity:1" />
    <path
       id="path44"
       transform="matrix(0.1,0,0,-0.1,0,288)"
       d="m 1791.4844,1655.5859 c 0,14.9219 -12.0703,27.0313 -26.9922,27.0313 -14.8828,0 -26.9922,-12.1094 -26.9922,-27.0313 0,-14.8828 12.1094,-26.9921 26.9922,-26.9921 14.9219,0 26.9922,12.1093 26.9922,26.9921"
       style="fill:#5900ff;fill-opacity:1;fill-rule:nonzero;stroke:#5900ff;stroke-width:7.5;stroke-linecap:round;stroke-linejoin:round;stroke-miterlimit:10;stroke-opacity:1" />
    <path
       id="path46"
       transform="matrix(0.1,0,0,-0.1,0,288)"
       d="m 1285.1172,1259.2188 c 0,14.8828 -12.1094,26.9921 -27.0313,26.9921 -14.8828,0 -26.9921,-12.1093 -26.9921,-26.9921 0,-14.9219 12.1093,-27.0313 26.9921,-27.0313 14.9219,0 27.0313,12.1094 27.0313,27.0313"
       style="fill:#5900ff;fill-opacity:1;fill-rule:nonzero;stroke:#5900ff;stroke-width:7.5;stroke-linecap:round;stroke-linejoin:round;stroke-miterlimit:10;stroke-opacity:1" />
    <path
       id="path48"
       transform="matrix(0.1,0,0,-0.1,0,288)"
       d="m 1495.8984,1424.2188 c 0,14.8828 -12.0703,26.9921 -26.9921,26.9921 -14.9219,0 -26.9922,-12.1093 -26.9922,-26.9921 0,-14.9219 12.0703,-27.0313 26.9922,-27.0313 14.9218,0 26.9921,12.1094 26.9921,27.0313"
       style="fill:#5900ff;fill-opacity:1;fill-rule:nonzero;stroke:#5900ff;stroke-width:7.5;stroke-linecap:round;stroke-linejoin:round;stroke-miterlimit:10;stroke-opacity:1" />
    <path
       id="path50"
       transform="matrix(0.1,0,0,-0.1,0,288)"
       d="m 1363.5938,1320.7031 c 0,14.9219 -12.0704,26.9922 -26.9922,26.9922 -14.9219,0 -26.9922,-12.0703 -26.9922,-26.9922 0,-14.9218 12.0703,-26.9922 26.9922,-26.9922 14.9218,0 26.9922,12.0704 26.9922,26.9922"
       style="fill:#5900ff;fill-opacity:1;fill-rule:nonzero;stroke:#5900ff;stroke-width:7.5;stroke-linecap:round;stroke-linejoin:round;stroke-miterlimit:10;stroke-opacity:1" />
    <path
       id="path52"
       transform="matrix(0.1,0,0,-0.1,0,288)"
       d="m 1552.6172,1468.5938 c 0,14.9218 -12.1094,26.9921 -27.0313,26.9921 -14.8828,0 -26.9921,-12.0703 -26.9921,-26.9921 0,-14.9219 12.1093,-26.9922 26.9921,-26.9922 14.9219,0 27.0313,12.0703 27.0313,26.9922"
       style="fill:#5900ff;fill-opacity:1;fill-rule:nonzero;stroke:#5900ff;stroke-width:7.5;stroke-linecap:round;stroke-linejoin:round;stroke-miterlimit:10;stroke-opacity:1" />
    <path
       id="path54"
       transform="matrix(0.1,0,0,-0.1,0,288)"
       d="m 1800.3125,1662.5 c 0,14.9219 -12.1094,26.9922 -27.0312,26.9922 -14.8829,0 -26.9922,-12.0703 -26.9922,-26.9922 0,-14.9219 12.1093,-26.9922 26.9922,-26.9922 14.9218,0 27.0312,12.0703 27.0312,26.9922"
       style="fill:#5900ff;fill-opacity:1;fill-rule:nonzero;stroke:#5900ff;stroke-width:7.5;stroke-linecap:round;stroke-linejoin:round;stroke-miterlimit:10;stroke-opacity:1" />
    <path
       id="path56"
       transform="matrix(0.1,0,0,-0.1,0,288)"
       d="m 1822.6953,1679.8828 c 0,14.9219 -12.0703,27.0313 -26.9922,27.0313 -14.9218,0 -26.9922,-12.1094 -26.9922,-27.0313 0,-14.8828 12.0704,-26.9922 26.9922,-26.9922 14.9219,0 26.9922,12.1094 26.9922,26.9922"
       style="fill:#5900ff;fill-opacity:1;fill-rule:nonzero;stroke:#5900ff;stroke-width:7.5;stroke-linecap:round;stroke-linejoin:round;stroke-miterlimit:10;stroke-opacity:1" />
    <path
       id="path58"
       transform="matrix(0.1,0,0,-0.1,0,288)"
       d="m 1517.1094,1440.7813 c 0,14.9218 -12.1094,27.0312 -26.9922,27.0312 -14.9219,0 -27.0313,-12.1094 -27.0313,-27.0312 0,-14.8829 12.1094,-26.9922 27.0313,-26.9922 14.8828,0 26.9922,12.1093 26.9922,26.9922"
       style="fill:#5900ff;fill-opacity:1;fill-rule:nonzero;stroke:#5900ff;stroke-width:7.5;stroke-linecap:round;stroke-linejoin:round;stroke-miterlimit:10;stroke-opacity:1" />
    <path
       id="path60"
       transform="matrix(0.1,0,0,-0.1,0,288)"
       d="m 2159.8828,1943.9063 c 0,14.9218 -12.0703,26.9921 -26.9922,26.9921 -14.8828,0 -26.9922,-12.0703 -26.9922,-26.9921 0,-14.9219 12.1094,-26.9922 26.9922,-26.9922 14.9219,0 26.9922,12.0703 26.9922,26.9922"
       style="fill:#5900ff;fill-opacity:1;fill-rule:nonzero;stroke:#5900ff;stroke-width:7.5;stroke-linecap:round;stroke-linejoin:round;stroke-miterlimit:10;stroke-opacity:1" />
    <path
       id="path62"
       transform="matrix(0.1,0,0,-0.1,0,288)"
       d="m 2261.4063,2023.2813 c 0,14.9218 -12.1094,27.0312 -26.9922,27.0312 -14.9219,0 -27.0313,-12.1094 -27.0313,-27.0312 0,-14.8829 12.1094,-26.9922 27.0313,-26.9922 14.8828,0 26.9922,12.1093 26.9922,26.9922"
       style="fill:#5900ff;fill-opacity:1;fill-rule:nonzero;stroke:#5900ff;stroke-width:7.5;stroke-linecap:round;stroke-linejoin:round;stroke-miterlimit:10;stroke-opacity:1" />
    <path
       id="path64"
       transform="matrix(0.1,0,0,-0.1,0,288)"
       d="m 1900.3125,1740.7031 c 0,14.9219 -12.1094,26.9922 -27.0312,26.9922 -14.8829,0 -26.9922,-12.0703 -26.9922,-26.9922 0,-14.9218 12.1093,-26.9922 26.9922,-26.9922 14.9218,0 27.0312,12.0704 27.0312,26.9922"
       style="fill:#5900ff;fill-opacity:1;fill-rule:nonzero;stroke:#5900ff;stroke-width:7.5;stroke-linecap:round;stroke-linejoin:round;stroke-miterlimit:10;stroke-opacity:1" />
    <path
       id="path66"
       transform="matrix(0.1,0,0,-0.1,0,288)"
       d="m 1535.5859,1455.3125 c 0,14.8828 -12.0703,26.9922 -26.9921,26.9922 -14.9219,0 -26.9922,-12.1094 -26.9922,-26.9922 0,-14.9219 12.0703,-27.0312 26.9922,-27.0312 14.9218,0 26.9921,12.1093 26.9921,27.0312"
       style="fill:#5900ff;fill-opacity:1;fill-rule:nonzero;stroke:#5900ff;stroke-width:7.5;stroke-linecap:round;stroke-linejoin:round;stroke-miterlimit:10;stroke-opacity:1" />
    <path
       id="path68"
       transform="matrix(0.1,0,0,-0.1,0,288)"
       d="m 1591.4844,1498.9844 c 0,14.9219 -12.0703,27.0312 -26.9922,27.0312 -14.8828,0 -26.9922,-12.1093 -26.9922,-27.0312 0,-14.8828 12.1094,-26.9922 26.9922,-26.9922 14.9219,0 26.9922,12.1094 26.9922,26.9922"
       style="fill:#5900ff;fill-opacity:1;fill-rule:nonzero;stroke:#5900ff;stroke-width:7.5;stroke-linecap:round;stroke-linejoin:round;stroke-miterlimit:10;stroke-opacity:1" />
    <path
       id="path70"
       transform="matrix(0.1,0,0,-0.1,0,288)"
       d="m 1575.7031,1486.7188 c 0,14.8828 -12.1093,26.9921 -26.9922,26.9921 -14.9218,0 -26.9921,-12.1093 -26.9921,-26.9921 0,-14.9219 12.0703,-27.0313 26.9921,-27.0313 14.8829,0 26.9922,12.1094 26.9922,27.0313"
       style="fill:#5900ff;fill-opacity:1;fill-rule:nonzero;stroke:#5900ff;stroke-width:7.5;stroke-linecap:round;stroke-linejoin:round;stroke-miterlimit:10;stroke-opacity:1" />
    <path
       id="path72"
       transform="matrix(0.1,0,0,-0.1,0,288)"
       d="m 2031.0156,1843.0078 c 0,14.8828 -12.1093,26.9922 -27.0312,26.9922 -14.8828,0 -26.9922,-12.1094 -26.9922,-26.9922 0,-14.9219 12.1094,-26.9922 26.9922,-26.9922 14.9219,0 27.0312,12.0703 27.0312,26.9922"
       style="fill:#5900ff;fill-opacity:1;fill-rule:nonzero;stroke:#5900ff;stroke-width:7.5;stroke-linecap:round;stroke-linejoin:round;stroke-miterlimit:10;stroke-opacity:1" />
    <path
       id="path74"
       transform="matrix(0.1,0,0,-0.1,0,288)"
       d="m 2025.1953,1838.3984 c 0,14.9219 -12.0703,26.9922 -26.9922,26.9922 -14.9218,0 -26.9922,-12.0703 -26.9922,-26.9922 0,-14.9218 12.0704,-26.9921 26.9922,-26.9921 14.9219,0 26.9922,12.0703 26.9922,26.9921"
       style="fill:#5900ff;fill-opacity:1;fill-rule:nonzero;stroke:#5900ff;stroke-width:7.5;stroke-linecap:round;stroke-linejoin:round;stroke-miterlimit:10;stroke-opacity:1" />
    <path
       id="path76"
       transform="matrix(0.1,0,0,-0.1,0,288)"
       d="m 2297.8906,2051.7969 c 0,14.9219 -12.0703,26.9922 -26.9922,26.9922 -14.9218,0 -26.9921,-12.0703 -26.9921,-26.9922 0,-14.9219 12.0703,-26.9922 26.9921,-26.9922 14.9219,0 26.9922,12.0703 26.9922,26.9922"
       style="fill:#5900ff;fill-opacity:1;fill-rule:nonzero;stroke:#5900ff;stroke-width:7.5;stroke-linecap:round;stroke-linejoin:round;stroke-miterlimit:10;stroke-opacity:1" />
    <path
       id="path78"
       transform="matrix(0.1,0,0,-0.1,0,288)"
       d="m 1811.2891,1671.0156 c 0,14.8828 -12.0703,26.9922 -26.9922,26.9922 -14.9219,0 -26.9922,-12.1094 -26.9922,-26.9922 0,-14.9218 12.0703,-27.0312 26.9922,-27.0312 14.9219,0 26.9922,12.1094 26.9922,27.0312"
       style="fill:#5900ff;fill-opacity:1;fill-rule:nonzero;stroke:#5900ff;stroke-width:7.5;stroke-linecap:round;stroke-linejoin:round;stroke-miterlimit:10;stroke-opacity:1" />
    <path
       id="path80"
       transform="matrix(0.1,0,0,-0.1,0,288)"
       d="m 1673.0859,1562.8906 c 0,14.9219 -12.0703,26.9922 -26.9921,26.9922 -14.9219,0 -26.9922,-12.0703 -26.9922,-26.9922 0,-14.8828 12.0703,-26.9922 26.9922,-26.9922 14.9218,0 26.9921,12.1094 26.9921,26.9922"
       style="fill:#5900ff;fill-opacity:1;fill-rule:nonzero;stroke:#5900ff;stroke-width:7.5;stroke-linecap:round;stroke-linejoin:round;stroke-miterlimit:10;stroke-opacity:1" />
    <path
       id="path82"
       transform="matrix(0.1,0,0,-0.1,0,288)"
       d="m 1930.1953,1764.1016 c 0,14.9218 -12.0703,26.9922 -26.9922,26.9922 -14.9218,0 -26.9922,-12.0704 -26.9922,-26.9922 0,-14.9219 12.0704,-26.9922 26.9922,-26.9922 14.9219,0 26.9922,12.0703 26.9922,26.9922"
       style="fill:#5900ff;fill-opacity:1;fill-rule:nonzero;stroke:#5900ff;stroke-width:7.5;stroke-linecap:round;stroke-linejoin:round;stroke-miterlimit:10;stroke-opacity:1" />
    <path
       id="path84"
       transform="matrix(0.1,0,0,-0.1,0,288)"
       d="m 1728.9063,1606.6016 c 0,14.9218 -12.1094,26.9922 -26.9922,26.9922 -14.9219,0 -27.0313,-12.0704 -27.0313,-26.9922 0,-14.9219 12.1094,-26.9922 27.0313,-26.9922 14.8828,0 26.9922,12.0703 26.9922,26.9922"
       style="fill:#5900ff;fill-opacity:1;fill-rule:nonzero;stroke:#5900ff;stroke-width:7.5;stroke-linecap:round;stroke-linejoin:round;stroke-miterlimit:10;stroke-opacity:1" />
    <path
       id="path86"
       transform="matrix(0.1,0,0,-0.1,0,288)"
       d="m 1460.7031,1396.7188 c 0,14.8828 -12.1093,26.9921 -26.9922,26.9921 -14.9218,0 -26.9921,-12.1093 -26.9921,-26.9921 0,-14.9219 12.0703,-27.0313 26.9921,-27.0313 14.8829,0 26.9922,12.1094 26.9922,27.0313"
       style="fill:#5900ff;fill-opacity:1;fill-rule:nonzero;stroke:#5900ff;stroke-width:7.5;stroke-linecap:round;stroke-linejoin:round;stroke-miterlimit:10;stroke-opacity:1" />
    <path
       id="path88"
       transform="matrix(0.1,0,0,-0.1,0,288)"
       d="m 2200.1953,1975.3906 c 0,14.9219 -12.0703,26.9922 -26.9922,26.9922 -14.9218,0 -26.9922,-12.0703 -26.9922,-26.9922 0,-14.8828 12.0704,-26.9922 26.9922,-26.9922 14.9219,0 26.9922,12.1094 26.9922,26.9922"
       style="fill:#5900ff;fill-opacity:1;fill-rule:nonzero;stroke:#5900ff;stroke-width:7.5;stroke-linecap:round;stroke-linejoin:round;stroke-miterlimit:10;stroke-opacity:1" />
    <path
       id="path90"
       transform="matrix(0.1,0,0,-0.1,0,288)"
       d="m 1634.8047,1532.8906 c 0,14.9219 -12.1094,26.9922 -26.9922,26.9922 -14.9219,0 -27.0312,-12.0703 -27.0312,-26.9922 0,-14.8828 12.1093,-26.9922 27.0312,-26.9922 14.8828,0 26.9922,12.1094 26.9922,26.9922"
       style="fill:#5900ff;fill-opacity:1;fill-rule:nonzero;stroke:#5900ff;stroke-width:7.5;stroke-linecap:round;stroke-linejoin:round;stroke-miterlimit:10;stroke-opacity:1" />
    <path
       id="path92"
       transform="matrix(0.1,0,0,-0.1,0,288)"
       d="m 1451.4844,1389.4141 c 0,14.8828 -12.0703,26.9922 -26.9922,26.9922 -14.8828,0 -26.9922,-12.1094 -26.9922,-26.9922 0,-14.9219 12.1094,-27.0313 26.9922,-27.0313 14.9219,0 26.9922,12.1094 26.9922,27.0313"
       style="fill:#5900ff;fill-opacity:1;fill-rule:nonzero;stroke:#5900ff;stroke-width:7.5;stroke-linecap:round;stroke-linejoin:round;stroke-miterlimit:10;stroke-opacity:1" />
    <path
       id="path94"
       transform="matrix(0.1,0,0,-0.1,0,288)"
       d="m 1422.6172,1366.7969 c 0,14.9219 -12.1094,26.9922 -27.0313,26.9922 -14.8828,0 -26.9921,-12.0703 -26.9921,-26.9922 0,-14.9219 12.1093,-26.9922 26.9921,-26.9922 14.9219,0 27.0313,12.0703 27.0313,26.9922"
       style="fill:#5900ff;fill-opacity:1;fill-rule:nonzero;stroke:#5900ff;stroke-width:7.5;stroke-linecap:round;stroke-linejoin:round;stroke-miterlimit:10;stroke-opacity:1" />
    <path
       id="path96"
       transform="matrix(0.1,0,0,-0.1,0,288)"
       d="m 2091.4063,1890.1953 c 0,14.9219 -12.1094,26.9922 -26.9922,26.9922 -14.9219,0 -27.0313,-12.0703 -27.0313,-26.9922 0,-14.9219 12.1094,-26.9922 27.0313,-26.9922 14.8828,0 26.9922,12.0703 26.9922,26.9922"
       style="fill:#5900ff;fill-opacity:1;fill-rule:nonzero;stroke:#5900ff;stroke-width:7.5;stroke-linecap:round;stroke-linejoin:round;stroke-miterlimit:10;stroke-opacity:1" />
    <path
       id="path98"
       transform="matrix(0.1,0,0,-0.1,0,288)"
       d="m 1592.6953,1500 c 0,14.9219 -12.0703,26.9922 -26.9922,26.9922 -14.9218,0 -26.9922,-12.0703 -26.9922,-26.9922 0,-14.9219 12.0704,-26.9922 26.9922,-26.9922 14.9219,0 26.9922,12.0703 26.9922,26.9922"
       style="fill:#5900ff;fill-opacity:1;fill-rule:nonzero;stroke:#5900ff;stroke-width:7.5;stroke-linecap:round;stroke-linejoin:round;stroke-miterlimit:10;stroke-opacity:1" />
    <path
       id="path100"
       transform="matrix(0.1,0,0,-0.1,0,288)"
       d="m 2061.7969,1867.1094 c 0,14.8828 -12.0703,26.9922 -26.9922,26.9922 -14.9219,0 -26.9922,-12.1094 -26.9922,-26.9922 0,-14.9219 12.0703,-26.9922 26.9922,-26.9922 14.9219,0 26.9922,12.0703 26.9922,26.9922"
       style="fill:#5900ff;fill-opacity:1;fill-rule:nonzero;stroke:#5900ff;stroke-width:7.5;stroke-linecap:round;stroke-linejoin:round;stroke-miterlimit:10;stroke-opacity:1" />
    <path
       id="path102"
       transform="matrix(0.1,0,0,-0.1,0,288)"
       d="m 2191.7969,1968.7891 c 0,14.9218 -12.0703,26.9922 -26.9922,26.9922 -14.9219,0 -26.9922,-12.0704 -26.9922,-26.9922 0,-14.8828 12.0703,-26.9922 26.9922,-26.9922 14.9219,0 26.9922,12.1094 26.9922,26.9922"
       style="fill:#5900ff;fill-opacity:1;fill-rule:nonzero;stroke:#5900ff;stroke-width:7.5;stroke-linecap:round;stroke-linejoin:round;stroke-miterlimit:10;stroke-opacity:1" />
    <path
       id="path104"
       transform="matrix(0.1,0,0,-0.1,0,288)"
       d="m 2145.5859,1932.6953 c 0,14.9219 -12.0703,26.9922 -26.9921,26.9922 -14.9219,0 -26.9922,-12.0703 -26.9922,-26.9922 0,-14.9219 12.0703,-26.9922 26.9922,-26.9922 14.9218,0 26.9921,12.0703 26.9921,26.9922"
       style="fill:#5900ff;fill-opacity:1;fill-rule:nonzero;stroke:#5900ff;stroke-width:7.5;stroke-linecap:round;stroke-linejoin:round;stroke-miterlimit:10;stroke-opacity:1" />
    <path
       id="path106"
       transform="matrix(0.1,0,0,-0.1,0,288)"
       d="m 1895.5078,1736.9922 c 0,14.9219 -12.1094,26.9922 -26.9922,26.9922 -14.9218,0 -27.0312,-12.0703 -27.0312,-26.9922 0,-14.8828 12.1094,-26.9922 27.0312,-26.9922 14.8828,0 26.9922,12.1094 26.9922,26.9922"
       style="fill:#5900ff;fill-opacity:1;fill-rule:nonzero;stroke:#5900ff;stroke-width:7.5;stroke-linecap:round;stroke-linejoin:round;stroke-miterlimit:10;stroke-opacity:1" />
    <path
       id="path108"
       transform="matrix(0.1,0,0,-0.1,0,288)"
       d="m 1856.9922,1706.7969 c 0,14.9219 -12.0703,26.9922 -26.9922,26.9922 -14.9219,0 -26.9922,-12.0703 -26.9922,-26.9922 0,-14.9219 12.0703,-26.9922 26.9922,-26.9922 14.9219,0 26.9922,12.0703 26.9922,26.9922"
       style="fill:#5900ff;fill-opacity:1;fill-rule:nonzero;stroke:#5900ff;stroke-width:7.5;stroke-linecap:round;stroke-linejoin:round;stroke-miterlimit:10;stroke-opacity:1" />
    <path
       id="path110"
       transform="matrix(0.1,0,0,-0.1,0,288)"
       d="m 1738.0859,1613.7891 c 0,14.9218 -12.0703,26.9922 -26.9921,26.9922 -14.9219,0 -26.9922,-12.0704 -26.9922,-26.9922 0,-14.8828 12.0703,-26.9922 26.9922,-26.9922 14.9218,0 26.9921,12.1094 26.9921,26.9922"
       style="fill:#5900ff;fill-opacity:1;fill-rule:nonzero;stroke:#5900ff;stroke-width:7.5;stroke-linecap:round;stroke-linejoin:round;stroke-miterlimit:10;stroke-opacity:1" />
    <path
       id="path112"
       transform="matrix(0.1,0,0,-0.1,0,288)"
       d="m 1251.0156,1232.6172 c 0,14.8828 -12.1093,26.9922 -27.0312,26.9922 -14.8828,0 -26.9922,-12.1094 -26.9922,-26.9922 0,-14.9219 12.1094,-27.0313 26.9922,-27.0313 14.9219,0 27.0312,12.1094 27.0312,27.0313"
       style="fill:#5900ff;fill-opacity:1;fill-rule:nonzero;stroke:#5900ff;stroke-width:7.5;stroke-linecap:round;stroke-linejoin:round;stroke-miterlimit:10;stroke-opacity:1" />
    <path
       id="path114"
       transform="matrix(0.1,0,0,-0.1,0,288)"
       d="m 1565.5078,1478.5938 c 0,14.9218 -12.1094,26.9921 -26.9922,26.9921 -14.9218,0 -27.0312,-12.0703 -27.0312,-26.9921 0,-14.9219 12.1094,-26.9922 27.0312,-26.9922 14.8828,0 26.9922,12.0703 26.9922,26.9922"
       style="fill:#5900ff;fill-opacity:1;fill-rule:nonzero;stroke:#5900ff;stroke-width:7.5;stroke-linecap:round;stroke-linejoin:round;stroke-miterlimit:10;stroke-opacity:1" />
    <path
       id="path116"
       transform="matrix(0.1,0,0,-0.1,0,288)"
       d="m 1756.7188,1628.2813 c 0,14.9218 -12.1094,27.0312 -27.0313,27.0312 -14.8828,0 -26.9922,-12.1094 -26.9922,-27.0312 0,-14.8829 12.1094,-26.9922 26.9922,-26.9922 14.9219,0 27.0313,12.1093 27.0313,26.9922"
       style="fill:#5900ff;fill-opacity:1;fill-rule:nonzero;stroke:#5900ff;stroke-width:7.5;stroke-linecap:round;stroke-linejoin:round;stroke-miterlimit:10;stroke-opacity:1" />
    <path
       id="path118"
       transform="matrix(0.1,0,0,-0.1,0,288)"
       d="m 2527.3828,2231.4063 c 0,14.9218 -12.0703,26.9921 -26.9922,26.9921 -14.8828,0 -26.9922,-12.0703 -26.9922,-26.9921 0,-14.9219 12.1094,-26.9922 26.9922,-26.9922 14.9219,0 26.9922,12.0703 26.9922,26.9922"
       style="fill:#5900ff;fill-opacity:1;fill-rule:nonzero;stroke:#5900ff;stroke-width:7.5;stroke-linecap:round;stroke-linejoin:round;stroke-miterlimit:10;stroke-opacity:1" />
    <path
       id="path120"
       transform="matrix(0.1,0,0,-0.1,0,288)"
       d="m 1603.7891,1508.7109 c 0,14.8829 -12.0703,26.9922 -26.9922,26.9922 -14.9219,0 -26.9922,-12.1093 -26.9922,-26.9922 0,-14.9218 12.0703,-26.9921 26.9922,-26.9921 14.9219,0 26.9922,12.0703 26.9922,26.9921"
       style="fill:#5900ff;fill-opacity:1;fill-rule:nonzero;stroke:#5900ff;stroke-width:7.5;stroke-linecap:round;stroke-linejoin:round;stroke-miterlimit:10;stroke-opacity:1" />
    <path
       id="path122"
       transform="matrix(0.1,0,0,-0.1,0,288)"
       d="m 1961.9141,1788.9063 c 0,14.9218 -12.1094,26.9921 -27.0313,26.9921 -14.8828,0 -26.9922,-12.0703 -26.9922,-26.9921 0,-14.9219 12.1094,-26.9922 26.9922,-26.9922 14.9219,0 27.0313,12.0703 27.0313,26.9922"
       style="fill:#5900ff;fill-opacity:1;fill-rule:nonzero;stroke:#5900ff;stroke-width:7.5;stroke-linecap:round;stroke-linejoin:round;stroke-miterlimit:10;stroke-opacity:1" />
    <path
       id="path124"
       transform="matrix(0.1,0,0,-0.1,0,288)"
       d="m 1623.7891,1524.2969 c 0,14.9219 -12.0703,26.9922 -26.9922,26.9922 -14.9219,0 -26.9922,-12.0703 -26.9922,-26.9922 0,-14.9219 12.0703,-26.9922 26.9922,-26.9922 14.9219,0 26.9922,12.0703 26.9922,26.9922"
       style="fill:#5900ff;fill-opacity:1;fill-rule:nonzero;stroke:#5900ff;stroke-width:7.5;stroke-linecap:round;stroke-linejoin:round;stroke-miterlimit:10;stroke-opacity:1" />
    <path
       id="path126"
       transform="matrix(0.1,0,0,-0.1,0,288)"
       d="m 1892.3828,1734.4922 c 0,14.9219 -12.0703,26.9922 -26.9922,26.9922 -14.8828,0 -26.9922,-12.0703 -26.9922,-26.9922 0,-14.8828 12.1094,-26.9922 26.9922,-26.9922 14.9219,0 26.9922,12.1094 26.9922,26.9922"
       style="fill:#5900ff;fill-opacity:1;fill-rule:nonzero;stroke:#5900ff;stroke-width:7.5;stroke-linecap:round;stroke-linejoin:round;stroke-miterlimit:10;stroke-opacity:1" />
    <path
       id="path128"
       transform="matrix(0.1,0,0,-0.1,0,288)"
       d="m 1848.9844,1700.5078 c 0,14.8828 -12.0703,26.9922 -26.9922,26.9922 -14.8828,0 -26.9922,-12.1094 -26.9922,-26.9922 0,-14.9219 12.1094,-26.9922 26.9922,-26.9922 14.9219,0 26.9922,12.0703 26.9922,26.9922"
       style="fill:#5900ff;fill-opacity:1;fill-rule:nonzero;stroke:#5900ff;stroke-width:7.5;stroke-linecap:round;stroke-linejoin:round;stroke-miterlimit:10;stroke-opacity:1" />
    <path
       id="path130"
       transform="matrix(0.1,0,0,-0.1,0,288)"
       d="m 1529.8047,1450.7031 c 0,14.9219 -12.1094,26.9922 -26.9922,26.9922 -14.9219,0 -27.0312,-12.0703 -27.0312,-26.9922 0,-14.9218 12.1093,-26.9922 27.0312,-26.9922 14.8828,0 26.9922,12.0704 26.9922,26.9922"
       style="fill:#5900ff;fill-opacity:1;fill-rule:nonzero;stroke:#5900ff;stroke-width:7.5;stroke-linecap:round;stroke-linejoin:round;stroke-miterlimit:10;stroke-opacity:1" />
    <path
       id="path132"
       transform="matrix(0.1,0,0,-0.1,0,288)"
       d="m 1312.5,1280.7031 c 0,14.9219 -12.1094,26.9922 -26.9922,26.9922 -14.9219,0 -26.9922,-12.0703 -26.9922,-26.9922 0,-14.9218 12.0703,-26.9922 26.9922,-26.9922 14.8828,0 26.9922,12.0704 26.9922,26.9922"
       style="fill:#5900ff;fill-opacity:1;fill-rule:nonzero;stroke:#5900ff;stroke-width:7.5;stroke-linecap:round;stroke-linejoin:round;stroke-miterlimit:10;stroke-opacity:1" />
    <path
       id="path134"
       transform="matrix(0.1,0,0,-0.1,0,288)"
       d="m 1655.3906,1549.1016 c 0,14.9218 -12.0703,26.9922 -26.9922,26.9922 -14.9218,0 -26.9921,-12.0704 -26.9921,-26.9922 0,-14.9219 12.0703,-26.9922 26.9921,-26.9922 14.9219,0 26.9922,12.0703 26.9922,26.9922"
       style="fill:#5900ff;fill-opacity:1;fill-rule:nonzero;stroke:#5900ff;stroke-width:7.5;stroke-linecap:round;stroke-linejoin:round;stroke-miterlimit:10;stroke-opacity:1" />
    <path
       id="path136"
       transform="matrix(0.1,0,0,-0.1,0,288)"
       d="m 2302.8906,2055.7813 c 0,14.9218 -12.0703,27.0312 -26.9922,27.0312 -14.9218,0 -26.9921,-12.1094 -26.9921,-27.0312 0,-14.8829 12.0703,-26.9922 26.9921,-26.9922 14.9219,0 26.9922,12.1093 26.9922,26.9922"
       style="fill:#5900ff;fill-opacity:1;fill-rule:nonzero;stroke:#5900ff;stroke-width:7.5;stroke-linecap:round;stroke-linejoin:round;stroke-miterlimit:10;stroke-opacity:1" />
    <path
       id="path138"
       transform="matrix(0.1,0,0,-0.1,0,288)"
       d="m 2071.7188,1874.8828 c 0,14.9219 -12.1094,27.0313 -27.0313,27.0313 -14.8828,0 -26.9922,-12.1094 -26.9922,-27.0313 0,-14.8828 12.1094,-26.9922 26.9922,-26.9922 14.9219,0 27.0313,12.1094 27.0313,26.9922"
       style="fill:#5900ff;fill-opacity:1;fill-rule:nonzero;stroke:#5900ff;stroke-width:7.5;stroke-linecap:round;stroke-linejoin:round;stroke-miterlimit:10;stroke-opacity:1" />
    <path
       id="path140"
       transform="matrix(0.1,0,0,-0.1,0,288)"
       d="m 1424.4922,1368.2813 c 0,14.9218 -12.0703,27.0312 -26.9922,27.0312 -14.9219,0 -26.9922,-12.1094 -26.9922,-27.0312 0,-14.8829 12.0703,-26.9922 26.9922,-26.9922 14.9219,0 26.9922,12.1093 26.9922,26.9922"
       style="fill:#5900ff;fill-opacity:1;fill-rule:nonzero;stroke:#5900ff;stroke-width:7.5;stroke-linecap:round;stroke-linejoin:round;stroke-miterlimit:10;stroke-opacity:1" />
    <path
       id="path142"
       transform="matrix(0.1,0,0,-0.1,0,288)"
       d="m 1131.6016,1139.1016 c 0,14.9218 -12.1094,26.9922 -26.9922,26.9922 -14.9219,0 -26.9922,-12.0704 -26.9922,-26.9922 0,-14.9219 12.0703,-26.9922 26.9922,-26.9922 14.8828,0 26.9922,12.0703 26.9922,26.9922"
       style="fill:#5900ff;fill-opacity:1;fill-rule:nonzero;stroke:#5900ff;stroke-width:7.5;stroke-linecap:round;stroke-linejoin:round;stroke-miterlimit:10;stroke-opacity:1" />
    <path
       id="path144"
       transform="matrix(0.1,0,0,-0.1,0,288)"
       d="m 1603.7109,1508.5938 c 0,14.9218 -12.1093,26.9921 -26.9921,26.9921 -14.9219,0 -27.0313,-12.0703 -27.0313,-26.9921 0,-14.9219 12.1094,-26.9922 27.0313,-26.9922 14.8828,0 26.9921,12.0703 26.9921,26.9922"
       style="fill:#5900ff;fill-opacity:1;fill-rule:nonzero;stroke:#5900ff;stroke-width:7.5;stroke-linecap:round;stroke-linejoin:round;stroke-miterlimit:10;stroke-opacity:1" />
    <path
       id="path146"
       transform="matrix(0.1,0,0,-0.1,0,288)"
       d="m 1472.3047,1405.7813 c 0,14.9218 -12.1094,27.0312 -26.9922,27.0312 -14.9219,0 -27.0312,-12.1094 -27.0312,-27.0312 0,-14.8829 12.1093,-26.9922 27.0312,-26.9922 14.8828,0 26.9922,12.1093 26.9922,26.9922"
       style="fill:#5900ff;fill-opacity:1;fill-rule:nonzero;stroke:#5900ff;stroke-width:7.5;stroke-linecap:round;stroke-linejoin:round;stroke-miterlimit:10;stroke-opacity:1" />
    <path
       id="path148"
       transform="matrix(0.1,0,0,-0.1,0,288)"
       d="m 2190.1953,1967.5 c 0,14.9219 -12.0703,26.9922 -26.9922,26.9922 -14.9218,0 -26.9922,-12.0703 -26.9922,-26.9922 0,-14.9219 12.0704,-26.9922 26.9922,-26.9922 14.9219,0 26.9922,12.0703 26.9922,26.9922"
       style="fill:#5900ff;fill-opacity:1;fill-rule:nonzero;stroke:#5900ff;stroke-width:7.5;stroke-linecap:round;stroke-linejoin:round;stroke-miterlimit:10;stroke-opacity:1" />
    <path
       id="path150"
       transform="matrix(0.1,0,0,-0.1,0,288)"
       d="m 1935.5859,1768.2813 c 0,14.9218 -12.0703,27.0312 -26.9921,27.0312 -14.9219,0 -26.9922,-12.1094 -26.9922,-27.0312 0,-14.8829 12.0703,-26.9922 26.9922,-26.9922 14.9218,0 26.9921,12.1093 26.9921,26.9922"
       style="fill:#5900ff;fill-opacity:1;fill-rule:nonzero;stroke:#5900ff;stroke-width:7.5;stroke-linecap:round;stroke-linejoin:round;stroke-miterlimit:10;stroke-opacity:1" />
    <path
       id="path152"
       transform="matrix(0.1,0,0,-0.1,0,288)"
       d="m 1590.1953,1498.0078 c 0,14.8828 -12.0703,26.9922 -26.9922,26.9922 -14.9218,0 -26.9922,-12.1094 -26.9922,-26.9922 0,-14.9219 12.0704,-26.9922 26.9922,-26.9922 14.9219,0 26.9922,12.0703 26.9922,26.9922"
       style="fill:#5900ff;fill-opacity:1;fill-rule:nonzero;stroke:#5900ff;stroke-width:7.5;stroke-linecap:round;stroke-linejoin:round;stroke-miterlimit:10;stroke-opacity:1" />
    <path
       id="path154"
       transform="matrix(0.1,0,0,-0.1,0,288)"
       d="m 1818.7109,1676.7969 c 0,14.9219 -12.1093,26.9922 -26.9921,26.9922 -14.9219,0 -27.0313,-12.0703 -27.0313,-26.9922 0,-14.9219 12.1094,-26.9922 27.0313,-26.9922 14.8828,0 26.9921,12.0703 26.9921,26.9922"
       style="fill:#5900ff;fill-opacity:1;fill-rule:nonzero;stroke:#5900ff;stroke-width:7.5;stroke-linecap:round;stroke-linejoin:round;stroke-miterlimit:10;stroke-opacity:1" />
    <path
       id="path156"
       transform="matrix(0.1,0,0,-0.1,0,288)"
       d="m 947.10937,994.6875 c 0,14.9219 -12.10937,27.0312 -26.99218,27.0312 -14.92188,0 -27.03125,-12.1093 -27.03125,-27.0312 0,-14.88281 12.10937,-26.99219 27.03125,-26.99219 14.88281,0 26.99218,12.10938 26.99218,26.99219"
       style="fill:#5900ff;fill-opacity:1;fill-rule:nonzero;stroke:#5900ff;stroke-width:7.5;stroke-linecap:round;stroke-linejoin:round;stroke-miterlimit:10;stroke-opacity:1" />
    <path
       id="path158"
       transform="matrix(0.1,0,0,-0.1,0,288)"
       d="m 2227.1094,1996.4063 c 0,14.9218 -12.1094,26.9921 -26.9922,26.9921 -14.9219,0 -27.0313,-12.0703 -27.0313,-26.9921 0,-14.9219 12.1094,-26.9922 27.0313,-26.9922 14.8828,0 26.9922,12.0703 26.9922,26.9922"
       style="fill:#5900ff;fill-opacity:1;fill-rule:nonzero;stroke:#5900ff;stroke-width:7.5;stroke-linecap:round;stroke-linejoin:round;stroke-miterlimit:10;stroke-opacity:1" />
    <path
       id="path160"
       transform="matrix(0.1,0,0,-0.1,0,288)"
       d="m 1741.9922,1616.7969 c 0,14.9219 -12.0703,26.9922 -26.9922,26.9922 -14.9219,0 -26.9922,-12.0703 -26.9922,-26.9922 0,-14.9219 12.0703,-26.9922 26.9922,-26.9922 14.9219,0 26.9922,12.0703 26.9922,26.9922"
       style="fill:#5900ff;fill-opacity:1;fill-rule:nonzero;stroke:#5900ff;stroke-width:7.5;stroke-linecap:round;stroke-linejoin:round;stroke-miterlimit:10;stroke-opacity:1" />
    <path
       id="path162"
       transform="matrix(0.1,0,0,-0.1,0,288)"
       d="m 1401.6016,1350.3906 c 0,14.9219 -12.1094,26.9922 -26.9922,26.9922 -14.9219,0 -26.9922,-12.0703 -26.9922,-26.9922 0,-14.8828 12.0703,-26.9922 26.9922,-26.9922 14.8828,0 26.9922,12.1094 26.9922,26.9922"
       style="fill:#5900ff;fill-opacity:1;fill-rule:nonzero;stroke:#5900ff;stroke-width:7.5;stroke-linecap:round;stroke-linejoin:round;stroke-miterlimit:10;stroke-opacity:1" />
    <path
       id="path164"
       transform="matrix(0.1,0,0,-0.1,0,288)"
       d="m 1632.6953,1531.2109 c 0,14.8829 -12.0703,26.9922 -26.9922,26.9922 -14.9218,0 -26.9922,-12.1093 -26.9922,-26.9922 0,-14.9218 12.0704,-26.9921 26.9922,-26.9921 14.9219,0 26.9922,12.0703 26.9922,26.9921"
       style="fill:#5900ff;fill-opacity:1;fill-rule:nonzero;stroke:#5900ff;stroke-width:7.5;stroke-linecap:round;stroke-linejoin:round;stroke-miterlimit:10;stroke-opacity:1" />
    <path
       id="path166"
       transform="matrix(0.1,0,0,-0.1,0,288)"
       d="m 1253.3984,1234.4141 c 0,14.8828 -12.0703,26.9922 -26.9921,26.9922 -14.9219,0 -26.9922,-12.1094 -26.9922,-26.9922 0,-14.9219 12.0703,-27.0313 26.9922,-27.0313 14.9218,0 26.9921,12.1094 26.9921,27.0313"
       style="fill:#5900ff;fill-opacity:1;fill-rule:nonzero;stroke:#5900ff;stroke-width:7.5;stroke-linecap:round;stroke-linejoin:round;stroke-miterlimit:10;stroke-opacity:1" />
    <path
       id="path168"
       transform="matrix(0.1,0,0,-0.1,0,288)"
       d="m 2136.6016,1925.5859 c 0,14.9219 -12.1094,27.0313 -26.9922,27.0313 -14.9219,0 -26.9922,-12.1094 -26.9922,-27.0313 0,-14.8828 12.0703,-26.9921 26.9922,-26.9921 14.8828,0 26.9922,12.1093 26.9922,26.9921"
       style="fill:#5900ff;fill-opacity:1;fill-rule:nonzero;stroke:#5900ff;stroke-width:7.5;stroke-linecap:round;stroke-linejoin:round;stroke-miterlimit:10;stroke-opacity:1" />
    <path
       id="path170"
       transform="matrix(0.1,0,0,-0.1,0,288)"
       d="m 1315.7031,1283.2031 c 0,14.9219 -12.1093,26.9922 -26.9922,26.9922 -14.9218,0 -26.9921,-12.0703 -26.9921,-26.9922 0,-14.9218 12.0703,-26.9922 26.9921,-26.9922 14.8829,0 26.9922,12.0704 26.9922,26.9922"
       style="fill:#5900ff;fill-opacity:1;fill-rule:nonzero;stroke:#5900ff;stroke-width:7.5;stroke-linecap:round;stroke-linejoin:round;stroke-miterlimit:10;stroke-opacity:1" />
    <path
       id="path172"
       transform="matrix(0.1,0,0,-0.1,0,288)"
       d="m 1625.3906,1525.5859 c 0,14.9219 -12.0703,27.0313 -26.9922,27.0313 -14.9218,0 -26.9921,-12.1094 -26.9921,-27.0313 0,-14.8828 12.0703,-26.9921 26.9921,-26.9921 14.9219,0 26.9922,12.1093 26.9922,26.9921"
       style="fill:#5900ff;fill-opacity:1;fill-rule:nonzero;stroke:#5900ff;stroke-width:7.5;stroke-linecap:round;stroke-linejoin:round;stroke-miterlimit:10;stroke-opacity:1" />
    <path
       id="path174"
       transform="matrix(0.1,0,0,-0.1,0,288)"
       d="m 1798.0078,1660.5859 c 0,14.9219 -12.1094,27.0313 -26.9922,27.0313 -14.9218,0 -27.0312,-12.1094 -27.0312,-27.0313 0,-14.8828 12.1094,-26.9921 27.0312,-26.9921 14.8828,0 26.9922,12.1093 26.9922,26.9921"
       style="fill:#5900ff;fill-opacity:1;fill-rule:nonzero;stroke:#5900ff;stroke-width:7.5;stroke-linecap:round;stroke-linejoin:round;stroke-miterlimit:10;stroke-opacity:1" />
    <path
       id="path176"
       transform="matrix(0.1,0,0,-0.1,0,288)"
       d="m 2185,1963.5156 c 0,14.8828 -12.1094,26.9922 -26.9922,26.9922 -14.9219,0 -26.9922,-12.1094 -26.9922,-26.9922 0,-14.9218 12.0703,-27.0312 26.9922,-27.0312 14.8828,0 26.9922,12.1094 26.9922,27.0312"
       style="fill:#5900ff;fill-opacity:1;fill-rule:nonzero;stroke:#5900ff;stroke-width:7.5;stroke-linecap:round;stroke-linejoin:round;stroke-miterlimit:10;stroke-opacity:1" />
    <path
       id="path178"
       transform="matrix(0.1,0,0,-0.1,0,288)"
       d="m 2053.3984,1860.5078 c 0,14.8828 -12.0703,26.9922 -26.9921,26.9922 -14.9219,0 -26.9922,-12.1094 -26.9922,-26.9922 0,-14.9219 12.0703,-26.9922 26.9922,-26.9922 14.9218,0 26.9921,12.0703 26.9921,26.9922"
       style="fill:#5900ff;fill-opacity:1;fill-rule:nonzero;stroke:#5900ff;stroke-width:7.5;stroke-linecap:round;stroke-linejoin:round;stroke-miterlimit:10;stroke-opacity:1" />
    <path
       id="path180"
       transform="matrix(0.1,0,0,-0.1,0,288)"
       d="m 1525.7031,1447.5 c 0,14.9219 -12.1093,26.9922 -26.9922,26.9922 -14.9218,0 -26.9921,-12.0703 -26.9921,-26.9922 0,-14.9219 12.0703,-26.9922 26.9921,-26.9922 14.8829,0 26.9922,12.0703 26.9922,26.9922"
       style="fill:#5900ff;fill-opacity:1;fill-rule:nonzero;stroke:#5900ff;stroke-width:7.5;stroke-linecap:round;stroke-linejoin:round;stroke-miterlimit:10;stroke-opacity:1" />
    <path
       id="path182"
       transform="matrix(0.1,0,0,-0.1,0,288)"
       d="m 2075.3906,1877.6953 c 0,14.9219 -12.0703,26.9922 -26.9922,26.9922 -14.9218,0 -26.9921,-12.0703 -26.9921,-26.9922 0,-14.9219 12.0703,-26.9922 26.9921,-26.9922 14.9219,0 26.9922,12.0703 26.9922,26.9922"
       style="fill:#5900ff;fill-opacity:1;fill-rule:nonzero;stroke:#5900ff;stroke-width:7.5;stroke-linecap:round;stroke-linejoin:round;stroke-miterlimit:10;stroke-opacity:1" />
    <path
       id="path184"
       transform="matrix(0.1,0,0,-0.1,0,288)"
       d="m 2302.3828,2055.3125 c 0,14.8828 -12.0703,26.9922 -26.9922,26.9922 -14.8828,0 -26.9922,-12.1094 -26.9922,-26.9922 0,-14.9219 12.1094,-27.0312 26.9922,-27.0312 14.9219,0 26.9922,12.1093 26.9922,27.0312"
       style="fill:#5900ff;fill-opacity:1;fill-rule:nonzero;stroke:#5900ff;stroke-width:7.5;stroke-linecap:round;stroke-linejoin:round;stroke-miterlimit:10;stroke-opacity:1" />
    <path
       id="path186"
       transform="matrix(0.1,0,0,-0.1,0,288)"
       d="m 2096.2891,1894.1016 c 0,14.9218 -12.0703,26.9922 -26.9922,26.9922 -14.9219,0 -26.9922,-12.0704 -26.9922,-26.9922 0,-14.9219 12.0703,-26.9922 26.9922,-26.9922 14.9219,0 26.9922,12.0703 26.9922,26.9922"
       style="fill:#5900ff;fill-opacity:1;fill-rule:nonzero;stroke:#5900ff;stroke-width:7.5;stroke-linecap:round;stroke-linejoin:round;stroke-miterlimit:10;stroke-opacity:1" />
    <path
       id="path188"
       transform="matrix(0.1,0,0,-0.1,0,288)"
       d="m 2014.8047,1830.3125 c 0,14.8828 -12.1094,26.9922 -26.9922,26.9922 -14.9219,0 -27.0312,-12.1094 -27.0312,-26.9922 0,-14.9219 12.1093,-27.0312 27.0312,-27.0312 14.8828,0 26.9922,12.1093 26.9922,27.0312"
       style="fill:#5900ff;fill-opacity:1;fill-rule:nonzero;stroke:#5900ff;stroke-width:7.5;stroke-linecap:round;stroke-linejoin:round;stroke-miterlimit:10;stroke-opacity:1" />
    <path
       id="path190"
       transform="matrix(0.1,0,0,-0.1,0,288)"
       d="m 1487.8906,1418.0078 c 0,14.8828 -12.0703,26.9922 -26.9922,26.9922 -14.9218,0 -26.9921,-12.1094 -26.9921,-26.9922 0,-14.9219 12.0703,-26.9922 26.9921,-26.9922 14.9219,0 26.9922,12.0703 26.9922,26.9922"
       style="fill:#5900ff;fill-opacity:1;fill-rule:nonzero;stroke:#5900ff;stroke-width:7.5;stroke-linecap:round;stroke-linejoin:round;stroke-miterlimit:10;stroke-opacity:1" />
    <path
       id="path192"
       transform="matrix(0.1,0,0,-0.1,0,288)"
       d="m 2385.5859,2120.5078 c 0,14.8828 -12.0703,26.9922 -26.9921,26.9922 -14.9219,0 -26.9922,-12.1094 -26.9922,-26.9922 0,-14.9219 12.0703,-26.9922 26.9922,-26.9922 14.9218,0 26.9921,12.0703 26.9921,26.9922"
       style="fill:#5900ff;fill-opacity:1;fill-rule:nonzero;stroke:#5900ff;stroke-width:7.5;stroke-linecap:round;stroke-linejoin:round;stroke-miterlimit:10;stroke-opacity:1" />
    <path
       id="path194"
       transform="matrix(0.1,0,0,-0.1,0,288)"
       d="m 1871.4063,1718.0859 c 0,14.9219 -12.1094,27.0313 -26.9922,27.0313 -14.9219,0 -27.0313,-12.1094 -27.0313,-27.0313 0,-14.8828 12.1094,-26.9921 27.0313,-26.9921 14.8828,0 26.9922,12.1093 26.9922,26.9921"
       style="fill:#5900ff;fill-opacity:1;fill-rule:nonzero;stroke:#5900ff;stroke-width:7.5;stroke-linecap:round;stroke-linejoin:round;stroke-miterlimit:10;stroke-opacity:1" />
    <path
       id="path196"
       transform="matrix(0.1,0,0,-0.1,0,288)"
       d="m 2133.0859,1922.8906 c 0,14.9219 -12.0703,26.9922 -26.9921,26.9922 -14.9219,0 -26.9922,-12.0703 -26.9922,-26.9922 0,-14.8828 12.0703,-26.9922 26.9922,-26.9922 14.9218,0 26.9921,12.1094 26.9921,26.9922"
       style="fill:#5900ff;fill-opacity:1;fill-rule:nonzero;stroke:#5900ff;stroke-width:7.5;stroke-linecap:round;stroke-linejoin:round;stroke-miterlimit:10;stroke-opacity:1" />
    <path
       id="path198"
       transform="matrix(0.1,0,0,-0.1,0,288)"
       d="m 1884.8047,1728.5156 c 0,14.8828 -12.1094,26.9922 -26.9922,26.9922 -14.9219,0 -27.0312,-12.1094 -27.0312,-26.9922 0,-14.9218 12.1093,-27.0312 27.0312,-27.0312 14.8828,0 26.9922,12.1094 26.9922,27.0312"
       style="fill:#5900ff;fill-opacity:1;fill-rule:nonzero;stroke:#5900ff;stroke-width:7.5;stroke-linecap:round;stroke-linejoin:round;stroke-miterlimit:10;stroke-opacity:1" />
    <path
       id="path200"
       transform="matrix(0.1,0,0,-0.1,0,288)"
       d="m 1618.0859,1519.8047 c 0,14.9219 -12.0703,26.9922 -26.9921,26.9922 -14.9219,0 -26.9922,-12.0703 -26.9922,-26.9922 0,-14.9219 12.0703,-26.9922 26.9922,-26.9922 14.9218,0 26.9921,12.0703 26.9921,26.9922"
       style="fill:#5900ff;fill-opacity:1;fill-rule:nonzero;stroke:#5900ff;stroke-width:7.5;stroke-linecap:round;stroke-linejoin:round;stroke-miterlimit:10;stroke-opacity:1" />
    <path
       id="path202"
       transform="matrix(0.1,0,0,-0.1,0,288)"
       d="m 1965,1791.2891 c 0,14.9218 -12.1094,26.9922 -26.9922,26.9922 -14.9219,0 -26.9922,-12.0704 -26.9922,-26.9922 0,-14.8828 12.0703,-26.9922 26.9922,-26.9922 14.8828,0 26.9922,12.1094 26.9922,26.9922"
       style="fill:#5900ff;fill-opacity:1;fill-rule:nonzero;stroke:#5900ff;stroke-width:7.5;stroke-linecap:round;stroke-linejoin:round;stroke-miterlimit:10;stroke-opacity:1" />
  </g>
</svg>
