<?xml version="1.0" encoding="UTF-8" standalone="no"?>
<svg
   xmlns:dc="http://purl.org/dc/elements/1.1/"
   xmlns:cc="http://creativecommons.org/ns#"
   xmlns:rdf="http://www.w3.org/1999/02/22-rdf-syntax-ns#"
   xmlns:svg="http://www.w3.org/2000/svg"
   xmlns="http://www.w3.org/2000/svg"
   viewBox="0 0 1080 330"
   height="330"
   width="1080"
   xml:space="preserve"
   id="svg2"
   version="1.1"><metadata
     id="metadata8"><rdf:RDF><cc:Work
         rdf:about=""><dc:format>image/svg+xml</dc:format><dc:type
           rdf:resource="http://purl.org/dc/dcmitype/StillImage" /><dc:title></dc:title></cc:Work></rdf:RDF></metadata><defs
     id="defs6"><clipPath
       id="clipPath22"
       clipPathUnits="userSpaceOnUse"><path
         id="path20"
         d="m 456.398,2769.4 h 5040 v 2880 h -5040 z" /></clipPath><clipPath
       id="clipPath48"
       clipPathUnits="userSpaceOnUse"><path
         id="path46"
         d="M 1046.8,3503.8 H 5194 V 5059 H 1046.8 Z" /></clipPath><clipPath
       id="clipPath80"
       clipPathUnits="userSpaceOnUse"><path
         id="path78"
         d="m 456.398,2769.4 h 5040 v 2880 h -5040 z" /></clipPath><clipPath
       clipPathUnits="userSpaceOnUse"
       id="clipPath933"><path
         d="m 456.398,2769.4 h 5040 v 2880 h -5040 z"
         id="path931" /></clipPath><clipPath
       clipPathUnits="userSpaceOnUse"
       id="clipPath959"><path
         d="M 1046.8,3503.8 H 5194 V 5059 H 1046.8 Z"
         id="path957" /></clipPath><clipPath
       clipPathUnits="userSpaceOnUse"
       id="clipPath991"><path
         d="m 456.398,2769.4 h 5040 v 2880 h -5040 z"
         id="path989" /></clipPath></defs><g
     transform="matrix(1.3333333,0,0,-1.3333333,0,1056)"
     id="g10"><g
       transform="translate(-112.165,230.52902)"
       id="g1625"><g
         id="g16"
         transform="scale(0.1)"><g
           clip-path="url(#clipPath22)"
           id="g18"><path
             id="path24"
             style="fill:none;stroke:#333333;stroke-width:7.5;stroke-linecap:round;stroke-linejoin:round;stroke-miterlimit:10;stroke-dasharray:none;stroke-opacity:1"
             d="m 1200.4,3503.8 h 3840" /><path
             id="path26"
             style="fill:none;stroke:#333333;stroke-width:7.5;stroke-linecap:round;stroke-linejoin:round;stroke-miterlimit:10;stroke-dasharray:none;stroke-opacity:1"
             d="m 1200.4,3503.8 v -72" /><path
             id="path28"
             style="fill:none;stroke:#333333;stroke-width:7.5;stroke-linecap:round;stroke-linejoin:round;stroke-miterlimit:10;stroke-dasharray:none;stroke-opacity:1"
             d="m 2352.4,3503.8 v -72" /><path
             id="path30"
             style="fill:none;stroke:#333333;stroke-width:7.5;stroke-linecap:round;stroke-linejoin:round;stroke-miterlimit:10;stroke-dasharray:none;stroke-opacity:1"
             d="m 3072.4,3503.8 v -72" /><path
             id="path32"
             style="fill:none;stroke:#333333;stroke-width:7.5;stroke-linecap:round;stroke-linejoin:round;stroke-miterlimit:10;stroke-dasharray:none;stroke-opacity:1"
             d="m 3792.4,3503.8 v -72" /><path
             id="path34"
             style="fill:none;stroke:#333333;stroke-width:7.5;stroke-linecap:round;stroke-linejoin:round;stroke-miterlimit:10;stroke-dasharray:none;stroke-opacity:1"
             d="m 5040.4,3503.8 v -72" /><g
             transform="scale(10)"
             id="g36"><text
               id="text40"
               style="font-variant:normal;font-weight:normal;font-size:16px;font-family:Helvetica;-inkscape-font-specification:Helvetica;writing-mode:lr-tb;fill:#000000;fill-opacity:1;fill-rule:nonzero;stroke:none"
               transform="matrix(1,0,0,-1,208.113,324.46)"><tspan
                 id="tspan38"
                 y="0"
                 x="0 8.8959999 14.224 23.120001 32.015999 40.911999 45.360001 72 80.896004 86.223999 95.120003 104.016 112.912 117.36 144 152.896 158.224 167.12 176.01601 184.912 189.36">group 1group 2group 3</tspan></text></g></g></g><g
         id="g42"
         transform="scale(0.1)"><g
           clip-path="url(#clipPath48)"
           id="g44"><path
             id="path50"
             style="fill:none;stroke:#333333;stroke-width:7.5;stroke-linecap:round;stroke-linejoin:round;stroke-miterlimit:10;stroke-dasharray:none;stroke-opacity:1"
             d="m 1200.4,3574.2 38.4,4.4 38.4,5.6 38.4,7.3 38.4,9.1 38.4,11.3 38.4,14 38.4,17.1 38.4,20.6 38.4,24.5 38.4,28.8 38.4,33.5 38.4,38.4 38.4,43.5 38.4,48.6 38.4,53.6 38.4,58.2 38.4,62.3 38.4,65.7 38.4,68.2 38.4,69.4 38.4,69.5 38.4,68 38.4,64.9 38.4,60.4 38.4,54.3 38.4,46.7 38.4,37.7 38.4,27.9 38.4,17 38.4,5.7 38.4,-5.7 38.4,-17 38.4,-27.9 38.4,-37.7 38.4,-46.7 38.4,-54.3 38.4,-60.4 38.4,-64.9 38.4,-68 38.4,-69.5 38.4,-69.4 38.4,-68.2 38.4,-65.7 38.4,-62.3 38.4,-58.2 38.4,-53.6 38.4,-48.6 38.4,-43.5 38.4,-38.4 38.4,-33.5 38.4,-28.8 38.4,-24.5 38.4,-20.6 38.4,-17.1 38.4,-14 38.4,-11.3 38.4,-9.1 38.4,-7.3 38.4,-5.6 38.4,-4.4" /><path
             id="path52"
             style="fill:none;stroke:#333333;stroke-width:7.5;stroke-linecap:round;stroke-linejoin:round;stroke-miterlimit:10;stroke-dasharray:none;stroke-opacity:1"
             d="m 1920.4,3574.2 38.4,4.4 38.4,5.6 38.4,7.3 38.4,9.1 38.4,11.3 38.4,14 38.4,17.1 38.4,20.6 38.4,24.5 38.4,28.8 38.4,33.5 38.4,38.4 38.4,43.5 38.4,48.6 38.4,53.6 38.4,58.2 38.4,62.3 38.4,65.7 38.4,68.2 38.4,69.4 38.4,69.5 38.4,68 38.4,64.9 38.4,60.4 38.4,54.3 38.4,46.7 38.4,37.7 38.4,27.9 38.4,17 38.4,5.7 38.4,-5.7 38.4,-17 38.4,-27.9 38.4,-37.7 38.4,-46.7 38.4,-54.3 38.4,-60.4 38.4,-64.9 38.4,-68 38.4,-69.5 38.4,-69.4 38.4,-68.2 38.4,-65.7 38.4,-62.3 38.4,-58.2 38.4,-53.6 38.4,-48.6 38.4,-43.5 38.4,-38.4 38.4,-33.5 38.4,-28.8 38.4,-24.5 38.4,-20.6 38.4,-17.1 38.4,-14 38.4,-11.3 38.4,-9.1 38.4,-7.3 38.4,-5.6 38.4,-4.4" /><path
             id="path54"
             style="fill:none;stroke:#333333;stroke-width:7.5;stroke-linecap:round;stroke-linejoin:round;stroke-miterlimit:10;stroke-dasharray:none;stroke-opacity:1"
             d="m 2640.4,3574.2 38.4,4.4 38.4,5.6 38.4,7.3 38.4,9.1 38.4,11.3 38.4,14 38.4,17.1 38.4,20.6 38.4,24.5 38.4,28.8 38.4,33.5 38.4,38.4 38.4,43.5 38.4,48.6 38.4,53.6 38.4,58.2 38.4,62.3 38.4,65.7 38.4,68.2 38.4,69.4 38.4,69.5 38.4,68 38.4,64.9 38.4,60.4 38.4,54.3 38.4,46.7 38.4,37.7 38.4,27.9 38.4,17 38.4,5.7 38.4,-5.7 38.4,-17 38.4,-27.9 38.4,-37.7 38.4,-46.7 38.4,-54.3 38.4,-60.4 38.4,-64.9 38.4,-68 38.4,-69.5 38.4,-69.4 38.4,-68.2 38.4,-65.7 38.4,-62.3 38.4,-58.2 38.4,-53.6 38.4,-48.6 38.4,-43.5 38.4,-38.4 38.4,-33.5 38.4,-28.8 38.4,-24.5 38.4,-20.6 38.4,-17.1 38.4,-14 38.4,-11.3 38.4,-9.1 38.4,-7.3 38.4,-5.6 38.4,-4.4" /><path
             id="path56"
             style="fill:none;stroke:#000000;stroke-width:15;stroke-linecap:round;stroke-linejoin:round;stroke-miterlimit:10;stroke-dasharray:none;stroke-opacity:1"
             d="m 2064.4,4339 h 576" /><path
             id="path58"
             style="fill:none;stroke:#000000;stroke-width:15;stroke-linecap:round;stroke-linejoin:round;stroke-miterlimit:10;stroke-dasharray:none;stroke-opacity:1"
             d="m 2220.3,4429 -155.9,-90 155.9,-90" /><path
             id="path60"
             style="fill:none;stroke:#000000;stroke-width:15;stroke-linecap:round;stroke-linejoin:round;stroke-miterlimit:10;stroke-dasharray:none;stroke-opacity:1"
             d="m 2484.5,4249 155.9,90 -155.9,90" /><path
             id="path62"
             style="fill:none;stroke:#000000;stroke-width:15;stroke-linecap:round;stroke-linejoin:round;stroke-miterlimit:10;stroke-dasharray:none;stroke-opacity:1"
             d="m 2784.4,4339 h 576" /><path
             id="path64"
             style="fill:none;stroke:#000000;stroke-width:15;stroke-linecap:round;stroke-linejoin:round;stroke-miterlimit:10;stroke-dasharray:none;stroke-opacity:1"
             d="m 2940.3,4429 -155.9,-90 155.9,-90" /><path
             id="path66"
             style="fill:none;stroke:#000000;stroke-width:15;stroke-linecap:round;stroke-linejoin:round;stroke-miterlimit:10;stroke-dasharray:none;stroke-opacity:1"
             d="m 3204.5,4249 155.9,90 -155.9,90" /><path
             id="path68"
             style="fill:none;stroke:#000000;stroke-width:15;stroke-linecap:round;stroke-linejoin:round;stroke-miterlimit:10;stroke-dasharray:none;stroke-opacity:1"
             d="m 3504.4,4339 h 576" /><path
             id="path70"
             style="fill:none;stroke:#000000;stroke-width:15;stroke-linecap:round;stroke-linejoin:round;stroke-miterlimit:10;stroke-dasharray:none;stroke-opacity:1"
             d="m 3660.3,4429 -155.9,-90 155.9,-90" /><path
             id="path72"
             style="fill:none;stroke:#000000;stroke-width:15;stroke-linecap:round;stroke-linejoin:round;stroke-miterlimit:10;stroke-dasharray:none;stroke-opacity:1"
             d="m 3924.5,4249 155.9,90 -155.9,90" /></g></g><g
         id="g74"
         transform="scale(0.1)"><g
           clip-path="url(#clipPath80)"
           id="g76"><g
             transform="scale(10)"
             id="g82"><text
               id="text88"
               style="font-variant:normal;font-weight:normal;font-size:19px;font-family:Helvetica;-inkscape-font-specification:Helvetica;writing-mode:lr-tb;fill:#000000;fill-opacity:1;fill-rule:nonzero;stroke:none"
               transform="matrix(1,0,0,-1,217.27,540.12)"><tspan
                 id="tspan84"
                 y="0"
                 x="0 17.936001 22.153999 27.436001 38 42.217999 52.782001 63.877998 74.442001 80.768997 91.333 101.897 112.461 117.743 126.76797 137.33197 143.94415 148.16216 158.72615 164.00815 168.22615 178.79016">Within−group variation</tspan><tspan
                 id="tspan86"
                 y="23.039801"
                 x="-52.0098 -45.6828 -41.464802 -36.1828 -25.903944 -20.621944 -15.339945 -10.057944 0.50605559 10.499963 19.999962 24.217962 34.781963 40.063961 44.281963 54.845963 65.409966 74.909966 80.191963 85.473961 91.800964 102.36496 118.19196 123.47396 134.03796 140.36496 150.92896 161.49297 172.05696 177.33896 193.16597 203.72997 214.29396 224.85796 234.35796">(i.e., deviations from group means)</tspan></text></g></g></g></g><g
       transform="translate(300.33501,230.52902)"
       id="g1690"><g
         transform="scale(0.1)"
         id="g927"><g
           id="g929"
           clip-path="url(#clipPath933)"><path
             d="m 1200.4,3503.8 h 3840"
             style="fill:none;stroke:#333333;stroke-width:7.5;stroke-linecap:round;stroke-linejoin:round;stroke-miterlimit:10;stroke-dasharray:none;stroke-opacity:1"
             id="path935" /><path
             d="m 1200.4,3503.8 v -72"
             style="fill:none;stroke:#333333;stroke-width:7.5;stroke-linecap:round;stroke-linejoin:round;stroke-miterlimit:10;stroke-dasharray:none;stroke-opacity:1"
             id="path937" /><path
             d="m 2352.4,3503.8 v -72"
             style="fill:none;stroke:#333333;stroke-width:7.5;stroke-linecap:round;stroke-linejoin:round;stroke-miterlimit:10;stroke-dasharray:none;stroke-opacity:1"
             id="path939" /><path
             d="m 3072.4,3503.8 v -72"
             style="fill:none;stroke:#333333;stroke-width:7.5;stroke-linecap:round;stroke-linejoin:round;stroke-miterlimit:10;stroke-dasharray:none;stroke-opacity:1"
             id="path941" /><path
             d="m 3792.4,3503.8 v -72"
             style="fill:none;stroke:#333333;stroke-width:7.5;stroke-linecap:round;stroke-linejoin:round;stroke-miterlimit:10;stroke-dasharray:none;stroke-opacity:1"
             id="path943" /><path
             d="m 5040.4,3503.8 v -72"
             style="fill:none;stroke:#333333;stroke-width:7.5;stroke-linecap:round;stroke-linejoin:round;stroke-miterlimit:10;stroke-dasharray:none;stroke-opacity:1"
             id="path945" /><g
             id="g947"
             transform="scale(10)"><text
               transform="matrix(1,0,0,-1,208.113,324.46)"
               style="font-variant:normal;font-weight:normal;font-size:16px;font-family:Helvetica;-inkscape-font-specification:Helvetica;writing-mode:lr-tb;fill:#000000;fill-opacity:1;fill-rule:nonzero;stroke:none"
               id="text951"><tspan
                 x="0 8.8959999 14.224 23.120001 32.015999 40.911999 45.360001 72 80.896004 86.223999 95.120003 104.016 112.912 117.36 144 152.896 158.224 167.12 176.01601 184.912 189.36"
                 y="0"
                 id="tspan949">group 1group 2group 3</tspan></text></g></g></g><g
         transform="scale(0.1)"
         id="g953"><g
           id="g955"
           clip-path="url(#clipPath959)"><path
             d="m 1200.4,3574.2 38.4,4.4 38.4,5.6 38.4,7.3 38.4,9.1 38.4,11.3 38.4,14 38.4,17.1 38.4,20.6 38.4,24.5 38.4,28.8 38.4,33.5 38.4,38.4 38.4,43.5 38.4,48.6 38.4,53.6 38.4,58.2 38.4,62.3 38.4,65.7 38.4,68.2 38.4,69.4 38.4,69.5 38.4,68 38.4,64.9 38.4,60.4 38.4,54.3 38.4,46.7 38.4,37.7 38.4,27.9 38.4,17 38.4,5.7 38.4,-5.7 38.4,-17 38.4,-27.9 38.4,-37.7 38.4,-46.7 38.4,-54.3 38.4,-60.4 38.4,-64.9 38.4,-68 38.4,-69.5 38.4,-69.4 38.4,-68.2 38.4,-65.7 38.4,-62.3 38.4,-58.2 38.4,-53.6 38.4,-48.6 38.4,-43.5 38.4,-38.4 38.4,-33.5 38.4,-28.8 38.4,-24.5 38.4,-20.6 38.4,-17.1 38.4,-14 38.4,-11.3 38.4,-9.1 38.4,-7.3 38.4,-5.6 38.4,-4.4"
             style="fill:none;stroke:#333333;stroke-width:7.5;stroke-linecap:round;stroke-linejoin:round;stroke-miterlimit:10;stroke-dasharray:none;stroke-opacity:1"
             id="path961" /><path
             d="m 1920.4,3574.2 38.4,4.4 38.4,5.6 38.4,7.3 38.4,9.1 38.4,11.3 38.4,14 38.4,17.1 38.4,20.6 38.4,24.5 38.4,28.8 38.4,33.5 38.4,38.4 38.4,43.5 38.4,48.6 38.4,53.6 38.4,58.2 38.4,62.3 38.4,65.7 38.4,68.2 38.4,69.4 38.4,69.5 38.4,68 38.4,64.9 38.4,60.4 38.4,54.3 38.4,46.7 38.4,37.7 38.4,27.9 38.4,17 38.4,5.7 38.4,-5.7 38.4,-17 38.4,-27.9 38.4,-37.7 38.4,-46.7 38.4,-54.3 38.4,-60.4 38.4,-64.9 38.4,-68 38.4,-69.5 38.4,-69.4 38.4,-68.2 38.4,-65.7 38.4,-62.3 38.4,-58.2 38.4,-53.6 38.4,-48.6 38.4,-43.5 38.4,-38.4 38.4,-33.5 38.4,-28.8 38.4,-24.5 38.4,-20.6 38.4,-17.1 38.4,-14 38.4,-11.3 38.4,-9.1 38.4,-7.3 38.4,-5.6 38.4,-4.4"
             style="fill:none;stroke:#333333;stroke-width:7.5;stroke-linecap:round;stroke-linejoin:round;stroke-miterlimit:10;stroke-dasharray:none;stroke-opacity:1"
             id="path963" /><path
             d="m 2640.4,3574.2 38.4,4.4 38.4,5.6 38.4,7.3 38.4,9.1 38.4,11.3 38.4,14 38.4,17.1 38.4,20.6 38.4,24.5 38.4,28.8 38.4,33.5 38.4,38.4 38.4,43.5 38.4,48.6 38.4,53.6 38.4,58.2 38.4,62.3 38.4,65.7 38.4,68.2 38.4,69.4 38.4,69.5 38.4,68 38.4,64.9 38.4,60.4 38.4,54.3 38.4,46.7 38.4,37.7 38.4,27.9 38.4,17 38.4,5.7 38.4,-5.7 38.4,-17 38.4,-27.9 38.4,-37.7 38.4,-46.7 38.4,-54.3 38.4,-60.4 38.4,-64.9 38.4,-68 38.4,-69.5 38.4,-69.4 38.4,-68.2 38.4,-65.7 38.4,-62.3 38.4,-58.2 38.4,-53.6 38.4,-48.6 38.4,-43.5 38.4,-38.4 38.4,-33.5 38.4,-28.8 38.4,-24.5 38.4,-20.6 38.4,-17.1 38.4,-14 38.4,-11.3 38.4,-9.1 38.4,-7.3 38.4,-5.6 38.4,-4.4"
             style="fill:none;stroke:#333333;stroke-width:7.5;stroke-linecap:round;stroke-linejoin:round;stroke-miterlimit:10;stroke-dasharray:none;stroke-opacity:1"
             id="path965" /><path
             d="m 2352.4,4425.4 h 720"
             style="fill:none;stroke:#000000;stroke-width:15;stroke-linecap:round;stroke-linejoin:round;stroke-miterlimit:10;stroke-dasharray:none;stroke-opacity:1"
             id="path967" /><path
             d="m 2508.3,4515.4 -155.9,-90 155.9,-90"
             style="fill:none;stroke:#000000;stroke-width:15;stroke-linecap:round;stroke-linejoin:round;stroke-miterlimit:10;stroke-dasharray:none;stroke-opacity:1"
             id="path969" /><path
             d="m 2916.5,4335.4 155.9,90 -155.9,90"
             style="fill:none;stroke:#000000;stroke-width:15;stroke-linecap:round;stroke-linejoin:round;stroke-miterlimit:10;stroke-dasharray:none;stroke-opacity:1"
             id="path971" /><path
             d="m 3072.4,4281.4 h 720"
             style="fill:none;stroke:#000000;stroke-width:15;stroke-linecap:round;stroke-linejoin:round;stroke-miterlimit:10;stroke-dasharray:none;stroke-opacity:1"
             id="path973" /><path
             d="m 3228.3,4371.4 -155.9,-90 155.9,-90"
             style="fill:none;stroke:#000000;stroke-width:15;stroke-linecap:round;stroke-linejoin:round;stroke-miterlimit:10;stroke-dasharray:none;stroke-opacity:1"
             id="path975" /><path
             d="m 3636.5,4191.4 155.9,90 -155.9,90"
             style="fill:none;stroke:#000000;stroke-width:15;stroke-linecap:round;stroke-linejoin:round;stroke-miterlimit:10;stroke-dasharray:none;stroke-opacity:1"
             id="path977" /><path
             d="m 2352.4,4137.4 h 1440"
             style="fill:none;stroke:#000000;stroke-width:15;stroke-linecap:round;stroke-linejoin:round;stroke-miterlimit:10;stroke-dasharray:none;stroke-opacity:1"
             id="path979" /><path
             d="m 2508.3,4227.4 -155.9,-90 155.9,-90"
             style="fill:none;stroke:#000000;stroke-width:15;stroke-linecap:round;stroke-linejoin:round;stroke-miterlimit:10;stroke-dasharray:none;stroke-opacity:1"
             id="path981" /><path
             d="m 3636.5,4047.4 155.9,90 -155.9,90"
             style="fill:none;stroke:#000000;stroke-width:15;stroke-linecap:round;stroke-linejoin:round;stroke-miterlimit:10;stroke-dasharray:none;stroke-opacity:1"
             id="path983" /></g></g><g
         transform="scale(0.1)"
         id="g985"><g
           id="g987"
           clip-path="url(#clipPath991)"><g
             id="g993"
             transform="scale(10)"><text
               transform="matrix(1,0,0,-1,206.69,540.12)"
               style="font-variant:normal;font-weight:normal;font-size:19px;font-family:Helvetica;-inkscape-font-specification:Helvetica;writing-mode:lr-tb;fill:#000000;fill-opacity:1;fill-rule:nonzero;stroke:none"
               id="text999"><tspan
                 x="0 12.673 23.237 28.518999 42.046864 52.610863 63.174862 73.738861 84.834862 95.398865 101.72586 112.28986 122.85387 133.41786 138.69986 147.72499 158.28899 164.90117 169.11917 179.68317 184.96516 189.18317 199.74716"
                 y="0"
                 id="tspan995">Between−group variation</tspan><tspan
                 x="-55.159801 -48.832802 -44.614799 -39.332802 -29.053944 -23.771944 -18.489944 -13.207945 -2.6439445 1.5740556 6.8560557 11.567938 22.131937 28.458939 39.022938 49.586937 59.086937 69.65094 79.15094 84.432938 94.996941 110.82394 121.38794 131.95193 142.51593 147.79794 158.36194 164.68893 175.25294 185.81694 196.38094 201.66293 217.48994 228.05394 238.61794 249.18193 258.68195"
                 y="23.039801"
                 id="tspan997">(i.e., differences among group means)</tspan></text></g></g></g></g></g></svg>
