<?xml version="1.0" encoding="UTF-8" standalone="no"?>
<svg
   xmlns:dc="http://purl.org/dc/elements/1.1/"
   xmlns:cc="http://creativecommons.org/ns#"
   xmlns:rdf="http://www.w3.org/1999/02/22-rdf-syntax-ns#"
   xmlns:svg="http://www.w3.org/2000/svg"
   xmlns="http://www.w3.org/2000/svg"
   id="svg205"
   version="1.2"
   viewBox="0 0 288 288"
   height="288pt"
   width="288pt">
  <metadata
     id="metadata211">
    <rdf:RDF>
      <cc:Work
         rdf:about="">
        <dc:format>image/svg+xml</dc:format>
        <dc:type
           rdf:resource="http://purl.org/dc/dcmitype/StillImage" />
      </cc:Work>
    </rdf:RDF>
  </metadata>
  <defs
     id="defs209" />
  <g
     id="surface1">
    <rect
       id="rect2"
       style="fill:#ffffff;fill-opacity:1;stroke:none"
       height="288"
       width="288"
       y="0"
       x="0" />
    <path
       id="path4"
       transform="matrix(0.1,0,0,-0.1,0,288)"
       d="m 2225,1273.2031 c 0,14.9219 -12.1094,26.9922 -26.9922,26.9922 -14.9219,0 -26.9922,-12.0703 -26.9922,-26.9922 0,-14.9218 12.0703,-26.9922 26.9922,-26.9922 14.8828,0 26.9922,12.0704 26.9922,26.9922"
       style="fill:#5900ff;fill-opacity:1;fill-rule:nonzero;stroke:#5900ff;stroke-width:7.5;stroke-linecap:round;stroke-linejoin:round;stroke-miterlimit:10;stroke-opacity:1" />
    <path
       id="path6"
       transform="matrix(0.1,0,0,-0.1,0,288)"
       d="m 2107.8125,1444.8047 c 0,14.9219 -12.1094,26.9922 -27.0312,26.9922 -14.8829,0 -26.9922,-12.0703 -26.9922,-26.9922 0,-14.9219 12.1093,-26.9922 26.9922,-26.9922 14.9218,0 27.0312,12.0703 27.0312,26.9922"
       style="fill:#5900ff;fill-opacity:1;fill-rule:nonzero;stroke:#5900ff;stroke-width:7.5;stroke-linecap:round;stroke-linejoin:round;stroke-miterlimit:10;stroke-opacity:1" />
    <path
       id="path8"
       transform="matrix(0.1,0,0,-0.1,0,288)"
       d="m 2246.6016,1247.6953 c 0,14.9219 -12.1094,26.9922 -26.9922,26.9922 -14.9219,0 -26.9922,-12.0703 -26.9922,-26.9922 0,-14.9219 12.0703,-26.9922 26.9922,-26.9922 14.8828,0 26.9922,12.0703 26.9922,26.9922"
       style="fill:#5900ff;fill-opacity:1;fill-rule:nonzero;stroke:#5900ff;stroke-width:7.5;stroke-linecap:round;stroke-linejoin:round;stroke-miterlimit:10;stroke-opacity:1" />
    <path
       id="path10"
       transform="matrix(0.1,0,0,-0.1,0,288)"
       d="m 1423.5938,1281.4844 c 0,14.9219 -12.0704,27.0312 -26.9922,27.0312 -14.9219,0 -26.9922,-12.1093 -26.9922,-27.0312 0,-14.8828 12.0703,-26.9922 26.9922,-26.9922 14.9218,0 26.9922,12.1094 26.9922,26.9922"
       style="fill:#5900ff;fill-opacity:1;fill-rule:nonzero;stroke:#5900ff;stroke-width:7.5;stroke-linecap:round;stroke-linejoin:round;stroke-miterlimit:10;stroke-opacity:1" />
    <path
       id="path12"
       transform="matrix(0.1,0,0,-0.1,0,288)"
       d="m 2048.9844,1763.5938 c 0,14.9218 -12.0703,26.9921 -26.9922,26.9921 -14.8828,0 -26.9922,-12.0703 -26.9922,-26.9921 0,-14.9219 12.1094,-26.9922 26.9922,-26.9922 14.9219,0 26.9922,12.0703 26.9922,26.9922"
       style="fill:#5900ff;fill-opacity:1;fill-rule:nonzero;stroke:#5900ff;stroke-width:7.5;stroke-linecap:round;stroke-linejoin:round;stroke-miterlimit:10;stroke-opacity:1" />
    <path
       id="path14"
       transform="matrix(0.1,0,0,-0.1,0,288)"
       d="m 1226.4063,1340.3906 c 0,14.9219 -12.1094,26.9922 -26.9922,26.9922 -14.9219,0 -27.0313,-12.0703 -27.0313,-26.9922 0,-14.8828 12.1094,-26.9922 27.0313,-26.9922 14.8828,0 26.9922,12.1094 26.9922,26.9922"
       style="fill:#5900ff;fill-opacity:1;fill-rule:nonzero;stroke:#5900ff;stroke-width:7.5;stroke-linecap:round;stroke-linejoin:round;stroke-miterlimit:10;stroke-opacity:1" />
    <path
       id="path16"
       transform="matrix(0.1,0,0,-0.1,0,288)"
       d="m 1261.9141,1172.1875 c 0,14.9219 -12.1094,27.0313 -27.0313,27.0313 -14.8828,0 -26.9922,-12.1094 -26.9922,-27.0313 0,-14.8828 12.1094,-26.9922 26.9922,-26.9922 14.9219,0 27.0313,12.1094 27.0313,26.9922"
       style="fill:#5900ff;fill-opacity:1;fill-rule:nonzero;stroke:#5900ff;stroke-width:7.5;stroke-linecap:round;stroke-linejoin:round;stroke-miterlimit:10;stroke-opacity:1" />
    <path
       id="path18"
       transform="matrix(0.1,0,0,-0.1,0,288)"
       d="m 1759.4141,1490.7031 c 0,14.9219 -12.1094,26.9922 -27.0313,26.9922 -14.8828,0 -26.9922,-12.0703 -26.9922,-26.9922 0,-14.9218 12.1094,-26.9922 26.9922,-26.9922 14.9219,0 27.0313,12.0704 27.0313,26.9922"
       style="fill:#5900ff;fill-opacity:1;fill-rule:nonzero;stroke:#5900ff;stroke-width:7.5;stroke-linecap:round;stroke-linejoin:round;stroke-miterlimit:10;stroke-opacity:1" />
    <path
       id="path20"
       transform="matrix(0.1,0,0,-0.1,0,288)"
       d="m 1929.8828,965.89844 c 0,14.92187 -12.0703,26.99218 -26.9922,26.99218 -14.8828,0 -26.9922,-12.07031 -26.9922,-26.99218 0,-14.92188 12.1094,-26.99219 26.9922,-26.99219 14.9219,0 26.9922,12.07031 26.9922,26.99219"
       style="fill:#5900ff;fill-opacity:1;fill-rule:nonzero;stroke:#5900ff;stroke-width:7.5;stroke-linecap:round;stroke-linejoin:round;stroke-miterlimit:10;stroke-opacity:1" />
    <path
       id="path22"
       transform="matrix(0.1,0,0,-0.1,0,288)"
       d="m 1397.6953,1642.6953 c 0,14.9219 -12.0703,26.9922 -26.9922,26.9922 -14.9218,0 -26.9922,-12.0703 -26.9922,-26.9922 0,-14.9219 12.0704,-26.9922 26.9922,-26.9922 14.9219,0 26.9922,12.0703 26.9922,26.9922"
       style="fill:#5900ff;fill-opacity:1;fill-rule:nonzero;stroke:#5900ff;stroke-width:7.5;stroke-linecap:round;stroke-linejoin:round;stroke-miterlimit:10;stroke-opacity:1" />
    <path
       id="path24"
       transform="matrix(0.1,0,0,-0.1,0,288)"
       d="m 2223.2031,1434.6094 c 0,14.8828 -12.1093,26.9922 -26.9922,26.9922 -14.9218,0 -26.9921,-12.1094 -26.9921,-26.9922 0,-14.9219 12.0703,-26.9922 26.9921,-26.9922 14.8829,0 26.9922,12.0703 26.9922,26.9922"
       style="fill:#5900ff;fill-opacity:1;fill-rule:nonzero;stroke:#5900ff;stroke-width:7.5;stroke-linecap:round;stroke-linejoin:round;stroke-miterlimit:10;stroke-opacity:1" />
    <path
       id="path26"
       transform="matrix(0.1,0,0,-0.1,0,288)"
       d="m 2017.6953,1721.0938 c 0,14.9218 -12.0703,26.9921 -26.9922,26.9921 -14.9218,0 -26.9922,-12.0703 -26.9922,-26.9921 0,-14.9219 12.0704,-26.9922 26.9922,-26.9922 14.9219,0 26.9922,12.0703 26.9922,26.9922"
       style="fill:#5900ff;fill-opacity:1;fill-rule:nonzero;stroke:#5900ff;stroke-width:7.5;stroke-linecap:round;stroke-linejoin:round;stroke-miterlimit:10;stroke-opacity:1" />
    <path
       id="path28"
       transform="matrix(0.1,0,0,-0.1,0,288)"
       d="m 1714.1016,1348.2031 c 0,14.9219 -12.1094,26.9922 -26.9922,26.9922 -14.9219,0 -26.9922,-12.0703 -26.9922,-26.9922 0,-14.9218 12.0703,-26.9922 26.9922,-26.9922 14.8828,0 26.9922,12.0704 26.9922,26.9922"
       style="fill:#5900ff;fill-opacity:1;fill-rule:nonzero;stroke:#5900ff;stroke-width:7.5;stroke-linecap:round;stroke-linejoin:round;stroke-miterlimit:10;stroke-opacity:1" />
    <path
       id="path30"
       transform="matrix(0.1,0,0,-0.1,0,288)"
       d="m 1831.4844,1085.3906 c 0,14.9219 -12.0703,26.9922 -26.9922,26.9922 -14.8828,0 -26.9922,-12.0703 -26.9922,-26.9922 0,-14.8828 12.1094,-26.9922 26.9922,-26.9922 14.9219,0 26.9922,12.1094 26.9922,26.9922"
       style="fill:#5900ff;fill-opacity:1;fill-rule:nonzero;stroke:#5900ff;stroke-width:7.5;stroke-linecap:round;stroke-linejoin:round;stroke-miterlimit:10;stroke-opacity:1" />
    <path
       id="path32"
       transform="matrix(0.1,0,0,-0.1,0,288)"
       d="m 710.82031,1504.6875 c 0,14.9219 -12.10937,27.0313 -27.03125,27.0313 -14.88281,0 -26.99219,-12.1094 -26.99219,-27.0313 0,-14.8828 12.10938,-26.9922 26.99219,-26.9922 14.92188,0 27.03125,12.1094 27.03125,26.9922"
       style="fill:#5900ff;fill-opacity:1;fill-rule:nonzero;stroke:#5900ff;stroke-width:7.5;stroke-linecap:round;stroke-linejoin:round;stroke-miterlimit:10;stroke-opacity:1" />
    <path
       id="path34"
       transform="matrix(0.1,0,0,-0.1,0,288)"
       d="m 1624.8047,1403.2031 c 0,14.9219 -12.1094,26.9922 -26.9922,26.9922 -14.9219,0 -27.0312,-12.0703 -27.0312,-26.9922 0,-14.9218 12.1093,-26.9922 27.0312,-26.9922 14.8828,0 26.9922,12.0704 26.9922,26.9922"
       style="fill:#5900ff;fill-opacity:1;fill-rule:nonzero;stroke:#5900ff;stroke-width:7.5;stroke-linecap:round;stroke-linejoin:round;stroke-miterlimit:10;stroke-opacity:1" />
    <path
       id="path36"
       transform="matrix(0.1,0,0,-0.1,0,288)"
       d="m 1918.9063,1214.6094 c 0,14.8828 -12.1094,26.9922 -26.9922,26.9922 -14.9219,0 -27.0313,-12.1094 -27.0313,-26.9922 0,-14.9219 12.1094,-26.9922 27.0313,-26.9922 14.8828,0 26.9922,12.0703 26.9922,26.9922"
       style="fill:#5900ff;fill-opacity:1;fill-rule:nonzero;stroke:#5900ff;stroke-width:7.5;stroke-linecap:round;stroke-linejoin:round;stroke-miterlimit:10;stroke-opacity:1" />
    <path
       id="path38"
       transform="matrix(0.1,0,0,-0.1,0,288)"
       d="m 2149.2969,1875.7031 c 0,14.9219 -12.0703,26.9922 -26.9922,26.9922 -14.9219,0 -26.9922,-12.0703 -26.9922,-26.9922 0,-14.9218 12.0703,-26.9922 26.9922,-26.9922 14.9219,0 26.9922,12.0704 26.9922,26.9922"
       style="fill:#5900ff;fill-opacity:1;fill-rule:nonzero;stroke:#5900ff;stroke-width:7.5;stroke-linecap:round;stroke-linejoin:round;stroke-miterlimit:10;stroke-opacity:1" />
    <path
       id="path40"
       transform="matrix(0.1,0,0,-0.1,0,288)"
       d="m 1516.4063,1425.3906 c 0,14.9219 -12.1094,26.9922 -26.9922,26.9922 -14.9219,0 -27.0313,-12.0703 -27.0313,-26.9922 0,-14.8828 12.1094,-26.9922 27.0313,-26.9922 14.8828,0 26.9922,12.1094 26.9922,26.9922"
       style="fill:#5900ff;fill-opacity:1;fill-rule:nonzero;stroke:#5900ff;stroke-width:7.5;stroke-linecap:round;stroke-linejoin:round;stroke-miterlimit:10;stroke-opacity:1" />
    <path
       id="path42"
       transform="matrix(0.1,0,0,-0.1,0,288)"
       d="m 2161.7188,1111.7188 c 0,14.8828 -12.1094,26.9921 -27.0313,26.9921 -14.8828,0 -26.9922,-12.1093 -26.9922,-26.9921 0,-14.9219 12.1094,-27.0313 26.9922,-27.0313 14.9219,0 27.0313,12.1094 27.0313,27.0313"
       style="fill:#5900ff;fill-opacity:1;fill-rule:nonzero;stroke:#5900ff;stroke-width:7.5;stroke-linecap:round;stroke-linejoin:round;stroke-miterlimit:10;stroke-opacity:1" />
    <path
       id="path44"
       transform="matrix(0.1,0,0,-0.1,0,288)"
       d="m 2380.1953,1653.3984 c 0,14.9219 -12.0703,26.9922 -26.9922,26.9922 -14.9218,0 -26.9922,-12.0703 -26.9922,-26.9922 0,-14.9218 12.0704,-26.9921 26.9922,-26.9921 14.9219,0 26.9922,12.0703 26.9922,26.9921"
       style="fill:#5900ff;fill-opacity:1;fill-rule:nonzero;stroke:#5900ff;stroke-width:7.5;stroke-linecap:round;stroke-linejoin:round;stroke-miterlimit:10;stroke-opacity:1" />
    <path
       id="path46"
       transform="matrix(0.1,0,0,-0.1,0,288)"
       d="m 1312.5,1478.3984 c 0,14.9219 -12.1094,26.9922 -26.9922,26.9922 -14.9219,0 -26.9922,-12.0703 -26.9922,-26.9922 0,-14.9218 12.0703,-26.9921 26.9922,-26.9921 14.8828,0 26.9922,12.0703 26.9922,26.9921"
       style="fill:#5900ff;fill-opacity:1;fill-rule:nonzero;stroke:#5900ff;stroke-width:7.5;stroke-linecap:round;stroke-linejoin:round;stroke-miterlimit:10;stroke-opacity:1" />
    <path
       id="path48"
       transform="matrix(0.1,0,0,-0.1,0,288)"
       d="m 1030.3125,1440.5078 c 0,14.8828 -12.1094,26.9922 -27.0313,26.9922 -14.88276,0 -26.99214,-12.1094 -26.99214,-26.9922 0,-14.9219 12.10938,-26.9922 26.99214,-26.9922 14.9219,0 27.0313,12.0703 27.0313,26.9922"
       style="fill:#5900ff;fill-opacity:1;fill-rule:nonzero;stroke:#5900ff;stroke-width:7.5;stroke-linecap:round;stroke-linejoin:round;stroke-miterlimit:10;stroke-opacity:1" />
    <path
       id="path50"
       transform="matrix(0.1,0,0,-0.1,0,288)"
       d="m 1861.0156,1517.3828 c 0,14.9219 -12.1093,27.0313 -27.0312,27.0313 -14.8828,0 -26.9922,-12.1094 -26.9922,-27.0313 0,-14.8828 12.1094,-26.9922 26.9922,-26.9922 14.9219,0 27.0312,12.1094 27.0312,26.9922"
       style="fill:#5900ff;fill-opacity:1;fill-rule:nonzero;stroke:#5900ff;stroke-width:7.5;stroke-linecap:round;stroke-linejoin:round;stroke-miterlimit:10;stroke-opacity:1" />
    <path
       id="path52"
       transform="matrix(0.1,0,0,-0.1,0,288)"
       d="m 1881.6016,1948.5156 c 0,14.8828 -12.1094,26.9922 -26.9922,26.9922 -14.9219,0 -26.9922,-12.1094 -26.9922,-26.9922 0,-14.9218 12.0703,-27.0312 26.9922,-27.0312 14.8828,0 26.9922,12.1094 26.9922,27.0312"
       style="fill:#5900ff;fill-opacity:1;fill-rule:nonzero;stroke:#5900ff;stroke-width:7.5;stroke-linecap:round;stroke-linejoin:round;stroke-miterlimit:10;stroke-opacity:1" />
    <path
       id="path54"
       transform="matrix(0.1,0,0,-0.1,0,288)"
       d="m 2040.1172,1689.2188 c 0,14.8828 -12.1094,26.9921 -27.0313,26.9921 -14.8828,0 -26.9921,-12.1093 -26.9921,-26.9921 0,-14.9219 12.1093,-27.0313 26.9921,-27.0313 14.9219,0 27.0313,12.1094 27.0313,27.0313"
       style="fill:#5900ff;fill-opacity:1;fill-rule:nonzero;stroke:#5900ff;stroke-width:7.5;stroke-linecap:round;stroke-linejoin:round;stroke-miterlimit:10;stroke-opacity:1" />
    <path
       id="path56"
       transform="matrix(0.1,0,0,-0.1,0,288)"
       d="m 1543.5156,1252.8125 c 0,14.8828 -12.1093,26.9922 -27.0312,26.9922 -14.8828,0 -26.9922,-12.1094 -26.9922,-26.9922 0,-14.9219 12.1094,-27.0312 26.9922,-27.0312 14.9219,0 27.0312,12.1093 27.0312,27.0312"
       style="fill:#5900ff;fill-opacity:1;fill-rule:nonzero;stroke:#5900ff;stroke-width:7.5;stroke-linecap:round;stroke-linejoin:round;stroke-miterlimit:10;stroke-opacity:1" />
    <path
       id="path58"
       transform="matrix(0.1,0,0,-0.1,0,288)"
       d="m 1427.1875,1643.7109 c 0,14.8829 -12.0703,26.9922 -26.9922,26.9922 -14.9219,0 -26.9922,-12.1093 -26.9922,-26.9922 0,-14.9218 12.0703,-26.9921 26.9922,-26.9921 14.9219,0 26.9922,12.0703 26.9922,26.9921"
       style="fill:#5900ff;fill-opacity:1;fill-rule:nonzero;stroke:#5900ff;stroke-width:7.5;stroke-linecap:round;stroke-linejoin:round;stroke-miterlimit:10;stroke-opacity:1" />
    <path
       id="path60"
       transform="matrix(0.1,0,0,-0.1,0,288)"
       d="m 1809.2188,1821.7188 c 0,14.8828 -12.1094,26.9921 -27.0313,26.9921 -14.8828,0 -26.9922,-12.1093 -26.9922,-26.9921 0,-14.9219 12.1094,-27.0313 26.9922,-27.0313 14.9219,0 27.0313,12.1094 27.0313,27.0313"
       style="fill:#5900ff;fill-opacity:1;fill-rule:nonzero;stroke:#5900ff;stroke-width:7.5;stroke-linecap:round;stroke-linejoin:round;stroke-miterlimit:10;stroke-opacity:1" />
    <path
       id="path62"
       transform="matrix(0.1,0,0,-0.1,0,288)"
       d="m 1483.5938,1734.8828 c 0,14.9219 -12.0704,27.0313 -26.9922,27.0313 -14.9219,0 -26.9922,-12.1094 -26.9922,-27.0313 0,-14.8828 12.0703,-26.9922 26.9922,-26.9922 14.9218,0 26.9922,12.1094 26.9922,26.9922"
       style="fill:#5900ff;fill-opacity:1;fill-rule:nonzero;stroke:#5900ff;stroke-width:7.5;stroke-linecap:round;stroke-linejoin:round;stroke-miterlimit:10;stroke-opacity:1" />
    <path
       id="path64"
       transform="matrix(0.1,0,0,-0.1,0,288)"
       d="m 2116.9922,1641.4844 c 0,14.9219 -12.0703,27.0312 -26.9922,27.0312 -14.9219,0 -26.9922,-12.1093 -26.9922,-27.0312 0,-14.8828 12.0703,-26.9922 26.9922,-26.9922 14.9219,0 26.9922,12.1094 26.9922,26.9922"
       style="fill:#5900ff;fill-opacity:1;fill-rule:nonzero;stroke:#5900ff;stroke-width:7.5;stroke-linecap:round;stroke-linejoin:round;stroke-miterlimit:10;stroke-opacity:1" />
    <path
       id="path66"
       transform="matrix(0.1,0,0,-0.1,0,288)"
       d="m 1736.9141,2181.6016 c 0,14.9218 -12.1094,26.9922 -27.0313,26.9922 -14.8828,0 -26.9922,-12.0704 -26.9922,-26.9922 0,-14.9219 12.1094,-26.9922 26.9922,-26.9922 14.9219,0 27.0313,12.0703 27.0313,26.9922"
       style="fill:#5900ff;fill-opacity:1;fill-rule:nonzero;stroke:#5900ff;stroke-width:7.5;stroke-linecap:round;stroke-linejoin:round;stroke-miterlimit:10;stroke-opacity:1" />
    <path
       id="path68"
       transform="matrix(0.1,0,0,-0.1,0,288)"
       d="m 1841.9141,1908.2031 c 0,14.9219 -12.1094,26.9922 -27.0313,26.9922 -14.8828,0 -26.9922,-12.0703 -26.9922,-26.9922 0,-14.9218 12.1094,-26.9922 26.9922,-26.9922 14.9219,0 27.0313,12.0704 27.0313,26.9922"
       style="fill:#5900ff;fill-opacity:1;fill-rule:nonzero;stroke:#5900ff;stroke-width:7.5;stroke-linecap:round;stroke-linejoin:round;stroke-miterlimit:10;stroke-opacity:1" />
    <path
       id="path70"
       transform="matrix(0.1,0,0,-0.1,0,288)"
       d="m 2458.5938,1776.0938 c 0,14.9218 -12.0704,26.9921 -26.9922,26.9921 -14.9219,0 -26.9922,-12.0703 -26.9922,-26.9921 0,-14.9219 12.0703,-26.9922 26.9922,-26.9922 14.9218,0 26.9922,12.0703 26.9922,26.9922"
       style="fill:#5900ff;fill-opacity:1;fill-rule:nonzero;stroke:#5900ff;stroke-width:7.5;stroke-linecap:round;stroke-linejoin:round;stroke-miterlimit:10;stroke-opacity:1" />
    <path
       id="path72"
       transform="matrix(0.1,0,0,-0.1,0,288)"
       d="m 2173.0078,1930.3906 c 0,14.9219 -12.1094,26.9922 -26.9922,26.9922 -14.9218,0 -27.0312,-12.0703 -27.0312,-26.9922 0,-14.8828 12.1094,-26.9922 27.0312,-26.9922 14.8828,0 26.9922,12.1094 26.9922,26.9922"
       style="fill:#5900ff;fill-opacity:1;fill-rule:nonzero;stroke:#5900ff;stroke-width:7.5;stroke-linecap:round;stroke-linejoin:round;stroke-miterlimit:10;stroke-opacity:1" />
    <path
       id="path74"
       transform="matrix(0.1,0,0,-0.1,0,288)"
       d="m 1955.3125,1913.2031 c 0,14.9219 -12.1094,26.9922 -27.0312,26.9922 -14.8829,0 -26.9922,-12.0703 -26.9922,-26.9922 0,-14.9218 12.1093,-26.9922 26.9922,-26.9922 14.9218,0 27.0312,12.0704 27.0312,26.9922"
       style="fill:#5900ff;fill-opacity:1;fill-rule:nonzero;stroke:#5900ff;stroke-width:7.5;stroke-linecap:round;stroke-linejoin:round;stroke-miterlimit:10;stroke-opacity:1" />
    <path
       id="path76"
       transform="matrix(0.1,0,0,-0.1,0,288)"
       d="m 1522.8906,1925.3906 c 0,14.9219 -12.0703,26.9922 -26.9922,26.9922 -14.9218,0 -26.9921,-12.0703 -26.9921,-26.9922 0,-14.8828 12.0703,-26.9922 26.9921,-26.9922 14.9219,0 26.9922,12.1094 26.9922,26.9922"
       style="fill:#5900ff;fill-opacity:1;fill-rule:nonzero;stroke:#5900ff;stroke-width:7.5;stroke-linecap:round;stroke-linejoin:round;stroke-miterlimit:10;stroke-opacity:1" />
    <path
       id="path78"
       transform="matrix(0.1,0,0,-0.1,0,288)"
       d="m 1407.6172,1750.7813 c 0,14.9218 -12.1094,27.0312 -27.0313,27.0312 -14.8828,0 -26.9921,-12.1094 -26.9921,-27.0312 0,-14.8829 12.1093,-26.9922 26.9921,-26.9922 14.9219,0 27.0313,12.1093 27.0313,26.9922"
       style="fill:#5900ff;fill-opacity:1;fill-rule:nonzero;stroke:#5900ff;stroke-width:7.5;stroke-linecap:round;stroke-linejoin:round;stroke-miterlimit:10;stroke-opacity:1" />
    <path
       id="path80"
       transform="matrix(0.1,0,0,-0.1,0,288)"
       d="m 2013.0859,1094.4922 c 0,14.9219 -12.0703,26.9922 -26.9921,26.9922 -14.9219,0 -26.9922,-12.0703 -26.9922,-26.9922 0,-14.8828 12.0703,-26.9922 26.9922,-26.9922 14.9218,0 26.9921,12.1094 26.9921,26.9922"
       style="fill:#5900ff;fill-opacity:1;fill-rule:nonzero;stroke:#5900ff;stroke-width:7.5;stroke-linecap:round;stroke-linejoin:round;stroke-miterlimit:10;stroke-opacity:1" />
    <path
       id="path82"
       transform="matrix(0.1,0,0,-0.1,0,288)"
       d="m 1495.3125,1749.2969 c 0,14.9219 -12.1094,26.9922 -27.0312,26.9922 -14.8829,0 -26.9922,-12.0703 -26.9922,-26.9922 0,-14.9219 12.1093,-26.9922 26.9922,-26.9922 14.9218,0 27.0312,12.0703 27.0312,26.9922"
       style="fill:#5900ff;fill-opacity:1;fill-rule:nonzero;stroke:#5900ff;stroke-width:7.5;stroke-linecap:round;stroke-linejoin:round;stroke-miterlimit:10;stroke-opacity:1" />
    <path
       id="path84"
       transform="matrix(0.1,0,0,-0.1,0,288)"
       d="m 1570.1172,2160.1953 c 0,14.9219 -12.1094,26.9922 -27.0313,26.9922 -14.8828,0 -26.9921,-12.0703 -26.9921,-26.9922 0,-14.9219 12.1093,-26.9922 26.9921,-26.9922 14.9219,0 27.0313,12.0703 27.0313,26.9922"
       style="fill:#5900ff;fill-opacity:1;fill-rule:nonzero;stroke:#5900ff;stroke-width:7.5;stroke-linecap:round;stroke-linejoin:round;stroke-miterlimit:10;stroke-opacity:1" />
    <path
       id="path86"
       transform="matrix(0.1,0,0,-0.1,0,288)"
       d="m 2074.8047,2231.4063 c 0,14.9218 -12.1094,26.9921 -26.9922,26.9921 -14.9219,0 -27.0312,-12.0703 -27.0312,-26.9921 0,-14.9219 12.1093,-26.9922 27.0312,-26.9922 14.8828,0 26.9922,12.0703 26.9922,26.9922"
       style="fill:#5900ff;fill-opacity:1;fill-rule:nonzero;stroke:#5900ff;stroke-width:7.5;stroke-linecap:round;stroke-linejoin:round;stroke-miterlimit:10;stroke-opacity:1" />
    <path
       id="path88"
       transform="matrix(0.1,0,0,-0.1,0,288)"
       d="m 1641.4063,1688.9844 c 0,14.9219 -12.1094,27.0312 -26.9922,27.0312 -14.9219,0 -27.0313,-12.1093 -27.0313,-27.0312 0,-14.8828 12.1094,-26.9922 27.0313,-26.9922 14.8828,0 26.9922,12.1094 26.9922,26.9922"
       style="fill:#5900ff;fill-opacity:1;fill-rule:nonzero;stroke:#5900ff;stroke-width:7.5;stroke-linecap:round;stroke-linejoin:round;stroke-miterlimit:10;stroke-opacity:1" />
    <path
       id="path90"
       transform="matrix(0.1,0,0,-0.1,0,288)"
       d="M 1907.1094,878.00781 C 1907.1094,892.89062 1895,905 1880.1172,905 c -14.9219,0 -27.0313,-12.10938 -27.0313,-26.99219 0,-14.92187 12.1094,-26.99219 27.0313,-26.99219 14.8828,0 26.9922,12.07032 26.9922,26.99219"
       style="fill:#5900ff;fill-opacity:1;fill-rule:nonzero;stroke:#5900ff;stroke-width:7.5;stroke-linecap:round;stroke-linejoin:round;stroke-miterlimit:10;stroke-opacity:1" />
    <path
       id="path92"
       transform="matrix(0.1,0,0,-0.1,0,288)"
       d="m 2199.1016,1651.9922 c 0,14.9219 -12.1094,26.9922 -26.9922,26.9922 -14.9219,0 -26.9922,-12.0703 -26.9922,-26.9922 0,-14.8828 12.0703,-26.9922 26.9922,-26.9922 14.8828,0 26.9922,12.1094 26.9922,26.9922"
       style="fill:#5900ff;fill-opacity:1;fill-rule:nonzero;stroke:#5900ff;stroke-width:7.5;stroke-linecap:round;stroke-linejoin:round;stroke-miterlimit:10;stroke-opacity:1" />
    <path
       id="path94"
       transform="matrix(0.1,0,0,-0.1,0,288)"
       d="m 2421.0156,1077.1875 c 0,14.9219 -12.1093,27.0313 -27.0312,27.0313 -14.8828,0 -26.9922,-12.1094 -26.9922,-27.0313 0,-14.8828 12.1094,-26.9922 26.9922,-26.9922 14.9219,0 27.0312,12.1094 27.0312,26.9922"
       style="fill:#5900ff;fill-opacity:1;fill-rule:nonzero;stroke:#5900ff;stroke-width:7.5;stroke-linecap:round;stroke-linejoin:round;stroke-miterlimit:10;stroke-opacity:1" />
    <path
       id="path96"
       transform="matrix(0.1,0,0,-0.1,0,288)"
       d="m 1512.8906,1477.8906 c 0,14.9219 -12.0703,26.9922 -26.9922,26.9922 -14.9218,0 -26.9921,-12.0703 -26.9921,-26.9922 0,-14.8828 12.0703,-26.9922 26.9921,-26.9922 14.9219,0 26.9922,12.1094 26.9922,26.9922"
       style="fill:#5900ff;fill-opacity:1;fill-rule:nonzero;stroke:#5900ff;stroke-width:7.5;stroke-linecap:round;stroke-linejoin:round;stroke-miterlimit:10;stroke-opacity:1" />
    <path
       id="path98"
       transform="matrix(0.1,0,0,-0.1,0,288)"
       d="m 1813.9063,1382.3047 c 0,14.9219 -12.1094,26.9922 -26.9922,26.9922 -14.9219,0 -27.0313,-12.0703 -27.0313,-26.9922 0,-14.9219 12.1094,-26.9922 27.0313,-26.9922 14.8828,0 26.9922,12.0703 26.9922,26.9922"
       style="fill:#5900ff;fill-opacity:1;fill-rule:nonzero;stroke:#5900ff;stroke-width:7.5;stroke-linecap:round;stroke-linejoin:round;stroke-miterlimit:10;stroke-opacity:1" />
    <path
       id="path100"
       transform="matrix(0.1,0,0,-0.1,0,288)"
       d="m 1820.3906,1950.3125 c 0,14.8828 -12.0703,26.9922 -26.9922,26.9922 -14.9218,0 -26.9921,-12.1094 -26.9921,-26.9922 0,-14.9219 12.0703,-27.0312 26.9921,-27.0312 14.9219,0 26.9922,12.1093 26.9922,27.0312"
       style="fill:#5900ff;fill-opacity:1;fill-rule:nonzero;stroke:#5900ff;stroke-width:7.5;stroke-linecap:round;stroke-linejoin:round;stroke-miterlimit:10;stroke-opacity:1" />
    <path
       id="path102"
       transform="matrix(0.1,0,0,-0.1,0,288)"
       d="m 1356.0938,1458.3984 c 0,14.9219 -12.0704,26.9922 -26.9922,26.9922 -14.9219,0 -26.9922,-12.0703 -26.9922,-26.9922 0,-14.9218 12.0703,-26.9921 26.9922,-26.9921 14.9218,0 26.9922,12.0703 26.9922,26.9921"
       style="fill:#5900ff;fill-opacity:1;fill-rule:nonzero;stroke:#5900ff;stroke-width:7.5;stroke-linecap:round;stroke-linejoin:round;stroke-miterlimit:10;stroke-opacity:1" />
    <path
       id="path104"
       transform="matrix(0.1,0,0,-0.1,0,288)"
       d="m 1720.5859,1376.0938 c 0,14.9218 -12.0703,26.9921 -26.9921,26.9921 -14.9219,0 -26.9922,-12.0703 -26.9922,-26.9921 0,-14.9219 12.0703,-26.9922 26.9922,-26.9922 14.9218,0 26.9921,12.0703 26.9921,26.9922"
       style="fill:#5900ff;fill-opacity:1;fill-rule:nonzero;stroke:#5900ff;stroke-width:7.5;stroke-linecap:round;stroke-linejoin:round;stroke-miterlimit:10;stroke-opacity:1" />
    <path
       id="path106"
       transform="matrix(0.1,0,0,-0.1,0,288)"
       d="m 1927.3047,927.8125 c 0,14.88281 -12.1094,26.99219 -26.9922,26.99219 -14.9219,0 -27.0312,-12.10938 -27.0312,-26.99219 0,-14.92188 12.1093,-26.99219 27.0312,-26.99219 14.8828,0 26.9922,12.07031 26.9922,26.99219"
       style="fill:#5900ff;fill-opacity:1;fill-rule:nonzero;stroke:#5900ff;stroke-width:7.5;stroke-linecap:round;stroke-linejoin:round;stroke-miterlimit:10;stroke-opacity:1" />
    <path
       id="path108"
       transform="matrix(0.1,0,0,-0.1,0,288)"
       d="m 1916.0938,2016.9141 c 0,14.8828 -12.0704,26.9922 -26.9922,26.9922 -14.9219,0 -26.9922,-12.1094 -26.9922,-26.9922 0,-14.9219 12.0703,-27.0313 26.9922,-27.0313 14.9218,0 26.9922,12.1094 26.9922,27.0313"
       style="fill:#5900ff;fill-opacity:1;fill-rule:nonzero;stroke:#5900ff;stroke-width:7.5;stroke-linecap:round;stroke-linejoin:round;stroke-miterlimit:10;stroke-opacity:1" />
    <path
       id="path110"
       transform="matrix(0.1,0,0,-0.1,0,288)"
       d="m 2527.3828,1035.1172 c 0,14.8828 -12.0703,26.9922 -26.9922,26.9922 -14.8828,0 -26.9922,-12.1094 -26.9922,-26.9922 0,-14.9219 12.1094,-27.0313 26.9922,-27.0313 14.9219,0 26.9922,12.1094 26.9922,27.0313"
       style="fill:#5900ff;fill-opacity:1;fill-rule:nonzero;stroke:#5900ff;stroke-width:7.5;stroke-linecap:round;stroke-linejoin:round;stroke-miterlimit:10;stroke-opacity:1" />
    <path
       id="path112"
       transform="matrix(0.1,0,0,-0.1,0,288)"
       d="m 842.38281,1325.1953 c 0,14.9219 -12.07031,26.9922 -26.99219,26.9922 -14.92187,0 -26.99218,-12.0703 -26.99218,-26.9922 0,-14.9219 12.07031,-26.9922 26.99218,-26.9922 14.92188,0 26.99219,12.0703 26.99219,26.9922"
       style="fill:#5900ff;fill-opacity:1;fill-rule:nonzero;stroke:#5900ff;stroke-width:7.5;stroke-linecap:round;stroke-linejoin:round;stroke-miterlimit:10;stroke-opacity:1" />
    <path
       id="path114"
       transform="matrix(0.1,0,0,-0.1,0,288)"
       d="m 1601.2891,1979.6875 c 0,14.9219 -12.0703,27.0313 -26.9922,27.0313 -14.9219,0 -26.9922,-12.1094 -26.9922,-27.0313 0,-14.8828 12.0703,-26.9922 26.9922,-26.9922 14.9219,0 26.9922,12.1094 26.9922,26.9922"
       style="fill:#5900ff;fill-opacity:1;fill-rule:nonzero;stroke:#5900ff;stroke-width:7.5;stroke-linecap:round;stroke-linejoin:round;stroke-miterlimit:10;stroke-opacity:1" />
    <path
       id="path116"
       transform="matrix(0.1,0,0,-0.1,0,288)"
       d="m 1889.6875,1589.4141 c 0,14.8828 -12.0703,26.9922 -26.9922,26.9922 -14.9219,0 -26.9922,-12.1094 -26.9922,-26.9922 0,-14.9219 12.0703,-27.0313 26.9922,-27.0313 14.9219,0 26.9922,12.1094 26.9922,27.0313"
       style="fill:#5900ff;fill-opacity:1;fill-rule:nonzero;stroke:#5900ff;stroke-width:7.5;stroke-linecap:round;stroke-linejoin:round;stroke-miterlimit:10;stroke-opacity:1" />
    <path
       id="path118"
       transform="matrix(0.1,0,0,-0.1,0,288)"
       d="m 1439.1016,1961.9141 c 0,14.8828 -12.1094,26.9922 -26.9922,26.9922 -14.9219,0 -26.9922,-12.1094 -26.9922,-26.9922 0,-14.9219 12.0703,-27.0313 26.9922,-27.0313 14.8828,0 26.9922,12.1094 26.9922,27.0313"
       style="fill:#5900ff;fill-opacity:1;fill-rule:nonzero;stroke:#5900ff;stroke-width:7.5;stroke-linecap:round;stroke-linejoin:round;stroke-miterlimit:10;stroke-opacity:1" />
    <path
       id="path120"
       transform="matrix(0.1,0,0,-0.1,0,288)"
       d="m 1385.3125,1814.6875 c 0,14.9219 -12.1094,27.0313 -27.0312,27.0313 -14.8829,0 -26.9922,-12.1094 -26.9922,-27.0313 0,-14.8828 12.1093,-26.9922 26.9922,-26.9922 14.9218,0 27.0312,12.1094 27.0312,26.9922"
       style="fill:#5900ff;fill-opacity:1;fill-rule:nonzero;stroke:#5900ff;stroke-width:7.5;stroke-linecap:round;stroke-linejoin:round;stroke-miterlimit:10;stroke-opacity:1" />
    <path
       id="path122"
       transform="matrix(0.1,0,0,-0.1,0,288)"
       d="m 1374.8828,908.00781 c 0,14.88281 -12.0703,26.99219 -26.9922,26.99219 -14.8828,0 -26.9922,-12.10938 -26.9922,-26.99219 0,-14.92187 12.1094,-26.99219 26.9922,-26.99219 14.9219,0 26.9922,12.07032 26.9922,26.99219"
       style="fill:#5900ff;fill-opacity:1;fill-rule:nonzero;stroke:#5900ff;stroke-width:7.5;stroke-linecap:round;stroke-linejoin:round;stroke-miterlimit:10;stroke-opacity:1" />
    <path
       id="path124"
       transform="matrix(0.1,0,0,-0.1,0,288)"
       d="m 2089.4141,1556.2109 c 0,14.8829 -12.1094,26.9922 -27.0313,26.9922 -14.8828,0 -26.9922,-12.1093 -26.9922,-26.9922 0,-14.9218 12.1094,-26.9921 26.9922,-26.9921 14.9219,0 27.0313,12.0703 27.0313,26.9921"
       style="fill:#5900ff;fill-opacity:1;fill-rule:nonzero;stroke:#5900ff;stroke-width:7.5;stroke-linecap:round;stroke-linejoin:round;stroke-miterlimit:10;stroke-opacity:1" />
    <path
       id="path126"
       transform="matrix(0.1,0,0,-0.1,0,288)"
       d="m 2384.2969,1946.2109 c 0,14.8829 -12.0703,26.9922 -26.9922,26.9922 -14.9219,0 -26.9922,-12.1093 -26.9922,-26.9922 0,-14.9218 12.0703,-26.9921 26.9922,-26.9921 14.9219,0 26.9922,12.0703 26.9922,26.9921"
       style="fill:#5900ff;fill-opacity:1;fill-rule:nonzero;stroke:#5900ff;stroke-width:7.5;stroke-linecap:round;stroke-linejoin:round;stroke-miterlimit:10;stroke-opacity:1" />
    <path
       id="path128"
       transform="matrix(0.1,0,0,-0.1,0,288)"
       d="m 2173.0078,2120 c 0,14.9219 -12.1094,26.9922 -26.9922,26.9922 -14.9218,0 -27.0312,-12.0703 -27.0312,-26.9922 0,-14.9219 12.1094,-26.9922 27.0312,-26.9922 14.8828,0 26.9922,12.0703 26.9922,26.9922"
       style="fill:#5900ff;fill-opacity:1;fill-rule:nonzero;stroke:#5900ff;stroke-width:7.5;stroke-linecap:round;stroke-linejoin:round;stroke-miterlimit:10;stroke-opacity:1" />
    <path
       id="path130"
       transform="matrix(0.1,0,0,-0.1,0,288)"
       d="m 687.38281,1678.9844 c 0,14.9219 -12.07031,27.0312 -26.99219,27.0312 -14.92187,0 -26.99218,-12.1093 -26.99218,-27.0312 0,-14.8828 12.07031,-26.9922 26.99218,-26.9922 14.92188,0 26.99219,12.1094 26.99219,26.9922"
       style="fill:#5900ff;fill-opacity:1;fill-rule:nonzero;stroke:#5900ff;stroke-width:7.5;stroke-linecap:round;stroke-linejoin:round;stroke-miterlimit:10;stroke-opacity:1" />
    <path
       id="path132"
       transform="matrix(0.1,0,0,-0.1,0,288)"
       d="m 1378.7109,1528.3984 c 0,14.9219 -12.1093,26.9922 -26.9921,26.9922 -14.9219,0 -27.0313,-12.0703 -27.0313,-26.9922 0,-14.9218 12.1094,-26.9921 27.0313,-26.9921 14.8828,0 26.9921,12.0703 26.9921,26.9921"
       style="fill:#5900ff;fill-opacity:1;fill-rule:nonzero;stroke:#5900ff;stroke-width:7.5;stroke-linecap:round;stroke-linejoin:round;stroke-miterlimit:10;stroke-opacity:1" />
    <path
       id="path134"
       transform="matrix(0.1,0,0,-0.1,0,288)"
       d="m 706.67969,1495.3906 c 0,14.9219 -12.07032,26.9922 -26.99219,26.9922 -14.88281,0 -26.99219,-12.0703 -26.99219,-26.9922 0,-14.8828 12.10938,-26.9922 26.99219,-26.9922 14.92187,0 26.99219,12.1094 26.99219,26.9922"
       style="fill:#5900ff;fill-opacity:1;fill-rule:nonzero;stroke:#5900ff;stroke-width:7.5;stroke-linecap:round;stroke-linejoin:round;stroke-miterlimit:10;stroke-opacity:1" />
    <path
       id="path136"
       transform="matrix(0.1,0,0,-0.1,0,288)"
       d="m 1895.3125,1273.7891 c 0,14.9218 -12.1094,26.9922 -27.0312,26.9922 -14.8829,0 -26.9922,-12.0704 -26.9922,-26.9922 0,-14.8828 12.1093,-26.9922 26.9922,-26.9922 14.9218,0 27.0312,12.1094 27.0312,26.9922"
       style="fill:#5900ff;fill-opacity:1;fill-rule:nonzero;stroke:#5900ff;stroke-width:7.5;stroke-linecap:round;stroke-linejoin:round;stroke-miterlimit:10;stroke-opacity:1" />
    <path
       id="path138"
       transform="matrix(0.1,0,0,-0.1,0,288)"
       d="m 1543.9844,1200.1953 c 0,14.9219 -12.0703,26.9922 -26.9922,26.9922 -14.8828,0 -26.9922,-12.0703 -26.9922,-26.9922 0,-14.9219 12.1094,-26.9922 26.9922,-26.9922 14.9219,0 26.9922,12.0703 26.9922,26.9922"
       style="fill:#5900ff;fill-opacity:1;fill-rule:nonzero;stroke:#5900ff;stroke-width:7.5;stroke-linecap:round;stroke-linejoin:round;stroke-miterlimit:10;stroke-opacity:1" />
    <path
       id="path140"
       transform="matrix(0.1,0,0,-0.1,0,288)"
       d="m 1585.5078,1598.3984 c 0,14.9219 -12.1094,26.9922 -26.9922,26.9922 -14.9218,0 -27.0312,-12.0703 -27.0312,-26.9922 0,-14.9218 12.1094,-26.9921 27.0312,-26.9921 14.8828,0 26.9922,12.0703 26.9922,26.9921"
       style="fill:#5900ff;fill-opacity:1;fill-rule:nonzero;stroke:#5900ff;stroke-width:7.5;stroke-linecap:round;stroke-linejoin:round;stroke-miterlimit:10;stroke-opacity:1" />
    <path
       id="path142"
       transform="matrix(0.1,0,0,-0.1,0,288)"
       d="m 2005.8984,1602.1875 c 0,14.9219 -12.0703,27.0313 -26.9921,27.0313 -14.9219,0 -26.9922,-12.1094 -26.9922,-27.0313 0,-14.8828 12.0703,-26.9922 26.9922,-26.9922 14.9218,0 26.9921,12.1094 26.9921,26.9922"
       style="fill:#5900ff;fill-opacity:1;fill-rule:nonzero;stroke:#5900ff;stroke-width:7.5;stroke-linecap:round;stroke-linejoin:round;stroke-miterlimit:10;stroke-opacity:1" />
    <path
       id="path144"
       transform="matrix(0.1,0,0,-0.1,0,288)"
       d="m 1943.5156,1387.6953 c 0,14.9219 -12.1093,26.9922 -27.0312,26.9922 -14.8828,0 -26.9922,-12.0703 -26.9922,-26.9922 0,-14.9219 12.1094,-26.9922 26.9922,-26.9922 14.9219,0 27.0312,12.0703 27.0312,26.9922"
       style="fill:#5900ff;fill-opacity:1;fill-rule:nonzero;stroke:#5900ff;stroke-width:7.5;stroke-linecap:round;stroke-linejoin:round;stroke-miterlimit:10;stroke-opacity:1" />
    <path
       id="path146"
       transform="matrix(0.1,0,0,-0.1,0,288)"
       d="m 2042.8125,1386.6016 c 0,14.9218 -12.1094,26.9922 -27.0312,26.9922 -14.8829,0 -26.9922,-12.0704 -26.9922,-26.9922 0,-14.9219 12.1093,-26.9922 26.9922,-26.9922 14.9218,0 27.0312,12.0703 27.0312,26.9922"
       style="fill:#5900ff;fill-opacity:1;fill-rule:nonzero;stroke:#5900ff;stroke-width:7.5;stroke-linecap:round;stroke-linejoin:round;stroke-miterlimit:10;stroke-opacity:1" />
    <path
       id="path148"
       transform="matrix(0.1,0,0,-0.1,0,288)"
       d="m 1303.2031,1681.4063 c 0,14.9218 -12.1093,26.9921 -26.9922,26.9921 -14.9218,0 -26.9921,-12.0703 -26.9921,-26.9921 0,-14.9219 12.0703,-26.9922 26.9921,-26.9922 14.8829,0 26.9922,12.0703 26.9922,26.9922"
       style="fill:#5900ff;fill-opacity:1;fill-rule:nonzero;stroke:#5900ff;stroke-width:7.5;stroke-linecap:round;stroke-linejoin:round;stroke-miterlimit:10;stroke-opacity:1" />
    <path
       id="path150"
       transform="matrix(0.1,0,0,-0.1,0,288)"
       d="m 1800.5078,1849.6875 c 0,14.9219 -12.1094,27.0313 -26.9922,27.0313 -14.9218,0 -27.0312,-12.1094 -27.0312,-27.0313 0,-14.8828 12.1094,-26.9922 27.0312,-26.9922 14.8828,0 26.9922,12.1094 26.9922,26.9922"
       style="fill:#5900ff;fill-opacity:1;fill-rule:nonzero;stroke:#5900ff;stroke-width:7.5;stroke-linecap:round;stroke-linejoin:round;stroke-miterlimit:10;stroke-opacity:1" />
    <path
       id="path152"
       transform="matrix(0.1,0,0,-0.1,0,288)"
       d="m 2384.6094,1435.7813 c 0,14.9218 -12.1094,27.0312 -26.9922,27.0312 -14.9219,0 -27.0313,-12.1094 -27.0313,-27.0312 0,-14.8829 12.1094,-26.9922 27.0313,-26.9922 14.8828,0 26.9922,12.1093 26.9922,26.9922"
       style="fill:#5900ff;fill-opacity:1;fill-rule:nonzero;stroke:#5900ff;stroke-width:7.5;stroke-linecap:round;stroke-linejoin:round;stroke-miterlimit:10;stroke-opacity:1" />
    <path
       id="path154"
       transform="matrix(0.1,0,0,-0.1,0,288)"
       d="m 2302.3047,1113.5938 c 0,14.9218 -12.1094,26.9921 -26.9922,26.9921 -14.9219,0 -27.0312,-12.0703 -27.0312,-26.9921 0,-14.9219 12.1093,-26.9922 27.0312,-26.9922 14.8828,0 26.9922,12.0703 26.9922,26.9922"
       style="fill:#5900ff;fill-opacity:1;fill-rule:nonzero;stroke:#5900ff;stroke-width:7.5;stroke-linecap:round;stroke-linejoin:round;stroke-miterlimit:10;stroke-opacity:1" />
    <path
       id="path156"
       transform="matrix(0.1,0,0,-0.1,0,288)"
       d="m 1491.0938,1990.1172 c 0,14.8828 -12.0704,26.9922 -26.9922,26.9922 -14.9219,0 -26.9922,-12.1094 -26.9922,-26.9922 0,-14.9219 12.0703,-27.0313 26.9922,-27.0313 14.9218,0 26.9922,12.1094 26.9922,27.0313"
       style="fill:#5900ff;fill-opacity:1;fill-rule:nonzero;stroke:#5900ff;stroke-width:7.5;stroke-linecap:round;stroke-linejoin:round;stroke-miterlimit:10;stroke-opacity:1" />
    <path
       id="path158"
       transform="matrix(0.1,0,0,-0.1,0,288)"
       d="m 1857.8125,1999.6094 c 0,14.8828 -12.1094,26.9922 -27.0312,26.9922 -14.8829,0 -26.9922,-12.1094 -26.9922,-26.9922 0,-14.9219 12.1093,-26.9922 26.9922,-26.9922 14.9218,0 27.0312,12.0703 27.0312,26.9922"
       style="fill:#5900ff;fill-opacity:1;fill-rule:nonzero;stroke:#5900ff;stroke-width:7.5;stroke-linecap:round;stroke-linejoin:round;stroke-miterlimit:10;stroke-opacity:1" />
    <path
       id="path160"
       transform="matrix(0.1,0,0,-0.1,0,288)"
       d="m 1450.5078,1593.9063 c 0,14.9218 -12.1094,26.9921 -26.9922,26.9921 -14.9218,0 -27.0312,-12.0703 -27.0312,-26.9921 0,-14.9219 12.1094,-26.9922 27.0312,-26.9922 14.8828,0 26.9922,12.0703 26.9922,26.9922"
       style="fill:#5900ff;fill-opacity:1;fill-rule:nonzero;stroke:#5900ff;stroke-width:7.5;stroke-linecap:round;stroke-linejoin:round;stroke-miterlimit:10;stroke-opacity:1" />
    <path
       id="path162"
       transform="matrix(0.1,0,0,-0.1,0,288)"
       d="m 1481.2109,1260.7031 c 0,14.9219 -12.1093,26.9922 -26.9921,26.9922 -14.9219,0 -27.0313,-12.0703 -27.0313,-26.9922 0,-14.9218 12.1094,-26.9922 27.0313,-26.9922 14.8828,0 26.9921,12.0704 26.9921,26.9922"
       style="fill:#5900ff;fill-opacity:1;fill-rule:nonzero;stroke:#5900ff;stroke-width:7.5;stroke-linecap:round;stroke-linejoin:round;stroke-miterlimit:10;stroke-opacity:1" />
    <path
       id="path164"
       transform="matrix(0.1,0,0,-0.1,0,288)"
       d="m 1806.4844,1783.2813 c 0,14.9218 -12.0703,27.0312 -26.9922,27.0312 -14.8828,0 -26.9922,-12.1094 -26.9922,-27.0312 0,-14.8829 12.1094,-26.9922 26.9922,-26.9922 14.9219,0 26.9922,12.1093 26.9922,26.9922"
       style="fill:#5900ff;fill-opacity:1;fill-rule:nonzero;stroke:#5900ff;stroke-width:7.5;stroke-linecap:round;stroke-linejoin:round;stroke-miterlimit:10;stroke-opacity:1" />
    <path
       id="path166"
       transform="matrix(0.1,0,0,-0.1,0,288)"
       d="m 2110.8984,1664.6875 c 0,14.9219 -12.0703,27.0313 -26.9921,27.0313 -14.9219,0 -26.9922,-12.1094 -26.9922,-27.0313 0,-14.8828 12.0703,-26.9922 26.9922,-26.9922 14.9218,0 26.9921,12.1094 26.9921,26.9922"
       style="fill:#5900ff;fill-opacity:1;fill-rule:nonzero;stroke:#5900ff;stroke-width:7.5;stroke-linecap:round;stroke-linejoin:round;stroke-miterlimit:10;stroke-opacity:1" />
    <path
       id="path168"
       transform="matrix(0.1,0,0,-0.1,0,288)"
       d="m 2123.5156,1875.7813 c 0,14.9218 -12.1093,27.0312 -27.0312,27.0312 -14.8828,0 -26.9922,-12.1094 -26.9922,-27.0312 0,-14.8829 12.1094,-26.9922 26.9922,-26.9922 14.9219,0 27.0312,12.1093 27.0312,26.9922"
       style="fill:#5900ff;fill-opacity:1;fill-rule:nonzero;stroke:#5900ff;stroke-width:7.5;stroke-linecap:round;stroke-linejoin:round;stroke-miterlimit:10;stroke-opacity:1" />
    <path
       id="path170"
       transform="matrix(0.1,0,0,-0.1,0,288)"
       d="m 1752.8906,1617.5 c 0,14.9219 -12.0703,26.9922 -26.9922,26.9922 -14.9218,0 -26.9921,-12.0703 -26.9921,-26.9922 0,-14.9219 12.0703,-26.9922 26.9921,-26.9922 14.9219,0 26.9922,12.0703 26.9922,26.9922"
       style="fill:#5900ff;fill-opacity:1;fill-rule:nonzero;stroke:#5900ff;stroke-width:7.5;stroke-linecap:round;stroke-linejoin:round;stroke-miterlimit:10;stroke-opacity:1" />
    <path
       id="path172"
       transform="matrix(0.1,0,0,-0.1,0,288)"
       d="m 1865.7813,791.40625 c 0,14.92187 -12.0704,26.99219 -26.9922,26.99219 -14.8828,0 -26.9922,-12.07032 -26.9922,-26.99219 0,-14.92188 12.1094,-26.99219 26.9922,-26.99219 14.9218,0 26.9922,12.07031 26.9922,26.99219"
       style="fill:#5900ff;fill-opacity:1;fill-rule:nonzero;stroke:#5900ff;stroke-width:7.5;stroke-linecap:round;stroke-linejoin:round;stroke-miterlimit:10;stroke-opacity:1" />
    <path
       id="path174"
       transform="matrix(0.1,0,0,-0.1,0,288)"
       d="m 1466.2891,1480.3125 c 0,14.8828 -12.0703,26.9922 -26.9922,26.9922 -14.9219,0 -26.9922,-12.1094 -26.9922,-26.9922 0,-14.9219 12.0703,-27.0312 26.9922,-27.0312 14.9219,0 26.9922,12.1093 26.9922,27.0312"
       style="fill:#5900ff;fill-opacity:1;fill-rule:nonzero;stroke:#5900ff;stroke-width:7.5;stroke-linecap:round;stroke-linejoin:round;stroke-miterlimit:10;stroke-opacity:1" />
    <path
       id="path176"
       transform="matrix(0.1,0,0,-0.1,0,288)"
       d="m 2186.4063,1529.6094 c 0,14.8828 -12.1094,26.9922 -26.9922,26.9922 -14.9219,0 -27.0313,-12.1094 -27.0313,-26.9922 0,-14.9219 12.1094,-26.9922 27.0313,-26.9922 14.8828,0 26.9922,12.0703 26.9922,26.9922"
       style="fill:#5900ff;fill-opacity:1;fill-rule:nonzero;stroke:#5900ff;stroke-width:7.5;stroke-linecap:round;stroke-linejoin:round;stroke-miterlimit:10;stroke-opacity:1" />
    <path
       id="path178"
       transform="matrix(0.1,0,0,-0.1,0,288)"
       d="m 2361.0938,1499.8047 c 0,14.9219 -12.0704,26.9922 -26.9922,26.9922 -14.9219,0 -26.9922,-12.0703 -26.9922,-26.9922 0,-14.9219 12.0703,-26.9922 26.9922,-26.9922 14.9218,0 26.9922,12.0703 26.9922,26.9922"
       style="fill:#5900ff;fill-opacity:1;fill-rule:nonzero;stroke:#5900ff;stroke-width:7.5;stroke-linecap:round;stroke-linejoin:round;stroke-miterlimit:10;stroke-opacity:1" />
    <path
       id="path180"
       transform="matrix(0.1,0,0,-0.1,0,288)"
       d="m 1477.8906,1155.1953 c 0,14.9219 -12.0703,26.9922 -26.9922,26.9922 -14.9218,0 -26.9921,-12.0703 -26.9921,-26.9922 0,-14.9219 12.0703,-26.9922 26.9921,-26.9922 14.9219,0 26.9922,12.0703 26.9922,26.9922"
       style="fill:#5900ff;fill-opacity:1;fill-rule:nonzero;stroke:#5900ff;stroke-width:7.5;stroke-linecap:round;stroke-linejoin:round;stroke-miterlimit:10;stroke-opacity:1" />
    <path
       id="path182"
       transform="matrix(0.1,0,0,-0.1,0,288)"
       d="m 1142.3047,1179.6875 c 0,14.9219 -12.1094,27.0313 -26.9922,27.0313 -14.9219,0 -27.0312,-12.1094 -27.0312,-27.0313 0,-14.8828 12.1093,-26.9922 27.0312,-26.9922 14.8828,0 26.9922,12.1094 26.9922,26.9922"
       style="fill:#5900ff;fill-opacity:1;fill-rule:nonzero;stroke:#5900ff;stroke-width:7.5;stroke-linecap:round;stroke-linejoin:round;stroke-miterlimit:10;stroke-opacity:1" />
    <path
       id="path184"
       transform="matrix(0.1,0,0,-0.1,0,288)"
       d="m 1461.9141,863.00781 c 0,14.88281 -12.1094,26.99219 -27.0313,26.99219 -14.8828,0 -26.9922,-12.10938 -26.9922,-26.99219 0,-14.92187 12.1094,-26.99219 26.9922,-26.99219 14.9219,0 27.0313,12.07032 27.0313,26.99219"
       style="fill:#5900ff;fill-opacity:1;fill-rule:nonzero;stroke:#5900ff;stroke-width:7.5;stroke-linecap:round;stroke-linejoin:round;stroke-miterlimit:10;stroke-opacity:1" />
    <path
       id="path186"
       transform="matrix(0.1,0,0,-0.1,0,288)"
       d="m 2443.2813,1389.1016 c 0,14.9218 -12.0704,26.9922 -26.9922,26.9922 -14.8828,0 -26.9922,-12.0704 -26.9922,-26.9922 0,-14.9219 12.1094,-26.9922 26.9922,-26.9922 14.9218,0 26.9922,12.0703 26.9922,26.9922"
       style="fill:#5900ff;fill-opacity:1;fill-rule:nonzero;stroke:#5900ff;stroke-width:7.5;stroke-linecap:round;stroke-linejoin:round;stroke-miterlimit:10;stroke-opacity:1" />
    <path
       id="path188"
       transform="matrix(0.1,0,0,-0.1,0,288)"
       d="m 1723.0859,1059.2969 c 0,14.9219 -12.0703,26.9922 -26.9921,26.9922 -14.9219,0 -26.9922,-12.0703 -26.9922,-26.9922 0,-14.9219 12.0703,-26.9922 26.9922,-26.9922 14.9218,0 26.9921,12.0703 26.9921,26.9922"
       style="fill:#5900ff;fill-opacity:1;fill-rule:nonzero;stroke:#5900ff;stroke-width:7.5;stroke-linecap:round;stroke-linejoin:round;stroke-miterlimit:10;stroke-opacity:1" />
    <path
       id="path190"
       transform="matrix(0.1,0,0,-0.1,0,288)"
       d="m 2265,1560.1172 c 0,14.8828 -12.1094,26.9922 -26.9922,26.9922 -14.9219,0 -26.9922,-12.1094 -26.9922,-26.9922 0,-14.9219 12.0703,-27.0313 26.9922,-27.0313 14.8828,0 26.9922,12.1094 26.9922,27.0313"
       style="fill:#5900ff;fill-opacity:1;fill-rule:nonzero;stroke:#5900ff;stroke-width:7.5;stroke-linecap:round;stroke-linejoin:round;stroke-miterlimit:10;stroke-opacity:1" />
    <path
       id="path192"
       transform="matrix(0.1,0,0,-0.1,0,288)"
       d="m 1862.3047,1900.3125 c 0,14.8828 -12.1094,26.9922 -26.9922,26.9922 -14.9219,0 -27.0312,-12.1094 -27.0312,-26.9922 0,-14.9219 12.1093,-27.0312 27.0312,-27.0312 14.8828,0 26.9922,12.1093 26.9922,27.0312"
       style="fill:#5900ff;fill-opacity:1;fill-rule:nonzero;stroke:#5900ff;stroke-width:7.5;stroke-linecap:round;stroke-linejoin:round;stroke-miterlimit:10;stroke-opacity:1" />
    <path
       id="path194"
       transform="matrix(0.1,0,0,-0.1,0,288)"
       d="m 1881.0156,1984.2969 c 0,14.9219 -12.1093,26.9922 -27.0312,26.9922 -14.8828,0 -26.9922,-12.0703 -26.9922,-26.9922 0,-14.9219 12.1094,-26.9922 26.9922,-26.9922 14.9219,0 27.0312,12.0703 27.0312,26.9922"
       style="fill:#5900ff;fill-opacity:1;fill-rule:nonzero;stroke:#5900ff;stroke-width:7.5;stroke-linecap:round;stroke-linejoin:round;stroke-miterlimit:10;stroke-opacity:1" />
    <path
       id="path196"
       transform="matrix(0.1,0,0,-0.1,0,288)"
       d="m 1528.9063,2059.4141 c 0,14.8828 -12.1094,26.9922 -26.9922,26.9922 -14.9219,0 -27.0313,-12.1094 -27.0313,-26.9922 0,-14.9219 12.1094,-27.0313 27.0313,-27.0313 14.8828,0 26.9922,12.1094 26.9922,27.0313"
       style="fill:#5900ff;fill-opacity:1;fill-rule:nonzero;stroke:#5900ff;stroke-width:7.5;stroke-linecap:round;stroke-linejoin:round;stroke-miterlimit:10;stroke-opacity:1" />
    <path
       id="path198"
       transform="matrix(0.1,0,0,-0.1,0,288)"
       d="m 956.48437,1926.7188 c 0,14.8828 -12.07031,26.9921 -26.99218,26.9921 -14.88282,0 -26.99219,-12.1093 -26.99219,-26.9921 0,-14.9219 12.10937,-27.0313 26.99219,-27.0313 14.92187,0 26.99218,12.1094 26.99218,27.0313"
       style="fill:#5900ff;fill-opacity:1;fill-rule:nonzero;stroke:#5900ff;stroke-width:7.5;stroke-linecap:round;stroke-linejoin:round;stroke-miterlimit:10;stroke-opacity:1" />
    <path
       id="path200"
       transform="matrix(0.1,0,0,-0.1,0,288)"
       d="m 1626.9141,1984.6875 c 0,14.9219 -12.1094,27.0313 -27.0313,27.0313 -14.8828,0 -26.9922,-12.1094 -26.9922,-27.0313 0,-14.8828 12.1094,-26.9922 26.9922,-26.9922 14.9219,0 27.0313,12.1094 27.0313,26.9922"
       style="fill:#5900ff;fill-opacity:1;fill-rule:nonzero;stroke:#5900ff;stroke-width:7.5;stroke-linecap:round;stroke-linejoin:round;stroke-miterlimit:10;stroke-opacity:1" />
    <path
       id="path202"
       transform="matrix(0.1,0,0,-0.1,0,288)"
       d="m 1865.1953,1467.1094 c 0,14.8828 -12.0703,26.9922 -26.9922,26.9922 -14.9218,0 -26.9922,-12.1094 -26.9922,-26.9922 0,-14.9219 12.0704,-26.9922 26.9922,-26.9922 14.9219,0 26.9922,12.0703 26.9922,26.9922"
       style="fill:#5900ff;fill-opacity:1;fill-rule:nonzero;stroke:#5900ff;stroke-width:7.5;stroke-linecap:round;stroke-linejoin:round;stroke-miterlimit:10;stroke-opacity:1" />
  </g>
</svg>
