<?xml version="1.0" encoding="UTF-8" standalone="no"?>
<svg
   xmlns:dc="http://purl.org/dc/elements/1.1/"
   xmlns:cc="http://creativecommons.org/ns#"
   xmlns:rdf="http://www.w3.org/1999/02/22-rdf-syntax-ns#"
   xmlns:svg="http://www.w3.org/2000/svg"
   xmlns="http://www.w3.org/2000/svg"
   viewBox="0 0 769.70666 825.18665"
   height="825.18665"
   width="769.70667"
   xml:space="preserve"
   id="svg2"
   version="1.1"><metadata
     id="metadata8"><rdf:RDF><cc:Work
         rdf:about=""><dc:format>image/svg+xml</dc:format><dc:type
           rdf:resource="http://purl.org/dc/dcmitype/StillImage" /></cc:Work></rdf:RDF></metadata><defs
     id="defs6"><clipPath
       id="clipPath22"
       clipPathUnits="userSpaceOnUse"><path
         id="path20"
         d="M 590.398,733.801 H 5290.4 V 3369 H 590.398 Z" /></clipPath><clipPath
       id="clipPath32"
       clipPathUnits="userSpaceOnUse"><path
         id="path30"
         d="M 0,0 H 5590 V 3959.4 H 0 Z" /></clipPath><clipPath
       id="clipPath96"
       clipPathUnits="userSpaceOnUse"><path
         id="path94"
         d="M 590.398,733.801 H 5290.4 V 3369 H 590.398 Z" /></clipPath></defs><g
     transform="matrix(1.3333333,0,0,-1.3333333,0,825.18665)"
     id="g10"><g
       transform="scale(0.1)"
       id="g12"><path
         id="path14"
         style="fill:#ffffff;fill-opacity:1;fill-rule:nonzero;stroke:none"
         d="M 0,0 H 5772.8 V 6188.9 H 0 Z" /><g
         id="g16"><g
           clip-path="url(#clipPath22)"
           id="g18"><path
             id="path24"
             style="fill:none;stroke:#5b00ff;stroke-width:22.5;stroke-linecap:round;stroke-linejoin:round;stroke-miterlimit:10;stroke-dasharray:none;stroke-opacity:1"
             d="M 764.5,3271.4 H 1697 l 44.4,-0.1 44.4,-0.2 44.4,-0.4 44.4,-1.1 44.4,-2.3 44.4,-4.4 44.4,-8 44.5,-13.9 44.4,-22.7 44.4,-35 44.4,-51.2 44.4,-71.3 44.4,-94.4 44.4,-119.4 44.4,-144.1 44.4,-166.5 44.4,-184.1 44.4,-195.1 44.4,-198.3 44.4,-193.5 44.4,-181 44.4,-162.4 44.4,-139.5 44.5,-114 44.4,-87.8 44.4,-61.8 44.4,-36.599 44.4,-12 44.4,12 44.4,36.599 44.4,61.8 44.4,87.8 44.4,114 44.4,139.5 44.4,162.4 44.4,181 44.4,193.5 44.4,198.3 44.4,195.1 44.5,184.1 44.4,166.5 44.4,144.1 44.4,119.4 44.4,94.4 44.4,71.3 44.4,51.2 44.4,35 44.4,22.7 44.4,13.9 44.4,8 44.4,4.4 44.4,2.3 44.4,1.1 44.4,0.4 44.4,0.2 44.5,0.1 h 932.5" /></g></g><g
         id="g26"><g
           clip-path="url(#clipPath32)"
           id="g28"><path
             id="path34"
             style="fill:none;stroke:#000000;stroke-width:7.5;stroke-linecap:round;stroke-linejoin:round;stroke-miterlimit:10;stroke-dasharray:none;stroke-opacity:1"
             d="M 720.102,733.801 H 5160.7" /><path
             id="path36"
             style="fill:none;stroke:#000000;stroke-width:7.5;stroke-linecap:round;stroke-linejoin:round;stroke-miterlimit:10;stroke-dasharray:none;stroke-opacity:1"
             d="m 720.102,733.801 v -72" /><path
             id="path38"
             style="fill:none;stroke:#000000;stroke-width:7.5;stroke-linecap:round;stroke-linejoin:round;stroke-miterlimit:10;stroke-dasharray:none;stroke-opacity:1"
             d="m 1608.2,733.801 v -72" /><path
             id="path40"
             style="fill:none;stroke:#000000;stroke-width:7.5;stroke-linecap:round;stroke-linejoin:round;stroke-miterlimit:10;stroke-dasharray:none;stroke-opacity:1"
             d="m 2496.3,733.801 v -72" /><path
             id="path42"
             style="fill:none;stroke:#000000;stroke-width:7.5;stroke-linecap:round;stroke-linejoin:round;stroke-miterlimit:10;stroke-dasharray:none;stroke-opacity:1"
             d="m 3384.4,733.801 v -72" /><path
             id="path44"
             style="fill:none;stroke:#000000;stroke-width:7.5;stroke-linecap:round;stroke-linejoin:round;stroke-miterlimit:10;stroke-dasharray:none;stroke-opacity:1"
             d="m 4272.6,733.801 v -72" /><path
             id="path46"
             style="fill:none;stroke:#000000;stroke-width:7.5;stroke-linecap:round;stroke-linejoin:round;stroke-miterlimit:10;stroke-dasharray:none;stroke-opacity:1"
             d="m 5160.7,733.801 v -72" /><g
             transform="scale(10)"
             id="g48"><text
               id="text52"
               style="font-variant:normal;font-weight:normal;font-size:16px;font-family:Helvetica;-inkscape-font-specification:Helvetica;writing-mode:lr-tb;fill:#000000;fill-opacity:1;fill-rule:nonzero;stroke:none"
               transform="matrix(1,0,0,-1,60.8906,47.4602)"><tspan
                 id="tspan50"
                 y="0"
                 x="0 8.8959999 13.344 88.809761 97.705757 102.15376 177.61984 186.51584 190.96384 266.4296 275.32559 279.77359 355.24991 364.14594 368.59393 444.05969 452.95569 457.40369">0.00.20.40.60.81.0</tspan></text></g><path
             id="path54"
             style="fill:none;stroke:#000000;stroke-width:7.5;stroke-linecap:round;stroke-linejoin:round;stroke-miterlimit:10;stroke-dasharray:none;stroke-opacity:1"
             d="M 590.398,831.398 V 3271.4" /><path
             id="path56"
             style="fill:none;stroke:#000000;stroke-width:7.5;stroke-linecap:round;stroke-linejoin:round;stroke-miterlimit:10;stroke-dasharray:none;stroke-opacity:1"
             d="m 590.398,831.398 h -72" /><path
             id="path58"
             style="fill:none;stroke:#000000;stroke-width:7.5;stroke-linecap:round;stroke-linejoin:round;stroke-miterlimit:10;stroke-dasharray:none;stroke-opacity:1"
             d="m 590.398,1319.4 h -72" /><path
             id="path60"
             style="fill:none;stroke:#000000;stroke-width:7.5;stroke-linecap:round;stroke-linejoin:round;stroke-miterlimit:10;stroke-dasharray:none;stroke-opacity:1"
             d="m 590.398,1807.4 h -72" /><path
             id="path62"
             style="fill:none;stroke:#000000;stroke-width:7.5;stroke-linecap:round;stroke-linejoin:round;stroke-miterlimit:10;stroke-dasharray:none;stroke-opacity:1"
             d="m 590.398,2295.4 h -72" /><path
             id="path64"
             style="fill:none;stroke:#000000;stroke-width:7.5;stroke-linecap:round;stroke-linejoin:round;stroke-miterlimit:10;stroke-dasharray:none;stroke-opacity:1"
             d="m 590.398,2783.4 h -72" /><path
             id="path66"
             style="fill:none;stroke:#000000;stroke-width:7.5;stroke-linecap:round;stroke-linejoin:round;stroke-miterlimit:10;stroke-dasharray:none;stroke-opacity:1"
             d="m 590.398,3271.4 h -72" /><g
             transform="scale(10)"
             id="g68"><text
               id="text72"
               style="font-variant:normal;font-weight:normal;font-size:16px;font-family:Helvetica;-inkscape-font-specification:Helvetica;writing-mode:lr-tb;fill:#000000;fill-opacity:1;fill-rule:nonzero;stroke:none"
               transform="matrix(0,1,1,0,41.7602,72.0203)"><tspan
                 id="tspan70"
                 y="0"
                 x="0 8.8959999 13.344 48.799999 57.695999 62.144001 97.599998 106.496 110.944 146.39999 155.29601 159.744 195.2 204.09599 208.54401 244 252.896 257.34399">0.00.20.40.60.81.0</tspan></text><text
               id="text76"
               style="font-variant:normal;font-weight:normal;font-size:19px;font-family:Helvetica;-inkscape-font-specification:Helvetica;writing-mode:lr-tb;fill:#000000;fill-opacity:1;fill-rule:nonzero;stroke:none"
               transform="matrix(1,0,0,-1,140.13,359.6)"><tspan
                 id="tspan74"
                 y="0"
                 x="0 11.723049 22.001955 35.530075 46.094074 52.421074 57.703075 69.312073 79.876076 90.440071 99.940071 105.22208 109.44007 120.00407 130.56807 135.85007 140.5621 151.1261 157.45311 162.73511 168.01711 178.5811 189.1451 194.42711 203.75624 214.32024 223.82024 229.10223 234.38423 240.71124 254.42923 265.52524 276.08923 286.65323 297.21722">Power Function for the Test (N=100)</tspan></text><text
               id="text80"
               style="font-variant:normal;font-weight:normal;font-size:16px;font-family:Helvetica;-inkscape-font-specification:Helvetica;writing-mode:lr-tb;fill:#000000;fill-opacity:1;fill-rule:nonzero;stroke:none"
               transform="matrix(1,0,0,-1,241.02,18.94)"><tspan
                 id="tspan78"
                 y="0"
                 x="0 7.8558559 13.423822 22.319822 31.215822 35.663822 45.216 54.112 57.663998 66.559998 75.456001 79.903999 88.799995 93.248001">True Value of </tspan></text><text
               id="text84"
               style="font-variant:normal;font-weight:normal;font-size:16px;font-family:Symbol;-inkscape-font-specification:Symbol;writing-mode:lr-tb;fill:#000000;fill-opacity:1;fill-rule:nonzero;stroke:none"
               transform="matrix(1,0,0,-1,338.72,18.94)"><tspan
                 id="tspan82"
                 y="0"
                 x="0">θ</tspan></text><text
               id="text88"
               style="font-variant:normal;font-weight:normal;font-size:16px;font-family:Helvetica;-inkscape-font-specification:Helvetica;writing-mode:lr-tb;fill:#000000;fill-opacity:1;fill-rule:nonzero;stroke:none"
               transform="matrix(0,1,1,0,12.9602,93.9918)"><tspan
                 id="tspan86"
                 y="0"
                 x="0 10.672 16 24.896 33.792 42.688 51.584 55.136002 58.688 62.240002 66.688004 74.688004 79.136002 88.031998 92.480003 96.928001 108.48 117.376 120.928 129.82401 137.82401 142.272 145.82401 154.72 163.616 168.064 172.51199 181.408 190.304 194.752 206.304 215.2 218.752">Probability of Rejecting the Null</tspan></text></g></g></g><g
         id="g90"><g
           clip-path="url(#clipPath96)"
           id="g92"><path
             id="path98"
             style="fill:#000000;fill-opacity:1;fill-rule:nonzero;stroke:none"
             d="m 2967.4,953.398 c 0,14.911 -12.09,27 -27,27 -14.91,0 -27,-12.089 -27,-27 0,-14.91 12.09,-27 27,-27 14.91,0 27,12.09 27,27" /><path
             id="path100"
             style="fill:none;stroke:#000000;stroke-width:7.5;stroke-linecap:round;stroke-linejoin:round;stroke-miterlimit:10;stroke-dasharray:none;stroke-opacity:1"
             d="m 2967.4,953.398 c 0,14.911 -12.09,27 -27,27 -14.91,0 -27,-12.089 -27,-27 0,-14.91 12.09,-27 27,-27 14.91,0 27,12.09 27,27" /></g></g></g></g></svg>
