<?xml version="1.0" encoding="UTF-8" standalone="no"?>
<svg
   xmlns:dc="http://purl.org/dc/elements/1.1/"
   xmlns:cc="http://creativecommons.org/ns#"
   xmlns:rdf="http://www.w3.org/1999/02/22-rdf-syntax-ns#"
   xmlns:svg="http://www.w3.org/2000/svg"
   xmlns="http://www.w3.org/2000/svg"
   version="1.1"
   id="svg2"
   xml:space="preserve"
   width="600"
   height="450"
   viewBox="0 0 600 450"><metadata
     id="metadata8"><rdf:RDF><cc:Work
         rdf:about=""><dc:format>image/svg+xml</dc:format><dc:type
           rdf:resource="http://purl.org/dc/dcmitype/StillImage" /><dc:title></dc:title></cc:Work></rdf:RDF></metadata><defs
     id="defs6"><clipPath
       clipPathUnits="userSpaceOnUse"
       id="clipPath22"><path
         d="M 0,0 H 5590 V 4319.4 H 0 Z"
         id="path20" /></clipPath><clipPath
       clipPathUnits="userSpaceOnUse"
       id="clipPath52"><path
         d="M 590.398,733.801 H 5290.4 V 3729 H 590.398 Z"
         id="path50" /></clipPath></defs><g
     transform="matrix(0.13333339,0,0,-0.13333333,-94.920038,472.01831)"
     id="g16"><g
       id="g18"
       clip-path="url(#clipPath22)"><path
         d="M 764.5,733.801 H 5116.3"
         style="fill:none;stroke:#000000;stroke-width:7.5;stroke-linecap:round;stroke-linejoin:round;stroke-miterlimit:10;stroke-dasharray:none;stroke-opacity:1"
         id="path24" /><path
         d="m 764.5,733.801 v -72"
         style="fill:none;stroke:#000000;stroke-width:7.5;stroke-linecap:round;stroke-linejoin:round;stroke-miterlimit:10;stroke-dasharray:none;stroke-opacity:1"
         id="path26" /><path
         d="m 1634.8,733.801 v -72"
         style="fill:none;stroke:#000000;stroke-width:7.5;stroke-linecap:round;stroke-linejoin:round;stroke-miterlimit:10;stroke-dasharray:none;stroke-opacity:1"
         id="path28" /><path
         d="m 2505.2,733.801 v -72"
         style="fill:none;stroke:#000000;stroke-width:7.5;stroke-linecap:round;stroke-linejoin:round;stroke-miterlimit:10;stroke-dasharray:none;stroke-opacity:1"
         id="path30" /><path
         d="m 3375.6,733.801 v -72"
         style="fill:none;stroke:#000000;stroke-width:7.5;stroke-linecap:round;stroke-linejoin:round;stroke-miterlimit:10;stroke-dasharray:none;stroke-opacity:1"
         id="path32" /><path
         d="m 4245.9,733.801 v -72"
         style="fill:none;stroke:#000000;stroke-width:7.5;stroke-linecap:round;stroke-linejoin:round;stroke-miterlimit:10;stroke-dasharray:none;stroke-opacity:1"
         id="path34" /><path
         d="m 5116.3,733.801 v -72"
         style="fill:none;stroke:#000000;stroke-width:7.5;stroke-linecap:round;stroke-linejoin:round;stroke-miterlimit:10;stroke-dasharray:none;stroke-opacity:1"
         id="path36" /><g
         id="g38"
         transform="scale(10)"><text
           transform="matrix(1,0,0,-1,72.002,47.4602)"
           style="font-variant:normal;font-weight:normal;font-size:16px;font-family:Helvetica;-inkscape-font-specification:Helvetica;writing-mode:lr-tb;fill:#000000;fill-opacity:1;fill-rule:nonzero;stroke:none"
           id="text44"><tspan
             x="0 87.030083 174.07024 261.11008 348.14017 430.73233 439.62833"
             y="0"
             id="tspan40">0246810</tspan><tspan
             x="201.578 211.12996 220.02596 223.57796 232.47395"
             y="28.799999"
             id="tspan42">Value</tspan></text></g></g></g><g
     transform="matrix(0.13333339,0,0,-0.13333333,-94.920038,472.01831)"
     id="g46"><g
       id="g48"
       clip-path="url(#clipPath52)"><path
         d="M 764.5,844.801 808,2176 l 43.5,459.6 43.5,295.5 43.5,205.3 43.602,145.5 43.498,102.4 43.5,69.7 43.5,44.2 43.5,23.7 43.6,7.1 43.5,-6.2 43.5,-17.4 43.5,-26.4 43.5,-33.9 43.5,-40 43.6,-45 43.5,-49 43.5,-52.3 43.5,-54.8 43.5,-56.8 43.6,-58.2 43.5,-59.2 43.5,-59.8 43.5,-60.2 43.5,-60.2 43.5,-60 43.6,-59.6 43.5,-59.1 43.5,-58.3 43.5,-57.4 43.5,-56.6 43.6,-55.5 43.5,-54.3 43.5,-53.2 43.5,-52 43.5,-50.8 43.5,-49.5 43.6,-48.2 43.5,-46.9 43.5,-45.5 43.5,-44.3 43.5,-43 43.6,-41.6 43.5,-40.4 43.5,-39.1 43.5,-37.9 43.5,-36.6 43.5,-35.4 43.6,-34.2 43.5,-33.1 43.5,-31.9 43.5,-30.9 43.5,-29.7 43.6,-28.7 43.5,-27.6 43.5,-26.7 43.5,-25.6 43.5,-24.8 43.5,-23.8 43.6,-22.9 43.5,-22.1 43.5,-21.2 43.5,-20.4 43.5,-19.6 43.5,-18.9 43.6,-18.2 43.5,-17.4 43.5,-16.8 43.5,-16.1 43.5,-15.4 43.6,-14.9 43.5,-14.2 43.5,-13.7 43.5,-13.2 43.5,-12.6 43.5,-12.1 43.6,-11.6 43.5,-11.1 43.5,-10.7 43.5,-10.3 43.5,-9.8 43.6,-9.4 43.5,-9 43.5,-8.7 43.5,-8.3 43.5,-7.9 43.5,-7.6 43.6,-7.3 43.5,-7 43.5,-6.699 43.5,-6.403 43.5,-6.199 43.6,-5.898 43.5,-5.602 43.5,-5.398 43.5,-5.199 43.5,-4.903 43.5,-4.801 43.6,-4.5 43.5,-4.296"
         style="fill:none;stroke:#5b00ff;stroke-width:22.5;stroke-linecap:round;stroke-linejoin:round;stroke-miterlimit:10;stroke-dasharray:none;stroke-opacity:1"
         id="path54" /><path
         d="m 764.5,844.801 43.5,263.799 43.5,238.1 43.5,214.2 43.5,192.1 43.602,171.7 43.498,152.8 43.5,135.3 43.5,119.2 43.5,104.3 43.6,90.6 43.5,78 43.5,66.3 43.5,55.7 43.5,46 43.5,36.9 43.6,28.8 43.5,21.3 43.5,14.5 43.5,8.2 43.5,2.7 43.6,-2.5 43.5,-7.1 43.5,-11.2 43.5,-15 43.5,-18.3 43.5,-21.3 43.6,-23.9 43.5,-26.3 43.5,-28.3 43.5,-30.2 43.5,-31.7 43.6,-33 43.5,-34.1 43.5,-35 43.5,-35.9 43.5,-36.4 43.5,-36.9 43.6,-37.2 43.5,-37.4 43.5,-37.5 43.5,-37.5 43.5,-37.4 43.6,-37.3 43.5,-37 43.5,-36.7 43.5,-36.4 43.5,-35.9 43.5,-35.5 43.6,-34.9 43.5,-34.5 43.5,-33.8 43.5,-33.3 43.5,-32.6 43.6,-32 43.5,-31.4 43.5,-30.7 43.5,-30 43.5,-29.4 43.5,-28.6 43.6,-28 43.5,-27.2 43.5,-26.6 43.5,-25.9 43.5,-25.2 43.5,-24.5 43.6,-23.9 43.5,-23.2 43.5,-22.5 43.5,-21.9 43.5,-21.3 43.6,-20.6 43.5,-20 43.5,-19.4 43.5,-18.8 43.5,-18.2 43.5,-17.7 43.6,-17.1 43.5,-16.5 43.5,-16.1 43.5,-15.5 43.5,-14.9 43.6,-14.5 43.5,-14 43.5,-13.6 43.5,-13.1 43.5,-12.6 43.5,-12.2 43.6,-11.8 43.5,-11.4 43.5,-10.9 43.5,-10.6 43.5,-10.2 43.6,-9.9 43.5,-9.5 43.5,-9.2 43.5,-8.8 43.5,-8.5 43.5,-8.2 43.6,-7.9 43.5,-7.7"
         style="fill:none;stroke:#5b00ff;stroke-width:22.5;stroke-linecap:round;stroke-linejoin:round;stroke-miterlimit:10;stroke-dasharray:67.5, 112.5;stroke-dashoffset:0;stroke-opacity:1"
         id="path56" /><path
         d="m 764.5,844.801 43.5,44.398 43.5,75 43.5,89.201 43.5,96.9 43.602,100.7 43.498,101.7 43.5,100.9 43.5,98.7 43.5,95.6 43.6,91.6 43.5,87.2 43.5,82.3 43.5,77.3 43.5,72 43.5,66.6 43.6,61.4 43.5,56.1 43.5,50.8 43.5,45.8 43.5,40.8 43.6,36 43.5,31.3 43.5,27 43.5,22.7 43.5,18.7 43.5,14.8 43.6,11.2 43.5,7.7 43.5,4.5 43.5,1.5 43.5,-1.4 43.6,-4.1 43.5,-6.5 43.5,-8.9 43.5,-11 43.5,-12.9 43.5,-14.8 43.6,-16.4 43.5,-17.9 43.5,-19.3 43.5,-20.6 43.5,-21.7 43.6,-22.7 43.5,-23.6 43.5,-24.4 43.5,-25 43.5,-25.7 43.5,-26.2 43.6,-26.5 43.5,-27 43.5,-27.2 43.5,-27.4 43.5,-27.5 43.6,-27.6 43.5,-27.7 43.5,-27.6 43.5,-27.6 43.5,-27.4 43.5,-27.3 43.6,-27.1 43.5,-26.9 43.5,-26.6 43.5,-26.3 43.5,-26 43.5,-25.7 43.6,-25.4 43.5,-24.9 43.5,-24.6 43.5,-24.2 43.5,-23.8 43.6,-23.4 43.5,-22.9 43.5,-22.5 43.5,-22 43.5,-21.6 43.5,-21.2 43.6,-20.7 43.5,-20.2 43.5,-19.8 43.5,-19.3 43.5,-18.9 43.6,-18.4 43.5,-18 43.5,-17.6 43.5,-17 43.5,-16.7 43.5,-16.2 43.6,-15.8 43.5,-15.4 43.5,-14.9 43.5,-14.6 43.5,-14.1 43.6,-13.8 43.5,-13.3 43.5,-13 43.5,-12.6 43.5,-12.2 43.5,-11.9 43.6,-11.5 43.5,-11.2"
         style="fill:none;stroke:#5b00ff;stroke-width:22.5;stroke-linecap:round;stroke-linejoin:round;stroke-miterlimit:10;stroke-dasharray:0, 90;stroke-dashoffset:0;stroke-opacity:1"
         id="path58" /><path
         d="m 3934,3100.6 h 246.6"
         style="fill:none;stroke:#5b00ff;stroke-width:22.5;stroke-linecap:round;stroke-linejoin:round;stroke-miterlimit:10;stroke-dasharray:none;stroke-opacity:1"
         id="path60" /><path
         d="m 3934,2915.9 h 246.6"
         style="fill:none;stroke:#5b00ff;stroke-width:22.5;stroke-linecap:round;stroke-linejoin:round;stroke-miterlimit:10;stroke-dasharray:67.5, 112.5;stroke-dashoffset:0;stroke-opacity:1"
         id="path62" /><path
         d="m 3934,2731.2 h 246.6"
         style="fill:none;stroke:#5b00ff;stroke-width:22.5;stroke-linecap:round;stroke-linejoin:round;stroke-miterlimit:10;stroke-dasharray:0, 90;stroke-dashoffset:0;stroke-opacity:1"
         id="path64" /><g
         id="g66"
         transform="scale(10)"><text
           transform="matrix(1,0,0,-1,430.39,304.32)"
           style="font-variant:normal;font-weight:normal;font-size:16px;font-family:Helvetica;-inkscape-font-specification:Helvetica;writing-mode:lr-tb;fill:#000000;fill-opacity:1;fill-rule:nonzero;stroke:none"
           id="text74"><tspan
             x="0 8.8959999 13.344 17.792 27.136 31.584"
             y="0"
             id="tspan68">df = 3</tspan><tspan
             x="0 8.8959999 13.344 17.792 27.136 31.584"
             y="18.4699"
             id="tspan70">df = 4</tspan><tspan
             x="0 8.8959999 13.344 17.792 27.136 31.584"
             y="36.9398"
             id="tspan72">df = 5</tspan></text></g></g></g></svg>
