<?xml version="1.0" encoding="UTF-8" standalone="no"?>
<svg
   xmlns:dc="http://purl.org/dc/elements/1.1/"
   xmlns:cc="http://creativecommons.org/ns#"
   xmlns:rdf="http://www.w3.org/1999/02/22-rdf-syntax-ns#"
   xmlns:svg="http://www.w3.org/2000/svg"
   xmlns="http://www.w3.org/2000/svg"
   viewBox="0 0 732.37329 897.18665"
   height="897.18665"
   width="732.37329"
   xml:space="preserve"
   id="svg2"
   version="1.1"><metadata
     id="metadata8"><rdf:RDF><cc:Work
         rdf:about=""><dc:format>image/svg+xml</dc:format><dc:type
           rdf:resource="http://purl.org/dc/dcmitype/StillImage" /></cc:Work></rdf:RDF></metadata><defs
     id="defs6"><clipPath
       id="clipPath22"
       clipPathUnits="userSpaceOnUse"><path
         id="path20"
         d="M 586.801,733.801 H 4734 V 4449 H 586.801 Z" /></clipPath><clipPath
       id="clipPath118"
       clipPathUnits="userSpaceOnUse"><path
         id="path116"
         d="M 0,0 H 5036.4 V 5039.4 H 0 Z" /></clipPath><clipPath
       id="clipPath134"
       clipPathUnits="userSpaceOnUse"><path
         id="path132"
         d="M 586.801,733.801 H 4734 V 4449 H 586.801 Z" /></clipPath></defs><g
     transform="matrix(1.3333333,0,0,-1.3333333,0,897.18664)"
     id="g10"><g
       transform="scale(0.1)"
       id="g12"><path
         id="path14"
         style="fill:#ffffff;fill-opacity:1;fill-rule:nonzero;stroke:none"
         d="M 0,0 H 5492.8 V 6728.9 H 0 Z" /><g
         id="g16"><g
           clip-path="url(#clipPath22)"
           id="g18"><path
             id="path24"
             style="fill:none;stroke:#000000;stroke-width:7.5;stroke-linecap:round;stroke-linejoin:round;stroke-miterlimit:10;stroke-dasharray:none;stroke-opacity:1"
             d="m 1434.4,3824.1 c 0,29.82 -24.18,54 -54,54 -29.82,0 -54,-24.18 -54,-54 0,-29.82 24.18,-54 54,-54 29.82,0 54,24.18 54,54" /><path
             id="path26"
             style="fill:none;stroke:#000000;stroke-width:7.5;stroke-linecap:round;stroke-linejoin:round;stroke-miterlimit:10;stroke-dasharray:none;stroke-opacity:1"
             d="m 2020.4,3908.1 72.7,-126 h -145.4 l 72.7,126" /><path
             id="path28"
             style="fill:none;stroke:#000000;stroke-width:7.5;stroke-linecap:round;stroke-linejoin:round;stroke-miterlimit:10;stroke-dasharray:none;stroke-opacity:1"
             d="m 2584,3824.1 h 152.7" /><path
             id="path30"
             style="fill:none;stroke:#000000;stroke-width:7.5;stroke-linecap:round;stroke-linejoin:round;stroke-miterlimit:10;stroke-dasharray:none;stroke-opacity:1"
             d="m 2660.4,3747.7 v 152.8" /><path
             id="path32"
             style="fill:none;stroke:#000000;stroke-width:7.5;stroke-linecap:round;stroke-linejoin:round;stroke-miterlimit:10;stroke-dasharray:none;stroke-opacity:1"
             d="m 3246.4,3770.1 108,108" /><path
             id="path34"
             style="fill:none;stroke:#000000;stroke-width:7.5;stroke-linecap:round;stroke-linejoin:round;stroke-miterlimit:10;stroke-dasharray:none;stroke-opacity:1"
             d="m 3246.4,3878.1 108,-108" /><path
             id="path36"
             style="fill:none;stroke:#000000;stroke-width:7.5;stroke-linecap:round;stroke-linejoin:round;stroke-miterlimit:10;stroke-dasharray:none;stroke-opacity:1"
             d="m 3864,3824.1 76.4,76.4 76.3,-76.4 -76.3,-76.4 -76.4,76.4" /><path
             id="path38"
             style="fill:none;stroke:#000000;stroke-width:7.5;stroke-linecap:round;stroke-linejoin:round;stroke-miterlimit:10;stroke-dasharray:none;stroke-opacity:1"
             d="m 1380.4,3166.8 72.7,126 h -145.4 l 72.7,-126" /><path
             id="path40"
             style="fill:none;stroke:#000000;stroke-width:7.5;stroke-linecap:round;stroke-linejoin:round;stroke-miterlimit:10;stroke-dasharray:none;stroke-opacity:1"
             d="m 1966.4,3196.8 h 108 v 108 h -108 z" /><path
             id="path42"
             style="fill:none;stroke:#000000;stroke-width:7.5;stroke-linecap:round;stroke-linejoin:round;stroke-miterlimit:10;stroke-dasharray:none;stroke-opacity:1"
             d="m 1966.4,3196.8 108,108" /><path
             id="path44"
             style="fill:none;stroke:#000000;stroke-width:7.5;stroke-linecap:round;stroke-linejoin:round;stroke-miterlimit:10;stroke-dasharray:none;stroke-opacity:1"
             d="m 1966.4,3304.8 108,-108" /><path
             id="path46"
             style="fill:none;stroke:#000000;stroke-width:7.5;stroke-linecap:round;stroke-linejoin:round;stroke-miterlimit:10;stroke-dasharray:none;stroke-opacity:1"
             d="m 2606.4,3196.8 108,108" /><path
             id="path48"
             style="fill:none;stroke:#000000;stroke-width:7.5;stroke-linecap:round;stroke-linejoin:round;stroke-miterlimit:10;stroke-dasharray:none;stroke-opacity:1"
             d="m 2606.4,3304.8 108,-108" /><path
             id="path50"
             style="fill:none;stroke:#000000;stroke-width:7.5;stroke-linecap:round;stroke-linejoin:round;stroke-miterlimit:10;stroke-dasharray:none;stroke-opacity:1"
             d="m 2584,3250.8 h 152.7" /><path
             id="path52"
             style="fill:none;stroke:#000000;stroke-width:7.5;stroke-linecap:round;stroke-linejoin:round;stroke-miterlimit:10;stroke-dasharray:none;stroke-opacity:1"
             d="m 2660.4,3174.4 v 152.7" /><path
             id="path54"
             style="fill:none;stroke:#000000;stroke-width:7.5;stroke-linecap:round;stroke-linejoin:round;stroke-miterlimit:10;stroke-dasharray:none;stroke-opacity:1"
             d="m 3224,3250.8 h 152.7" /><path
             id="path56"
             style="fill:none;stroke:#000000;stroke-width:7.5;stroke-linecap:round;stroke-linejoin:round;stroke-miterlimit:10;stroke-dasharray:none;stroke-opacity:1"
             d="m 3300.4,3174.4 v 152.7" /><path
             id="path58"
             style="fill:none;stroke:#000000;stroke-width:7.5;stroke-linecap:round;stroke-linejoin:round;stroke-miterlimit:10;stroke-dasharray:none;stroke-opacity:1"
             d="m 3224,3250.8 76.4,76.3 76.3,-76.3 -76.3,-76.4 -76.4,76.4" /><path
             id="path60"
             style="fill:none;stroke:#000000;stroke-width:7.5;stroke-linecap:round;stroke-linejoin:round;stroke-miterlimit:10;stroke-dasharray:none;stroke-opacity:1"
             d="m 3994.4,3250.8 c 0,29.82 -24.18,54 -54,54 -29.82,0 -54,-24.18 -54,-54 0,-29.82 24.18,-54 54,-54 29.82,0 54,24.18 54,54" /><path
             id="path62"
             style="fill:none;stroke:#000000;stroke-width:7.5;stroke-linecap:round;stroke-linejoin:round;stroke-miterlimit:10;stroke-dasharray:none;stroke-opacity:1"
             d="m 3886.4,3250.8 h 108" /><path
             id="path64"
             style="fill:none;stroke:#000000;stroke-width:7.5;stroke-linecap:round;stroke-linejoin:round;stroke-miterlimit:10;stroke-dasharray:none;stroke-opacity:1"
             d="m 3940.4,3196.8 v 108" /><path
             id="path66"
             style="fill:none;stroke:#000000;stroke-width:7.5;stroke-linecap:round;stroke-linejoin:round;stroke-miterlimit:10;stroke-dasharray:none;stroke-opacity:1"
             d="m 1380.4,2593.5 72.7,146.9 h -145.4 l 72.7,-146.9" /><path
             id="path68"
             style="fill:none;stroke:#000000;stroke-width:7.5;stroke-linecap:round;stroke-linejoin:round;stroke-miterlimit:10;stroke-dasharray:none;stroke-opacity:1"
             d="m 1380.4,2761.4 72.7,-146.9 h -145.4 l 72.7,146.9" /><path
             id="path70"
             style="fill:none;stroke:#000000;stroke-width:7.5;stroke-linecap:round;stroke-linejoin:round;stroke-miterlimit:10;stroke-dasharray:none;stroke-opacity:1"
             d="m 1966.4,2677.4 h 108" /><path
             id="path72"
             style="fill:none;stroke:#000000;stroke-width:7.5;stroke-linecap:round;stroke-linejoin:round;stroke-miterlimit:10;stroke-dasharray:none;stroke-opacity:1"
             d="m 2020.4,2623.4 v 108" /><path
             id="path74"
             style="fill:none;stroke:#000000;stroke-width:7.5;stroke-linecap:round;stroke-linejoin:round;stroke-miterlimit:10;stroke-dasharray:none;stroke-opacity:1"
             d="m 1966.4,2623.4 h 108 v 108 h -108 z" /><path
             id="path76"
             style="fill:none;stroke:#000000;stroke-width:7.5;stroke-linecap:round;stroke-linejoin:round;stroke-miterlimit:10;stroke-dasharray:none;stroke-opacity:1"
             d="m 2714.4,2677.4 c 0,29.82 -24.18,54 -54,54 -29.82,0 -54,-24.18 -54,-54 0,-29.82 24.18,-54 54,-54 29.82,0 54,24.18 54,54" /><path
             id="path78"
             style="fill:none;stroke:#000000;stroke-width:7.5;stroke-linecap:round;stroke-linejoin:round;stroke-miterlimit:10;stroke-dasharray:none;stroke-opacity:1"
             d="m 2606.4,2623.4 108,108" /><path
             id="path80"
             style="fill:none;stroke:#000000;stroke-width:7.5;stroke-linecap:round;stroke-linejoin:round;stroke-miterlimit:10;stroke-dasharray:none;stroke-opacity:1"
             d="m 2606.4,2731.4 108,-108" /><path
             id="path82"
             style="fill:none;stroke:#000000;stroke-width:7.5;stroke-linecap:round;stroke-linejoin:round;stroke-miterlimit:10;stroke-dasharray:none;stroke-opacity:1"
             d="m 3300.4,2731.4 54,-108 h -108 l 54,108" /><path
             id="path84"
             style="fill:none;stroke:#000000;stroke-width:7.5;stroke-linecap:round;stroke-linejoin:round;stroke-miterlimit:10;stroke-dasharray:none;stroke-opacity:1"
             d="m 3246.4,2623.4 h 108 v 108 h -108 z" /><path
             id="path86"
             style="fill:#000000;fill-opacity:1;fill-rule:nonzero;stroke:none"
             d="m 3886.4,2623.4 h 108 v 108 h -108 z" /><path
             id="path88"
             style="fill:#000000;fill-opacity:1;fill-rule:nonzero;stroke:none"
             d="m 1434.4,2104.1 c 0,29.82 -24.18,54 -54,54 -29.82,0 -54,-24.18 -54,-54 0,-29.82 24.18,-54 54,-54 29.82,0 54,24.18 54,54" /><path
             id="path90"
             style="fill:#000000;fill-opacity:1;fill-rule:nonzero;stroke:none"
             d="m 2020.4,2188.1 72.7,-126 h -145.4" /><path
             id="path92"
             style="fill:#000000;fill-opacity:1;fill-rule:nonzero;stroke:none"
             d="m 2606.4,2104.1 54,54 54,-54 -54,-54" /><path
             id="path94"
             style="fill:#000000;fill-opacity:1;fill-rule:nonzero;stroke:none"
             d="m 3354.4,2104.1 c 0,29.82 -24.18,54 -54,54 -29.82,0 -54,-24.18 -54,-54 0,-29.82 24.18,-54 54,-54 29.82,0 54,24.18 54,54" /><path
             id="path96"
             style="fill:none;stroke:#000000;stroke-width:7.5;stroke-linecap:round;stroke-linejoin:round;stroke-miterlimit:10;stroke-dasharray:none;stroke-opacity:1"
             d="m 3354.4,2104.1 c 0,29.82 -24.18,54 -54,54 -29.82,0 -54,-24.18 -54,-54 0,-29.82 24.18,-54 54,-54 29.82,0 54,24.18 54,54" /><path
             id="path98"
             style="fill:#000000;fill-opacity:1;fill-rule:nonzero;stroke:none"
             d="m 3976.4,2104.1 c 0,19.88 -16.12,36 -36,36 -19.88,0 -36,-16.12 -36,-36 0,-19.88 16.12,-36 36,-36 19.88,0 36,16.12 36,36" /><path
             id="path100"
             style="fill:none;stroke:#000000;stroke-width:7.5;stroke-linecap:round;stroke-linejoin:round;stroke-miterlimit:10;stroke-dasharray:none;stroke-opacity:1"
             d="m 3976.4,2104.1 c 0,19.88 -16.12,36 -36,36 -19.88,0 -36,-16.12 -36,-36 0,-19.88 16.12,-36 36,-36 19.88,0 36,16.12 36,36" /><path
             id="path102"
             style="fill:none;stroke:#000000;stroke-width:7.5;stroke-linecap:round;stroke-linejoin:round;stroke-miterlimit:10;stroke-dasharray:none;stroke-opacity:1"
             d="m 1434.4,1530.8 c 0,29.82 -24.18,54 -54,54 -29.82,0 -54,-24.18 -54,-54 0,-29.82 24.18,-54 54,-54 29.82,0 54,24.18 54,54" /><path
             id="path104"
             style="fill:none;stroke:#000000;stroke-width:7.5;stroke-linecap:round;stroke-linejoin:round;stroke-miterlimit:10;stroke-dasharray:none;stroke-opacity:1"
             d="m 1972.5,1482.9 h 95.6992 v 95.7031 H 1972.5 Z" /><path
             id="path106"
             style="fill:none;stroke:#000000;stroke-width:7.5;stroke-linecap:round;stroke-linejoin:round;stroke-miterlimit:10;stroke-dasharray:none;stroke-opacity:1"
             d="m 2660.4,1463.1 67.7,67.7 -67.7,67.7 -67.7,-67.7 67.7,-67.7" /><path
             id="path108"
             style="fill:none;stroke:#000000;stroke-width:7.5;stroke-linecap:round;stroke-linejoin:round;stroke-miterlimit:10;stroke-dasharray:none;stroke-opacity:1"
             d="m 3300.4,1614.8 72.7,-126 h -145.4 l 72.7,126" /><path
             id="path110"
             style="fill:none;stroke:#000000;stroke-width:7.5;stroke-linecap:round;stroke-linejoin:round;stroke-miterlimit:10;stroke-dasharray:none;stroke-opacity:1"
             d="m 3940.4,1446.8 72.7,126 h -145.4 l 72.7,-126" /></g></g><g
         id="g112"><g
           clip-path="url(#clipPath118)"
           id="g114"><path
             id="path120"
             style="fill:none;stroke:#000000;stroke-width:7.5;stroke-linecap:round;stroke-linejoin:round;stroke-miterlimit:10;stroke-dasharray:none;stroke-opacity:1"
             d="M 586.801,733.801 H 4734 V 4449 H 586.801 V 733.801" /><g
             transform="scale(10)"
             id="g122"><text
               id="text126"
               style="font-variant:normal;font-weight:bold;font-size:19px;font-family:Helvetica;-inkscape-font-specification:Helvetica-Bold;writing-mode:lr-tb;fill:#000000;fill-opacity:1;fill-rule:nonzero;stroke:none"
               transform="matrix(1,0,0,-1,126.65,467.6)"><tspan
                 id="tspan124"
                 y="0"
                 x="0 11.609 21.982813 33.591812 38.873814 45.200813 50.482815 55.764812 66.708992 71.99099 77.272987 82.554993 94.163994 99.445992 111.05499 117.38199 122.66399 133.0379 144.6469 155.21091 162.6019 173.16591 183.7299 190.0569 200.62091 208.0119 214.3389 219.62091 229.8051 240.36909 245.65109 257.2601 267.8241">pch (i.e., plot character) values</tspan></text></g></g></g><g
         id="g128"><g
           clip-path="url(#clipPath134)"
           id="g130"><g
             transform="scale(10)"
             id="g136"><text
               id="text174"
               style="font-variant:normal;font-weight:normal;font-size:16px;font-family:Helvetica;-inkscape-font-specification:Helvetica;writing-mode:lr-tb;fill:#000000;fill-opacity:1;fill-rule:nonzero;stroke:none"
               transform="matrix(1,0,0,-1,133.592,359.59)"><tspan
                 id="tspan138"
                 y="0"
                 x="0 64">12</tspan><tspan
                 id="tspan140"
                 y="-0.149609"
                 x="128">3</tspan><tspan
                 id="tspan142"
                 y="0"
                 x="192">4</tspan><tspan
                 id="tspan144"
                 y="-0.26992199"
                 x="256">5</tspan><tspan
                 id="tspan146"
                 y="57.180077"
                 x="0">6</tspan><tspan
                 id="tspan148"
                 y="57.22031"
                 x="64">7</tspan><tspan
                 id="tspan150"
                 y="57.180077"
                 x="128 192 251.552 260.448">8910</tspan><tspan
                 id="tspan152"
                 y="114.67028"
                 x="-4.448 4.448 59.551998 68.447998">1112</tspan><tspan
                 id="tspan154"
                 y="114.52028"
                 x="123.552 132.448">13</tspan><tspan
                 id="tspan156"
                 y="114.67028"
                 x="187.552 196.448">14</tspan><tspan
                 id="tspan158"
                 y="114.52028"
                 x="251.552 260.448">15</tspan><tspan
                 id="tspan160"
                 y="171.85039"
                 x="-4.448 4.448">16</tspan><tspan
                 id="tspan162"
                 y="172.00038"
                 x="59.551998 68.447998">17</tspan><tspan
                 id="tspan164"
                 y="171.85039"
                 x="123.552 132.448 187.552 196.448 251.552 260.448">181920</tspan><tspan
                 id="tspan166"
                 y="229.34018"
                 x="-4.448 4.448 59.551998 68.447998">2122</tspan><tspan
                 id="tspan168"
                 y="229.18002"
                 x="123.552 132.448">23</tspan><tspan
                 id="tspan170"
                 y="229.34018"
                 x="187.552 196.448">24</tspan><tspan
                 id="tspan172"
                 y="229.18002"
                 x="251.552 260.448">25</tspan></text></g></g></g></g></g></svg>
