<?xml version="1.0" encoding="UTF-8" standalone="no"?>
<svg
   xmlns:dc="http://purl.org/dc/elements/1.1/"
   xmlns:cc="http://creativecommons.org/ns#"
   xmlns:rdf="http://www.w3.org/1999/02/22-rdf-syntax-ns#"
   xmlns:svg="http://www.w3.org/2000/svg"
   xmlns="http://www.w3.org/2000/svg"
   id="svg21"
   version="1.2"
   viewBox="0 0 360 360"
   height="360pt"
   width="360pt">
  <metadata
     id="metadata27">
    <rdf:RDF>
      <cc:Work
         rdf:about="">
        <dc:format>image/svg+xml</dc:format>
        <dc:type
           rdf:resource="http://purl.org/dc/dcmitype/StillImage" />
      </cc:Work>
    </rdf:RDF>
  </metadata>
  <defs
     id="defs25" />
  <g
     id="surface1">
    <rect
       id="rect2"
       style="fill:#ffffff;fill-opacity:1;stroke:none"
       height="360"
       width="360"
       y="0"
       x="0" />
    <path
       id="path4"
       transform="matrix(0.1,0,0,-0.1,0,360)"
       d="m 881.21094,958.59375 c 0,14.92187 -12.10938,26.99219 -27.03125,26.99219 -14.88282,0 -26.99219,-12.07032 -26.99219,-26.99219 0,-14.92188 12.10937,-26.99219 26.99219,-26.99219 14.92187,0 27.03125,12.07031 27.03125,26.99219"
       style="fill:none;stroke:#000000;stroke-width:7.5;stroke-linecap:round;stroke-linejoin:round;stroke-miterlimit:10;stroke-opacity:1" />
    <path
       id="path6"
       transform="matrix(0.1,0,0,-0.1,0,360)"
       d="m 1048.2813,958.59375 c 0,14.92187 -12.0704,26.99219 -26.9922,26.99219 -14.8829,0 -26.99223,-12.07032 -26.99223,-26.99219 0,-14.92188 12.10933,-26.99219 26.99223,-26.99219 14.9218,0 26.9922,12.07031 26.9922,26.99219"
       style="fill:none;stroke:#000000;stroke-width:7.5;stroke-linecap:round;stroke-linejoin:round;stroke-miterlimit:10;stroke-opacity:1" />
    <path
       id="path8"
       transform="matrix(0.1,0,0,-0.1,0,360)"
       d="m 1215.3906,1098.9844 c 0,14.9219 -12.0703,27.0312 -26.9922,27.0312 -14.9218,0 -26.9921,-12.1093 -26.9921,-27.0312 0,-14.8828 12.0703,-26.9922 26.9921,-26.9922 14.9219,0 26.9922,12.1094 26.9922,26.9922"
       style="fill:none;stroke:#000000;stroke-width:7.5;stroke-linecap:round;stroke-linejoin:round;stroke-miterlimit:10;stroke-opacity:1" />
    <path
       id="path10"
       transform="matrix(0.1,0,0,-0.1,0,360)"
       d="m 1382.5,1239.4141 c 0,14.8828 -12.1094,26.9922 -26.9922,26.9922 -14.9219,0 -26.9922,-12.1094 -26.9922,-26.9922 0,-14.9219 12.0703,-27.0313 26.9922,-27.0313 14.8828,0 26.9922,12.1094 26.9922,27.0313"
       style="fill:none;stroke:#000000;stroke-width:7.5;stroke-linecap:round;stroke-linejoin:round;stroke-miterlimit:10;stroke-opacity:1" />
    <path
       id="path12"
       transform="matrix(0.1,0,0,-0.1,0,360)"
       d="m 1549.6094,1520.3125 c 0,14.8828 -12.1094,26.9922 -26.9922,26.9922 -14.9219,0 -27.0313,-12.1094 -27.0313,-26.9922 0,-14.9219 12.1094,-27.0312 27.0313,-27.0312 14.8828,0 26.9922,12.1093 26.9922,27.0312"
       style="fill:none;stroke:#000000;stroke-width:7.5;stroke-linecap:round;stroke-linejoin:round;stroke-miterlimit:10;stroke-opacity:1" />
    <path
       id="path14"
       transform="matrix(0.1,0,0,-0.1,0,360)"
       d="m 1716.7188,1941.7188 c 0,14.8828 -12.1094,26.9921 -27.0313,26.9921 -14.8828,0 -26.9922,-12.1093 -26.9922,-26.9921 0,-14.9219 12.1094,-27.0313 26.9922,-27.0313 14.9219,0 27.0313,12.1094 27.0313,27.0313"
       style="fill:none;stroke:#000000;stroke-width:7.5;stroke-linecap:round;stroke-linejoin:round;stroke-miterlimit:10;stroke-opacity:1" />
    <path
       id="path16"
       transform="matrix(0.1,0,0,-0.1,0,360)"
       d="m 1883.7891,2643.9063 c 0,14.9218 -12.0703,26.9921 -26.9922,26.9921 -14.9219,0 -26.9922,-12.0703 -26.9922,-26.9921 0,-14.9219 12.0703,-26.9922 26.9922,-26.9922 14.9219,0 26.9922,12.0703 26.9922,26.9922"
       style="fill:none;stroke:#000000;stroke-width:7.5;stroke-linecap:round;stroke-linejoin:round;stroke-miterlimit:10;stroke-opacity:1" />
    <path
       id="path18"
       transform="matrix(0.1,0,0,-0.1,0,360)"
       d="M 586.79687,733.78906 H 3293.9844 V 3008.9844 H 586.79687 V 733.78906"
       style="fill:none;stroke:#000000;stroke-width:7.5;stroke-linecap:round;stroke-linejoin:round;stroke-miterlimit:10;stroke-opacity:1" />
  </g>
</svg>
